<?xml version="1.0" encoding="UTF-8" standalone="no"?>
<!DOCTYPE svg PUBLIC "-//W3C//DTD SVG 1.1//EN" "http://www.w3.org/Graphics/SVG/1.1/DTD/svg11.dtd">
<svg width="100%" height="100%" viewBox="0 0 492 276" version="1.1" xmlns="http://www.w3.org/2000/svg" xmlns:xlink="http://www.w3.org/1999/xlink" xml:space="preserve" xmlns:serif="http://www.serif.com/" style="fill-rule:evenodd;clip-rule:evenodd;stroke-linejoin:round;stroke-miterlimit:2;">
    <g transform="matrix(1,0,0,1,-277.301,-75.4335)">
        <g>
            <g transform="matrix(204.868,0,0,123.798,341.425,237.98)">
                <path d="M0.335,0.909C0.316,0.909 0.307,0.898 0.308,0.875C0.308,0.864 0.309,0.852 0.31,0.839C0.311,0.825 0.312,0.816 0.313,0.811L0.32,0.735C0.322,0.712 0.328,0.655 0.337,0.564C0.346,0.472 0.355,0.388 0.365,0.309C0.369,0.274 0.372,0.248 0.375,0.231C0.383,0.162 0.39,0.105 0.397,0.06C0.403,0.015 0.41,-0.03 0.419,-0.075C0.42,-0.078 0.421,-0.082 0.422,-0.089C0.423,-0.095 0.424,-0.101 0.424,-0.106C0.424,-0.112 0.423,-0.117 0.421,-0.122C0.417,-0.123 0.414,-0.124 0.412,-0.124C0.407,-0.124 0.401,-0.122 0.395,-0.118C0.389,-0.114 0.384,-0.111 0.381,-0.11C0.318,-0.083 0.234,-0.045 0.129,0.004L0.071,0.031C0.06,0.036 0.051,0.046 0.046,0.059C0.015,0.138 -0.02,0.238 -0.061,0.359C-0.092,0.45 -0.115,0.518 -0.131,0.563C-0.136,0.577 -0.144,0.584 -0.153,0.584C-0.156,0.584 -0.159,0.583 -0.163,0.581C-0.172,0.578 -0.176,0.572 -0.176,0.563C-0.176,0.558 -0.175,0.552 -0.172,0.544L-0.068,0.229L-0.044,0.158C-0.028,0.113 -0.019,0.086 -0.016,0.079C-0.034,0.086 -0.051,0.094 -0.068,0.104C-0.084,0.113 -0.093,0.119 -0.096,0.12C-0.11,0.129 -0.124,0.137 -0.138,0.144C-0.161,0.156 -0.184,0.169 -0.207,0.183C-0.241,0.202 -0.26,0.213 -0.265,0.216L-0.284,0.226C-0.286,0.227 -0.289,0.227 -0.293,0.227C-0.301,0.227 -0.307,0.223 -0.31,0.216C-0.312,0.212 -0.313,0.208 -0.313,0.204C-0.313,0.197 -0.309,0.191 -0.302,0.186C-0.3,0.185 -0.298,0.184 -0.295,0.183C-0.292,0.182 -0.29,0.18 -0.287,0.179C-0.186,0.118 -0.098,0.068 -0.021,0.028C0,0.017 0.015,-0.001 0.025,-0.026C0.114,-0.251 0.198,-0.444 0.276,-0.607C0.356,-0.774 0.432,-0.918 0.503,-1.038L0.519,-1.065C0.545,-1.109 0.568,-1.147 0.589,-1.179C0.609,-1.21 0.631,-1.24 0.655,-1.268C0.668,-1.284 0.68,-1.296 0.691,-1.304C0.698,-1.31 0.707,-1.313 0.717,-1.313C0.726,-1.313 0.735,-1.31 0.742,-1.305C0.749,-1.299 0.754,-1.291 0.755,-1.281C0.756,-1.268 0.757,-1.258 0.757,-1.252C0.757,-1.241 0.756,-1.231 0.754,-1.221C0.739,-1.148 0.713,-1.048 0.677,-0.921L0.671,-0.9L0.649,-0.822C0.637,-0.783 0.626,-0.744 0.616,-0.705C0.587,-0.596 0.564,-0.504 0.545,-0.43C0.54,-0.411 0.53,-0.364 0.515,-0.291C0.512,-0.268 0.507,-0.242 0.5,-0.213C0.509,-0.216 0.519,-0.22 0.53,-0.225C0.541,-0.23 0.554,-0.235 0.568,-0.24L0.686,-0.288C0.689,-0.289 0.695,-0.292 0.705,-0.295C0.757,-0.316 0.793,-0.332 0.813,-0.342C0.821,-0.347 0.828,-0.349 0.835,-0.349C0.842,-0.349 0.847,-0.346 0.852,-0.339C0.855,-0.336 0.856,-0.332 0.856,-0.327C0.856,-0.322 0.853,-0.315 0.848,-0.304C0.842,-0.293 0.837,-0.286 0.832,-0.281C0.827,-0.276 0.821,-0.274 0.813,-0.274C0.81,-0.274 0.806,-0.275 0.801,-0.276C0.799,-0.277 0.796,-0.277 0.793,-0.277C0.786,-0.277 0.777,-0.275 0.768,-0.27C0.758,-0.265 0.75,-0.261 0.745,-0.259C0.731,-0.254 0.696,-0.24 0.641,-0.218L0.537,-0.176C0.52,-0.169 0.507,-0.162 0.499,-0.153C0.49,-0.144 0.485,-0.131 0.482,-0.114C0.48,-0.097 0.478,-0.082 0.476,-0.069C0.473,-0.056 0.471,-0.045 0.47,-0.036L0.458,0.043C0.453,0.083 0.448,0.113 0.445,0.133C0.44,0.163 0.435,0.203 0.429,0.252L0.415,0.38C0.412,0.407 0.408,0.451 0.401,0.514C0.394,0.573 0.386,0.654 0.376,0.756L0.365,0.866C0.365,0.869 0.364,0.875 0.363,0.883C0.36,0.891 0.357,0.897 0.353,0.902C0.348,0.907 0.342,0.909 0.335,0.909ZM0.084,-0.035C0.086,-0.034 0.089,-0.033 0.092,-0.033C0.094,-0.033 0.096,-0.034 0.098,-0.035C0.1,-0.036 0.101,-0.036 0.102,-0.036C0.125,-0.047 0.188,-0.076 0.292,-0.124L0.352,-0.151L0.419,-0.18C0.433,-0.185 0.441,-0.196 0.443,-0.212C0.448,-0.249 0.454,-0.285 0.462,-0.322C0.47,-0.358 0.481,-0.403 0.495,-0.457C0.498,-0.47 0.506,-0.498 0.517,-0.543C0.556,-0.692 0.579,-0.778 0.586,-0.802L0.592,-0.824C0.637,-0.988 0.673,-1.111 0.698,-1.192C0.701,-1.201 0.702,-1.209 0.702,-1.214C0.702,-1.222 0.7,-1.228 0.697,-1.233C0.692,-1.232 0.689,-1.23 0.686,-1.227C0.683,-1.223 0.68,-1.22 0.678,-1.217C0.676,-1.214 0.674,-1.211 0.673,-1.209L0.645,-1.167C0.624,-1.138 0.605,-1.11 0.589,-1.083L0.561,-1.035C0.502,-0.936 0.46,-0.861 0.435,-0.81C0.426,-0.793 0.413,-0.767 0.394,-0.732C0.373,-0.696 0.356,-0.662 0.341,-0.63C0.328,-0.601 0.309,-0.558 0.282,-0.501C0.223,-0.376 0.18,-0.279 0.153,-0.209L0.129,-0.151C0.109,-0.103 0.094,-0.064 0.084,-0.035Z" style="fill:rgb(248,176,176);fill-rule:nonzero;"/>
            </g>
            <g transform="matrix(204.868,0,0,123.798,496.304,237.98)">
                <path d="M0.055,-0.033C0.044,-0.028 0.033,-0.025 0.022,-0.025C0.007,-0.025 -0.006,-0.031 -0.015,-0.043C-0.024,-0.055 -0.028,-0.072 -0.028,-0.093C-0.028,-0.13 -0.022,-0.166 -0.009,-0.201C0.004,-0.236 0.022,-0.272 0.045,-0.309C0.052,-0.319 0.063,-0.328 0.076,-0.335C0.084,-0.338 0.091,-0.34 0.097,-0.34C0.11,-0.34 0.122,-0.335 0.132,-0.326C0.141,-0.317 0.146,-0.305 0.146,-0.291C0.146,-0.283 0.144,-0.277 0.14,-0.273C0.135,-0.268 0.13,-0.266 0.124,-0.266C0.119,-0.266 0.114,-0.267 0.109,-0.27C0.106,-0.271 0.103,-0.274 0.101,-0.278C0.097,-0.281 0.095,-0.284 0.092,-0.287C0.049,-0.23 0.024,-0.167 0.018,-0.1L0.018,-0.094C0.018,-0.083 0.021,-0.078 0.027,-0.078C0.032,-0.078 0.037,-0.08 0.044,-0.085C0.059,-0.094 0.072,-0.103 0.085,-0.115C0.098,-0.126 0.113,-0.14 0.131,-0.157L0.158,-0.183L0.265,-0.283C0.266,-0.284 0.27,-0.288 0.275,-0.293C0.28,-0.298 0.286,-0.3 0.291,-0.3C0.296,-0.3 0.3,-0.297 0.305,-0.292C0.31,-0.285 0.313,-0.279 0.313,-0.274C0.313,-0.265 0.308,-0.256 0.298,-0.247L0.227,-0.181C0.212,-0.166 0.188,-0.143 0.156,-0.114C0.141,-0.101 0.119,-0.081 0.088,-0.056C0.081,-0.049 0.07,-0.041 0.055,-0.033Z" style="fill:rgb(248,176,176);fill-rule:nonzero;"/>
            </g>
            <g transform="matrix(204.868,0,0,123.798,549.143,237.98)">
                <path d="M0.055,-0.033C0.044,-0.028 0.033,-0.025 0.022,-0.025C0.007,-0.025 -0.006,-0.031 -0.015,-0.043C-0.024,-0.055 -0.028,-0.072 -0.028,-0.093C-0.028,-0.13 -0.022,-0.166 -0.009,-0.201C0.004,-0.236 0.022,-0.272 0.045,-0.309C0.052,-0.319 0.063,-0.328 0.076,-0.335C0.084,-0.338 0.091,-0.34 0.097,-0.34C0.11,-0.34 0.122,-0.335 0.132,-0.326C0.141,-0.317 0.146,-0.305 0.146,-0.291C0.146,-0.283 0.144,-0.277 0.14,-0.273C0.135,-0.268 0.13,-0.266 0.124,-0.266C0.119,-0.266 0.114,-0.267 0.109,-0.27C0.106,-0.271 0.103,-0.274 0.101,-0.278C0.097,-0.281 0.095,-0.284 0.092,-0.287C0.049,-0.23 0.024,-0.167 0.018,-0.1L0.018,-0.094C0.018,-0.083 0.021,-0.078 0.027,-0.078C0.032,-0.078 0.037,-0.08 0.044,-0.085C0.059,-0.094 0.072,-0.103 0.085,-0.115C0.098,-0.126 0.113,-0.14 0.131,-0.157L0.158,-0.183L0.265,-0.283C0.266,-0.284 0.27,-0.288 0.275,-0.293C0.28,-0.298 0.286,-0.3 0.291,-0.3C0.296,-0.3 0.3,-0.297 0.305,-0.292C0.31,-0.285 0.313,-0.279 0.313,-0.274C0.313,-0.265 0.308,-0.256 0.298,-0.247L0.227,-0.181C0.212,-0.166 0.188,-0.143 0.156,-0.114C0.141,-0.101 0.119,-0.081 0.088,-0.056C0.081,-0.049 0.07,-0.041 0.055,-0.033Z" style="fill:rgb(248,176,176);fill-rule:nonzero;"/>
            </g>
            <g transform="matrix(204.868,0,0,123.798,598.267,237.98)">
                <path d="M0.123,0.024C0.108,0.031 0.093,0.034 0.078,0.034C0.051,0.034 0.027,0.023 0.008,0.002C-0.011,-0.019 -0.021,-0.051 -0.02,-0.093C-0.009,-0.154 0.008,-0.205 0.031,-0.248C0.053,-0.29 0.089,-0.324 0.139,-0.349C0.149,-0.354 0.16,-0.357 0.172,-0.357C0.184,-0.357 0.194,-0.354 0.203,-0.347C0.212,-0.339 0.218,-0.33 0.222,-0.317C0.223,-0.31 0.224,-0.306 0.224,-0.303C0.224,-0.296 0.222,-0.287 0.217,-0.275C0.203,-0.242 0.185,-0.213 0.163,-0.189C0.14,-0.164 0.113,-0.142 0.08,-0.123C0.073,-0.119 0.066,-0.116 0.057,-0.113C0.049,-0.11 0.043,-0.108 0.04,-0.106C0.037,-0.103 0.035,-0.099 0.035,-0.092C0.035,-0.048 0.05,-0.026 0.08,-0.026C0.09,-0.026 0.101,-0.028 0.113,-0.032C0.137,-0.039 0.166,-0.058 0.2,-0.087C0.233,-0.116 0.261,-0.144 0.284,-0.171L0.289,-0.178C0.3,-0.192 0.31,-0.199 0.318,-0.199C0.323,-0.199 0.327,-0.197 0.331,-0.193C0.337,-0.187 0.34,-0.181 0.34,-0.174C0.34,-0.167 0.336,-0.158 0.329,-0.147C0.307,-0.117 0.275,-0.085 0.234,-0.05C0.192,-0.015 0.155,0.01 0.123,0.024ZM0.054,-0.162C0.101,-0.188 0.139,-0.225 0.166,-0.273C0.167,-0.275 0.169,-0.278 0.172,-0.283C0.174,-0.287 0.176,-0.291 0.176,-0.295C0.176,-0.298 0.174,-0.301 0.171,-0.304C0.168,-0.307 0.165,-0.308 0.16,-0.308C0.155,-0.308 0.149,-0.306 0.143,-0.302C0.137,-0.297 0.13,-0.291 0.121,-0.282C0.103,-0.261 0.088,-0.242 0.077,-0.224C0.066,-0.205 0.058,-0.185 0.054,-0.162Z" style="fill:rgb(248,176,176);fill-rule:nonzero;"/>
            </g>
            <g transform="matrix(204.868,0,0,123.798,655.586,237.98)">
                <path d="M0.055,0.166C0.042,0.166 0.032,0.162 0.025,0.153C0.018,0.143 0.014,0.131 0.014,0.116C0.014,0.109 0.014,0.104 0.015,0.1C0.021,0.065 0.035,0.032 0.057,0.001C0.074,-0.024 0.083,-0.048 0.083,-0.072C0.083,-0.091 0.078,-0.109 0.069,-0.127L0.003,-0.263C-0.006,-0.282 -0.011,-0.3 -0.011,-0.316C-0.011,-0.345 0.005,-0.368 0.038,-0.385C0.059,-0.396 0.085,-0.407 0.118,-0.418C0.125,-0.421 0.13,-0.422 0.135,-0.421C0.154,-0.421 0.163,-0.413 0.164,-0.396C0.164,-0.389 0.162,-0.383 0.157,-0.379C0.152,-0.374 0.146,-0.372 0.139,-0.373C0.122,-0.374 0.108,-0.372 0.096,-0.366C0.083,-0.359 0.067,-0.349 0.046,-0.334C0.037,-0.328 0.033,-0.321 0.033,-0.313C0.033,-0.308 0.035,-0.303 0.038,-0.296L0.06,-0.253C0.086,-0.203 0.108,-0.157 0.125,-0.116L0.259,-0.242C0.264,-0.245 0.268,-0.247 0.273,-0.247C0.278,-0.247 0.282,-0.245 0.287,-0.241C0.292,-0.237 0.294,-0.233 0.294,-0.228C0.294,-0.223 0.292,-0.218 0.288,-0.214C0.283,-0.207 0.267,-0.191 0.238,-0.165C0.213,-0.142 0.2,-0.128 0.197,-0.125C0.194,-0.121 0.19,-0.117 0.187,-0.112C0.184,-0.107 0.18,-0.103 0.175,-0.098C0.154,-0.073 0.143,-0.047 0.143,-0.018C0.143,-0.013 0.144,-0.006 0.145,0.005C0.146,0.01 0.147,0.019 0.147,0.03C0.147,0.067 0.133,0.104 0.104,0.141C0.098,0.149 0.091,0.155 0.082,0.16C0.073,0.164 0.064,0.166 0.055,0.166ZM0.073,0.103C0.093,0.092 0.103,0.068 0.103,0.032C0.103,0.024 0.103,0.017 0.102,0.012C0.101,0.006 0.101,0.002 0.1,0.001C0.089,0.016 0.08,0.033 0.072,0.052C0.064,0.071 0.06,0.085 0.06,0.095C0.06,0.105 0.064,0.108 0.073,0.103Z" style="fill:rgb(248,176,176);fill-rule:nonzero;"/>
            </g>
            <g transform="matrix(204.868,0,0,123.798,708.237,237.98)">
                <path d="M0.055,0.166C0.042,0.166 0.032,0.162 0.025,0.153C0.018,0.143 0.014,0.131 0.014,0.116C0.014,0.109 0.014,0.104 0.015,0.1C0.021,0.065 0.035,0.032 0.057,0.001C0.074,-0.024 0.083,-0.048 0.083,-0.072C0.083,-0.091 0.078,-0.109 0.069,-0.127L0.003,-0.263C-0.006,-0.282 -0.011,-0.3 -0.011,-0.316C-0.011,-0.345 0.005,-0.368 0.038,-0.385C0.059,-0.396 0.085,-0.407 0.118,-0.418C0.125,-0.421 0.13,-0.422 0.135,-0.421C0.154,-0.421 0.163,-0.413 0.164,-0.396C0.164,-0.389 0.162,-0.383 0.157,-0.379C0.152,-0.374 0.146,-0.372 0.139,-0.373C0.122,-0.374 0.108,-0.372 0.096,-0.366C0.083,-0.359 0.067,-0.349 0.046,-0.334C0.037,-0.328 0.033,-0.321 0.033,-0.313C0.033,-0.308 0.035,-0.303 0.038,-0.296L0.06,-0.253C0.086,-0.203 0.108,-0.157 0.125,-0.116L0.259,-0.242C0.264,-0.245 0.268,-0.247 0.273,-0.247C0.278,-0.247 0.282,-0.245 0.287,-0.241C0.292,-0.237 0.294,-0.233 0.294,-0.228C0.294,-0.223 0.292,-0.218 0.288,-0.214C0.283,-0.207 0.267,-0.191 0.238,-0.165C0.213,-0.142 0.2,-0.128 0.197,-0.125C0.194,-0.121 0.19,-0.117 0.187,-0.112C0.184,-0.107 0.18,-0.103 0.175,-0.098C0.154,-0.073 0.143,-0.047 0.143,-0.018C0.143,-0.013 0.144,-0.006 0.145,0.005C0.146,0.01 0.147,0.019 0.147,0.03C0.147,0.067 0.133,0.104 0.104,0.141C0.098,0.149 0.091,0.155 0.082,0.16C0.073,0.164 0.064,0.166 0.055,0.166ZM0.073,0.103C0.093,0.092 0.103,0.068 0.103,0.032C0.103,0.024 0.103,0.017 0.102,0.012C0.101,0.006 0.101,0.002 0.1,0.001C0.089,0.016 0.08,0.033 0.072,0.052C0.064,0.071 0.06,0.085 0.06,0.095C0.06,0.105 0.064,0.108 0.073,0.103Z" style="fill:rgb(248,176,176);fill-rule:nonzero;"/>
            </g>
        </g>
    </g>
</svg>
