<?xml version="1.0" encoding="UTF-8" standalone="no"?><!DOCTYPE svg PUBLIC "-//W3C//DTD SVG 1.1//EN" "http://www.w3.org/Graphics/SVG/1.1/DTD/svg11.dtd"><svg width="100%" height="100%" viewBox="0 0 750 750" version="1.1" xmlns="http://www.w3.org/2000/svg" xmlns:xlink="http://www.w3.org/1999/xlink" xml:space="preserve" xmlns:serif="http://www.serif.com/" style="fill-rule:evenodd;clip-rule:evenodd;stroke-linejoin:round;stroke-miterlimit:2;"><path d="M749.129,187.282c0,-103.364 -83.918,-187.282 -187.282,-187.282l-374.565,0c-103.364,0 -187.282,83.918 -187.282,187.282l0,374.565c0,103.364 83.918,187.282 187.282,187.282l374.565,0c103.364,0 187.282,-83.918 187.282,-187.282l0,-374.565Zm-412.569,149.278l0,-173.519c0,-10.488 8.515,-19.002 19.002,-19.002l38.005,0c10.487,0 19.002,8.514 19.002,19.002l0,173.519l173.519,0c10.488,0 19.002,8.515 19.002,19.002l0,38.005c0,10.487 -8.514,19.002 -19.002,19.002l-173.519,0l0,173.519c0,10.488 -8.515,19.002 -19.002,19.002l-38.005,0c-10.487,0 -19.002,-8.514 -19.002,-19.002l0,-173.519l-173.519,0c-10.488,0 -19.002,-8.515 -19.002,-19.002l0,-38.005c0,-10.487 8.514,-19.002 19.002,-19.002l173.519,0Z" style="fill:#f7b7b7;"/></svg>