<?xml version="1.0" encoding="UTF-8" standalone="no"?>
<!DOCTYPE svg PUBLIC "-//W3C//DTD SVG 1.1//EN" "http://www.w3.org/Graphics/SVG/1.1/DTD/svg11.dtd">
<svg width="100%" height="100%" viewBox="0 0 1529 1522" version="1.1" xmlns="http://www.w3.org/2000/svg" xmlns:xlink="http://www.w3.org/1999/xlink" xml:space="preserve" xmlns:serif="http://www.serif.com/" style="fill-rule:evenodd;clip-rule:evenodd;stroke-linejoin:round;stroke-miterlimit:2;">
    <g transform="matrix(4.57,0,0,4.57,0,0)">
        <g id="Paint_Patterns">
            <g id="Calendar-3">
                <path d="M308.31,30.92L292.1,30.92L292.1,26.12C292.056,11.815 280.305,0.055 266,0L265.61,0C251.29,0.038 239.518,11.81 239.48,26.13L239.48,30.93L95,30.93L95,26.13C94.962,11.795 83.165,0.016 68.83,0L68.44,0C54.12,0.038 42.348,11.81 42.31,26.13L42.31,30.93L26.13,30.93C11.814,30.968 0.044,42.734 0,57.05L0,306.85C0.027,321.178 11.802,332.962 26.13,333L308.31,333C322.63,332.962 334.402,321.19 334.44,306.87L334.44,57.05C334.402,42.73 322.63,30.958 308.31,30.92ZM249.91,26.12C249.915,17.52 256.99,10.445 265.59,10.44L266,10.44C274.596,10.456 281.664,17.524 281.68,26.12L281.68,72.61C281.658,81.202 274.592,88.264 266,88.28L265.61,88.28C257.01,88.275 249.935,81.2 249.93,72.6L249.91,26.12ZM52.77,26.12C52.781,17.528 59.848,10.461 68.44,10.45L68.83,10.45C77.426,10.466 84.494,17.534 84.51,26.13L84.51,72.61C84.488,81.202 77.422,88.264 68.83,88.28L68.44,88.28C59.848,88.269 52.781,81.202 52.77,72.61L52.77,26.12ZM308.31,312.12L26.13,312.12C23.275,312.083 20.937,309.745 20.9,306.89L20.9,123.19L313.53,123.19L313.53,306.86C313.487,309.707 311.157,312.037 308.31,312.08L308.31,312.12Z" style="fill:white;fill-rule:nonzero;"/>
            </g>
        </g>
    </g>
</svg>
