<svg xmlns="http://www.w3.org/2000/svg" xmlns:xlink="http://www.w3.org/1999/xlink" viewBox="0 0 1614.23 1607.31"><defs><style>.cls-1{stroke:#fff;stroke-miterlimit:10;stroke-width:4px;}</style><symbol id="Calendar" data-name="Calendar" viewBox="0 0 353.5 351.98"><path class="cls-1" d="M324,34.32H307.46a.2.2,0,0,1-.2-.2V29.51A27.59,27.59,0,0,0,279.75,2h0a27.59,27.59,0,0,0-27.51,27.51v4.61a.2.2,0,0,1-.2.2H101.44a.2.2,0,0,1-.2-.2V29.51A27.59,27.59,0,0,0,73.73,2h0A27.59,27.59,0,0,0,46.22,29.51v4.61a.2.2,0,0,1-.2.2H29.51A27.59,27.59,0,0,0,2,61.82V322.48A27.59,27.59,0,0,0,29.51,350H324a27.59,27.59,0,0,0,27.51-27.51V61.82A27.59,27.59,0,0,0,324,34.32Zm-60.83-5a16.4,16.4,0,0,1,16.38-16.38h.2a16.63,16.63,0,0,1,16.59,16.59V77.67a16.63,16.63,0,0,1-16.59,16.59h-.2a16.4,16.4,0,0,1-16.38-16.38Zm-206,0A16.4,16.4,0,0,1,73.53,12.92h.2A16.63,16.63,0,0,1,90.31,29.51V77.67A16.63,16.63,0,0,1,73.73,94.26h-.2A16.4,16.4,0,0,1,57.14,77.88ZM324.19,328.14H29.3a5.54,5.54,0,0,1-5.46-5.46V130.94a.2.2,0,0,1,.2-.2H329.45a.2.2,0,0,1,.2.2V322.68A5.54,5.54,0,0,1,324.19,328.14Z"/></symbol></defs><title>cal2</title><g id="Layer_2" data-name="Layer 2"><g id="Paint_Patterns" data-name="Paint Patterns"><use id="Calendar-3" data-name="Calendar" width="353.5" height="351.98" transform="scale(4.57)" xlink:href="#Calendar"/></g></g></svg>