<svg xmlns="http://www.w3.org/2000/svg" xmlns:xlink="http://www.w3.org/1999/xlink" width="1528.2991" height="1521.7187" viewBox="0 0 1528.2991 1521.7187"><defs><style>.\30 55de79d-b5aa-4544-ada6-aac1ed2ba1ce{fill:#fff;}</style><symbol id="a5107b81-92ae-49f8-9a7b-5480237676e1" data-name="Calendar" viewBox="0 0 334.44 333"><path class="055de79d-b5aa-4544-ada6-aac1ed2ba1ce" d="M308.31,302.08H292.1v4.8A26.2,26.2,0,0,1,266,333h-.39a26.2,26.2,0,0,1-26.13-26.13v-4.8H95v4.8A26.2,26.2,0,0,1,68.83,333h-.39a26.2,26.2,0,0,1-26.13-26.13v-4.8H26.13A26.2,26.2,0,0,1,0,275.95V26.15A26.2,26.2,0,0,1,26.13,0H308.31a26.2,26.2,0,0,1,26.13,26.13V275.95A26.2,26.2,0,0,1,308.31,302.08Zm-58.4,4.8a15.69,15.69,0,0,0,15.68,15.68H266a15.71,15.71,0,0,0,15.68-15.68V260.39A15.71,15.71,0,0,0,266,244.72h-.39a15.69,15.69,0,0,0-15.68,15.68Zm-197.14,0a15.69,15.69,0,0,0,15.67,15.67h.39a15.71,15.71,0,0,0,15.68-15.68V260.39a15.71,15.71,0,0,0-15.68-15.67h-.39a15.69,15.69,0,0,0-15.67,15.67Zm255.54-286H26.13a5.3,5.3,0,0,0-5.23,5.23v183.7H313.53V26.14a5.3,5.3,0,0,0-5.22-5.22Z"/></symbol></defs><title>call</title><g id="192245b5-dc2a-4f3a-9abf-a197279434b9" data-name="Layer 2"><g id="00074b8c-1374-4a82-9fb4-bfce1b2889aa" data-name="Layer 1"><g id="b963f88f-4a09-43a6-89a4-7c1dd7ef480a" data-name="Layer 2"><g id="9df1aa1d-b1cd-41b0-b816-e9ef0c0c2879" data-name="Paint Patterns"><use id="9634eea8-421e-4ab2-b5a8-e684d60ef917" data-name="Calendar-3" width="334.44" height="333" transform="matrix(4.5697, 0, 0, -4.5697, 0, 1521.7187)" xlink:href="#a5107b81-92ae-49f8-9a7b-5480237676e1"/></g></g></g></g></svg>