<?xml version="1.0" encoding="UTF-8" standalone="no"?>
<!DOCTYPE svg PUBLIC "-//W3C//DTD SVG 1.1//EN" "http://www.w3.org/Graphics/SVG/1.1/DTD/svg11.dtd">
<svg width="100%" height="100%" viewBox="0 0 2035 2035" version="1.1" xmlns="http://www.w3.org/2000/svg" xmlns:xlink="http://www.w3.org/1999/xlink" xml:space="preserve" xmlns:serif="http://www.serif.com/" style="fill-rule:evenodd;clip-rule:evenodd;stroke-linejoin:round;stroke-miterlimit:2;">
    <g transform="matrix(1,0,0,1,11.3641,47.2135)">
        <g transform="matrix(1,0,0,1,-11.3641,-47.2135)">
            <path d="M1017.26,0C1425.27,0 1777.49,240.722 1939.54,587.766C2000.48,718.277 2034.52,863.824 2034.52,1017.26C2034.52,1578.7 1578.7,2034.52 1017.26,2034.52C455.819,2034.52 0,1578.7 0,1017.26C0,455.819 455.819,0 1017.26,0ZM1018.29,93.081C1531.75,93.081 1948.62,509.946 1948.62,1023.41C1948.62,1536.87 1531.75,1953.73 1018.29,1953.73C504.831,1953.73 71.855,1688.61 71.855,1175.15C71.855,896.686 199.201,602.002 397.669,390.593C565.157,212.184 783.295,93.081 1018.29,93.081ZM922.899,1190.92C897.037,1165.01 866.536,1133.78 858.87,1124.92C857.437,1122.56 855.745,1120.4 853.791,1118.44C840.787,1105.47 819.742,1105.47 806.737,1118.44L442.935,1482.31C410.383,1514.86 410.383,1567.63 442.935,1600.18C475.487,1632.73 528.254,1632.73 560.806,1600.18L922.899,1238.04C935.904,1225.04 935.904,1203.92 922.899,1190.92ZM989.338,1554.92C966.991,1554.85 945.637,1545.77 930.093,1529.71C898.323,1497.02 898.616,1444.89 930.728,1412.55L1059.96,1283.32L883.3,1106.64C850.764,1074.11 850.764,1021.36 883.3,988.821C916.259,957.326 968.163,957.326 1001.14,988.821L1225,1212.71C1264.06,1251.76 1264.06,1315.09 1225,1354.15L1048.63,1530.52C1033.06,1546.19 1011.86,1554.98 989.761,1554.92L989.338,1554.92ZM1532.66,1143.28C1578.69,1143.28 1616,1105.98 1616,1059.95C1616,1013.92 1578.69,976.614 1532.66,976.614L1349.33,976.614L1349.33,876.614C1349.33,864.325 1342.56,853.013 1331.72,847.219C1320.88,841.425 1307.73,842.059 1297.49,848.879L1197.49,915.546C1188.23,921.731 1182.66,932.131 1182.66,943.28L1182.66,1043.28C1182.66,1098.51 1227.44,1143.28 1282.66,1143.28L1532.66,1143.28ZM1026.43,533.808C986.864,496.047 924.608,496.047 885.025,533.808L661.132,757.75C628.84,790.334 628.954,842.906 661.409,875.344C693.847,907.782 746.418,907.88 779.003,875.588L955.663,698.912L1087.34,830.52C1119.37,862.6 1171.27,862.86 1203.63,831.106C1219.81,815.774 1229.1,794.533 1229.39,772.252C1229.7,749.953 1220.96,728.485 1205.19,712.714L1026.43,533.808ZM1396.53,410.517C1304.8,402.85 1224.22,471.015 1216.57,562.746C1208.9,654.478 1277.07,735.061 1368.8,742.711C1373.5,743.117 1378.12,743.28 1382.76,743.28C1469.34,743.117 1541.42,676.776 1548.73,590.513C1556.3,498.814 1488.21,418.296 1396.53,410.517Z" style="fill:white;"/>
        </g>
    </g>
</svg>
