<svg xmlns="http://www.w3.org/2000/svg" width="143.2752" height="108.2969" viewBox="0 0 143.2752 108.2969"><defs><style>.\35 5fc8ddf-0ba6-451b-bc8e-dc8399cdc4e7{fill:#95d9f3;}</style></defs><title>chatbub</title><g id="30cd0677-4dbb-44f3-875f-aec923b6fea8" data-name="Layer 2"><g id="07673153-b664-4c9d-96dd-442974c87c70" data-name="Android-Compatible Icon Set A"><path class="55fc8ddf-0ba6-451b-bc8e-dc8399cdc4e7" d="M95.5126,0c-.0413,0-.0815.0042-.1227.0044H47.7585C21.3822.0044,0,21.6172,0,48.2783S21.3822,96.5525,47.7585,96.5525H95.39c.0412,0,.0814.0042.1227.0042A47.1931,47.1931,0,0,0,122.97,87.7727l20.3049,20.5242V48.2783C143.2752,21.6208,121.8981,0,95.5126,0ZM49.1637,57.9109a7.691,7.691,0,1,1,7.6084-7.69A7.65,7.65,0,0,1,49.1637,57.9109Zm21.9936,0a7.691,7.691,0,1,1,7.6084-7.69A7.65,7.65,0,0,1,71.1573,57.9109Zm21.9936,0a7.691,7.691,0,1,1,7.6085-7.69A7.65,7.65,0,0,1,93.1509,57.9109Z"/></g></g></svg>