<?xml version="1.0" encoding="UTF-8" standalone="no"?>
<!DOCTYPE svg PUBLIC "-//W3C//DTD SVG 1.1//EN" "http://www.w3.org/Graphics/SVG/1.1/DTD/svg11.dtd">
<svg width="100%" height="100%" viewBox="0 0 824 748" version="1.1" xmlns="http://www.w3.org/2000/svg" xmlns:xlink="http://www.w3.org/1999/xlink" xml:space="preserve" xmlns:serif="http://www.serif.com/" style="fill-rule:evenodd;clip-rule:evenodd;stroke-linejoin:round;stroke-miterlimit:2;">
    <g transform="matrix(1,0,0,1,230.37,848.293)">
        <g>
            <g transform="matrix(1,0,0,1,-2.5496,-6.83073)">
                <g transform="matrix(0.82859,0,0,0.82859,-31.7773,-372.902)">
                    <g transform="matrix(290.624,0,0,290.624,-220.564,-185.844)">
                        <path d="M0.127,0.291C0.117,0.295 0.107,0.297 0.098,0.297C0.077,0.297 0.059,0.289 0.043,0.273C0.005,0.236 -0.02,0.187 -0.032,0.127C-0.041,0.084 -0.045,0.041 -0.045,-0.004C-0.045,-0.053 -0.039,-0.113 -0.027,-0.185C-0.004,-0.32 0.026,-0.437 0.062,-0.536C0.098,-0.635 0.133,-0.722 0.168,-0.799C0.202,-0.876 0.242,-0.947 0.287,-1.014C0.322,-1.066 0.356,-1.104 0.39,-1.129C0.414,-1.147 0.437,-1.156 0.459,-1.156C0.478,-1.156 0.494,-1.15 0.509,-1.137C0.524,-1.124 0.535,-1.106 0.543,-1.084C0.552,-1.06 0.559,-1.035 0.563,-1.01C0.567,-0.985 0.57,-0.954 0.573,-0.919L0.573,-0.911C0.573,-0.907 0.573,-0.904 0.572,-0.902C0.57,-0.892 0.567,-0.885 0.564,-0.88C0.561,-0.875 0.555,-0.873 0.546,-0.874C0.539,-0.875 0.534,-0.879 0.532,-0.884C0.529,-0.889 0.528,-0.896 0.529,-0.904C0.53,-0.943 0.523,-0.992 0.508,-1.049C0.502,-1.065 0.498,-1.075 0.495,-1.08C0.484,-1.099 0.472,-1.109 0.459,-1.109C0.448,-1.109 0.437,-1.104 0.425,-1.095C0.402,-1.078 0.381,-1.059 0.364,-1.036C0.346,-1.013 0.328,-0.987 0.311,-0.956C0.208,-0.774 0.131,-0.588 0.078,-0.397C0.064,-0.347 0.052,-0.296 0.043,-0.244C0.034,-0.192 0.025,-0.133 0.016,-0.067C0.015,-0.062 0.015,-0.055 0.015,-0.044L0.016,0.002C0.016,0.067 0.026,0.125 0.047,0.174C0.048,0.176 0.049,0.181 0.053,0.189C0.056,0.196 0.06,0.203 0.065,0.209C0.078,0.225 0.092,0.233 0.105,0.233C0.116,0.233 0.126,0.229 0.136,0.222C0.202,0.179 0.261,0.127 0.314,0.068C0.316,0.065 0.321,0.059 0.33,0.05C0.339,0.04 0.347,0.031 0.356,0.024C0.368,0.016 0.377,0.012 0.383,0.012C0.39,0.012 0.395,0.014 0.399,0.018C0.404,0.023 0.407,0.028 0.407,0.034C0.407,0.039 0.406,0.044 0.403,0.049C0.4,0.054 0.399,0.057 0.398,0.058C0.387,0.074 0.379,0.086 0.373,0.093C0.326,0.15 0.269,0.203 0.203,0.252C0.18,0.269 0.155,0.282 0.127,0.291Z" style="fill:white;fill-rule:nonzero;"/>
                    </g>
                    <g transform="matrix(290.624,0,0,290.624,-71.4735,-185.844)">
                        <path d="M0.007,0.065C-0.004,0.062 -0.011,0.056 -0.014,0.047C-0.017,0.038 -0.018,0.027 -0.018,0.014C-0.018,-0.018 -0.01,-0.057 0.006,-0.104C0.012,-0.122 0.015,-0.136 0.015,-0.147C0.015,-0.162 0.01,-0.175 0,-0.188C-0.007,-0.195 -0.01,-0.206 -0.01,-0.221C-0.01,-0.226 -0.009,-0.233 -0.008,-0.242C0.002,-0.302 0.028,-0.353 0.069,-0.394C0.075,-0.4 0.082,-0.405 0.09,-0.409C0.105,-0.416 0.117,-0.42 0.128,-0.42C0.141,-0.42 0.153,-0.416 0.162,-0.407C0.171,-0.398 0.178,-0.385 0.182,-0.368C0.187,-0.349 0.189,-0.329 0.189,-0.308C0.189,-0.281 0.185,-0.249 0.177,-0.214C0.176,-0.21 0.175,-0.205 0.173,-0.199C0.17,-0.193 0.169,-0.187 0.169,-0.182C0.169,-0.178 0.17,-0.173 0.172,-0.167C0.187,-0.172 0.211,-0.177 0.243,-0.184C0.268,-0.189 0.29,-0.194 0.309,-0.2C0.328,-0.205 0.346,-0.213 0.363,-0.222C0.367,-0.224 0.371,-0.225 0.374,-0.225C0.379,-0.225 0.383,-0.223 0.387,-0.219C0.39,-0.216 0.391,-0.212 0.391,-0.207C0.391,-0.203 0.39,-0.199 0.388,-0.195C0.379,-0.18 0.364,-0.17 0.343,-0.165C0.308,-0.157 0.255,-0.144 0.184,-0.127C0.171,-0.124 0.16,-0.119 0.153,-0.114C0.146,-0.108 0.14,-0.099 0.136,-0.086C0.119,-0.037 0.093,0.006 0.059,0.043C0.052,0.051 0.045,0.057 0.039,0.061C0.033,0.065 0.026,0.067 0.019,0.067C0.016,0.067 0.012,0.066 0.007,0.065ZM0.084,-0.169C0.093,-0.166 0.1,-0.164 0.105,-0.164C0.11,-0.164 0.115,-0.166 0.118,-0.17C0.121,-0.173 0.123,-0.18 0.126,-0.189C0.138,-0.233 0.145,-0.273 0.147,-0.309C0.146,-0.314 0.146,-0.319 0.146,-0.326C0.146,-0.333 0.146,-0.338 0.145,-0.342C0.141,-0.363 0.133,-0.373 0.122,-0.373C0.116,-0.373 0.108,-0.369 0.099,-0.361C0.062,-0.328 0.042,-0.288 0.037,-0.241C0.035,-0.222 0.038,-0.207 0.046,-0.196C0.053,-0.184 0.066,-0.175 0.084,-0.169ZM0.031,0.003C0.044,-0.008 0.055,-0.021 0.064,-0.036C0.072,-0.05 0.082,-0.069 0.093,-0.094C0.095,-0.099 0.099,-0.107 0.104,-0.118C0.099,-0.119 0.093,-0.12 0.085,-0.123C0.077,-0.126 0.071,-0.127 0.068,-0.127C0.061,-0.127 0.056,-0.123 0.053,-0.116C0.038,-0.082 0.03,-0.049 0.03,-0.017C0.03,-0.008 0.03,-0.002 0.031,0.003Z" style="fill:white;fill-rule:nonzero;"/>
                    </g>
                    <g transform="matrix(290.624,0,0,290.624,34.8949,-185.844)">
                        <path d="M0.026,-0.039C0.017,-0.036 0.01,-0.034 0.004,-0.034C-0.014,-0.034 -0.026,-0.046 -0.032,-0.07C-0.034,-0.075 -0.035,-0.081 -0.035,-0.087C-0.033,-0.144 -0.021,-0.193 0.001,-0.236C0.005,-0.243 0.009,-0.249 0.012,-0.252C0.014,-0.255 0.018,-0.256 0.023,-0.256L0.031,-0.254C0.041,-0.251 0.046,-0.244 0.046,-0.234C0.046,-0.231 0.045,-0.226 0.042,-0.218C0.034,-0.197 0.028,-0.18 0.024,-0.166C0.019,-0.152 0.016,-0.138 0.014,-0.123C0.012,-0.111 0.011,-0.104 0.011,-0.103C0.011,-0.096 0.013,-0.089 0.018,-0.084C0.037,-0.096 0.054,-0.111 0.068,-0.128L0.167,-0.248L0.175,-0.258C0.186,-0.266 0.194,-0.27 0.2,-0.27C0.203,-0.27 0.206,-0.269 0.21,-0.268C0.22,-0.263 0.225,-0.255 0.225,-0.244C0.225,-0.24 0.225,-0.237 0.224,-0.235C0.223,-0.226 0.221,-0.217 0.219,-0.209C0.216,-0.2 0.214,-0.193 0.213,-0.186C0.209,-0.17 0.206,-0.155 0.203,-0.141C0.2,-0.126 0.199,-0.117 0.201,-0.114C0.209,-0.113 0.223,-0.12 0.243,-0.133C0.262,-0.146 0.274,-0.153 0.278,-0.155C0.285,-0.159 0.29,-0.161 0.294,-0.161C0.298,-0.161 0.302,-0.159 0.305,-0.156C0.308,-0.151 0.31,-0.147 0.31,-0.144C0.31,-0.14 0.308,-0.135 0.304,-0.128C0.296,-0.119 0.28,-0.107 0.255,-0.092C0.23,-0.077 0.211,-0.067 0.197,-0.063C0.188,-0.06 0.182,-0.059 0.18,-0.059C0.167,-0.059 0.159,-0.069 0.155,-0.089C0.154,-0.091 0.154,-0.094 0.154,-0.099C0.154,-0.106 0.155,-0.114 0.157,-0.122C0.159,-0.138 0.16,-0.147 0.16,-0.148C0.16,-0.155 0.159,-0.161 0.158,-0.165L0.081,-0.079C0.064,-0.06 0.045,-0.046 0.026,-0.039Z" style="fill:white;fill-rule:nonzero;"/>
                    </g>
                    <g transform="matrix(290.624,0,0,290.624,122.082,-185.844)">
                        <path d="M-0.01,-0.039C-0.02,-0.043 -0.025,-0.051 -0.025,-0.064L-0.024,-0.076C-0.02,-0.104 -0.015,-0.134 -0.008,-0.165C0,-0.196 0.004,-0.215 0.006,-0.222L0.015,-0.261L0.024,-0.312C0.027,-0.323 0.031,-0.331 0.036,-0.336C0.041,-0.341 0.048,-0.342 0.055,-0.339C0.066,-0.336 0.071,-0.329 0.071,-0.319C0.071,-0.318 0.07,-0.313 0.068,-0.303L0.04,-0.164C0.039,-0.161 0.039,-0.158 0.04,-0.155C0.04,-0.151 0.04,-0.146 0.039,-0.141L0.067,-0.165C0.09,-0.184 0.106,-0.198 0.116,-0.207C0.129,-0.218 0.148,-0.23 0.175,-0.243C0.183,-0.247 0.191,-0.249 0.198,-0.249C0.213,-0.249 0.225,-0.24 0.233,-0.221C0.238,-0.208 0.244,-0.188 0.249,-0.163C0.252,-0.152 0.255,-0.143 0.259,-0.139C0.262,-0.134 0.267,-0.131 0.273,-0.131C0.28,-0.131 0.288,-0.133 0.297,-0.138C0.33,-0.153 0.358,-0.169 0.38,-0.185C0.402,-0.2 0.42,-0.22 0.435,-0.244C0.44,-0.252 0.445,-0.256 0.451,-0.256C0.455,-0.256 0.458,-0.255 0.46,-0.254C0.47,-0.248 0.473,-0.239 0.47,-0.228C0.462,-0.208 0.452,-0.192 0.44,-0.181C0.405,-0.149 0.363,-0.12 0.312,-0.095C0.299,-0.088 0.286,-0.085 0.273,-0.085C0.259,-0.085 0.247,-0.089 0.236,-0.098C0.225,-0.107 0.216,-0.119 0.209,-0.136C0.207,-0.142 0.203,-0.156 0.197,-0.177C0.196,-0.186 0.194,-0.195 0.191,-0.204C0.15,-0.181 0.109,-0.147 0.068,-0.103C0.065,-0.099 0.058,-0.092 0.049,-0.083C0.039,-0.074 0.031,-0.064 0.026,-0.054C0.021,-0.043 0.012,-0.037 0.001,-0.037C-0.004,-0.037 -0.007,-0.038 -0.01,-0.039Z" style="fill:white;fill-rule:nonzero;"/>
                    </g>
                    <g transform="matrix(290.624,0,0,290.624,247.341,-185.844)">
                        <path d="M-0.14,0.403C-0.147,0.406 -0.151,0.407 -0.154,0.407C-0.161,0.407 -0.166,0.404 -0.171,0.398C-0.176,0.393 -0.178,0.388 -0.178,0.382C-0.178,0.377 -0.177,0.374 -0.174,0.371C-0.16,0.355 -0.15,0.337 -0.144,0.318C-0.137,0.299 -0.131,0.275 -0.126,0.246C-0.121,0.221 -0.116,0.202 -0.113,0.19C-0.104,0.161 -0.081,0.073 -0.042,-0.075C-0.003,-0.223 0.032,-0.356 0.063,-0.473L0.086,-0.56C0.104,-0.627 0.126,-0.697 0.151,-0.77C0.152,-0.775 0.155,-0.783 0.16,-0.795C0.165,-0.806 0.167,-0.817 0.167,-0.827C0.162,-0.829 0.157,-0.83 0.153,-0.83C0.149,-0.83 0.145,-0.829 0.14,-0.828C0.135,-0.827 0.131,-0.826 0.128,-0.825C-0.065,-0.781 -0.229,-0.739 -0.365,-0.7L-0.429,-0.682C-0.516,-0.659 -0.585,-0.637 -0.637,-0.618C-0.658,-0.61 -0.677,-0.602 -0.692,-0.594C-0.699,-0.59 -0.705,-0.588 -0.711,-0.588C-0.719,-0.588 -0.725,-0.592 -0.73,-0.601C-0.732,-0.605 -0.733,-0.609 -0.733,-0.612C-0.733,-0.621 -0.727,-0.63 -0.714,-0.637C-0.693,-0.648 -0.668,-0.658 -0.639,-0.669C-0.542,-0.702 -0.436,-0.734 -0.321,-0.764L-0.211,-0.793C-0.086,-0.826 0.003,-0.849 0.058,-0.862C0.103,-0.872 0.138,-0.879 0.165,-0.884C0.176,-0.886 0.184,-0.89 0.191,-0.896C0.197,-0.902 0.202,-0.911 0.207,-0.922C0.234,-0.989 0.258,-1.048 0.281,-1.1C0.304,-1.151 0.328,-1.201 0.354,-1.248C0.363,-1.264 0.371,-1.275 0.378,-1.28C0.384,-1.286 0.39,-1.289 0.397,-1.289C0.4,-1.289 0.404,-1.288 0.408,-1.286C0.42,-1.28 0.424,-1.27 0.421,-1.257C0.415,-1.233 0.407,-1.206 0.397,-1.177C0.396,-1.175 0.395,-1.173 0.393,-1.171C0.391,-1.168 0.389,-1.167 0.387,-1.167C0.376,-1.165 0.367,-1.16 0.362,-1.153C0.357,-1.146 0.352,-1.138 0.349,-1.129C0.345,-1.12 0.342,-1.113 0.34,-1.109L0.329,-1.086C0.311,-1.046 0.297,-1.014 0.287,-0.989C0.276,-0.964 0.267,-0.938 0.259,-0.911C0.264,-0.908 0.269,-0.907 0.274,-0.907C0.277,-0.907 0.282,-0.908 0.287,-0.909C0.366,-0.927 0.492,-0.952 0.665,-0.985L0.744,-1L0.831,-1.015L0.855,-1.019C0.863,-1.02 0.87,-1.021 0.876,-1.022C0.881,-1.022 0.886,-1.022 0.89,-1.022C0.913,-1.022 0.923,-1.013 0.922,-0.995C0.922,-0.988 0.919,-0.982 0.914,-0.978C0.909,-0.973 0.901,-0.971 0.892,-0.971C0.863,-0.969 0.836,-0.966 0.81,-0.962C0.783,-0.957 0.745,-0.95 0.696,-0.94C0.675,-0.935 0.643,-0.929 0.6,-0.921C0.543,-0.911 0.459,-0.895 0.347,-0.872L0.274,-0.857C0.259,-0.854 0.247,-0.849 0.238,-0.842C0.229,-0.835 0.223,-0.824 0.218,-0.81C0.189,-0.73 0.159,-0.635 0.128,-0.524C0.097,-0.412 0.055,-0.261 0.004,-0.068L-0.002,-0.044L-0.097,0.319C-0.104,0.344 -0.11,0.363 -0.117,0.375C-0.124,0.388 -0.131,0.397 -0.14,0.403Z" style="fill:white;fill-rule:nonzero;"/>
                    </g>
                    <g transform="matrix(290.624,0,0,290.624,279.6,-185.844)">
                        <path d="M0.154,0.406C0.145,0.406 0.14,0.403 0.138,0.398C0.135,0.393 0.134,0.385 0.133,0.375C0.132,0.358 0.133,0.342 0.136,0.326C0.139,0.309 0.143,0.29 0.149,0.267L0.157,0.231L0.17,0.168C0.174,0.148 0.182,0.108 0.195,0.049C0.208,-0.011 0.22,-0.065 0.232,-0.114C0.281,-0.311 0.324,-0.466 0.36,-0.579C0.365,-0.595 0.372,-0.618 0.38,-0.649C0.373,-0.646 0.368,-0.642 0.365,-0.637C0.361,-0.632 0.358,-0.628 0.356,-0.623C0.353,-0.618 0.351,-0.615 0.35,-0.613L0.329,-0.573C0.305,-0.524 0.281,-0.478 0.256,-0.434C0.252,-0.427 0.249,-0.415 0.248,-0.399C0.247,-0.388 0.245,-0.379 0.244,-0.374C0.242,-0.368 0.238,-0.363 0.232,-0.359C0.222,-0.352 0.214,-0.345 0.209,-0.337C0.203,-0.328 0.198,-0.32 0.194,-0.312C0.19,-0.303 0.187,-0.297 0.186,-0.294C0.147,-0.213 0.117,-0.152 0.095,-0.113C0.082,-0.09 0.067,-0.066 0.05,-0.04C0.043,-0.031 0.036,-0.023 0.029,-0.018C0.019,-0.012 0.01,-0.009 0.001,-0.009C-0.008,-0.009 -0.016,-0.013 -0.022,-0.021C-0.027,-0.029 -0.03,-0.04 -0.03,-0.054C-0.03,-0.085 -0.023,-0.121 -0.008,-0.162C0.021,-0.243 0.06,-0.311 0.109,-0.366C0.122,-0.381 0.134,-0.393 0.146,-0.402C0.157,-0.411 0.17,-0.418 0.185,-0.421C0.192,-0.423 0.198,-0.426 0.202,-0.431C0.205,-0.436 0.209,-0.442 0.213,-0.451C0.248,-0.516 0.28,-0.576 0.308,-0.63C0.329,-0.671 0.342,-0.696 0.346,-0.704C0.387,-0.783 0.421,-0.848 0.45,-0.9C0.463,-0.924 0.479,-0.957 0.496,-1C0.499,-1.007 0.504,-1.017 0.509,-1.03C0.518,-1.05 0.525,-1.064 0.532,-1.071C0.539,-1.08 0.547,-1.084 0.554,-1.084C0.559,-1.084 0.563,-1.083 0.566,-1.08C0.573,-1.075 0.577,-1.069 0.577,-1.062C0.577,-1.058 0.576,-1.054 0.574,-1.05C0.572,-1.045 0.569,-1.039 0.566,-1.03C0.563,-1.02 0.559,-1.013 0.556,-1.006C0.534,-0.963 0.515,-0.919 0.5,-0.875C0.485,-0.831 0.466,-0.771 0.443,-0.696C0.441,-0.689 0.439,-0.683 0.438,-0.678C0.436,-0.672 0.434,-0.667 0.433,-0.662C0.421,-0.623 0.41,-0.585 0.4,-0.55C0.39,-0.514 0.38,-0.481 0.371,-0.45C0.358,-0.405 0.347,-0.365 0.337,-0.331C0.318,-0.265 0.297,-0.181 0.274,-0.08C0.251,0.022 0.229,0.124 0.208,0.226L0.175,0.379C0.173,0.39 0.171,0.397 0.169,0.401C0.166,0.405 0.161,0.407 0.154,0.406ZM0.021,-0.083C0.065,-0.154 0.108,-0.239 0.15,-0.339C0.084,-0.276 0.041,-0.191 0.021,-0.083Z" style="fill:white;fill-rule:nonzero;"/>
                    </g>
                    <g transform="matrix(290.624,0,0,290.624,383.353,-185.844)">
                        <path d="M0.007,0.065C-0.004,0.062 -0.011,0.056 -0.014,0.047C-0.017,0.038 -0.018,0.027 -0.018,0.014C-0.018,-0.018 -0.01,-0.057 0.006,-0.104C0.012,-0.122 0.015,-0.136 0.015,-0.147C0.015,-0.162 0.01,-0.175 0,-0.188C-0.007,-0.195 -0.01,-0.206 -0.01,-0.221C-0.01,-0.226 -0.009,-0.233 -0.008,-0.242C0.002,-0.302 0.028,-0.353 0.069,-0.394C0.075,-0.4 0.082,-0.405 0.09,-0.409C0.105,-0.416 0.117,-0.42 0.128,-0.42C0.141,-0.42 0.153,-0.416 0.162,-0.407C0.171,-0.398 0.178,-0.385 0.182,-0.368C0.187,-0.349 0.189,-0.329 0.189,-0.308C0.189,-0.281 0.185,-0.249 0.177,-0.214C0.176,-0.21 0.175,-0.205 0.173,-0.199C0.17,-0.193 0.169,-0.187 0.169,-0.182C0.169,-0.178 0.17,-0.173 0.172,-0.167C0.187,-0.172 0.211,-0.177 0.243,-0.184C0.268,-0.189 0.29,-0.194 0.309,-0.2C0.328,-0.205 0.346,-0.213 0.363,-0.222C0.367,-0.224 0.371,-0.225 0.374,-0.225C0.379,-0.225 0.383,-0.223 0.387,-0.219C0.39,-0.216 0.391,-0.212 0.391,-0.207C0.391,-0.203 0.39,-0.199 0.388,-0.195C0.379,-0.18 0.364,-0.17 0.343,-0.165C0.308,-0.157 0.255,-0.144 0.184,-0.127C0.171,-0.124 0.16,-0.119 0.153,-0.114C0.146,-0.108 0.14,-0.099 0.136,-0.086C0.119,-0.037 0.093,0.006 0.059,0.043C0.052,0.051 0.045,0.057 0.039,0.061C0.033,0.065 0.026,0.067 0.019,0.067C0.016,0.067 0.012,0.066 0.007,0.065ZM0.084,-0.169C0.093,-0.166 0.1,-0.164 0.105,-0.164C0.11,-0.164 0.115,-0.166 0.118,-0.17C0.121,-0.173 0.123,-0.18 0.126,-0.189C0.138,-0.233 0.145,-0.273 0.147,-0.309C0.146,-0.314 0.146,-0.319 0.146,-0.326C0.146,-0.333 0.146,-0.338 0.145,-0.342C0.141,-0.363 0.133,-0.373 0.122,-0.373C0.116,-0.373 0.108,-0.369 0.099,-0.361C0.062,-0.328 0.042,-0.288 0.037,-0.241C0.035,-0.222 0.038,-0.207 0.046,-0.196C0.053,-0.184 0.066,-0.175 0.084,-0.169ZM0.031,0.003C0.044,-0.008 0.055,-0.021 0.064,-0.036C0.072,-0.05 0.082,-0.069 0.093,-0.094C0.095,-0.099 0.099,-0.107 0.104,-0.118C0.099,-0.119 0.093,-0.12 0.085,-0.123C0.077,-0.126 0.071,-0.127 0.068,-0.127C0.061,-0.127 0.056,-0.123 0.053,-0.116C0.038,-0.082 0.03,-0.049 0.03,-0.017C0.03,-0.008 0.03,-0.002 0.031,0.003Z" style="fill:white;fill-rule:nonzero;"/>
                    </g>
                    <g transform="matrix(290.624,0,0,290.624,489.721,-185.844)">
                        <path d="M0.477,-0.396C0.482,-0.391 0.484,-0.387 0.484,-0.383C0.484,-0.377 0.481,-0.372 0.475,-0.367C0.469,-0.362 0.465,-0.358 0.463,-0.356C0.428,-0.312 0.401,-0.271 0.382,-0.233C0.363,-0.194 0.344,-0.143 0.325,-0.078C0.309,-0.022 0.294,0.024 0.281,0.059C0.267,0.094 0.253,0.119 0.24,0.133C0.229,0.144 0.218,0.15 0.208,0.15C0.201,0.15 0.194,0.148 0.188,0.143C0.182,0.138 0.177,0.13 0.174,0.12C0.169,0.105 0.167,0.085 0.167,0.061L0.167,0.025C0.167,0.011 0.168,-0.018 0.17,-0.062C0.172,-0.078 0.173,-0.095 0.173,-0.112C0.156,-0.069 0.146,-0.042 0.143,-0.032C0.132,0 0.12,0.031 0.107,0.061C0.094,0.091 0.076,0.13 0.053,0.178C0.048,0.189 0.042,0.201 0.034,0.213C0.025,0.225 0.02,0.233 0.017,0.236C0.009,0.247 -0.003,0.256 -0.019,0.261C-0.024,0.262 -0.028,0.263 -0.03,0.263C-0.054,0.263 -0.066,0.23 -0.066,0.164C-0.066,0.134 -0.063,0.098 -0.058,0.057C-0.038,-0.077 -0.016,-0.191 0.007,-0.285L0.009,-0.299C0.016,-0.318 0.026,-0.325 0.039,-0.321C0.05,-0.318 0.056,-0.311 0.056,-0.3C0.056,-0.297 0.055,-0.293 0.054,-0.286C0.043,-0.251 0.031,-0.197 0.018,-0.124C0.005,-0.054 -0.004,0.002 -0.01,0.045C-0.016,0.087 -0.019,0.13 -0.019,0.175L-0.018,0.193C-0.013,0.193 -0.01,0.192 -0.008,0.19C-0.006,0.188 -0.005,0.186 -0.004,0.183C-0.003,0.18 -0.002,0.179 -0.001,0.178C0.017,0.145 0.033,0.112 0.048,0.079C0.063,0.045 0.08,0.002 0.1,-0.049C0.101,-0.053 0.105,-0.063 0.111,-0.078C0.136,-0.143 0.155,-0.192 0.167,-0.225L0.223,-0.372C0.23,-0.39 0.24,-0.397 0.254,-0.394C0.265,-0.391 0.271,-0.383 0.271,-0.37C0.271,-0.365 0.271,-0.362 0.27,-0.36C0.267,-0.343 0.263,-0.317 0.256,-0.282L0.241,-0.204C0.22,-0.083 0.21,0 0.21,0.044C0.21,0.067 0.212,0.083 0.217,0.09C0.226,0.078 0.235,0.059 0.245,0.032C0.254,0.005 0.267,-0.034 0.283,-0.084C0.298,-0.133 0.312,-0.175 0.325,-0.209C0.34,-0.246 0.353,-0.273 0.365,-0.292C0.376,-0.311 0.393,-0.334 0.415,-0.363L0.433,-0.386C0.437,-0.39 0.442,-0.394 0.447,-0.398C0.452,-0.401 0.457,-0.403 0.462,-0.403C0.467,-0.403 0.472,-0.401 0.477,-0.396Z" style="fill:white;fill-rule:nonzero;"/>
                    </g>
                    <g transform="matrix(290.624,0,0,290.624,619.921,-185.844)">
                        <path d="M-0.01,-0.039C-0.02,-0.043 -0.025,-0.051 -0.025,-0.064L-0.024,-0.076C-0.02,-0.104 -0.015,-0.134 -0.008,-0.165C0,-0.196 0.004,-0.215 0.006,-0.222L0.015,-0.261L0.024,-0.312C0.027,-0.323 0.031,-0.331 0.036,-0.336C0.041,-0.341 0.048,-0.342 0.055,-0.339C0.066,-0.336 0.071,-0.329 0.071,-0.319C0.071,-0.318 0.07,-0.313 0.068,-0.303L0.04,-0.164C0.039,-0.161 0.039,-0.158 0.04,-0.155C0.04,-0.151 0.04,-0.146 0.039,-0.141L0.067,-0.165C0.09,-0.184 0.106,-0.198 0.116,-0.207C0.129,-0.218 0.148,-0.23 0.175,-0.243C0.183,-0.247 0.191,-0.249 0.198,-0.249C0.213,-0.249 0.225,-0.24 0.233,-0.221C0.238,-0.208 0.244,-0.188 0.249,-0.163C0.252,-0.152 0.255,-0.143 0.259,-0.139C0.262,-0.134 0.267,-0.131 0.273,-0.131C0.28,-0.131 0.288,-0.133 0.297,-0.138C0.33,-0.153 0.358,-0.169 0.38,-0.185C0.402,-0.2 0.42,-0.22 0.435,-0.244C0.44,-0.252 0.445,-0.256 0.451,-0.256C0.455,-0.256 0.458,-0.255 0.46,-0.254C0.47,-0.248 0.473,-0.239 0.47,-0.228C0.462,-0.208 0.452,-0.192 0.44,-0.181C0.405,-0.149 0.363,-0.12 0.312,-0.095C0.299,-0.088 0.286,-0.085 0.273,-0.085C0.259,-0.085 0.247,-0.089 0.236,-0.098C0.225,-0.107 0.216,-0.119 0.209,-0.136C0.207,-0.142 0.203,-0.156 0.197,-0.177C0.196,-0.186 0.194,-0.195 0.191,-0.204C0.15,-0.181 0.109,-0.147 0.068,-0.103C0.065,-0.099 0.058,-0.092 0.049,-0.083C0.039,-0.074 0.031,-0.064 0.026,-0.054C0.021,-0.043 0.012,-0.037 0.001,-0.037C-0.004,-0.037 -0.007,-0.038 -0.01,-0.039Z" style="fill:white;fill-rule:nonzero;"/>
                    </g>
                </g>
                <g transform="matrix(1.18782,0,0,1.18782,-694.801,58.937)">
                    <g transform="matrix(96,0,0,96,696.619,-243.709)">
                        <path d="M-0.14,0.403C-0.147,0.406 -0.151,0.407 -0.154,0.407C-0.161,0.407 -0.166,0.404 -0.171,0.398C-0.176,0.393 -0.178,0.388 -0.178,0.382C-0.178,0.377 -0.177,0.374 -0.174,0.371C-0.16,0.355 -0.15,0.337 -0.144,0.318C-0.137,0.299 -0.131,0.275 -0.126,0.246C-0.121,0.221 -0.116,0.202 -0.113,0.19C-0.104,0.161 -0.081,0.073 -0.042,-0.075C-0.003,-0.223 0.032,-0.356 0.063,-0.473L0.086,-0.56C0.104,-0.627 0.126,-0.697 0.151,-0.77C0.152,-0.775 0.155,-0.783 0.16,-0.795C0.165,-0.806 0.167,-0.817 0.167,-0.827C0.162,-0.829 0.157,-0.83 0.153,-0.83C0.149,-0.83 0.145,-0.829 0.14,-0.828C0.135,-0.827 0.131,-0.826 0.128,-0.825C-0.065,-0.781 -0.229,-0.739 -0.365,-0.7L-0.429,-0.682C-0.516,-0.659 -0.585,-0.637 -0.637,-0.618C-0.658,-0.61 -0.677,-0.602 -0.692,-0.594C-0.699,-0.59 -0.705,-0.588 -0.711,-0.588C-0.719,-0.588 -0.725,-0.592 -0.73,-0.601C-0.732,-0.605 -0.733,-0.609 -0.733,-0.612C-0.733,-0.621 -0.727,-0.63 -0.714,-0.637C-0.693,-0.648 -0.668,-0.658 -0.639,-0.669C-0.542,-0.702 -0.436,-0.734 -0.321,-0.764L-0.211,-0.793C-0.086,-0.826 0.003,-0.849 0.058,-0.862C0.103,-0.872 0.138,-0.879 0.165,-0.884C0.176,-0.886 0.184,-0.89 0.191,-0.896C0.197,-0.902 0.202,-0.911 0.207,-0.922C0.234,-0.989 0.258,-1.048 0.281,-1.1C0.304,-1.151 0.328,-1.201 0.354,-1.248C0.363,-1.264 0.371,-1.275 0.378,-1.28C0.384,-1.286 0.39,-1.289 0.397,-1.289C0.4,-1.289 0.404,-1.288 0.408,-1.286C0.42,-1.28 0.424,-1.27 0.421,-1.257C0.415,-1.233 0.407,-1.206 0.397,-1.177C0.396,-1.175 0.395,-1.173 0.393,-1.171C0.391,-1.168 0.389,-1.167 0.387,-1.167C0.376,-1.165 0.367,-1.16 0.362,-1.153C0.357,-1.146 0.352,-1.138 0.349,-1.129C0.345,-1.12 0.342,-1.113 0.34,-1.109L0.329,-1.086C0.311,-1.046 0.297,-1.014 0.287,-0.989C0.276,-0.964 0.267,-0.938 0.259,-0.911C0.264,-0.908 0.269,-0.907 0.274,-0.907C0.277,-0.907 0.282,-0.908 0.287,-0.909C0.366,-0.927 0.492,-0.952 0.665,-0.985L0.744,-1L0.831,-1.015L0.855,-1.019C0.863,-1.02 0.87,-1.021 0.876,-1.022C0.881,-1.022 0.886,-1.022 0.89,-1.022C0.913,-1.022 0.923,-1.013 0.922,-0.995C0.922,-0.988 0.919,-0.982 0.914,-0.978C0.909,-0.973 0.901,-0.971 0.892,-0.971C0.863,-0.969 0.836,-0.966 0.81,-0.962C0.783,-0.957 0.745,-0.95 0.696,-0.94C0.675,-0.935 0.643,-0.929 0.6,-0.921C0.543,-0.911 0.459,-0.895 0.347,-0.872L0.274,-0.857C0.259,-0.854 0.247,-0.849 0.238,-0.842C0.229,-0.835 0.223,-0.824 0.218,-0.81C0.189,-0.73 0.159,-0.635 0.128,-0.524C0.097,-0.412 0.055,-0.261 0.004,-0.068L-0.002,-0.044L-0.097,0.319C-0.104,0.344 -0.11,0.363 -0.117,0.375C-0.124,0.388 -0.131,0.397 -0.14,0.403Z" style="fill:white;fill-rule:nonzero;stroke:white;stroke-width:0.01px;"/>
                    </g>
                    <g transform="matrix(96,0,0,96,711.115,-243.709)">
                        <path d="M0.007,0.065C-0.004,0.062 -0.011,0.056 -0.014,0.047C-0.017,0.038 -0.018,0.027 -0.018,0.014C-0.018,-0.018 -0.01,-0.057 0.006,-0.104C0.012,-0.122 0.015,-0.136 0.015,-0.147C0.015,-0.162 0.01,-0.175 0,-0.188C-0.007,-0.195 -0.01,-0.206 -0.01,-0.221C-0.01,-0.226 -0.009,-0.233 -0.008,-0.242C0.002,-0.302 0.028,-0.353 0.069,-0.394C0.075,-0.4 0.082,-0.405 0.09,-0.409C0.105,-0.416 0.117,-0.42 0.128,-0.42C0.141,-0.42 0.153,-0.416 0.162,-0.407C0.171,-0.398 0.178,-0.385 0.182,-0.368C0.187,-0.349 0.189,-0.329 0.189,-0.308C0.189,-0.281 0.185,-0.249 0.177,-0.214C0.176,-0.21 0.175,-0.205 0.173,-0.199C0.17,-0.193 0.169,-0.187 0.169,-0.182C0.169,-0.178 0.17,-0.173 0.172,-0.167C0.187,-0.172 0.211,-0.177 0.243,-0.184C0.268,-0.189 0.29,-0.194 0.309,-0.2C0.328,-0.205 0.346,-0.213 0.363,-0.222C0.367,-0.224 0.371,-0.225 0.374,-0.225C0.379,-0.225 0.383,-0.223 0.387,-0.219C0.39,-0.216 0.391,-0.212 0.391,-0.207C0.391,-0.203 0.39,-0.199 0.388,-0.195C0.379,-0.18 0.364,-0.17 0.343,-0.165C0.308,-0.157 0.255,-0.144 0.184,-0.127C0.171,-0.124 0.16,-0.119 0.153,-0.114C0.146,-0.108 0.14,-0.099 0.136,-0.086C0.119,-0.037 0.093,0.006 0.059,0.043C0.052,0.051 0.045,0.057 0.039,0.061C0.033,0.065 0.026,0.067 0.019,0.067C0.016,0.067 0.012,0.066 0.007,0.065ZM0.084,-0.169C0.093,-0.166 0.1,-0.164 0.105,-0.164C0.11,-0.164 0.115,-0.166 0.118,-0.17C0.121,-0.173 0.123,-0.18 0.126,-0.189C0.138,-0.233 0.145,-0.273 0.147,-0.309C0.146,-0.314 0.146,-0.319 0.146,-0.326C0.146,-0.333 0.146,-0.338 0.145,-0.342C0.141,-0.363 0.133,-0.373 0.122,-0.373C0.116,-0.373 0.108,-0.369 0.099,-0.361C0.062,-0.328 0.042,-0.288 0.037,-0.241C0.035,-0.222 0.038,-0.207 0.046,-0.196C0.053,-0.184 0.066,-0.175 0.084,-0.169ZM0.031,0.003C0.044,-0.008 0.055,-0.021 0.064,-0.036C0.072,-0.05 0.082,-0.069 0.093,-0.094C0.095,-0.099 0.099,-0.107 0.104,-0.118C0.099,-0.119 0.093,-0.12 0.085,-0.123C0.077,-0.126 0.071,-0.127 0.068,-0.127C0.061,-0.127 0.056,-0.123 0.053,-0.116C0.038,-0.082 0.03,-0.049 0.03,-0.017C0.03,-0.008 0.03,-0.002 0.031,0.003Z" style="fill:white;fill-rule:nonzero;stroke:white;stroke-width:0.01px;"/>
                    </g>
                </g>
                <g transform="matrix(0.71251,0.000281647,-0.000281647,0.71251,147.486,-201.546)">
                    <g transform="matrix(290.624,0,0,290.624,174.374,0)">
                        <path d="M0.009,0.516C0.002,0.517 -0.002,0.518 -0.005,0.518C-0.018,0.518 -0.03,0.514 -0.041,0.506C-0.052,0.497 -0.059,0.485 -0.064,0.47C-0.071,0.449 -0.076,0.429 -0.079,0.408C-0.081,0.387 -0.083,0.357 -0.084,0.319C-0.084,0.303 -0.084,0.291 -0.085,0.283L-0.081,0.21C-0.076,0.091 -0.069,-0.004 -0.061,-0.074C-0.056,-0.119 -0.052,-0.154 -0.05,-0.18C-0.048,-0.197 -0.045,-0.228 -0.04,-0.272C-0.035,-0.316 -0.03,-0.355 -0.025,-0.39C-0.007,-0.517 0.017,-0.651 0.048,-0.793C0.057,-0.834 0.067,-0.886 0.079,-0.948C0.088,-0.995 0.095,-1.034 0.101,-1.063C0.13,-1.212 0.153,-1.324 0.168,-1.397C0.169,-1.406 0.17,-1.413 0.173,-1.416C0.176,-1.423 0.179,-1.427 0.183,-1.43C0.187,-1.432 0.192,-1.432 0.198,-1.431C0.206,-1.429 0.21,-1.422 0.21,-1.409C0.21,-1.399 0.209,-1.392 0.208,-1.388C0.195,-1.336 0.184,-1.281 0.173,-1.222C0.162,-1.163 0.156,-1.128 0.153,-1.115C0.149,-1.09 0.143,-1.059 0.136,-1.021L0.088,-0.771C0.063,-0.639 0.044,-0.54 0.032,-0.475C0.025,-0.436 0.018,-0.392 0.013,-0.345C0.008,-0.298 0.003,-0.251 -0.002,-0.206L-0.005,-0.174C-0.016,-0.065 -0.025,0.045 -0.032,0.156C-0.034,0.193 -0.035,0.233 -0.035,0.275C-0.035,0.312 -0.034,0.352 -0.032,0.394C-0.032,0.397 -0.032,0.404 -0.032,0.415C-0.031,0.426 -0.029,0.435 -0.026,0.444C-0.023,0.452 -0.017,0.458 -0.01,0.461C-0.005,0.463 -0.001,0.464 0.004,0.464C0.011,0.464 0.019,0.462 0.026,0.458C0.033,0.453 0.039,0.449 0.045,0.444C0.05,0.439 0.054,0.436 0.057,0.434L0.164,0.353C0.183,0.338 0.212,0.316 0.253,0.285C0.293,0.254 0.328,0.227 0.358,0.203C0.382,0.184 0.411,0.162 0.444,0.139L0.485,0.109C0.494,0.104 0.501,0.1 0.507,0.097C0.517,0.091 0.525,0.088 0.531,0.088C0.537,0.088 0.542,0.091 0.545,0.098C0.546,0.101 0.547,0.104 0.547,0.108C0.547,0.116 0.541,0.124 0.53,0.133C0.457,0.189 0.402,0.23 0.365,0.257C0.344,0.272 0.306,0.301 0.249,0.346C0.201,0.384 0.177,0.403 0.177,0.403C0.158,0.418 0.15,0.424 0.151,0.423C0.109,0.455 0.075,0.48 0.05,0.498C0.037,0.506 0.023,0.512 0.009,0.516Z" style="fill:white;fill-rule:nonzero;"/>
                    </g>
                    <g transform="matrix(290.624,0,0,290.624,348.168,0)">
                        <path d="M0.169,-0.569C0.157,-0.572 0.151,-0.582 0.151,-0.599C0.15,-0.616 0.161,-0.624 0.184,-0.624C0.199,-0.624 0.207,-0.618 0.207,-0.606C0.206,-0.599 0.201,-0.591 0.192,-0.582C0.182,-0.572 0.174,-0.568 0.169,-0.569ZM0.005,0.062C-0.003,0.063 -0.008,0.064 -0.01,0.064C-0.037,0.064 -0.05,0.045 -0.05,0.006C-0.05,-0.019 -0.043,-0.06 -0.028,-0.117C-0.013,-0.173 0.002,-0.228 0.019,-0.282C0.035,-0.335 0.047,-0.369 0.055,-0.384C0.062,-0.397 0.072,-0.402 0.083,-0.398C0.092,-0.395 0.096,-0.388 0.096,-0.378C0.096,-0.37 0.094,-0.359 0.09,-0.345C0.084,-0.326 0.072,-0.286 0.053,-0.224L0.011,-0.085C0.005,-0.066 0,-0.049 -0.005,-0.033C-0.009,-0.016 -0.011,-0.004 -0.011,0.003C-0.011,0.012 -0.008,0.016 -0.003,0.016C0.006,0.016 0.019,0.007 0.038,-0.011C0.084,-0.057 0.135,-0.114 0.19,-0.182C0.202,-0.197 0.211,-0.208 0.218,-0.215C0.223,-0.222 0.23,-0.225 0.237,-0.225C0.241,-0.225 0.245,-0.224 0.248,-0.221C0.254,-0.216 0.257,-0.211 0.257,-0.205C0.257,-0.2 0.255,-0.194 0.25,-0.187C0.246,-0.18 0.243,-0.175 0.24,-0.172C0.186,-0.104 0.139,-0.049 0.101,-0.008C0.062,0.034 0.03,0.057 0.005,0.062Z" style="fill:white;fill-rule:nonzero;"/>
                    </g>
                    <g transform="matrix(290.624,0,0,290.624,414.43,0)">
                        <path d="M0.042,0.074C0.033,0.074 0.026,0.071 0.022,0.066C0.017,0.061 0.014,0.054 0.012,0.045C0.009,0.036 0.009,0.024 0.01,0.011C0.011,-0.032 0.012,-0.064 0.012,-0.085C0.012,-0.166 0.008,-0.255 -0.001,-0.35C-0.003,-0.373 0.004,-0.385 0.02,-0.386C0.029,-0.386 0.037,-0.383 0.042,-0.378C0.047,-0.372 0.049,-0.365 0.05,-0.356C0.055,-0.314 0.058,-0.272 0.059,-0.231C0.06,-0.191 0.06,-0.131 0.06,-0.05C0.073,-0.067 0.085,-0.086 0.095,-0.106C0.104,-0.126 0.114,-0.15 0.125,-0.177C0.132,-0.194 0.137,-0.207 0.141,-0.216L0.182,-0.316C0.187,-0.327 0.191,-0.333 0.192,-0.335C0.193,-0.337 0.196,-0.341 0.2,-0.346C0.203,-0.351 0.207,-0.356 0.212,-0.359C0.216,-0.362 0.221,-0.363 0.226,-0.363C0.237,-0.363 0.243,-0.36 0.247,-0.355C0.249,-0.349 0.253,-0.34 0.256,-0.327C0.262,-0.302 0.268,-0.284 0.274,-0.274C0.28,-0.263 0.289,-0.258 0.3,-0.258C0.311,-0.258 0.33,-0.264 0.355,-0.277C0.36,-0.28 0.365,-0.282 0.369,-0.282C0.374,-0.282 0.378,-0.279 0.381,-0.274C0.384,-0.271 0.385,-0.267 0.385,-0.263C0.385,-0.257 0.381,-0.251 0.373,-0.245C0.355,-0.23 0.334,-0.222 0.311,-0.222C0.294,-0.222 0.279,-0.226 0.265,-0.235C0.251,-0.244 0.24,-0.256 0.231,-0.272C0.23,-0.274 0.227,-0.279 0.22,-0.286C0.198,-0.234 0.183,-0.198 0.176,-0.178C0.164,-0.145 0.15,-0.111 0.133,-0.074C0.116,-0.037 0.106,-0.014 0.101,-0.003L0.09,0.02C0.086,0.029 0.079,0.041 0.068,0.057C0.06,0.068 0.051,0.074 0.042,0.074Z" style="fill:white;fill-rule:nonzero;"/>
                    </g>
                    <g transform="matrix(290.624,0,0,290.624,504.523,0)">
                        <path d="M0.123,0.024C0.108,0.031 0.093,0.034 0.078,0.034C0.051,0.034 0.027,0.023 0.008,0.002C-0.011,-0.019 -0.021,-0.051 -0.02,-0.093C-0.009,-0.154 0.008,-0.205 0.031,-0.248C0.053,-0.29 0.089,-0.324 0.139,-0.349C0.149,-0.354 0.16,-0.357 0.172,-0.357C0.184,-0.357 0.194,-0.354 0.203,-0.347C0.212,-0.339 0.218,-0.33 0.222,-0.317C0.223,-0.31 0.224,-0.306 0.224,-0.303C0.224,-0.296 0.222,-0.287 0.217,-0.275C0.203,-0.242 0.185,-0.213 0.163,-0.189C0.14,-0.164 0.113,-0.142 0.08,-0.123C0.073,-0.119 0.066,-0.116 0.057,-0.113C0.049,-0.11 0.043,-0.108 0.04,-0.106C0.037,-0.103 0.035,-0.099 0.035,-0.092C0.035,-0.048 0.05,-0.026 0.08,-0.026C0.09,-0.026 0.101,-0.028 0.113,-0.032C0.137,-0.039 0.166,-0.058 0.2,-0.087C0.233,-0.116 0.261,-0.144 0.284,-0.171L0.289,-0.178C0.3,-0.192 0.31,-0.199 0.318,-0.199C0.323,-0.199 0.327,-0.197 0.331,-0.193C0.337,-0.187 0.34,-0.181 0.34,-0.174C0.34,-0.167 0.336,-0.158 0.329,-0.147C0.307,-0.117 0.275,-0.085 0.234,-0.05C0.192,-0.015 0.155,0.01 0.123,0.024ZM0.054,-0.162C0.101,-0.188 0.139,-0.225 0.166,-0.273C0.167,-0.275 0.169,-0.278 0.172,-0.283C0.174,-0.287 0.176,-0.291 0.176,-0.295C0.176,-0.298 0.174,-0.301 0.171,-0.304C0.168,-0.307 0.165,-0.308 0.16,-0.308C0.155,-0.308 0.149,-0.306 0.143,-0.302C0.137,-0.297 0.13,-0.291 0.121,-0.282C0.103,-0.261 0.088,-0.242 0.077,-0.224C0.066,-0.205 0.058,-0.185 0.054,-0.162Z" style="fill:white;fill-rule:nonzero;"/>
                    </g>
                </g>
            </g>
            <g transform="matrix(1,0,0,1,-5,-11)">
                <g transform="matrix(0.82859,0,0,0.82859,-31.7773,-372.902)">
                    <g transform="matrix(290.624,0,0,290.624,-220.564,-185.844)">
                        <path d="M0.127,0.291C0.117,0.295 0.107,0.297 0.098,0.297C0.077,0.297 0.059,0.289 0.043,0.273C0.005,0.236 -0.02,0.187 -0.032,0.127C-0.041,0.084 -0.045,0.041 -0.045,-0.004C-0.045,-0.053 -0.039,-0.113 -0.027,-0.185C-0.004,-0.32 0.026,-0.437 0.062,-0.536C0.098,-0.635 0.133,-0.722 0.168,-0.799C0.202,-0.876 0.242,-0.947 0.287,-1.014C0.322,-1.066 0.356,-1.104 0.39,-1.129C0.414,-1.147 0.437,-1.156 0.459,-1.156C0.478,-1.156 0.494,-1.15 0.509,-1.137C0.524,-1.124 0.535,-1.106 0.543,-1.084C0.552,-1.06 0.559,-1.035 0.563,-1.01C0.567,-0.985 0.57,-0.954 0.573,-0.919L0.573,-0.911C0.573,-0.907 0.573,-0.904 0.572,-0.902C0.57,-0.892 0.567,-0.885 0.564,-0.88C0.561,-0.875 0.555,-0.873 0.546,-0.874C0.539,-0.875 0.534,-0.879 0.532,-0.884C0.529,-0.889 0.528,-0.896 0.529,-0.904C0.53,-0.943 0.523,-0.992 0.508,-1.049C0.502,-1.065 0.498,-1.075 0.495,-1.08C0.484,-1.099 0.472,-1.109 0.459,-1.109C0.448,-1.109 0.437,-1.104 0.425,-1.095C0.402,-1.078 0.381,-1.059 0.364,-1.036C0.346,-1.013 0.328,-0.987 0.311,-0.956C0.208,-0.774 0.131,-0.588 0.078,-0.397C0.064,-0.347 0.052,-0.296 0.043,-0.244C0.034,-0.192 0.025,-0.133 0.016,-0.067C0.015,-0.062 0.015,-0.055 0.015,-0.044L0.016,0.002C0.016,0.067 0.026,0.125 0.047,0.174C0.048,0.176 0.049,0.181 0.053,0.189C0.056,0.196 0.06,0.203 0.065,0.209C0.078,0.225 0.092,0.233 0.105,0.233C0.116,0.233 0.126,0.229 0.136,0.222C0.202,0.179 0.261,0.127 0.314,0.068C0.316,0.065 0.321,0.059 0.33,0.05C0.339,0.04 0.347,0.031 0.356,0.024C0.368,0.016 0.377,0.012 0.383,0.012C0.39,0.012 0.395,0.014 0.399,0.018C0.404,0.023 0.407,0.028 0.407,0.034C0.407,0.039 0.406,0.044 0.403,0.049C0.4,0.054 0.399,0.057 0.398,0.058C0.387,0.074 0.379,0.086 0.373,0.093C0.326,0.15 0.269,0.203 0.203,0.252C0.18,0.269 0.155,0.282 0.127,0.291Z" style="fill:rgb(248,176,176);fill-rule:nonzero;"/>
                    </g>
                    <g transform="matrix(290.624,0,0,290.624,-71.4735,-185.844)">
                        <path d="M0.007,0.065C-0.004,0.062 -0.011,0.056 -0.014,0.047C-0.017,0.038 -0.018,0.027 -0.018,0.014C-0.018,-0.018 -0.01,-0.057 0.006,-0.104C0.012,-0.122 0.015,-0.136 0.015,-0.147C0.015,-0.162 0.01,-0.175 0,-0.188C-0.007,-0.195 -0.01,-0.206 -0.01,-0.221C-0.01,-0.226 -0.009,-0.233 -0.008,-0.242C0.002,-0.302 0.028,-0.353 0.069,-0.394C0.075,-0.4 0.082,-0.405 0.09,-0.409C0.105,-0.416 0.117,-0.42 0.128,-0.42C0.141,-0.42 0.153,-0.416 0.162,-0.407C0.171,-0.398 0.178,-0.385 0.182,-0.368C0.187,-0.349 0.189,-0.329 0.189,-0.308C0.189,-0.281 0.185,-0.249 0.177,-0.214C0.176,-0.21 0.175,-0.205 0.173,-0.199C0.17,-0.193 0.169,-0.187 0.169,-0.182C0.169,-0.178 0.17,-0.173 0.172,-0.167C0.187,-0.172 0.211,-0.177 0.243,-0.184C0.268,-0.189 0.29,-0.194 0.309,-0.2C0.328,-0.205 0.346,-0.213 0.363,-0.222C0.367,-0.224 0.371,-0.225 0.374,-0.225C0.379,-0.225 0.383,-0.223 0.387,-0.219C0.39,-0.216 0.391,-0.212 0.391,-0.207C0.391,-0.203 0.39,-0.199 0.388,-0.195C0.379,-0.18 0.364,-0.17 0.343,-0.165C0.308,-0.157 0.255,-0.144 0.184,-0.127C0.171,-0.124 0.16,-0.119 0.153,-0.114C0.146,-0.108 0.14,-0.099 0.136,-0.086C0.119,-0.037 0.093,0.006 0.059,0.043C0.052,0.051 0.045,0.057 0.039,0.061C0.033,0.065 0.026,0.067 0.019,0.067C0.016,0.067 0.012,0.066 0.007,0.065ZM0.084,-0.169C0.093,-0.166 0.1,-0.164 0.105,-0.164C0.11,-0.164 0.115,-0.166 0.118,-0.17C0.121,-0.173 0.123,-0.18 0.126,-0.189C0.138,-0.233 0.145,-0.273 0.147,-0.309C0.146,-0.314 0.146,-0.319 0.146,-0.326C0.146,-0.333 0.146,-0.338 0.145,-0.342C0.141,-0.363 0.133,-0.373 0.122,-0.373C0.116,-0.373 0.108,-0.369 0.099,-0.361C0.062,-0.328 0.042,-0.288 0.037,-0.241C0.035,-0.222 0.038,-0.207 0.046,-0.196C0.053,-0.184 0.066,-0.175 0.084,-0.169ZM0.031,0.003C0.044,-0.008 0.055,-0.021 0.064,-0.036C0.072,-0.05 0.082,-0.069 0.093,-0.094C0.095,-0.099 0.099,-0.107 0.104,-0.118C0.099,-0.119 0.093,-0.12 0.085,-0.123C0.077,-0.126 0.071,-0.127 0.068,-0.127C0.061,-0.127 0.056,-0.123 0.053,-0.116C0.038,-0.082 0.03,-0.049 0.03,-0.017C0.03,-0.008 0.03,-0.002 0.031,0.003Z" style="fill:rgb(248,176,176);fill-rule:nonzero;"/>
                    </g>
                    <g transform="matrix(290.624,0,0,290.624,34.8949,-185.844)">
                        <path d="M0.026,-0.039C0.017,-0.036 0.01,-0.034 0.004,-0.034C-0.014,-0.034 -0.026,-0.046 -0.032,-0.07C-0.034,-0.075 -0.035,-0.081 -0.035,-0.087C-0.033,-0.144 -0.021,-0.193 0.001,-0.236C0.005,-0.243 0.009,-0.249 0.012,-0.252C0.014,-0.255 0.018,-0.256 0.023,-0.256L0.031,-0.254C0.041,-0.251 0.046,-0.244 0.046,-0.234C0.046,-0.231 0.045,-0.226 0.042,-0.218C0.034,-0.197 0.028,-0.18 0.024,-0.166C0.019,-0.152 0.016,-0.138 0.014,-0.123C0.012,-0.111 0.011,-0.104 0.011,-0.103C0.011,-0.096 0.013,-0.089 0.018,-0.084C0.037,-0.096 0.054,-0.111 0.068,-0.128L0.167,-0.248L0.175,-0.258C0.186,-0.266 0.194,-0.27 0.2,-0.27C0.203,-0.27 0.206,-0.269 0.21,-0.268C0.22,-0.263 0.225,-0.255 0.225,-0.244C0.225,-0.24 0.225,-0.237 0.224,-0.235C0.223,-0.226 0.221,-0.217 0.219,-0.209C0.216,-0.2 0.214,-0.193 0.213,-0.186C0.209,-0.17 0.206,-0.155 0.203,-0.141C0.2,-0.126 0.199,-0.117 0.201,-0.114C0.209,-0.113 0.223,-0.12 0.243,-0.133C0.262,-0.146 0.274,-0.153 0.278,-0.155C0.285,-0.159 0.29,-0.161 0.294,-0.161C0.298,-0.161 0.302,-0.159 0.305,-0.156C0.308,-0.151 0.31,-0.147 0.31,-0.144C0.31,-0.14 0.308,-0.135 0.304,-0.128C0.296,-0.119 0.28,-0.107 0.255,-0.092C0.23,-0.077 0.211,-0.067 0.197,-0.063C0.188,-0.06 0.182,-0.059 0.18,-0.059C0.167,-0.059 0.159,-0.069 0.155,-0.089C0.154,-0.091 0.154,-0.094 0.154,-0.099C0.154,-0.106 0.155,-0.114 0.157,-0.122C0.159,-0.138 0.16,-0.147 0.16,-0.148C0.16,-0.155 0.159,-0.161 0.158,-0.165L0.081,-0.079C0.064,-0.06 0.045,-0.046 0.026,-0.039Z" style="fill:rgb(248,176,176);fill-rule:nonzero;"/>
                    </g>
                    <g transform="matrix(290.624,0,0,290.624,122.082,-185.844)">
                        <path d="M-0.01,-0.039C-0.02,-0.043 -0.025,-0.051 -0.025,-0.064L-0.024,-0.076C-0.02,-0.104 -0.015,-0.134 -0.008,-0.165C0,-0.196 0.004,-0.215 0.006,-0.222L0.015,-0.261L0.024,-0.312C0.027,-0.323 0.031,-0.331 0.036,-0.336C0.041,-0.341 0.048,-0.342 0.055,-0.339C0.066,-0.336 0.071,-0.329 0.071,-0.319C0.071,-0.318 0.07,-0.313 0.068,-0.303L0.04,-0.164C0.039,-0.161 0.039,-0.158 0.04,-0.155C0.04,-0.151 0.04,-0.146 0.039,-0.141L0.067,-0.165C0.09,-0.184 0.106,-0.198 0.116,-0.207C0.129,-0.218 0.148,-0.23 0.175,-0.243C0.183,-0.247 0.191,-0.249 0.198,-0.249C0.213,-0.249 0.225,-0.24 0.233,-0.221C0.238,-0.208 0.244,-0.188 0.249,-0.163C0.252,-0.152 0.255,-0.143 0.259,-0.139C0.262,-0.134 0.267,-0.131 0.273,-0.131C0.28,-0.131 0.288,-0.133 0.297,-0.138C0.33,-0.153 0.358,-0.169 0.38,-0.185C0.402,-0.2 0.42,-0.22 0.435,-0.244C0.44,-0.252 0.445,-0.256 0.451,-0.256C0.455,-0.256 0.458,-0.255 0.46,-0.254C0.47,-0.248 0.473,-0.239 0.47,-0.228C0.462,-0.208 0.452,-0.192 0.44,-0.181C0.405,-0.149 0.363,-0.12 0.312,-0.095C0.299,-0.088 0.286,-0.085 0.273,-0.085C0.259,-0.085 0.247,-0.089 0.236,-0.098C0.225,-0.107 0.216,-0.119 0.209,-0.136C0.207,-0.142 0.203,-0.156 0.197,-0.177C0.196,-0.186 0.194,-0.195 0.191,-0.204C0.15,-0.181 0.109,-0.147 0.068,-0.103C0.065,-0.099 0.058,-0.092 0.049,-0.083C0.039,-0.074 0.031,-0.064 0.026,-0.054C0.021,-0.043 0.012,-0.037 0.001,-0.037C-0.004,-0.037 -0.007,-0.038 -0.01,-0.039Z" style="fill:rgb(248,176,176);fill-rule:nonzero;"/>
                    </g>
                    <g transform="matrix(290.624,0,0,290.624,247.341,-185.844)">
                        <path d="M-0.14,0.403C-0.147,0.406 -0.151,0.407 -0.154,0.407C-0.161,0.407 -0.166,0.404 -0.171,0.398C-0.176,0.393 -0.178,0.388 -0.178,0.382C-0.178,0.377 -0.177,0.374 -0.174,0.371C-0.16,0.355 -0.15,0.337 -0.144,0.318C-0.137,0.299 -0.131,0.275 -0.126,0.246C-0.121,0.221 -0.116,0.202 -0.113,0.19C-0.104,0.161 -0.081,0.073 -0.042,-0.075C-0.003,-0.223 0.032,-0.356 0.063,-0.473L0.086,-0.56C0.104,-0.627 0.126,-0.697 0.151,-0.77C0.152,-0.775 0.155,-0.783 0.16,-0.795C0.165,-0.806 0.167,-0.817 0.167,-0.827C0.162,-0.829 0.157,-0.83 0.153,-0.83C0.149,-0.83 0.145,-0.829 0.14,-0.828C0.135,-0.827 0.131,-0.826 0.128,-0.825C-0.065,-0.781 -0.229,-0.739 -0.365,-0.7L-0.429,-0.682C-0.516,-0.659 -0.585,-0.637 -0.637,-0.618C-0.658,-0.61 -0.677,-0.602 -0.692,-0.594C-0.699,-0.59 -0.705,-0.588 -0.711,-0.588C-0.719,-0.588 -0.725,-0.592 -0.73,-0.601C-0.732,-0.605 -0.733,-0.609 -0.733,-0.612C-0.733,-0.621 -0.727,-0.63 -0.714,-0.637C-0.693,-0.648 -0.668,-0.658 -0.639,-0.669C-0.542,-0.702 -0.436,-0.734 -0.321,-0.764L-0.211,-0.793C-0.086,-0.826 0.003,-0.849 0.058,-0.862C0.103,-0.872 0.138,-0.879 0.165,-0.884C0.176,-0.886 0.184,-0.89 0.191,-0.896C0.197,-0.902 0.202,-0.911 0.207,-0.922C0.234,-0.989 0.258,-1.048 0.281,-1.1C0.304,-1.151 0.328,-1.201 0.354,-1.248C0.363,-1.264 0.371,-1.275 0.378,-1.28C0.384,-1.286 0.39,-1.289 0.397,-1.289C0.4,-1.289 0.404,-1.288 0.408,-1.286C0.42,-1.28 0.424,-1.27 0.421,-1.257C0.415,-1.233 0.407,-1.206 0.397,-1.177C0.396,-1.175 0.395,-1.173 0.393,-1.171C0.391,-1.168 0.389,-1.167 0.387,-1.167C0.376,-1.165 0.367,-1.16 0.362,-1.153C0.357,-1.146 0.352,-1.138 0.349,-1.129C0.345,-1.12 0.342,-1.113 0.34,-1.109L0.329,-1.086C0.311,-1.046 0.297,-1.014 0.287,-0.989C0.276,-0.964 0.267,-0.938 0.259,-0.911C0.264,-0.908 0.269,-0.907 0.274,-0.907C0.277,-0.907 0.282,-0.908 0.287,-0.909C0.366,-0.927 0.492,-0.952 0.665,-0.985L0.744,-1L0.831,-1.015L0.855,-1.019C0.863,-1.02 0.87,-1.021 0.876,-1.022C0.881,-1.022 0.886,-1.022 0.89,-1.022C0.913,-1.022 0.923,-1.013 0.922,-0.995C0.922,-0.988 0.919,-0.982 0.914,-0.978C0.909,-0.973 0.901,-0.971 0.892,-0.971C0.863,-0.969 0.836,-0.966 0.81,-0.962C0.783,-0.957 0.745,-0.95 0.696,-0.94C0.675,-0.935 0.643,-0.929 0.6,-0.921C0.543,-0.911 0.459,-0.895 0.347,-0.872L0.274,-0.857C0.259,-0.854 0.247,-0.849 0.238,-0.842C0.229,-0.835 0.223,-0.824 0.218,-0.81C0.189,-0.73 0.159,-0.635 0.128,-0.524C0.097,-0.412 0.055,-0.261 0.004,-0.068L-0.002,-0.044L-0.097,0.319C-0.104,0.344 -0.11,0.363 -0.117,0.375C-0.124,0.388 -0.131,0.397 -0.14,0.403Z" style="fill:rgb(248,176,176);fill-rule:nonzero;"/>
                    </g>
                    <g transform="matrix(290.624,0,0,290.624,279.6,-185.844)">
                        <path d="M0.154,0.406C0.145,0.406 0.14,0.403 0.138,0.398C0.135,0.393 0.134,0.385 0.133,0.375C0.132,0.358 0.133,0.342 0.136,0.326C0.139,0.309 0.143,0.29 0.149,0.267L0.157,0.231L0.17,0.168C0.174,0.148 0.182,0.108 0.195,0.049C0.208,-0.011 0.22,-0.065 0.232,-0.114C0.281,-0.311 0.324,-0.466 0.36,-0.579C0.365,-0.595 0.372,-0.618 0.38,-0.649C0.373,-0.646 0.368,-0.642 0.365,-0.637C0.361,-0.632 0.358,-0.628 0.356,-0.623C0.353,-0.618 0.351,-0.615 0.35,-0.613L0.329,-0.573C0.305,-0.524 0.281,-0.478 0.256,-0.434C0.252,-0.427 0.249,-0.415 0.248,-0.399C0.247,-0.388 0.245,-0.379 0.244,-0.374C0.242,-0.368 0.238,-0.363 0.232,-0.359C0.222,-0.352 0.214,-0.345 0.209,-0.337C0.203,-0.328 0.198,-0.32 0.194,-0.312C0.19,-0.303 0.187,-0.297 0.186,-0.294C0.147,-0.213 0.117,-0.152 0.095,-0.113C0.082,-0.09 0.067,-0.066 0.05,-0.04C0.043,-0.031 0.036,-0.023 0.029,-0.018C0.019,-0.012 0.01,-0.009 0.001,-0.009C-0.008,-0.009 -0.016,-0.013 -0.022,-0.021C-0.027,-0.029 -0.03,-0.04 -0.03,-0.054C-0.03,-0.085 -0.023,-0.121 -0.008,-0.162C0.021,-0.243 0.06,-0.311 0.109,-0.366C0.122,-0.381 0.134,-0.393 0.146,-0.402C0.157,-0.411 0.17,-0.418 0.185,-0.421C0.192,-0.423 0.198,-0.426 0.202,-0.431C0.205,-0.436 0.209,-0.442 0.213,-0.451C0.248,-0.516 0.28,-0.576 0.308,-0.63C0.329,-0.671 0.342,-0.696 0.346,-0.704C0.387,-0.783 0.421,-0.848 0.45,-0.9C0.463,-0.924 0.479,-0.957 0.496,-1C0.499,-1.007 0.504,-1.017 0.509,-1.03C0.518,-1.05 0.525,-1.064 0.532,-1.071C0.539,-1.08 0.547,-1.084 0.554,-1.084C0.559,-1.084 0.563,-1.083 0.566,-1.08C0.573,-1.075 0.577,-1.069 0.577,-1.062C0.577,-1.058 0.576,-1.054 0.574,-1.05C0.572,-1.045 0.569,-1.039 0.566,-1.03C0.563,-1.02 0.559,-1.013 0.556,-1.006C0.534,-0.963 0.515,-0.919 0.5,-0.875C0.485,-0.831 0.466,-0.771 0.443,-0.696C0.441,-0.689 0.439,-0.683 0.438,-0.678C0.436,-0.672 0.434,-0.667 0.433,-0.662C0.421,-0.623 0.41,-0.585 0.4,-0.55C0.39,-0.514 0.38,-0.481 0.371,-0.45C0.358,-0.405 0.347,-0.365 0.337,-0.331C0.318,-0.265 0.297,-0.181 0.274,-0.08C0.251,0.022 0.229,0.124 0.208,0.226L0.175,0.379C0.173,0.39 0.171,0.397 0.169,0.401C0.166,0.405 0.161,0.407 0.154,0.406ZM0.021,-0.083C0.065,-0.154 0.108,-0.239 0.15,-0.339C0.084,-0.276 0.041,-0.191 0.021,-0.083Z" style="fill:rgb(248,176,176);fill-rule:nonzero;"/>
                    </g>
                    <g transform="matrix(290.624,0,0,290.624,383.353,-185.844)">
                        <path d="M0.007,0.065C-0.004,0.062 -0.011,0.056 -0.014,0.047C-0.017,0.038 -0.018,0.027 -0.018,0.014C-0.018,-0.018 -0.01,-0.057 0.006,-0.104C0.012,-0.122 0.015,-0.136 0.015,-0.147C0.015,-0.162 0.01,-0.175 0,-0.188C-0.007,-0.195 -0.01,-0.206 -0.01,-0.221C-0.01,-0.226 -0.009,-0.233 -0.008,-0.242C0.002,-0.302 0.028,-0.353 0.069,-0.394C0.075,-0.4 0.082,-0.405 0.09,-0.409C0.105,-0.416 0.117,-0.42 0.128,-0.42C0.141,-0.42 0.153,-0.416 0.162,-0.407C0.171,-0.398 0.178,-0.385 0.182,-0.368C0.187,-0.349 0.189,-0.329 0.189,-0.308C0.189,-0.281 0.185,-0.249 0.177,-0.214C0.176,-0.21 0.175,-0.205 0.173,-0.199C0.17,-0.193 0.169,-0.187 0.169,-0.182C0.169,-0.178 0.17,-0.173 0.172,-0.167C0.187,-0.172 0.211,-0.177 0.243,-0.184C0.268,-0.189 0.29,-0.194 0.309,-0.2C0.328,-0.205 0.346,-0.213 0.363,-0.222C0.367,-0.224 0.371,-0.225 0.374,-0.225C0.379,-0.225 0.383,-0.223 0.387,-0.219C0.39,-0.216 0.391,-0.212 0.391,-0.207C0.391,-0.203 0.39,-0.199 0.388,-0.195C0.379,-0.18 0.364,-0.17 0.343,-0.165C0.308,-0.157 0.255,-0.144 0.184,-0.127C0.171,-0.124 0.16,-0.119 0.153,-0.114C0.146,-0.108 0.14,-0.099 0.136,-0.086C0.119,-0.037 0.093,0.006 0.059,0.043C0.052,0.051 0.045,0.057 0.039,0.061C0.033,0.065 0.026,0.067 0.019,0.067C0.016,0.067 0.012,0.066 0.007,0.065ZM0.084,-0.169C0.093,-0.166 0.1,-0.164 0.105,-0.164C0.11,-0.164 0.115,-0.166 0.118,-0.17C0.121,-0.173 0.123,-0.18 0.126,-0.189C0.138,-0.233 0.145,-0.273 0.147,-0.309C0.146,-0.314 0.146,-0.319 0.146,-0.326C0.146,-0.333 0.146,-0.338 0.145,-0.342C0.141,-0.363 0.133,-0.373 0.122,-0.373C0.116,-0.373 0.108,-0.369 0.099,-0.361C0.062,-0.328 0.042,-0.288 0.037,-0.241C0.035,-0.222 0.038,-0.207 0.046,-0.196C0.053,-0.184 0.066,-0.175 0.084,-0.169ZM0.031,0.003C0.044,-0.008 0.055,-0.021 0.064,-0.036C0.072,-0.05 0.082,-0.069 0.093,-0.094C0.095,-0.099 0.099,-0.107 0.104,-0.118C0.099,-0.119 0.093,-0.12 0.085,-0.123C0.077,-0.126 0.071,-0.127 0.068,-0.127C0.061,-0.127 0.056,-0.123 0.053,-0.116C0.038,-0.082 0.03,-0.049 0.03,-0.017C0.03,-0.008 0.03,-0.002 0.031,0.003Z" style="fill:rgb(248,176,176);fill-rule:nonzero;"/>
                    </g>
                    <g transform="matrix(290.624,0,0,290.624,489.721,-185.844)">
                        <path d="M0.477,-0.396C0.482,-0.391 0.484,-0.387 0.484,-0.383C0.484,-0.377 0.481,-0.372 0.475,-0.367C0.469,-0.362 0.465,-0.358 0.463,-0.356C0.428,-0.312 0.401,-0.271 0.382,-0.233C0.363,-0.194 0.344,-0.143 0.325,-0.078C0.309,-0.022 0.294,0.024 0.281,0.059C0.267,0.094 0.253,0.119 0.24,0.133C0.229,0.144 0.218,0.15 0.208,0.15C0.201,0.15 0.194,0.148 0.188,0.143C0.182,0.138 0.177,0.13 0.174,0.12C0.169,0.105 0.167,0.085 0.167,0.061L0.167,0.025C0.167,0.011 0.168,-0.018 0.17,-0.062C0.172,-0.078 0.173,-0.095 0.173,-0.112C0.156,-0.069 0.146,-0.042 0.143,-0.032C0.132,0 0.12,0.031 0.107,0.061C0.094,0.091 0.076,0.13 0.053,0.178C0.048,0.189 0.042,0.201 0.034,0.213C0.025,0.225 0.02,0.233 0.017,0.236C0.009,0.247 -0.003,0.256 -0.019,0.261C-0.024,0.262 -0.028,0.263 -0.03,0.263C-0.054,0.263 -0.066,0.23 -0.066,0.164C-0.066,0.134 -0.063,0.098 -0.058,0.057C-0.038,-0.077 -0.016,-0.191 0.007,-0.285L0.009,-0.299C0.016,-0.318 0.026,-0.325 0.039,-0.321C0.05,-0.318 0.056,-0.311 0.056,-0.3C0.056,-0.297 0.055,-0.293 0.054,-0.286C0.043,-0.251 0.031,-0.197 0.018,-0.124C0.005,-0.054 -0.004,0.002 -0.01,0.045C-0.016,0.087 -0.019,0.13 -0.019,0.175L-0.018,0.193C-0.013,0.193 -0.01,0.192 -0.008,0.19C-0.006,0.188 -0.005,0.186 -0.004,0.183C-0.003,0.18 -0.002,0.179 -0.001,0.178C0.017,0.145 0.033,0.112 0.048,0.079C0.063,0.045 0.08,0.002 0.1,-0.049C0.101,-0.053 0.105,-0.063 0.111,-0.078C0.136,-0.143 0.155,-0.192 0.167,-0.225L0.223,-0.372C0.23,-0.39 0.24,-0.397 0.254,-0.394C0.265,-0.391 0.271,-0.383 0.271,-0.37C0.271,-0.365 0.271,-0.362 0.27,-0.36C0.267,-0.343 0.263,-0.317 0.256,-0.282L0.241,-0.204C0.22,-0.083 0.21,0 0.21,0.044C0.21,0.067 0.212,0.083 0.217,0.09C0.226,0.078 0.235,0.059 0.245,0.032C0.254,0.005 0.267,-0.034 0.283,-0.084C0.298,-0.133 0.312,-0.175 0.325,-0.209C0.34,-0.246 0.353,-0.273 0.365,-0.292C0.376,-0.311 0.393,-0.334 0.415,-0.363L0.433,-0.386C0.437,-0.39 0.442,-0.394 0.447,-0.398C0.452,-0.401 0.457,-0.403 0.462,-0.403C0.467,-0.403 0.472,-0.401 0.477,-0.396Z" style="fill:rgb(248,176,176);fill-rule:nonzero;"/>
                    </g>
                    <g transform="matrix(290.624,0,0,290.624,619.921,-185.844)">
                        <path d="M-0.01,-0.039C-0.02,-0.043 -0.025,-0.051 -0.025,-0.064L-0.024,-0.076C-0.02,-0.104 -0.015,-0.134 -0.008,-0.165C0,-0.196 0.004,-0.215 0.006,-0.222L0.015,-0.261L0.024,-0.312C0.027,-0.323 0.031,-0.331 0.036,-0.336C0.041,-0.341 0.048,-0.342 0.055,-0.339C0.066,-0.336 0.071,-0.329 0.071,-0.319C0.071,-0.318 0.07,-0.313 0.068,-0.303L0.04,-0.164C0.039,-0.161 0.039,-0.158 0.04,-0.155C0.04,-0.151 0.04,-0.146 0.039,-0.141L0.067,-0.165C0.09,-0.184 0.106,-0.198 0.116,-0.207C0.129,-0.218 0.148,-0.23 0.175,-0.243C0.183,-0.247 0.191,-0.249 0.198,-0.249C0.213,-0.249 0.225,-0.24 0.233,-0.221C0.238,-0.208 0.244,-0.188 0.249,-0.163C0.252,-0.152 0.255,-0.143 0.259,-0.139C0.262,-0.134 0.267,-0.131 0.273,-0.131C0.28,-0.131 0.288,-0.133 0.297,-0.138C0.33,-0.153 0.358,-0.169 0.38,-0.185C0.402,-0.2 0.42,-0.22 0.435,-0.244C0.44,-0.252 0.445,-0.256 0.451,-0.256C0.455,-0.256 0.458,-0.255 0.46,-0.254C0.47,-0.248 0.473,-0.239 0.47,-0.228C0.462,-0.208 0.452,-0.192 0.44,-0.181C0.405,-0.149 0.363,-0.12 0.312,-0.095C0.299,-0.088 0.286,-0.085 0.273,-0.085C0.259,-0.085 0.247,-0.089 0.236,-0.098C0.225,-0.107 0.216,-0.119 0.209,-0.136C0.207,-0.142 0.203,-0.156 0.197,-0.177C0.196,-0.186 0.194,-0.195 0.191,-0.204C0.15,-0.181 0.109,-0.147 0.068,-0.103C0.065,-0.099 0.058,-0.092 0.049,-0.083C0.039,-0.074 0.031,-0.064 0.026,-0.054C0.021,-0.043 0.012,-0.037 0.001,-0.037C-0.004,-0.037 -0.007,-0.038 -0.01,-0.039Z" style="fill:rgb(248,176,176);fill-rule:nonzero;"/>
                    </g>
                </g>
                <g transform="matrix(1.18782,0,0,1.18782,-694.801,58.937)">
                    <g transform="matrix(96,0,0,96,696.619,-243.709)">
                        <path d="M-0.14,0.403C-0.147,0.406 -0.151,0.407 -0.154,0.407C-0.161,0.407 -0.166,0.404 -0.171,0.398C-0.176,0.393 -0.178,0.388 -0.178,0.382C-0.178,0.377 -0.177,0.374 -0.174,0.371C-0.16,0.355 -0.15,0.337 -0.144,0.318C-0.137,0.299 -0.131,0.275 -0.126,0.246C-0.121,0.221 -0.116,0.202 -0.113,0.19C-0.104,0.161 -0.081,0.073 -0.042,-0.075C-0.003,-0.223 0.032,-0.356 0.063,-0.473L0.086,-0.56C0.104,-0.627 0.126,-0.697 0.151,-0.77C0.152,-0.775 0.155,-0.783 0.16,-0.795C0.165,-0.806 0.167,-0.817 0.167,-0.827C0.162,-0.829 0.157,-0.83 0.153,-0.83C0.149,-0.83 0.145,-0.829 0.14,-0.828C0.135,-0.827 0.131,-0.826 0.128,-0.825C-0.065,-0.781 -0.229,-0.739 -0.365,-0.7L-0.429,-0.682C-0.516,-0.659 -0.585,-0.637 -0.637,-0.618C-0.658,-0.61 -0.677,-0.602 -0.692,-0.594C-0.699,-0.59 -0.705,-0.588 -0.711,-0.588C-0.719,-0.588 -0.725,-0.592 -0.73,-0.601C-0.732,-0.605 -0.733,-0.609 -0.733,-0.612C-0.733,-0.621 -0.727,-0.63 -0.714,-0.637C-0.693,-0.648 -0.668,-0.658 -0.639,-0.669C-0.542,-0.702 -0.436,-0.734 -0.321,-0.764L-0.211,-0.793C-0.086,-0.826 0.003,-0.849 0.058,-0.862C0.103,-0.872 0.138,-0.879 0.165,-0.884C0.176,-0.886 0.184,-0.89 0.191,-0.896C0.197,-0.902 0.202,-0.911 0.207,-0.922C0.234,-0.989 0.258,-1.048 0.281,-1.1C0.304,-1.151 0.328,-1.201 0.354,-1.248C0.363,-1.264 0.371,-1.275 0.378,-1.28C0.384,-1.286 0.39,-1.289 0.397,-1.289C0.4,-1.289 0.404,-1.288 0.408,-1.286C0.42,-1.28 0.424,-1.27 0.421,-1.257C0.415,-1.233 0.407,-1.206 0.397,-1.177C0.396,-1.175 0.395,-1.173 0.393,-1.171C0.391,-1.168 0.389,-1.167 0.387,-1.167C0.376,-1.165 0.367,-1.16 0.362,-1.153C0.357,-1.146 0.352,-1.138 0.349,-1.129C0.345,-1.12 0.342,-1.113 0.34,-1.109L0.329,-1.086C0.311,-1.046 0.297,-1.014 0.287,-0.989C0.276,-0.964 0.267,-0.938 0.259,-0.911C0.264,-0.908 0.269,-0.907 0.274,-0.907C0.277,-0.907 0.282,-0.908 0.287,-0.909C0.366,-0.927 0.492,-0.952 0.665,-0.985L0.744,-1L0.831,-1.015L0.855,-1.019C0.863,-1.02 0.87,-1.021 0.876,-1.022C0.881,-1.022 0.886,-1.022 0.89,-1.022C0.913,-1.022 0.923,-1.013 0.922,-0.995C0.922,-0.988 0.919,-0.982 0.914,-0.978C0.909,-0.973 0.901,-0.971 0.892,-0.971C0.863,-0.969 0.836,-0.966 0.81,-0.962C0.783,-0.957 0.745,-0.95 0.696,-0.94C0.675,-0.935 0.643,-0.929 0.6,-0.921C0.543,-0.911 0.459,-0.895 0.347,-0.872L0.274,-0.857C0.259,-0.854 0.247,-0.849 0.238,-0.842C0.229,-0.835 0.223,-0.824 0.218,-0.81C0.189,-0.73 0.159,-0.635 0.128,-0.524C0.097,-0.412 0.055,-0.261 0.004,-0.068L-0.002,-0.044L-0.097,0.319C-0.104,0.344 -0.11,0.363 -0.117,0.375C-0.124,0.388 -0.131,0.397 -0.14,0.403Z" style="fill:rgb(248,176,176);fill-rule:nonzero;"/>
                    </g>
                    <g transform="matrix(96,0,0,96,711.115,-243.709)">
                        <path d="M0.007,0.065C-0.004,0.062 -0.011,0.056 -0.014,0.047C-0.017,0.038 -0.018,0.027 -0.018,0.014C-0.018,-0.018 -0.01,-0.057 0.006,-0.104C0.012,-0.122 0.015,-0.136 0.015,-0.147C0.015,-0.162 0.01,-0.175 0,-0.188C-0.007,-0.195 -0.01,-0.206 -0.01,-0.221C-0.01,-0.226 -0.009,-0.233 -0.008,-0.242C0.002,-0.302 0.028,-0.353 0.069,-0.394C0.075,-0.4 0.082,-0.405 0.09,-0.409C0.105,-0.416 0.117,-0.42 0.128,-0.42C0.141,-0.42 0.153,-0.416 0.162,-0.407C0.171,-0.398 0.178,-0.385 0.182,-0.368C0.187,-0.349 0.189,-0.329 0.189,-0.308C0.189,-0.281 0.185,-0.249 0.177,-0.214C0.176,-0.21 0.175,-0.205 0.173,-0.199C0.17,-0.193 0.169,-0.187 0.169,-0.182C0.169,-0.178 0.17,-0.173 0.172,-0.167C0.187,-0.172 0.211,-0.177 0.243,-0.184C0.268,-0.189 0.29,-0.194 0.309,-0.2C0.328,-0.205 0.346,-0.213 0.363,-0.222C0.367,-0.224 0.371,-0.225 0.374,-0.225C0.379,-0.225 0.383,-0.223 0.387,-0.219C0.39,-0.216 0.391,-0.212 0.391,-0.207C0.391,-0.203 0.39,-0.199 0.388,-0.195C0.379,-0.18 0.364,-0.17 0.343,-0.165C0.308,-0.157 0.255,-0.144 0.184,-0.127C0.171,-0.124 0.16,-0.119 0.153,-0.114C0.146,-0.108 0.14,-0.099 0.136,-0.086C0.119,-0.037 0.093,0.006 0.059,0.043C0.052,0.051 0.045,0.057 0.039,0.061C0.033,0.065 0.026,0.067 0.019,0.067C0.016,0.067 0.012,0.066 0.007,0.065ZM0.084,-0.169C0.093,-0.166 0.1,-0.164 0.105,-0.164C0.11,-0.164 0.115,-0.166 0.118,-0.17C0.121,-0.173 0.123,-0.18 0.126,-0.189C0.138,-0.233 0.145,-0.273 0.147,-0.309C0.146,-0.314 0.146,-0.319 0.146,-0.326C0.146,-0.333 0.146,-0.338 0.145,-0.342C0.141,-0.363 0.133,-0.373 0.122,-0.373C0.116,-0.373 0.108,-0.369 0.099,-0.361C0.062,-0.328 0.042,-0.288 0.037,-0.241C0.035,-0.222 0.038,-0.207 0.046,-0.196C0.053,-0.184 0.066,-0.175 0.084,-0.169ZM0.031,0.003C0.044,-0.008 0.055,-0.021 0.064,-0.036C0.072,-0.05 0.082,-0.069 0.093,-0.094C0.095,-0.099 0.099,-0.107 0.104,-0.118C0.099,-0.119 0.093,-0.12 0.085,-0.123C0.077,-0.126 0.071,-0.127 0.068,-0.127C0.061,-0.127 0.056,-0.123 0.053,-0.116C0.038,-0.082 0.03,-0.049 0.03,-0.017C0.03,-0.008 0.03,-0.002 0.031,0.003Z" style="fill:rgb(248,176,176);fill-rule:nonzero;"/>
                    </g>
                </g>
                <g transform="matrix(0.71251,0.000281647,-0.000281647,0.71251,147.486,-201.546)">
                    <g transform="matrix(290.624,0,0,290.624,174.374,0)">
                        <path d="M0.009,0.516C0.002,0.517 -0.002,0.518 -0.005,0.518C-0.018,0.518 -0.03,0.514 -0.041,0.506C-0.052,0.497 -0.059,0.485 -0.064,0.47C-0.071,0.449 -0.076,0.429 -0.079,0.408C-0.081,0.387 -0.083,0.357 -0.084,0.319C-0.084,0.303 -0.084,0.291 -0.085,0.283L-0.081,0.21C-0.076,0.091 -0.069,-0.004 -0.061,-0.074C-0.056,-0.119 -0.052,-0.154 -0.05,-0.18C-0.048,-0.197 -0.045,-0.228 -0.04,-0.272C-0.035,-0.316 -0.03,-0.355 -0.025,-0.39C-0.007,-0.517 0.017,-0.651 0.048,-0.793C0.057,-0.834 0.067,-0.886 0.079,-0.948C0.088,-0.995 0.095,-1.034 0.101,-1.063C0.13,-1.212 0.153,-1.324 0.168,-1.397C0.169,-1.406 0.17,-1.413 0.173,-1.416C0.176,-1.423 0.179,-1.427 0.183,-1.43C0.187,-1.432 0.192,-1.432 0.198,-1.431C0.206,-1.429 0.21,-1.422 0.21,-1.409C0.21,-1.399 0.209,-1.392 0.208,-1.388C0.195,-1.336 0.184,-1.281 0.173,-1.222C0.162,-1.163 0.156,-1.128 0.153,-1.115C0.149,-1.09 0.143,-1.059 0.136,-1.021L0.088,-0.771C0.063,-0.639 0.044,-0.54 0.032,-0.475C0.025,-0.436 0.018,-0.392 0.013,-0.345C0.008,-0.298 0.003,-0.251 -0.002,-0.206L-0.005,-0.174C-0.016,-0.065 -0.025,0.045 -0.032,0.156C-0.034,0.193 -0.035,0.233 -0.035,0.275C-0.035,0.312 -0.034,0.352 -0.032,0.394C-0.032,0.397 -0.032,0.404 -0.032,0.415C-0.031,0.426 -0.029,0.435 -0.026,0.444C-0.023,0.452 -0.017,0.458 -0.01,0.461C-0.005,0.463 -0.001,0.464 0.004,0.464C0.011,0.464 0.019,0.462 0.026,0.458C0.033,0.453 0.039,0.449 0.045,0.444C0.05,0.439 0.054,0.436 0.057,0.434L0.164,0.353C0.183,0.338 0.212,0.316 0.253,0.285C0.293,0.254 0.328,0.227 0.358,0.203C0.382,0.184 0.411,0.162 0.444,0.139L0.485,0.109C0.494,0.104 0.501,0.1 0.507,0.097C0.517,0.091 0.525,0.088 0.531,0.088C0.537,0.088 0.542,0.091 0.545,0.098C0.546,0.101 0.547,0.104 0.547,0.108C0.547,0.116 0.541,0.124 0.53,0.133C0.457,0.189 0.402,0.23 0.365,0.257C0.344,0.272 0.306,0.301 0.249,0.346C0.201,0.384 0.177,0.403 0.177,0.403C0.158,0.418 0.15,0.424 0.151,0.423C0.109,0.455 0.075,0.48 0.05,0.498C0.037,0.506 0.023,0.512 0.009,0.516Z" style="fill:rgb(248,176,176);fill-rule:nonzero;"/>
                    </g>
                    <g transform="matrix(290.624,0,0,290.624,348.168,0)">
                        <path d="M0.169,-0.569C0.157,-0.572 0.151,-0.582 0.151,-0.599C0.15,-0.616 0.161,-0.624 0.184,-0.624C0.199,-0.624 0.207,-0.618 0.207,-0.606C0.206,-0.599 0.201,-0.591 0.192,-0.582C0.182,-0.572 0.174,-0.568 0.169,-0.569ZM0.005,0.062C-0.003,0.063 -0.008,0.064 -0.01,0.064C-0.037,0.064 -0.05,0.045 -0.05,0.006C-0.05,-0.019 -0.043,-0.06 -0.028,-0.117C-0.013,-0.173 0.002,-0.228 0.019,-0.282C0.035,-0.335 0.047,-0.369 0.055,-0.384C0.062,-0.397 0.072,-0.402 0.083,-0.398C0.092,-0.395 0.096,-0.388 0.096,-0.378C0.096,-0.37 0.094,-0.359 0.09,-0.345C0.084,-0.326 0.072,-0.286 0.053,-0.224L0.011,-0.085C0.005,-0.066 0,-0.049 -0.005,-0.033C-0.009,-0.016 -0.011,-0.004 -0.011,0.003C-0.011,0.012 -0.008,0.016 -0.003,0.016C0.006,0.016 0.019,0.007 0.038,-0.011C0.084,-0.057 0.135,-0.114 0.19,-0.182C0.202,-0.197 0.211,-0.208 0.218,-0.215C0.223,-0.222 0.23,-0.225 0.237,-0.225C0.241,-0.225 0.245,-0.224 0.248,-0.221C0.254,-0.216 0.257,-0.211 0.257,-0.205C0.257,-0.2 0.255,-0.194 0.25,-0.187C0.246,-0.18 0.243,-0.175 0.24,-0.172C0.186,-0.104 0.139,-0.049 0.101,-0.008C0.062,0.034 0.03,0.057 0.005,0.062Z" style="fill:rgb(248,176,176);fill-rule:nonzero;"/>
                    </g>
                    <g transform="matrix(290.624,0,0,290.624,414.43,0)">
                        <path d="M0.042,0.074C0.033,0.074 0.026,0.071 0.022,0.066C0.017,0.061 0.014,0.054 0.012,0.045C0.009,0.036 0.009,0.024 0.01,0.011C0.011,-0.032 0.012,-0.064 0.012,-0.085C0.012,-0.166 0.008,-0.255 -0.001,-0.35C-0.003,-0.373 0.004,-0.385 0.02,-0.386C0.029,-0.386 0.037,-0.383 0.042,-0.378C0.047,-0.372 0.049,-0.365 0.05,-0.356C0.055,-0.314 0.058,-0.272 0.059,-0.231C0.06,-0.191 0.06,-0.131 0.06,-0.05C0.073,-0.067 0.085,-0.086 0.095,-0.106C0.104,-0.126 0.114,-0.15 0.125,-0.177C0.132,-0.194 0.137,-0.207 0.141,-0.216L0.182,-0.316C0.187,-0.327 0.191,-0.333 0.192,-0.335C0.193,-0.337 0.196,-0.341 0.2,-0.346C0.203,-0.351 0.207,-0.356 0.212,-0.359C0.216,-0.362 0.221,-0.363 0.226,-0.363C0.237,-0.363 0.243,-0.36 0.247,-0.355C0.249,-0.349 0.253,-0.34 0.256,-0.327C0.262,-0.302 0.268,-0.284 0.274,-0.274C0.28,-0.263 0.289,-0.258 0.3,-0.258C0.311,-0.258 0.33,-0.264 0.355,-0.277C0.36,-0.28 0.365,-0.282 0.369,-0.282C0.374,-0.282 0.378,-0.279 0.381,-0.274C0.384,-0.271 0.385,-0.267 0.385,-0.263C0.385,-0.257 0.381,-0.251 0.373,-0.245C0.355,-0.23 0.334,-0.222 0.311,-0.222C0.294,-0.222 0.279,-0.226 0.265,-0.235C0.251,-0.244 0.24,-0.256 0.231,-0.272C0.23,-0.274 0.227,-0.279 0.22,-0.286C0.198,-0.234 0.183,-0.198 0.176,-0.178C0.164,-0.145 0.15,-0.111 0.133,-0.074C0.116,-0.037 0.106,-0.014 0.101,-0.003L0.09,0.02C0.086,0.029 0.079,0.041 0.068,0.057C0.06,0.068 0.051,0.074 0.042,0.074Z" style="fill:rgb(248,176,176);fill-rule:nonzero;"/>
                    </g>
                    <g transform="matrix(290.624,0,0,290.624,504.523,0)">
                        <path d="M0.123,0.024C0.108,0.031 0.093,0.034 0.078,0.034C0.051,0.034 0.027,0.023 0.008,0.002C-0.011,-0.019 -0.021,-0.051 -0.02,-0.093C-0.009,-0.154 0.008,-0.205 0.031,-0.248C0.053,-0.29 0.089,-0.324 0.139,-0.349C0.149,-0.354 0.16,-0.357 0.172,-0.357C0.184,-0.357 0.194,-0.354 0.203,-0.347C0.212,-0.339 0.218,-0.33 0.222,-0.317C0.223,-0.31 0.224,-0.306 0.224,-0.303C0.224,-0.296 0.222,-0.287 0.217,-0.275C0.203,-0.242 0.185,-0.213 0.163,-0.189C0.14,-0.164 0.113,-0.142 0.08,-0.123C0.073,-0.119 0.066,-0.116 0.057,-0.113C0.049,-0.11 0.043,-0.108 0.04,-0.106C0.037,-0.103 0.035,-0.099 0.035,-0.092C0.035,-0.048 0.05,-0.026 0.08,-0.026C0.09,-0.026 0.101,-0.028 0.113,-0.032C0.137,-0.039 0.166,-0.058 0.2,-0.087C0.233,-0.116 0.261,-0.144 0.284,-0.171L0.289,-0.178C0.3,-0.192 0.31,-0.199 0.318,-0.199C0.323,-0.199 0.327,-0.197 0.331,-0.193C0.337,-0.187 0.34,-0.181 0.34,-0.174C0.34,-0.167 0.336,-0.158 0.329,-0.147C0.307,-0.117 0.275,-0.085 0.234,-0.05C0.192,-0.015 0.155,0.01 0.123,0.024ZM0.054,-0.162C0.101,-0.188 0.139,-0.225 0.166,-0.273C0.167,-0.275 0.169,-0.278 0.172,-0.283C0.174,-0.287 0.176,-0.291 0.176,-0.295C0.176,-0.298 0.174,-0.301 0.171,-0.304C0.168,-0.307 0.165,-0.308 0.16,-0.308C0.155,-0.308 0.149,-0.306 0.143,-0.302C0.137,-0.297 0.13,-0.291 0.121,-0.282C0.103,-0.261 0.088,-0.242 0.077,-0.224C0.066,-0.205 0.058,-0.185 0.054,-0.162Z" style="fill:rgb(248,176,176);fill-rule:nonzero;"/>
                    </g>
                </g>
            </g>
        </g>
    </g>
</svg>
