<?xml version="1.0" encoding="UTF-8" standalone="no"?>
<!DOCTYPE svg PUBLIC "-//W3C//DTD SVG 1.1//EN" "http://www.w3.org/Graphics/SVG/1.1/DTD/svg11.dtd">
<svg width="100%" height="100%" viewBox="0 0 276 132" version="1.1" xmlns="http://www.w3.org/2000/svg" xmlns:xlink="http://www.w3.org/1999/xlink" xml:space="preserve" xmlns:serif="http://www.serif.com/" style="fill-rule:evenodd;clip-rule:evenodd;stroke-linejoin:round;stroke-miterlimit:2;">
    <g transform="matrix(1,0,0,1,-152.761,-396.099)">
        <g transform="matrix(1,0,0,1,-1,0)">
            <path d="M181.621,445.569C181.621,443.074 179.595,441.048 177.1,441.048L168.059,441.048C165.564,441.048 163.538,443.074 163.538,445.569L163.538,514.401C163.538,516.896 165.564,518.921 168.059,518.921L177.1,518.921C179.595,518.921 181.621,516.896 181.621,514.401L181.621,445.569Z" style="fill:rgb(255,158,177);fill-opacity:0.65;"/>
        </g>
        <g transform="matrix(1,0,0,1,-10,0)">
            <path d="M293.806,446.605C293.806,443.935 291.639,441.768 288.969,441.768L279.295,441.768C276.626,441.768 274.458,443.935 274.458,446.605L274.458,515.056C274.458,517.726 276.626,519.893 279.295,519.893L288.969,519.893C291.639,519.893 293.806,517.726 293.806,515.056L293.806,446.605Z" style="fill:rgb(255,158,177);fill-opacity:0.65;"/>
        </g>
        <g transform="matrix(1,0,0,1,0.639681,-4.26398)">
            <path d="M159.221,470.651C159.221,469.671 158.426,468.876 157.446,468.876L153.897,468.876C152.917,468.876 152.122,469.671 152.122,470.651L152.122,499.347C152.122,500.327 152.917,501.122 153.897,501.122L157.446,501.122C158.426,501.122 159.221,500.327 159.221,499.347L159.221,470.651Z" style="fill:rgb(255,207,212);"/>
        </g>
        <g transform="matrix(1,0,0,1,134.086,-3.85501)">
            <path d="M159.221,470.651C159.221,469.671 158.426,468.876 157.446,468.876L153.897,468.876C152.917,468.876 152.122,469.671 152.122,470.651L152.122,499.347C152.122,500.327 152.917,501.122 153.897,501.122L157.446,501.122C158.426,501.122 159.221,500.327 159.221,499.347L159.221,470.651Z" style="fill:rgb(255,207,212);"/>
        </g>
        <g transform="matrix(0.851585,0,5.55112e-17,1,28.6966,0.566275)">
            <rect x="183.959" y="472.602" width="87.968" height="4.002" style="fill:rgb(255,207,212);"/>
        </g>
        <g transform="matrix(0.851585,0,5.55112e-17,1,28.6966,11.5663)">
            <rect x="183.959" y="472.602" width="87.968" height="4.002" style="fill:rgb(255,207,212);"/>
        </g>
        <g transform="matrix(0.804513,0.593935,-0.593935,0.804513,462.955,-57.6623)">
            <path d="M181.621,445.569C181.621,443.074 179.595,441.048 177.1,441.048L168.059,441.048C165.564,441.048 163.538,443.074 163.538,445.569L163.538,514.401C163.538,516.896 165.564,518.921 168.059,518.921L177.1,518.921C179.595,518.921 181.621,516.896 181.621,514.401L181.621,445.569Z" style="fill:rgb(255,158,177);fill-opacity:0.65;"/>
        </g>
        <g transform="matrix(0.804513,0.593935,-0.593935,0.804513,455.714,-63.0077)">
            <path d="M293.806,446.605C293.806,443.935 291.639,441.768 288.969,441.768L279.295,441.768C276.626,441.768 274.458,443.935 274.458,446.605L274.458,515.056C274.458,517.726 276.626,519.893 279.295,519.893L288.969,519.893C291.639,519.893 293.806,517.726 293.806,515.056L293.806,446.605Z" style="fill:rgb(255,158,177);fill-opacity:0.65;"/>
        </g>
        <g transform="matrix(0.804513,0.593935,-0.593935,0.804513,466.806,-60.1189)">
            <path d="M159.221,470.651C159.221,469.671 158.426,468.876 157.446,468.876L153.897,468.876C152.917,468.876 152.122,469.671 152.122,470.651L152.122,499.347C152.122,500.327 152.917,501.122 153.897,501.122L157.446,501.122C158.426,501.122 159.221,500.327 159.221,499.347L159.221,470.651Z" style="fill:rgb(255,207,212);"/>
        </g>
        <g transform="matrix(0.804513,0.593935,-0.593935,0.804513,573.923,19.4683)">
            <path d="M159.221,470.651C159.221,469.671 158.426,468.876 157.446,468.876L153.897,468.876C152.917,468.876 152.122,469.671 152.122,470.651L152.122,499.347C152.122,500.327 152.917,501.122 153.897,501.122L157.446,501.122C158.426,501.122 159.221,500.327 159.221,499.347L159.221,470.651Z" style="fill:rgb(255,207,212);"/>
        </g>
        <g transform="matrix(0.685112,0.505786,-0.593935,0.804513,486.51,-39.5689)">
            <rect x="183.959" y="472.602" width="87.968" height="4.002" style="fill:rgb(255,207,212);"/>
        </g>
        <g transform="matrix(0.685112,0.505786,-0.593935,0.804513,479.976,-30.7192)">
            <rect x="183.959" y="472.602" width="87.968" height="4.002" style="fill:rgb(255,207,212);"/>
        </g>
    </g>
</svg>
