<?xml version="1.0" encoding="UTF-8" standalone="no"?>
<!DOCTYPE svg PUBLIC "-//W3C//DTD SVG 1.1//EN" "http://www.w3.org/Graphics/SVG/1.1/DTD/svg11.dtd">
<svg width="100%" height="100%" viewBox="0 0 371 150" version="1.1" xmlns="http://www.w3.org/2000/svg" xmlns:xlink="http://www.w3.org/1999/xlink" xml:space="preserve" xmlns:serif="http://www.serif.com/" style="fill-rule:evenodd;clip-rule:evenodd;stroke-linejoin:round;stroke-miterlimit:2;">
    <g transform="matrix(1,0,0,1,270.076,-80.0995)">
        <g transform="matrix(1,0,0,1,-376.214,-791.369)">
            <g transform="matrix(0.818344,0,0,0.818344,77.0337,550.243)">
                <path d="M59.143,559.641C58.357,559.855 57.642,559.677 56.999,559.105C56.356,558.534 55.927,557.712 55.713,556.64C55.499,555.783 55.392,554.425 55.392,552.567C55.392,539.777 55.999,526.523 57.214,512.804C57.571,508.731 57.749,505.051 57.749,501.764C57.749,501.05 57.66,500.532 57.482,500.21C57.303,499.888 56.963,499.728 56.463,499.728C56.106,499.728 55.606,499.835 54.963,500.049C53.82,500.335 52.962,500.585 52.39,500.799C49.461,501.443 47.139,502.264 45.424,503.265C44.495,503.836 43.352,504.122 41.994,504.122C41.637,504.122 40.958,504.051 39.958,503.908C39.1,503.765 38.564,503.265 38.35,502.407L38.243,501.871C38.243,501.514 38.35,501.157 38.564,500.799C38.779,500.442 39.065,500.228 39.422,500.156C40.422,499.656 41.994,499.049 44.138,498.334C46.424,497.62 50.426,496.477 56.142,494.905C56.999,494.619 57.624,494.226 58.017,493.726C58.41,493.225 58.643,492.511 58.714,491.582C59.357,480.507 60.786,467.502 63.001,452.569C64.145,444.852 65.216,439.1 66.217,435.313C66.931,432.455 67.646,429.061 68.36,425.131L69.003,422.13C64.716,423.13 59.786,424.809 54.213,427.167L49.175,429.096C48.675,429.311 48.318,429.561 48.103,429.847C47.889,430.132 47.889,430.561 48.103,431.133L48.318,432.097C48.318,433.169 47.603,433.812 46.174,434.027C44.531,434.312 42.066,434.598 38.779,434.884L38.35,434.884C37.278,434.884 36.564,434.42 36.206,433.491C36.063,433.205 35.992,432.812 35.992,432.312C35.992,431.383 36.349,430.668 37.064,430.168C38.493,429.168 40.065,428.203 41.78,427.274C45.352,425.345 49.014,423.666 52.766,422.237C56.517,420.808 61.429,419.093 67.503,417.092C71.933,415.592 76.399,414.252 80.9,413.073C85.402,411.894 91.047,410.483 97.835,408.839L108.981,406.053C114.412,404.624 120.61,403.087 127.577,401.444C134.544,399.801 139.492,398.622 142.421,397.907L154.318,395.013L162.357,393.191C163.071,393.048 163.536,392.977 163.75,392.977C165.608,392.834 166.644,393.513 166.858,395.013C167.144,396.585 166.394,397.55 164.607,397.907C155.104,399.979 142.671,402.98 127.309,406.91C122.807,408.053 117.377,409.375 111.018,410.876C98.156,414.02 89.546,416.235 85.187,417.521L82.508,418.057C81.007,418.271 79.793,418.521 78.864,418.807C77.935,419.093 77.149,419.557 76.506,420.2C75.863,420.844 75.416,421.54 75.166,422.29C74.916,423.041 74.684,424.059 74.469,425.345C74.184,426.917 73.898,428.06 73.612,428.775C71.683,433.348 70.272,438.082 69.378,442.976C68.485,447.871 67.681,453.891 66.967,461.036L66.002,469.825C65.716,472.183 65.359,475.719 64.93,480.435L64.395,485.473C64.323,485.973 64.252,486.562 64.18,487.241C64.109,487.92 64.073,488.688 64.073,489.546C64.073,490.546 64.145,491.261 64.287,491.689C64.788,491.975 65.216,492.118 65.574,492.118C65.859,492.118 66.217,492.046 66.645,491.904L75.113,489.546C77.756,488.831 84.437,486.938 95.155,483.865C101.3,482.079 107.981,480.328 115.198,478.613C125.773,475.898 133.668,473.755 138.884,472.183C139.17,472.111 140.045,471.861 141.51,471.432C142.975,471.004 144.386,470.789 145.744,470.789C148.173,470.789 149.388,471.611 149.388,473.254C149.459,474.541 148.566,475.326 146.708,475.612C142.278,476.255 137.902,477.113 133.579,478.185C129.256,479.256 123.736,480.721 117.02,482.579L106.73,485.473C91.725,489.403 79.15,492.904 69.003,495.976C67.431,496.477 66.395,496.762 65.895,496.834C64.966,497.12 64.305,497.548 63.912,498.12C63.519,498.692 63.251,499.478 63.108,500.478C63.037,501.764 62.93,503.265 62.787,504.979C62.644,506.694 62.537,508.016 62.465,508.945C62.037,513.375 61.787,516.698 61.715,518.913C61.644,523.2 61.429,527.487 61.072,531.774C60.643,540.349 60.429,546.744 60.429,550.959C60.429,553.103 60.572,554.746 60.858,555.89C60.929,556.176 60.965,556.533 60.965,556.962C60.965,558.248 60.357,559.141 59.143,559.641Z" style="fill:rgb(107,153,107);fill-rule:nonzero;stroke:rgb(107,153,107);stroke-width:0.86px;"/>
                <path d="M77.685,532.525C76.47,531.667 75.863,530.452 75.863,528.881L75.97,527.594C76.327,524.165 77.167,520.842 78.489,517.627C79.811,514.411 81.579,511.089 83.794,507.659C85.866,504.444 87.67,501.836 89.207,499.835C90.743,497.834 92.547,496.084 94.619,494.583L96.87,492.975C98.299,492.046 99.692,491.582 101.05,491.582C102.336,491.582 103.372,492.064 104.158,493.029C104.944,493.994 105.409,495.369 105.552,497.155C105.623,497.87 105.659,498.942 105.659,500.371L105.659,503.586C105.516,504.872 105.194,505.73 104.694,506.158C103.265,507.588 102.283,509.124 101.747,510.767C101.211,512.411 100.728,514.661 100.3,517.519C100.085,519.735 99.728,521.628 99.228,523.2C101.372,522.271 103.997,520.431 107.106,517.68C110.214,514.929 112.304,512.589 113.376,510.66C113.519,510.374 113.733,509.928 114.019,509.32C114.305,508.713 114.644,508.231 115.037,507.873C115.43,507.516 115.876,507.337 116.377,507.337C118.02,507.337 118.842,508.052 118.842,509.481C118.842,510.41 118.485,511.553 117.77,512.911C116.555,515.126 114.322,517.734 111.071,520.735C107.82,523.736 104.658,526.38 101.586,528.666C100.443,529.595 99.299,530.059 98.156,530.059C97.37,530.059 96.656,529.881 96.013,529.524C94.726,528.809 94.083,527.63 94.083,525.987C94.083,524.701 94.298,522.628 94.726,519.77C94.869,519.342 95.012,518.484 95.155,517.198C94.583,517.198 94.155,517.323 93.869,517.573C93.583,517.823 93.351,518.109 93.172,518.431C92.994,518.752 92.869,518.984 92.797,519.127C92.511,519.556 91.618,520.878 90.118,523.093C88.617,525.308 87.045,527.309 85.402,529.095C84.473,530.167 83.58,531.024 82.722,531.667C81.508,532.596 80.436,533.061 79.507,533.061C78.792,533.061 78.185,532.882 77.685,532.525ZM80.579,526.523C82.151,525.022 84.455,522.092 87.492,517.734C90.529,513.375 93.315,509.034 95.852,504.712C98.388,500.389 99.835,497.441 100.193,495.869C95.262,499.728 91.279,504.14 88.242,509.106C85.205,514.072 82.651,519.877 80.579,526.523Z" style="fill:rgb(107,153,107);fill-rule:nonzero;stroke:rgb(107,153,107);stroke-width:0.86px;"/>
                <path d="M110.267,533.168C109.196,532.596 108.66,531.739 108.66,530.595C108.66,530.024 108.767,529.416 108.981,528.773L110.267,523.522C110.482,522.593 111.143,519.895 112.25,515.429C113.358,510.964 114.555,506.802 115.841,502.943L116.055,501.978C116.77,499.763 117.877,498.656 119.378,498.656C119.735,498.656 120.021,498.692 120.235,498.763C121.307,499.049 121.843,499.799 121.843,501.014C121.843,501.657 121.664,502.622 121.307,503.908L118.735,512.161L119.378,512.804L124.522,506.909C125.808,505.337 127.13,504.551 128.488,504.551C130.774,504.551 132.418,506.087 133.418,509.159C133.561,509.588 133.668,510.356 133.74,511.464C133.811,512.571 134.097,513.447 134.597,514.09L134.919,514.09C135.49,514.09 135.955,513.858 136.312,513.393C136.669,512.929 136.919,512.589 137.062,512.375C138.92,510.374 141.85,507.588 145.851,504.015L149.495,500.692C150.567,499.763 151.424,499.12 152.067,498.763C152.925,498.191 153.854,497.906 154.854,497.906C156.712,497.906 158.069,499.049 158.927,501.335C159.356,502.407 159.588,503.622 159.624,504.979C159.659,506.337 159.677,507.23 159.677,507.659L159.677,510.446C159.677,511.66 159.82,512.696 160.106,513.554C160.32,513.768 160.535,513.875 160.749,513.875C160.963,513.875 161.249,513.697 161.606,513.339C162.321,512.482 163,512.053 163.643,512.053C164.072,512.053 164.465,512.196 164.822,512.482C165.536,512.982 165.894,513.661 165.894,514.518C165.894,514.804 165.751,515.376 165.465,516.233C165.108,517.234 164.482,518.02 163.589,518.591C162.696,519.163 161.749,519.449 160.749,519.449C159.391,519.449 158.141,518.949 156.998,517.948C155.426,516.448 154.675,514.661 154.747,512.589C154.747,510.731 154.711,509.338 154.64,508.409C154.64,507.909 154.568,506.587 154.425,504.444C153.282,504.586 152.3,504.962 151.478,505.569C150.656,506.176 149.638,507.087 148.423,508.302C145.494,511.232 142.314,514.59 138.884,518.377C137.527,519.877 136.205,520.914 134.919,521.485C134.061,521.842 133.382,522.021 132.882,522.021C131.453,522.021 130.381,521.199 129.667,519.556C129.238,518.556 128.952,517.019 128.809,514.947C128.809,513.875 128.702,512.875 128.488,511.946C128.059,511.803 127.809,511.732 127.738,511.732C127.238,511.732 126.88,511.946 126.666,512.375C126.452,512.804 126.309,513.054 126.237,513.125C123.379,516.841 121.057,519.985 119.271,522.557C117.484,525.129 115.912,527.88 114.555,530.81C113.697,532.525 112.661,533.382 111.446,533.382C110.946,533.382 110.553,533.311 110.267,533.168Z" style="fill:rgb(107,153,107);fill-rule:nonzero;stroke:rgb(107,153,107);stroke-width:0.86px;"/>
                <path d="M229.451,559.641C228.665,559.855 227.951,559.677 227.307,559.105C226.664,558.534 226.236,557.712 226.021,556.64C225.807,555.783 225.7,554.425 225.7,552.567C225.7,539.777 226.307,526.523 227.522,512.804C227.879,508.731 228.058,505.051 228.058,501.764C228.058,501.05 227.968,500.532 227.79,500.21C227.611,499.888 227.272,499.728 226.772,499.728C226.414,499.728 225.914,499.835 225.271,500.049C224.128,500.335 223.27,500.585 222.699,500.799C219.769,501.443 217.447,502.264 215.732,503.265C214.803,503.836 213.66,504.122 212.302,504.122C211.945,504.122 211.266,504.051 210.266,503.908C209.408,503.765 208.873,503.265 208.658,502.407L208.551,501.871C208.551,501.514 208.658,501.157 208.873,500.799C209.087,500.442 209.373,500.228 209.73,500.156C210.73,499.656 212.302,499.049 214.446,498.334C216.732,497.62 220.734,496.477 226.45,494.905C227.307,494.619 227.933,494.226 228.326,493.726C228.719,493.225 228.951,492.511 229.022,491.582C229.665,480.507 231.094,467.502 233.309,452.569C234.453,444.852 235.525,439.1 236.525,435.313C237.239,432.455 237.954,429.061 238.668,425.131L239.312,422.13C235.024,423.13 230.094,424.809 224.521,427.167L219.483,429.096C218.983,429.311 218.626,429.561 218.412,429.847C218.197,430.132 218.197,430.561 218.412,431.133L218.626,432.097C218.626,433.169 217.911,433.812 216.482,434.027C214.839,434.312 212.374,434.598 209.087,434.884L208.658,434.884C207.586,434.884 206.872,434.42 206.515,433.491C206.372,433.205 206.3,432.812 206.3,432.312C206.3,431.383 206.658,430.668 207.372,430.168C208.801,429.168 210.373,428.203 212.088,427.274C215.661,425.345 219.323,423.666 223.074,422.237C226.825,420.808 231.738,419.093 237.811,417.092C242.241,415.592 246.707,414.252 251.208,413.073C255.71,411.894 261.355,410.483 268.143,408.839L279.29,406.053C284.72,404.624 290.918,403.087 297.885,401.444C304.852,399.801 309.8,398.622 312.73,397.907L324.626,395.013L332.665,393.191C333.379,393.048 333.844,392.977 334.058,392.977C335.916,392.834 336.952,393.513 337.166,395.013C337.452,396.585 336.702,397.55 334.916,397.907C325.412,399.979 312.98,402.98 297.617,406.91C293.116,408.053 287.685,409.375 281.326,410.876C268.464,414.02 259.854,416.235 255.496,417.521L252.816,418.057C251.316,418.271 250.101,418.521 249.172,418.807C248.243,419.093 247.457,419.557 246.814,420.2C246.171,420.844 245.724,421.54 245.474,422.29C245.224,423.041 244.992,424.059 244.778,425.345C244.492,426.917 244.206,428.06 243.92,428.775C241.991,433.348 240.58,438.082 239.687,442.976C238.794,447.871 237.99,453.891 237.275,461.036L236.311,469.825C236.025,472.183 235.667,475.719 235.239,480.435L234.703,485.473C234.631,485.973 234.56,486.562 234.488,487.241C234.417,487.92 234.381,488.688 234.381,489.546C234.381,490.546 234.453,491.261 234.596,491.689C235.096,491.975 235.525,492.118 235.882,492.118C236.168,492.118 236.525,492.046 236.954,491.904L245.421,489.546C248.065,488.831 254.745,486.938 265.463,483.865C271.608,482.079 278.289,480.328 285.506,478.613C296.081,475.898 303.977,473.755 309.193,472.183C309.478,472.111 310.354,471.861 311.818,471.432C313.283,471.004 314.694,470.789 316.052,470.789C318.481,470.789 319.696,471.611 319.696,473.254C319.768,474.541 318.874,475.326 317.017,475.612C312.587,476.255 308.21,477.113 303.887,478.185C299.564,479.256 294.045,480.721 287.328,482.579L277.039,485.473C262.034,489.403 249.458,492.904 239.312,495.976C237.74,496.477 236.704,496.762 236.203,496.834C235.274,497.12 234.614,497.548 234.221,498.12C233.828,498.692 233.56,499.478 233.417,500.478C233.345,501.764 233.238,503.265 233.095,504.979C232.952,506.694 232.845,508.016 232.774,508.945C232.345,513.375 232.095,516.698 232.023,518.913C231.952,523.2 231.738,527.487 231.38,531.774C230.952,540.349 230.737,546.744 230.737,550.959C230.737,553.103 230.88,554.746 231.166,555.89C231.237,556.176 231.273,556.533 231.273,556.962C231.273,558.248 230.666,559.141 229.451,559.641Z" style="fill:rgb(107,153,107);fill-rule:nonzero;stroke:rgb(107,153,107);stroke-width:0.86px;"/>
                <path d="M264.713,533.382C263.07,534.097 261.462,534.454 259.89,534.454C256.96,534.454 254.46,533.311 252.387,531.024C250.315,528.738 249.315,525.344 249.386,520.842C250.601,514.34 252.405,508.82 254.799,504.283C257.193,499.746 261.069,496.119 266.428,493.404C267.5,492.832 268.679,492.547 269.965,492.547C271.251,492.547 272.359,492.922 273.287,493.672C274.216,494.422 274.895,495.476 275.324,496.834C275.467,497.548 275.538,498.049 275.538,498.334C275.538,499.049 275.288,500.049 274.788,501.335C273.287,504.908 271.34,507.998 268.947,510.606C266.553,513.214 263.606,515.555 260.104,517.627C259.39,518.055 258.568,518.413 257.639,518.698C256.782,518.984 256.174,519.252 255.817,519.502C255.46,519.752 255.281,520.235 255.281,520.949C255.281,525.665 256.889,528.023 260.104,528.023C261.176,528.023 262.355,527.809 263.641,527.38C266.214,526.594 269.304,524.629 272.912,521.485C276.521,518.341 279.54,515.34 281.969,512.482L282.505,511.732C283.72,510.231 284.756,509.481 285.613,509.481C286.113,509.481 286.578,509.695 287.006,510.124C287.65,510.767 287.971,511.446 287.971,512.161C287.971,512.875 287.578,513.84 286.792,515.054C284.434,518.27 281.022,521.753 276.556,525.504C272.091,529.256 268.143,531.882 264.713,533.382ZM257.318,513.447C262.391,510.66 266.392,506.694 269.322,501.55C269.393,501.335 269.59,500.996 269.911,500.532C270.233,500.067 270.394,499.621 270.394,499.192C270.394,498.906 270.215,498.584 269.858,498.227C269.572,497.941 269.179,497.798 268.679,497.798C268.107,497.798 267.5,498.031 266.857,498.495C266.214,498.96 265.428,499.656 264.499,500.585C262.569,502.8 260.998,504.89 259.783,506.855C258.568,508.82 257.746,511.017 257.318,513.447Z" style="fill:rgb(107,153,107);fill-rule:nonzero;stroke:rgb(107,153,107);stroke-width:0.86px;"/>
                <path d="M296.867,533.382C295.224,534.097 293.616,534.454 292.044,534.454C289.114,534.454 286.613,533.311 284.541,531.024C282.469,528.738 281.469,525.344 281.54,520.842C282.755,514.34 284.559,508.82 286.953,504.283C289.347,499.746 293.223,496.119 298.582,493.404C299.654,492.832 300.833,492.547 302.119,492.547C303.405,492.547 304.512,492.922 305.441,493.672C306.37,494.422 307.049,495.476 307.478,496.834C307.621,497.548 307.692,498.049 307.692,498.334C307.692,499.049 307.442,500.049 306.942,501.335C305.441,504.908 303.494,507.998 301.101,510.606C298.707,513.214 295.759,515.555 292.258,517.627C291.544,518.055 290.722,518.413 289.793,518.698C288.936,518.984 288.328,519.252 287.971,519.502C287.614,519.752 287.435,520.235 287.435,520.949C287.435,525.665 289.043,528.023 292.258,528.023C293.33,528.023 294.509,527.809 295.795,527.38C298.367,526.594 301.458,524.629 305.066,521.485C308.675,518.341 311.693,515.34 314.123,512.482L314.659,511.732C315.873,510.231 316.91,509.481 317.767,509.481C318.267,509.481 318.732,509.695 319.16,510.124C319.803,510.767 320.125,511.446 320.125,512.161C320.125,512.875 319.732,513.84 318.946,515.054C316.588,518.27 313.176,521.753 308.71,525.504C304.244,529.256 300.297,531.882 296.867,533.382ZM289.472,513.447C294.545,510.66 298.546,506.694 301.476,501.55C301.547,501.335 301.744,500.996 302.065,500.532C302.387,500.067 302.547,499.621 302.547,499.192C302.547,498.906 302.369,498.584 302.012,498.227C301.726,497.941 301.333,497.798 300.833,497.798C300.261,497.798 299.654,498.031 299.011,498.495C298.367,498.96 297.581,499.656 296.653,500.585C294.723,502.8 293.151,504.89 291.937,506.855C290.722,508.82 289.9,511.017 289.472,513.447Z" style="fill:rgb(107,153,107);fill-rule:nonzero;stroke:rgb(107,153,107);stroke-width:0.86px;"/>
                <path d="M332.343,574.325C331.414,574.325 330.825,574.039 330.575,573.467C330.325,572.896 330.164,572.074 330.093,571.002C330.021,569.216 330.128,567.447 330.414,565.697C330.7,563.946 331.164,561.856 331.807,559.427L332.665,555.568L334.058,548.816C334.487,546.672 335.38,542.403 336.738,536.008C338.095,529.613 339.417,523.807 340.703,518.591C345.991,497.441 350.564,480.828 354.422,468.753C354.994,467.038 355.708,464.537 356.566,461.25C355.851,461.608 355.298,462.036 354.905,462.536C354.512,463.037 354.19,463.537 353.94,464.037C353.69,464.537 353.493,464.894 353.351,465.109L351.1,469.396C348.527,474.612 345.919,479.578 343.276,484.294C342.847,485.08 342.561,486.33 342.418,488.045C342.275,489.26 342.115,490.171 341.936,490.778C341.757,491.386 341.346,491.904 340.703,492.332C339.632,493.047 338.792,493.851 338.185,494.744C337.577,495.637 337.059,496.53 336.631,497.423C336.202,498.316 335.916,498.942 335.773,499.299C331.629,508.016 328.378,514.483 326.02,518.698C324.662,521.128 323.054,523.736 321.197,526.523C320.411,527.523 319.66,528.309 318.946,528.881C317.874,529.524 316.874,529.845 315.945,529.845C314.945,529.845 314.141,529.416 313.533,528.559C312.926,527.702 312.622,526.523 312.622,525.022C312.622,521.735 313.408,517.877 314.98,513.447C318.053,504.801 322.233,497.513 327.52,491.582C328.878,490.01 330.182,488.724 331.432,487.724C332.683,486.723 334.094,486.044 335.666,485.687C336.452,485.473 337.041,485.116 337.434,484.615C337.827,484.115 338.238,483.401 338.667,482.472C342.454,475.469 345.848,469.074 348.849,463.287C351.135,458.857 352.493,456.213 352.922,455.355C357.28,446.924 360.996,439.922 364.068,434.348C365.498,431.776 367.141,428.203 368.999,423.63C369.356,422.916 369.82,421.844 370.392,420.415C371.321,418.271 372.143,416.806 372.857,416.02C373.643,415.092 374.429,414.627 375.215,414.627C375.715,414.627 376.144,414.77 376.501,415.056C377.287,415.627 377.68,416.271 377.68,416.985C377.68,417.414 377.573,417.843 377.359,418.271C377.144,418.771 376.859,419.504 376.501,420.468C376.144,421.433 375.787,422.273 375.43,422.987C373.072,427.632 371.071,432.312 369.427,437.028C367.784,441.744 365.748,448.139 363.318,456.213C363.104,456.927 362.907,457.588 362.729,458.196C362.55,458.803 362.389,459.357 362.246,459.857C360.96,464.073 359.781,468.092 358.71,471.915C357.638,475.737 356.602,479.292 355.601,482.579C354.244,487.438 353.029,491.689 351.957,495.333C349.885,502.407 347.634,511.375 345.205,522.235C342.775,533.168 340.418,544.1 338.131,555.032L334.594,571.431C334.38,572.574 334.148,573.36 333.897,573.789C333.647,574.217 333.129,574.396 332.343,574.325ZM318.088,521.914C322.804,514.34 327.413,505.194 331.915,494.476C324.841,501.192 320.232,510.338 318.088,521.914Z" style="fill:rgb(107,153,107);fill-rule:nonzero;stroke:rgb(107,153,107);stroke-width:0.86px;"/>
                <path d="M351.957,535.954C351.028,535.597 350.564,534.847 350.564,533.704C350.564,533.132 350.6,532.703 350.671,532.417C351.028,530.488 351.636,527.523 352.493,523.522C353.922,517.234 354.887,512.518 355.387,509.374C356.602,502.229 358.156,495.137 360.049,488.099C361.943,481.061 364.39,472.647 367.391,462.858L370.392,452.783C372.321,446.281 374.036,440.779 375.537,436.277C377.037,431.776 378.681,427.346 380.467,422.987C380.61,422.63 380.824,422.04 381.11,421.219C381.396,420.397 381.789,419.736 382.289,419.236C382.789,418.736 383.254,418.396 383.682,418.218C384.111,418.039 384.576,418.057 385.076,418.271C386.147,418.629 386.54,419.522 386.255,420.951C386.183,421.237 385.897,422.13 385.397,423.63C377.18,445.495 370.356,467.538 364.926,489.76C362.997,497.477 361.603,504.086 360.746,509.588C361.746,508.159 363.354,505.444 365.569,501.443C368.57,496.441 370.285,493.583 370.714,492.868C372.643,490.01 374.786,487.223 377.144,484.508C377.93,483.651 378.734,482.99 379.556,482.525C380.378,482.061 381.324,481.829 382.396,481.829C383.897,481.829 385.004,482.508 385.719,483.865C386.719,485.723 387.219,487.688 387.219,489.76C387.219,490.546 387.184,491.118 387.112,491.475C386.469,496.548 385.058,501.318 382.878,505.783C380.699,510.249 377.823,514.661 374.251,519.02C372.679,520.878 370.964,522.575 369.106,524.111C367.248,525.647 364.962,527.38 362.246,529.309L357.959,532.525C357.673,532.739 357.209,533.061 356.566,533.489C355.923,533.918 355.458,534.382 355.173,534.883C354.601,535.811 353.886,536.276 353.029,536.276C352.743,536.276 352.386,536.169 351.957,535.954ZM360.317,524.593C363.747,523.021 367.177,520.235 370.606,516.233C374.036,512.232 376.841,507.855 379.02,503.104C381.199,498.352 382.289,494.19 382.289,490.617C382.289,489.331 382.146,488.259 381.86,487.402C380.145,488.617 377.555,491.886 374.09,497.209C370.624,502.532 367.48,507.981 364.658,513.554C361.836,519.127 360.389,522.807 360.317,524.593Z" style="fill:rgb(107,153,107);fill-rule:nonzero;stroke:rgb(107,153,107);stroke-width:0.86px;"/>
                <path d="M383.682,532.525C382.468,531.667 381.86,530.452 381.86,528.881L381.967,527.594C382.325,524.165 383.164,520.842 384.486,517.627C385.808,514.411 387.577,511.089 389.792,507.659C391.864,504.444 393.668,501.836 395.204,499.835C396.74,497.834 398.545,496.084 400.617,494.583L402.867,492.975C404.297,492.046 405.69,491.582 407.047,491.582C408.334,491.582 409.37,492.064 410.156,493.029C410.942,493.994 411.406,495.369 411.549,497.155C411.62,497.87 411.656,498.942 411.656,500.371L411.656,503.586C411.513,504.872 411.192,505.73 410.692,506.158C409.263,507.588 408.28,509.124 407.744,510.767C407.208,512.411 406.726,514.661 406.297,517.519C406.083,519.735 405.726,521.628 405.225,523.2C407.369,522.271 409.995,520.431 413.103,517.68C416.211,514.929 418.301,512.589 419.373,510.66C419.516,510.374 419.73,509.928 420.016,509.32C420.302,508.713 420.641,508.231 421.034,507.873C421.427,507.516 421.874,507.337 422.374,507.337C424.018,507.337 424.839,508.052 424.839,509.481C424.839,510.41 424.482,511.553 423.767,512.911C422.553,515.126 420.32,517.734 417.069,520.735C413.818,523.736 410.656,526.38 407.583,528.666C406.44,529.595 405.297,530.059 404.154,530.059C403.368,530.059 402.653,529.881 402.01,529.524C400.724,528.809 400.081,527.63 400.081,525.987C400.081,524.701 400.295,522.628 400.724,519.77C400.867,519.342 401.01,518.484 401.153,517.198C400.581,517.198 400.152,517.323 399.866,517.573C399.581,517.823 399.348,518.109 399.17,518.431C398.991,518.752 398.866,518.984 398.795,519.127C398.509,519.556 397.616,520.878 396.115,523.093C394.615,525.308 393.043,527.309 391.399,529.095C390.47,530.167 389.577,531.024 388.72,531.667C387.505,532.596 386.433,533.061 385.504,533.061C384.79,533.061 384.183,532.882 383.682,532.525ZM386.576,526.523C388.148,525.022 390.453,522.092 393.489,517.734C396.526,513.375 399.313,509.034 401.849,504.712C404.386,500.389 405.833,497.441 406.19,495.869C401.26,499.728 397.276,504.14 394.24,509.106C391.203,514.072 388.648,519.877 386.576,526.523Z" style="fill:rgb(107,153,107);fill-rule:nonzero;stroke:rgb(107,153,107);stroke-width:0.86px;"/>
                <path d="M426.983,527.273C425.84,527.844 424.661,528.13 423.446,528.13C421.803,528.13 420.499,527.487 419.534,526.201C418.569,524.915 418.087,523.129 418.087,520.842C418.087,516.912 418.766,513.072 420.123,509.32C421.481,505.569 423.41,501.693 425.911,497.691C426.697,496.619 427.805,495.691 429.234,494.905C430.091,494.547 430.841,494.369 431.484,494.369C432.913,494.369 434.146,494.869 435.182,495.869C436.218,496.87 436.736,498.12 436.736,499.621C436.736,500.478 436.504,501.139 436.04,501.603C435.575,502.068 435.021,502.3 434.378,502.3C433.807,502.3 433.271,502.157 432.771,501.871C432.485,501.728 432.181,501.46 431.86,501.067C431.538,500.674 431.234,500.335 430.949,500.049C426.304,506.194 423.66,512.875 423.017,520.092L423.017,520.735C423.017,521.878 423.339,522.45 423.982,522.45C424.482,522.45 425.089,522.2 425.804,521.699C427.376,520.771 428.841,519.717 430.198,518.538C431.556,517.359 433.199,515.84 435.129,513.983L438.022,511.196L449.491,500.478C449.633,500.335 449.991,499.996 450.562,499.46C451.134,498.924 451.706,498.656 452.277,498.656C452.777,498.656 453.278,498.942 453.778,499.513C454.349,500.228 454.635,500.871 454.635,501.443C454.635,502.371 454.099,503.336 453.027,504.336L445.418,511.41C443.774,513.054 441.238,515.447 437.808,518.591C436.236,520.02 433.807,522.092 430.52,524.808C429.734,525.594 428.555,526.415 426.983,527.273Z" style="fill:rgb(107,153,107);fill-rule:nonzero;stroke:rgb(107,153,107);stroke-width:0.86px;"/>
                <path d="M442.31,536.062C440.809,536.062 440.059,535.311 440.059,533.811C440.059,532.739 440.345,531.596 440.916,530.381C441.917,528.166 442.72,526.022 443.328,523.95C443.935,521.878 444.775,518.841 445.846,514.84C446.347,512.625 446.811,510.731 447.24,509.159C449.884,499.513 452.295,491.082 454.474,483.865C456.654,476.648 459.03,469.61 461.602,462.751C464.603,454.819 467.318,447.906 469.747,442.012C472.177,436.117 474.821,430.418 477.679,424.916L481.216,418.378L483.466,414.413C484.11,413.341 484.824,412.805 485.61,412.805C485.896,412.805 486.217,412.912 486.575,413.127C487.361,413.484 487.754,414.056 487.754,414.842C487.754,415.199 487.539,415.806 487.111,416.664C483.681,422.523 480.537,428.632 477.679,434.991C474.821,441.351 471.748,448.675 468.461,456.963C463.745,468.967 459.244,482.722 454.957,498.227C454.242,500.871 453.706,503.032 453.349,504.712C452.992,506.391 452.777,508.159 452.706,510.017L458.279,503.479C461.709,499.335 464.138,496.441 465.567,494.797L467.39,492.761C468.247,491.904 468.997,491.475 469.64,491.475C470.069,491.475 470.533,491.653 471.034,492.011C471.677,492.511 471.998,493.083 471.998,493.726C471.998,494.226 471.748,494.869 471.248,495.655C470.533,496.727 469.747,497.834 468.89,498.977C468.033,500.121 467.175,501.085 466.318,501.871C464.031,503.943 461.923,506.48 459.994,509.481C461.423,510.053 462.924,510.463 464.496,510.714C466.068,510.964 467.032,511.124 467.39,511.196L469.64,511.517C472.856,512.018 477.429,512.625 483.359,513.339C484.574,513.482 485.485,513.697 486.092,513.983C486.7,514.268 487.075,514.876 487.218,515.805C487.289,516.376 487.003,516.859 486.36,517.252C485.717,517.645 484.896,517.841 483.895,517.841C483.395,517.841 483.002,517.805 482.716,517.734C480.858,517.448 479.233,517.234 477.84,517.091C476.446,516.948 475.321,516.841 474.463,516.769C467.747,516.055 462.709,515.34 459.351,514.626C458.637,514.483 458.172,514.411 457.958,514.411C456.6,514.411 455.493,515.054 454.635,516.341C452.349,519.627 450.491,522.468 449.062,524.861C447.633,527.255 446.454,529.774 445.525,532.417C445.096,533.632 444.685,534.543 444.292,535.151C443.899,535.758 443.238,536.062 442.31,536.062Z" style="fill:rgb(107,153,107);fill-rule:nonzero;stroke:rgb(107,153,107);stroke-width:0.86px;"/>
            </g>
        </g>
    </g>
</svg>
