<svg viewBox="0 0 371 150" xmlns="http://www.w3.org/2000/svg" fill-rule="evenodd" clip-rule="evenodd" stroke-linejoin="round" stroke-miterlimit="2">
  <g fill="#6b996b" fill-rule="nonzero" stroke="#6b996b" stroke-width=".86">
    <path d="M19.29502 136.75335c-.64322.17513-1.22834.02946-1.75453-.43863-.5262-.46727-.87727-1.13995-1.0524-2.01722-.17512-.70132-.26268-1.81263-.26268-3.33311 0-10.46662.49674-21.31295 1.49102-32.53981.29215-3.33312.43782-6.34462.43782-9.03452 0-.5843-.07283-1.0082-.2185-1.2717-.14648-.26351-.42472-.39445-.8339-.39445-.29214 0-.70131.08756-1.2275.26269-.93538.23405-1.63752.43863-2.1056.61376-2.39694.52701-4.29713 1.19887-5.7006 2.01803-.76023.46728-1.6956.70132-2.80691.70132-.29215 0-.8478-.0581-1.66615-.17512-.70214-.11702-1.14077-.5262-1.3159-1.22834l-.08756-.43863c0-.29215.08756-.5843.26269-.87726.17594-.29215.40999-.46728.70214-.5262.81834-.40917 2.10478-.9059 3.8593-1.49102 1.87074-.5843 5.14575-1.51967 9.8234-2.8061.70133-.23405 1.2128-.55566 1.5344-.96483.32161-.41.51229-.99429.57039-1.75453.5262-9.06316 1.6956-19.70572 3.50824-31.92605.93619-6.31516 1.81263-11.02228 2.6318-14.12135.5843-2.33883 1.1694-5.11629 1.7537-8.33238l.5262-2.45585c-3.50824.81835-7.54268 2.19235-12.1033 4.122l-4.12282 1.57859c-.40918.17594-.70132.38053-.87727.61457-.17512.23323-.17512.5843 0 1.0524l.17595.78888c0 .87726-.58512 1.40346-1.75453 1.5794-1.34454.23323-3.36176.46728-6.05166.70132H2.2792c-.87726 0-1.46156-.37971-1.75453-1.13995-.11702-.23405-.17512-.55566-.17512-.96483 0-.76024.29215-1.34536.87726-1.75453 1.16942-.81834 2.45585-1.60804 3.85931-2.36829 2.92313-1.57858 5.9199-2.95258 8.99033-4.122 3.0696-1.1694 7.08931-2.57287 12.05994-4.21037 3.62526-1.22752 7.27998-2.3241 10.96335-3.28893 3.68418-.96483 8.30374-2.11951 13.85866-3.46487l9.12126-2.2799c4.44442-1.16942 9.51652-2.42721 15.21792-3.77175 5.7014-1.34454 9.75057-2.30937 12.1475-2.89448l9.73584-2.3683L103.75958.54c.5843-.11703.96482-.17513 1.13995-.17513 1.52048-.11702 2.36829.43863 2.54341 1.66615.23405 1.28644-.3797 2.07614-1.84209 2.36829-7.77672 1.6956-17.9512 4.15146-30.5226 7.36755-3.68418.93536-8.12779 2.01721-13.33164 3.24555-10.52554 2.57287-17.57148 4.3855-21.13864 5.4379l-2.19234.43863c-1.22834.17512-2.2218.3797-2.98205.61376-.76024.23404-1.40346.61375-1.92965 1.13995-.5262.52701-.892 1.09658-1.09658 1.71034-.2046.61457-.39445 1.44765-.5704 2.50004-.23322 1.28644-.46727 2.2218-.70131 2.80692-1.57859 3.74229-2.73327 7.61633-3.46487 11.6213-.73078 4.0058-1.38873 8.93223-1.97303 14.7793l-.7897 7.19242c-.23405 1.92965-.5262 4.82332-.87726 8.68263l-.43782 4.12282c-.05892.40917-.11702.89117-.17594 1.44683-.0581.55565-.08756 1.18414-.08756 1.88628 0 .81835.05892 1.40346.17512 1.75371.41.23405.76024.35107 1.0532.35107.23324 0 .5262-.05892.87646-.17512l6.92973-1.92966c2.16289-.58511 7.63024-2.13424 16.40125-4.64901 5.02873-1.46156 10.49608-2.89448 16.40207-4.29794 8.65399-2.2218 15.11482-3.97552 19.3833-5.26196.23404-.05892.9501-.2635 2.14897-.61457 1.19887-.35025 2.35356-.5262 3.46487-.5262 1.98776 0 2.98204.67268 2.98204 2.01722.0581 1.05321-.67268 1.69561-2.19316 1.92966-3.62526.5262-7.20634 1.22833-10.74404 2.1056-3.5377.87644-8.05496 2.07532-13.55096 3.5958l-8.42075 2.36829c-12.27926 3.21609-22.56993 6.08111-30.87367 8.59506-1.28644.41-2.13424.64322-2.54341.70214-.76024.23405-1.30117.5843-1.62278 1.0524-.3216.46809-.54092 1.1113-.65795 1.92965-.0581 1.05239-.14566 2.28072-.26269 3.68336-.11702 1.40346-.20458 2.48532-.2635 3.24556-.35025 3.62526-.55484 6.34462-.61376 8.15725-.0581 3.50824-.23405 7.01648-.5262 10.52472-.35106 7.0173-.52619 12.25061-.52619 15.69993 0 1.75453.11702 3.09907.35107 4.03526.0581.23404.08756.5262.08756.87726 0 1.0524-.49755 1.78317-1.49102 2.19234z" stroke-width=".7037724"/>
    <path d="M34.46875 114.56314c-.99428-.70214-1.49102-1.69643-1.49102-2.98205l.08756-1.0532c.29215-2.8061.97956-5.52546 2.06141-8.15644 1.08185-2.6318 2.52869-5.35033 4.34132-8.15725 1.6956-2.63098 3.1719-4.76522 4.4297-6.40273 1.25697-1.6375 2.73326-3.0696 4.42887-4.29794l1.8421-1.3159c1.1694-.76024 2.30936-1.13995 3.42067-1.13995 1.0524 0 1.9002.39444 2.54341 1.18414.64322.7897 1.02375 1.91493 1.14078 3.3765.0581.5851.08756 1.46237.08756 2.63179v2.63097c-.11702 1.0524-.38053 1.75453-.7897 2.10478-1.16942 1.17023-1.97303 2.42721-2.41166 3.77175-.43864 1.34536-.8339 3.18663-1.18415 5.52546-.17594 1.81345-.46809 3.36257-.87726 4.64901 1.75453-.76024 3.90268-2.266 6.44691-4.51726 2.54342-2.25126 4.25375-4.16619 5.13102-5.74477.11702-.23405.29215-.59903.5262-1.09658.23404-.49674.51146-.89118.83307-1.18415.3216-.29215.68659-.43863 1.09658-.43863 1.34454 0 2.01722.58512 2.01722 1.75453 0 .76024-.29215 1.6956-.87727 2.80692-.99429 1.81263-2.82165 3.94687-5.48208 6.40272-2.66044 2.45585-5.24804 4.61955-7.762 6.49029-.93536.76024-1.87155 1.13995-2.80692 1.13995-.64321 0-1.22751-.14566-1.7537-.43781-1.05322-.58512-1.57941-1.54995-1.57941-2.89448 0-1.0524.17594-2.74882.5262-5.08765.11702-.35025.23404-1.05239.35106-2.10478-.46809 0-.81834.1023-1.05239.30688-.23404.20459-.4239.43863-.57038.70214-.14567.26269-.24796.45254-.30688.56957-.23405.35107-.96483 1.43292-2.19235 3.24555-1.22833 1.81263-2.51477 3.45014-3.8593 4.9117-.76025.87726-1.49103 1.57858-2.19317 2.10478-.99347.76024-1.87073 1.14077-2.63097 1.14077-.58512 0-1.08185-.14648-1.49103-.43863zm2.3683-4.9117c1.28643-1.22834 3.1719-3.62608 5.6572-7.19243 2.48531-3.56716 4.76522-7.11959 6.84136-10.65647 2.07532-3.5377 3.25946-5.95018 3.55243-7.23662-4.03525 3.15799-7.29472 6.76852-9.78003 10.83242-2.4853 4.0639-4.57536 8.81438-6.27097 14.2531z" stroke-width=".7037724"/>
    <path d="M61.13204 115.08933c-.87645-.46809-1.31508-1.16941-1.31508-2.1056 0-.46727.08756-.96482.26269-1.49102l1.05239-4.29712c.17594-.76024.71687-2.96814 1.62277-6.62286.90673-3.6539 1.88629-7.05985 2.93868-10.21784l.17512-.7897c.58512-1.81264 1.49103-2.71854 2.71936-2.71854.29215 0 .5262.02946.70132.08756.87727.23404 1.3159.8478 1.3159 1.8421 0 .52619-.14649 1.31589-.43863 2.36828l-2.10479 6.7538.5262.52619 4.20956-4.82414c1.0524-1.28644 2.13424-1.92966 3.24555-1.92966 1.87074 0 3.2161 1.25698 4.03444 3.77093.11702.35107.20459.97956.2635 1.88629.0581.9059.29216 1.62277.70133 2.14897h.2635c.46728 0 .8478-.18986 1.13996-.57039.29215-.37971.49673-.65795.61376-.83307 1.52048-1.6375 3.91823-3.91742 7.19242-6.84136l2.98205-2.71936c.87726-.76024 1.57858-1.28643 2.10478-1.57858.70214-.4681 1.46238-.70132 2.28072-.70132 1.52048 0 2.63098.93536 3.33312 2.8061.35107.87726.54092 1.87155.57038 2.98204.02864 1.11132.04337 1.8421.04337 2.19317v2.28072c0 .99347.11703 1.84128.35107 2.54341.17513.17513.35107.2627.5262.2627s.40917-.14567.70132-.43864c.58512-.70132 1.14077-1.05239 1.66697-1.05239.35107 0 .67268.11702.96482.35107.5843.40917.87727.96483.87727 1.66615 0 .23404-.11702.70214-.35107 1.40346-.29215.81916-.80443 1.46238-1.53521 1.92965-.73078.4681-1.50576.70214-2.3241.70214-1.11131 0-2.13424-.40917-3.0696-1.22833-1.28645-1.22752-1.90102-2.6899-1.8421-4.3855 0-1.5205-.02946-2.66044-.08756-3.42069 0-.40917-.05892-1.49102-.17595-3.24473-.93536.1162-1.73898.4239-2.41166.92064-.67268.49673-1.50575 1.24224-2.50004 2.23653-2.39693 2.39775-4.99926 5.14575-7.80618 8.24482-1.1105 1.22751-2.19235 2.07614-3.24474 2.54341-.70214.29215-1.2578.43863-1.66696.43863-1.16942 0-2.04668-.67268-2.63098-2.01721-.35107-.81835-.58511-2.07614-.70214-3.77175 0-.87727-.08756-1.69561-.26269-2.45585-.35107-.11703-.55565-.17513-.61375-.17513-.40918 0-.70214.17513-.87727.5262-.17512.35107-.29215.55565-.35107.61375-2.33883 3.04097-4.23902 5.61384-5.70058 7.71863-1.46238 2.10478-2.74882 4.35604-3.85931 6.75379-.70214 1.40346-1.54995 2.10478-2.54423 2.10478-.40918 0-.73079-.0581-.96483-.17513zM158.66555 136.75335c-.64322.17513-1.22752.02946-1.75453-.43863-.5262-.46727-.87645-1.13995-1.0524-2.01722-.17512-.70132-.26268-1.81263-.26268-3.33311 0-10.46662.49674-21.31295 1.49102-32.53981.29215-3.33312.43864-6.34462.43864-9.03452 0-.5843-.07366-1.0082-.21932-1.2717-.14648-.26351-.4239-.39445-.83307-.39445-.29297 0-.70214.08756-1.22834.26269-.93537.23405-1.6375.43863-2.10478.61376-2.39775.52701-4.29794 1.19887-5.7014 2.01803-.76024.46728-1.69561.70132-2.80692.70132-.29215 0-.8478-.0581-1.66615-.17512-.70214-.11702-1.13995-.5262-1.3159-1.22834l-.08756-.43863c0-.29215.08756-.5843.2635-.87726.17513-.29215.40918-.46728.70133-.5262.81834-.40917 2.10478-.9059 3.8593-1.49102 1.87074-.5843 5.14575-1.51967 9.8234-2.8061.70133-.23405 1.21361-.55566 1.53522-.96483.32161-.41.51147-.99429.56957-1.75453.5262-9.06316 1.6956-19.70572 3.50824-31.92605.93619-6.31516 1.81345-11.02228 2.6318-14.12135.5843-2.33883 1.1694-5.11629 1.7537-8.33238l.52702-2.45585c-3.50906.81835-7.5435 2.19235-12.10413 4.122l-4.12281 1.57859c-.40918.17594-.70132.38053-.87645.61457-.17594.23323-.17594.5843 0 1.0524l.17513.78888c0 .87726-.58512 1.40346-1.75453 1.5794-1.34454.23323-3.36176.46728-6.05166.70132h-.35107c-.87726 0-1.46156-.37971-1.7537-1.13995-.11703-.23405-.17595-.55566-.17595-.96483 0-.76024.29296-1.34536.87726-1.75453 1.16942-.81834 2.45585-1.60804 3.85931-2.36829 2.92395-1.57858 5.92072-2.95258 8.99033-4.122 3.0696-1.1694 7.09013-2.57287 12.05993-4.21037 3.62527-1.22752 7.28-2.3241 10.96336-3.28893 3.68418-.96483 8.30374-2.11951 13.85866-3.46487l9.12208-2.2799c4.4436-1.16942 9.5157-2.42721 15.2171-3.77175 5.7014-1.34454 9.75057-2.30937 12.14832-2.89448l9.73502-2.3683L243.1301.54c.5843-.11703.96482-.17513 1.13995-.17513 1.52048-.11702 2.36829.43863 2.54341 1.66615.23405 1.28644-.3797 2.07614-1.84127 2.36829-7.77754 1.6956-17.9512 4.15146-30.52341 7.36755-3.68337.93536-8.1278 2.01721-13.33165 3.24555-10.52554 2.57287-17.57148 4.3855-21.13782 5.4379l-2.19316.43863c-1.22752.17512-2.2218.3797-2.98205.61376-.76024.23404-1.40346.61375-1.92965 1.13995-.5262.52701-.892 1.09658-1.09658 1.71034-.2046.61457-.39445 1.44765-.56957 2.50004-.23405 1.28644-.4681 2.2218-.70214 2.80692-1.57859 3.74229-2.73327 7.61633-3.46405 11.6213-.73078 4.0058-1.38873 8.93223-1.97385 14.7793l-.78888 7.19242c-.23405 1.92965-.52701 4.82332-.87727 8.68263l-.43863 4.12282c-.05892.40917-.11702.89117-.17594 1.44683-.0581.55565-.08756 1.18414-.08756 1.88628 0 .81835.05892 1.40346.17594 1.75371.40917.23405.76024.35107 1.05239.35107.23405 0 .5262-.05892.87726-.17512l6.92892-1.92966c2.1637-.58511 7.63024-2.13424 16.40125-4.64901 5.02873-1.46156 10.49608-2.89448 16.40207-4.29794 8.65399-2.2218 15.11563-3.97552 19.38412-5.26196.23322-.05892.9501-.2635 2.14815-.61457 1.19887-.35025 2.35356-.5262 3.46487-.5262 1.98776 0 2.98204.67268 2.98204 2.01722.05892 1.05321-.67268 1.69561-2.19234 1.92966-3.62526.5262-7.20716 1.22833-10.74486 2.1056-3.5377.87644-8.05414 2.07532-13.55096 3.5958l-8.41994 2.36829c-12.27925 3.21609-22.57074 6.08111-30.87366 8.59506-1.28644.41-2.13424.64322-2.54423.70214-.76024.23405-1.30035.5843-1.62196 1.0524-.3216.46809-.54093 1.1113-.65795 1.92965-.05892 1.05239-.14648 2.28072-.2635 3.68336-.11703 1.40346-.2046 2.48532-.2627 3.24556-.35106 3.62526-.55565 6.34462-.61457 8.15725a157.84443 157.84443 0 01-.5262 10.52472c-.35025 7.0173-.52619 12.25061-.52619 15.69993 0 1.75453.11702 3.09907.35107 4.03526.0581.23404.08756.5262.08756.87726 0 1.0524-.49673 1.78317-1.49102 2.19234z" stroke-width=".7037724"/>
    <path d="M187.522 115.26446c-1.34454.58512-2.66044.87726-3.94688.87726-2.39775 0-4.4436-.93536-6.14003-2.80692-1.69561-1.87073-2.51396-4.64819-2.45585-8.33237.99428-5.32088 2.47058-9.83814 4.4297-13.55096 1.9591-3.71283 5.13101-6.68096 9.51652-8.90277.87726-.46809 1.84209-.70132 2.89448-.70132 1.05239 0 1.95911.30688 2.71854.92064.76024.61376 1.3159 1.4763 1.66696 2.5876.11703.5843.17513.9943.17513 1.22752 0 .58511-.20459 1.40346-.61376 2.45585-1.22833 2.92394-2.82165 5.45263-4.77995 7.58687-1.95911 2.13424-4.37077 4.04998-7.23661 5.74559-.5843.35025-1.25698.64322-2.01722.87645-.70132.23404-1.19887.45336-1.49102.65794-.29215.2046-.43864.59985-.43864 1.18415 0 3.8593 1.3159 5.78896 3.94688 5.78896.87726 0 1.84209-.17512 2.89448-.5262 2.1056-.64321 4.63428-2.25126 7.58687-4.82413 2.9534-2.57287 5.42398-5.02872 7.41174-7.36755l.43863-.61376c.99429-1.22833 1.8421-1.8421 2.54341-1.8421.40918 0 .7897.17514 1.13996.5262.52701.5262.7897 1.08186.7897 1.66697 0 .5843-.3216 1.374-.96483 2.36747-1.92965 2.6318-4.72184 5.48209-8.37657 8.5517-3.6539 3.07042-6.88472 5.2194-9.69164 6.4469zm-6.05166-16.31369c4.15146-2.28072 7.42565-5.52628 9.8234-9.73584.0581-.17594.21932-.45336.482-.83307.26351-.38053.39527-.74551.39527-1.09658 0-.23405-.14649-.49756-.43863-.7897-.23405-.23405-.55566-.35107-.96483-.35107-.4681 0-.96483.19067-1.49103.57038-.52619.38053-1.1694.9501-1.92965 1.71034-1.5794 1.81263-2.86502 3.52297-3.85931 5.13102-.99429 1.60804-1.66697 3.40595-2.01722 5.39452z" stroke-width=".7037724"/>
    <path d="M213.83503 115.26446c-1.34454.58512-2.66044.87726-3.94687.87726-2.39775 0-4.44443-.93536-6.14004-2.80692-1.6956-1.87073-2.51395-4.64819-2.45585-8.33237.99429-5.32088 2.47058-9.83814 4.4297-13.55096 1.95911-3.71283 5.13101-6.68096 9.51652-8.90277.87726-.46809 1.8421-.70132 2.89448-.70132 1.0524 0 1.9583.30688 2.71854.92064.76024.61376 1.3159 1.4763 1.66697 2.5876.11702.5843.17512.9943.17512 1.22752 0 .58511-.20458 1.40346-.61376 2.45585-1.22833 2.92394-2.82165 5.45263-4.77994 7.58687-1.95912 2.13424-4.3716 4.04998-7.23662 5.74559-.5843.35025-1.25698.64322-2.01722.87645-.70132.23404-1.19887.45336-1.49102.65794-.29215.2046-.43863.59985-.43863 1.18415 0 3.8593 1.3159 5.78896 3.94687 5.78896.87727 0 1.8421-.17512 2.89448-.5262 2.10478-.64321 4.63429-2.25126 7.58687-4.82413 2.9534-2.57287 5.42317-5.02872 7.41174-7.36755l.43863-.61376c.99347-1.22833 1.8421-1.8421 2.54342-1.8421.40917 0 .7897.17514 1.13995.5262.5262.5262.7897 1.08186.7897 1.66697 0 .5843-.3216 1.374-.96482 2.36747-1.92966 2.6318-4.72185 5.48209-8.37657 8.5517-3.65473 3.07042-6.88473 5.2194-9.69165 6.4469zm-6.05166-16.31369c4.15146-2.28072 7.42566-5.52628 9.8234-9.73584.0581-.17594.21932-.45336.48201-.83307.2635-.38053.39444-.74551.39444-1.09658 0-.23405-.14566-.49756-.43781-.7897-.23405-.23405-.55566-.35107-.96483-.35107-.4681 0-.96483.19067-1.49102.57038-.52702.38053-1.17023.9501-1.92966 1.71034-1.5794 1.81263-2.86584 3.52297-3.8593 5.13102-.9943 1.60804-1.66697 3.40595-2.01723 5.39452z" stroke-width=".7037724"/>
    <path d="M242.8666 148.76992c-.76024 0-1.24225-.23405-1.44683-.70214-.20459-.46728-.33634-1.13995-.39444-2.01722-.05892-1.46156.02864-2.90921.26268-4.34131.23405-1.43292.61376-3.14326 1.13996-5.13102l.70214-3.158 1.13995-5.52545c.35107-1.75453 1.08185-5.24804 2.19316-10.48135 1.1105-5.2333 2.19235-9.98461 3.24474-14.2531 4.3274-17.30797 8.06969-30.90312 11.22686-40.78462.46809-1.40346 1.05239-3.45014 1.75453-6.14004-.58512.29297-1.03766.64322-1.35927 1.05239-.32161.41-.58512.81916-.7897 1.22833-.2046.40918-.3658.70133-.482.87727l-1.8421 3.50824c-2.1056 4.26848-4.23984 8.33238-6.40273 12.19169-.35106.64322-.58511 1.66615-.70213 3.0696-.11703.9943-.24796 1.7398-.39445 2.23654-.14648.49755-.48282.92146-1.00901 1.2717-.87645.58512-1.56386 1.24307-2.0606 1.97385-.49755.73079-.92145 1.46157-1.2717 2.19235-.35107.73078-.58512 1.24306-.70214 1.53521-3.39122 7.1335-6.05165 12.42574-7.9813 15.87506-1.11132 1.98857-2.42722 4.12281-3.94688 6.40354-.64322.81834-1.2578 1.46156-1.8421 1.92965-.87726.5262-1.6956.78889-2.45584.78889-.81835 0-1.4763-.35107-1.97385-1.0524-.49674-.70131-.74551-1.66614-.74551-2.89448 0-2.6899.64322-5.84706 1.92965-9.47233 2.51477-7.0754 5.93545-13.0395 10.26204-17.89309 1.1113-1.28644 2.17843-2.33883 3.20136-3.15717 1.02375-.81916 2.17843-1.37482 3.46487-1.66697.64322-.17512 1.12522-.46727 1.44683-.87726.3216-.40917.65795-.99347 1.00902-1.75371 3.09907-5.73087 5.87653-10.96418 8.33238-15.69993 1.87073-3.62527 2.98204-5.78897 3.33311-6.4911 3.56634-6.89947 6.60731-12.62951 9.12126-17.19096 1.17024-2.10478 2.51477-5.02872 4.03526-8.77101.29215-.5843.67186-1.46156 1.13995-2.63098.76024-1.75453 1.43292-2.9534 2.01722-3.59662.64322-.75942 1.28644-1.13995 1.92965-1.13995.40918 0 .76025.11702 1.0524.35107.64321.46727.96482.99429.96482 1.57858 0 .35107-.08756.70214-.26269 1.0524-.17594.40917-.40917 1.00901-.70214 1.7979-.29214.7897-.5843 1.4771-.87644 2.0614-1.92966 3.80121-3.56716 7.63106-4.91252 11.49037-1.34454 3.85931-3.01069 9.09262-4.99926 15.69993-.17513.5843-.33634 1.12522-.482 1.62278-.1465.49673-.27825.9501-.39527 1.35927-1.05239 3.45014-2.01722 6.73906-2.89366 9.86759-.87727 3.12771-1.72507 6.03692-2.54424 8.72682-1.11049 3.97633-2.10478 7.45511-2.98204 10.43716-1.69561 5.78896-3.5377 13.12787-5.52546 22.01509-1.98858 8.94695-3.91741 17.89309-5.78896 26.83923l-2.89449 13.42002c-.17512.93537-.36498 1.57859-.57038 1.92966-.20459.35025-.6285.49673-1.27171.43863zm-11.6655-42.89023c3.85932-6.19814 7.63106-13.68271 11.31525-22.45372-5.78897 5.496-9.56071 12.98057-11.31524 22.45372zM258.9176 117.36924c-.76024-.29215-1.13995-.9059-1.13995-1.84127 0-.4681.02946-.81917.08756-1.05321.29215-1.57859.7897-4.00498 1.49102-7.27917 1.16942-5.14575 1.95912-9.00506 2.36829-11.57793.99429-5.84707 2.266-11.65077 3.81512-17.41027 1.54994-5.7595 3.55243-12.64505 6.00828-20.65582l2.45585-8.24482c1.57859-5.32087 2.98205-9.8234 4.21038-13.50758 1.22752-3.68337 2.57287-7.30863 4.03444-10.8758.11702-.29215.29215-.77497.5262-1.44683.23404-.67268.55565-1.2136.96482-1.62277.40917-.40918.7897-.68741 1.13995-.83308.35107-.14648.7316-.13175 1.14077.04337.87645.29297 1.19806 1.02375.96483 2.19317-.05892.23404-.29297.96482-.70214 2.19234-6.72433 17.89309-12.30871 35.93185-16.75232 54.11709-1.57858 6.31516-2.71935 11.7236-3.42068 16.22612.81835-1.16941 2.13425-3.39122 3.94688-6.66541 2.45585-4.09336 3.8593-6.43218 4.21038-7.0173 1.57858-2.33883 3.3323-4.61955 5.26195-6.84136.64322-.70132 1.30117-1.24224 1.97385-1.62277.67267-.37971 1.44683-.56957 2.3241-.56957 1.22833 0 2.13423.55566 2.71935 1.66615.81834 1.52048 1.22752 3.12853 1.22752 4.82414 0 .64322-.02865 1.1113-.08757 1.40346-.5262 4.15146-1.68088 8.05496-3.46487 11.70886-1.78317 3.65473-4.13672 7.26526-7.05985 10.83242-1.28644 1.52049-2.6899 2.90922-4.21038 4.1662-1.52048 1.25697-3.39122 2.67516-5.61384 4.25374l-3.50824 2.6318c-.23405.17512-.61376.43863-1.13995.78888-.5262.35107-.90673.73078-1.13996 1.14077-.46809.75943-1.0532 1.13996-1.75453 1.13996-.23404 0-.5262-.08757-.87726-.26351zm6.84136-9.2972c2.80691-1.28644 5.61383-3.56635 8.41994-6.84136 2.80692-3.2742 5.10237-6.85609 6.88554-10.74404 1.78317-3.88877 2.67517-7.29472 2.67517-10.21866 0-1.0524-.11702-1.92966-.35107-2.63098-1.40346.99429-3.52297 3.66946-6.35853 8.0255-2.83638 4.35605-5.40926 8.8152-7.71862 13.37583-2.30937 4.56064-3.49351 7.57214-3.55243 9.0337zM284.87956 114.56314c-.99347-.70214-1.49102-1.69643-1.49102-2.98205l.08756-1.0532c.29297-2.8061.97956-5.52546 2.06141-8.15644 1.08185-2.6318 2.5295-5.35033 4.34213-8.15725 1.69561-2.63098 3.1719-4.76522 4.42888-6.40273 1.25698-1.6375 2.73409-3.0696 4.4297-4.29794l1.84127-1.3159c1.17023-.76024 2.31019-1.13995 3.42068-1.13995 1.0532 0 1.90101.39444 2.54423 1.18414.64322.7897 1.02293 1.91493 1.13995 3.3765.0581.5851.08757 1.46237.08757 2.63179v2.63097c-.11703 1.0524-.37971 1.75453-.78889 2.10478-1.16941 1.17023-1.97384 2.42721-2.41247 3.77175-.43864 1.34536-.83308 3.18663-1.18415 5.52546-.17512 1.81345-.46727 3.36257-.87726 4.64901 1.75453-.76024 3.9035-2.266 6.44691-4.51726 2.54341-2.25126 4.25375-4.16619 5.13102-5.74477.11702-.23405.29215-.59903.5262-1.09658.23404-.49674.51146-.89118.83307-1.18415.3216-.29215.6874-.43863 1.09658-.43863 1.34536 0 2.01722.58512 2.01722 1.75453 0 .76024-.29215 1.6956-.87727 2.80692-.99347 1.81263-2.82083 3.94687-5.48127 6.40272-2.66043 2.45585-5.24804 4.61955-7.7628 6.49029-.93537.76024-1.87074 1.13995-2.8061 1.13995-.64323 0-1.22834-.14566-1.75454-.43781-1.05239-.58512-1.57858-1.54995-1.57858-2.89448 0-1.0524.17512-2.74882.5262-5.08765.11701-.35025.23404-1.05239.35106-2.10478-.4681 0-.81916.1023-1.0532.30688-.23324.20459-.42391.43863-.56958.70214-.14648.26269-.24877.45254-.30687.56957-.23405.35107-.96483 1.43292-2.19317 3.24555-1.22751 1.81263-2.51395 3.45014-3.8593 4.9117-.76025.87726-1.49103 1.57858-2.19235 2.10478-.99429.76024-1.87155 1.14077-2.6318 1.14077-.5843 0-1.08103-.14648-1.49102-.43863zm2.36829-4.9117c1.28644-1.22834 3.17272-3.62608 5.65721-7.19243 2.48531-3.56716 4.76604-7.11959 6.84136-10.65647 2.07614-3.5377 3.26028-5.95018 3.55243-7.23662-4.03444 3.15799-7.29472 6.76852-9.77921 10.83242-2.48531 4.0639-4.57618 8.81438-6.27179 14.2531z" stroke-width=".7037724"/>
    <path d="M320.31468 110.2652c-.93537.46727-1.9002.70132-2.89449.70132-1.34454 0-2.41166-.5262-3.20136-1.57859-.7897-1.05239-1.18414-2.51395-1.18414-4.3855 0-3.2161.55565-6.35854 1.66615-9.42896 1.1113-3.06961 2.6899-6.24151 4.73657-9.51653.64322-.87726 1.54994-1.63668 2.71936-2.2799.70132-.29297 1.31508-.43864 1.84127-.43864 1.16942 0 2.17843.40918 3.02624 1.22752.8478.81916 1.2717 1.8421 1.2717 3.07043 0 .70132-.18985 1.24224-.56956 1.62196-.38053.38053-.8339.57038-1.36009.57038-.46727 0-.9059-.11702-1.31508-.35107-.23405-.11702-.48282-.33634-.74551-.65795-.2635-.3216-.51228-.59902-.74551-.83307-3.8012 5.02872-5.96491 10.49608-6.4911 16.40207v.5262c0 .93536.2635 1.40345.7897 1.40345.40917 0 .9059-.20458 1.49102-.61457 1.28644-.75943 2.4853-1.62196 3.5958-2.58679 1.11131-.96483 2.45585-2.2079 4.03526-3.72756l2.36747-2.28072 9.38558-8.77101c.1162-.11702.40917-.39444.87645-.83308.4681-.43863.93618-.65794 1.40346-.65794.40917 0 .81916.23404 1.22833.70132.46728.58511.70132 1.1113.70132 1.5794 0 .75942-.43863 1.54913-1.3159 2.36747l-6.22677 5.78897c-1.34536 1.34535-3.42068 3.30365-6.2276 5.87652-1.28644 1.16942-3.2742 2.86503-5.9641 5.08765-.64321.64322-1.60804 1.31508-2.89447 2.01722z" stroke-width=".7037724"/>
    <path d="M332.85743 117.45762c-1.22833 0-1.84209-.61458-1.84209-1.8421 0-.87726.23405-1.81262.70132-2.80691.81917-1.81263 1.4763-3.56716 1.97385-5.26277.49673-1.69561 1.18414-4.18092 2.06059-7.45512.40999-1.81263.7897-3.36257 1.14077-4.649 2.1637-7.89375 4.13673-14.79321 5.9199-20.6992 1.784-5.90599 3.72838-11.6655 5.83316-17.27852 2.45585-6.4911 4.67765-12.14831 6.6654-16.97163 1.98858-4.82414 4.15229-9.48788 6.49111-13.99041l2.89449-5.35033 1.84127-3.24474c.52701-.87726 1.11131-1.3159 1.75453-1.3159.23405 0 .49673.08757.7897.26351.64322.29215.96483.76024.96483 1.40346 0 .29215-.17594.78889-.5262 1.49102-2.80692 4.79468-5.37979 9.79395-7.71862 14.9978-2.33882 5.20466-4.8536 11.19821-7.5435 17.98065-3.8593 9.8234-7.54267 21.07972-11.0509 33.76815-.58512 2.1637-1.02376 3.93214-1.3159 5.30696-.29215 1.374-.4681 2.82083-.5262 4.34131l4.56063-5.35033c2.80692-3.39122 4.79468-5.7595 5.9641-7.10486l1.49183-1.66615c.70132-.70132 1.31508-1.0524 1.84128-1.0524.35107 0 .73078.14567 1.14077.43864.5262.40917.78888.87726.78888 1.40346 0 .40917-.20458.93537-.61376 1.57859-.58511.87726-1.22833 1.78317-1.92965 2.71853-.70132.93619-1.40346 1.72507-2.10478 2.3683-1.87156 1.6956-3.59662 3.77174-5.17521 6.22759 1.16941.4681 2.39775.80361 3.68418 1.00902 1.28644.20458 2.07533.33552 2.3683.39444l1.84127.26269c2.63179.40999 6.37408.90672 11.22686 1.49102.99429.11702 1.7398.29297 2.23653.52701.49755.23323.80443.73079.92146 1.49103.0581.46727-.17595.86253-.70214 1.18414-.5262.32161-1.19806.482-2.01722.482-.40917 0-.73078-.02946-.96483-.08756-1.52048-.23404-2.85029-.40917-3.99024-.5262-1.14077-.11702-2.06141-.20458-2.76355-.2635-5.496-.5843-9.61882-1.16941-12.36682-1.75371-.5843-.11702-.96482-.17594-1.13995-.17594-1.11131 0-2.01722.5262-2.71936 1.5794-1.87073 2.68908-3.39121 5.014-4.56063 6.97229-1.16941 1.95912-2.13424 4.02052-2.89448 6.1834-.35107.9943-.6874 1.7398-1.00902 2.23736-.3216.49673-.86253.74551-1.62196.74551z" stroke-width=".7037724"/>
  </g>
</svg>
