<?xml version="1.0" encoding="UTF-8" standalone="no"?>
<!DOCTYPE svg PUBLIC "-//W3C//DTD SVG 1.1//EN" "http://www.w3.org/Graphics/SVG/1.1/DTD/svg11.dtd">
<svg width="100%" height="100%" viewBox="0 0 506 255" version="1.1" xmlns="http://www.w3.org/2000/svg" xmlns:xlink="http://www.w3.org/1999/xlink" xml:space="preserve" xmlns:serif="http://www.serif.com/" style="fill-rule:evenodd;clip-rule:evenodd;stroke-linejoin:round;stroke-miterlimit:2;">
    <g transform="matrix(1,0,0,1,-237.293,-305.601)">
        <g>
            <g transform="matrix(1.37188,0,0,1.37188,-12.1131,-99.1671)">
                <path d="M319.163,479.632L319.163,468.7L299.871,468.7L299.871,405.464L288.939,405.464L288.939,479.632L319.163,479.632ZM320.021,480.49L288.081,480.49L288.081,404.606L300.728,404.606L300.728,467.842L320.021,467.842L320.021,480.49Z" style="fill:rgb(248,176,176);fill-rule:nonzero;stroke:rgb(248,176,176);stroke-width:0.73px;"/>
                <path d="M348.638,404.606L361.285,404.606L361.285,480.49L348.638,480.49L348.638,447.907L337.491,447.907L337.491,480.49L324.844,480.49L324.844,404.606L337.491,404.606L337.491,435.26L348.638,435.26L348.638,404.606ZM349.495,405.464L349.495,436.117L336.633,436.117L336.633,405.464L325.701,405.464L325.701,479.632L336.633,479.632L336.633,447.05L349.495,447.05L349.495,479.632L360.427,479.632L360.427,405.464L349.495,405.464Z" style="fill:rgb(248,176,176);fill-rule:nonzero;stroke:rgb(248,176,176);stroke-width:0.73px;"/>
                <path d="M400.941,417.254L381.649,417.254L381.649,435.26L395.046,435.26L395.046,447.907L381.649,447.907L381.649,480.49L369.002,480.49L369.002,404.606L400.941,404.606L400.941,417.254ZM400.084,416.396L400.084,405.464L369.859,405.464L369.859,479.632L380.791,479.632L380.791,447.05L394.189,447.05L394.189,436.117L380.791,436.117L380.791,416.396L400.084,416.396Z" style="fill:rgb(248,176,176);fill-rule:nonzero;stroke:rgb(248,176,176);stroke-width:0.73px;"/>
                <path d="M454.424,417.254L435.131,417.254L435.131,435.26L448.529,435.26L448.529,447.907L435.131,447.907L435.131,480.49L422.484,480.49L422.484,404.606L454.424,404.606L454.424,417.254ZM453.566,416.396L453.566,405.464L423.342,405.464L423.342,479.632L434.274,479.632L434.274,447.05L447.671,447.05L447.671,436.117L434.274,436.117L434.274,416.396L453.566,416.396Z" style="fill:rgb(248,176,176);fill-rule:nonzero;stroke:rgb(248,176,176);stroke-width:0.73px;"/>
                <path d="M482.076,480.49L479.932,468.593L467.071,468.593L464.927,480.49L452.066,480.49L467.285,404.606L479.718,404.606L494.938,480.49L482.076,480.49ZM482.719,479.632L493.866,479.632L479.075,405.464L467.928,405.464L453.138,479.632L464.284,479.632L466.428,467.735L480.576,467.735L482.719,479.632ZM469.322,455.945L477.682,455.945L473.502,431.937L469.322,455.945ZM468.25,456.803L473.502,427.007L478.754,456.803L468.25,456.803Z" style="fill:rgb(248,176,176);fill-rule:nonzero;stroke:rgb(248,176,176);stroke-width:0.73px;"/>
                <path d="M542.632,404.606L550.135,404.606L550.135,480.49L537.488,480.49L537.488,445.013L528.699,468.7L521.197,468.7L512.408,445.013L512.408,480.49L499.761,480.49L499.761,404.606L507.263,404.606L524.948,445.549L542.632,404.606ZM543.276,405.464L524.948,447.693L506.62,405.464L500.618,405.464L500.618,479.632L511.55,479.632L511.55,440.297L521.84,467.842L528.056,467.842L538.345,440.297L538.345,479.632L549.278,479.632L549.278,405.464L543.276,405.464Z" style="fill:rgb(248,176,176);fill-rule:nonzero;stroke:rgb(248,176,176);stroke-width:0.73px;"/>
            </g>
            <g transform="matrix(1,0,0,1,8.03948,-96.916)">
                <path d="M288.633,569.55C287.847,569.764 287.132,569.586 286.489,569.014C285.846,568.442 285.417,567.621 285.203,566.549C284.989,565.691 284.881,564.334 284.881,562.476C284.881,549.686 285.489,536.431 286.703,522.712C287.061,518.64 287.239,514.96 287.239,511.673C287.239,510.958 287.15,510.44 286.971,510.119C286.793,509.797 286.453,509.637 285.953,509.637C285.596,509.637 285.096,509.744 284.453,509.958C283.309,510.244 282.452,510.494 281.88,510.708C278.951,511.351 276.629,512.173 274.914,513.174C273.985,513.745 272.841,514.031 271.484,514.031C271.127,514.031 270.448,513.96 269.447,513.817C268.59,513.674 268.054,513.174 267.84,512.316L267.733,511.78C267.733,511.423 267.84,511.066 268.054,510.708C268.268,510.351 268.554,510.137 268.912,510.065C269.912,509.565 271.484,508.958 273.627,508.243C275.914,507.529 279.915,506.385 285.632,504.814C286.489,504.528 287.114,504.135 287.507,503.635C287.9,503.134 288.132,502.42 288.204,501.491C288.847,490.416 290.276,477.411 292.491,462.478C293.634,454.761 294.706,449.009 295.706,445.222C296.421,442.364 297.136,438.97 297.85,435.04L298.493,432.039C294.206,433.039 289.276,434.718 283.702,437.076L278.665,439.005C278.165,439.22 277.807,439.47 277.593,439.756C277.379,440.041 277.379,440.47 277.593,441.042L277.807,442.006C277.807,443.078 277.093,443.721 275.664,443.936C274.02,444.221 271.555,444.507 268.268,444.793L267.84,444.793C266.768,444.793 266.053,444.329 265.696,443.4C265.553,443.114 265.482,442.721 265.482,442.221C265.482,441.292 265.839,440.577 266.554,440.077C267.983,439.077 269.555,438.112 271.27,437.183C274.842,435.254 278.504,433.575 282.255,432.146C286.007,430.717 290.919,429.002 296.993,427.001C301.423,425.501 305.889,424.161 310.39,422.982C314.892,421.803 320.536,420.392 327.324,418.748L338.471,415.962C343.902,414.533 350.1,412.996 357.067,411.353C364.033,409.71 368.982,408.531 371.911,407.816L383.808,404.922L391.846,403.1C392.561,402.957 393.025,402.886 393.24,402.886C395.098,402.743 396.134,403.422 396.348,404.922C396.634,406.494 395.884,407.459 394.097,407.816C384.594,409.888 372.161,412.889 356.799,416.819C352.297,417.962 346.867,419.284 340.507,420.785C327.646,423.929 319.036,426.144 314.677,427.43L311.998,427.966C310.497,428.18 309.283,428.43 308.354,428.716C307.425,429.002 306.639,429.466 305.996,430.109C305.353,430.752 304.906,431.449 304.656,432.199C304.406,432.95 304.174,433.968 303.959,435.254C303.673,436.826 303.388,437.969 303.102,438.684C301.173,443.257 299.761,447.991 298.868,452.885C297.975,457.78 297.171,463.799 296.457,470.945L295.492,479.734C295.206,482.091 294.849,485.628 294.42,490.344L293.884,495.382C293.813,495.882 293.741,496.471 293.67,497.15C293.599,497.829 293.563,498.597 293.563,499.455C293.563,500.455 293.634,501.169 293.777,501.598C294.277,501.884 294.706,502.027 295.063,502.027C295.349,502.027 295.706,501.955 296.135,501.812L304.602,499.455C307.246,498.74 313.927,496.847 324.645,493.774C330.79,491.988 337.471,490.237 344.687,488.522C355.263,485.807 363.158,483.663 368.374,482.091C368.66,482.02 369.535,481.77 371,481.341C372.465,480.912 373.876,480.698 375.234,480.698C377.663,480.698 378.878,481.52 378.878,483.163C378.949,484.449 378.056,485.235 376.198,485.521C371.768,486.164 367.392,487.022 363.069,488.094C358.746,489.165 353.226,490.63 346.51,492.488L336.22,495.382C321.215,499.312 308.639,502.813 298.493,505.885C296.921,506.385 295.885,506.671 295.385,506.743C294.456,507.029 293.795,507.457 293.402,508.029C293.009,508.601 292.741,509.387 292.598,510.387C292.527,511.673 292.42,513.174 292.277,514.888C292.134,516.603 292.027,517.925 291.955,518.854C291.526,523.284 291.276,526.607 291.205,528.822C291.133,533.109 290.919,537.396 290.562,541.683C290.133,550.258 289.919,556.653 289.919,560.868C289.919,563.012 290.062,564.655 290.347,565.799C290.419,566.084 290.455,566.442 290.455,566.87C290.455,568.157 289.847,569.05 288.633,569.55Z" style="fill:rgb(107,153,107);fill-rule:nonzero;stroke:rgb(107,153,107);stroke-width:0.7px;"/>
                <path d="M323.895,543.291C322.251,544.005 320.644,544.363 319.072,544.363C316.142,544.363 313.641,543.22 311.569,540.933C309.497,538.647 308.497,535.252 308.568,530.751C309.783,524.249 311.587,518.729 313.981,514.192C316.374,509.654 320.251,506.028 325.61,503.313C326.681,502.741 327.86,502.456 329.146,502.456C330.433,502.456 331.54,502.831 332.469,503.581C333.398,504.331 334.077,505.385 334.505,506.743C334.648,507.457 334.72,507.957 334.72,508.243C334.72,508.958 334.47,509.958 333.97,511.244C332.469,514.817 330.522,517.907 328.128,520.515C325.735,523.123 322.787,525.463 319.286,527.536C318.571,527.964 317.75,528.322 316.821,528.607C315.963,528.893 315.356,529.161 314.999,529.411C314.641,529.661 314.463,530.144 314.463,530.858C314.463,535.574 316.071,537.932 319.286,537.932C320.358,537.932 321.537,537.718 322.823,537.289C325.395,536.503 328.486,534.538 332.094,531.394C335.702,528.25 338.721,525.249 341.151,522.391L341.686,521.641C342.901,520.14 343.937,519.39 344.795,519.39C345.295,519.39 345.759,519.604 346.188,520.033C346.831,520.676 347.153,521.355 347.153,522.069C347.153,522.784 346.76,523.749 345.974,524.963C343.616,528.179 340.204,531.662 335.738,535.413C331.272,539.165 327.324,541.79 323.895,543.291ZM316.499,523.356C321.572,520.569 325.574,516.603 328.503,511.459C328.575,511.244 328.771,510.905 329.093,510.44C329.414,509.976 329.575,509.529 329.575,509.101C329.575,508.815 329.397,508.493 329.039,508.136C328.753,507.85 328.36,507.707 327.86,507.707C327.289,507.707 326.681,507.94 326.038,508.404C325.395,508.868 324.609,509.565 323.68,510.494C321.751,512.709 320.179,514.799 318.964,516.764C317.75,518.729 316.928,520.926 316.499,523.356Z" style="fill:rgb(107,153,107);fill-rule:nonzero;stroke:rgb(107,153,107);stroke-width:0.7px;"/>
                <path d="M356.049,543.291C354.405,544.005 352.797,544.363 351.225,544.363C348.296,544.363 345.795,543.22 343.723,540.933C341.651,538.647 340.65,535.252 340.722,530.751C341.937,524.249 343.741,518.729 346.134,514.192C348.528,509.654 352.404,506.028 357.763,503.313C358.835,502.741 360.014,502.456 361.3,502.456C362.586,502.456 363.694,502.831 364.623,503.581C365.552,504.331 366.231,505.385 366.659,506.743C366.802,507.457 366.874,507.957 366.874,508.243C366.874,508.958 366.624,509.958 366.123,511.244C364.623,514.817 362.676,517.907 360.282,520.515C357.888,523.123 354.941,525.463 351.44,527.536C350.725,527.964 349.904,528.322 348.975,528.607C348.117,528.893 347.51,529.161 347.153,529.411C346.795,529.661 346.617,530.144 346.617,530.858C346.617,535.574 348.224,537.932 351.44,537.932C352.512,537.932 353.691,537.718 354.977,537.289C357.549,536.503 360.639,534.538 364.248,531.394C367.856,528.25 370.875,525.249 373.304,522.391L373.84,521.641C375.055,520.14 376.091,519.39 376.949,519.39C377.449,519.39 377.913,519.604 378.342,520.033C378.985,520.676 379.306,521.355 379.306,522.069C379.306,522.784 378.913,523.749 378.127,524.963C375.77,528.179 372.358,531.662 367.892,535.413C363.426,539.165 359.478,541.79 356.049,543.291ZM348.653,523.356C353.726,520.569 357.728,516.603 360.657,511.459C360.729,511.244 360.925,510.905 361.247,510.44C361.568,509.976 361.729,509.529 361.729,509.101C361.729,508.815 361.55,508.493 361.193,508.136C360.907,507.85 360.514,507.707 360.014,507.707C359.443,507.707 358.835,507.94 358.192,508.404C357.549,508.868 356.763,509.565 355.834,510.494C353.905,512.709 352.333,514.799 351.118,516.764C349.904,518.729 349.082,520.926 348.653,523.356Z" style="fill:rgb(107,153,107);fill-rule:nonzero;stroke:rgb(107,153,107);stroke-width:0.7px;"/>
                <path d="M391.525,584.234C390.596,584.234 390.007,583.948 389.756,583.376C389.506,582.804 389.346,581.983 389.274,580.911C389.203,579.125 389.31,577.356 389.596,575.606C389.882,573.855 390.346,571.765 390.989,569.336L391.846,565.477L393.24,558.725C393.669,556.581 394.562,552.312 395.919,545.917C397.277,539.522 398.599,533.716 399.885,528.5C405.172,507.35 409.745,490.737 413.604,478.662C414.176,476.947 414.89,474.446 415.747,471.159C415.033,471.516 414.479,471.945 414.086,472.445C413.693,472.945 413.372,473.446 413.122,473.946C412.872,474.446 412.675,474.803 412.532,475.018L410.281,479.305C407.709,484.521 405.101,489.487 402.457,494.203C402.029,494.989 401.743,496.239 401.6,497.954C401.457,499.169 401.296,500.08 401.117,500.687C400.939,501.294 400.528,501.812 399.885,502.241C398.813,502.956 397.974,503.76 397.366,504.653C396.759,505.546 396.241,506.439 395.812,507.332C395.383,508.225 395.098,508.851 394.955,509.208C390.81,517.925 387.559,524.392 385.201,528.607C383.844,531.037 382.236,533.645 380.378,536.431C379.592,537.432 378.842,538.218 378.127,538.789C377.056,539.432 376.055,539.754 375.126,539.754C374.126,539.754 373.322,539.325 372.715,538.468C372.108,537.61 371.804,536.431 371.804,534.931C371.804,531.644 372.59,527.786 374.162,523.356C377.234,514.71 381.414,507.422 386.702,501.491C388.059,499.919 389.363,498.633 390.614,497.632C391.864,496.632 393.276,495.953 394.847,495.596C395.633,495.382 396.223,495.024 396.616,494.524C397.009,494.024 397.42,493.31 397.849,492.381C401.636,485.378 405.03,478.983 408.031,473.196C410.317,468.765 411.675,466.122 412.103,465.264C416.462,456.833 420.178,449.83 423.25,444.257C424.679,441.685 426.323,438.112 428.18,433.539C428.538,432.825 429.002,431.753 429.574,430.324C430.503,428.18 431.324,426.715 432.039,425.929C432.825,425.001 433.611,424.536 434.397,424.536C434.897,424.536 435.326,424.679 435.683,424.965C436.469,425.536 436.862,426.179 436.862,426.894C436.862,427.323 436.755,427.751 436.54,428.18C436.326,428.68 436.04,429.413 435.683,430.377C435.326,431.342 434.968,432.182 434.611,432.896C432.253,437.541 430.252,442.221 428.609,446.937C426.966,451.652 424.929,458.048 422.5,466.122C422.285,466.836 422.089,467.497 421.91,468.105C421.732,468.712 421.571,469.266 421.428,469.766C420.142,473.982 418.963,478.001 417.891,481.824C416.819,485.646 415.783,489.201 414.783,492.488C413.425,497.347 412.211,501.598 411.139,505.242C409.067,512.316 406.816,521.283 404.386,532.144C401.957,543.077 399.599,554.009 397.313,564.941L393.776,581.34C393.561,582.483 393.329,583.269 393.079,583.698C392.829,584.126 392.311,584.305 391.525,584.234ZM377.27,531.823C381.986,524.249 386.595,515.103 391.096,504.385C384.022,511.101 379.414,520.247 377.27,531.823Z" style="fill:rgb(107,153,107);fill-rule:nonzero;stroke:rgb(107,153,107);stroke-width:0.7px;"/>
                <path d="M411.139,545.863C410.21,545.506 409.745,544.756 409.745,543.612C409.745,543.041 409.781,542.612 409.853,542.326C410.21,540.397 410.817,537.432 411.675,533.43C413.104,527.143 414.068,522.427 414.569,519.283C415.783,512.137 417.337,505.046 419.231,498.008C421.124,490.969 423.572,482.556 426.573,472.767L429.574,462.692C431.503,456.19 433.218,450.688 434.718,446.186C436.219,441.685 437.862,437.255 439.649,432.896C439.791,432.539 440.006,431.949 440.292,431.128C440.577,430.306 440.97,429.645 441.471,429.145C441.971,428.645 442.435,428.305 442.864,428.127C443.293,427.948 443.757,427.966 444.257,428.18C445.329,428.537 445.722,429.431 445.436,430.86C445.365,431.145 445.079,432.039 444.579,433.539C436.362,455.404 429.538,477.447 424.108,499.669C422.178,507.386 420.785,513.995 419.928,519.497C420.928,518.068 422.536,515.353 424.751,511.351C427.752,506.35 429.466,503.492 429.895,502.777C431.824,499.919 433.968,497.132 436.326,494.417C437.112,493.56 437.916,492.899 438.738,492.434C439.559,491.97 440.506,491.738 441.578,491.738C443.078,491.738 444.186,492.416 444.9,493.774C445.901,495.632 446.401,497.597 446.401,499.669C446.401,500.455 446.365,501.027 446.294,501.384C445.651,506.457 444.239,511.226 442.06,515.692C439.881,520.158 437.005,524.57 433.432,528.929C431.86,530.787 430.145,532.484 428.288,534.02C426.43,535.556 424.143,537.289 421.428,539.218L417.141,542.434C416.855,542.648 416.391,542.969 415.747,543.398C415.104,543.827 414.64,544.291 414.354,544.791C413.783,545.72 413.068,546.185 412.211,546.185C411.925,546.185 411.567,546.078 411.139,545.863ZM419.499,534.502C422.929,532.93 426.358,530.144 429.788,526.142C433.218,522.141 436.022,517.764 438.202,513.013C440.381,508.261 441.471,504.099 441.471,500.526C441.471,499.24 441.328,498.168 441.042,497.311C439.327,498.526 436.737,501.795 433.271,507.118C429.806,512.441 426.662,517.889 423.84,523.463C421.017,529.036 419.57,532.716 419.499,534.502Z" style="fill:rgb(107,153,107);fill-rule:nonzero;stroke:rgb(107,153,107);stroke-width:0.7px;"/>
                <path d="M442.864,542.434C441.649,541.576 441.042,540.361 441.042,538.789L441.149,537.503C441.506,534.074 442.346,530.751 443.668,527.536C444.99,524.32 446.758,520.998 448.973,517.568C451.045,514.352 452.849,511.744 454.386,509.744C455.922,507.743 457.726,505.992 459.798,504.492L462.049,502.884C463.478,501.955 464.871,501.491 466.229,501.491C467.515,501.491 468.551,501.973 469.337,502.938C470.123,503.902 470.588,505.278 470.731,507.064C470.802,507.779 470.838,508.851 470.838,510.28L470.838,513.495C470.695,514.781 470.373,515.639 469.873,516.067C468.444,517.496 467.462,519.033 466.926,520.676C466.39,522.32 465.908,524.57 465.479,527.428C465.264,529.643 464.907,531.537 464.407,533.109C466.551,532.18 469.176,530.34 472.285,527.589C475.393,524.838 477.483,522.498 478.555,520.569C478.698,520.283 478.912,519.837 479.198,519.229C479.484,518.622 479.823,518.14 480.216,517.782C480.609,517.425 481.056,517.246 481.556,517.246C483.199,517.246 484.021,517.961 484.021,519.39C484.021,520.319 483.664,521.462 482.949,522.82C481.734,525.035 479.501,527.643 476.25,530.644C472.999,533.645 469.837,536.289 466.765,538.575C465.622,539.504 464.478,539.968 463.335,539.968C462.549,539.968 461.835,539.79 461.192,539.432C459.905,538.718 459.262,537.539 459.262,535.896C459.262,534.609 459.477,532.537 459.905,529.679C460.048,529.25 460.191,528.393 460.334,527.107C459.763,527.107 459.334,527.232 459.048,527.482C458.762,527.732 458.53,528.018 458.351,528.339C458.173,528.661 458.048,528.893 457.976,529.036C457.69,529.465 456.797,530.787 455.297,533.002C453.796,535.217 452.224,537.217 450.581,539.004C449.652,540.076 448.759,540.933 447.901,541.576C446.687,542.505 445.615,542.969 444.686,542.969C443.971,542.969 443.364,542.791 442.864,542.434ZM445.758,536.431C447.33,534.931 449.634,532.001 452.671,527.643C455.708,523.284 458.494,518.943 461.031,514.62C463.567,510.298 465.014,507.35 465.372,505.778C460.441,509.637 456.458,514.049 453.421,519.015C450.384,523.981 447.83,529.786 445.758,536.431Z" style="fill:rgb(107,153,107);fill-rule:nonzero;stroke:rgb(107,153,107);stroke-width:0.7px;"/>
                <path d="M486.164,537.182C485.021,537.753 483.842,538.039 482.628,538.039C480.984,538.039 479.68,537.396 478.715,536.11C477.751,534.824 477.269,533.037 477.269,530.751C477.269,526.821 477.947,522.98 479.305,519.229C480.663,515.478 482.592,511.602 485.093,507.6C485.879,506.528 486.986,505.6 488.415,504.814C489.273,504.456 490.023,504.278 490.666,504.278C492.095,504.278 493.328,504.778 494.364,505.778C495.4,506.778 495.918,508.029 495.918,509.529C495.918,510.387 495.686,511.048 495.221,511.512C494.757,511.977 494.203,512.209 493.56,512.209C492.988,512.209 492.452,512.066 491.952,511.78C491.666,511.637 491.363,511.369 491.041,510.976C490.72,510.583 490.416,510.244 490.13,509.958C485.486,516.103 482.842,522.784 482.199,530.001L482.199,530.644C482.199,531.787 482.52,532.359 483.163,532.359C483.664,532.359 484.271,532.109 484.985,531.608C486.557,530.68 488.022,529.626 489.38,528.447C490.737,527.268 492.381,525.749 494.31,523.891L497.204,521.105L508.672,510.387C508.815,510.244 509.172,509.905 509.744,509.369C510.316,508.833 510.887,508.565 511.459,508.565C511.959,508.565 512.459,508.851 512.959,509.422C513.531,510.137 513.817,510.78 513.817,511.351C513.817,512.28 513.281,513.245 512.209,514.245L504.599,521.319C502.956,522.963 500.419,525.356 496.99,528.5C495.418,529.929 492.988,532.001 489.701,534.717C488.915,535.503 487.736,536.324 486.164,537.182Z" style="fill:rgb(107,153,107);fill-rule:nonzero;stroke:rgb(107,153,107);stroke-width:0.7px;"/>
                <path d="M501.491,545.97C499.991,545.97 499.24,545.22 499.24,543.72C499.24,542.648 499.526,541.505 500.098,540.29C501.098,538.075 501.902,535.931 502.509,533.859C503.117,531.787 503.956,528.75 505.028,524.749C505.528,522.534 505.993,520.64 506.421,519.068C509.065,509.422 511.477,500.991 513.656,493.774C515.835,486.557 518.211,479.519 520.783,472.66C523.784,464.728 526.5,457.815 528.929,451.92C531.358,446.026 534.002,440.327 536.86,434.825L540.397,428.287L542.648,424.322C543.291,423.25 544.006,422.714 544.792,422.714C545.077,422.714 545.399,422.821 545.756,423.036C546.542,423.393 546.935,423.964 546.935,424.75C546.935,425.108 546.721,425.715 546.292,426.572C542.862,432.432 539.718,438.541 536.86,444.9C534.002,451.259 530.93,458.583 527.643,466.872C522.927,478.876 518.425,492.631 514.138,508.136C513.424,510.78 512.888,512.941 512.531,514.62C512.173,516.3 511.959,518.068 511.888,519.926L517.461,513.388C520.891,509.244 523.32,506.35 524.749,504.706L526.571,502.67C527.429,501.812 528.179,501.384 528.822,501.384C529.251,501.384 529.715,501.562 530.215,501.92C530.858,502.42 531.18,502.991 531.18,503.635C531.18,504.135 530.93,504.778 530.43,505.564C529.715,506.636 528.929,507.743 528.072,508.886C527.214,510.03 526.357,510.994 525.499,511.78C523.213,513.852 521.105,516.389 519.176,519.39C520.605,519.962 522.105,520.372 523.677,520.622C525.249,520.873 526.214,521.033 526.571,521.105L528.822,521.426C532.037,521.927 536.61,522.534 542.541,523.248C543.756,523.391 544.667,523.606 545.274,523.891C545.881,524.177 546.256,524.785 546.399,525.714C546.471,526.285 546.185,526.767 545.542,527.16C544.899,527.553 544.077,527.75 543.077,527.75C542.577,527.75 542.184,527.714 541.898,527.643C540.04,527.357 538.414,527.143 537.021,527C535.628,526.857 534.502,526.75 533.645,526.678C526.928,525.964 521.891,525.249 518.533,524.535C517.818,524.392 517.354,524.32 517.139,524.32C515.782,524.32 514.674,524.963 513.817,526.249C511.53,529.536 509.672,532.377 508.243,534.77C506.814,537.164 505.635,539.683 504.706,542.326C504.278,543.541 503.867,544.452 503.474,545.059C503.081,545.667 502.42,545.97 501.491,545.97Z" style="fill:rgb(107,153,107);fill-rule:nonzero;stroke:rgb(107,153,107);stroke-width:0.7px;"/>
            </g>
            <g transform="matrix(0.348301,0,0,0.348301,91.0294,323.432)">
                <path d="M423.835,600.899C422.405,600.899 421.477,600.291 421.048,599.077C420.976,598.862 420.941,598.505 420.941,598.005C420.941,597.147 421.298,596.576 422.012,596.29C423.584,595.575 424.835,594.611 425.764,593.396C426.693,592.181 427.693,590.502 428.765,588.359C429.336,587.215 429.694,586.537 429.837,586.322C437.768,572.246 444.127,557.562 448.915,542.271C451.415,534.34 453.881,525.766 456.31,516.548L456.953,514.512C457.239,513.797 457.489,513.083 457.703,512.368C457.918,511.654 458.025,510.939 458.025,510.225C458.025,509.867 457.953,509.332 457.81,508.617C457.453,508.546 456.953,508.51 456.31,508.51C455.167,508.51 453.523,508.867 451.38,509.582L448.593,510.332C446.306,510.761 443.949,511.386 441.519,512.208C439.09,513.029 437.661,513.512 437.232,513.654L434.874,514.405C434.588,514.476 434.195,514.601 433.695,514.78C433.195,514.958 432.766,515.048 432.409,515.048C431.837,515.048 431.355,514.851 430.962,514.458C430.569,514.065 430.372,513.44 430.372,512.583C430.372,511.439 431.337,510.582 433.266,510.01C434.552,509.653 435.696,509.296 436.696,508.939C444.556,506.509 451.13,504.687 456.417,503.472C457.846,503.187 458.918,502.686 459.632,501.972C460.347,501.257 460.883,500.221 461.24,498.864L463.277,491.254C463.562,490.254 464.277,487.574 465.42,483.216C466.563,478.857 467.85,474.748 469.279,470.89C471.565,464.388 474.459,458.814 477.96,454.17C479.746,451.883 481.622,450.079 483.587,448.757C485.552,447.435 487.821,446.774 490.393,446.774C492.465,446.774 494.43,447.471 496.288,448.864C498.146,450.258 499.325,451.955 499.825,453.955C500.039,454.599 500.146,455.206 500.146,455.778C500.146,456.849 499.646,457.564 498.646,457.921C497.86,458.135 497.252,458.064 496.824,457.707C496.395,457.35 495.931,456.742 495.43,455.885C493.93,453.027 492.144,451.598 490.071,451.598C488.571,451.598 486.928,452.276 485.141,453.634C483.641,454.777 482.372,456.099 481.336,457.6C480.3,459.1 479.211,460.994 478.067,463.28C475.709,467.925 473.762,472.748 472.226,477.749C470.69,482.751 468.921,489.146 466.921,496.934C466.778,497.792 466.492,499.007 466.063,500.579L478.71,497.792C478.996,497.72 479.3,497.631 479.621,497.524C479.943,497.417 480.247,497.363 480.532,497.363L480.854,497.363C481.997,497.363 482.712,497.899 482.998,498.971C483.069,499.114 483.105,499.292 483.105,499.507C483.105,499.864 482.998,500.221 482.783,500.579C482.569,500.936 482.283,501.186 481.926,501.329C480.854,501.9 479.568,502.365 478.067,502.722L473.673,503.794C471.172,504.508 469.207,504.973 467.778,505.187C466.635,505.402 465.742,505.813 465.099,506.42C464.456,507.027 463.991,507.867 463.705,508.939C462.919,512.368 461.526,517.513 459.525,524.372L457.275,532.089C450.844,555.169 442.305,575.569 431.659,593.289C429.944,596.147 428.479,598.148 427.264,599.291C426.05,600.363 424.906,600.899 423.835,600.899Z" style="fill:rgb(107,153,107);fill-rule:nonzero;stroke:rgb(107,153,107);stroke-width:2.01px;"/>
                <path d="M460.276,555.026C459.275,554.597 458.739,553.954 458.668,553.097L458.668,552.239C458.668,551.667 458.739,551.096 458.882,550.524C460.811,545.308 462.919,538.306 465.206,529.517C466.921,523.158 468.385,518.085 469.6,514.298C469.743,513.726 469.886,513.333 470.029,513.119C470.601,511.832 471.351,511.189 472.28,511.189C472.494,511.189 472.816,511.261 473.244,511.404C474.316,511.69 474.852,512.368 474.852,513.44C474.852,513.654 474.781,514.047 474.638,514.619C473.566,517.763 472.744,520.585 472.172,523.086L472.172,524.908C472.816,524.98 473.334,524.89 473.727,524.64C474.12,524.39 474.459,524.104 474.745,523.783C475.031,523.461 475.245,523.229 475.388,523.086C476.817,522.157 478.139,521.693 479.354,521.693C480.497,521.693 481.533,522.157 482.462,523.086C483.391,523.872 484.284,524.265 485.141,524.265C486.07,524.265 486.999,523.944 487.928,523.301C490.857,521.514 493.608,519.442 496.181,517.084C497.038,516.227 497.931,515.441 498.86,514.726C499.289,514.512 499.682,514.405 500.039,514.405C500.611,514.405 501.039,514.619 501.325,515.048C501.825,515.548 502.076,516.048 502.076,516.548C502.076,516.763 502.004,517.084 501.861,517.513C501.718,517.727 501.522,518.085 501.272,518.585C501.022,519.085 500.754,519.442 500.468,519.657C498.896,520.943 497.753,521.943 497.038,522.658C495.323,524.158 493.858,525.355 492.644,526.248C491.429,527.141 490.143,527.874 488.785,528.445C487.142,529.16 485.784,529.517 484.712,529.517C483.712,529.517 482.569,529.16 481.283,528.445C480.282,527.802 479.461,527.481 478.818,527.481C477.817,527.481 476.888,528.052 476.031,529.196C470.601,536.269 466.742,543.45 464.456,550.739C464.241,551.382 464.009,552.025 463.759,552.668C463.509,553.311 463.205,553.847 462.848,554.276C461.99,555.061 461.133,555.312 460.276,555.026Z" style="fill:rgb(107,153,107);fill-rule:nonzero;stroke:rgb(107,153,107);stroke-width:2.01px;"/>
                <path d="M497.36,557.812C496.216,557.455 495.484,556.812 495.162,555.883C494.841,554.954 494.68,553.775 494.68,552.346C494.68,548.917 495.538,544.701 497.252,539.699C497.896,537.77 498.217,536.234 498.217,535.09C498.217,533.518 497.681,532.054 496.609,530.696C495.895,529.91 495.538,528.731 495.538,527.159C495.538,526.659 495.609,525.909 495.752,524.908C496.824,518.478 499.575,513.047 504.005,508.617C504.648,507.974 505.398,507.438 506.256,507.009C507.828,506.223 509.185,505.83 510.328,505.83C511.757,505.83 512.972,506.313 513.972,507.277C514.973,508.242 515.687,509.617 516.116,511.404C516.616,513.404 516.866,515.548 516.866,517.834C516.866,520.764 516.438,524.122 515.58,527.909C515.509,528.338 515.348,528.874 515.098,529.517C514.848,530.16 514.723,530.767 514.723,531.339C514.723,531.768 514.83,532.304 515.044,532.947C516.688,532.447 519.224,531.839 522.654,531.125C525.369,530.625 527.727,530.071 529.728,529.463C531.729,528.856 533.658,528.052 535.516,527.052C535.944,526.838 536.337,526.73 536.695,526.73C537.195,526.73 537.659,526.945 538.088,527.373C538.374,527.659 538.517,528.088 538.517,528.66C538.517,529.088 538.409,529.517 538.195,529.946C537.266,531.589 535.658,532.661 533.372,533.161C529.585,534.019 523.904,535.376 516.33,537.234C514.901,537.591 513.794,538.074 513.008,538.681C512.222,539.288 511.615,540.271 511.186,541.628C509.328,546.916 506.577,551.525 502.933,555.454C502.147,556.312 501.432,556.955 500.789,557.384C500.146,557.812 499.432,558.027 498.646,558.027C498.36,558.027 497.931,557.955 497.36,557.812ZM505.612,532.732C506.541,533.09 507.292,533.268 507.863,533.268C508.435,533.268 508.881,533.072 509.203,532.679C509.525,532.286 509.828,531.589 510.114,530.589C511.4,525.873 512.15,521.586 512.365,517.727C512.293,517.227 512.258,516.62 512.258,515.905C512.258,515.191 512.222,514.619 512.15,514.19C511.722,511.975 510.9,510.868 509.685,510.868C509.042,510.868 508.221,511.297 507.22,512.154C503.29,515.727 501.075,520.014 500.575,525.016C500.361,527.016 500.664,528.642 501.486,529.892C502.308,531.143 503.683,532.089 505.612,532.732ZM499.932,551.167C501.361,549.953 502.522,548.577 503.415,547.041C504.308,545.505 505.362,543.415 506.577,540.771C506.791,540.199 507.184,539.342 507.756,538.199C507.256,538.127 506.577,537.949 505.72,537.663C504.862,537.377 504.255,537.234 503.898,537.234C503.183,537.234 502.647,537.627 502.29,538.413C500.647,542.057 499.825,545.594 499.825,549.024C499.825,549.953 499.861,550.667 499.932,551.167Z" style="fill:rgb(107,153,107);fill-rule:nonzero;stroke:rgb(107,153,107);stroke-width:2.01px;"/>
                <path d="M532.086,553.204C531.014,552.632 530.478,551.775 530.478,550.631C530.478,550.06 530.585,549.452 530.8,548.809L532.086,543.558C532.3,542.629 532.961,539.931 534.069,535.466C535.176,531 536.373,526.838 537.659,522.979L537.874,522.014C538.588,519.799 539.696,518.692 541.196,518.692C541.553,518.692 541.839,518.728 542.054,518.799C543.125,519.085 543.661,519.835 543.661,521.05C543.661,521.693 543.483,522.658 543.125,523.944L540.553,532.197L541.196,532.84L546.341,526.945C547.627,525.373 548.949,524.587 550.306,524.587C552.593,524.587 554.236,526.123 555.237,529.196C555.38,529.624 555.487,530.392 555.558,531.5C555.63,532.607 555.915,533.483 556.416,534.126L556.737,534.126C557.309,534.126 557.773,533.894 558.13,533.429C558.488,532.965 558.738,532.625 558.881,532.411C560.738,530.41 563.668,527.624 567.669,524.051L571.314,520.728C572.385,519.799 573.243,519.156 573.886,518.799C574.743,518.227 575.672,517.942 576.672,517.942C578.53,517.942 579.888,519.085 580.745,521.371C581.174,522.443 581.406,523.658 581.442,525.016C581.478,526.373 581.496,527.266 581.496,527.695L581.496,530.482C581.496,531.696 581.638,532.732 581.924,533.59C582.139,533.804 582.353,533.911 582.567,533.911C582.782,533.911 583.068,533.733 583.425,533.376C584.139,532.518 584.818,532.089 585.461,532.089C585.89,532.089 586.283,532.232 586.64,532.518C587.355,533.018 587.712,533.697 587.712,534.554C587.712,534.84 587.569,535.412 587.283,536.269C586.926,537.27 586.301,538.056 585.408,538.627C584.514,539.199 583.568,539.485 582.567,539.485C581.21,539.485 579.959,538.985 578.816,537.984C577.244,536.484 576.494,534.697 576.565,532.625C576.565,530.767 576.53,529.374 576.458,528.445C576.458,527.945 576.387,526.623 576.244,524.48C575.101,524.623 574.118,524.998 573.296,525.605C572.475,526.212 571.456,527.123 570.242,528.338C567.312,531.268 564.132,534.626 560.703,538.413C559.345,539.913 558.023,540.95 556.737,541.521C555.88,541.878 555.201,542.057 554.701,542.057C553.272,542.057 552.2,541.235 551.485,539.592C551.057,538.592 550.771,537.055 550.628,534.983C550.628,533.911 550.521,532.911 550.306,531.982C549.878,531.839 549.628,531.768 549.556,531.768C549.056,531.768 548.699,531.982 548.484,532.411C548.27,532.84 548.127,533.09 548.056,533.161C545.197,536.877 542.875,540.021 541.089,542.593C539.303,545.165 537.731,547.916 536.373,550.846C535.516,552.561 534.479,553.418 533.265,553.418C532.765,553.418 532.372,553.347 532.086,553.204Z" style="fill:rgb(107,153,107);fill-rule:nonzero;stroke:rgb(107,153,107);stroke-width:2.01px;"/>
                <path d="M634.335,594.039C633.621,594.325 633.12,594.468 632.835,594.468C632.12,594.468 631.513,594.146 631.013,593.503C630.512,593.003 630.262,592.431 630.262,591.788C630.262,591.288 630.405,590.895 630.691,590.609C632.191,588.894 633.281,587.001 633.96,584.929C634.639,582.857 635.264,580.284 635.836,577.212C636.407,574.497 636.872,572.496 637.229,571.21C638.158,568.137 640.712,558.67 644.892,542.807C649.072,526.945 652.806,512.726 656.093,500.15L658.558,490.825C660.487,483.68 662.809,476.177 665.524,468.318C665.667,467.817 665.989,466.942 666.489,465.692C666.989,464.441 667.239,463.28 667.239,462.208C666.668,461.994 666.167,461.887 665.739,461.887C665.31,461.887 664.828,461.958 664.292,462.101C663.756,462.244 663.345,462.351 663.059,462.423C642.409,467.139 624.796,471.604 610.22,475.82L603.36,477.749C594.071,480.25 586.64,482.537 581.067,484.609C578.78,485.466 576.815,486.324 575.172,487.181C574.457,487.61 573.779,487.824 573.136,487.824C572.278,487.824 571.599,487.36 571.099,486.431C570.885,486.002 570.778,485.609 570.778,485.252C570.778,484.252 571.456,483.358 572.814,482.572C575.029,481.429 577.709,480.286 580.852,479.143C591.213,475.57 602.574,472.176 614.936,468.961L626.725,465.852C640.087,462.28 649.697,459.815 655.557,458.457C660.344,457.385 664.167,456.599 667.025,456.099C668.168,455.885 669.079,455.456 669.758,454.813C670.437,454.17 671.026,453.241 671.526,452.026C674.384,444.881 677.028,438.54 679.458,433.002C681.887,427.464 684.495,422.159 687.282,417.086C688.211,415.371 689.068,414.228 689.854,413.656C690.497,413.013 691.176,412.691 691.89,412.691C692.248,412.691 692.641,412.799 693.069,413.013C694.356,413.656 694.82,414.692 694.463,416.121C693.82,418.693 692.962,421.552 691.89,424.695C691.819,424.91 691.676,425.142 691.462,425.392C691.247,425.642 691.033,425.767 690.819,425.767C689.604,425.982 688.711,426.482 688.139,427.268C687.568,428.054 687.085,428.929 686.692,429.894C686.299,430.858 685.996,431.555 685.781,431.984L684.602,434.449C682.673,438.736 681.155,442.201 680.047,444.845C678.94,447.489 677.957,450.276 677.1,453.205C677.671,453.491 678.207,453.634 678.707,453.634C679.065,453.634 679.529,453.563 680.101,453.42C688.604,451.49 702.108,448.775 720.615,445.274L729.082,443.666L738.406,442.059L740.979,441.63C741.836,441.487 742.569,441.398 743.176,441.362C743.783,441.326 744.301,441.308 744.73,441.308C747.159,441.308 748.303,442.273 748.16,444.202C748.16,444.988 747.874,445.613 747.302,446.078C746.731,446.542 745.945,446.774 744.944,446.774C741.872,446.989 738.924,447.328 736.102,447.793C733.28,448.257 729.225,449.025 723.937,450.097C721.651,450.597 718.221,451.276 713.648,452.133C707.574,453.205 698.536,454.956 686.531,457.385L678.707,458.993C677.064,459.35 675.778,459.904 674.849,460.654C673.92,461.404 673.206,462.53 672.705,464.03C669.633,472.605 666.417,482.84 663.059,494.737C659.701,506.634 655.271,522.908 649.769,543.558L649.126,546.13L638.944,585.036C638.229,587.751 637.515,589.752 636.8,591.038C636.086,592.396 635.264,593.396 634.335,594.039Z" style="fill:rgb(107,153,107);fill-rule:nonzero;stroke:rgb(107,153,107);stroke-width:2.01px;"/>
                <path d="M688.889,559.42C688.175,558.991 687.818,558.384 687.818,557.598C687.818,557.169 687.889,556.848 688.032,556.633C688.675,555.061 689.14,553.454 689.425,551.81C689.711,550.167 689.961,548.095 690.176,545.594C690.319,543.879 690.461,542.557 690.604,541.628C691.819,531.911 692.426,524.158 692.426,518.37C692.426,516.012 692.391,514.262 692.319,513.119C686.889,518.835 682.459,524.765 679.029,530.91L676.135,536.162C672.777,542.379 670.848,545.88 670.347,546.666C669.633,547.952 669.026,548.863 668.525,549.399C668.025,549.935 667.275,550.06 666.275,549.774C665.346,549.56 664.72,549.113 664.399,548.434C664.077,547.755 663.917,546.916 663.917,545.916C663.917,544.629 664.167,541.986 664.667,537.984C666.167,527.552 668.49,514.155 671.634,497.792L674.849,480.214L676.778,470.14C678.35,462.708 679.386,457.135 679.886,453.42C680.029,452.634 680.244,451.919 680.529,451.276C680.958,450.276 681.673,449.775 682.673,449.775C683.388,449.775 683.977,449.972 684.441,450.365C684.906,450.758 685.21,451.276 685.353,451.919C685.424,452.133 685.46,452.455 685.46,452.884C685.46,453.312 685.388,453.884 685.245,454.599C683.53,461.53 682.066,468.371 680.851,475.123C679.636,481.876 678.1,490.968 676.242,502.401C675.885,504.759 675.421,507.706 674.849,511.243C674.277,514.78 673.563,518.906 672.705,523.622L671.098,532.625C671.669,531.982 672.509,530.857 673.616,529.249C674.724,527.641 675.635,526.373 676.349,525.444C680.708,519.156 684.174,514.512 686.746,511.511C686.96,511.297 687.46,510.761 688.246,509.903C689.032,509.046 689.854,508.296 690.711,507.652C691.712,506.724 692.712,506.259 693.713,506.259C695.213,506.259 696.321,507.331 697.035,509.474C697.321,510.118 697.482,510.814 697.517,511.564C697.553,512.315 697.571,512.833 697.571,513.119C697.642,515.477 697.464,518.871 697.035,523.301L696.606,528.338C696.463,530.41 696.178,533.518 695.749,537.663C695.32,541.95 695.034,544.987 694.891,546.773C694.749,548.774 694.177,551.775 693.177,555.776C692.962,556.705 692.569,557.562 691.998,558.348C691.497,559.277 690.819,559.742 689.961,559.742C689.675,559.742 689.318,559.634 688.889,559.42Z" style="fill:rgb(107,153,107);fill-rule:nonzero;stroke:rgb(107,153,107);stroke-width:2.01px;"/>
                <path d="M715.577,553.418C713.934,554.133 712.326,554.49 710.754,554.49C707.824,554.49 705.324,553.347 703.251,551.06C701.179,548.774 700.179,545.38 700.25,540.878C701.465,534.376 703.269,528.856 705.663,524.319C708.057,519.782 711.933,516.155 717.292,513.44C718.364,512.868 719.543,512.583 720.829,512.583C722.115,512.583 723.223,512.958 724.151,513.708C725.08,514.458 725.759,515.512 726.188,516.87C726.331,517.584 726.402,518.085 726.402,518.37C726.402,519.085 726.152,520.085 725.652,521.371C724.151,524.944 722.204,528.034 719.811,530.642C717.417,533.25 714.47,535.591 710.968,537.663C710.254,538.091 709.432,538.449 708.503,538.734C707.646,539.02 707.039,539.288 706.681,539.538C706.324,539.788 706.145,540.271 706.145,540.985C706.145,545.701 707.753,548.059 710.968,548.059C712.04,548.059 713.219,547.845 714.505,547.416C717.078,546.63 720.168,544.665 723.776,541.521C727.385,538.377 730.404,535.376 732.833,532.518L733.369,531.768C734.584,530.267 735.62,529.517 736.477,529.517C736.977,529.517 737.442,529.731 737.87,530.16C738.514,530.803 738.835,531.482 738.835,532.197C738.835,532.911 738.442,533.876 737.656,535.09C735.298,538.306 731.886,541.789 727.42,545.54C722.955,549.292 719.007,551.918 715.577,553.418ZM708.182,533.483C713.255,530.696 717.256,526.73 720.186,521.586C720.257,521.371 720.454,521.032 720.775,520.568C721.097,520.103 721.258,519.657 721.258,519.228C721.258,518.942 721.079,518.62 720.722,518.263C720.436,517.977 720.043,517.834 719.543,517.834C718.971,517.834 718.364,518.067 717.721,518.531C717.078,518.996 716.292,519.692 715.363,520.621C713.434,522.836 711.862,524.926 710.647,526.891C709.432,528.856 708.61,531.053 708.182,533.483Z" style="fill:rgb(107,153,107);fill-rule:nonzero;stroke:rgb(107,153,107);stroke-width:2.01px;"/>
            </g>
        </g>
    </g>
</svg>
