<svg xmlns="http://www.w3.org/2000/svg" width="461.2734" height="79.835" viewBox="0 0 461.2734 79.835"><defs><style>.fe268ee0-8300-47e7-806e-8965b1d12c31{fill:#769f74;stroke:#769f74;stroke-miterlimit:10;stroke-width:3px;}</style></defs><title>filled</title><g id="8895879d-0cf2-420c-afe2-5ede5081b8e6" data-name="Layer 2"><g id="91678b2c-5d39-4bd4-843d-b24e54e338f2" data-name="Layer 1"><path class="fe268ee0-8300-47e7-806e-8965b1d12c31" d="M10.1641,20.084h9.918V88.5967H52.9131v8.3223H10.1641Z" transform="translate(-8.6641 -18.584)"/><path class="fe268ee0-8300-47e7-806e-8965b1d12c31" d="M73.8877,20.084v76.835h-9.917V20.084Z" transform="translate(-8.6641 -18.584)"/><path class="fe268ee0-8300-47e7-806e-8965b1d12c31" d="M108.0879,96.9189l-25.08-76.835H93.7246l11.9688,37.8477c3.3066,10.374,6.1563,19.7217,8.209,28.7275h.2275c2.166-8.8916,5.3584-18.582,8.7783-28.6133L135.9033,20.084h10.6025l-27.4746,76.835Z" transform="translate(-8.6641 -18.584)"/><path class="fe268ee0-8300-47e7-806e-8965b1d12c31" d="M194.6133,60.8955H164.7461V88.5967h33.2871v8.3223H154.8281V20.084h41.4951v8.3223H164.7461V52.6875h29.8672Z" transform="translate(-8.6641 -18.584)"/><path class="fe268ee0-8300-47e7-806e-8965b1d12c31" d="M243.5176,96.9189,224.0234,20.084h10.4883l9.12,38.873c2.28,9.5762,4.332,19.1523,5.7,26.5625h.2275c1.2539-7.6387,3.6484-16.7578,6.27-26.6758L266.09,20.084h10.373l9.3486,38.9873c2.165,9.12,4.2178,18.24,5.3574,26.334h.2285c1.5957-8.4365,3.7617-16.9863,6.1553-26.5615l10.1465-38.76h10.1455l-21.7734,76.835h-10.374l-9.69-40.0137a231.5225,231.5225,0,0,1-5.0156-25.0791h-.2275a239.9638,239.9638,0,0,1-5.9287,25.0791L253.8916,96.9189Z" transform="translate(-8.6641 -18.584)"/><path class="fe268ee0-8300-47e7-806e-8965b1d12c31" d="M337.34,20.084v76.835h-9.918V20.084Z" transform="translate(-8.6641 -18.584)"/><path class="fe268ee0-8300-47e7-806e-8965b1d12c31" d="M369.2588,28.52h-23.37V20.084h56.8857V28.52H379.29V96.9189H369.2588Z" transform="translate(-8.6641 -18.584)"/><path class="fe268ee0-8300-47e7-806e-8965b1d12c31" d="M421.2422,20.084V52.2314h37.1631V20.084h10.0322v76.835H458.4053V60.8955H421.2422V96.9189h-9.918V20.084Z" transform="translate(-8.6641 -18.584)"/></g></g></svg>