<svg xmlns="http://www.w3.org/2000/svg" width="155.6643" height="73.1866" viewBox="0 0 155.6643 73.1866"><defs><style>.\39 6a0bcdf-a6a7-4597-bf7f-c0148465ebdf{fill:#e6e6e6;}.\36 0292708-9ab6-482d-a27a-7403760b6292{fill:#3380c2;}</style></defs><title>fit1</title><g id="f7039982-6211-4a14-912c-cba69b0813d8" data-name="Layer 2"><g id="b233c6df-8872-4d0b-b033-73ac9577a99f" data-name="Layer 1"><path class="96a0bcdf-a6a7-4597-bf7f-c0148465ebdf" d="M4.1462,65.299c0-5.9941.0135-8.3572.0135-8.3572h0q-.0139-.4187-.014-.8424V17.0388C4.1462,7.629,9.1682,0,15.3632,0H144.4463c6.195,0,11.2179,7.629,11.2179,17.0388V56.0995c0,9.41-5.023,17.0373-11.2179,17.0373H15.3632A9.0806,9.0806,0,0,1,8.51,69.5834l-.0014.002S5.1892,73.681,0,73.1368C0,73.1368,4.1462,71.2916,4.1462,65.299Z"/><path d="M20.0715,15.1866h-.95v-2.92l-2.76-4.22h1.13l2.14,3.3994,2.09-3.3994h1.08l-2.73,4.22Z"/><path d="M22.2316,11.542a2.4083,2.4083,0,0,1,.48-.86,2.2586,2.2586,0,0,1,.79-.5752,2.8956,2.8956,0,0,1,2.165,0,2.2758,2.2758,0,0,1,.7852.5752,2.4232,2.4232,0,0,1,.48.86,3.615,3.615,0,0,1,0,2.125,2.4311,2.4311,0,0,1-.48.8545,2.2269,2.2269,0,0,1-.7852.57,2.96,2.96,0,0,1-2.165,0,2.2109,2.2109,0,0,1-.79-.57,2.416,2.416,0,0,1-.48-.8545,3.6045,3.6045,0,0,1,0-2.125Zm.8647,1.8994a1.7538,1.7538,0,0,0,.3452.61,1.5012,1.5012,0,0,0,.5151.375,1.5687,1.5687,0,0,0,1.25,0,1.5041,1.5041,0,0,0,.5146-.375,1.7461,1.7461,0,0,0,.3452-.61,2.8511,2.8511,0,0,0,0-1.67,1.8058,1.8058,0,0,0-.3452-.6152,1.4805,1.4805,0,0,0-.5146-.38,1.5687,1.5687,0,0,0-1.25,0,1.4778,1.4778,0,0,0-.5151.38,1.814,1.814,0,0,0-.3452.6152,2.8511,2.8511,0,0,0,0,1.67Z"/><path d="M31.5715,15.1866v-.82h-.02a1.734,1.734,0,0,1-.69.7051,2.0646,2.0646,0,0,1-.99.2256,2.3008,2.3008,0,0,1-.85-.1357,1.3512,1.3512,0,0,1-.55-.3848,1.4447,1.4447,0,0,1-.2949-.5947,3.2046,3.2046,0,0,1-.085-.7646v-3.4h.85v3.5a1.0261,1.0261,0,0,0,.28.76,1.0411,1.0411,0,0,0,.77.28,1.73,1.73,0,0,0,.6748-.12,1.2674,1.2674,0,0,0,.4751-.34,1.4666,1.4666,0,0,0,.2852-.5156,2.1,2.1,0,0,0,.0947-.6445v-2.92h.85v5.17Z"/><path d="M37.2814,8.0469v2.7295h.02a1.1357,1.1357,0,0,1,.28-.4053,1.6173,1.6173,0,0,1,.4048-.27,2.0834,2.0834,0,0,1,.47-.1553,2.3781,2.3781,0,0,1,.4751-.05,2.2575,2.2575,0,0,1,.85.14,1.4007,1.4007,0,0,1,.55.3906,1.4447,1.4447,0,0,1,.2949.5947,3.2046,3.2046,0,0,1,.085.7646v3.4h-.85v-3.5a1.0261,1.0261,0,0,0-.28-.76,1.0411,1.0411,0,0,0-.77-.28,1.7288,1.7288,0,0,0-.6748.12,1.2635,1.2635,0,0,0-.4751.34,1.4631,1.4631,0,0,0-.2852.5146,2.0958,2.0958,0,0,0-.0947.6455v2.92h-.85v-7.14Z"/><path d="M46.5715,15.167a1.2116,1.2116,0,0,1-.61.13.733.733,0,0,1-.5249-.1855.804.804,0,0,1-.1948-.6045,2.0393,2.0393,0,0,1-.8149.6045,2.8106,2.8106,0,0,1-1.67.1055,1.5537,1.5537,0,0,1-.5449-.25,1.1964,1.1964,0,0,1-.3647-.4453,1.4942,1.4942,0,0,1-.1353-.665,1.5227,1.5227,0,0,1,.15-.72,1.31,1.31,0,0,1,.395-.4551,1.8132,1.8132,0,0,1,.56-.2646,6.5937,6.5937,0,0,1,.645-.15q.35-.07.665-.1055a3.6513,3.6513,0,0,0,.5552-.1.911.911,0,0,0,.38-.19.4618.4618,0,0,0,.14-.3643.851.851,0,0,0-.105-.45.72.72,0,0,0-.27-.26,1.0752,1.0752,0,0,0-.37-.12,2.7231,2.7231,0,0,0-.4048-.03,1.7983,1.7983,0,0,0-.9.2051.87.87,0,0,0-.39.7754h-.85a1.84,1.84,0,0,1,.2-.8105,1.52,1.52,0,0,1,.48-.5352,2.0215,2.0215,0,0,1,.6846-.2949,3.6442,3.6442,0,0,1,.8252-.09,4.8546,4.8546,0,0,1,.6948.05,1.809,1.809,0,0,1,.625.2051,1.1909,1.1909,0,0,1,.45.4336,1.39,1.39,0,0,1,.17.7285v2.6543a1.9824,1.9824,0,0,0,.0352.4395c.0229.0928.1016.14.2349.14a1.0479,1.0479,0,0,0,.26-.04Zm-1.38-2.65a1.047,1.047,0,0,1-.42.1738c-.1733.0371-.355.0664-.5449.09s-.3818.05-.5752.08a2.095,2.095,0,0,0-.52.1436.9446.9446,0,0,0-.375.2842.7891.7891,0,0,0-.145.502.682.682,0,0,0,.0854.3535.7072.7072,0,0,0,.22.2344.9217.9217,0,0,0,.3149.1289,1.7665,1.7665,0,0,0,.38.04,2.0263,2.0263,0,0,0,.72-.1143,1.5322,1.5322,0,0,0,.49-.2891,1.1446,1.1446,0,0,0,.28-.3779.9506.9506,0,0,0,.09-.3838Z"/><path d="M48.7814,15.1866l-1.92-5.17h.95l1.45,4.31h.02l1.41-4.31h.89l-1.89,5.17Z"/><path d="M56.0212,14.8565a2.3426,2.3426,0,0,1-1.46.44,2.6634,2.6634,0,0,1-1.0747-.2,2.1194,2.1194,0,0,1-.7651-.5605,2.37,2.37,0,0,1-.4648-.8594,4.1388,4.1388,0,0,1-.1753-1.09,3.1059,3.1059,0,0,1,.18-1.08,2.5809,2.5809,0,0,1,.5049-.8506,2.2926,2.2926,0,0,1,.77-.56,2.3428,2.3428,0,0,1,.9751-.2,2.1183,2.1183,0,0,1,1.145.2852,2.265,2.265,0,0,1,.73.7246,2.8715,2.8715,0,0,1,.38.96,4.109,4.109,0,0,1,.085.99h-3.87a2.0662,2.0662,0,0,0,.08.6455,1.4685,1.4685,0,0,0,.29.54,1.4382,1.4382,0,0,0,.51.375,1.7684,1.7684,0,0,0,.73.14,1.4685,1.4685,0,0,0,.8848-.25,1.2092,1.2092,0,0,0,.4551-.76h.84A2.0633,2.0633,0,0,1,56.0212,14.8565Zm-.2046-3.32a1.4357,1.4357,0,0,0-.77-.7744,1.4477,1.4477,0,0,0-.585-.1152,1.4726,1.4726,0,0,0-.5952.1152,1.37,1.37,0,0,0-.4551.3145,1.5167,1.5167,0,0,0-.3.4658,1.7593,1.7593,0,0,0-.13.5645h2.97A1.7522,1.7522,0,0,0,55.8166,11.5362Z"/><path d="M65.0915,15.167a1.2116,1.2116,0,0,1-.61.13.733.733,0,0,1-.5249-.1855.804.804,0,0,1-.1948-.6045,2.0393,2.0393,0,0,1-.8149.6045,2.8106,2.8106,0,0,1-1.67.1055,1.5537,1.5537,0,0,1-.5449-.25,1.1964,1.1964,0,0,1-.3647-.4453,1.4942,1.4942,0,0,1-.1353-.665,1.5227,1.5227,0,0,1,.15-.72,1.31,1.31,0,0,1,.395-.4551,1.8132,1.8132,0,0,1,.56-.2646,6.5937,6.5937,0,0,1,.645-.15q.35-.07.665-.1055a3.6513,3.6513,0,0,0,.5552-.1.911.911,0,0,0,.38-.19.4618.4618,0,0,0,.14-.3643.851.851,0,0,0-.105-.45.72.72,0,0,0-.27-.26,1.0752,1.0752,0,0,0-.37-.12,2.7231,2.7231,0,0,0-.4048-.03,1.7983,1.7983,0,0,0-.9.2051.87.87,0,0,0-.39.7754h-.85a1.84,1.84,0,0,1,.2-.8105,1.52,1.52,0,0,1,.48-.5352,2.0215,2.0215,0,0,1,.6846-.2949,3.6442,3.6442,0,0,1,.8252-.09,4.8546,4.8546,0,0,1,.6948.05,1.809,1.809,0,0,1,.625.2051,1.1909,1.1909,0,0,1,.45.4336,1.39,1.39,0,0,1,.17.7285v2.6543a1.9824,1.9824,0,0,0,.0352.4395c.0229.0928.1016.14.2349.14a1.0479,1.0479,0,0,0,.26-.04Zm-1.38-2.65a1.047,1.047,0,0,1-.42.1738c-.1733.0371-.355.0664-.5449.09s-.3818.05-.5752.08a2.095,2.095,0,0,0-.52.1436.9446.9446,0,0,0-.375.2842.7891.7891,0,0,0-.145.502.682.682,0,0,0,.0854.3535.7072.7072,0,0,0,.22.2344.9217.9217,0,0,0,.3149.1289,1.7665,1.7665,0,0,0,.38.04,2.0263,2.0263,0,0,0,.72-.1143,1.5322,1.5322,0,0,0,.49-.2891,1.1446,1.1446,0,0,0,.28-.3779.9506.9506,0,0,0,.09-.3838Z"/><path d="M70.7311,15.1866v-5.08h-1.84v-.68a4.3241,4.3241,0,0,0,.7-.0557,1.9111,1.9111,0,0,0,.6152-.2041,1.4147,1.4147,0,0,0,.4648-.41,1.5679,1.5679,0,0,0,.26-.66h.65v7.09Z"/><path d="M76.9714,12.0069v.8h-2.89v-.8Z"/><path d="M78.9611,8.0469v2.7295h.02a1.1357,1.1357,0,0,1,.28-.4053,1.6173,1.6173,0,0,1,.4048-.27,2.0834,2.0834,0,0,1,.47-.1553,2.3781,2.3781,0,0,1,.4751-.05,2.2575,2.2575,0,0,1,.85.14,1.4007,1.4007,0,0,1,.55.3906,1.4447,1.4447,0,0,1,.2949.5947,3.2046,3.2046,0,0,1,.085.7646v3.4h-.85v-3.5a1.0261,1.0261,0,0,0-.28-.76,1.0411,1.0411,0,0,0-.77-.28,1.7288,1.7288,0,0,0-.6748.12,1.2635,1.2635,0,0,0-.4751.34,1.4631,1.4631,0,0,0-.2852.5146,2.0958,2.0958,0,0,0-.0947.6455v2.92h-.85v-7.14Z"/><path d="M83.551,11.542a2.4083,2.4083,0,0,1,.48-.86,2.2586,2.2586,0,0,1,.79-.5752,2.8956,2.8956,0,0,1,2.165,0,2.2758,2.2758,0,0,1,.7852.5752,2.4232,2.4232,0,0,1,.48.86,3.615,3.615,0,0,1,0,2.125,2.4311,2.4311,0,0,1-.48.8545,2.2269,2.2269,0,0,1-.7852.57,2.96,2.96,0,0,1-2.165,0,2.2109,2.2109,0,0,1-.79-.57,2.416,2.416,0,0,1-.48-.8545,3.6045,3.6045,0,0,1,0-2.125Zm.8647,1.8994a1.7538,1.7538,0,0,0,.3452.61,1.5012,1.5012,0,0,0,.5151.375,1.5687,1.5687,0,0,0,1.25,0,1.5041,1.5041,0,0,0,.5146-.375,1.7461,1.7461,0,0,0,.3452-.61,2.8511,2.8511,0,0,0,0-1.67,1.8058,1.8058,0,0,0-.3452-.6152,1.4805,1.4805,0,0,0-.5146-.38,1.5687,1.5687,0,0,0-1.25,0,1.4778,1.4778,0,0,0-.5151.38,1.814,1.814,0,0,0-.3452.6152,2.8511,2.8511,0,0,0,0,1.67Z"/><path d="M92.8908,15.1866v-.82h-.02a1.734,1.734,0,0,1-.69.7051,2.0646,2.0646,0,0,1-.99.2256,2.3008,2.3008,0,0,1-.85-.1357,1.3512,1.3512,0,0,1-.55-.3848,1.4447,1.4447,0,0,1-.2949-.5947,3.2046,3.2046,0,0,1-.085-.7646v-3.4h.85v3.5a1.0261,1.0261,0,0,0,.28.76,1.0411,1.0411,0,0,0,.77.28,1.73,1.73,0,0,0,.6748-.12,1.2674,1.2674,0,0,0,.4751-.34,1.4666,1.4666,0,0,0,.2852-.5156,2.1,2.1,0,0,0,.0947-.6445v-2.92h.85v5.17Z"/><path d="M95.7409,10.0166v1.09h.02a2.3036,2.3036,0,0,1,.76-.93,1.9076,1.9076,0,0,1,1.14-.28v.9a2.3976,2.3976,0,0,0-.87.14,1.3789,1.3789,0,0,0-.58.41,1.6928,1.6928,0,0,0-.32.6553,3.5192,3.5192,0,0,0-.1.8848v2.3h-.85v-5.17Z"/><path d="M103.2907,10.0166v.75h-1.03v3.21a.9137.9137,0,0,0,.0254.24.2432.2432,0,0,0,.0947.14.4293.4293,0,0,0,.1948.0654,2.9086,2.9086,0,0,0,.3252.0146h.39v.75h-.65a3.0331,3.0331,0,0,1-.5654-.0449.8336.8336,0,0,1-.38-.165.7035.7035,0,0,1-.2148-.34,1.9569,1.9569,0,0,1-.07-.58v-3.29h-.88v-.75h.88v-1.55h.85v1.55Z"/><path d="M105.0007,10.0166v1.09h.02a2.3036,2.3036,0,0,1,.76-.93,1.9076,1.9076,0,0,1,1.14-.28v.9a2.3976,2.3976,0,0,0-.87.14,1.3789,1.3789,0,0,0-.58.41,1.6928,1.6928,0,0,0-.32.6553,3.5192,3.5192,0,0,0-.1.8848v2.3h-.85v-5.17Z"/><path d="M112.1408,15.167a1.2116,1.2116,0,0,1-.61.13.733.733,0,0,1-.5249-.1855.804.804,0,0,1-.1948-.6045,2.0393,2.0393,0,0,1-.8149.6045,2.8106,2.8106,0,0,1-1.67.1055,1.5537,1.5537,0,0,1-.5449-.25,1.1964,1.1964,0,0,1-.3647-.4453,1.4942,1.4942,0,0,1-.1353-.665,1.5227,1.5227,0,0,1,.15-.72,1.31,1.31,0,0,1,.395-.4551,1.8132,1.8132,0,0,1,.56-.2646,6.5936,6.5936,0,0,1,.645-.15q.35-.07.665-.1055a3.6513,3.6513,0,0,0,.5552-.1.911.911,0,0,0,.38-.19.4618.4618,0,0,0,.14-.3643.851.851,0,0,0-.105-.45.72.72,0,0,0-.27-.26,1.0752,1.0752,0,0,0-.37-.12,2.7231,2.7231,0,0,0-.4048-.03,1.7983,1.7983,0,0,0-.9.2051.87.87,0,0,0-.39.7754h-.85a1.84,1.84,0,0,1,.2-.8105,1.52,1.52,0,0,1,.48-.5352,2.0215,2.0215,0,0,1,.6846-.2949,3.6442,3.6442,0,0,1,.8252-.09,4.8546,4.8546,0,0,1,.6948.05,1.809,1.809,0,0,1,.625.2051,1.1909,1.1909,0,0,1,.45.4336,1.39,1.39,0,0,1,.17.7285v2.6543a1.9824,1.9824,0,0,0,.0352.4395c.0229.0928.1016.14.2349.14a1.0479,1.0479,0,0,0,.26-.04Zm-1.38-2.65a1.047,1.047,0,0,1-.42.1738c-.1733.0371-.355.0664-.5449.09s-.3818.05-.5752.08a2.095,2.095,0,0,0-.52.1436.9446.9446,0,0,0-.375.2842.7891.7891,0,0,0-.145.502.682.682,0,0,0,.0854.3535.7072.7072,0,0,0,.22.2344.9217.9217,0,0,0,.3149.1289,1.7665,1.7665,0,0,0,.38.04,2.0263,2.0263,0,0,0,.72-.1143,1.5322,1.5322,0,0,0,.49-.2891,1.1446,1.1446,0,0,0,.28-.3779.9506.9506,0,0,0,.09-.3838Z"/><path d="M112.98,9.087v-1.04h.85v1.04Zm.85.93v5.17h-.85v-5.17Z"/><path d="M115.95,10.0166v.82h.02a1.79,1.79,0,0,1,1.68-.94,2.2575,2.2575,0,0,1,.85.14,1.4007,1.4007,0,0,1,.55.3906,1.4447,1.4447,0,0,1,.2949.5947,3.2046,3.2046,0,0,1,.085.7646v3.4h-.85v-3.5a1.0261,1.0261,0,0,0-.28-.76,1.0411,1.0411,0,0,0-.77-.28,1.7288,1.7288,0,0,0-.6748.12,1.2635,1.2635,0,0,0-.4751.34,1.4631,1.4631,0,0,0-.2852.5146,2.0958,2.0958,0,0,0-.0947.6455v2.92h-.85v-5.17Z"/><path d="M120.76,9.087v-1.04h.85v1.04Zm.85.93v5.17h-.85v-5.17Z"/><path d="M123.73,10.0166v.82h.02a1.79,1.79,0,0,1,1.68-.94,2.2575,2.2575,0,0,1,.85.14,1.4007,1.4007,0,0,1,.55.3906,1.4447,1.4447,0,0,1,.2949.5947,3.2046,3.2046,0,0,1,.085.7646v3.4h-.85v-3.5a1.0261,1.0261,0,0,0-.28-.76,1.0411,1.0411,0,0,0-.77-.28,1.7288,1.7288,0,0,0-.6748.12,1.2635,1.2635,0,0,0-.4751.34,1.4631,1.4631,0,0,0-.2852.5146,2.0958,2.0958,0,0,0-.0947.6455v2.92h-.85v-5.17Z"/><path d="M132.37,16.6465a2.3637,2.3637,0,0,1-1.82.63,3.4937,3.4937,0,0,1-.7354-.08,2.229,2.229,0,0,1-.68-.26,1.5821,1.5821,0,0,1-.5054-.47,1.3371,1.3371,0,0,1-.22-.71h.85a.6236.6236,0,0,0,.145.39,1.0544,1.0544,0,0,0,.33.26,1.6257,1.6257,0,0,0,.4253.1455,2.3479,2.3479,0,0,0,.44.0449,1.5763,1.5763,0,0,0,.71-.1455,1.33,1.33,0,0,0,.48-.3994,1.6523,1.6523,0,0,0,.2749-.6152,3.4382,3.4382,0,0,0,.085-.79v-.34h-.02a1.4288,1.4288,0,0,1-.6646.7051,2.0745,2.0745,0,0,1-.9453.2246,2.2674,2.2674,0,0,1-1.01-.21,2.1089,2.1089,0,0,1-.72-.5645,2.4148,2.4148,0,0,1-.4351-.83,3.4251,3.4251,0,0,1-.145-1.0049,3.9261,3.9261,0,0,1,.12-.9453,2.5842,2.5842,0,0,1,.4-.88,2.1889,2.1889,0,0,1,.74-.65,2.3025,2.3025,0,0,1,1.13-.2549,1.9054,1.9054,0,0,1,.9.2148,1.5128,1.5128,0,0,1,.64.6455h.01v-.74h.8v4.7295A2.7234,2.7234,0,0,1,132.37,16.6465Zm-1.085-2.3252a1.3911,1.3911,0,0,0,.4751-.46,2.11,2.11,0,0,0,.2646-.6445,3.1311,3.1311,0,0,0,.085-.7207,2.8435,2.8435,0,0,0-.08-.67,1.88,1.88,0,0,0-.2554-.5947,1.3213,1.3213,0,0,0-.4546-.4248,1.3544,1.3544,0,0,0-.68-.16,1.4656,1.4656,0,0,0-.7.1553,1.354,1.354,0,0,0-.4746.415,1.7411,1.7411,0,0,0-.27.6,2.8969,2.8969,0,0,0-.0854.71,3.5479,3.5479,0,0,0,.07.7,1.9788,1.9788,0,0,0,.24.6348,1.344,1.344,0,0,0,.45.46,1.2932,1.2932,0,0,0,.7.1748A1.373,1.373,0,0,0,131.2853,14.3213Z"/><path d="M17.6315,26.0313a.9128.9128,0,0,0,.3149.3105,1.4223,1.4223,0,0,0,.44.165,2.5294,2.5294,0,0,0,.5049.05,3.0426,3.0426,0,0,0,.42-.03,1.5469,1.5469,0,0,0,.4048-.1094.7661.7661,0,0,0,.3052-.2354.63.63,0,0,0,.12-.3955.5666.5666,0,0,0-.25-.5,2.11,2.11,0,0,0-.625-.2744q-.375-.1055-.8149-.19a4.211,4.211,0,0,1-.8149-.24,1.6775,1.6775,0,0,1-.625-.4346,1.1306,1.1306,0,0,1-.25-.78,1.2384,1.2384,0,0,1,.1753-.67,1.43,1.43,0,0,1,.45-.4551,2.08,2.08,0,0,1,.62-.26,2.8542,2.8542,0,0,1,.6851-.085,4.1023,4.1023,0,0,1,.81.0752,1.8745,1.8745,0,0,1,.6548.26,1.344,1.344,0,0,1,.4551.5,1.9,1.9,0,0,1,.2.7852h-.85a.8652.8652,0,0,0-.13-.415.8491.8491,0,0,0-.28-.2646,1.26,1.26,0,0,0-.375-.1455,1.9125,1.9125,0,0,0-.415-.0449,2.4645,2.4645,0,0,0-.3848.03,1.2807,1.2807,0,0,0-.355.1045.7133.7133,0,0,0-.26.2.5069.5069,0,0,0-.1.3252.479.479,0,0,0,.1553.3652,1.2164,1.2164,0,0,0,.395.2393,3.3909,3.3909,0,0,0,.54.16q.3.0659.6.1348a6.2276,6.2276,0,0,1,.625.1709,2.016,2.016,0,0,1,.54.2646,1.2953,1.2953,0,0,1,.38.415,1.2241,1.2241,0,0,1,.145.62,1.4368,1.4368,0,0,1-.1953.7793,1.513,1.513,0,0,1-.51.5,2.1229,2.1229,0,0,1-.71.2656,4.2234,4.2234,0,0,1-.7852.0752,3.6027,3.6027,0,0,1-.82-.0908,1.9974,1.9974,0,0,1-.69-.2949,1.4948,1.4948,0,0,1-.48-.54,1.8677,1.8677,0,0,1-.2-.8145h.85A.9513.9513,0,0,0,17.6315,26.0313Z"/><path d="M25.6413,26.8565a2.3426,2.3426,0,0,1-1.46.44,2.6634,2.6634,0,0,1-1.0747-.2,2.1194,2.1194,0,0,1-.7651-.5605,2.37,2.37,0,0,1-.4648-.8594,4.1388,4.1388,0,0,1-.1753-1.09,3.1059,3.1059,0,0,1,.18-1.08,2.5809,2.5809,0,0,1,.5049-.8506,2.2926,2.2926,0,0,1,.77-.56,2.3428,2.3428,0,0,1,.9751-.2,2.1183,2.1183,0,0,1,1.145.2852,2.265,2.265,0,0,1,.73.7246,2.8715,2.8715,0,0,1,.38.96,4.109,4.109,0,0,1,.085.99h-3.87a2.0662,2.0662,0,0,0,.08.6455,1.4685,1.4685,0,0,0,.29.54,1.4382,1.4382,0,0,0,.51.375,1.7684,1.7684,0,0,0,.73.14,1.4685,1.4685,0,0,0,.8848-.25,1.2092,1.2092,0,0,0,.4551-.76h.84A2.0633,2.0633,0,0,1,25.6413,26.8565Zm-.2046-3.32a1.4357,1.4357,0,0,0-.77-.7744,1.4477,1.4477,0,0,0-.585-.1152,1.4726,1.4726,0,0,0-.5952.1152,1.37,1.37,0,0,0-.4551.3145,1.5167,1.5167,0,0,0-.3.4658,1.7593,1.7593,0,0,0-.13.5645h2.97A1.7522,1.7522,0,0,0,25.4367,23.5362Z"/><path d="M28.0017,26.0313a.9128.9128,0,0,0,.3149.3105,1.4223,1.4223,0,0,0,.44.165,2.5294,2.5294,0,0,0,.5049.05,3.0426,3.0426,0,0,0,.42-.03,1.5469,1.5469,0,0,0,.4048-.1094.7661.7661,0,0,0,.3052-.2354.63.63,0,0,0,.12-.3955.5666.5666,0,0,0-.25-.5,2.11,2.11,0,0,0-.625-.2744q-.375-.1055-.8149-.19a4.211,4.211,0,0,1-.8149-.24,1.6775,1.6775,0,0,1-.625-.4346,1.1306,1.1306,0,0,1-.25-.78,1.2384,1.2384,0,0,1,.1753-.67,1.43,1.43,0,0,1,.45-.4551,2.08,2.08,0,0,1,.62-.26,2.8542,2.8542,0,0,1,.6851-.085,4.1023,4.1023,0,0,1,.81.0752,1.8745,1.8745,0,0,1,.6548.26,1.344,1.344,0,0,1,.4551.5,1.9,1.9,0,0,1,.2.7852h-.85a.8652.8652,0,0,0-.13-.415.8491.8491,0,0,0-.28-.2646,1.26,1.26,0,0,0-.375-.1455,1.9125,1.9125,0,0,0-.415-.0449,2.4645,2.4645,0,0,0-.3848.03,1.2807,1.2807,0,0,0-.355.1045.7133.7133,0,0,0-.26.2.5069.5069,0,0,0-.1.3252.479.479,0,0,0,.1553.3652,1.2164,1.2164,0,0,0,.395.2393,3.3909,3.3909,0,0,0,.54.16q.3.0659.6.1348a6.2276,6.2276,0,0,1,.625.1709,2.016,2.016,0,0,1,.54.2646,1.2953,1.2953,0,0,1,.38.415,1.2241,1.2241,0,0,1,.145.62,1.4368,1.4368,0,0,1-.1953.7793,1.513,1.513,0,0,1-.51.5,2.1229,2.1229,0,0,1-.71.2656,4.2234,4.2234,0,0,1-.7852.0752,3.6027,3.6027,0,0,1-.82-.0908,1.9974,1.9974,0,0,1-.69-.2949,1.4948,1.4948,0,0,1-.48-.54,1.8677,1.8677,0,0,1-.2-.8145h.85A.9513.9513,0,0,0,28.0017,26.0313Z"/><path d="M33.0017,26.0313a.9128.9128,0,0,0,.3149.3105,1.4223,1.4223,0,0,0,.44.165,2.5294,2.5294,0,0,0,.5049.05,3.0426,3.0426,0,0,0,.42-.03,1.5469,1.5469,0,0,0,.4048-.1094.7661.7661,0,0,0,.3052-.2354.63.63,0,0,0,.12-.3955.5666.5666,0,0,0-.25-.5,2.11,2.11,0,0,0-.625-.2744q-.375-.1055-.8149-.19a4.211,4.211,0,0,1-.8149-.24,1.6775,1.6775,0,0,1-.625-.4346,1.1306,1.1306,0,0,1-.25-.78,1.2384,1.2384,0,0,1,.1753-.67,1.43,1.43,0,0,1,.45-.4551,2.08,2.08,0,0,1,.62-.26,2.8542,2.8542,0,0,1,.6851-.085,4.1023,4.1023,0,0,1,.81.0752,1.8745,1.8745,0,0,1,.6548.26,1.344,1.344,0,0,1,.4551.5,1.9,1.9,0,0,1,.2.7852h-.85a.8652.8652,0,0,0-.13-.415.8491.8491,0,0,0-.28-.2646,1.26,1.26,0,0,0-.375-.1455,1.9125,1.9125,0,0,0-.415-.0449,2.4645,2.4645,0,0,0-.3848.03,1.2807,1.2807,0,0,0-.355.1045.7133.7133,0,0,0-.26.2.5069.5069,0,0,0-.1.3252.479.479,0,0,0,.1553.3652,1.2164,1.2164,0,0,0,.395.2393,3.3909,3.3909,0,0,0,.54.16q.3.0659.6.1348a6.2276,6.2276,0,0,1,.625.1709,2.016,2.016,0,0,1,.54.2646,1.2953,1.2953,0,0,1,.38.415,1.2241,1.2241,0,0,1,.145.62,1.4368,1.4368,0,0,1-.1953.7793,1.513,1.513,0,0,1-.51.5,2.1229,2.1229,0,0,1-.71.2656,4.2234,4.2234,0,0,1-.7852.0752,3.6027,3.6027,0,0,1-.82-.0908,1.9974,1.9974,0,0,1-.69-.2949,1.4948,1.4948,0,0,1-.48-.54,1.8677,1.8677,0,0,1-.2-.8145h.85A.9513.9513,0,0,0,33.0017,26.0313Z"/><path d="M37.4016,21.087v-1.04h.85v1.04Zm.85.93v5.17h-.85v-5.17Z"/><path d="M39.4514,23.542a2.4083,2.4083,0,0,1,.48-.86,2.2586,2.2586,0,0,1,.79-.5752,2.8956,2.8956,0,0,1,2.165,0,2.2758,2.2758,0,0,1,.7852.5752,2.4232,2.4232,0,0,1,.48.86,3.615,3.615,0,0,1,0,2.125,2.4311,2.4311,0,0,1-.48.8545,2.2269,2.2269,0,0,1-.7852.57,2.96,2.96,0,0,1-2.165,0,2.2109,2.2109,0,0,1-.79-.57,2.416,2.416,0,0,1-.48-.8545,3.6045,3.6045,0,0,1,0-2.125Zm.8647,1.8994a1.7538,1.7538,0,0,0,.3452.61,1.5012,1.5012,0,0,0,.5151.375,1.5687,1.5687,0,0,0,1.25,0,1.5041,1.5041,0,0,0,.5146-.375,1.7461,1.7461,0,0,0,.3452-.61,2.8511,2.8511,0,0,0,0-1.67,1.8058,1.8058,0,0,0-.3452-.6152,1.4805,1.4805,0,0,0-.5146-.38,1.5687,1.5687,0,0,0-1.25,0,1.4778,1.4778,0,0,0-.5151.38,1.814,1.814,0,0,0-.3452.6152,2.8511,2.8511,0,0,0,0,1.67Z"/><path d="M46.111,22.0166v.82h.02a1.79,1.79,0,0,1,1.68-.94,2.2575,2.2575,0,0,1,.85.14,1.4007,1.4007,0,0,1,.55.3906,1.4447,1.4447,0,0,1,.2949.5947,3.2046,3.2046,0,0,1,.085.7646v3.4h-.85v-3.5a1.0261,1.0261,0,0,0-.28-.76,1.0411,1.0411,0,0,0-.77-.28,1.7288,1.7288,0,0,0-.6748.12,1.2635,1.2635,0,0,0-.4751.34,1.4631,1.4631,0,0,0-.2852.5146,2.0958,2.0958,0,0,0-.0947.6455v2.92h-.85v-5.17Z"/><path d="M57.8708,27.1866l-1.05-4.11h-.02l-1.04,4.11h-.92l-1.66-5.17h.94l1.17,4.2295h.02l1.04-4.2295h.93l1.08,4.2295h.02l1.16-4.2295h.88l-1.65,5.17Z"/><path d="M61.281,21.087v-1.04h.85v1.04Zm.85.93v5.17h-.85v-5.17Z"/><path d="M65.6608,22.0166v.75h-1.03v3.21a.9137.9137,0,0,0,.0254.24.2432.2432,0,0,0,.0947.14.4293.4293,0,0,0,.1948.0654,2.9086,2.9086,0,0,0,.3252.0146h.39v.75h-.65a3.0331,3.0331,0,0,1-.5654-.0449.8336.8336,0,0,1-.38-.165.7035.7035,0,0,1-.2148-.34,1.9569,1.9569,0,0,1-.07-.58v-3.29h-.88v-.75h.88v-1.55h.85v1.55Z"/><path d="M67.4509,20.0469v2.7295h.02a1.1357,1.1357,0,0,1,.28-.4053,1.6173,1.6173,0,0,1,.4048-.27,2.0834,2.0834,0,0,1,.47-.1553,2.3781,2.3781,0,0,1,.4751-.05,2.2575,2.2575,0,0,1,.85.14,1.4007,1.4007,0,0,1,.55.3906,1.4447,1.4447,0,0,1,.2949.5947,3.2046,3.2046,0,0,1,.085.7646v3.4h-.85v-3.5a1.0261,1.0261,0,0,0-.28-.76,1.0411,1.0411,0,0,0-.77-.28,1.7288,1.7288,0,0,0-.6748.12,1.2635,1.2635,0,0,0-.4751.34,1.4631,1.4631,0,0,0-.2852.5146,2.0958,2.0958,0,0,0-.0947.6455v2.92h-.85v-7.14Z"/><path d="M78.656,21.0215a2.02,2.02,0,0,0-1.2148-.3447,2.9034,2.9034,0,0,0-.59.06,1.5556,1.5556,0,0,0-.5146.2,1.0572,1.0572,0,0,0-.36.375,1.16,1.16,0,0,0-.1348.585.7456.7456,0,0,0,.1948.5352,1.4507,1.4507,0,0,0,.52.335,4.3526,4.3526,0,0,0,.7354.2148q.4094.085.835.1855t.835.2344a2.7573,2.7573,0,0,1,.7349.3652,1.7393,1.7393,0,0,1,.52.58,2.0337,2.0337,0,0,1-.06,1.8545,2.0923,2.0923,0,0,1-.6548.66,2.8491,2.8491,0,0,1-.895.37,4.3729,4.3729,0,0,1-.9854.1152,4.1612,4.1612,0,0,1-1.1348-.15,2.7788,2.7788,0,0,1-.94-.4551,2.156,2.156,0,0,1-.64-.7793,2.5141,2.5141,0,0,1-.2349-1.125h.9a1.6108,1.6108,0,0,0,.1748.7744,1.588,1.588,0,0,0,.46.5352,1.9452,1.9452,0,0,0,.665.31,3.024,3.024,0,0,0,.78.1006,3.5451,3.5451,0,0,0,.645-.0605,1.9031,1.9031,0,0,0,.585-.2041,1.0995,1.0995,0,0,0,.58-1.0352.8951.8951,0,0,0-.1953-.6006,1.4313,1.4313,0,0,0-.52-.375,3.7655,3.7655,0,0,0-.7349-.2344q-.41-.0908-.835-.1855t-.835-.22a2.999,2.999,0,0,1-.7349-.33,1.5787,1.5787,0,0,1-.52-.53,1.5548,1.5548,0,0,1-.1953-.8145,1.8907,1.8907,0,0,1,.22-.9355,1.9214,1.9214,0,0,1,.585-.6494,2.6183,2.6183,0,0,1,.83-.38,3.6361,3.6361,0,0,1,.9551-.125,3.8086,3.8086,0,0,1,1.02.13,2.2876,2.2876,0,0,1,.8247.41,1.9735,1.9735,0,0,1,.56.7041,2.5273,2.5273,0,0,1,.2251,1.0156h-.9A1.4905,1.4905,0,0,0,78.656,21.0215Z"/><path d="M83.6311,22.0166v.75h-1.03v3.21a.9137.9137,0,0,0,.0254.24.2432.2432,0,0,0,.0947.14.4293.4293,0,0,0,.1948.0654,2.9086,2.9086,0,0,0,.3252.0146h.39v.75h-.65a3.0331,3.0331,0,0,1-.5654-.0449.8336.8336,0,0,1-.38-.165.7035.7035,0,0,1-.2148-.34,1.9569,1.9569,0,0,1-.07-.58v-3.29h-.88v-.75h.88v-1.55h.85v1.55Z"/><path d="M88.23,26.8565a2.3426,2.3426,0,0,1-1.46.44,2.6634,2.6634,0,0,1-1.0747-.2,2.1194,2.1194,0,0,1-.7651-.5605,2.37,2.37,0,0,1-.4648-.8594,4.1388,4.1388,0,0,1-.1753-1.09,3.1059,3.1059,0,0,1,.18-1.08,2.5809,2.5809,0,0,1,.5049-.8506,2.2926,2.2926,0,0,1,.77-.56,2.3428,2.3428,0,0,1,.9751-.2,2.1183,2.1183,0,0,1,1.145.2852,2.265,2.265,0,0,1,.73.7246,2.8715,2.8715,0,0,1,.38.96,4.109,4.109,0,0,1,.085.99H85.19a2.0662,2.0662,0,0,0,.08.6455,1.4685,1.4685,0,0,0,.29.54,1.4382,1.4382,0,0,0,.51.375,1.7684,1.7684,0,0,0,.73.14,1.4685,1.4685,0,0,0,.8848-.25,1.2092,1.2092,0,0,0,.4551-.76h.84A2.0633,2.0633,0,0,1,88.23,26.8565Zm-.2046-3.32a1.4357,1.4357,0,0,0-.77-.7744,1.4477,1.4477,0,0,0-.585-.1152,1.4726,1.4726,0,0,0-.5952.1152,1.37,1.37,0,0,0-.4551.3145,1.5167,1.5167,0,0,0-.3.4658,1.7593,1.7593,0,0,0-.13.5645h2.97A1.7522,1.7522,0,0,0,88.0256,23.5362Z"/><path d="M90.8205,22.0166v.7h.02a1.27,1.27,0,0,1,.66-.625,2.4643,2.4643,0,0,1,.99-.1953,2.3335,2.3335,0,0,1,1.0449.22,2.1363,2.1363,0,0,1,.74.5957,2.6378,2.6378,0,0,1,.4448.8643,3.5357,3.5357,0,0,1,.15,1.04,3.642,3.642,0,0,1-.145,1.04,2.4434,2.4434,0,0,1-.44.8555,2.0862,2.0862,0,0,1-.74.5752,2.4066,2.4066,0,0,1-1.0352.21,2.5835,2.5835,0,0,1-.4248-.04,2.44,2.44,0,0,1-.4653-.13,1.8318,1.8318,0,0,1-.4351-.2451,1.359,1.359,0,0,1-.3447-.3857h-.02v2.66h-.85v-7.14Zm3.0552,1.835a1.9113,1.9113,0,0,0-.29-.6152,1.4262,1.4262,0,0,0-.5-.43,1.5228,1.5228,0,0,0-.7153-.16,1.4012,1.4012,0,0,0-1.22.6152,1.8465,1.8465,0,0,0-.2749.625,3.0278,3.0278,0,0,0,.0049,1.4443,1.8053,1.8053,0,0,0,.2852.625,1.4492,1.4492,0,0,0,.5049.4355,1.5729,1.5729,0,0,0,.75.165,1.4546,1.4546,0,0,0,.7349-.17,1.3683,1.3683,0,0,0,.4751-.45,1.9558,1.9558,0,0,0,.26-.64,3.4144,3.4144,0,0,0,.08-.74A2.6538,2.6538,0,0,0,93.8757,23.8516Z"/><path d="M96.72,20.0469v2.7295h.02a1.1357,1.1357,0,0,1,.28-.4053,1.6173,1.6173,0,0,1,.4048-.27,2.0834,2.0834,0,0,1,.47-.1553,2.3781,2.3781,0,0,1,.4751-.05,2.2575,2.2575,0,0,1,.85.14,1.4007,1.4007,0,0,1,.55.3906,1.4447,1.4447,0,0,1,.2949.5947,3.2046,3.2046,0,0,1,.085.7646v3.4H99.3v-3.5a1.0261,1.0261,0,0,0-.28-.76,1.0411,1.0411,0,0,0-.77-.28,1.7288,1.7288,0,0,0-.6748.12,1.2635,1.2635,0,0,0-.4751.34,1.4631,1.4631,0,0,0-.2852.5146,2.0958,2.0958,0,0,0-.0947.6455v2.92h-.85v-7.14Z"/><path d="M106.01,27.167a1.2116,1.2116,0,0,1-.61.13.733.733,0,0,1-.5249-.1855.804.804,0,0,1-.1948-.6045,2.0393,2.0393,0,0,1-.8149.6045,2.8106,2.8106,0,0,1-1.67.1055,1.5537,1.5537,0,0,1-.5449-.25,1.1964,1.1964,0,0,1-.3647-.4453,1.4942,1.4942,0,0,1-.1353-.665,1.5227,1.5227,0,0,1,.15-.72,1.31,1.31,0,0,1,.395-.4551,1.8132,1.8132,0,0,1,.56-.2646,6.5936,6.5936,0,0,1,.645-.15q.35-.07.665-.1055a3.6513,3.6513,0,0,0,.5552-.1.911.911,0,0,0,.38-.19.4618.4618,0,0,0,.14-.3643.851.851,0,0,0-.105-.45.72.72,0,0,0-.27-.26,1.0752,1.0752,0,0,0-.37-.12,2.7231,2.7231,0,0,0-.4048-.03,1.7983,1.7983,0,0,0-.9.2051.87.87,0,0,0-.39.7754h-.85a1.84,1.84,0,0,1,.2-.8105,1.52,1.52,0,0,1,.48-.5352,2.0215,2.0215,0,0,1,.6846-.2949,3.6442,3.6442,0,0,1,.8252-.09,4.8546,4.8546,0,0,1,.6948.05,1.809,1.809,0,0,1,.625.2051,1.1909,1.1909,0,0,1,.45.4336,1.39,1.39,0,0,1,.17.7285v2.6543a1.9824,1.9824,0,0,0,.0352.4395c.0229.0928.1016.14.2349.14a1.0479,1.0479,0,0,0,.26-.04Zm-1.38-2.65a1.047,1.047,0,0,1-.42.1738c-.1733.0371-.355.0664-.5449.09s-.3818.05-.5752.08a2.095,2.095,0,0,0-.52.1436.9446.9446,0,0,0-.375.2842.7891.7891,0,0,0-.145.502.682.682,0,0,0,.0854.3535.7072.7072,0,0,0,.22.2344.9217.9217,0,0,0,.3149.1289,1.7665,1.7665,0,0,0,.38.04,2.0263,2.0263,0,0,0,.72-.1143,1.5322,1.5322,0,0,0,.49-.2891,1.1446,1.1446,0,0,0,.28-.3779.9506.9506,0,0,0,.09-.3838Z"/><path d="M107.6,22.0166v.82h.02a1.79,1.79,0,0,1,1.68-.94,2.2575,2.2575,0,0,1,.85.14,1.4007,1.4007,0,0,1,.55.3906,1.4447,1.4447,0,0,1,.2949.5947,3.2046,3.2046,0,0,1,.085.7646v3.4h-.85v-3.5a1.0261,1.0261,0,0,0-.28-.76,1.0411,1.0411,0,0,0-.77-.28,1.7288,1.7288,0,0,0-.6748.12,1.2635,1.2635,0,0,0-.4751.34,1.4631,1.4631,0,0,0-.2852.5146,2.0958,2.0958,0,0,0-.0947.6455v2.92h-.85v-5.17Z"/><path d="M112.41,21.087v-1.04h.85v1.04Zm.85.93v5.17h-.85v-5.17Z"/><path d="M118.24,26.8565a2.3426,2.3426,0,0,1-1.46.44,2.6634,2.6634,0,0,1-1.0747-.2,2.1194,2.1194,0,0,1-.7651-.5605,2.37,2.37,0,0,1-.4648-.8594,4.1388,4.1388,0,0,1-.1753-1.09,3.1059,3.1059,0,0,1,.18-1.08,2.5809,2.5809,0,0,1,.5049-.8506,2.2926,2.2926,0,0,1,.77-.56,2.3428,2.3428,0,0,1,.9751-.2,2.1183,2.1183,0,0,1,1.145.2852,2.265,2.265,0,0,1,.73.7246,2.8715,2.8715,0,0,1,.38.96,4.109,4.109,0,0,1,.085.99H115.2a2.0662,2.0662,0,0,0,.08.6455,1.4685,1.4685,0,0,0,.29.54,1.4382,1.4382,0,0,0,.51.375,1.7684,1.7684,0,0,0,.73.14,1.4685,1.4685,0,0,0,.8848-.25,1.2092,1.2092,0,0,0,.4551-.76h.84A2.0633,2.0633,0,0,1,118.24,26.8565Zm-.2046-3.32a1.4357,1.4357,0,0,0-.77-.7744,1.4477,1.4477,0,0,0-.585-.1152,1.4726,1.4726,0,0,0-.5952.1152,1.37,1.37,0,0,0-.4551.3145,1.5167,1.5167,0,0,0-.3.4658,1.7593,1.7593,0,0,0-.13.5645h2.97A1.7522,1.7522,0,0,0,118.0353,23.5362Z"/><path d="M122.61,23.542a2.4083,2.4083,0,0,1,.48-.86,2.2586,2.2586,0,0,1,.79-.5752,2.8956,2.8956,0,0,1,2.165,0,2.2758,2.2758,0,0,1,.7852.5752,2.4232,2.4232,0,0,1,.48.86,3.615,3.615,0,0,1,0,2.125,2.4311,2.4311,0,0,1-.48.8545,2.2269,2.2269,0,0,1-.7852.57,2.96,2.96,0,0,1-2.165,0,2.2109,2.2109,0,0,1-.79-.57,2.416,2.416,0,0,1-.48-.8545,3.6045,3.6045,0,0,1,0-2.125Zm.8647,1.8994a1.7538,1.7538,0,0,0,.3452.61,1.5012,1.5012,0,0,0,.5151.375,1.5687,1.5687,0,0,0,1.25,0,1.5041,1.5041,0,0,0,.5146-.375,1.7461,1.7461,0,0,0,.3452-.61,2.8511,2.8511,0,0,0,0-1.67,1.8058,1.8058,0,0,0-.3452-.6152,1.4805,1.4805,0,0,0-.5146-.38,1.5687,1.5687,0,0,0-1.25,0,1.4778,1.4778,0,0,0-.5151.38,1.814,1.814,0,0,0-.3452.6152,2.8511,2.8511,0,0,0,0,1.67Z"/><path d="M129.27,22.0166v.82h.02a1.79,1.79,0,0,1,1.68-.94,2.2575,2.2575,0,0,1,.85.14,1.4007,1.4007,0,0,1,.55.3906,1.4447,1.4447,0,0,1,.2949.5947,3.2046,3.2046,0,0,1,.085.7646v3.4h-.85v-3.5a1.0261,1.0261,0,0,0-.28-.76,1.0411,1.0411,0,0,0-.77-.28,1.7288,1.7288,0,0,0-.6748.12,1.2635,1.2635,0,0,0-.4751.34,1.4631,1.4631,0,0,0-.2852.5146,2.0958,2.0958,0,0,0-.0947.6455v2.92h-.85v-5.17Z"/><path d="M22.5817,39.1866l-1.63-6h-.02l-1.65,6h-.99l-1.83-7.14h.97l1.4,5.9395h.02l1.6-5.9395h1.03l1.58,5.9395h.02l1.45-5.9395h.95l-1.91,7.14Z"/><path d="M29.3312,38.8565a2.3426,2.3426,0,0,1-1.46.44,2.6634,2.6634,0,0,1-1.0747-.2,2.1194,2.1194,0,0,1-.7651-.5605,2.37,2.37,0,0,1-.4648-.8594,4.1388,4.1388,0,0,1-.1753-1.09,3.1059,3.1059,0,0,1,.18-1.08,2.5809,2.5809,0,0,1,.5049-.8506,2.2926,2.2926,0,0,1,.77-.56,2.3428,2.3428,0,0,1,.9751-.2,2.1183,2.1183,0,0,1,1.145.2852,2.265,2.265,0,0,1,.73.7246,2.8715,2.8715,0,0,1,.38.96,4.109,4.109,0,0,1,.085.99h-3.87a2.0662,2.0662,0,0,0,.08.6455,1.4685,1.4685,0,0,0,.29.54,1.4382,1.4382,0,0,0,.51.375,1.7684,1.7684,0,0,0,.73.14,1.4685,1.4685,0,0,0,.8848-.25,1.2092,1.2092,0,0,0,.4551-.76h.84A2.0633,2.0633,0,0,1,29.3312,38.8565Zm-.2046-3.32a1.4357,1.4357,0,0,0-.77-.7744,1.4477,1.4477,0,0,0-.585-.1152,1.4726,1.4726,0,0,0-.5952.1152,1.37,1.37,0,0,0-.4551.3145,1.5167,1.5167,0,0,0-.3.4658,1.7593,1.7593,0,0,0-.13.5645h2.97A1.7522,1.7522,0,0,0,29.1267,35.5362Z"/><path d="M34.8117,39.1866v-.7h-.02a1.252,1.252,0,0,1-.66.62,2.5134,2.5134,0,0,1-.99.19,2.3356,2.3356,0,0,1-1.0454-.2207,2.1416,2.1416,0,0,1-.74-.59,2.5673,2.5673,0,0,1-.4453-.8594,3.5519,3.5519,0,0,1-.15-1.04,3.642,3.642,0,0,1,.145-1.04,2.4434,2.4434,0,0,1,.44-.8555,2.13,2.13,0,0,1,.74-.58,2.3492,2.3492,0,0,1,1.0352-.2148,2.5453,2.5453,0,0,1,.43.04,2.1564,2.1564,0,0,1,.46.1348,1.96,1.96,0,0,1,.4351.25,1.391,1.391,0,0,1,.3452.3848h.02V32.0469h.85v7.14Zm-3.0552-1.835a1.9211,1.9211,0,0,0,.29.6152,1.4177,1.4177,0,0,0,.5.43,1.5194,1.5194,0,0,0,.7148.16,1.4029,1.4029,0,0,0,1.22-.6152,1.8658,1.8658,0,0,0,.2749-.625,3.0318,3.0318,0,0,0-.0049-1.4453,1.8312,1.8312,0,0,0-.2852-.625,1.4612,1.4612,0,0,0-.5049-.4346,1.5729,1.5729,0,0,0-.75-.165,1.46,1.46,0,0,0-.73.17,1.3543,1.3543,0,0,0-.48.45,1.9565,1.9565,0,0,0-.26.64,3.4144,3.4144,0,0,0-.08.74A2.64,2.64,0,0,0,31.7565,37.3516Z"/><path d="M38.2712,38.0762V39.087a1.79,1.79,0,0,1-.26.9795,1.4176,1.4176,0,0,1-.84.58v-.5a.7554.7554,0,0,0,.2852-.1748,1.03,1.03,0,0,0,.1851-.25.9657.9657,0,0,0,.0947-.2754.9987.9987,0,0,0,.0151-.26h-.59v-1.11Z"/><path d="M43.9914,32.0469l2.25,6,2.26-6h1.3v7.14h-.9v-5.94h-.02l-2.23,5.94h-.81l-2.23-5.94h-.02v5.94h-.9v-7.14Z"/><path d="M55.8215,39.167a1.2116,1.2116,0,0,1-.61.13.733.733,0,0,1-.5249-.1855.804.804,0,0,1-.1948-.6045,2.0393,2.0393,0,0,1-.8149.6045,2.8106,2.8106,0,0,1-1.67.1055,1.5537,1.5537,0,0,1-.5449-.25,1.1964,1.1964,0,0,1-.3647-.4453,1.4942,1.4942,0,0,1-.1353-.665,1.5227,1.5227,0,0,1,.15-.72,1.31,1.31,0,0,1,.395-.4551,1.8132,1.8132,0,0,1,.56-.2646,6.5937,6.5937,0,0,1,.645-.15q.35-.07.665-.1055a3.6513,3.6513,0,0,0,.5552-.1.911.911,0,0,0,.38-.19.4618.4618,0,0,0,.14-.3643.851.851,0,0,0-.105-.45.72.72,0,0,0-.27-.26,1.0752,1.0752,0,0,0-.37-.12,2.7231,2.7231,0,0,0-.4048-.03,1.7983,1.7983,0,0,0-.9.2051.87.87,0,0,0-.39.7754h-.85a1.84,1.84,0,0,1,.2-.8105,1.52,1.52,0,0,1,.48-.5352,2.0215,2.0215,0,0,1,.6846-.2949,3.6442,3.6442,0,0,1,.8252-.09,4.8546,4.8546,0,0,1,.6948.05,1.809,1.809,0,0,1,.625.2051,1.1909,1.1909,0,0,1,.45.4336,1.39,1.39,0,0,1,.17.7285v2.6543a1.9824,1.9824,0,0,0,.0352.4395c.0229.0928.1016.14.2349.14a1.0479,1.0479,0,0,0,.26-.04Zm-1.38-2.65a1.047,1.047,0,0,1-.42.1738c-.1733.0371-.355.0664-.5449.09s-.3818.05-.5752.08a2.095,2.095,0,0,0-.52.1436.9446.9446,0,0,0-.375.2842.7891.7891,0,0,0-.145.502.682.682,0,0,0,.0854.3535.7072.7072,0,0,0,.22.2344.9217.9217,0,0,0,.3149.1289,1.7665,1.7665,0,0,0,.38.04,2.0263,2.0263,0,0,0,.72-.1143,1.5322,1.5322,0,0,0,.49-.2891,1.1446,1.1446,0,0,0,.28-.3779.9506.9506,0,0,0,.09-.3838Z"/><path d="M57.3811,34.0166v1.09h.02a2.3036,2.3036,0,0,1,.76-.93,1.9076,1.9076,0,0,1,1.14-.28v.9a2.3976,2.3976,0,0,0-.87.14,1.3789,1.3789,0,0,0-.58.41,1.6928,1.6928,0,0,0-.32.6553,3.5192,3.5192,0,0,0-.1.8848v2.3h-.85v-5.17Z"/><path d="M64.7907,39.1866v-5.08h-1.84v-.68a4.3241,4.3241,0,0,0,.7-.0557,1.9111,1.9111,0,0,0,.6152-.2041,1.4147,1.4147,0,0,0,.4648-.41,1.5679,1.5679,0,0,0,.26-.66h.65v7.09Z"/><path d="M69.4006,38.2764a1.4178,1.4178,0,0,0,.88.28,1.269,1.269,0,0,0,1.17-.6748,4.525,4.525,0,0,0,.43-2.0654l-.02-.02a1.854,1.854,0,0,1-1.64.9795,2.4857,2.4857,0,0,1-.96-.1748,1.9608,1.9608,0,0,1-.7051-.4854,2.0215,2.0215,0,0,1-.43-.75,3.0489,3.0489,0,0,1-.145-.96,2.4946,2.4946,0,0,1,.17-.9346,2.1147,2.1147,0,0,1,.48-.73,2.1881,2.1881,0,0,1,.74-.4746,2.5357,2.5357,0,0,1,.94-.17,2.8038,2.8038,0,0,1,.94.1553,1.7983,1.7983,0,0,1,.77.5342,2.766,2.766,0,0,1,.5249,1.0352,5.9389,5.9389,0,0,1,.1953,1.665,5.59,5.59,0,0,1-.585,2.8252,2.0182,2.0182,0,0,1-1.875.9854,2.37,2.37,0,0,1-1.48-.45,1.8249,1.8249,0,0,1-.67-1.37h.85A1.081,1.081,0,0,0,69.4006,38.2764Zm2.2354-4.43a1.58,1.58,0,0,0-.28-.5156,1.33,1.33,0,0,0-.4551-.3545,1.4312,1.4312,0,0,0-.63-.13,1.373,1.373,0,0,0-.645.14,1.2073,1.2073,0,0,0-.43.375,1.5976,1.5976,0,0,0-.24.5352,2.6,2.6,0,0,0-.0747.63,1.5307,1.5307,0,0,0,.105.5605,1.5907,1.5907,0,0,0,.29.4795,1.4031,1.4031,0,0,0,.44.335,1.2559,1.2559,0,0,0,.5649.125,1.4032,1.4032,0,0,0,.6-.125,1.3771,1.3771,0,0,0,.46-.34,1.4978,1.4978,0,0,0,.29-.5,1.7932,1.7932,0,0,0,.1-.5947A1.9872,1.9872,0,0,0,71.6359,33.8467Z"/><path d="M81.2014,39.167a1.2116,1.2116,0,0,1-.61.13.733.733,0,0,1-.5249-.1855.804.804,0,0,1-.1948-.6045,2.0393,2.0393,0,0,1-.8149.6045,2.8106,2.8106,0,0,1-1.67.1055,1.5537,1.5537,0,0,1-.5449-.25,1.1964,1.1964,0,0,1-.3647-.4453,1.4942,1.4942,0,0,1-.1353-.665,1.5227,1.5227,0,0,1,.15-.72,1.31,1.31,0,0,1,.395-.4551,1.8132,1.8132,0,0,1,.56-.2646,6.5937,6.5937,0,0,1,.645-.15q.35-.07.665-.1055a3.6513,3.6513,0,0,0,.5552-.1.911.911,0,0,0,.38-.19.4618.4618,0,0,0,.14-.3643.851.851,0,0,0-.105-.45.72.72,0,0,0-.27-.26,1.0752,1.0752,0,0,0-.37-.12,2.7231,2.7231,0,0,0-.4048-.03,1.7983,1.7983,0,0,0-.9.2051.87.87,0,0,0-.39.7754h-.85a1.84,1.84,0,0,1,.2-.8105,1.52,1.52,0,0,1,.48-.5352,2.0215,2.0215,0,0,1,.6846-.2949,3.6442,3.6442,0,0,1,.8252-.09,4.8546,4.8546,0,0,1,.6948.05,1.809,1.809,0,0,1,.625.2051,1.1909,1.1909,0,0,1,.45.4336,1.39,1.39,0,0,1,.17.7285v2.6543a1.9824,1.9824,0,0,0,.0352.4395c.0229.0928.1016.14.2349.14a1.0479,1.0479,0,0,0,.26-.04Zm-1.38-2.65a1.047,1.047,0,0,1-.42.1738c-.1733.0371-.355.0664-.5449.09s-.3818.05-.5752.08a2.095,2.095,0,0,0-.52.1436.9446.9446,0,0,0-.375.2842.7891.7891,0,0,0-.145.502.682.682,0,0,0,.0854.3535.7072.7072,0,0,0,.22.2344.9217.9217,0,0,0,.3149.1289,1.7665,1.7665,0,0,0,.38.04,2.0263,2.0263,0,0,0,.72-.1143,1.5322,1.5322,0,0,0,.49-.2891,1.1446,1.1446,0,0,0,.28-.3779.9506.9506,0,0,0,.09-.3838Z"/><path d="M84.2009,34.0166v.75h-1.03v3.21a.9137.9137,0,0,0,.0254.24.2432.2432,0,0,0,.0947.14.4293.4293,0,0,0,.1948.0654,2.9086,2.9086,0,0,0,.3252.0146h.39v.75h-.65a3.0331,3.0331,0,0,1-.5654-.0449.8336.8336,0,0,1-.38-.165.7035.7035,0,0,1-.2148-.34,1.9569,1.9569,0,0,1-.07-.58v-3.29h-.88v-.75h.88v-1.55h.85v1.55Z"/><path d="M92.43,36.7764v.75h-.96v1.66h-.8v-1.66H87.56v-.82l3.23-4.6094h.68v4.68Zm-1.76-3.47h-.02l-2.36,3.47h2.38Z"/><path d="M93.6706,35.127v-1.11h1.11v1.11Zm1.11,2.9492v1.11h-1.11v-1.11Z"/><path d="M97.8908,35.1465h.28a1.7574,1.7574,0,0,0,.5151-.0752,1.3078,1.3078,0,0,0,.43-.22,1.0618,1.0618,0,0,0,.2949-.3652,1.104,1.104,0,0,0,.11-.5,1.0233,1.0233,0,0,0-.36-.8545,1.4029,1.4029,0,0,0-.9-.2852,1.3406,1.3406,0,0,0-.5952.125,1.1918,1.1918,0,0,0-.42.335,1.4108,1.4108,0,0,0-.2451.49,2.138,2.138,0,0,0-.08.59h-.85a3.2124,3.2124,0,0,1,.165-.9307,2.076,2.076,0,0,1,.4146-.72,1.8611,1.8611,0,0,1,.6753-.47,2.4,2.4,0,0,1,.9351-.17,3.0313,3.0313,0,0,1,.855.1152,1.9763,1.9763,0,0,1,.6851.3447,1.5778,1.5778,0,0,1,.4546.59,2.02,2.02,0,0,1,.165.85,1.3732,1.3732,0,0,1-.28.8506,1.7862,1.7862,0,0,1-.7.56v.0205a1.4777,1.4777,0,0,1,.9653.6094,1.9481,1.9481,0,0,1,.3149,1.11,2.1218,2.1218,0,0,1-.1953.9346,1.9535,1.9535,0,0,1-.5249.6758,2.2326,2.2326,0,0,1-.7749.4043,3.2125,3.2125,0,0,1-.9448.1357,3.0308,3.0308,0,0,1-.98-.15,1.9991,1.9991,0,0,1-.75-.4453,1.9334,1.9334,0,0,1-.4751-.7246,2.5955,2.5955,0,0,1-.1553-.98h.85a1.7267,1.7267,0,0,0,.4,1.125,1.3955,1.3955,0,0,0,1.11.4355,1.8187,1.8187,0,0,0,.59-.0947,1.5174,1.5174,0,0,0,.49-.2705,1.2753,1.2753,0,0,0,.46-1.0049,1.3581,1.3581,0,0,0-.12-.585,1.2688,1.2688,0,0,0-.7949-.69,2.0088,2.0088,0,0,0-.5952-.085,4.1973,4.1973,0,0,0-.51.03v-.72A.4452.4452,0,0,0,97.8908,35.1465Z"/><path d="M101.6208,34.8965a5.4425,5.4425,0,0,1,.1-.82,4.01,4.01,0,0,1,.23-.76,2.0036,2.0036,0,0,1,.41-.63,1.8686,1.8686,0,0,1,.6548-.43,2.8685,2.8685,0,0,1,1.89,0,1.8686,1.8686,0,0,1,.6548.43,2.0121,2.0121,0,0,1,.41.63,4.01,4.01,0,0,1,.23.76,5.5711,5.5711,0,0,1,.1.82q.02.42.02.81c0,.2607-.0068.53-.02.8105a5.5711,5.5711,0,0,1-.1.82,3.8981,3.8981,0,0,1-.23.7549,2.0469,2.0469,0,0,1-.41.625,1.8245,1.8245,0,0,1-.65.4248,2.9686,2.9686,0,0,1-1.895,0,1.82,1.82,0,0,1-.6548-.4248,2.038,2.038,0,0,1-.41-.625,3.8981,3.8981,0,0,1-.23-.7549,5.4425,5.4425,0,0,1-.1-.82c-.0132-.28-.02-.55-.02-.8105S101.6076,35.1768,101.6208,34.8965Zm.9053,1.6953a3.7467,3.7467,0,0,0,.16.93,1.7652,1.7652,0,0,0,.4351.7354,1.3269,1.3269,0,0,0,1.68,0,1.7652,1.7652,0,0,0,.4351-.7354,3.7693,3.7693,0,0,0,.16-.93q.0249-.4951.0254-.8955c0-.1729-.002-.3652-.0054-.5752a5.0677,5.0677,0,0,0-.05-.63,4.7758,4.7758,0,0,0-.13-.6143,1.6466,1.6466,0,0,0-.25-.5254,1.2946,1.2946,0,0,0-.415-.3652,1.4026,1.4026,0,0,0-1.22,0,1.2946,1.2946,0,0,0-.415.3652,1.6364,1.6364,0,0,0-.25.5254,4.616,4.616,0,0,0-.13.6143,4.9758,4.9758,0,0,0-.05.63c-.0034.21-.0054.4023-.0054.5752Q102.5007,36.0962,102.5261,36.5918Z"/><path d="M108.6809,38.0762v1.11h-1.11v-1.11Z"/><path d="M116.2106,32.0469a2.2163,2.2163,0,0,1,1.6348.5547,2.4626,2.4626,0,0,1,0,3.1152,2.1752,2.1752,0,0,1-1.6348.55h-2.18v2.92h-.95v-7.14Zm-.32,3.42a1.6963,1.6963,0,0,0,1.1851-.33,1.2561,1.2561,0,0,0,.375-.98,1.2388,1.2388,0,0,0-.375-.9746,1.7456,1.7456,0,0,0-1.1851-.335h-1.86v2.62Z"/><path d="M120.3205,32.0469v7.14h-.85v-7.14Z"/><path d="M125.3,38.8565a2.3426,2.3426,0,0,1-1.46.44,2.6634,2.6634,0,0,1-1.0747-.2,2.1194,2.1194,0,0,1-.7651-.5605,2.37,2.37,0,0,1-.4648-.8594,4.1388,4.1388,0,0,1-.1753-1.09,3.1059,3.1059,0,0,1,.18-1.08,2.5809,2.5809,0,0,1,.5049-.8506,2.2926,2.2926,0,0,1,.77-.56,2.3428,2.3428,0,0,1,.9751-.2,2.1182,2.1182,0,0,1,1.145.2852,2.265,2.265,0,0,1,.73.7246,2.8715,2.8715,0,0,1,.38.96,4.109,4.109,0,0,1,.085.99h-3.87a2.0662,2.0662,0,0,0,.08.6455,1.4685,1.4685,0,0,0,.29.54,1.4382,1.4382,0,0,0,.51.375,1.7684,1.7684,0,0,0,.73.14,1.4685,1.4685,0,0,0,.8848-.25,1.2092,1.2092,0,0,0,.4551-.76h.84A2.0633,2.0633,0,0,1,125.3,38.8565Zm-.2046-3.32a1.4357,1.4357,0,0,0-.77-.7744,1.4477,1.4477,0,0,0-.585-.1152,1.4726,1.4726,0,0,0-.5952.1152,1.37,1.37,0,0,0-.4551.3145,1.5167,1.5167,0,0,0-.3.4658,1.7593,1.7593,0,0,0-.13.5645h2.97A1.7522,1.7522,0,0,0,125.0959,35.5362Z"/><path d="M131.5905,39.167a1.2116,1.2116,0,0,1-.61.13.733.733,0,0,1-.5249-.1855.804.804,0,0,1-.1948-.6045,2.0393,2.0393,0,0,1-.8149.6045,2.8106,2.8106,0,0,1-1.67.1055,1.5537,1.5537,0,0,1-.5449-.25,1.1964,1.1964,0,0,1-.3647-.4453,1.4942,1.4942,0,0,1-.1353-.665,1.5227,1.5227,0,0,1,.15-.72,1.31,1.31,0,0,1,.395-.4551,1.8132,1.8132,0,0,1,.56-.2646,6.5937,6.5937,0,0,1,.645-.15q.35-.07.665-.1055a3.6513,3.6513,0,0,0,.5552-.1.911.911,0,0,0,.38-.19.4618.4618,0,0,0,.14-.3643.851.851,0,0,0-.105-.45.72.72,0,0,0-.27-.26,1.0752,1.0752,0,0,0-.37-.12,2.7231,2.7231,0,0,0-.4048-.03,1.7983,1.7983,0,0,0-.9.2051.87.87,0,0,0-.39.7754h-.85a1.84,1.84,0,0,1,.2-.8105,1.52,1.52,0,0,1,.48-.5352,2.0215,2.0215,0,0,1,.6846-.2949,3.6442,3.6442,0,0,1,.8252-.09,4.8546,4.8546,0,0,1,.6948.05,1.809,1.809,0,0,1,.625.2051,1.1909,1.1909,0,0,1,.45.4336,1.39,1.39,0,0,1,.17.7285v2.6543a1.9824,1.9824,0,0,0,.0352.4395c.0229.0928.1016.14.2349.14a1.0479,1.0479,0,0,0,.26-.04Zm-1.38-2.65a1.047,1.047,0,0,1-.42.1738c-.1733.0371-.355.0664-.5449.09s-.3818.05-.5752.08a2.095,2.095,0,0,0-.52.1436.9446.9446,0,0,0-.375.2842.7891.7891,0,0,0-.145.502.682.682,0,0,0,.0854.3535.7072.7072,0,0,0,.22.2344.9217.9217,0,0,0,.3149.1289,1.7665,1.7665,0,0,0,.38.04,2.0263,2.0263,0,0,0,.72-.1143,1.5322,1.5322,0,0,0,.49-.2891,1.1446,1.1446,0,0,0,.28-.3779.9506.9506,0,0,0,.09-.3838Z"/><path d="M133.03,38.0313a.9128.9128,0,0,0,.3149.3105,1.4223,1.4223,0,0,0,.44.165,2.5294,2.5294,0,0,0,.5049.05,3.0426,3.0426,0,0,0,.42-.03,1.5469,1.5469,0,0,0,.4048-.1094.7661.7661,0,0,0,.3052-.2354.63.63,0,0,0,.12-.3955.5666.5666,0,0,0-.25-.5,2.11,2.11,0,0,0-.625-.2744q-.375-.1055-.8149-.19a4.211,4.211,0,0,1-.8149-.24,1.6775,1.6775,0,0,1-.625-.4346,1.1306,1.1306,0,0,1-.25-.78,1.2384,1.2384,0,0,1,.1753-.67,1.43,1.43,0,0,1,.45-.4551,2.08,2.08,0,0,1,.62-.26,2.8542,2.8542,0,0,1,.6851-.085,4.1023,4.1023,0,0,1,.81.0752,1.8745,1.8745,0,0,1,.6548.26,1.344,1.344,0,0,1,.4551.5,1.9,1.9,0,0,1,.2.7852h-.85a.8652.8652,0,0,0-.13-.415.8491.8491,0,0,0-.28-.2646,1.26,1.26,0,0,0-.375-.1455,1.9125,1.9125,0,0,0-.415-.0449,2.4645,2.4645,0,0,0-.3848.03,1.2807,1.2807,0,0,0-.355.1045.7133.7133,0,0,0-.26.2.5069.5069,0,0,0-.1.3252.479.479,0,0,0,.1553.3652,1.2164,1.2164,0,0,0,.395.2393,3.3909,3.3909,0,0,0,.54.16q.3.0659.6.1348a6.2276,6.2276,0,0,1,.625.1709,2.016,2.016,0,0,1,.54.2646,1.2953,1.2953,0,0,1,.38.415,1.2241,1.2241,0,0,1,.145.62,1.4368,1.4368,0,0,1-.1953.7793,1.513,1.513,0,0,1-.51.5,2.1229,2.1229,0,0,1-.71.2656,4.2234,4.2234,0,0,1-.7852.0752,3.6027,3.6027,0,0,1-.82-.0908,1.9974,1.9974,0,0,1-.69-.2949,1.4948,1.4948,0,0,1-.48-.54,1.8677,1.8677,0,0,1-.2-.8145h.85A.9513.9513,0,0,0,133.03,38.0313Z"/><path d="M141.04,38.8565a2.3426,2.3426,0,0,1-1.46.44,2.6634,2.6634,0,0,1-1.0747-.2,2.1194,2.1194,0,0,1-.7651-.5605,2.37,2.37,0,0,1-.4648-.8594,4.1388,4.1388,0,0,1-.1753-1.09,3.1059,3.1059,0,0,1,.18-1.08,2.5809,2.5809,0,0,1,.5049-.8506,2.2926,2.2926,0,0,1,.77-.56,2.3428,2.3428,0,0,1,.9751-.2,2.1182,2.1182,0,0,1,1.145.2852,2.265,2.265,0,0,1,.73.7246,2.8715,2.8715,0,0,1,.38.96,4.109,4.109,0,0,1,.085.99H138a2.0662,2.0662,0,0,0,.08.6455,1.4685,1.4685,0,0,0,.29.54,1.4382,1.4382,0,0,0,.51.375,1.7684,1.7684,0,0,0,.73.14,1.4685,1.4685,0,0,0,.8848-.25,1.2092,1.2092,0,0,0,.4551-.76h.84A2.0633,2.0633,0,0,1,141.04,38.8565Zm-.2046-3.32a1.4357,1.4357,0,0,0-.77-.7744,1.4477,1.4477,0,0,0-.585-.1152,1.4726,1.4726,0,0,0-.5952.1152,1.37,1.37,0,0,0-.4551.3145,1.5167,1.5167,0,0,0-.3.4658,1.7593,1.7593,0,0,0-.13.5645h2.97A1.7522,1.7522,0,0,0,140.8356,35.5362Z"/><path d="M17.7517,46.0166v1.09h.02a2.3036,2.3036,0,0,1,.76-.93,1.9076,1.9076,0,0,1,1.14-.28v.9a2.3976,2.3976,0,0,0-.87.14,1.3789,1.3789,0,0,0-.58.41,1.6928,1.6928,0,0,0-.32.6553,3.5192,3.5192,0,0,0-.1.8848v2.3h-.85v-5.17Z"/><path d="M23.7912,50.8565a2.3426,2.3426,0,0,1-1.46.44,2.6634,2.6634,0,0,1-1.0747-.2,2.1194,2.1194,0,0,1-.7651-.5605,2.37,2.37,0,0,1-.4648-.8594,4.1388,4.1388,0,0,1-.1753-1.09,3.1059,3.1059,0,0,1,.18-1.08,2.5809,2.5809,0,0,1,.5049-.8506,2.2926,2.2926,0,0,1,.77-.56,2.3428,2.3428,0,0,1,.9751-.2,2.1183,2.1183,0,0,1,1.145.2852,2.265,2.265,0,0,1,.73.7246,2.8715,2.8715,0,0,1,.38.96,4.109,4.109,0,0,1,.085.99h-3.87a2.0662,2.0662,0,0,0,.08.6455,1.4685,1.4685,0,0,0,.29.54,1.4382,1.4382,0,0,0,.51.375,1.7684,1.7684,0,0,0,.73.14,1.4685,1.4685,0,0,0,.8848-.25,1.2092,1.2092,0,0,0,.4551-.76h.84A2.0633,2.0633,0,0,1,23.7912,50.8565Zm-.2046-3.32a1.4357,1.4357,0,0,0-.77-.7744,1.4477,1.4477,0,0,0-.585-.1152,1.4726,1.4726,0,0,0-.5952.1152,1.37,1.37,0,0,0-.4551.3145,1.5167,1.5167,0,0,0-.3.4658,1.7593,1.7593,0,0,0-.13.5645h2.97A1.7522,1.7522,0,0,0,23.5866,47.5362Z"/><path d="M26.3815,46.0166v.7h.02a1.27,1.27,0,0,1,.66-.625,2.4643,2.4643,0,0,1,.99-.1953,2.3335,2.3335,0,0,1,1.0449.22,2.1363,2.1363,0,0,1,.74.5957,2.6378,2.6378,0,0,1,.4448.8643,3.5357,3.5357,0,0,1,.15,1.04,3.642,3.642,0,0,1-.145,1.04,2.4434,2.4434,0,0,1-.44.8555,2.0862,2.0862,0,0,1-.74.5752,2.4066,2.4066,0,0,1-1.0352.21,2.5835,2.5835,0,0,1-.4248-.04,2.44,2.44,0,0,1-.4653-.13,1.8318,1.8318,0,0,1-.4351-.2451,1.359,1.359,0,0,1-.3447-.3857h-.02v2.66h-.85v-7.14Zm3.0552,1.835a1.9113,1.9113,0,0,0-.29-.6152,1.4262,1.4262,0,0,0-.5-.43,1.5228,1.5228,0,0,0-.7153-.16,1.4012,1.4012,0,0,0-1.22.6152,1.8465,1.8465,0,0,0-.2749.625,3.0278,3.0278,0,0,0,.0049,1.4443,1.8053,1.8053,0,0,0,.2852.625,1.4492,1.4492,0,0,0,.5049.4355,1.5729,1.5729,0,0,0,.75.165,1.4546,1.4546,0,0,0,.7349-.17,1.3683,1.3683,0,0,0,.4751-.45,1.9558,1.9558,0,0,0,.26-.64,3.4144,3.4144,0,0,0,.08-.74A2.6538,2.6538,0,0,0,29.4367,47.8516Z"/><path d="M32.3312,44.0469v7.14h-.85v-7.14Z"/><path d="M35.6809,51.877a5.4817,5.4817,0,0,1-.2949.64,1.7766,1.7766,0,0,1-.32.4248,1.0822,1.0822,0,0,1-.39.24,1.5075,1.5075,0,0,1-.4951.0752,2.2094,2.2094,0,0,1-.3-.0205,1.4438,1.4438,0,0,1-.29-.0693v-.78a1.4419,1.4419,0,0,0,.2549.085,1.07,1.07,0,0,0,.2451.0352.7318.7318,0,0,0,.4351-.125.7692.7692,0,0,0,.2646-.3555l.35-.87-2.05-5.14h.96l1.51,4.2295h.02l1.45-4.2295h.9Z"/><path d="M45.8864,45.0567a2.2119,2.2119,0,0,0-1.2954-.38,2.316,2.316,0,0,0-1.0947.24,2.15,2.15,0,0,0-.75.6445,2.775,2.775,0,0,0-.4351.9248,4.1416,4.1416,0,0,0-.14,1.08,4.6287,4.6287,0,0,0,.14,1.1553,2.7651,2.7651,0,0,0,.4351.95,2.15,2.15,0,0,0,.7549.6445,2.3482,2.3482,0,0,0,1.1.24,2.1183,2.1183,0,0,0,.835-.1553,1.89,1.89,0,0,0,.63-.43,1.9773,1.9773,0,0,0,.415-.6553,2.7174,2.7174,0,0,0,.18-.82h.95a3.2449,3.2449,0,0,1-.93,2.1006,3.01,3.01,0,0,1-2.16.75,3.4372,3.4372,0,0,1-1.45-.2852,2.8481,2.8481,0,0,1-1.03-.7852,3.3692,3.3692,0,0,1-.6152-1.18,5.0339,5.0339,0,0,1-.2046-1.46,4.7628,4.7628,0,0,1,.22-1.4648,3.526,3.526,0,0,1,.645-1.1953,3.0026,3.0026,0,0,1,1.06-.8047,3.4076,3.4076,0,0,1,1.4551-.2949,3.6862,3.6862,0,0,1,1.06.1494,2.8614,2.8614,0,0,1,.89.44,2.4756,2.4756,0,0,1,.65.7246,2.6549,2.6549,0,0,1,.34,1.0049h-.95A1.7654,1.7654,0,0,0,45.8864,45.0567Z"/><path d="M48.6061,46.212a3.528,3.528,0,0,1,.645-1.1953,3.146,3.146,0,0,1,1.07-.83,3.7405,3.7405,0,0,1,2.98,0,3.1507,3.1507,0,0,1,1.07.83,3.5449,3.5449,0,0,1,.645,1.1953,4.69,4.69,0,0,1,0,2.81,3.5449,3.5449,0,0,1-.645,1.1953,3.1024,3.1024,0,0,1-1.07.8252,3.7955,3.7955,0,0,1-2.98,0,3.0978,3.0978,0,0,1-1.07-.8252,3.528,3.528,0,0,1-.645-1.1953,4.69,4.69,0,0,1,0-2.81Zm.875,2.47a2.8946,2.8946,0,0,0,.44.9453,2.2515,2.2515,0,0,0,.77.6748,2.5876,2.5876,0,0,0,2.24,0,2.2515,2.2515,0,0,0,.77-.6748,2.8946,2.8946,0,0,0,.44-.9453,4.1165,4.1165,0,0,0,0-2.13,2.8853,2.8853,0,0,0-.44-.9453,2.2414,2.2414,0,0,0-.77-.6748,2.5876,2.5876,0,0,0-2.24,0,2.2414,2.2414,0,0,0-.77.6748,2.8853,2.8853,0,0,0-.44.9453,4.1165,4.1165,0,0,0,0,2.13Z"/><path d="M57.3908,44.0469l3.76,5.79h.02v-5.79h.9v7.14h-1.04l-3.73-5.73h-.02v5.73h-.9v-7.14Z"/><path d="M68.301,44.0469v.8h-3.74v2.27h3.28v.8008h-3.28v3.27h-.95v-7.14Z"/><path d="M70.3405,44.0469v7.14h-.95v-7.14Z"/><path d="M75.3,44.0469a2.3476,2.3476,0,0,1,1.5947.5,1.7209,1.7209,0,0,1,.5752,1.37,2.1723,2.1723,0,0,1-.2949,1.14,1.521,1.521,0,0,1-.9453.67v.02a1.286,1.286,0,0,1,.5054.2,1.1018,1.1018,0,0,1,.31.335,1.5316,1.5316,0,0,1,.17.4355,4.5978,4.5978,0,0,1,.085.5c.0132.1729.0229.35.03.5293a4.5794,4.5794,0,0,0,.05.53,3.2167,3.2167,0,0,0,.1147.4951,1.2118,1.2118,0,0,0,.2251.415H76.66a.5888.5888,0,0,1-.1348-.3,3.0972,3.0972,0,0,1-.0454-.4248c-.0063-.1572-.0132-.3252-.02-.5059a3.45,3.45,0,0,0-.06-.5293q-.04-.2607-.1-.4951a1.1742,1.1742,0,0,0-.19-.41.9481.9481,0,0,0-.34-.28,1.27,1.27,0,0,0-.56-.1045H72.89v3.05h-.95v-7.14Zm.2,3.2393a1.3747,1.3747,0,0,0,.5254-.1943,1.0676,1.0676,0,0,0,.36-.3906,1.3106,1.3106,0,0,0,.1348-.6348,1.2811,1.2811,0,0,0-.3-.88,1.2337,1.2337,0,0,0-.97-.34H72.89v2.49h1.98A3.7319,3.7319,0,0,0,75.5,47.2862Z"/><path d="M80.1105,44.0469l2.25,6,2.26-6h1.3v7.14h-.9v-5.94h-.02l-2.23,5.94h-.81l-2.23-5.94h-.02v5.94h-.9v-7.14Z"/><path d="M90.02,47.542a2.4083,2.4083,0,0,1,.48-.86,2.2586,2.2586,0,0,1,.79-.5752,2.8956,2.8956,0,0,1,2.165,0,2.2758,2.2758,0,0,1,.7852.5752,2.4232,2.4232,0,0,1,.48.86,3.615,3.615,0,0,1,0,2.125,2.4311,2.4311,0,0,1-.48.8545,2.2269,2.2269,0,0,1-.7852.57,2.96,2.96,0,0,1-2.165,0,2.2109,2.2109,0,0,1-.79-.57,2.416,2.416,0,0,1-.48-.8545,3.6045,3.6045,0,0,1,0-2.125Zm.8647,1.8994a1.7538,1.7538,0,0,0,.3452.61,1.5012,1.5012,0,0,0,.5151.375,1.5687,1.5687,0,0,0,1.25,0,1.5041,1.5041,0,0,0,.5146-.375,1.7461,1.7461,0,0,0,.3452-.61,2.8511,2.8511,0,0,0,0-1.67,1.8058,1.8058,0,0,0-.3452-.6152,1.4805,1.4805,0,0,0-.5146-.38,1.5687,1.5687,0,0,0-1.25,0,1.4778,1.4778,0,0,0-.5151.38,1.814,1.814,0,0,0-.3452.6152,2.8511,2.8511,0,0,0,0,1.67Z"/><path d="M96.6506,46.0166v1.09h.02a2.3036,2.3036,0,0,1,.76-.93,1.9076,1.9076,0,0,1,1.14-.28v.9a2.3976,2.3976,0,0,0-.87.14,1.3789,1.3789,0,0,0-.58.41,1.6928,1.6928,0,0,0-.32.6553,3.5192,3.5192,0,0,0-.1.8848v2.3h-.85v-5.17Z"/><path d="M106.4455,45.0567a2.2119,2.2119,0,0,0-1.2954-.38,2.316,2.316,0,0,0-1.0947.24,2.15,2.15,0,0,0-.75.6445,2.775,2.775,0,0,0-.4351.9248,4.1416,4.1416,0,0,0-.14,1.08,4.6287,4.6287,0,0,0,.14,1.1553,2.7651,2.7651,0,0,0,.4351.95,2.15,2.15,0,0,0,.7549.6445,2.3482,2.3482,0,0,0,1.1.24,2.1183,2.1183,0,0,0,.835-.1553,1.89,1.89,0,0,0,.63-.43,1.9773,1.9773,0,0,0,.415-.6553,2.7174,2.7174,0,0,0,.18-.82h.95a3.2449,3.2449,0,0,1-.93,2.1006,3.01,3.01,0,0,1-2.16.75,3.4372,3.4372,0,0,1-1.45-.2852,2.8481,2.8481,0,0,1-1.03-.7852,3.3692,3.3692,0,0,1-.6152-1.18,5.0339,5.0339,0,0,1-.2046-1.46,4.7628,4.7628,0,0,1,.22-1.4648,3.526,3.526,0,0,1,.645-1.1953,3.0026,3.0026,0,0,1,1.06-.8047,3.4076,3.4076,0,0,1,1.4551-.2949,3.6862,3.6862,0,0,1,1.06.1494,2.8614,2.8614,0,0,1,.89.44,2.4756,2.4756,0,0,1,.65.7246,2.6549,2.6549,0,0,1,.34,1.0049h-.95A1.7654,1.7654,0,0,0,106.4455,45.0567Z"/><path d="M112.34,44.0469l2.79,7.14h-1.05l-.78-2.15h-3.02l-.8,2.15h-.97l2.78-7.14Zm.66,4.1895-1.19-3.33h-.02l-1.21,3.33Z"/><path d="M116.83,44.0469l3.76,5.79h.02v-5.79h.9v7.14h-1.04l-3.73-5.73h-.02v5.73h-.9v-7.14Z"/><path d="M127.3649,45.0567a2.2119,2.2119,0,0,0-1.2954-.38,2.316,2.316,0,0,0-1.0947.24,2.15,2.15,0,0,0-.75.6445,2.775,2.775,0,0,0-.4351.9248,4.1416,4.1416,0,0,0-.14,1.08,4.6287,4.6287,0,0,0,.14,1.1553,2.7651,2.7651,0,0,0,.4351.95,2.15,2.15,0,0,0,.7549.6445,2.3482,2.3482,0,0,0,1.1.24,2.1183,2.1183,0,0,0,.835-.1553,1.89,1.89,0,0,0,.63-.43,1.9773,1.9773,0,0,0,.415-.6553,2.7174,2.7174,0,0,0,.18-.82h.95a3.2449,3.2449,0,0,1-.93,2.1006,3.01,3.01,0,0,1-2.16.75,3.4372,3.4372,0,0,1-1.45-.2852,2.8481,2.8481,0,0,1-1.03-.7852,3.3692,3.3692,0,0,1-.6152-1.18,5.0339,5.0339,0,0,1-.2046-1.46,4.7628,4.7628,0,0,1,.22-1.4648,3.526,3.526,0,0,1,.645-1.1953,3.0026,3.0026,0,0,1,1.06-.8047,3.4076,3.4076,0,0,1,1.4551-.2949,3.6862,3.6862,0,0,1,1.06.1494,2.8614,2.8614,0,0,1,.89.44,2.4756,2.4756,0,0,1,.65.7246,2.6549,2.6549,0,0,1,.34,1.0049h-.95A1.7654,1.7654,0,0,0,127.3649,45.0567Z"/><path d="M135.2,44.0469v.8h-3.98v2.27h3.71v.8008h-3.71v2.47h4.01v.8h-4.96v-7.14Z"/><path d="M137.33,44.0469v6.34h3.78v.8h-4.73v-7.14Z"/><path d="M20.1115,56.0469l2.79,7.14h-1.05l-.78-2.15h-3.02l-.8,2.15h-.97l2.78-7.14Zm.66,4.1895-1.19-3.33h-.02l-1.21,3.33Z"/><path d="M24.2614,58.0166v.82h.02a1.79,1.79,0,0,1,1.68-.94,2.2575,2.2575,0,0,1,.85.14,1.4007,1.4007,0,0,1,.55.3906,1.4447,1.4447,0,0,1,.2949.5947,3.2046,3.2046,0,0,1,.085.7646v3.4h-.85v-3.5a1.0261,1.0261,0,0,0-.28-.76,1.0411,1.0411,0,0,0-.77-.28,1.7288,1.7288,0,0,0-.6748.12,1.2635,1.2635,0,0,0-.4751.34,1.4631,1.4631,0,0,0-.2852.5146,2.0958,2.0958,0,0,0-.0947.6455v2.92h-.85v-5.17Z"/><path d="M31.0515,63.877a5.4817,5.4817,0,0,1-.2949.64,1.7766,1.7766,0,0,1-.32.4248,1.0822,1.0822,0,0,1-.39.24,1.5075,1.5075,0,0,1-.4951.0752,2.2094,2.2094,0,0,1-.3-.0205,1.4438,1.4438,0,0,1-.29-.0693v-.78a1.4419,1.4419,0,0,0,.2549.085,1.07,1.07,0,0,0,.2451.0352.7318.7318,0,0,0,.4351-.125.7692.7692,0,0,0,.2646-.3555l.35-.87-2.05-5.14h.96l1.51,4.2295h.02l1.45-4.2295h.9Z"/><path d="M41.6711,62.9268a3.3412,3.3412,0,0,1-1.71.42,3.4291,3.4291,0,0,1-1.49-.3047,3.0978,3.0978,0,0,1-1.07-.8252,3.528,3.528,0,0,1-.645-1.1953,4.69,4.69,0,0,1,0-2.81,3.528,3.528,0,0,1,.645-1.1953,3.146,3.146,0,0,1,1.07-.83,3.7405,3.7405,0,0,1,2.98,0,3.1507,3.1507,0,0,1,1.07.83,3.5449,3.5449,0,0,1,.645,1.1953,4.5881,4.5881,0,0,1,.2153,1.4043,4.5243,4.5243,0,0,1-.27,1.5605,3.4629,3.4629,0,0,1-.81,1.2793l.94.74-.48.6006Zm-.06-1.0205a2.5556,2.5556,0,0,0,.62-1.0244,4.0069,4.0069,0,0,0,.2-1.2656,4.1165,4.1165,0,0,0-.14-1.0645,2.8853,2.8853,0,0,0-.44-.9453,2.2414,2.2414,0,0,0-.77-.6748,2.5876,2.5876,0,0,0-2.24,0,2.2414,2.2414,0,0,0-.77.6748,2.8853,2.8853,0,0,0-.44.9453,4.1165,4.1165,0,0,0,0,2.13,2.8946,2.8946,0,0,0,.44.9453,2.2515,2.2515,0,0,0,.77.6748,2.3151,2.3151,0,0,0,1.12.2549,2.5417,2.5417,0,0,0,.99-.2l-.79-.63.5-.58Z"/><path d="M47.8815,63.1866v-.82h-.02a1.734,1.734,0,0,1-.69.7051,2.0646,2.0646,0,0,1-.99.2256,2.3008,2.3008,0,0,1-.85-.1357,1.3512,1.3512,0,0,1-.55-.3848,1.4447,1.4447,0,0,1-.2949-.5947,3.2046,3.2046,0,0,1-.085-.7646v-3.4h.85v3.5a1.0261,1.0261,0,0,0,.28.76,1.0411,1.0411,0,0,0,.77.28,1.73,1.73,0,0,0,.6748-.12,1.2674,1.2674,0,0,0,.4751-.34,1.4666,1.4666,0,0,0,.2852-.5156,2.1,2.1,0,0,0,.0947-.6445v-2.92h.85v5.17Z"/><path d="M53.6213,62.8565a2.3426,2.3426,0,0,1-1.46.44,2.6634,2.6634,0,0,1-1.0747-.2,2.1194,2.1194,0,0,1-.7651-.5605,2.37,2.37,0,0,1-.4648-.8594,4.1388,4.1388,0,0,1-.1753-1.09,3.1059,3.1059,0,0,1,.18-1.08,2.5809,2.5809,0,0,1,.5049-.8506,2.2926,2.2926,0,0,1,.77-.56,2.3428,2.3428,0,0,1,.9751-.2,2.1183,2.1183,0,0,1,1.145.2852,2.265,2.265,0,0,1,.73.7246,2.8715,2.8715,0,0,1,.38.96,4.109,4.109,0,0,1,.085.99h-3.87a2.0662,2.0662,0,0,0,.08.6455,1.4685,1.4685,0,0,0,.29.54,1.4382,1.4382,0,0,0,.51.375,1.7684,1.7684,0,0,0,.73.14,1.4685,1.4685,0,0,0,.8848-.25,1.2092,1.2092,0,0,0,.4551-.76h.84A2.0633,2.0633,0,0,1,53.6213,62.8565Zm-.2046-3.32a1.4357,1.4357,0,0,0-.77-.7744,1.4477,1.4477,0,0,0-.585-.1152,1.4726,1.4726,0,0,0-.5952.1152,1.37,1.37,0,0,0-.4551.3145,1.5167,1.5167,0,0,0-.3.4658,1.7593,1.7593,0,0,0-.13.5645h2.97A1.7522,1.7522,0,0,0,53.4167,59.5362Z"/><path d="M55.9811,62.0313a.9128.9128,0,0,0,.3149.3105,1.4223,1.4223,0,0,0,.44.165,2.5294,2.5294,0,0,0,.5049.05,3.0426,3.0426,0,0,0,.42-.03,1.5469,1.5469,0,0,0,.4048-.1094.7661.7661,0,0,0,.3052-.2354.63.63,0,0,0,.12-.3955.5666.5666,0,0,0-.25-.5,2.11,2.11,0,0,0-.625-.2744q-.375-.1055-.8149-.19a4.211,4.211,0,0,1-.8149-.24,1.6775,1.6775,0,0,1-.625-.4346,1.1306,1.1306,0,0,1-.25-.78,1.2384,1.2384,0,0,1,.1753-.67,1.43,1.43,0,0,1,.45-.4551,2.08,2.08,0,0,1,.62-.26,2.8542,2.8542,0,0,1,.6851-.085,4.1023,4.1023,0,0,1,.81.0752,1.8745,1.8745,0,0,1,.6548.26,1.344,1.344,0,0,1,.4551.5,1.9,1.9,0,0,1,.2.7852h-.85a.8652.8652,0,0,0-.13-.415.8491.8491,0,0,0-.28-.2646,1.26,1.26,0,0,0-.375-.1455,1.9125,1.9125,0,0,0-.415-.0449,2.4645,2.4645,0,0,0-.3848.03,1.2807,1.2807,0,0,0-.355.1045.7133.7133,0,0,0-.26.2.5069.5069,0,0,0-.1.3252.479.479,0,0,0,.1553.3652,1.2164,1.2164,0,0,0,.395.2393,3.3909,3.3909,0,0,0,.54.16q.3.0659.6.1348a6.2276,6.2276,0,0,1,.625.1709,2.016,2.016,0,0,1,.54.2646,1.2953,1.2953,0,0,1,.38.415,1.2241,1.2241,0,0,1,.145.62,1.4368,1.4368,0,0,1-.1953.7793,1.513,1.513,0,0,1-.51.5,2.1229,2.1229,0,0,1-.71.2656,4.2234,4.2234,0,0,1-.7852.0752,3.6027,3.6027,0,0,1-.82-.0908,1.9974,1.9974,0,0,1-.69-.2949,1.4948,1.4948,0,0,1-.48-.54,1.8677,1.8677,0,0,1-.2-.8145h.85A.9513.9513,0,0,0,55.9811,62.0313Z"/><path d="M62.5412,58.0166v.75h-1.03v3.21a.9137.9137,0,0,0,.0254.24.2432.2432,0,0,0,.0947.14.4293.4293,0,0,0,.1948.0654,2.9086,2.9086,0,0,0,.3252.0146h.39v.75h-.65a3.0331,3.0331,0,0,1-.5654-.0449.8336.8336,0,0,1-.38-.165.7035.7035,0,0,1-.2148-.34,1.9569,1.9569,0,0,1-.07-.58v-3.29h-.88v-.75h.88v-1.55h.85v1.55Z"/><path d="M63.531,57.087v-1.04h.85v1.04Zm.85.93v5.17h-.85v-5.17Z"/><path d="M65.5812,59.542a2.4083,2.4083,0,0,1,.48-.86,2.2586,2.2586,0,0,1,.79-.5752,2.8956,2.8956,0,0,1,2.165,0,2.2758,2.2758,0,0,1,.7852.5752,2.4232,2.4232,0,0,1,.48.86,3.615,3.615,0,0,1,0,2.125,2.4311,2.4311,0,0,1-.48.8545,2.2269,2.2269,0,0,1-.7852.57,2.96,2.96,0,0,1-2.165,0,2.2109,2.2109,0,0,1-.79-.57,2.416,2.416,0,0,1-.48-.8545,3.6045,3.6045,0,0,1,0-2.125Zm.8647,1.8994a1.7538,1.7538,0,0,0,.3452.61,1.5012,1.5012,0,0,0,.5151.375,1.5687,1.5687,0,0,0,1.25,0,1.5041,1.5041,0,0,0,.5146-.375,1.7461,1.7461,0,0,0,.3452-.61,2.8511,2.8511,0,0,0,0-1.67,1.8058,1.8058,0,0,0-.3452-.6152,1.4805,1.4805,0,0,0-.5146-.38,1.5687,1.5687,0,0,0-1.25,0,1.4778,1.4778,0,0,0-.5151.38,1.814,1.814,0,0,0-.3452.6152,2.8511,2.8511,0,0,0,0,1.67Z"/><path d="M72.2409,58.0166v.82h.02a1.79,1.79,0,0,1,1.68-.94,2.2575,2.2575,0,0,1,.85.14,1.4007,1.4007,0,0,1,.55.3906,1.4447,1.4447,0,0,1,.2949.5947,3.2046,3.2046,0,0,1,.085.7646v3.4h-.85v-3.5a1.0261,1.0261,0,0,0-.28-.76,1.0411,1.0411,0,0,0-.77-.28,1.7288,1.7288,0,0,0-.6748.12,1.2635,1.2635,0,0,0-.4751.34,1.4631,1.4631,0,0,0-.2852.5146,2.0958,2.0958,0,0,0-.0947.6455v2.92h-.85v-5.17Z"/><path d="M77.6511,62.0313a.9128.9128,0,0,0,.3149.3105,1.4223,1.4223,0,0,0,.44.165,2.5294,2.5294,0,0,0,.5049.05,3.0426,3.0426,0,0,0,.42-.03,1.5469,1.5469,0,0,0,.4048-.1094.7661.7661,0,0,0,.3052-.2354.63.63,0,0,0,.12-.3955.5666.5666,0,0,0-.25-.5,2.11,2.11,0,0,0-.625-.2744q-.375-.1055-.8149-.19a4.211,4.211,0,0,1-.8149-.24,1.6775,1.6775,0,0,1-.625-.4346,1.1306,1.1306,0,0,1-.25-.78,1.2384,1.2384,0,0,1,.1753-.67,1.43,1.43,0,0,1,.45-.4551,2.08,2.08,0,0,1,.62-.26,2.8542,2.8542,0,0,1,.6851-.085,4.1023,4.1023,0,0,1,.81.0752,1.8745,1.8745,0,0,1,.6548.26,1.344,1.344,0,0,1,.4551.5,1.9,1.9,0,0,1,.2.7852h-.85a.8652.8652,0,0,0-.13-.415.8491.8491,0,0,0-.28-.2646,1.26,1.26,0,0,0-.375-.1455,1.9125,1.9125,0,0,0-.415-.0449,2.4645,2.4645,0,0,0-.3848.03,1.2807,1.2807,0,0,0-.355.1045.7133.7133,0,0,0-.26.2.5069.5069,0,0,0-.1.3252.479.479,0,0,0,.1553.3652,1.2164,1.2164,0,0,0,.395.2393,3.3909,3.3909,0,0,0,.54.16q.3.0659.6.1348a6.2276,6.2276,0,0,1,.625.1709,2.016,2.016,0,0,1,.54.2646,1.2953,1.2953,0,0,1,.38.415,1.2241,1.2241,0,0,1,.145.62,1.4368,1.4368,0,0,1-.1953.7793,1.513,1.513,0,0,1-.51.5,2.1229,2.1229,0,0,1-.71.2656,4.2234,4.2234,0,0,1-.7852.0752,3.6027,3.6027,0,0,1-.82-.0908,1.9974,1.9974,0,0,1-.69-.2949,1.4948,1.4948,0,0,1-.48-.54,1.8677,1.8677,0,0,1-.2-.8145h.85A.9513.9513,0,0,0,77.6511,62.0313Z"/><path d="M82.0559,57.3262a2.2716,2.2716,0,0,1,.4453-.7646,1.9826,1.9826,0,0,1,.71-.5049,2.36,2.36,0,0,1,.94-.18,2.5744,2.5744,0,0,1,.855.1348,1.92,1.92,0,0,1,.665.39,1.7519,1.7519,0,0,1,.4351.625,2.1933,2.1933,0,0,1,.1548.8506,1.9013,1.9013,0,0,1-.0747.5547,2.0249,2.0249,0,0,1-.1953.4453,2.3236,2.3236,0,0,1-.2749.3691c-.1035.1143-.2085.2236-.3149.33q-.16.1509-.3149.3057a2.5969,2.5969,0,0,0-.28.33,1.5671,1.5671,0,0,0-.2.38,1.3377,1.3377,0,0,0-.0752.4648v.39h-.85v-.47a1.9321,1.9321,0,0,1,.1553-.7148,2.2545,2.2545,0,0,1,.33-.5254,4.5113,4.5113,0,0,1,.41-.4248,4.5911,4.5911,0,0,0,.4-.41,1.8255,1.8255,0,0,0,.2949-.4746,1.42,1.42,0,0,0,.09-.63,1.292,1.292,0,0,0-.355-.86,1.1643,1.1643,0,0,0-.855-.31,1.3689,1.3689,0,0,0-.62.13,1.2713,1.2713,0,0,0-.4351.35,1.4028,1.4028,0,0,0-.2549.5205,2.5118,2.5118,0,0,0-.08.6494h-.85A2.6971,2.6971,0,0,1,82.0559,57.3262Zm2.5952,4.75v1.11h-1.11v-1.11Z"/><path class="60292708-9ab6-482d-a27a-7403760b6292" d="M91.4606,62.2764a1.4178,1.4178,0,0,0,.88.28,1.269,1.269,0,0,0,1.17-.6748,4.525,4.525,0,0,0,.43-2.0654l-.02-.02a1.854,1.854,0,0,1-1.64.9795,2.4857,2.4857,0,0,1-.96-.1748,1.9608,1.9608,0,0,1-.7051-.4854,2.0215,2.0215,0,0,1-.43-.75,3.0489,3.0489,0,0,1-.145-.96,2.4946,2.4946,0,0,1,.17-.9346,2.1147,2.1147,0,0,1,.48-.73,2.1881,2.1881,0,0,1,.74-.4746,2.5357,2.5357,0,0,1,.94-.17,2.8038,2.8038,0,0,1,.94.1553,1.7983,1.7983,0,0,1,.77.5342,2.766,2.766,0,0,1,.5249,1.0352,5.9389,5.9389,0,0,1,.1953,1.665,5.59,5.59,0,0,1-.585,2.8252,2.0182,2.0182,0,0,1-1.875.9854,2.37,2.37,0,0,1-1.48-.45,1.8249,1.8249,0,0,1-.67-1.37h.85A1.081,1.081,0,0,0,91.4606,62.2764Zm2.2354-4.43a1.58,1.58,0,0,0-.28-.5156,1.33,1.33,0,0,0-.4551-.3545,1.4312,1.4312,0,0,0-.63-.13,1.373,1.373,0,0,0-.645.14,1.2073,1.2073,0,0,0-.43.375,1.5976,1.5976,0,0,0-.24.5352,2.6,2.6,0,0,0-.0747.63,1.5307,1.5307,0,0,0,.105.5605,1.5907,1.5907,0,0,0,.29.4795,1.4031,1.4031,0,0,0,.44.335,1.2559,1.2559,0,0,0,.5649.125,1.4032,1.4032,0,0,0,.6-.125,1.3771,1.3771,0,0,0,.46-.34,1.4978,1.4978,0,0,0,.29-.5,1.7932,1.7932,0,0,0,.1-.5947A1.9872,1.9872,0,0,0,93.696,57.8467Z"/><path class="60292708-9ab6-482d-a27a-7403760b6292" d="M100.4108,60.7764v.75h-.96v1.66h-.8v-1.66h-3.11v-.82l3.23-4.6094h.68v4.68Zm-1.76-3.47h-.02l-2.36,3.47h2.38Z"/><path class="60292708-9ab6-482d-a27a-7403760b6292" d="M102.5808,62.2764a1.4178,1.4178,0,0,0,.88.28,1.269,1.269,0,0,0,1.17-.6748,4.525,4.525,0,0,0,.43-2.0654l-.02-.02a1.854,1.854,0,0,1-1.64.9795,2.4857,2.4857,0,0,1-.96-.1748,1.9608,1.9608,0,0,1-.7051-.4854,2.0215,2.0215,0,0,1-.43-.75,3.0489,3.0489,0,0,1-.145-.96,2.4946,2.4946,0,0,1,.17-.9346,2.1147,2.1147,0,0,1,.48-.73,2.1881,2.1881,0,0,1,.74-.4746,2.5357,2.5357,0,0,1,.94-.17,2.8038,2.8038,0,0,1,.94.1553,1.7983,1.7983,0,0,1,.77.5342,2.766,2.766,0,0,1,.5249,1.0352,5.9389,5.9389,0,0,1,.1953,1.665,5.59,5.59,0,0,1-.585,2.8252,2.0182,2.0182,0,0,1-1.875.9854,2.37,2.37,0,0,1-1.48-.45,1.8249,1.8249,0,0,1-.67-1.37h.85A1.081,1.081,0,0,0,102.5808,62.2764Zm2.2354-4.43a1.58,1.58,0,0,0-.28-.5156,1.33,1.33,0,0,0-.4551-.3545,1.4312,1.4312,0,0,0-.63-.13,1.373,1.373,0,0,0-.645.14,1.2073,1.2073,0,0,0-.43.375,1.5976,1.5976,0,0,0-.24.5352,2.6,2.6,0,0,0-.0747.63,1.5307,1.5307,0,0,0,.105.5605,1.5907,1.5907,0,0,0,.29.4795,1.4031,1.4031,0,0,0,.44.335,1.2559,1.2559,0,0,0,.5649.125,1.4032,1.4032,0,0,0,.6-.125,1.3771,1.3771,0,0,0,.46-.34,1.4978,1.4978,0,0,0,.29-.5,1.7932,1.7932,0,0,0,.1-.5947A1.9872,1.9872,0,0,0,104.8161,57.8467Z"/><path class="60292708-9ab6-482d-a27a-7403760b6292" d="M107.2009,57.1319a1.6829,1.6829,0,0,1,.46-.5654,2.08,2.08,0,0,1,.665-.35,2.5581,2.5581,0,0,1,.7852-.12,2.8034,2.8034,0,0,1,.99.1553,1.8389,1.8389,0,0,1,.6646.4092,1.59,1.59,0,0,1,.375.58,1.9053,1.9053,0,0,1,.12.665,1.5372,1.5372,0,0,1-.2646.875,1.6484,1.6484,0,0,1-.7153.5957,1.7217,1.7217,0,0,1,.95.6543,1.9353,1.9353,0,0,1,.31,1.1152,2.173,2.173,0,0,1-.1851.92,1.9905,1.9905,0,0,1-.5.6748,2.1,2.1,0,0,1-.7451.415,2.9414,2.9414,0,0,1-.92.1406,3.368,3.368,0,0,1-.95-.13,2.1261,2.1261,0,0,1-.7646-.4,1.8793,1.8793,0,0,1-.51-.6748,2.2537,2.2537,0,0,1-.1851-.9453,1.8784,1.8784,0,0,1,.32-1.0947,1.7914,1.7914,0,0,1,.92-.6748,1.5328,1.5328,0,0,1-.72-.585,1.5683,1.5683,0,0,1-.27-.8857A1.6874,1.6874,0,0,1,107.2009,57.1319Zm.9053,5.06a1.607,1.607,0,0,0,1.085.3652,1.5687,1.5687,0,0,0,.585-.1055,1.3962,1.3962,0,0,0,.46-.29,1.2629,1.2629,0,0,0,.3-.4346,1.4,1.4,0,0,0,.105-.55,1.243,1.243,0,0,0-.1147-.5352,1.3246,1.3246,0,0,0-.3149-.4248,1.5388,1.5388,0,0,0-.4648-.2852,1.5156,1.5156,0,0,0-.5654-.1055,1.7771,1.7771,0,0,0-.585.0957,1.4245,1.4245,0,0,0-.48.2744,1.2737,1.2737,0,0,0-.32.4307,1.32,1.32,0,0,0-.1152.56A1.2532,1.2532,0,0,0,108.1061,62.1914Zm-.0752-3.75a1.0026,1.0026,0,0,0,.27.3555,1.1582,1.1582,0,0,0,.4.21,1.6688,1.6688,0,0,0,.49.0693,1.1992,1.1992,0,0,0,.84-.3,1.0763,1.0763,0,0,0,.33-.84.9944.9944,0,0,0-.335-.8154,1.3074,1.3074,0,0,0-.855-.2744,1.6309,1.6309,0,0,0-.48.07,1.0758,1.0758,0,0,0-.395.21,1.0587,1.0587,0,0,0-.2651.34,1.0405,1.0405,0,0,0-.1.47A1.1911,1.1911,0,0,0,108.031,58.4414Z"/><path class="60292708-9ab6-482d-a27a-7403760b6292" d="M112.7609,57.1319a1.6829,1.6829,0,0,1,.46-.5654,2.08,2.08,0,0,1,.665-.35,2.5581,2.5581,0,0,1,.7852-.12,2.8034,2.8034,0,0,1,.99.1553,1.8389,1.8389,0,0,1,.6646.4092,1.59,1.59,0,0,1,.375.58,1.9053,1.9053,0,0,1,.12.665,1.5372,1.5372,0,0,1-.2646.875,1.6484,1.6484,0,0,1-.7153.5957,1.7217,1.7217,0,0,1,.95.6543,1.9353,1.9353,0,0,1,.31,1.1152,2.173,2.173,0,0,1-.1851.92,1.9905,1.9905,0,0,1-.5.6748,2.1,2.1,0,0,1-.7451.415,2.9414,2.9414,0,0,1-.92.1406,3.368,3.368,0,0,1-.95-.13,2.1261,2.1261,0,0,1-.7646-.4,1.8793,1.8793,0,0,1-.51-.6748,2.2537,2.2537,0,0,1-.1851-.9453,1.8784,1.8784,0,0,1,.32-1.0947,1.7914,1.7914,0,0,1,.92-.6748,1.5328,1.5328,0,0,1-.72-.585,1.5683,1.5683,0,0,1-.27-.8857A1.6874,1.6874,0,0,1,112.7609,57.1319Zm.9053,5.06a1.607,1.607,0,0,0,1.085.3652,1.5687,1.5687,0,0,0,.585-.1055,1.3962,1.3962,0,0,0,.46-.29,1.2629,1.2629,0,0,0,.3-.4346,1.4,1.4,0,0,0,.105-.55,1.243,1.243,0,0,0-.1147-.5352,1.3246,1.3246,0,0,0-.3149-.4248,1.5388,1.5388,0,0,0-.4648-.2852,1.5156,1.5156,0,0,0-.5654-.1055,1.7771,1.7771,0,0,0-.585.0957,1.4245,1.4245,0,0,0-.48.2744,1.2737,1.2737,0,0,0-.32.4307,1.32,1.32,0,0,0-.1152.56A1.2532,1.2532,0,0,0,113.6662,62.1914Zm-.0752-3.75a1.0026,1.0026,0,0,0,.27.3555,1.1582,1.1582,0,0,0,.4.21,1.6688,1.6688,0,0,0,.49.0693,1.1992,1.1992,0,0,0,.84-.3,1.0763,1.0763,0,0,0,.33-.84.9944.9944,0,0,0-.335-.8154,1.3074,1.3074,0,0,0-.855-.2744,1.6309,1.6309,0,0,0-.48.07,1.0758,1.0758,0,0,0-.395.21,1.0587,1.0587,0,0,0-.2651.34,1.0405,1.0405,0,0,0-.1.47A1.1911,1.1911,0,0,0,113.591,58.4414Z"/><path class="60292708-9ab6-482d-a27a-7403760b6292" d="M121.5808,58.2061a11.2047,11.2047,0,0,0-.835,1.5605,11.374,11.374,0,0,0-.5952,1.71,8.8589,8.8589,0,0,0-.28,1.71h-.95a8.8228,8.8228,0,0,1,.2949-1.7549,10.1478,10.1478,0,0,1,.605-1.64,10.3568,10.3568,0,0,1,.855-1.4854,10.803,10.803,0,0,1,1.0454-1.29h-3.72v-.8h4.59v.7295A7.2762,7.2762,0,0,0,121.5808,58.2061Z"/><path class="60292708-9ab6-482d-a27a-7403760b6292" d="M125.3308,59.1465h.28a1.7574,1.7574,0,0,0,.5151-.0752,1.3078,1.3078,0,0,0,.43-.22,1.0618,1.0618,0,0,0,.2949-.3652,1.104,1.104,0,0,0,.11-.5,1.0233,1.0233,0,0,0-.36-.8545,1.4029,1.4029,0,0,0-.9-.2852,1.3406,1.3406,0,0,0-.5952.125,1.1918,1.1918,0,0,0-.42.335,1.4108,1.4108,0,0,0-.2451.49,2.138,2.138,0,0,0-.08.59h-.85a3.2124,3.2124,0,0,1,.165-.9307,2.076,2.076,0,0,1,.4146-.72,1.8611,1.8611,0,0,1,.6753-.47,2.4,2.4,0,0,1,.9351-.17,3.0313,3.0313,0,0,1,.855.1152,1.9763,1.9763,0,0,1,.6851.3447,1.5778,1.5778,0,0,1,.4546.59,2.02,2.02,0,0,1,.165.85,1.3732,1.3732,0,0,1-.28.8506,1.7862,1.7862,0,0,1-.7.56v.0205a1.4777,1.4777,0,0,1,.9653.6094,1.9481,1.9481,0,0,1,.3149,1.11,2.1218,2.1218,0,0,1-.1953.9346,1.9535,1.9535,0,0,1-.5249.6758,2.2326,2.2326,0,0,1-.7749.4043,3.2125,3.2125,0,0,1-.9448.1357,3.0308,3.0308,0,0,1-.98-.15,1.9991,1.9991,0,0,1-.75-.4453,1.9334,1.9334,0,0,1-.4751-.7246,2.5955,2.5955,0,0,1-.1553-.98h.85a1.7267,1.7267,0,0,0,.4,1.125,1.3955,1.3955,0,0,0,1.11.4355,1.8187,1.8187,0,0,0,.59-.0947,1.5174,1.5174,0,0,0,.49-.2705,1.2753,1.2753,0,0,0,.46-1.0049,1.3581,1.3581,0,0,0-.12-.585,1.2688,1.2688,0,0,0-.7949-.69,2.0088,2.0088,0,0,0-.5952-.085,4.1973,4.1973,0,0,0-.51.03v-.72A.4452.4452,0,0,0,125.3308,59.1465Z"/><path class="60292708-9ab6-482d-a27a-7403760b6292" d="M129.0607,58.8965a5.4425,5.4425,0,0,1,.1-.82,4.01,4.01,0,0,1,.23-.76,2.0036,2.0036,0,0,1,.41-.63,1.8686,1.8686,0,0,1,.6548-.43,2.8685,2.8685,0,0,1,1.89,0,1.8686,1.8686,0,0,1,.6548.43,2.0121,2.0121,0,0,1,.41.63,4.01,4.01,0,0,1,.23.76,5.5711,5.5711,0,0,1,.1.82q.02.42.02.81c0,.2607-.0068.53-.02.8105a5.5711,5.5711,0,0,1-.1.82,3.8981,3.8981,0,0,1-.23.7549,2.0469,2.0469,0,0,1-.41.625,1.8245,1.8245,0,0,1-.65.4248,2.9686,2.9686,0,0,1-1.895,0,1.82,1.82,0,0,1-.6548-.4248,2.038,2.038,0,0,1-.41-.625,3.8981,3.8981,0,0,1-.23-.7549,5.4425,5.4425,0,0,1-.1-.82c-.0132-.28-.02-.55-.02-.8105S129.0476,59.1768,129.0607,58.8965Zm.9053,1.6953a3.7467,3.7467,0,0,0,.16.93,1.7652,1.7652,0,0,0,.4351.7354,1.3269,1.3269,0,0,0,1.68,0,1.7652,1.7652,0,0,0,.4351-.7354,3.7693,3.7693,0,0,0,.16-.93q.0249-.4951.0254-.8955c0-.1729-.002-.3652-.0054-.5752a5.0677,5.0677,0,0,0-.05-.63,4.7758,4.7758,0,0,0-.13-.6143,1.6466,1.6466,0,0,0-.25-.5254,1.2946,1.2946,0,0,0-.415-.3652,1.4026,1.4026,0,0,0-1.22,0,1.2946,1.2946,0,0,0-.415.3652,1.6364,1.6364,0,0,0-.25.5254,4.616,4.616,0,0,0-.13.6143,4.9758,4.9758,0,0,0-.05.63c-.0034.21-.0054.4023-.0054.5752Q129.9406,60.0962,129.966,60.5918Z"/><path class="60292708-9ab6-482d-a27a-7403760b6292" d="M136.4509,59.1465h.28a1.7574,1.7574,0,0,0,.5151-.0752,1.3078,1.3078,0,0,0,.43-.22,1.0618,1.0618,0,0,0,.2949-.3652,1.104,1.104,0,0,0,.11-.5,1.0233,1.0233,0,0,0-.36-.8545,1.4029,1.4029,0,0,0-.9-.2852,1.3406,1.3406,0,0,0-.5952.125,1.1918,1.1918,0,0,0-.42.335,1.4108,1.4108,0,0,0-.2451.49,2.138,2.138,0,0,0-.08.59h-.85a3.2124,3.2124,0,0,1,.165-.9307,2.076,2.076,0,0,1,.4146-.72,1.8611,1.8611,0,0,1,.6753-.47,2.4,2.4,0,0,1,.9351-.17,3.0313,3.0313,0,0,1,.855.1152,1.9763,1.9763,0,0,1,.6851.3447,1.5778,1.5778,0,0,1,.4546.59,2.02,2.02,0,0,1,.165.85,1.3732,1.3732,0,0,1-.28.8506,1.7862,1.7862,0,0,1-.7.56v.0205a1.4777,1.4777,0,0,1,.9653.6094,1.9481,1.9481,0,0,1,.3149,1.11,2.1218,2.1218,0,0,1-.1953.9346,1.9535,1.9535,0,0,1-.5249.6758,2.2326,2.2326,0,0,1-.7749.4043,3.2125,3.2125,0,0,1-.9448.1357,3.0308,3.0308,0,0,1-.98-.15,1.9991,1.9991,0,0,1-.75-.4453,1.9334,1.9334,0,0,1-.4751-.7246,2.5955,2.5955,0,0,1-.1553-.98h.85a1.7267,1.7267,0,0,0,.4,1.125,1.3955,1.3955,0,0,0,1.11.4355,1.8187,1.8187,0,0,0,.59-.0947,1.5174,1.5174,0,0,0,.49-.2705,1.2753,1.2753,0,0,0,.46-1.0049,1.3581,1.3581,0,0,0-.12-.585,1.2688,1.2688,0,0,0-.7949-.69,2.0088,2.0088,0,0,0-.5952-.085,4.1973,4.1973,0,0,0-.51.03v-.72A.4452.4452,0,0,0,136.4509,59.1465Z"/><path class="60292708-9ab6-482d-a27a-7403760b6292" d="M142.4509,63.1866v-5.08h-1.84v-.68a4.3241,4.3241,0,0,0,.7-.0557,1.9111,1.9111,0,0,0,.6152-.2041,1.4147,1.4147,0,0,0,.4648-.41,1.5679,1.5679,0,0,0,.26-.66h.65v7.09Z"/></g></g></svg>