<svg xmlns="http://www.w3.org/2000/svg" width="159.2667" height="67.2256" viewBox="0 0 159.2667 67.2256"><defs><style>.fd5776c2-570b-4eea-ad4b-cb9d189f811e{fill:#e6e6e6;}.a5371dff-d52a-45d3-96b8-eb7e09d379e0{fill:#3380c2;}</style></defs><title>fit2</title><g id="ae644940-2894-420f-bdfb-7166a7b7c5a4" data-name="Layer 2"><g id="54cedb6d-0423-4956-a290-ff2696f7cded" data-name="Layer 1"><path class="fd5776c2-570b-4eea-ad4b-cb9d189f811e" d="M4.2434,59.9794c0-5.5051.0133-7.6763.0133-7.6763h0q-.0128-.3838-.0133-.7738V15.6509C4.2434,7.007,9.381,0,15.72,0H147.7889c6.3392,0,11.4777,7.007,11.4777,15.6509V51.5294c0,8.6438-5.1385,15.6507-11.4777,15.6507H15.72a9.6716,9.6716,0,0,1-7.0122-3.2653l-.001.0019A11.099,11.099,0,0,1,0,67.18,7.5584,7.5584,0,0,0,4.2434,59.9794Z"/><path d="M16.5269,12.8272h-.95v-2.92l-2.76-4.22h1.13l2.14,3.3994,2.09-3.3994h1.08l-2.73,4.22Z"/><path d="M18.6871,9.1826a2.4083,2.4083,0,0,1,.48-.86,2.2708,2.2708,0,0,1,.79-.5752,2.8956,2.8956,0,0,1,2.165,0,2.2884,2.2884,0,0,1,.7852.5752,2.4232,2.4232,0,0,1,.48.86,3.4473,3.4473,0,0,1,.16,1.0645,3.4088,3.4088,0,0,1-.16,1.0605,2.4311,2.4311,0,0,1-.48.8545,2.215,2.215,0,0,1-.7852.57,2.96,2.96,0,0,1-2.165,0,2.1992,2.1992,0,0,1-.79-.57,2.416,2.416,0,0,1-.48-.8545,3.3945,3.3945,0,0,1-.16-1.0605A3.4328,3.4328,0,0,1,18.6871,9.1826Zm.8647,1.8994a1.7449,1.7449,0,0,0,.3452.61,1.5012,1.5012,0,0,0,.5151.375,1.5687,1.5687,0,0,0,1.25,0,1.5041,1.5041,0,0,0,.5146-.375,1.7373,1.7373,0,0,0,.3452-.61,2.8511,2.8511,0,0,0,0-1.67,1.7918,1.7918,0,0,0-.3452-.6143,1.4712,1.4712,0,0,0-.5146-.3809,1.5687,1.5687,0,0,0-1.25,0,1.4685,1.4685,0,0,0-.5151.3809,1.8,1.8,0,0,0-.3452.6143,2.8511,2.8511,0,0,0,0,1.67Z"/><path d="M28.0269,12.8272v-.8193h-.02a1.7373,1.7373,0,0,1-.69.7041,2.0646,2.0646,0,0,1-.99.2256,2.3227,2.3227,0,0,1-.85-.1348,1.3624,1.3624,0,0,1-.55-.3857,1.4387,1.4387,0,0,1-.2949-.5947,3.1988,3.1988,0,0,1-.085-.7646v-3.4h.85v3.5a1.0261,1.0261,0,0,0,.28.76,1.0372,1.0372,0,0,0,.77.28,1.73,1.73,0,0,0,.6748-.12,1.2674,1.2674,0,0,0,.4751-.34,1.4708,1.4708,0,0,0,.2852-.5146,2.1106,2.1106,0,0,0,.0947-.6455v-2.92h.85v5.17Z"/><path d="M30.877,7.6572v1.09h.02a2.3036,2.3036,0,0,1,.76-.93,1.9146,1.9146,0,0,1,1.14-.28v.9a2.4188,2.4188,0,0,0-.87.14,1.3789,1.3789,0,0,0-.58.41,1.6928,1.6928,0,0,0-.32.6553,3.5247,3.5247,0,0,0-.1.8848v2.3h-.85v-5.17Z"/><path d="M36.8667,11.6729a.9016.9016,0,0,0,.3149.31,1.3982,1.3982,0,0,0,.44.165,2.5294,2.5294,0,0,0,.5049.05,3.0426,3.0426,0,0,0,.42-.03,1.5469,1.5469,0,0,0,.4048-.1094.7661.7661,0,0,0,.3052-.2354.6293.6293,0,0,0,.12-.3945.5643.5643,0,0,0-.25-.5,2.1352,2.1352,0,0,0-.625-.2754c-.25-.07-.5215-.1328-.8149-.19a4.1431,4.1431,0,0,1-.8149-.2393,1.6909,1.6909,0,0,1-.625-.4355,1.13,1.13,0,0,1-.25-.7793,1.2418,1.2418,0,0,1,.1753-.6709,1.4167,1.4167,0,0,1,.45-.4541,2.057,2.057,0,0,1,.62-.2607,2.8542,2.8542,0,0,1,.6851-.085,4.1023,4.1023,0,0,1,.81.0752,1.8745,1.8745,0,0,1,.6548.26,1.3515,1.3515,0,0,1,.4551.5,1.9,1.9,0,0,1,.2.7852h-.85a.8687.8687,0,0,0-.13-.415.8591.8591,0,0,0-.28-.2646,1.2867,1.2867,0,0,0-.375-.1455,1.9751,1.9751,0,0,0-.415-.0449,2.5891,2.5891,0,0,0-.3848.03,1.2491,1.2491,0,0,0-.355.1055.7111.7111,0,0,0-.26.1992.5087.5087,0,0,0-.1.3252.479.479,0,0,0,.1553.3652,1.2351,1.2351,0,0,0,.395.24,3.3935,3.3935,0,0,0,.54.1592q.3.0659.6.1357.32.07.625.17a2.0455,2.0455,0,0,1,.54.2646,1.3055,1.3055,0,0,1,.38.415,1.2266,1.2266,0,0,1,.145.62,1.4426,1.4426,0,0,1-.1953.78,1.5312,1.5312,0,0,1-.51.5,2.1428,2.1428,0,0,1-.71.2646,4.2234,4.2234,0,0,1-.7852.0752,3.659,3.659,0,0,1-.82-.09,2.0162,2.0162,0,0,1-.69-.2949,1.511,1.511,0,0,1-.48-.54,1.8757,1.8757,0,0,1-.2-.8154h.85A.958.958,0,0,0,36.8667,11.6729Z"/><path d="M44.8765,12.4971a2.3426,2.3426,0,0,1-1.46.44,2.6469,2.6469,0,0,1-1.0747-.2,2.117,2.117,0,0,1-.7651-.56,2.3821,2.3821,0,0,1-.4648-.86,4.1256,4.1256,0,0,1-.1753-1.09,3.1059,3.1059,0,0,1,.18-1.08,2.5763,2.5763,0,0,1,.5049-.85,2.2953,2.2953,0,0,1,.77-.5605,2.3582,2.3582,0,0,1,.9751-.2,2.1269,2.1269,0,0,1,1.145.2852,2.2678,2.2678,0,0,1,.73.7256,2.8634,2.8634,0,0,1,.38.96,4.1052,4.1052,0,0,1,.085.9893h-3.87a2.0626,2.0626,0,0,0,.08.6455,1.4685,1.4685,0,0,0,.29.54,1.4382,1.4382,0,0,0,.51.375,1.7684,1.7684,0,0,0,.73.14,1.4685,1.4685,0,0,0,.8848-.25,1.2066,1.2066,0,0,0,.4551-.76h.84A2.0633,2.0633,0,0,1,44.8765,12.4971Zm-.2046-3.3193a1.4729,1.4729,0,0,0-.31-.4658,1.49,1.49,0,0,0-.46-.31,1.4643,1.4643,0,0,0-.585-.1152,1.4892,1.4892,0,0,0-.5952.1152,1.3729,1.3729,0,0,0-.4551.3154,1.5006,1.5006,0,0,0-.3.4648,1.7714,1.7714,0,0,0-.13.5645h2.97A1.7465,1.7465,0,0,0,44.6719,9.1778Z"/><path d="M47.2369,11.6729a.9016.9016,0,0,0,.3149.31,1.3982,1.3982,0,0,0,.44.165,2.5294,2.5294,0,0,0,.5049.05,3.0426,3.0426,0,0,0,.42-.03,1.5469,1.5469,0,0,0,.4048-.1094.7661.7661,0,0,0,.3052-.2354.6293.6293,0,0,0,.12-.3945.5643.5643,0,0,0-.25-.5,2.1352,2.1352,0,0,0-.625-.2754c-.25-.07-.5215-.1328-.8149-.19a4.1431,4.1431,0,0,1-.8149-.2393,1.6909,1.6909,0,0,1-.625-.4355,1.13,1.13,0,0,1-.25-.7793,1.2418,1.2418,0,0,1,.1753-.6709,1.4167,1.4167,0,0,1,.45-.4541,2.057,2.057,0,0,1,.62-.2607,2.8542,2.8542,0,0,1,.6851-.085,4.1023,4.1023,0,0,1,.81.0752,1.8745,1.8745,0,0,1,.6548.26,1.3515,1.3515,0,0,1,.4551.5,1.9,1.9,0,0,1,.2.7852h-.85a.8687.8687,0,0,0-.13-.415.8591.8591,0,0,0-.28-.2646,1.2867,1.2867,0,0,0-.375-.1455,1.9751,1.9751,0,0,0-.415-.0449,2.5891,2.5891,0,0,0-.3848.03,1.2491,1.2491,0,0,0-.355.1055.7111.7111,0,0,0-.26.1992.5087.5087,0,0,0-.1.3252.479.479,0,0,0,.1553.3652,1.2351,1.2351,0,0,0,.395.24,3.3935,3.3935,0,0,0,.54.1592q.3.0659.6.1357.32.07.625.17a2.0455,2.0455,0,0,1,.54.2646,1.3055,1.3055,0,0,1,.38.415,1.2266,1.2266,0,0,1,.145.62,1.4426,1.4426,0,0,1-.1953.78,1.5312,1.5312,0,0,1-.51.5,2.1428,2.1428,0,0,1-.71.2646,4.2234,4.2234,0,0,1-.7852.0752,3.659,3.659,0,0,1-.82-.09,2.0162,2.0162,0,0,1-.69-.2949,1.511,1.511,0,0,1-.48-.54,1.8757,1.8757,0,0,1-.2-.8154h.85A.958.958,0,0,0,47.2369,11.6729Z"/><path d="M52.2369,11.6729a.9016.9016,0,0,0,.3149.31,1.3982,1.3982,0,0,0,.44.165,2.5294,2.5294,0,0,0,.5049.05,3.0426,3.0426,0,0,0,.42-.03,1.5469,1.5469,0,0,0,.4048-.1094.7661.7661,0,0,0,.3052-.2354.6293.6293,0,0,0,.12-.3945.5643.5643,0,0,0-.25-.5,2.1352,2.1352,0,0,0-.625-.2754c-.25-.07-.5215-.1328-.8149-.19a4.1431,4.1431,0,0,1-.8149-.2393,1.6909,1.6909,0,0,1-.625-.4355,1.13,1.13,0,0,1-.25-.7793,1.2418,1.2418,0,0,1,.1753-.6709,1.4167,1.4167,0,0,1,.45-.4541,2.057,2.057,0,0,1,.62-.2607,2.8542,2.8542,0,0,1,.6851-.085,4.1023,4.1023,0,0,1,.81.0752,1.8745,1.8745,0,0,1,.6548.26,1.3515,1.3515,0,0,1,.4551.5,1.9,1.9,0,0,1,.2.7852h-.85a.8687.8687,0,0,0-.13-.415.8591.8591,0,0,0-.28-.2646,1.2867,1.2867,0,0,0-.375-.1455,1.9751,1.9751,0,0,0-.415-.0449,2.5891,2.5891,0,0,0-.3848.03,1.2491,1.2491,0,0,0-.355.1055.7111.7111,0,0,0-.26.1992.5087.5087,0,0,0-.1.3252.479.479,0,0,0,.1553.3652,1.2351,1.2351,0,0,0,.395.24,3.3935,3.3935,0,0,0,.54.1592q.3.0659.6.1357.32.07.625.17a2.0455,2.0455,0,0,1,.54.2646,1.3055,1.3055,0,0,1,.38.415,1.2266,1.2266,0,0,1,.145.62,1.4426,1.4426,0,0,1-.1953.78,1.5312,1.5312,0,0,1-.51.5,2.1428,2.1428,0,0,1-.71.2646,4.2234,4.2234,0,0,1-.7852.0752,3.659,3.659,0,0,1-.82-.09,2.0162,2.0162,0,0,1-.69-.2949,1.511,1.511,0,0,1-.48-.54,1.8757,1.8757,0,0,1-.2-.8154h.85A.958.958,0,0,0,52.2369,11.6729Z"/><path d="M56.6368,6.7276v-1.04h.85v1.04Zm.85.93v5.17h-.85v-5.17Z"/><path d="M58.6866,9.1826a2.4083,2.4083,0,0,1,.48-.86,2.2708,2.2708,0,0,1,.79-.5752,2.8956,2.8956,0,0,1,2.165,0,2.2884,2.2884,0,0,1,.7852.5752,2.4232,2.4232,0,0,1,.48.86,3.4473,3.4473,0,0,1,.16,1.0645,3.4088,3.4088,0,0,1-.16,1.0605,2.4311,2.4311,0,0,1-.48.8545,2.215,2.215,0,0,1-.7852.57,2.96,2.96,0,0,1-2.165,0,2.1992,2.1992,0,0,1-.79-.57,2.416,2.416,0,0,1-.48-.8545,3.3945,3.3945,0,0,1-.16-1.0605A3.4328,3.4328,0,0,1,58.6866,9.1826Zm.8647,1.8994a1.7449,1.7449,0,0,0,.3452.61,1.5012,1.5012,0,0,0,.5151.375,1.5687,1.5687,0,0,0,1.25,0,1.5041,1.5041,0,0,0,.5146-.375,1.7373,1.7373,0,0,0,.3452-.61,2.8511,2.8511,0,0,0,0-1.67,1.7918,1.7918,0,0,0-.3452-.6143,1.4712,1.4712,0,0,0-.5146-.3809,1.5687,1.5687,0,0,0-1.25,0,1.4685,1.4685,0,0,0-.5151.3809,1.8,1.8,0,0,0-.3452.6143,2.8511,2.8511,0,0,0,0,1.67Z"/><path d="M65.3462,7.6572v.82h.02a1.79,1.79,0,0,1,1.68-.94,2.237,2.237,0,0,1,.85.1406,1.389,1.389,0,0,1,.55.39,1.4507,1.4507,0,0,1,.2949.5947,3.2072,3.2072,0,0,1,.085.7656v3.3994h-.85v-3.5a1.0276,1.0276,0,0,0-.28-.76,1.0411,1.0411,0,0,0-.77-.28,1.7288,1.7288,0,0,0-.6748.12,1.2635,1.2635,0,0,0-.4751.34,1.4675,1.4675,0,0,0-.2852.5156,2.0851,2.0851,0,0,0-.0947.6445v2.92h-.85v-5.17Z"/><path d="M73.7369,5.6875V8.417h.02a1.1319,1.1319,0,0,1,.28-.4043,1.5946,1.5946,0,0,1,.4048-.2705,2.1857,2.1857,0,0,1,.47-.1553,2.3781,2.3781,0,0,1,.4751-.05,2.237,2.237,0,0,1,.85.1406,1.389,1.389,0,0,1,.55.39,1.4507,1.4507,0,0,1,.2949.5947,3.2072,3.2072,0,0,1,.085.7656v3.3994h-.85v-3.5a1.0276,1.0276,0,0,0-.28-.76,1.0411,1.0411,0,0,0-.77-.28,1.7288,1.7288,0,0,0-.6748.12,1.2635,1.2635,0,0,0-.4751.34,1.4675,1.4675,0,0,0-.2852.5156,2.0851,2.0851,0,0,0-.0947.6445v2.92h-.85v-7.14Z"/><path d="M83.0264,12.8076a1.2116,1.2116,0,0,1-.61.13.7287.7287,0,0,1-.5249-.1855.8025.8025,0,0,1-.1948-.6045,2.03,2.03,0,0,1-.8149.6045,2.8106,2.8106,0,0,1-1.67.1055,1.5537,1.5537,0,0,1-.5449-.25,1.1964,1.1964,0,0,1-.3647-.4453,1.4884,1.4884,0,0,1-.1353-.665,1.5227,1.5227,0,0,1,.15-.72,1.3185,1.3185,0,0,1,.395-.4551,1.8132,1.8132,0,0,1,.56-.2646,6.5937,6.5937,0,0,1,.645-.15c.2334-.0469.4551-.0811.665-.1045a3.6439,3.6439,0,0,0,.5552-.1006.9219.9219,0,0,0,.38-.1895.4654.4654,0,0,0,.14-.3652.851.851,0,0,0-.105-.45.72.72,0,0,0-.27-.26,1.0752,1.0752,0,0,0-.37-.12,2.8607,2.8607,0,0,0-.4048-.03,1.7983,1.7983,0,0,0-.9.2051.8714.8714,0,0,0-.39.7754h-.85a1.843,1.843,0,0,1,.2-.8105,1.5171,1.5171,0,0,1,.48-.5342,2.023,2.023,0,0,1,.6846-.2959,3.6442,3.6442,0,0,1,.8252-.09,4.8546,4.8546,0,0,1,.6948.05,1.83,1.83,0,0,1,.625.2051,1.2056,1.2056,0,0,1,.45.4336,1.39,1.39,0,0,1,.17.7285v2.6543a1.9764,1.9764,0,0,0,.0352.4395c.0229.0928.1016.14.2349.14a1.0479,1.0479,0,0,0,.26-.04Zm-1.38-2.65a1.0614,1.0614,0,0,1-.42.1748c-.1733.0361-.355.0664-.5449.0889s-.3818.05-.5752.08a2.0948,2.0948,0,0,0-.52.1445.9336.9336,0,0,0-.375.2832.791.791,0,0,0-.145.502.68.68,0,0,0,.0854.3535.6979.6979,0,0,0,.22.2344.9217.9217,0,0,0,.3149.1289,1.7665,1.7665,0,0,0,.38.04,2.0263,2.0263,0,0,0,.72-.1143,1.5147,1.5147,0,0,0,.49-.2891,1.1446,1.1446,0,0,0,.28-.3779.95.95,0,0,0,.09-.3828Z"/><path d="M84.4664,11.6729a.9016.9016,0,0,0,.3149.31,1.3982,1.3982,0,0,0,.44.165,2.5294,2.5294,0,0,0,.5049.05,3.0426,3.0426,0,0,0,.42-.03,1.5469,1.5469,0,0,0,.4048-.1094.7661.7661,0,0,0,.3052-.2354.6293.6293,0,0,0,.12-.3945.5643.5643,0,0,0-.25-.5,2.1352,2.1352,0,0,0-.625-.2754c-.25-.07-.5215-.1328-.8149-.19a4.1431,4.1431,0,0,1-.8149-.2393,1.6909,1.6909,0,0,1-.625-.4355,1.13,1.13,0,0,1-.25-.7793,1.2418,1.2418,0,0,1,.1753-.6709,1.4167,1.4167,0,0,1,.45-.4541,2.057,2.057,0,0,1,.62-.2607,2.8542,2.8542,0,0,1,.6851-.085,4.1023,4.1023,0,0,1,.81.0752,1.8745,1.8745,0,0,1,.6548.26,1.3515,1.3515,0,0,1,.4551.5,1.9,1.9,0,0,1,.2.7852h-.85a.8687.8687,0,0,0-.13-.415.8591.8591,0,0,0-.28-.2646,1.2867,1.2867,0,0,0-.375-.1455,1.9751,1.9751,0,0,0-.415-.0449,2.5891,2.5891,0,0,0-.3848.03,1.2491,1.2491,0,0,0-.355.1055.7111.7111,0,0,0-.26.1992.5087.5087,0,0,0-.1.3252.479.479,0,0,0,.1553.3652,1.2351,1.2351,0,0,0,.395.24,3.3935,3.3935,0,0,0,.54.1592q.3.0659.6.1357.32.07.625.17a2.0455,2.0455,0,0,1,.54.2646,1.3055,1.3055,0,0,1,.38.415,1.2266,1.2266,0,0,1,.145.62,1.4426,1.4426,0,0,1-.1953.78,1.5312,1.5312,0,0,1-.51.5,2.1428,2.1428,0,0,1-.71.2646,4.2234,4.2234,0,0,1-.7852.0752,3.659,3.659,0,0,1-.82-.09,2.0162,2.0162,0,0,1-.69-.2949,1.511,1.511,0,0,1-.48-.54,1.8757,1.8757,0,0,1-.2-.8154h.85A.958.958,0,0,0,84.4664,11.6729Z"/><path d="M92.4761,5.6875v2.67h.02a1.274,1.274,0,0,1,.66-.625,2.4643,2.4643,0,0,1,.99-.1953,2.32,2.32,0,0,1,1.0449.2207,2.1227,2.1227,0,0,1,.74.5947,2.633,2.633,0,0,1,.4448.8652,3.5262,3.5262,0,0,1,.15,1.04,3.6518,3.6518,0,0,1-.145,1.04,2.4473,2.4473,0,0,1-.44.8545,2.0862,2.0862,0,0,1-.74.5752,2.4066,2.4066,0,0,1-1.0352.21,2.5835,2.5835,0,0,1-.4248-.04,2.3708,2.3708,0,0,1-.4653-.13,1.8318,1.8318,0,0,1-.4351-.2451,1.3682,1.3682,0,0,1-.3447-.3848h-.02v.6895h-.85v-7.14Zm3.0552,3.8047a1.9211,1.9211,0,0,0-.29-.6152,1.4262,1.4262,0,0,0-.5-.43,1.5228,1.5228,0,0,0-.7153-.16,1.4012,1.4012,0,0,0-1.22.6152,1.8465,1.8465,0,0,0-.2749.625,3.0318,3.0318,0,0,0,.0049,1.4453,1.822,1.822,0,0,0,.2852.625,1.4467,1.4467,0,0,0,.5049.4346,1.5729,1.5729,0,0,0,.75.165,1.4546,1.4546,0,0,0,.7349-.17,1.3683,1.3683,0,0,0,.4751-.45,1.9471,1.9471,0,0,0,.26-.64,3.4078,3.4078,0,0,0,.08-.74A2.6592,2.6592,0,0,0,95.5313,9.4922Z"/><path d="M101.1861,12.4971a2.3426,2.3426,0,0,1-1.46.44,2.6469,2.6469,0,0,1-1.0747-.2,2.117,2.117,0,0,1-.7651-.56,2.3821,2.3821,0,0,1-.4648-.86,4.1256,4.1256,0,0,1-.1753-1.09,3.1059,3.1059,0,0,1,.18-1.08,2.5763,2.5763,0,0,1,.5049-.85,2.2953,2.2953,0,0,1,.77-.5605,2.3582,2.3582,0,0,1,.9751-.2,2.1269,2.1269,0,0,1,1.145.2852,2.2678,2.2678,0,0,1,.73.7256,2.8634,2.8634,0,0,1,.38.96,4.1053,4.1053,0,0,1,.085.9893h-3.87a2.0626,2.0626,0,0,0,.08.6455,1.4685,1.4685,0,0,0,.29.54,1.4382,1.4382,0,0,0,.51.375,1.7684,1.7684,0,0,0,.73.14,1.4685,1.4685,0,0,0,.8848-.25,1.2066,1.2066,0,0,0,.4551-.76h.84A2.0633,2.0633,0,0,1,101.1861,12.4971Zm-.2046-3.3193a1.4729,1.4729,0,0,0-.31-.4658,1.49,1.49,0,0,0-.46-.31,1.4643,1.4643,0,0,0-.585-.1152,1.4892,1.4892,0,0,0-.5952.1152,1.3729,1.3729,0,0,0-.4551.3154,1.5006,1.5006,0,0,0-.3.4648,1.7714,1.7714,0,0,0-.13.5645h2.97A1.7465,1.7465,0,0,0,100.9815,9.1778Z"/><path d="M106.5557,12.4971a2.3426,2.3426,0,0,1-1.46.44,2.6469,2.6469,0,0,1-1.0747-.2,2.117,2.117,0,0,1-.7651-.56,2.3821,2.3821,0,0,1-.4648-.86,4.1256,4.1256,0,0,1-.1753-1.09,3.1059,3.1059,0,0,1,.18-1.08,2.5763,2.5763,0,0,1,.5049-.85,2.2953,2.2953,0,0,1,.77-.5605,2.3582,2.3582,0,0,1,.9751-.2,2.1269,2.1269,0,0,1,1.145.2852,2.2678,2.2678,0,0,1,.73.7256,2.8634,2.8634,0,0,1,.38.96,4.1052,4.1052,0,0,1,.085.9893h-3.87a2.0626,2.0626,0,0,0,.08.6455,1.4685,1.4685,0,0,0,.29.54,1.4382,1.4382,0,0,0,.51.375,1.7684,1.7684,0,0,0,.73.14,1.4685,1.4685,0,0,0,.8848-.25,1.2066,1.2066,0,0,0,.4551-.76h.84A2.0633,2.0633,0,0,1,106.5557,12.4971Zm-.2046-3.3193a1.4729,1.4729,0,0,0-.31-.4658,1.49,1.49,0,0,0-.46-.31,1.4643,1.4643,0,0,0-.585-.1152,1.4892,1.4892,0,0,0-.5952.1152,1.3729,1.3729,0,0,0-.4551.3154,1.5006,1.5006,0,0,0-.3.4648,1.7714,1.7714,0,0,0-.13.5645h2.97A1.7465,1.7465,0,0,0,106.3511,9.1778Z"/><path d="M109.066,7.6572v.82h.02a1.79,1.79,0,0,1,1.68-.94,2.237,2.237,0,0,1,.85.1406,1.389,1.389,0,0,1,.55.39,1.4507,1.4507,0,0,1,.2949.5947,3.2072,3.2072,0,0,1,.085.7656v3.3994h-.85v-3.5a1.0276,1.0276,0,0,0-.28-.76,1.0411,1.0411,0,0,0-.77-.28,1.7288,1.7288,0,0,0-.6748.12,1.2635,1.2635,0,0,0-.4751.34,1.4675,1.4675,0,0,0-.2852.5156,2.0851,2.0851,0,0,0-.0947.6445v2.92h-.85v-5.17Z"/><path d="M17.8921,18.6973a2.2119,2.2119,0,0,0-1.2954-.38,2.316,2.316,0,0,0-1.0947.24,2.16,2.16,0,0,0-.75.6445,2.7931,2.7931,0,0,0-.4351.9248,4.1416,4.1416,0,0,0-.14,1.08,4.6287,4.6287,0,0,0,.14,1.1553,2.7651,2.7651,0,0,0,.4351.95,2.14,2.14,0,0,0,.7549.6445,2.3482,2.3482,0,0,0,1.1.24,2.1183,2.1183,0,0,0,.835-.1553,1.876,1.876,0,0,0,.63-.43,1.9773,1.9773,0,0,0,.415-.6553,2.7176,2.7176,0,0,0,.18-.8193h.95a3.2445,3.2445,0,0,1-.93,2.1,3.01,3.01,0,0,1-2.16.75,3.4372,3.4372,0,0,1-1.45-.2852,2.8373,2.8373,0,0,1-1.03-.7852,3.3692,3.3692,0,0,1-.6152-1.18,5.0291,5.0291,0,0,1-.2046-1.46,4.7718,4.7718,0,0,1,.22-1.4648,3.526,3.526,0,0,1,.645-1.1953,3.0026,3.0026,0,0,1,1.06-.8047,3.4222,3.4222,0,0,1,1.4551-.2949,3.6862,3.6862,0,0,1,1.06.1494,2.8614,2.8614,0,0,1,.89.44,2.4756,2.4756,0,0,1,.65.7246,2.6549,2.6549,0,0,1,.34,1.0049h-.95A1.7678,1.7678,0,0,0,17.8921,18.6973Z"/><path d="M20.6119,19.8526a3.528,3.528,0,0,1,.645-1.1953,3.146,3.146,0,0,1,1.07-.83,3.7405,3.7405,0,0,1,2.98,0,3.1507,3.1507,0,0,1,1.07.83,3.5449,3.5449,0,0,1,.645,1.1953,4.69,4.69,0,0,1,0,2.81,3.5449,3.5449,0,0,1-.645,1.1953,3.0906,3.0906,0,0,1-1.07.8252,3.7955,3.7955,0,0,1-2.98,0,3.0861,3.0861,0,0,1-1.07-.8252,3.528,3.528,0,0,1-.645-1.1953,4.69,4.69,0,0,1,0-2.81Zm.875,2.47a2.8853,2.8853,0,0,0,.44.9453,2.2414,2.2414,0,0,0,.77.6748,2.5876,2.5876,0,0,0,2.24,0,2.2414,2.2414,0,0,0,.77-.6748,2.8853,2.8853,0,0,0,.44-.9453,4.1165,4.1165,0,0,0,0-2.13,2.8946,2.8946,0,0,0-.44-.9453,2.2515,2.2515,0,0,0-.77-.6748,2.5876,2.5876,0,0,0-2.24,0,2.2515,2.2515,0,0,0-.77.6748,2.8946,2.8946,0,0,0-.44.9453,4.1165,4.1165,0,0,0,0,2.13Z"/><path d="M29.3965,17.6875l3.76,5.79h.02v-5.79h.9v7.14h-1.04l-3.73-5.7295h-.02v5.7295h-.9v-7.14Z"/><path d="M40.3067,17.6875v.8h-3.74v2.2705h3.28v.8h-3.28v3.27h-.95v-7.14Z"/><path d="M42.3467,17.6875v7.14h-.95v-7.14Z"/><path d="M47.3067,17.6875a2.3525,2.3525,0,0,1,1.5947.5,1.7209,1.7209,0,0,1,.5752,1.37,2.1674,2.1674,0,0,1-.2949,1.14,1.5174,1.5174,0,0,1-.9453.67v.0205a1.2856,1.2856,0,0,1,.5054.1992,1.0939,1.0939,0,0,1,.31.3359,1.5254,1.5254,0,0,1,.17.4346,4.6387,4.6387,0,0,1,.085.5c.0132.1738.0229.35.03.53a4.5831,4.5831,0,0,0,.05.5293,3.2167,3.2167,0,0,0,.1147.4951,1.2118,1.2118,0,0,0,.2251.415h-1.06a.5888.5888,0,0,1-.1348-.3,3.0972,3.0972,0,0,1-.0454-.4248c-.0063-.1562-.0132-.3252-.02-.5049a3.4626,3.4626,0,0,0-.06-.53q-.04-.2593-.1-.4951a1.1742,1.1742,0,0,0-.19-.41.9358.9358,0,0,0-.34-.2793,1.2553,1.2553,0,0,0-.56-.1055h-2.32v3.05h-.95v-7.14Zm.2,3.24a1.3757,1.3757,0,0,0,.5254-.1953,1.0723,1.0723,0,0,0,.36-.39,1.3147,1.3147,0,0,0,.1348-.6357,1.2828,1.2828,0,0,0-.3-.88,1.2337,1.2337,0,0,0-.97-.34h-2.36v2.49h1.98A3.8381,3.8381,0,0,0,47.5064,20.9278Z"/><path d="M52.1163,17.6875l2.25,6,2.26-6h1.3v7.14h-.9V18.8877h-.02l-2.23,5.9395h-.81l-2.23-5.9395h-.02v5.9395h-.9v-7.14Z"/><path d="M64.4361,17.6875v.8h-3.98v2.2705h3.71v.8h-3.71v2.47h4.01v.8h-4.96v-7.14Z"/><path d="M68.066,17.6875a3.5615,3.5615,0,0,1,2.54.84,3.3621,3.3621,0,0,1,.89,2.56,5.7854,5.7854,0,0,1-.2,1.5957,2.9786,2.9786,0,0,1-.62,1.17,2.6818,2.6818,0,0,1-1.07.7246,4.28,4.28,0,0,1-1.54.25h-2.45v-7.14Zm.08,6.34a3.7483,3.7483,0,0,0,.4-.0254,2.2306,2.2306,0,0,0,.51-.1191,2.34,2.34,0,0,0,.5347-.2754,1.8034,1.8034,0,0,0,.4751-.49,2.7391,2.7391,0,0,0,.3452-.7744,4.0887,4.0887,0,0,0,.1348-1.125,4.7765,4.7765,0,0,0-.125-1.1455,2.196,2.196,0,0,0-.41-.86,1.7967,1.7967,0,0,0-.7349-.5391,2.9119,2.9119,0,0,0-1.11-.1855h-1.6v5.54Z"/><path d="M73.816,23.7178v1.1094h-1.11V23.7178Z"/><path d="M79.2061,17.6875v7.14h-.95v-7.14Z"/><path d="M84.3458,17.6875v7.14h-.85v-7.14Z"/><path d="M85.5459,21.1826a2.4083,2.4083,0,0,1,.48-.86,2.2708,2.2708,0,0,1,.79-.5752,2.8956,2.8956,0,0,1,2.165,0,2.2884,2.2884,0,0,1,.7852.5752,2.4232,2.4232,0,0,1,.48.86,3.4473,3.4473,0,0,1,.16,1.0645,3.4088,3.4088,0,0,1-.16,1.0605,2.4311,2.4311,0,0,1-.48.8545,2.215,2.215,0,0,1-.7852.57,2.96,2.96,0,0,1-2.165,0,2.1992,2.1992,0,0,1-.79-.57,2.416,2.416,0,0,1-.48-.8545,3.3945,3.3945,0,0,1-.16-1.0605A3.4328,3.4328,0,0,1,85.5459,21.1826Zm.8647,1.8994a1.7449,1.7449,0,0,0,.3452.61,1.5012,1.5012,0,0,0,.5151.375,1.5687,1.5687,0,0,0,1.25,0,1.5041,1.5041,0,0,0,.5146-.375,1.7373,1.7373,0,0,0,.3452-.61,2.8511,2.8511,0,0,0,0-1.67,1.7918,1.7918,0,0,0-.3452-.6143,1.4712,1.4712,0,0,0-.5146-.3809,1.5687,1.5687,0,0,0-1.25,0,1.4685,1.4685,0,0,0-.5151.3809,1.8,1.8,0,0,0-.3452.6143,2.8511,2.8511,0,0,0,0,1.67Z"/><path d="M91.2857,21.1826a2.4083,2.4083,0,0,1,.48-.86,2.2708,2.2708,0,0,1,.79-.5752,2.8956,2.8956,0,0,1,2.165,0,2.2884,2.2884,0,0,1,.7852.5752,2.4232,2.4232,0,0,1,.48.86,3.4473,3.4473,0,0,1,.16,1.0645,3.4088,3.4088,0,0,1-.16,1.0605,2.4311,2.4311,0,0,1-.48.8545,2.215,2.215,0,0,1-.7852.57,2.96,2.96,0,0,1-2.165,0,2.1992,2.1992,0,0,1-.79-.57,2.416,2.416,0,0,1-.48-.8545,3.3945,3.3945,0,0,1-.16-1.0605A3.4328,3.4328,0,0,1,91.2857,21.1826ZM92.15,23.082a1.7449,1.7449,0,0,0,.3452.61,1.5012,1.5012,0,0,0,.5151.375,1.5687,1.5687,0,0,0,1.25,0,1.5041,1.5041,0,0,0,.5146-.375,1.7373,1.7373,0,0,0,.3452-.61,2.8511,2.8511,0,0,0,0-1.67,1.7918,1.7918,0,0,0-.3452-.6143,1.4712,1.4712,0,0,0-.5146-.3809,1.5687,1.5687,0,0,0-1.25,0,1.4685,1.4685,0,0,0-.5151.3809,1.8,1.8,0,0,0-.3452.6143,2.8511,2.8511,0,0,0,0,1.67Z"/><path d="M98.0455,17.6875V21.917l2.36-2.26h1.14l-2.05,1.88,2.2,3.29h-1.08l-1.77-2.7-.8.74v1.96h-.85v-7.14Z"/><path d="M104.5958,20.4072v-.75h.87v-.77a1.2113,1.2113,0,0,1,.3647-.9551,1.5523,1.5523,0,0,1,1.0649-.3252,2.2864,2.2864,0,0,1,.2749.02,1.5192,1.5192,0,0,1,.2754.0605v.74a1.0675,1.0675,0,0,0-.24-.0557,2.1549,2.1549,0,0,0-.24-.0146.8238.8238,0,0,0-.48.12.53.53,0,0,0-.17.46v.72h1v.75h-1v4.42h-.85v-4.42Z"/><path d="M107.9556,21.1826a2.4083,2.4083,0,0,1,.48-.86,2.2708,2.2708,0,0,1,.79-.5752,2.8956,2.8956,0,0,1,2.165,0,2.2884,2.2884,0,0,1,.7852.5752,2.4232,2.4232,0,0,1,.48.86,3.4473,3.4473,0,0,1,.16,1.0645,3.4088,3.4088,0,0,1-.16,1.0605,2.4311,2.4311,0,0,1-.48.8545,2.215,2.215,0,0,1-.7852.57,2.96,2.96,0,0,1-2.165,0,2.1992,2.1992,0,0,1-.79-.57,2.416,2.416,0,0,1-.48-.8545,3.3945,3.3945,0,0,1-.16-1.0605A3.4328,3.4328,0,0,1,107.9556,21.1826Zm.8647,1.8994a1.7449,1.7449,0,0,0,.3452.61,1.5012,1.5012,0,0,0,.5151.375,1.5687,1.5687,0,0,0,1.25,0,1.5041,1.5041,0,0,0,.5146-.375,1.7373,1.7373,0,0,0,.3452-.61,2.8511,2.8511,0,0,0,0-1.67,1.7918,1.7918,0,0,0-.3452-.6143,1.4712,1.4712,0,0,0-.5146-.3809,1.5687,1.5687,0,0,0-1.25,0,1.4685,1.4685,0,0,0-.5151.3809,1.8,1.8,0,0,0-.3452.6143,2.8511,2.8511,0,0,0,0,1.67Z"/><path d="M114.5855,19.6572v1.09h.02a2.3036,2.3036,0,0,1,.76-.93,1.9146,1.9146,0,0,1,1.14-.28v.9a2.4188,2.4188,0,0,0-.87.14,1.3789,1.3789,0,0,0-.58.41,1.6928,1.6928,0,0,0-.32.6553,3.5247,3.5247,0,0,0-.1.8848v2.3h-.85v-5.17Z"/><path d="M121.3653,24.8272l-1.05-4.1094h-.02l-1.04,4.1094h-.92l-1.66-5.17h.94l1.17,4.23h.02l1.04-4.23h.93l1.08,4.23h.02l1.16-4.23h.88l-1.65,5.17Z"/><path d="M129.3052,24.8076a1.2116,1.2116,0,0,1-.61.13.7287.7287,0,0,1-.5249-.1855.8025.8025,0,0,1-.1948-.6045,2.03,2.03,0,0,1-.8149.6045,2.8106,2.8106,0,0,1-1.67.1055,1.5537,1.5537,0,0,1-.5449-.25,1.1964,1.1964,0,0,1-.3647-.4453,1.4884,1.4884,0,0,1-.1353-.665,1.5227,1.5227,0,0,1,.15-.72,1.3185,1.3185,0,0,1,.395-.4551,1.8132,1.8132,0,0,1,.56-.2646,6.5936,6.5936,0,0,1,.645-.15c.2334-.0469.4551-.0811.665-.1045a3.6439,3.6439,0,0,0,.5552-.1006.9219.9219,0,0,0,.38-.1895.4654.4654,0,0,0,.14-.3652.851.851,0,0,0-.105-.45.72.72,0,0,0-.27-.26,1.0752,1.0752,0,0,0-.37-.12,2.8607,2.8607,0,0,0-.4048-.03,1.7983,1.7983,0,0,0-.9.2051.8714.8714,0,0,0-.39.7754h-.85a1.843,1.843,0,0,1,.2-.8105,1.5171,1.5171,0,0,1,.48-.5342,2.023,2.023,0,0,1,.6846-.2959,3.6442,3.6442,0,0,1,.8252-.09,4.8546,4.8546,0,0,1,.6948.05,1.83,1.83,0,0,1,.625.2051,1.2056,1.2056,0,0,1,.45.4336,1.39,1.39,0,0,1,.17.7285v2.6543a1.9764,1.9764,0,0,0,.0352.4395c.0229.0928.1016.14.2349.14a1.0479,1.0479,0,0,0,.26-.04Zm-1.38-2.65a1.0614,1.0614,0,0,1-.42.1748c-.1733.0361-.355.0664-.5449.0889s-.3818.05-.5752.08a2.0948,2.0948,0,0,0-.52.1445.9336.9336,0,0,0-.375.2832.791.791,0,0,0-.145.502.68.68,0,0,0,.0854.3535.6979.6979,0,0,0,.22.2344.9217.9217,0,0,0,.3149.1289,1.7665,1.7665,0,0,0,.38.04,2.0263,2.0263,0,0,0,.72-.1143,1.5147,1.5147,0,0,0,.49-.2891,1.1446,1.1446,0,0,0,.28-.3779.95.95,0,0,0,.09-.3828Z"/><path d="M130.8653,19.6572v1.09h.02a2.3036,2.3036,0,0,1,.76-.93,1.9146,1.9146,0,0,1,1.14-.28v.9a2.4188,2.4188,0,0,0-.87.14,1.3789,1.3789,0,0,0-.58.41,1.6928,1.6928,0,0,0-.32.6553,3.5247,3.5247,0,0,0-.1.8848v2.3h-.85v-5.17Z"/><path d="M137.0152,24.8272v-.7h-.02a1.2484,1.2484,0,0,1-.66.62,2.5134,2.5134,0,0,1-.99.19,2.3356,2.3356,0,0,1-1.0454-.22,2.1441,2.1441,0,0,1-.74-.5908,2.5673,2.5673,0,0,1-.4453-.8594,3.5519,3.5519,0,0,1-.15-1.04,3.642,3.642,0,0,1,.145-1.04,2.4519,2.4519,0,0,1,.44-.8555,2.13,2.13,0,0,1,.74-.58,2.3629,2.3629,0,0,1,1.0352-.2148,2.5453,2.5453,0,0,1,.43.04,2.2755,2.2755,0,0,1,.46.1348,1.9994,1.9994,0,0,1,.4351.25,1.3813,1.3813,0,0,1,.3452.3857h.02v-2.66h.85v7.14Zm-3.0552-1.835a1.9017,1.9017,0,0,0,.29.6152,1.4177,1.4177,0,0,0,.5.43,1.5077,1.5077,0,0,0,.7148.16,1.4029,1.4029,0,0,0,1.22-.6152,1.8572,1.8572,0,0,0,.2749-.625,3.0278,3.0278,0,0,0-.0049-1.4443,1.8143,1.8143,0,0,0-.2852-.625,1.4536,1.4536,0,0,0-.5049-.4355,1.5845,1.5845,0,0,0-.75-.165,1.46,1.46,0,0,0-.73.17,1.3629,1.3629,0,0,0-.48.45,1.9532,1.9532,0,0,0-.26.6406,3.3988,3.3988,0,0,0-.08.7393A2.6345,2.6345,0,0,0,133.96,22.9922Z"/><path d="M144.1651,19.6572v.75h-1.03v3.21a.9037.9037,0,0,0,.0254.24.2432.2432,0,0,0,.0947.14.4073.4073,0,0,0,.1948.0654,2.9086,2.9086,0,0,0,.3252.0146h.39v.75h-.65a3.0331,3.0331,0,0,1-.5654-.0449.8336.8336,0,0,1-.38-.165.7035.7035,0,0,1-.2148-.34,1.9569,1.9569,0,0,1-.07-.58v-3.29h-.88v-.75h.88v-1.55h.85v1.55Z"/><path d="M144.9849,21.1826a2.4083,2.4083,0,0,1,.48-.86,2.2708,2.2708,0,0,1,.79-.5752,2.8956,2.8956,0,0,1,2.165,0,2.2884,2.2884,0,0,1,.7852.5752,2.4232,2.4232,0,0,1,.48.86,3.4473,3.4473,0,0,1,.16,1.0645,3.4088,3.4088,0,0,1-.16,1.0605,2.4311,2.4311,0,0,1-.48.8545,2.215,2.215,0,0,1-.7852.57,2.96,2.96,0,0,1-2.165,0,2.1992,2.1992,0,0,1-.79-.57,2.416,2.416,0,0,1-.48-.8545,3.3945,3.3945,0,0,1-.16-1.0605A3.4328,3.4328,0,0,1,144.9849,21.1826Zm.8647,1.8994a1.7449,1.7449,0,0,0,.3452.61,1.5012,1.5012,0,0,0,.5151.375,1.5687,1.5687,0,0,0,1.25,0,1.5041,1.5041,0,0,0,.5146-.375,1.7373,1.7373,0,0,0,.3452-.61,2.8511,2.8511,0,0,0,0-1.67,1.7918,1.7918,0,0,0-.3452-.6143,1.4712,1.4712,0,0,0-.5146-.3809,1.5687,1.5687,0,0,0-1.25,0,1.4685,1.4685,0,0,0-.5151.3809,1.8,1.8,0,0,0-.3452.6143,2.8511,2.8511,0,0,0,0,1.67Z"/><path d="M14.087,35.6729a.9128.9128,0,0,0,.3149.3105,1.4223,1.4223,0,0,0,.44.165,2.5294,2.5294,0,0,0,.5049.05,3.0426,3.0426,0,0,0,.42-.03,1.5469,1.5469,0,0,0,.4048-.1094.7661.7661,0,0,0,.3052-.2354.63.63,0,0,0,.12-.3955.5666.5666,0,0,0-.25-.5,2.11,2.11,0,0,0-.625-.2744q-.375-.1055-.8149-.19a4.211,4.211,0,0,1-.8149-.24,1.6775,1.6775,0,0,1-.625-.4346,1.1306,1.1306,0,0,1-.25-.78,1.2384,1.2384,0,0,1,.1753-.67,1.43,1.43,0,0,1,.45-.4551,2.08,2.08,0,0,1,.62-.26,2.8542,2.8542,0,0,1,.6851-.085,4.03,4.03,0,0,1,.81.0752,1.8745,1.8745,0,0,1,.6548.26,1.344,1.344,0,0,1,.4551.5,1.9,1.9,0,0,1,.2.7852h-.85a.8652.8652,0,0,0-.13-.415.8491.8491,0,0,0-.28-.2646,1.26,1.26,0,0,0-.375-.1455,1.9125,1.9125,0,0,0-.415-.0449,2.4645,2.4645,0,0,0-.3848.03,1.2807,1.2807,0,0,0-.355.1045.7133.7133,0,0,0-.26.2.5069.5069,0,0,0-.1.3252.479.479,0,0,0,.1553.3652,1.2164,1.2164,0,0,0,.395.2393,3.3909,3.3909,0,0,0,.54.16q.3.0659.6.1348a6.2276,6.2276,0,0,1,.625.1709,2.016,2.016,0,0,1,.54.2646,1.2953,1.2953,0,0,1,.38.415,1.2241,1.2241,0,0,1,.145.62,1.4368,1.4368,0,0,1-.1953.7793,1.513,1.513,0,0,1-.51.5,2.1229,2.1229,0,0,1-.71.2656,4.2234,4.2234,0,0,1-.7852.0752,3.6027,3.6027,0,0,1-.82-.0908,1.9974,1.9974,0,0,1-.69-.2949,1.4948,1.4948,0,0,1-.48-.54,1.8677,1.8677,0,0,1-.2-.8145h.85A.9513.9513,0,0,0,14.087,35.6729Z"/><path d="M22.0967,36.4981a2.3426,2.3426,0,0,1-1.46.44,2.6634,2.6634,0,0,1-1.0747-.2,2.1194,2.1194,0,0,1-.7651-.5605,2.37,2.37,0,0,1-.4648-.8594,4.1388,4.1388,0,0,1-.1753-1.09,3.1059,3.1059,0,0,1,.18-1.08,2.5809,2.5809,0,0,1,.5049-.8506,2.2926,2.2926,0,0,1,.77-.56,2.3582,2.3582,0,0,1,.9751-.2,2.1183,2.1183,0,0,1,1.145.2852,2.265,2.265,0,0,1,.73.7246,2.8715,2.8715,0,0,1,.38.96,4.109,4.109,0,0,1,.085.99h-3.87a2.0662,2.0662,0,0,0,.08.6455,1.4685,1.4685,0,0,0,.29.54,1.4382,1.4382,0,0,0,.51.375,1.7684,1.7684,0,0,0,.73.14,1.4685,1.4685,0,0,0,.8848-.25,1.2092,1.2092,0,0,0,.4551-.76h.84A2.0633,2.0633,0,0,1,22.0967,36.4981Zm-.2046-3.32a1.4357,1.4357,0,0,0-.77-.7744,1.4477,1.4477,0,0,0-.585-.1152,1.4726,1.4726,0,0,0-.5952.1152,1.37,1.37,0,0,0-.4551.3145,1.5167,1.5167,0,0,0-.3.4658,1.7593,1.7593,0,0,0-.13.5645h2.97A1.7522,1.7522,0,0,0,21.8921,33.1778Z"/><path d="M27.4664,36.4981a2.3426,2.3426,0,0,1-1.46.44,2.6634,2.6634,0,0,1-1.0747-.2,2.1194,2.1194,0,0,1-.7651-.5605,2.37,2.37,0,0,1-.4648-.8594,4.1388,4.1388,0,0,1-.1753-1.09,3.1059,3.1059,0,0,1,.18-1.08,2.5809,2.5809,0,0,1,.5049-.8506,2.2926,2.2926,0,0,1,.77-.56,2.3582,2.3582,0,0,1,.9751-.2,2.1183,2.1183,0,0,1,1.145.2852,2.265,2.265,0,0,1,.73.7246,2.8715,2.8715,0,0,1,.38.96,4.109,4.109,0,0,1,.085.99h-3.87a2.0662,2.0662,0,0,0,.08.6455,1.4685,1.4685,0,0,0,.29.54,1.4382,1.4382,0,0,0,.51.375,1.7684,1.7684,0,0,0,.73.14,1.4685,1.4685,0,0,0,.8848-.25,1.2092,1.2092,0,0,0,.4551-.76h.84A2.0633,2.0633,0,0,1,27.4664,36.4981Zm-.2046-3.32a1.4357,1.4357,0,0,0-.77-.7744,1.4477,1.4477,0,0,0-.585-.1152,1.4726,1.4726,0,0,0-.5952.1152,1.37,1.37,0,0,0-.4551.3145,1.5167,1.5167,0,0,0-.3.4658,1.7593,1.7593,0,0,0-.13.5645h2.97A1.7522,1.7522,0,0,0,27.2618,33.1778Z"/><path d="M29.2266,30.7276v-1.04h.85v1.04Zm.85.9307v5.17h-.85v-5.17Z"/><path d="M32.1963,31.6582v.82h.02a1.79,1.79,0,0,1,1.68-.94,2.2575,2.2575,0,0,1,.85.14,1.4007,1.4007,0,0,1,.55.3906,1.4447,1.4447,0,0,1,.2949.5947,3.2046,3.2046,0,0,1,.085.7646v3.4h-.85v-3.5a1.0261,1.0261,0,0,0-.28-.76,1.0411,1.0411,0,0,0-.77-.28,1.7288,1.7288,0,0,0-.6748.12,1.2635,1.2635,0,0,0-.4751.34,1.4631,1.4631,0,0,0-.2852.5146,2.0958,2.0958,0,0,0-.0947.6455v2.92h-.85v-5.17Z"/><path d="M40.8365,38.2881a2.3637,2.3637,0,0,1-1.82.63,3.4937,3.4937,0,0,1-.7354-.08,2.229,2.229,0,0,1-.68-.26,1.5821,1.5821,0,0,1-.5054-.47,1.3371,1.3371,0,0,1-.22-.71h.85a.6236.6236,0,0,0,.145.39,1.0544,1.0544,0,0,0,.33.26,1.6257,1.6257,0,0,0,.4253.1455,2.3479,2.3479,0,0,0,.44.0449,1.5763,1.5763,0,0,0,.71-.1455,1.33,1.33,0,0,0,.48-.3994,1.6523,1.6523,0,0,0,.2749-.6152,3.4382,3.4382,0,0,0,.085-.79v-.34h-.02a1.4288,1.4288,0,0,1-.6646.7051,2.0745,2.0745,0,0,1-.9453.2246,2.2674,2.2674,0,0,1-1.01-.21,2.1089,2.1089,0,0,1-.72-.5645,2.4148,2.4148,0,0,1-.4351-.83,3.4251,3.4251,0,0,1-.145-1.0049,3.9261,3.9261,0,0,1,.12-.9453,2.5842,2.5842,0,0,1,.4-.88,2.1889,2.1889,0,0,1,.74-.65,2.3025,2.3025,0,0,1,1.13-.2549,1.9054,1.9054,0,0,1,.9.2148,1.5128,1.5128,0,0,1,.64.6455h.01v-.74h.8v4.7295A2.7234,2.7234,0,0,1,40.8365,38.2881Zm-1.085-2.3252a1.3911,1.3911,0,0,0,.4751-.46,2.11,2.11,0,0,0,.2646-.6445,3.1311,3.1311,0,0,0,.085-.7207,2.8435,2.8435,0,0,0-.08-.67,1.88,1.88,0,0,0-.2554-.5947,1.3213,1.3213,0,0,0-.4546-.4248,1.3544,1.3544,0,0,0-.68-.16,1.4656,1.4656,0,0,0-.7.1553,1.354,1.354,0,0,0-.4746.415,1.7411,1.7411,0,0,0-.27.6,2.8969,2.8969,0,0,0-.0854.71,3.5479,3.5479,0,0,0,.07.7,1.9788,1.9788,0,0,0,.24.6348,1.344,1.344,0,0,0,.45.46,1.2932,1.2932,0,0,0,.7.1748A1.373,1.373,0,0,0,39.7515,35.9629Z"/><path d="M47.5064,37.5186a5.4817,5.4817,0,0,1-.2949.64,1.7766,1.7766,0,0,1-.32.4248,1.0822,1.0822,0,0,1-.39.24,1.5075,1.5075,0,0,1-.4951.0752,2.2094,2.2094,0,0,1-.3-.0205,1.4438,1.4438,0,0,1-.29-.0693v-.78a1.4419,1.4419,0,0,0,.2549.085,1.07,1.07,0,0,0,.2451.0352.7318.7318,0,0,0,.4351-.125.7692.7692,0,0,0,.2646-.3555l.35-.87-2.05-5.14h.96l1.51,4.2295h.02l1.45-4.2295h.9Z"/><path d="M50.3565,33.1836a2.4083,2.4083,0,0,1,.48-.86,2.2586,2.2586,0,0,1,.79-.5752,2.8956,2.8956,0,0,1,2.165,0,2.2758,2.2758,0,0,1,.7852.5752,2.4232,2.4232,0,0,1,.48.86,3.615,3.615,0,0,1,0,2.125,2.4311,2.4311,0,0,1-.48.8545,2.2269,2.2269,0,0,1-.7852.57,2.96,2.96,0,0,1-2.165,0,2.2109,2.2109,0,0,1-.79-.57,2.416,2.416,0,0,1-.48-.8545,3.6045,3.6045,0,0,1,0-2.125Zm.8647,1.8994a1.7538,1.7538,0,0,0,.3452.61,1.5012,1.5012,0,0,0,.5151.375,1.5687,1.5687,0,0,0,1.25,0,1.5041,1.5041,0,0,0,.5146-.375,1.7461,1.7461,0,0,0,.3452-.61,2.8511,2.8511,0,0,0,0-1.67,1.8058,1.8058,0,0,0-.3452-.6152,1.4805,1.4805,0,0,0-.5146-.38,1.5687,1.5687,0,0,0-1.25,0,1.4778,1.4778,0,0,0-.5151.38,1.814,1.814,0,0,0-.3452.6152,2.8511,2.8511,0,0,0,0,1.67Z"/><path d="M59.6963,36.8281v-.82h-.02a1.734,1.734,0,0,1-.69.7051,2.0646,2.0646,0,0,1-.99.2256,2.3008,2.3008,0,0,1-.85-.1357,1.3512,1.3512,0,0,1-.55-.3848,1.4447,1.4447,0,0,1-.2949-.5947,3.2046,3.2046,0,0,1-.085-.7646v-3.4h.85v3.5a1.0261,1.0261,0,0,0,.28.76,1.0411,1.0411,0,0,0,.77.28,1.73,1.73,0,0,0,.6748-.12,1.2674,1.2674,0,0,0,.4751-.34,1.4666,1.4666,0,0,0,.2852-.5156,2.1,2.1,0,0,0,.0947-.6445v-2.92h.85v5.17Z"/><path d="M62.9864,35.7178v1.11h-1.11v-1.11Zm-.33-.72h-.45l-.25-3.11v-2.2h.95v2.2Z"/><path d="M68.2364,29.6875v6.3408h3.78v.8h-4.73V29.6875Z"/><path d="M77.2862,36.8086a1.2116,1.2116,0,0,1-.61.13.733.733,0,0,1-.5249-.1855.804.804,0,0,1-.1948-.6045,2.0393,2.0393,0,0,1-.8149.6045,2.8106,2.8106,0,0,1-1.67.1055,1.5537,1.5537,0,0,1-.5449-.25,1.1964,1.1964,0,0,1-.3647-.4453,1.4942,1.4942,0,0,1-.1353-.665,1.5227,1.5227,0,0,1,.15-.72,1.31,1.31,0,0,1,.395-.4551,1.8132,1.8132,0,0,1,.56-.2646,6.5937,6.5937,0,0,1,.645-.15q.35-.07.665-.1055a3.6513,3.6513,0,0,0,.5552-.1.911.911,0,0,0,.38-.19.4618.4618,0,0,0,.14-.3643.851.851,0,0,0-.105-.45.72.72,0,0,0-.27-.26,1.0752,1.0752,0,0,0-.37-.12,2.7231,2.7231,0,0,0-.4048-.03,1.7983,1.7983,0,0,0-.9.2051.87.87,0,0,0-.39.7754h-.85a1.84,1.84,0,0,1,.2-.8105,1.52,1.52,0,0,1,.48-.5352,2.0215,2.0215,0,0,1,.6846-.2949,3.6442,3.6442,0,0,1,.8252-.09,4.8546,4.8546,0,0,1,.6948.05,1.809,1.809,0,0,1,.625.2051,1.1909,1.1909,0,0,1,.45.4336,1.39,1.39,0,0,1,.17.7285v2.6543a1.9824,1.9824,0,0,0,.0352.4395c.0229.0928.1016.14.2349.14a1.0479,1.0479,0,0,0,.26-.04Zm-1.38-2.65a1.047,1.047,0,0,1-.42.1738c-.1733.0371-.355.0664-.5449.09s-.3818.05-.5752.08a2.095,2.095,0,0,0-.52.1436.9446.9446,0,0,0-.375.2842.7891.7891,0,0,0-.145.502.682.682,0,0,0,.0854.3535.7072.7072,0,0,0,.22.2344.9217.9217,0,0,0,.3149.1289,1.7665,1.7665,0,0,0,.38.04,2.0263,2.0263,0,0,0,.72-.1143,1.5322,1.5322,0,0,0,.49-.2891,1.1446,1.1446,0,0,0,.28-.3779.9506.9506,0,0,0,.09-.3838Z"/><path d="M78.7261,35.6729a.9128.9128,0,0,0,.3149.3105,1.4223,1.4223,0,0,0,.44.165,2.5294,2.5294,0,0,0,.5049.05,3.0426,3.0426,0,0,0,.42-.03,1.5469,1.5469,0,0,0,.4048-.1094.7661.7661,0,0,0,.3052-.2354.63.63,0,0,0,.12-.3955.5666.5666,0,0,0-.25-.5,2.11,2.11,0,0,0-.625-.2744q-.375-.1055-.8149-.19a4.211,4.211,0,0,1-.8149-.24,1.6775,1.6775,0,0,1-.625-.4346,1.1306,1.1306,0,0,1-.25-.78,1.2384,1.2384,0,0,1,.1753-.67,1.43,1.43,0,0,1,.45-.4551,2.08,2.08,0,0,1,.62-.26,2.8542,2.8542,0,0,1,.6851-.085,4.03,4.03,0,0,1,.81.0752,1.8745,1.8745,0,0,1,.6548.26,1.344,1.344,0,0,1,.4551.5,1.9,1.9,0,0,1,.2.7852h-.85a.8652.8652,0,0,0-.13-.415.8491.8491,0,0,0-.28-.2646,1.26,1.26,0,0,0-.375-.1455,1.9125,1.9125,0,0,0-.415-.0449,2.4645,2.4645,0,0,0-.3848.03,1.2807,1.2807,0,0,0-.355.1045.7133.7133,0,0,0-.26.2.5069.5069,0,0,0-.1.3252.479.479,0,0,0,.1553.3652,1.2164,1.2164,0,0,0,.395.2393,3.3909,3.3909,0,0,0,.54.16q.3.0659.6.1348a6.2276,6.2276,0,0,1,.625.1709,2.016,2.016,0,0,1,.54.2646,1.2953,1.2953,0,0,1,.38.415,1.2241,1.2241,0,0,1,.145.62,1.4368,1.4368,0,0,1-.1953.7793,1.513,1.513,0,0,1-.51.5,2.1229,2.1229,0,0,1-.71.2656,4.2234,4.2234,0,0,1-.7852.0752,3.6027,3.6027,0,0,1-.82-.0908,1.9974,1.9974,0,0,1-.69-.2949,1.4948,1.4948,0,0,1-.48-.54,1.8677,1.8677,0,0,1-.2-.8145h.85A.9513.9513,0,0,0,78.7261,35.6729Z"/><path d="M85.2862,31.6582v.75h-1.03v3.21a.9137.9137,0,0,0,.0254.24.2432.2432,0,0,0,.0947.14.4293.4293,0,0,0,.1948.0654,2.9086,2.9086,0,0,0,.3252.0146h.39v.75h-.65a3.0331,3.0331,0,0,1-.5654-.0449.8336.8336,0,0,1-.38-.165.7035.7035,0,0,1-.2148-.34,1.9569,1.9569,0,0,1-.07-.58v-3.29h-.88v-.75h.88V30.1074h.85v1.5508Z"/><path d="M89.8057,31.6582v.76h.02a2.0144,2.0144,0,0,1,2.54-.68,1.117,1.117,0,0,1,.55.68,1.8123,1.8123,0,0,1,.6851-.65,1.9437,1.9437,0,0,1,.9351-.2295,2.7068,2.7068,0,0,1,.7051.085,1.4592,1.4592,0,0,1,.54.2646,1.2047,1.2047,0,0,1,.35.4658,1.7008,1.7008,0,0,1,.125.6846v3.79h-.85v-3.39a2.428,2.428,0,0,0-.04-.45.9212.9212,0,0,0-.15-.3652.7559.7559,0,0,0-.3052-.2451,1.2189,1.2189,0,0,0-.5049-.09,1.3381,1.3381,0,0,0-.99.36,1.2965,1.2965,0,0,0-.36.96v3.22h-.85v-3.39a2.1741,2.1741,0,0,0-.0449-.46.9718.9718,0,0,0-.1548-.3652.7271.7271,0,0,0-.2949-.24,1.1445,1.1445,0,0,0-.4751-.085,1.2634,1.2634,0,0,0-.6353.15,1.4327,1.4327,0,0,0-.43.3594,1.4485,1.4485,0,0,0-.24.4355,1.2317,1.2317,0,0,0-.0747.375v3.22h-.85v-5.17Z"/><path d="M97.586,30.7276v-1.04h.85v1.04Zm.85.9307v5.17h-.85v-5.17Z"/><path d="M100.5557,31.6582v.82h.02a1.79,1.79,0,0,1,1.68-.94,2.2575,2.2575,0,0,1,.85.14,1.4007,1.4007,0,0,1,.55.3906,1.4447,1.4447,0,0,1,.2949.5947,3.2046,3.2046,0,0,1,.085.7646v3.4h-.85v-3.5a1.0261,1.0261,0,0,0-.28-.76,1.0411,1.0411,0,0,0-.77-.28,1.7288,1.7288,0,0,0-.6748.12,1.2635,1.2635,0,0,0-.4751.34,1.4631,1.4631,0,0,0-.2852.5146,2.0958,2.0958,0,0,0-.0947.6455v2.92h-.85v-5.17Z"/><path d="M108.7959,36.8281v-.82h-.02a1.734,1.734,0,0,1-.69.7051,2.0646,2.0646,0,0,1-.99.2256,2.3008,2.3008,0,0,1-.85-.1357,1.3512,1.3512,0,0,1-.55-.3848,1.4447,1.4447,0,0,1-.2949-.5947,3.2046,3.2046,0,0,1-.085-.7646v-3.4h.85v3.5a1.0261,1.0261,0,0,0,.28.76,1.0411,1.0411,0,0,0,.77.28,1.73,1.73,0,0,0,.6748-.12,1.2674,1.2674,0,0,0,.4751-.34,1.4666,1.4666,0,0,0,.2852-.5156,2.1,2.1,0,0,0,.0947-.6445v-2.92h.85v5.17Z"/><path d="M113.086,31.6582v.75h-1.03v3.21a.9137.9137,0,0,0,.0254.24.2432.2432,0,0,0,.0947.14.4293.4293,0,0,0,.1948.0654,2.9086,2.9086,0,0,0,.3252.0146h.39v.75h-.65a3.0331,3.0331,0,0,1-.5654-.0449.8336.8336,0,0,1-.38-.165.7035.7035,0,0,1-.2148-.34,1.9569,1.9569,0,0,1-.07-.58v-3.29h-.88v-.75h.88V30.1074h.85v1.5508Z"/><path d="M117.6856,36.4981a2.3426,2.3426,0,0,1-1.46.44,2.6634,2.6634,0,0,1-1.0747-.2,2.1194,2.1194,0,0,1-.7651-.5605,2.37,2.37,0,0,1-.4648-.8594,4.1388,4.1388,0,0,1-.1753-1.09,3.1059,3.1059,0,0,1,.18-1.08,2.5809,2.5809,0,0,1,.5049-.8506,2.2926,2.2926,0,0,1,.77-.56,2.3582,2.3582,0,0,1,.9751-.2,2.1183,2.1183,0,0,1,1.145.2852,2.265,2.265,0,0,1,.73.7246,2.8715,2.8715,0,0,1,.38.96,4.109,4.109,0,0,1,.085.99h-3.87a2.0662,2.0662,0,0,0,.08.6455,1.4685,1.4685,0,0,0,.29.54,1.4382,1.4382,0,0,0,.51.375,1.7684,1.7684,0,0,0,.73.14,1.4685,1.4685,0,0,0,.8848-.25,1.2092,1.2092,0,0,0,.4551-.76h.84A2.0633,2.0633,0,0,1,117.6856,36.4981Zm-.2046-3.32a1.4357,1.4357,0,0,0-.77-.7744,1.4477,1.4477,0,0,0-.585-.1152,1.4726,1.4726,0,0,0-.5952.1152,1.37,1.37,0,0,0-.4551.3145,1.5167,1.5167,0,0,0-.3.4658,1.7593,1.7593,0,0,0-.13.5645h2.97A1.7522,1.7522,0,0,0,117.481,33.1778Z"/><path d="M125.2657,32.5586a1.2868,1.2868,0,0,0-.86-.2705,1.5854,1.5854,0,0,0-.77.17,1.373,1.373,0,0,0-.4951.45,1.885,1.885,0,0,0-.2651.6445,3.5321,3.5321,0,0,0-.08.7559,2.85,2.85,0,0,0,.0854.6992,1.877,1.877,0,0,0,.2646.6055,1.3406,1.3406,0,0,0,.47.4248,1.41,1.41,0,0,0,.69.16,1.3923,1.3923,0,0,0,.9849-.33,1.4888,1.4888,0,0,0,.4351-.93h.87a2.38,2.38,0,0,1-.7148,1.4795,2.248,2.248,0,0,1-1.5654.5205,2.6877,2.6877,0,0,1-1.0449-.19,2.0275,2.0275,0,0,1-.76-.54,2.3277,2.3277,0,0,1-.46-.835,3.4736,3.4736,0,0,1-.1553-1.0645,3.815,3.815,0,0,1,.15-1.0859,2.52,2.52,0,0,1,.4551-.88,2.1407,2.1407,0,0,1,.7651-.59,2.4981,2.4981,0,0,1,1.07-.2148,3.1544,3.1544,0,0,1,.8252.1045,2.0422,2.0422,0,0,1,.68.3252,1.7906,1.7906,0,0,1,.4849.5557,2.0406,2.0406,0,0,1,.24.7949h-.88A1.2907,1.2907,0,0,0,125.2657,32.5586Z"/><path d="M128.3956,29.6875v2.73h.02a1.1357,1.1357,0,0,1,.28-.4053,1.5912,1.5912,0,0,1,.4048-.27,2.1333,2.1333,0,0,1,.47-.1553,2.3781,2.3781,0,0,1,.4751-.05,2.2575,2.2575,0,0,1,.85.14,1.4007,1.4007,0,0,1,.55.3906,1.4447,1.4447,0,0,1,.2949.5947,3.2046,3.2046,0,0,1,.085.7646v3.4h-.85v-3.5a1.0261,1.0261,0,0,0-.28-.76,1.0411,1.0411,0,0,0-.77-.28,1.7288,1.7288,0,0,0-.6748.12,1.2635,1.2635,0,0,0-.4751.34,1.4631,1.4631,0,0,0-.2852.5146,2.0958,2.0958,0,0,0-.0947.6455v2.92h-.85V29.6875Z"/><path d="M137.6856,36.8086a1.2116,1.2116,0,0,1-.61.13.733.733,0,0,1-.5249-.1855.804.804,0,0,1-.1948-.6045,2.0393,2.0393,0,0,1-.8149.6045,2.8106,2.8106,0,0,1-1.67.1055,1.5537,1.5537,0,0,1-.5449-.25,1.1964,1.1964,0,0,1-.3647-.4453,1.4942,1.4942,0,0,1-.1353-.665,1.5227,1.5227,0,0,1,.15-.72,1.31,1.31,0,0,1,.395-.4551,1.8132,1.8132,0,0,1,.56-.2646,6.5936,6.5936,0,0,1,.645-.15q.35-.07.665-.1055a3.6513,3.6513,0,0,0,.5552-.1.911.911,0,0,0,.38-.19.4618.4618,0,0,0,.14-.3643.851.851,0,0,0-.105-.45.72.72,0,0,0-.27-.26,1.0752,1.0752,0,0,0-.37-.12,2.7231,2.7231,0,0,0-.4048-.03,1.7983,1.7983,0,0,0-.9.2051.87.87,0,0,0-.39.7754h-.85a1.84,1.84,0,0,1,.2-.8105,1.52,1.52,0,0,1,.48-.5352,2.0215,2.0215,0,0,1,.6846-.2949,3.6442,3.6442,0,0,1,.8252-.09,4.8546,4.8546,0,0,1,.6948.05,1.809,1.809,0,0,1,.625.2051,1.1909,1.1909,0,0,1,.45.4336,1.39,1.39,0,0,1,.17.7285v2.6543a1.9824,1.9824,0,0,0,.0352.4395c.0229.0928.1016.14.2349.14a1.0479,1.0479,0,0,0,.26-.04Zm-1.38-2.65a1.047,1.047,0,0,1-.42.1738c-.1733.0371-.355.0664-.5449.09s-.3818.05-.5752.08a2.095,2.095,0,0,0-.52.1436.9446.9446,0,0,0-.375.2842.7891.7891,0,0,0-.145.502.682.682,0,0,0,.0854.3535.7072.7072,0,0,0,.22.2344.9217.9217,0,0,0,.3149.1289,1.7665,1.7665,0,0,0,.38.04,2.0263,2.0263,0,0,0,.72-.1143,1.5322,1.5322,0,0,0,.49-.2891,1.1446,1.1446,0,0,0,.28-.3779.9506.9506,0,0,0,.09-.3838Z"/><path d="M139.275,31.6582v.82h.02a1.79,1.79,0,0,1,1.68-.94,2.2575,2.2575,0,0,1,.85.14,1.4007,1.4007,0,0,1,.55.3906,1.4447,1.4447,0,0,1,.2949.5947,3.2046,3.2046,0,0,1,.085.7646v3.4h-.85v-3.5a1.0261,1.0261,0,0,0-.28-.76,1.0411,1.0411,0,0,0-.77-.28,1.7288,1.7288,0,0,0-.6748.12,1.2635,1.2635,0,0,0-.4751.34,1.4631,1.4631,0,0,0-.2852.5146,2.0958,2.0958,0,0,0-.0947.6455v2.92h-.85v-5.17Z"/><path d="M147.9151,38.2881a2.3637,2.3637,0,0,1-1.82.63,3.4937,3.4937,0,0,1-.7354-.08,2.229,2.229,0,0,1-.68-.26,1.5821,1.5821,0,0,1-.5054-.47,1.3371,1.3371,0,0,1-.22-.71h.85a.6236.6236,0,0,0,.145.39,1.0544,1.0544,0,0,0,.33.26,1.6257,1.6257,0,0,0,.4253.1455,2.3479,2.3479,0,0,0,.44.0449,1.5763,1.5763,0,0,0,.71-.1455,1.33,1.33,0,0,0,.48-.3994,1.6523,1.6523,0,0,0,.2749-.6152,3.4382,3.4382,0,0,0,.085-.79v-.34h-.02a1.4288,1.4288,0,0,1-.6646.7051,2.0745,2.0745,0,0,1-.9453.2246,2.2674,2.2674,0,0,1-1.01-.21,2.1089,2.1089,0,0,1-.72-.5645,2.4148,2.4148,0,0,1-.4351-.83,3.4251,3.4251,0,0,1-.145-1.0049,3.9261,3.9261,0,0,1,.12-.9453,2.5842,2.5842,0,0,1,.4-.88,2.1889,2.1889,0,0,1,.74-.65,2.3025,2.3025,0,0,1,1.13-.2549,1.9054,1.9054,0,0,1,.9.2148,1.5128,1.5128,0,0,1,.64.6455h.01v-.74h.8v4.7295A2.7234,2.7234,0,0,1,147.9151,38.2881Zm-1.085-2.3252a1.3911,1.3911,0,0,0,.4751-.46,2.11,2.11,0,0,0,.2646-.6445,3.1311,3.1311,0,0,0,.085-.7207,2.8435,2.8435,0,0,0-.08-.67,1.88,1.88,0,0,0-.2554-.5947,1.3213,1.3213,0,0,0-.4546-.4248,1.3544,1.3544,0,0,0-.68-.16,1.4656,1.4656,0,0,0-.7.1553,1.354,1.354,0,0,0-.4746.415,1.7411,1.7411,0,0,0-.27.6,2.8969,2.8969,0,0,0-.0854.71,3.5479,3.5479,0,0,0,.07.7,1.9788,1.9788,0,0,0,.24.6348,1.344,1.344,0,0,0,.45.46,1.2932,1.2932,0,0,0,.7.1748A1.373,1.373,0,0,0,146.83,35.9629Z"/><path d="M153.4351,36.4981a2.3426,2.3426,0,0,1-1.46.44,2.6634,2.6634,0,0,1-1.0747-.2,2.1194,2.1194,0,0,1-.7651-.5605,2.37,2.37,0,0,1-.4648-.8594,4.1388,4.1388,0,0,1-.1753-1.09,3.1059,3.1059,0,0,1,.18-1.08,2.5809,2.5809,0,0,1,.5049-.8506,2.2926,2.2926,0,0,1,.77-.56,2.3582,2.3582,0,0,1,.9751-.2,2.1183,2.1183,0,0,1,1.145.2852,2.265,2.265,0,0,1,.73.7246,2.8715,2.8715,0,0,1,.38.96,4.109,4.109,0,0,1,.085.99h-3.87a2.0662,2.0662,0,0,0,.08.6455,1.4685,1.4685,0,0,0,.29.54,1.4382,1.4382,0,0,0,.51.375,1.7684,1.7684,0,0,0,.73.14,1.4685,1.4685,0,0,0,.8848-.25,1.2092,1.2092,0,0,0,.4551-.76h.84A2.0633,2.0633,0,0,1,153.4351,36.4981Zm-.2046-3.32a1.4357,1.4357,0,0,0-.77-.7744,1.4477,1.4477,0,0,0-.585-.1152,1.4726,1.4726,0,0,0-.5952.1152,1.37,1.37,0,0,0-.4551.3145,1.5167,1.5167,0,0,0-.3.4658,1.7593,1.7593,0,0,0-.13.5645h2.97A1.7522,1.7522,0,0,0,153.2305,33.1778Z"/><path d="M13.3169,45.1836a2.4083,2.4083,0,0,1,.48-.86,2.2586,2.2586,0,0,1,.79-.5752,2.8956,2.8956,0,0,1,2.165,0,2.2758,2.2758,0,0,1,.7852.5752,2.4232,2.4232,0,0,1,.48.86,3.615,3.615,0,0,1,0,2.125,2.4311,2.4311,0,0,1-.48.8545,2.2269,2.2269,0,0,1-.7852.57,2.96,2.96,0,0,1-2.165,0,2.2109,2.2109,0,0,1-.79-.57,2.416,2.416,0,0,1-.48-.8545,3.6045,3.6045,0,0,1,0-2.125Zm.8647,1.8994a1.7538,1.7538,0,0,0,.3452.61,1.5012,1.5012,0,0,0,.5151.375,1.5687,1.5687,0,0,0,1.25,0,1.5041,1.5041,0,0,0,.5146-.375,1.7461,1.7461,0,0,0,.3452-.61,2.8511,2.8511,0,0,0,0-1.67,1.8058,1.8058,0,0,0-.3452-.6152,1.4805,1.4805,0,0,0-.5146-.38,1.5687,1.5687,0,0,0-1.25,0,1.4778,1.4778,0,0,0-.5151.38,1.814,1.814,0,0,0-.3452.6152,2.8511,2.8511,0,0,0,0,1.67Z"/><path d="M18.6568,44.4082v-.75h.87v-.7705a1.2077,1.2077,0,0,1,.3647-.9541,1.5523,1.5523,0,0,1,1.0649-.3252,2.2864,2.2864,0,0,1,.2749.02,1.4409,1.4409,0,0,1,.2754.0605v.7393a1.0675,1.0675,0,0,0-.24-.0547,2.1549,2.1549,0,0,0-.24-.0146.8238.8238,0,0,0-.48.12.53.53,0,0,0-.17.46v.72h1v.75h-1v4.42h-.85v-4.42Z"/><path d="M25.7969,43.6582v.7h.02a1.27,1.27,0,0,1,.66-.625,2.4643,2.4643,0,0,1,.99-.1953,2.3335,2.3335,0,0,1,1.0449.22,2.1363,2.1363,0,0,1,.74.5957,2.6378,2.6378,0,0,1,.4448.8643,3.5357,3.5357,0,0,1,.15,1.04,3.642,3.642,0,0,1-.145,1.04,2.4434,2.4434,0,0,1-.44.8555,2.0862,2.0862,0,0,1-.74.5752,2.4066,2.4066,0,0,1-1.0352.21,2.5835,2.5835,0,0,1-.4248-.04,2.44,2.44,0,0,1-.4653-.13,1.8318,1.8318,0,0,1-.4351-.2451,1.359,1.359,0,0,1-.3447-.3857h-.02v2.66h-.85v-7.14Zm3.0552,1.835a1.9113,1.9113,0,0,0-.29-.6152,1.4262,1.4262,0,0,0-.5-.43,1.5228,1.5228,0,0,0-.7153-.16,1.4012,1.4012,0,0,0-1.22.6152,1.8465,1.8465,0,0,0-.2749.625,3.0278,3.0278,0,0,0,.0049,1.4443,1.8053,1.8053,0,0,0,.2852.625,1.4492,1.4492,0,0,0,.5049.4355,1.5729,1.5729,0,0,0,.75.165,1.4546,1.4546,0,0,0,.7349-.17,1.3683,1.3683,0,0,0,.4751-.45,1.9558,1.9558,0,0,0,.26-.64,3.4144,3.4144,0,0,0,.08-.74A2.6538,2.6538,0,0,0,28.8521,45.4932Z"/><path d="M31.7466,41.6885v7.14h-.85v-7.14Z"/><path d="M37.6465,48.8086a1.2116,1.2116,0,0,1-.61.13.733.733,0,0,1-.5249-.1855.804.804,0,0,1-.1948-.6045,2.0393,2.0393,0,0,1-.8149.6045,2.8106,2.8106,0,0,1-1.67.1055,1.5537,1.5537,0,0,1-.5449-.25,1.1964,1.1964,0,0,1-.3647-.4453,1.4942,1.4942,0,0,1-.1353-.665,1.5227,1.5227,0,0,1,.15-.72,1.31,1.31,0,0,1,.395-.4551,1.8132,1.8132,0,0,1,.56-.2646,6.5937,6.5937,0,0,1,.645-.15q.35-.07.665-.1055a3.6513,3.6513,0,0,0,.5552-.1.911.911,0,0,0,.38-.19.4618.4618,0,0,0,.14-.3643.851.851,0,0,0-.105-.45.72.72,0,0,0-.27-.26,1.0752,1.0752,0,0,0-.37-.12,2.7231,2.7231,0,0,0-.4048-.03,1.7983,1.7983,0,0,0-.9.2051.87.87,0,0,0-.39.7754h-.85a1.84,1.84,0,0,1,.2-.8105,1.52,1.52,0,0,1,.48-.5352,2.0215,2.0215,0,0,1,.6846-.2949,3.6442,3.6442,0,0,1,.8252-.09,4.8546,4.8546,0,0,1,.6948.05,1.809,1.809,0,0,1,.625.2051,1.1909,1.1909,0,0,1,.45.4336,1.39,1.39,0,0,1,.17.7285v2.6543a1.9824,1.9824,0,0,0,.0352.4395c.0229.0928.1016.14.2349.14a1.0479,1.0479,0,0,0,.26-.04Zm-1.38-2.65a1.047,1.047,0,0,1-.42.1738c-.1733.0371-.355.0664-.5449.09s-.3818.05-.5752.08a2.095,2.095,0,0,0-.52.1436.9446.9446,0,0,0-.375.2842.7891.7891,0,0,0-.145.502.682.682,0,0,0,.0854.3535.7072.7072,0,0,0,.22.2344.9217.9217,0,0,0,.3149.1289,1.7665,1.7665,0,0,0,.38.04,2.0263,2.0263,0,0,0,.72-.1143,1.5322,1.5322,0,0,0,.49-.2891,1.1446,1.1446,0,0,0,.28-.3779.9506.9506,0,0,0,.09-.3838Z"/><path d="M39.2364,43.6582v.82h.02a1.79,1.79,0,0,1,1.68-.94,2.2575,2.2575,0,0,1,.85.14,1.4007,1.4007,0,0,1,.55.3906,1.4447,1.4447,0,0,1,.2949.5947,3.2046,3.2046,0,0,1,.085.7646v3.4h-.85v-3.5a1.0261,1.0261,0,0,0-.28-.76,1.0411,1.0411,0,0,0-.77-.28,1.7288,1.7288,0,0,0-.6748.12,1.2635,1.2635,0,0,0-.4751.34,1.4631,1.4631,0,0,0-.2852.5146,2.0958,2.0958,0,0,0-.0947.6455v2.92h-.85v-5.17Z"/><path d="M44.6465,47.6729a.9128.9128,0,0,0,.3149.3105,1.4223,1.4223,0,0,0,.44.165,2.5294,2.5294,0,0,0,.5049.05,3.0426,3.0426,0,0,0,.42-.03,1.5469,1.5469,0,0,0,.4048-.1094.7661.7661,0,0,0,.3052-.2354.63.63,0,0,0,.12-.3955.5666.5666,0,0,0-.25-.5,2.11,2.11,0,0,0-.625-.2744q-.375-.1055-.8149-.19a4.211,4.211,0,0,1-.8149-.24,1.6775,1.6775,0,0,1-.625-.4346,1.1306,1.1306,0,0,1-.25-.78,1.2384,1.2384,0,0,1,.1753-.67,1.43,1.43,0,0,1,.45-.4551,2.08,2.08,0,0,1,.62-.26,2.8542,2.8542,0,0,1,.6851-.085,4.1023,4.1023,0,0,1,.81.0752,1.8745,1.8745,0,0,1,.6548.26,1.344,1.344,0,0,1,.4551.5,1.9,1.9,0,0,1,.2.7852h-.85a.8652.8652,0,0,0-.13-.415.8491.8491,0,0,0-.28-.2646,1.26,1.26,0,0,0-.375-.1455,1.9125,1.9125,0,0,0-.415-.0449,2.4645,2.4645,0,0,0-.3848.03,1.2807,1.2807,0,0,0-.355.1045.7133.7133,0,0,0-.26.2.5069.5069,0,0,0-.1.3252.479.479,0,0,0,.1553.3652,1.2164,1.2164,0,0,0,.395.2393,3.3909,3.3909,0,0,0,.54.16q.3.0659.6.1348a6.2276,6.2276,0,0,1,.625.1709,2.016,2.016,0,0,1,.54.2646,1.2953,1.2953,0,0,1,.38.415,1.2241,1.2241,0,0,1,.145.62,1.4368,1.4368,0,0,1-.1953.7793,1.513,1.513,0,0,1-.51.5,2.1229,2.1229,0,0,1-.71.2656,4.2234,4.2234,0,0,1-.7852.0752,3.6027,3.6027,0,0,1-.82-.0908,1.9974,1.9974,0,0,1-.69-.2949,1.4948,1.4948,0,0,1-.48-.54,1.8677,1.8677,0,0,1-.2-.8145h.85A.9513.9513,0,0,0,44.6465,47.6729Z"/><path d="M49.0513,42.9678a2.2716,2.2716,0,0,1,.4453-.7646,1.9826,1.9826,0,0,1,.71-.5049,2.36,2.36,0,0,1,.94-.18,2.5744,2.5744,0,0,1,.855.1348,1.92,1.92,0,0,1,.665.39,1.7519,1.7519,0,0,1,.4351.625,2.1933,2.1933,0,0,1,.1548.8506,1.9013,1.9013,0,0,1-.0747.5547,2.0249,2.0249,0,0,1-.1953.4453,2.3236,2.3236,0,0,1-.2749.3691c-.1035.1143-.2085.2236-.3149.33q-.16.1509-.3149.3057a2.5969,2.5969,0,0,0-.28.33,1.5671,1.5671,0,0,0-.2.38,1.3377,1.3377,0,0,0-.0752.4648v.39h-.85v-.47a1.9321,1.9321,0,0,1,.1553-.7148,2.2545,2.2545,0,0,1,.33-.5254,4.5113,4.5113,0,0,1,.41-.4248,4.5911,4.5911,0,0,0,.4-.41,1.8255,1.8255,0,0,0,.2949-.4746,1.42,1.42,0,0,0,.09-.63,1.292,1.292,0,0,0-.355-.86,1.1643,1.1643,0,0,0-.855-.31,1.3689,1.3689,0,0,0-.62.13,1.2713,1.2713,0,0,0-.4351.35,1.4028,1.4028,0,0,0-.2549.5205,2.5118,2.5118,0,0,0-.08.6494h-.85A2.6971,2.6971,0,0,1,49.0513,42.9678Zm2.5952,4.75v1.11h-1.11v-1.11Z"/><path d="M60.6065,41.6885a2.2163,2.2163,0,0,1,1.6348.5547,2.4626,2.4626,0,0,1,0,3.1152,2.1752,2.1752,0,0,1-1.6348.55h-2.18v2.92h-.95v-7.14Zm-.32,3.42a1.6963,1.6963,0,0,0,1.1851-.33,1.2561,1.2561,0,0,0,.375-.98,1.2388,1.2388,0,0,0-.375-.9746,1.7456,1.7456,0,0,0-1.1851-.335h-1.86v2.62Z"/><path d="M64.7164,41.6885v7.14h-.85v-7.14Z"/><path d="M69.6959,48.4981a2.3426,2.3426,0,0,1-1.46.44,2.6634,2.6634,0,0,1-1.0747-.2,2.1194,2.1194,0,0,1-.7651-.5605,2.37,2.37,0,0,1-.4648-.8594,4.1388,4.1388,0,0,1-.1753-1.09,3.1059,3.1059,0,0,1,.18-1.08,2.5809,2.5809,0,0,1,.5049-.8506,2.2926,2.2926,0,0,1,.77-.56,2.3428,2.3428,0,0,1,.9751-.2,2.1183,2.1183,0,0,1,1.145.2852,2.265,2.265,0,0,1,.73.7246,2.8715,2.8715,0,0,1,.38.96,4.109,4.109,0,0,1,.085.99h-3.87a2.0662,2.0662,0,0,0,.08.6455,1.4685,1.4685,0,0,0,.29.54,1.4382,1.4382,0,0,0,.51.375,1.7684,1.7684,0,0,0,.73.14,1.4685,1.4685,0,0,0,.8848-.25,1.2092,1.2092,0,0,0,.4551-.76h.84A2.0633,2.0633,0,0,1,69.6959,48.4981Zm-.2046-3.32a1.4357,1.4357,0,0,0-.77-.7744,1.4477,1.4477,0,0,0-.585-.1152,1.4726,1.4726,0,0,0-.5952.1152,1.37,1.37,0,0,0-.4551.3145,1.5167,1.5167,0,0,0-.3.4658,1.7593,1.7593,0,0,0-.13.5645h2.97A1.7522,1.7522,0,0,0,69.4913,45.1778Z"/><path d="M75.9864,48.8086a1.2116,1.2116,0,0,1-.61.13.733.733,0,0,1-.5249-.1855.804.804,0,0,1-.1948-.6045,2.0393,2.0393,0,0,1-.8149.6045,2.8106,2.8106,0,0,1-1.67.1055,1.5537,1.5537,0,0,1-.5449-.25,1.1964,1.1964,0,0,1-.3647-.4453,1.4942,1.4942,0,0,1-.1353-.665,1.5227,1.5227,0,0,1,.15-.72,1.31,1.31,0,0,1,.395-.4551,1.8132,1.8132,0,0,1,.56-.2646,6.5937,6.5937,0,0,1,.645-.15q.35-.07.665-.1055a3.6513,3.6513,0,0,0,.5552-.1.911.911,0,0,0,.38-.19.4618.4618,0,0,0,.14-.3643.851.851,0,0,0-.105-.45.72.72,0,0,0-.27-.26,1.0752,1.0752,0,0,0-.37-.12,2.7231,2.7231,0,0,0-.4048-.03,1.7983,1.7983,0,0,0-.9.2051.87.87,0,0,0-.39.7754h-.85a1.84,1.84,0,0,1,.2-.8105,1.52,1.52,0,0,1,.48-.5352,2.0215,2.0215,0,0,1,.6846-.2949,3.6442,3.6442,0,0,1,.8252-.09,4.8546,4.8546,0,0,1,.6948.05,1.809,1.809,0,0,1,.625.2051,1.1909,1.1909,0,0,1,.45.4336,1.39,1.39,0,0,1,.17.7285v2.6543a1.9824,1.9824,0,0,0,.0352.4395c.0229.0928.1016.14.2349.14a1.0479,1.0479,0,0,0,.26-.04Zm-1.38-2.65a1.047,1.047,0,0,1-.42.1738c-.1733.0371-.355.0664-.5449.09s-.3818.05-.5752.08a2.095,2.095,0,0,0-.52.1436.9446.9446,0,0,0-.375.2842.7891.7891,0,0,0-.145.502.682.682,0,0,0,.0854.3535.7072.7072,0,0,0,.22.2344.9217.9217,0,0,0,.3149.1289,1.7665,1.7665,0,0,0,.38.04,2.0263,2.0263,0,0,0,.72-.1143,1.5322,1.5322,0,0,0,.49-.2891,1.1446,1.1446,0,0,0,.28-.3779.9506.9506,0,0,0,.09-.3838Z"/><path d="M77.4258,47.6729a.9128.9128,0,0,0,.3149.3105,1.4223,1.4223,0,0,0,.44.165,2.5294,2.5294,0,0,0,.5049.05,3.0426,3.0426,0,0,0,.42-.03,1.5469,1.5469,0,0,0,.4048-.1094.7661.7661,0,0,0,.3052-.2354.63.63,0,0,0,.12-.3955.5666.5666,0,0,0-.25-.5,2.11,2.11,0,0,0-.625-.2744q-.375-.1055-.8149-.19a4.211,4.211,0,0,1-.8149-.24,1.6775,1.6775,0,0,1-.625-.4346,1.1306,1.1306,0,0,1-.25-.78,1.2384,1.2384,0,0,1,.1753-.67,1.43,1.43,0,0,1,.45-.4551,2.08,2.08,0,0,1,.62-.26,2.8542,2.8542,0,0,1,.6851-.085,4.1023,4.1023,0,0,1,.81.0752,1.8745,1.8745,0,0,1,.6548.26,1.344,1.344,0,0,1,.4551.5,1.9,1.9,0,0,1,.2.7852h-.85a.8652.8652,0,0,0-.13-.415.8491.8491,0,0,0-.28-.2646,1.26,1.26,0,0,0-.375-.1455,1.9125,1.9125,0,0,0-.415-.0449,2.4645,2.4645,0,0,0-.3848.03,1.2807,1.2807,0,0,0-.355.1045.7133.7133,0,0,0-.26.2.5069.5069,0,0,0-.1.3252.479.479,0,0,0,.1553.3652,1.2164,1.2164,0,0,0,.395.2393,3.3909,3.3909,0,0,0,.54.16q.3.0659.6.1348a6.2276,6.2276,0,0,1,.625.1709,2.016,2.016,0,0,1,.54.2646,1.2953,1.2953,0,0,1,.38.415,1.2241,1.2241,0,0,1,.145.62,1.4368,1.4368,0,0,1-.1953.7793,1.513,1.513,0,0,1-.51.5,2.1229,2.1229,0,0,1-.71.2656,4.2234,4.2234,0,0,1-.7852.0752,3.6027,3.6027,0,0,1-.82-.0908,1.9974,1.9974,0,0,1-.69-.2949,1.4948,1.4948,0,0,1-.48-.54,1.8677,1.8677,0,0,1-.2-.8145h.85A.9513.9513,0,0,0,77.4258,47.6729Z"/><path d="M85.4356,48.4981a2.3426,2.3426,0,0,1-1.46.44,2.6634,2.6634,0,0,1-1.0747-.2,2.1194,2.1194,0,0,1-.7651-.5605,2.37,2.37,0,0,1-.4648-.8594,4.1388,4.1388,0,0,1-.1753-1.09,3.1059,3.1059,0,0,1,.18-1.08,2.5809,2.5809,0,0,1,.5049-.8506,2.2926,2.2926,0,0,1,.77-.56,2.3428,2.3428,0,0,1,.9751-.2,2.1183,2.1183,0,0,1,1.145.2852,2.265,2.265,0,0,1,.73.7246,2.8715,2.8715,0,0,1,.38.96,4.109,4.109,0,0,1,.085.99h-3.87a2.0662,2.0662,0,0,0,.08.6455,1.4685,1.4685,0,0,0,.29.54,1.4382,1.4382,0,0,0,.51.375,1.7684,1.7684,0,0,0,.73.14,1.4685,1.4685,0,0,0,.8848-.25,1.2092,1.2092,0,0,0,.4551-.76h.84A2.0633,2.0633,0,0,1,85.4356,48.4981Zm-.2046-3.32a1.4357,1.4357,0,0,0-.77-.7744,1.4477,1.4477,0,0,0-.585-.1152,1.4726,1.4726,0,0,0-.5952.1152,1.37,1.37,0,0,0-.4551.3145,1.5167,1.5167,0,0,0-.3.4658,1.7593,1.7593,0,0,0-.13.5645h2.97A1.7522,1.7522,0,0,0,85.231,45.1778Z"/><path d="M93.0157,44.5586a1.2868,1.2868,0,0,0-.86-.2705,1.5854,1.5854,0,0,0-.77.17,1.373,1.373,0,0,0-.4951.45,1.885,1.885,0,0,0-.2651.6445,3.5321,3.5321,0,0,0-.08.7559,2.85,2.85,0,0,0,.0854.6992,1.877,1.877,0,0,0,.2646.6055,1.3406,1.3406,0,0,0,.47.4248,1.41,1.41,0,0,0,.69.16,1.3923,1.3923,0,0,0,.9849-.33,1.4888,1.4888,0,0,0,.4351-.93h.87a2.38,2.38,0,0,1-.7148,1.4795,2.248,2.248,0,0,1-1.5654.5205,2.6877,2.6877,0,0,1-1.0449-.19,2.0275,2.0275,0,0,1-.76-.54,2.3277,2.3277,0,0,1-.46-.835,3.4736,3.4736,0,0,1-.1553-1.0645,3.815,3.815,0,0,1,.15-1.0859,2.52,2.52,0,0,1,.4551-.88,2.1407,2.1407,0,0,1,.7651-.59,2.4981,2.4981,0,0,1,1.07-.2148,3.1132,3.1132,0,0,1,.8252.1055,2.0035,2.0035,0,0,1,.68.3242,1.7906,1.7906,0,0,1,.4849.5557,2.0406,2.0406,0,0,1,.24.7949h-.88A1.2907,1.2907,0,0,0,93.0157,44.5586Z"/><path d="M99.876,48.8086a1.2116,1.2116,0,0,1-.61.13.733.733,0,0,1-.5249-.1855.804.804,0,0,1-.1948-.6045,2.0393,2.0393,0,0,1-.8149.6045,2.8106,2.8106,0,0,1-1.67.1055,1.5537,1.5537,0,0,1-.5449-.25,1.1964,1.1964,0,0,1-.3647-.4453,1.4942,1.4942,0,0,1-.1353-.665,1.5227,1.5227,0,0,1,.15-.72,1.31,1.31,0,0,1,.395-.4551,1.8132,1.8132,0,0,1,.56-.2646,6.5937,6.5937,0,0,1,.645-.15q.35-.07.665-.1055a3.6513,3.6513,0,0,0,.5552-.1.911.911,0,0,0,.38-.19.4618.4618,0,0,0,.14-.3643.851.851,0,0,0-.105-.45.72.72,0,0,0-.27-.26,1.0752,1.0752,0,0,0-.37-.12,2.7231,2.7231,0,0,0-.4048-.03,1.7983,1.7983,0,0,0-.9.2051.87.87,0,0,0-.39.7754h-.85a1.84,1.84,0,0,1,.2-.8105,1.52,1.52,0,0,1,.48-.5352,2.0215,2.0215,0,0,1,.6846-.2949,3.6442,3.6442,0,0,1,.8252-.09,4.8546,4.8546,0,0,1,.6948.05,1.809,1.809,0,0,1,.625.2051,1.1909,1.1909,0,0,1,.45.4336,1.39,1.39,0,0,1,.17.7285v2.6543a1.9824,1.9824,0,0,0,.0352.4395c.0229.0928.1016.14.2349.14a1.0479,1.0479,0,0,0,.26-.04Zm-1.38-2.65a1.047,1.047,0,0,1-.42.1738c-.1733.0371-.355.0664-.5449.09s-.3818.05-.5752.08a2.095,2.095,0,0,0-.52.1436.9446.9446,0,0,0-.375.2842.7891.7891,0,0,0-.145.502.682.682,0,0,0,.0854.3535.7072.7072,0,0,0,.22.2344.9217.9217,0,0,0,.3149.1289,1.7665,1.7665,0,0,0,.38.04,2.0263,2.0263,0,0,0,.72-.1143,1.5322,1.5322,0,0,0,.49-.2891,1.1446,1.1446,0,0,0,.28-.3779.9506.9506,0,0,0,.09-.3838Z"/><path d="M101.5655,41.6885v7.14h-.85v-7.14Z"/><path d="M103.7852,41.6885v7.14h-.85v-7.14Z"/><path class="a5371dff-d52a-45d3-96b8-eb7e09d379e0" d="M14.5567,59.918a1.4178,1.4178,0,0,0,.88.28,1.269,1.269,0,0,0,1.17-.6748,4.525,4.525,0,0,0,.43-2.0654l-.02-.02a1.854,1.854,0,0,1-1.64.9795,2.4857,2.4857,0,0,1-.96-.1748,1.9608,1.9608,0,0,1-.7051-.4854,2.0215,2.0215,0,0,1-.43-.75,3.0489,3.0489,0,0,1-.145-.96,2.4946,2.4946,0,0,1,.17-.9346,2.1147,2.1147,0,0,1,.48-.73,2.1881,2.1881,0,0,1,.74-.4746,2.5357,2.5357,0,0,1,.94-.17,2.8038,2.8038,0,0,1,.94.1553,1.7983,1.7983,0,0,1,.77.5342,2.766,2.766,0,0,1,.5249,1.0352,5.9389,5.9389,0,0,1,.1953,1.665,5.59,5.59,0,0,1-.585,2.8252,2.0182,2.0182,0,0,1-1.875.9854,2.37,2.37,0,0,1-1.48-.45,1.8249,1.8249,0,0,1-.67-1.37h.85A1.081,1.081,0,0,0,14.5567,59.918Zm2.2354-4.43a1.58,1.58,0,0,0-.28-.5156,1.33,1.33,0,0,0-.4551-.3545,1.4312,1.4312,0,0,0-.63-.13,1.373,1.373,0,0,0-.645.14,1.2073,1.2073,0,0,0-.43.375,1.5976,1.5976,0,0,0-.24.5352,2.6,2.6,0,0,0-.0747.63,1.5307,1.5307,0,0,0,.105.5605,1.5907,1.5907,0,0,0,.29.4795,1.4031,1.4031,0,0,0,.44.335,1.2559,1.2559,0,0,0,.5649.125,1.4032,1.4032,0,0,0,.6-.125,1.3771,1.3771,0,0,0,.46-.34,1.4978,1.4978,0,0,0,.29-.5,1.7932,1.7932,0,0,0,.1-.5947A1.9872,1.9872,0,0,0,16.792,55.4883Z"/><path class="a5371dff-d52a-45d3-96b8-eb7e09d379e0" d="M23.5069,58.418v.75h-.96v1.66h-.8v-1.66h-3.11v-.82l3.23-4.6094h.68v4.68Zm-1.76-3.47h-.02l-2.36,3.47h2.38Z"/><path class="a5371dff-d52a-45d3-96b8-eb7e09d379e0" d="M25.6768,59.918a1.4178,1.4178,0,0,0,.88.28,1.269,1.269,0,0,0,1.17-.6748,4.525,4.525,0,0,0,.43-2.0654l-.02-.02a1.854,1.854,0,0,1-1.64.9795,2.4857,2.4857,0,0,1-.96-.1748,1.9608,1.9608,0,0,1-.7051-.4854,2.0215,2.0215,0,0,1-.43-.75,3.0489,3.0489,0,0,1-.145-.96,2.4946,2.4946,0,0,1,.17-.9346,2.1147,2.1147,0,0,1,.48-.73,2.1881,2.1881,0,0,1,.74-.4746,2.5357,2.5357,0,0,1,.94-.17,2.8038,2.8038,0,0,1,.94.1553,1.7983,1.7983,0,0,1,.77.5342,2.766,2.766,0,0,1,.5249,1.0352,5.9389,5.9389,0,0,1,.1953,1.665,5.59,5.59,0,0,1-.585,2.8252,2.0182,2.0182,0,0,1-1.875.9854,2.37,2.37,0,0,1-1.48-.45,1.8249,1.8249,0,0,1-.67-1.37h.85A1.081,1.081,0,0,0,25.6768,59.918Zm2.2354-4.43a1.58,1.58,0,0,0-.28-.5156,1.33,1.33,0,0,0-.4551-.3545,1.4312,1.4312,0,0,0-.63-.13,1.373,1.373,0,0,0-.645.14,1.2073,1.2073,0,0,0-.43.375,1.5976,1.5976,0,0,0-.24.5352,2.6,2.6,0,0,0-.0747.63,1.5307,1.5307,0,0,0,.105.5605,1.5907,1.5907,0,0,0,.29.4795,1.4031,1.4031,0,0,0,.44.335,1.2559,1.2559,0,0,0,.5649.125,1.4032,1.4032,0,0,0,.6-.125,1.3771,1.3771,0,0,0,.46-.34,1.4978,1.4978,0,0,0,.29-.5,1.7932,1.7932,0,0,0,.1-.5947A1.9872,1.9872,0,0,0,27.9122,55.4883Z"/><path class="a5371dff-d52a-45d3-96b8-eb7e09d379e0" d="M30.2969,54.7735a1.6829,1.6829,0,0,1,.46-.5654,2.08,2.08,0,0,1,.665-.35,2.5581,2.5581,0,0,1,.7852-.12,2.8034,2.8034,0,0,1,.99.1553,1.8389,1.8389,0,0,1,.6646.4092,1.59,1.59,0,0,1,.375.58,1.9053,1.9053,0,0,1,.12.665,1.5372,1.5372,0,0,1-.2646.875,1.6484,1.6484,0,0,1-.7153.5957,1.7217,1.7217,0,0,1,.95.6543,1.9353,1.9353,0,0,1,.31,1.1152,2.173,2.173,0,0,1-.1851.92,1.9905,1.9905,0,0,1-.5.6748,2.1,2.1,0,0,1-.7451.415,2.9414,2.9414,0,0,1-.92.1406,3.368,3.368,0,0,1-.95-.13,2.1261,2.1261,0,0,1-.7646-.4,1.8793,1.8793,0,0,1-.51-.6748,2.2537,2.2537,0,0,1-.1851-.9453,1.8784,1.8784,0,0,1,.32-1.0947,1.7914,1.7914,0,0,1,.92-.6748,1.5328,1.5328,0,0,1-.72-.585,1.5683,1.5683,0,0,1-.27-.8857A1.6874,1.6874,0,0,1,30.2969,54.7735Zm.9053,5.06a1.607,1.607,0,0,0,1.085.3652,1.5687,1.5687,0,0,0,.585-.1055,1.3962,1.3962,0,0,0,.46-.29,1.2629,1.2629,0,0,0,.3-.4346,1.4,1.4,0,0,0,.105-.55,1.243,1.243,0,0,0-.1147-.5352,1.3246,1.3246,0,0,0-.3149-.4248,1.5388,1.5388,0,0,0-.4648-.2852,1.5156,1.5156,0,0,0-.5654-.1055,1.7771,1.7771,0,0,0-.585.0957,1.4245,1.4245,0,0,0-.48.2744,1.2737,1.2737,0,0,0-.32.4307,1.32,1.32,0,0,0-.1152.56A1.2532,1.2532,0,0,0,31.2022,59.833Zm-.0752-3.75a1.0026,1.0026,0,0,0,.27.3555,1.1582,1.1582,0,0,0,.4.21,1.6688,1.6688,0,0,0,.49.0693,1.1992,1.1992,0,0,0,.84-.3,1.0763,1.0763,0,0,0,.33-.84.9944.9944,0,0,0-.335-.8154,1.3074,1.3074,0,0,0-.855-.2744,1.6309,1.6309,0,0,0-.48.07,1.0758,1.0758,0,0,0-.395.21,1.0587,1.0587,0,0,0-.2651.34,1.0406,1.0406,0,0,0-.1.47A1.1911,1.1911,0,0,0,31.127,56.083Z"/><path class="a5371dff-d52a-45d3-96b8-eb7e09d379e0" d="M35.8565,54.7735a1.6829,1.6829,0,0,1,.46-.5654,2.08,2.08,0,0,1,.665-.35,2.5581,2.5581,0,0,1,.7852-.12,2.8034,2.8034,0,0,1,.99.1553,1.8389,1.8389,0,0,1,.6646.4092,1.59,1.59,0,0,1,.375.58,1.9053,1.9053,0,0,1,.12.665,1.5372,1.5372,0,0,1-.2646.875,1.6484,1.6484,0,0,1-.7153.5957,1.7217,1.7217,0,0,1,.95.6543,1.9353,1.9353,0,0,1,.31,1.1152,2.173,2.173,0,0,1-.1851.92,1.9905,1.9905,0,0,1-.5.6748,2.1,2.1,0,0,1-.7451.415,2.9414,2.9414,0,0,1-.92.1406,3.368,3.368,0,0,1-.95-.13,2.1261,2.1261,0,0,1-.7646-.4,1.8793,1.8793,0,0,1-.51-.6748,2.2537,2.2537,0,0,1-.1851-.9453,1.8784,1.8784,0,0,1,.32-1.0947,1.7914,1.7914,0,0,1,.92-.6748,1.5328,1.5328,0,0,1-.72-.585,1.5683,1.5683,0,0,1-.27-.8857A1.6874,1.6874,0,0,1,35.8565,54.7735Zm.9053,5.06a1.607,1.607,0,0,0,1.085.3652,1.5687,1.5687,0,0,0,.585-.1055,1.3962,1.3962,0,0,0,.46-.29,1.2629,1.2629,0,0,0,.3-.4346,1.4,1.4,0,0,0,.105-.55,1.243,1.243,0,0,0-.1147-.5352,1.3246,1.3246,0,0,0-.3149-.4248,1.5388,1.5388,0,0,0-.4648-.2852,1.5156,1.5156,0,0,0-.5654-.1055,1.7771,1.7771,0,0,0-.585.0957,1.4245,1.4245,0,0,0-.48.2744,1.2737,1.2737,0,0,0-.32.4307,1.32,1.32,0,0,0-.1152.56A1.2532,1.2532,0,0,0,36.7618,59.833Zm-.0752-3.75a1.0026,1.0026,0,0,0,.27.3555,1.1582,1.1582,0,0,0,.4.21,1.6688,1.6688,0,0,0,.49.0693,1.1992,1.1992,0,0,0,.84-.3,1.0763,1.0763,0,0,0,.33-.84.9944.9944,0,0,0-.335-.8154,1.3074,1.3074,0,0,0-.855-.2744,1.6309,1.6309,0,0,0-.48.07,1.0758,1.0758,0,0,0-.395.21,1.0587,1.0587,0,0,0-.2651.34,1.0406,1.0406,0,0,0-.1.47A1.1911,1.1911,0,0,0,36.6866,56.083Z"/><path class="a5371dff-d52a-45d3-96b8-eb7e09d379e0" d="M44.6768,55.8477a11.2047,11.2047,0,0,0-.835,1.5605,11.374,11.374,0,0,0-.5952,1.71,8.8589,8.8589,0,0,0-.28,1.71h-.95a8.8228,8.8228,0,0,1,.2949-1.7549,10.1478,10.1478,0,0,1,.605-1.64,10.3568,10.3568,0,0,1,.855-1.4854,10.803,10.803,0,0,1,1.0454-1.29h-3.72v-.8h4.59v.7295A7.2762,7.2762,0,0,0,44.6768,55.8477Z"/><path class="a5371dff-d52a-45d3-96b8-eb7e09d379e0" d="M48.4268,56.7881h.28a1.7574,1.7574,0,0,0,.5151-.0752,1.3078,1.3078,0,0,0,.43-.22,1.0618,1.0618,0,0,0,.2949-.3652,1.104,1.104,0,0,0,.11-.5,1.0233,1.0233,0,0,0-.36-.8545,1.4029,1.4029,0,0,0-.9-.2852,1.3406,1.3406,0,0,0-.5952.125,1.1918,1.1918,0,0,0-.42.335,1.4108,1.4108,0,0,0-.2451.49,2.138,2.138,0,0,0-.08.59h-.85a3.2124,3.2124,0,0,1,.165-.9307,2.076,2.076,0,0,1,.4146-.72,1.8611,1.8611,0,0,1,.6753-.47,2.4,2.4,0,0,1,.9351-.17,3.0313,3.0313,0,0,1,.855.1152,1.9763,1.9763,0,0,1,.6851.3447,1.5778,1.5778,0,0,1,.4546.59,2.02,2.02,0,0,1,.165.85,1.3732,1.3732,0,0,1-.28.8506,1.7862,1.7862,0,0,1-.7.56v.0205a1.4777,1.4777,0,0,1,.9653.6094,1.9481,1.9481,0,0,1,.3149,1.11,2.1218,2.1218,0,0,1-.1953.9346,1.9535,1.9535,0,0,1-.5249.6758,2.2326,2.2326,0,0,1-.7749.4043,3.2125,3.2125,0,0,1-.9448.1357,3.0308,3.0308,0,0,1-.98-.15,1.9991,1.9991,0,0,1-.75-.4453,1.9334,1.9334,0,0,1-.4751-.7246,2.5955,2.5955,0,0,1-.1553-.98h.85a1.7267,1.7267,0,0,0,.4,1.125,1.3955,1.3955,0,0,0,1.11.4355,1.8187,1.8187,0,0,0,.59-.0947,1.5174,1.5174,0,0,0,.49-.2705,1.2753,1.2753,0,0,0,.46-1.0049,1.3581,1.3581,0,0,0-.12-.585,1.2688,1.2688,0,0,0-.7949-.69,2.0088,2.0088,0,0,0-.5952-.085,4.1973,4.1973,0,0,0-.51.03v-.72A.4452.4452,0,0,0,48.4268,56.7881Z"/><path class="a5371dff-d52a-45d3-96b8-eb7e09d379e0" d="M52.1568,56.5381a5.4425,5.4425,0,0,1,.1-.82,4.01,4.01,0,0,1,.23-.76,2.0036,2.0036,0,0,1,.41-.63,1.8686,1.8686,0,0,1,.6548-.43,2.8685,2.8685,0,0,1,1.89,0,1.8686,1.8686,0,0,1,.6548.43,2.0121,2.0121,0,0,1,.41.63,4.01,4.01,0,0,1,.23.76,5.5711,5.5711,0,0,1,.1.82q.02.42.02.81c0,.2607-.0068.53-.02.8105a5.5711,5.5711,0,0,1-.1.82,3.8981,3.8981,0,0,1-.23.7549,2.0469,2.0469,0,0,1-.41.625,1.8245,1.8245,0,0,1-.65.4248,2.9686,2.9686,0,0,1-1.895,0,1.82,1.82,0,0,1-.6548-.4248,2.038,2.038,0,0,1-.41-.625,3.8981,3.8981,0,0,1-.23-.7549,5.4425,5.4425,0,0,1-.1-.82c-.0132-.28-.02-.55-.02-.8105S52.1436,56.8184,52.1568,56.5381Zm.9053,1.6953a3.7467,3.7467,0,0,0,.16.93,1.7652,1.7652,0,0,0,.4351.7354,1.3269,1.3269,0,0,0,1.68,0,1.7652,1.7652,0,0,0,.4351-.7354,3.7693,3.7693,0,0,0,.16-.93q.0249-.4951.0254-.8955c0-.1729-.002-.3652-.0054-.5752a5.0677,5.0677,0,0,0-.05-.63,4.7758,4.7758,0,0,0-.13-.6143,1.6466,1.6466,0,0,0-.25-.5254,1.2946,1.2946,0,0,0-.415-.3652,1.4026,1.4026,0,0,0-1.22,0,1.2946,1.2946,0,0,0-.415.3652,1.6364,1.6364,0,0,0-.25.5254,4.616,4.616,0,0,0-.13.6143,4.9758,4.9758,0,0,0-.05.63c-.0034.21-.0054.4023-.0054.5752Q53.0367,57.7378,53.0621,58.2334Z"/><path class="a5371dff-d52a-45d3-96b8-eb7e09d379e0" d="M59.5469,56.7881h.28a1.7574,1.7574,0,0,0,.5151-.0752,1.3078,1.3078,0,0,0,.43-.22,1.0618,1.0618,0,0,0,.2949-.3652,1.104,1.104,0,0,0,.11-.5,1.0233,1.0233,0,0,0-.36-.8545,1.4029,1.4029,0,0,0-.9-.2852,1.3406,1.3406,0,0,0-.5952.125,1.1918,1.1918,0,0,0-.42.335,1.4108,1.4108,0,0,0-.2451.49,2.138,2.138,0,0,0-.08.59h-.85a3.2124,3.2124,0,0,1,.165-.9307,2.076,2.076,0,0,1,.4146-.72,1.8611,1.8611,0,0,1,.6753-.47,2.4,2.4,0,0,1,.9351-.17,3.0313,3.0313,0,0,1,.855.1152,1.9763,1.9763,0,0,1,.6851.3447,1.5778,1.5778,0,0,1,.4546.59,2.02,2.02,0,0,1,.165.85,1.3732,1.3732,0,0,1-.28.8506,1.7862,1.7862,0,0,1-.7.56v.0205a1.4777,1.4777,0,0,1,.9653.6094,1.9481,1.9481,0,0,1,.3149,1.11,2.1218,2.1218,0,0,1-.1953.9346,1.9535,1.9535,0,0,1-.5249.6758,2.2326,2.2326,0,0,1-.7749.4043,3.2125,3.2125,0,0,1-.9448.1357,3.0308,3.0308,0,0,1-.98-.15,1.9991,1.9991,0,0,1-.75-.4453,1.9334,1.9334,0,0,1-.4751-.7246,2.5955,2.5955,0,0,1-.1553-.98h.85a1.7267,1.7267,0,0,0,.4,1.125,1.3955,1.3955,0,0,0,1.11.4355,1.8187,1.8187,0,0,0,.59-.0947,1.5174,1.5174,0,0,0,.49-.2705,1.2753,1.2753,0,0,0,.46-1.0049,1.3581,1.3581,0,0,0-.12-.585,1.2688,1.2688,0,0,0-.7949-.69,2.0088,2.0088,0,0,0-.5952-.085,4.1973,4.1973,0,0,0-.51.03v-.72A.4452.4452,0,0,0,59.5469,56.7881Z"/><path class="a5371dff-d52a-45d3-96b8-eb7e09d379e0" d="M65.5469,60.8281v-5.08h-1.84v-.68a4.3241,4.3241,0,0,0,.7-.0557,1.9111,1.9111,0,0,0,.6152-.2041,1.4147,1.4147,0,0,0,.4648-.41,1.5679,1.5679,0,0,0,.26-.66h.65v7.09Z"/><path d="M74.0269,55.6582v.75h-1.03v3.21a.9137.9137,0,0,0,.0254.24.2432.2432,0,0,0,.0947.14.4293.4293,0,0,0,.1948.0654,2.9086,2.9086,0,0,0,.3252.0146h.39v.75h-.65a3.0331,3.0331,0,0,1-.5654-.0449.8336.8336,0,0,1-.38-.165.7035.7035,0,0,1-.2148-.34,1.9569,1.9569,0,0,1-.07-.58v-3.29h-.88v-.75h.88v-1.55h.85v1.55Z"/><path d="M74.8467,57.1836a2.4083,2.4083,0,0,1,.48-.86,2.2586,2.2586,0,0,1,.79-.5752,2.8956,2.8956,0,0,1,2.165,0,2.2758,2.2758,0,0,1,.7852.5752,2.4232,2.4232,0,0,1,.48.86,3.615,3.615,0,0,1,0,2.125,2.4311,2.4311,0,0,1-.48.8545,2.2269,2.2269,0,0,1-.7852.57,2.96,2.96,0,0,1-2.165,0,2.2109,2.2109,0,0,1-.79-.57,2.416,2.416,0,0,1-.48-.8545,3.6045,3.6045,0,0,1,0-2.125Zm.8647,1.8994a1.7538,1.7538,0,0,0,.3452.61,1.5012,1.5012,0,0,0,.5151.375,1.5687,1.5687,0,0,0,1.25,0,1.5041,1.5041,0,0,0,.5146-.375,1.7461,1.7461,0,0,0,.3452-.61,2.8511,2.8511,0,0,0,0-1.67,1.8058,1.8058,0,0,0-.3452-.6152,1.4805,1.4805,0,0,0-.5146-.38,1.5687,1.5687,0,0,0-1.25,0,1.4778,1.4778,0,0,0-.5151.38,1.814,1.814,0,0,0-.3452.6152,2.8511,2.8511,0,0,0,0,1.67Z"/><path d="M84.2569,55.6582v1.09h.02a2.3036,2.3036,0,0,1,.76-.93,1.9076,1.9076,0,0,1,1.14-.28v.9a2.3976,2.3976,0,0,0-.87.14,1.3789,1.3789,0,0,0-.58.41,1.6928,1.6928,0,0,0-.32.6553,3.5192,3.5192,0,0,0-.1.8848v2.3h-.85v-5.17Z"/><path d="M90.2964,60.4981a2.3426,2.3426,0,0,1-1.46.44,2.6634,2.6634,0,0,1-1.0747-.2,2.1194,2.1194,0,0,1-.7651-.5605,2.37,2.37,0,0,1-.4648-.8594,4.1388,4.1388,0,0,1-.1753-1.09,3.1059,3.1059,0,0,1,.18-1.08,2.5809,2.5809,0,0,1,.5049-.8506,2.2926,2.2926,0,0,1,.77-.56,2.3428,2.3428,0,0,1,.9751-.2,2.1183,2.1183,0,0,1,1.145.2852,2.265,2.265,0,0,1,.73.7246,2.8715,2.8715,0,0,1,.38.96,4.109,4.109,0,0,1,.085.99h-3.87a2.0662,2.0662,0,0,0,.08.6455,1.4685,1.4685,0,0,0,.29.54,1.4382,1.4382,0,0,0,.51.375,1.7684,1.7684,0,0,0,.73.14,1.4685,1.4685,0,0,0,.8848-.25,1.2092,1.2092,0,0,0,.4551-.76h.84A2.0633,2.0633,0,0,1,90.2964,60.4981Zm-.2046-3.32a1.4357,1.4357,0,0,0-.77-.7744,1.4477,1.4477,0,0,0-.585-.1152,1.4726,1.4726,0,0,0-.5952.1152,1.37,1.37,0,0,0-.4551.3145,1.5167,1.5167,0,0,0-.3.4658,1.7593,1.7593,0,0,0-.13.5645h2.97A1.7522,1.7522,0,0,0,90.0918,57.1778Z"/><path d="M92.6568,59.6729a.9128.9128,0,0,0,.3149.3105,1.4223,1.4223,0,0,0,.44.165,2.5294,2.5294,0,0,0,.5049.05,3.0426,3.0426,0,0,0,.42-.03,1.5469,1.5469,0,0,0,.4048-.1094.7661.7661,0,0,0,.3052-.2354.63.63,0,0,0,.12-.3955.5666.5666,0,0,0-.25-.5,2.11,2.11,0,0,0-.625-.2744q-.375-.1055-.8149-.19a4.211,4.211,0,0,1-.8149-.24,1.6775,1.6775,0,0,1-.625-.4346,1.1306,1.1306,0,0,1-.25-.78,1.2384,1.2384,0,0,1,.1753-.67,1.43,1.43,0,0,1,.45-.4551,2.08,2.08,0,0,1,.62-.26,2.8542,2.8542,0,0,1,.6851-.085,4.1023,4.1023,0,0,1,.81.0752,1.8745,1.8745,0,0,1,.6548.26,1.344,1.344,0,0,1,.4551.5,1.9,1.9,0,0,1,.2.7852h-.85a.8652.8652,0,0,0-.13-.415.8491.8491,0,0,0-.28-.2646,1.26,1.26,0,0,0-.375-.1455,1.9125,1.9125,0,0,0-.415-.0449,2.4645,2.4645,0,0,0-.3848.03,1.2807,1.2807,0,0,0-.355.1045.7133.7133,0,0,0-.26.2.5069.5069,0,0,0-.1.3252.479.479,0,0,0,.1553.3652,1.2164,1.2164,0,0,0,.395.2393,3.3909,3.3909,0,0,0,.54.16q.3.0659.6.1348a6.2276,6.2276,0,0,1,.625.1709,2.016,2.016,0,0,1,.54.2646,1.2953,1.2953,0,0,1,.38.415,1.2241,1.2241,0,0,1,.145.62,1.4368,1.4368,0,0,1-.1953.7793,1.513,1.513,0,0,1-.51.5,2.1229,2.1229,0,0,1-.71.2656,4.2234,4.2234,0,0,1-.7852.0752,3.6027,3.6027,0,0,1-.82-.0908,1.9974,1.9974,0,0,1-.69-.2949,1.4948,1.4948,0,0,1-.48-.54,1.8677,1.8677,0,0,1-.2-.8145h.85A.9513.9513,0,0,0,92.6568,59.6729Z"/><path d="M100.0967,56.5586a1.2868,1.2868,0,0,0-.86-.2705,1.5854,1.5854,0,0,0-.77.17,1.373,1.373,0,0,0-.4951.45,1.885,1.885,0,0,0-.2651.6445,3.5321,3.5321,0,0,0-.08.7559,2.85,2.85,0,0,0,.0854.6992,1.877,1.877,0,0,0,.2646.6055,1.3406,1.3406,0,0,0,.47.4248,1.41,1.41,0,0,0,.69.16,1.3923,1.3923,0,0,0,.9849-.33,1.4888,1.4888,0,0,0,.4351-.93h.87a2.38,2.38,0,0,1-.7148,1.4795,2.248,2.248,0,0,1-1.5654.5205,2.6877,2.6877,0,0,1-1.0449-.19,2.0275,2.0275,0,0,1-.76-.54,2.3277,2.3277,0,0,1-.46-.835,3.4736,3.4736,0,0,1-.1553-1.0645,3.815,3.815,0,0,1,.15-1.0859,2.52,2.52,0,0,1,.4551-.88,2.1407,2.1407,0,0,1,.7651-.59,2.4981,2.4981,0,0,1,1.07-.2148,3.1132,3.1132,0,0,1,.8252.1055,2.0035,2.0035,0,0,1,.68.3242,1.7906,1.7906,0,0,1,.4849.5557,2.0406,2.0406,0,0,1,.24.7949h-.88A1.2907,1.2907,0,0,0,100.0967,56.5586Z"/><path d="M103.2266,53.6885V56.418h.02a1.1357,1.1357,0,0,1,.28-.4053,1.6173,1.6173,0,0,1,.4048-.27,2.0834,2.0834,0,0,1,.47-.1553,2.3781,2.3781,0,0,1,.4751-.05,2.2575,2.2575,0,0,1,.85.14,1.4007,1.4007,0,0,1,.55.3906,1.4447,1.4447,0,0,1,.2949.5947,3.2046,3.2046,0,0,1,.085.7646v3.4h-.85v-3.5a1.0261,1.0261,0,0,0-.28-.76,1.0411,1.0411,0,0,0-.77-.28,1.7288,1.7288,0,0,0-.6748.12,1.2635,1.2635,0,0,0-.4751.34,1.4631,1.4631,0,0,0-.2852.5146,2.0958,2.0958,0,0,0-.0947.6455v2.92h-.85v-7.14Z"/><path d="M111.5962,60.4981a2.3426,2.3426,0,0,1-1.46.44,2.6634,2.6634,0,0,1-1.0747-.2,2.1194,2.1194,0,0,1-.7651-.5605,2.37,2.37,0,0,1-.4648-.8594,4.1388,4.1388,0,0,1-.1753-1.09,3.1059,3.1059,0,0,1,.18-1.08,2.5809,2.5809,0,0,1,.5049-.8506,2.2926,2.2926,0,0,1,.77-.56,2.3428,2.3428,0,0,1,.9751-.2,2.1183,2.1183,0,0,1,1.145.2852,2.265,2.265,0,0,1,.73.7246,2.8715,2.8715,0,0,1,.38.96,4.109,4.109,0,0,1,.085.99h-3.87a2.0662,2.0662,0,0,0,.08.6455,1.4685,1.4685,0,0,0,.29.54,1.4382,1.4382,0,0,0,.51.375,1.7684,1.7684,0,0,0,.73.14,1.4685,1.4685,0,0,0,.8848-.25,1.2092,1.2092,0,0,0,.4551-.76h.84A2.0633,2.0633,0,0,1,111.5962,60.4981Zm-.2046-3.32a1.4357,1.4357,0,0,0-.77-.7744,1.4477,1.4477,0,0,0-.585-.1152,1.4726,1.4726,0,0,0-.5952.1152,1.37,1.37,0,0,0-.4551.3145,1.5167,1.5167,0,0,0-.3.4658,1.7593,1.7593,0,0,0-.13.5645h2.97A1.7522,1.7522,0,0,0,111.3917,57.1778Z"/><path d="M117.0767,60.8281v-.7h-.02a1.252,1.252,0,0,1-.66.62,2.5134,2.5134,0,0,1-.99.19,2.3356,2.3356,0,0,1-1.0454-.2207,2.1416,2.1416,0,0,1-.74-.59,2.5674,2.5674,0,0,1-.4453-.8594,3.5519,3.5519,0,0,1-.15-1.04,3.642,3.642,0,0,1,.145-1.04,2.4434,2.4434,0,0,1,.44-.8555,2.13,2.13,0,0,1,.74-.58,2.3492,2.3492,0,0,1,1.0352-.2148,2.5453,2.5453,0,0,1,.43.04,2.1564,2.1564,0,0,1,.46.1348,1.96,1.96,0,0,1,.4351.25,1.391,1.391,0,0,1,.3452.3848h.02V53.6885h.85v7.14Zm-3.0552-1.835a1.9211,1.9211,0,0,0,.29.6152,1.4177,1.4177,0,0,0,.5.43,1.5194,1.5194,0,0,0,.7148.16,1.4029,1.4029,0,0,0,1.22-.6152,1.8658,1.8658,0,0,0,.2749-.625,3.0318,3.0318,0,0,0-.0049-1.4453,1.8312,1.8312,0,0,0-.2852-.625,1.4612,1.4612,0,0,0-.5049-.4346,1.5729,1.5729,0,0,0-.75-.165,1.46,1.46,0,0,0-.73.17,1.3543,1.3543,0,0,0-.48.45,1.9565,1.9565,0,0,0-.26.64,3.4144,3.4144,0,0,0-.08.74A2.64,2.64,0,0,0,114.0215,58.9932Z"/><path d="M122.7164,60.8281v-.82h-.02a1.734,1.734,0,0,1-.69.7051,2.0646,2.0646,0,0,1-.99.2256,2.3008,2.3008,0,0,1-.85-.1357,1.3512,1.3512,0,0,1-.55-.3848,1.4447,1.4447,0,0,1-.2949-.5947,3.2046,3.2046,0,0,1-.085-.7646v-3.4h.85v3.5a1.0261,1.0261,0,0,0,.28.76,1.0411,1.0411,0,0,0,.77.28,1.73,1.73,0,0,0,.6748-.12,1.2674,1.2674,0,0,0,.4751-.34,1.4666,1.4666,0,0,0,.2852-.5156,2.1,2.1,0,0,0,.0947-.6445v-2.92h.85v5.17Z"/><path d="M125.6963,53.6885v7.14h-.85v-7.14Z"/><path d="M130.6758,60.4981a2.3426,2.3426,0,0,1-1.46.44,2.6634,2.6634,0,0,1-1.0747-.2,2.1194,2.1194,0,0,1-.7651-.5605,2.37,2.37,0,0,1-.4648-.8594,4.1388,4.1388,0,0,1-.1753-1.09,3.1059,3.1059,0,0,1,.18-1.08,2.5809,2.5809,0,0,1,.5049-.8506,2.2926,2.2926,0,0,1,.77-.56,2.3428,2.3428,0,0,1,.9751-.2,2.1182,2.1182,0,0,1,1.145.2852,2.265,2.265,0,0,1,.73.7246,2.8715,2.8715,0,0,1,.38.96,4.109,4.109,0,0,1,.085.99h-3.87a2.0662,2.0662,0,0,0,.08.6455,1.4685,1.4685,0,0,0,.29.54,1.4382,1.4382,0,0,0,.51.375,1.7684,1.7684,0,0,0,.73.14,1.4685,1.4685,0,0,0,.8848-.25,1.2092,1.2092,0,0,0,.4551-.76h.84A2.0633,2.0633,0,0,1,130.6758,60.4981Zm-.2046-3.32a1.4357,1.4357,0,0,0-.77-.7744,1.4477,1.4477,0,0,0-.585-.1152,1.4726,1.4726,0,0,0-.5952.1152,1.37,1.37,0,0,0-.4551.3145,1.5167,1.5167,0,0,0-.3.4658,1.7593,1.7593,0,0,0-.13.5645h2.97A1.7522,1.7522,0,0,0,130.4712,57.1778Z"/></g></g></svg>