<?xml version="1.0" encoding="UTF-8" standalone="no"?>
<!DOCTYPE svg PUBLIC "-//W3C//DTD SVG 1.1//EN" "http://www.w3.org/Graphics/SVG/1.1/DTD/svg11.dtd">
<svg width="100%" height="100%" viewBox="0 0 330 201" version="1.1" xmlns="http://www.w3.org/2000/svg" xmlns:xlink="http://www.w3.org/1999/xlink" xml:space="preserve" xmlns:serif="http://www.serif.com/" style="fill-rule:evenodd;clip-rule:evenodd;stroke-linejoin:round;stroke-miterlimit:2;">
    <g transform="matrix(1,0,0,1,-78.6957,-47.0614)">
        <g>
            <g transform="matrix(0.69753,0,0,1,38.8685,214.408)">
                <path d="M474.011,-80.227C474.011,-87.368 465.699,-93.166 455.461,-93.166L166.429,-93.166C156.191,-93.166 147.879,-87.368 147.879,-80.227L147.879,-54.348C147.879,-47.206 156.191,-41.409 166.429,-41.409L455.461,-41.409C465.699,-41.409 474.011,-47.206 474.011,-54.348L474.011,-80.227Z" style="fill:rgb(255,230,193);"/>
            </g>
            <g transform="matrix(-1.12718e-16,0.613609,-1.19669,-2.19828e-16,43.7593,-43.6783)">
                <path d="M474.011,-80.227C474.011,-87.368 462.704,-93.166 448.776,-93.166L173.114,-93.166C159.186,-93.166 147.879,-87.368 147.879,-80.227L147.879,-54.348C147.879,-47.206 159.186,-41.409 173.114,-41.409L448.776,-41.409C462.704,-41.409 474.011,-47.206 474.011,-54.348L474.011,-80.227Z" style="fill:rgb(255,230,193);"/>
            </g>
            <g transform="matrix(-1.12718e-16,0.613609,-1.19669,-2.19828e-16,276.559,-43.6783)">
                <path d="M474.011,-80.227C474.011,-87.368 462.704,-93.166 448.776,-93.166L173.114,-93.166C159.186,-93.166 147.879,-87.368 147.879,-80.227L147.879,-54.348C147.879,-47.206 159.186,-41.409 173.114,-41.409L448.776,-41.409C462.704,-41.409 474.011,-47.206 474.011,-54.348L474.011,-80.227Z" style="fill:rgb(255,230,193);"/>
            </g>
            <g transform="matrix(-7.25056e-17,0.394702,-0.769765,-1.41403e-16,46.8209,24.3897)">
                <path d="M474.011,-80.227C474.011,-87.368 462.704,-93.166 448.776,-93.166L173.114,-93.166C159.186,-93.166 147.879,-87.368 147.879,-80.227L147.879,-54.348C147.879,-47.206 159.186,-41.409 173.114,-41.409L448.776,-41.409C462.704,-41.409 474.011,-47.206 474.011,-54.348L474.011,-80.227Z" style="fill:rgb(255,230,193);"/>
            </g>
            <g transform="matrix(-7.25056e-17,0.394702,-0.769765,-1.41403e-16,336.376,24.3897)">
                <path d="M474.011,-80.227C474.011,-87.368 462.704,-93.166 448.776,-93.166L173.114,-93.166C159.186,-93.166 147.879,-87.368 147.879,-80.227L147.879,-54.348C147.879,-47.206 159.186,-41.409 173.114,-41.409L448.776,-41.409C462.704,-41.409 474.011,-47.206 474.011,-54.348L474.011,-80.227Z" style="fill:rgb(255,230,193);"/>
            </g>
        </g>
    </g>
</svg>
