<?xml version="1.0" encoding="UTF-8" standalone="no"?><!DOCTYPE svg PUBLIC "-//W3C//DTD SVG 1.1//EN" "http://www.w3.org/Graphics/SVG/1.1/DTD/svg11.dtd"><svg width="100%" height="100%" viewBox="0 0 1725 1725" version="1.1" xmlns="http://www.w3.org/2000/svg" xmlns:xlink="http://www.w3.org/1999/xlink" xml:space="preserve" xmlns:serif="http://www.serif.com/" style="fill-rule:evenodd;clip-rule:evenodd;stroke-linejoin:round;stroke-miterlimit:2;"><path d="M862.325,0c475.93,0 862.325,386.395 862.325,862.325c0,475.93 -386.395,862.325 -862.325,862.325c-475.93,0 -862.325,-386.395 -862.325,-862.325c0,-475.93 386.395,-862.325 862.325,-862.325Zm217.888,450.103c-77.727,0 -150.775,30.257 -205.832,85.369l-12.234,12.248l-12.235,-12.248c-55.057,-55.112 -128.105,-85.369 -205.832,-85.369c-77.366,0 -150.415,30.257 -205.111,85.009c-55.057,55.112 -85.284,128.235 -84.924,205.68c0,77.805 30.587,150.568 85.283,205.68l388.273,388.667c9.356,9.365 21.951,14.408 34.186,14.408c12.234,0 24.829,-4.683 34.185,-14.048l389.352,-388.307c55.057,-55.112 85.284,-128.234 85.284,-205.679c0,-77.806 -30.227,-150.928 -84.924,-206.041c-55.056,-55.112 -128.105,-85.369 -205.471,-85.369Z" style="fill:#f8b0b0;"/></svg>