<?xml version="1.0" encoding="UTF-8" standalone="no"?>
<!DOCTYPE svg PUBLIC "-//W3C//DTD SVG 1.1//EN" "http://www.w3.org/Graphics/SVG/1.1/DTD/svg11.dtd">
<svg width="100%" height="100%" viewBox="0 0 442 391" version="1.1" xmlns="http://www.w3.org/2000/svg" xmlns:xlink="http://www.w3.org/1999/xlink" xml:space="preserve" xmlns:serif="http://www.serif.com/" style="fill-rule:evenodd;clip-rule:evenodd;stroke-linejoin:round;stroke-miterlimit:2;">
    <g transform="matrix(1,0,0,1,-0.400245,-508.45)">
        <g transform="matrix(1,0,0,1,-346.353,-445.578)">
            <g transform="matrix(0.434257,0,0,0.434257,193.008,758.568)">
                <path d="M1080.21,450.103C1002.49,450.103 929.438,480.36 874.381,535.472L862.147,547.72L849.912,535.472C794.855,480.36 721.807,450.103 644.08,450.103C566.714,450.103 493.665,480.36 438.969,535.112C383.912,590.224 353.685,663.347 354.045,740.792C354.045,818.597 384.632,891.36 439.328,946.472L827.601,1335.14C836.957,1344.5 849.552,1349.55 861.787,1349.55C874.021,1349.55 886.616,1344.86 895.972,1335.5L1285.32,947.192C1340.38,892.08 1370.61,818.958 1370.61,741.513C1370.61,663.707 1340.38,590.585 1285.68,535.472C1230.63,480.36 1157.58,450.103 1080.21,450.103Z" style="fill:rgb(229,111,111);"/>
            </g>
        </g>
    </g>
</svg>
