<svg viewBox="0 0 687 616" xmlns="http://www.w3.org/2000/svg" fill-rule="evenodd" clip-rule="evenodd" stroke-linejoin="round" stroke-miterlimit="2">
  <defs/>
  <path d="M490.238796.000897c-52.46919 0-101.78699 20.426664-138.956268 57.633073l-8.25924 8.26869-8.259914-8.26869C297.594096 20.427561 248.278997.000897 195.80508.000897c-52.230204 0-101.545978 20.426664-138.471543 57.390035C20.164259 94.597341-.242152 143.963072.000887 196.24661c0 52.526575 20.649448 101.64927 57.575013 138.855678l262.125197 262.391864c6.316286 6.318987 23.079153 17.728268 23.079153 17.728268s16.762192-11.166243 23.078478-17.48523l262.850936-262.148826c37.171303-37.206409 57.57974-86.571466 57.57974-138.855003 0-52.52725-20.408437-101.892307-57.336702-139.099391C591.78815 20.427561 542.471701.000897 490.238796.000897z" fill="#ffd7d4"/>
  <g fill-rule="nonzero">
    <path d="M651.902422 239.06035c-.967334 1.108609-1.8915 2.254497-2.825478 3.390575-14.63951 17.794628-29.284908 35.587294-43.936191 53.374074-2.0367 2.466407-4.330438 4.718941-7.642527 8.299843-.09222-1.88169-.084372-3.767305.023546-5.648995 2.364376-15.744194 5.015224-31.449146 7.097052-47.228658 1.538316-11.649213 2.584136-23.380835 3.296392-35.110495.151084-2.47818-2.099488-5.10352-3.243414-7.660186-2.287853 1.408815-5.364485 2.291777-6.71836 4.324552-4.883761 7.322698-9.176919 15.037824-13.713382 22.594017-8.31554 13.850731-16.377964 27.868244-25.133023 41.436427-2.703826 4.191127-7.312888 7.151993-11.05076 10.67403l-2.33887-1.249882c-.233493-4.26765-.204061-8.547072.088297-12.81276 1.179245-9.475163 3.231641-18.858107 4.05574-28.352892.251153-2.896115-2.346718-6.03946-3.639767-9.069-2.058282 2.262344-4.87395 4.20486-5.996293 6.861595-1.685476 3.989026-2.18386 8.478398-3.374877 13.552486-5.052505-5.733366-8.060462-1.506922-11.409832 1.940555-10.921259 11.24305-21.78954 22.543001-32.961954 33.530973-3.353293 3.219869-7.16769 5.923695-11.315649 8.023182-4.554122 2.352603-9.80284 4.567857-13.674138-1.334254-3.3219-5.070164-1.86207-11.272482 3.268921-15.697102 15.112386-13.024671 25.629445-28.749244 29.284908-48.737543.916318-5.017186 1.314632-10.450346-3.647614-12.059299-3.881109-1.259692-9.100396.508194-13.366083 1.97391-2.223103.763272-4.002762 3.573054-5.417463 5.815777-6.239598 9.88525-12.273172 19.89804-18.58537 30.199264-8.831582-3.335634-12.186838 5.78242-17.886849 9.877402-6.19643 4.45209-11.635477 9.963736-18.263579 15.765778-3.849714-20.231604-14.319682-34.965297-28.564803-47.338538-.724028-.66124-1.385269-1.387232-1.979797-2.168162-5.06624-6.337706-5.54304-10.776062.468951-16.01497 7.518913-6.174847 15.410631-11.882706 23.630026-17.088258 2.831365-1.90916 7.326623-3.004033 4.715018-7.173576-1.016388-1.620726-6.420115-2.342793-8.472512-1.149813-10.163874 5.915846-19.874494 12.606736-29.088693 18.597143.127539-.655354.29432-1.30286.498383-1.93663 13.668252-44.193231 27.336504-88.386462 41.00868-132.577731 1.563825-4.373605 2.792123-8.859053 3.675085-13.417099.135388-2.28589-.873151-4.495258-2.69009-5.890338-2.219179-.355147-4.471713.453254-5.959014 2.13873-3.339558 4.819011-6.253333 9.918607-8.707967 15.241888-20.54947 44.976123-40.900764 90.040544-61.491439 134.999008-1.455906 3.178664-3.739834 7.061734-6.63595 8.31554-13.038406 5.647033-21.875875 15.389048-29.116163 27.089276-1.047782 1.518694-2.391847 2.809781-3.951746 3.796736-2.980488 2.044548-6.85571 3.223793-9.080774 5.847171-10.464081 12.333999-20.308127 25.19385-30.758473 37.539622-4.773882 5.641146-10.43465 10.532756-15.693179 15.763815l-2.32317-1.24007c2.668507-13.636859 5.382143-27.263906 7.9859-40.912537 2.201519-11.529522 4.673813-23.035499 6.125795-34.663128.025507-3.51615-1.663893-6.832164-4.522728-8.876711-2.519385-1.314633-6.998946-.141274-10.063805 1.208677-3.084481 1.538316-5.770648 3.769266-7.850514 6.520184-9.953925 12.394825-19.656697 24.993712-29.430106 37.533735-1.50496 1.932706-2.90985 3.941935-4.361832 5.915845l-2.382035-1.12038c2.393808-7.809309 4.840594-15.600958 7.161803-23.43185 1.20279-4.049853 1.381345-7.98394-3.582864-9.698848-4.797427-1.658006-6.386759 1.32248-7.730823 5.30562-1.008539 3.45925-2.674394 6.69089-4.907307 9.520294-14.578684 16.56633-29.3889 32.93056-44.236398 49.25947-2.584135 2.305512-5.335053 4.412849-8.23313 6.306312.427746-5.733367.125577-9.18673 1.006576-12.304567 7.848552-27.770137 15.824642-55.502993 23.92631-83.200531 1.334253-4.591403 4.803313-9.981396-1.830675-12.349696-1.58737-.567058-6.977362 4.69932-7.980015 8.06831-8.931651 30.012861-17.455178 60.145412-25.568618 90.395692-1.104684 4.116565-.068675 9.269139 1.334254 13.487735 2.256458 6.775262 8.005522 8.796264 14.10777 4.930853 5.16631-3.253225 9.885251-7.163765 14.04106-11.635478 9.79303-10.640673 19.121033-21.713017 28.503976-32.722573 1.169434-1.752189 2.123033-3.639765 2.841175-5.619562l2.227027 2.075941c-.158933.949675-.300207 1.901312-.480724 2.8451-1.903274 9.859743-4.096944 19.676319-5.490062 29.604736-.290396 2.072018 2.374187 4.560009 3.677047 6.85571 2.158351-1.153737 4.230369-2.462483 6.196431-3.91839 1.036009-.871189 1.338178-2.576286 2.08379-3.839903 12.689146-21.526615 24.88972-43.398565 42.28211-61.691576 2.136767-1.997457 4.399112-3.859526 6.771337-5.574434l2.01904 1.240071c-1.004615 5.65292-1.997457 11.3078-3.015806 16.958757-3.210058 17.81425-6.798808 35.57356-9.355473 53.48003-.547437 3.839904 1.80909 10.972275 4.265687 11.694341 3.73591 1.096836 9.614476-.975182 12.993277-3.684894 6.059082-4.858254 11.064496-11.076269 16.279858-16.93325 7.61702-8.552959 15.031938-17.288397 23.416153-26.963699-.537626 2.586098-.939864 5.199666-1.206715 7.82893-.18444 5.017187-1.724719 10.715235 4.493296 13.462228 6.565313 2.902002 9.667453-2.438937 12.310453-6.469168 10.32477-15.744194 20.13742-31.823914 30.252241-47.705458 1.61484-2.535082 4.17543-6.82824 5.668617-6.577086 3.25911.77112 6.04927 2.880418 7.675883 5.80989a18.762912 18.762912 0 011.67959 11.588386c-10.001017 41.901454-20.54947 83.67537-30.601502 125.567013-3.769267 15.706913-6.785073 31.606116-9.694923 47.499433-.382617 2.085752 1.91897 4.66204 2.978525 7.01268 2.18386-1.40489 4.25784-2.9746 6.202318-4.695395.806439-1.232223 1.287162-2.648887 1.400966-4.118528 7.860325-35.118343 15.32626-70.328907 23.65161-105.33737 6.643799-27.925147 14.32753-55.603063 21.603138-83.598846 6.659496 7.165727 13.075686 12.95992 18.10857 19.776387 6.015915 7.954507 11.237164 16.481958 15.583299 25.458739 4.503106 9.6184 2.896115 18.304784-5.75495 26.371133-9.79303 9.069001-16.629119 20.883033-19.611568 33.89397-1.864031 8.111477 1.658006 16.636966 7.69158 19.929433 5.972748 3.259111 13.593691 1.585408 19.721448-5.236946 3.274808-3.296391 5.698048-7.340357 7.05781-11.7846 2.564514-11.374513 3.902692-23.0198 5.935467-34.521853.69852-3.95567.82606-8.92969 3.261073-11.492241 8.290032-8.725627 17.490497-16.582027 26.343663-24.77199l1.87188 1.663892c-2.199557 2.637113-4.232332 5.407652-6.086553 8.297881-1.09291 1.922895-2.321209 4.858253-1.601104 6.522146 2.270193 5.242833 5.85502 9.91272 8.156607 15.145742 3.961556 9.006213 9.973547 12.934413 19.177935 9.944115 6.308274-1.895425 12.171142-5.040732 17.237382-9.249518 14.356962-12.76763 27.987934-26.353473 41.985825-39.699935-.233494 3.70844-.720104 7.781839-.680861 11.851313.021583 4.16758.347298 8.327313.977144 12.447802 1.832637 11.60016 9.583081 14.82199 18.754114 7.416881 4.520765-3.759456 8.521565-8.101667 11.896442-12.914791 9.127865-12.704843 17.810325-25.731476 26.67134-38.628608l1.801242.43167c-.419897 4.297082-.506232 8.658915-1.318557 12.881435-3.33171 17.30998-7.391373 34.496346-10.16976 51.890698-1.693325 10.60928-6.347516 19.128882-12.563569 27.630825-18.349913 25.10163-37.315938 49.887355-53.71941 76.242791-24.456086 39.29181-42.961008 81.460115-51.092108 127.431043-1.728643 9.620362-1.962138 19.446748-.692634 29.137747 1.917008 13.797754 13.909595 18.552014 25.050614 10.195268 7.126484-5.182006 13.340575-11.513824 18.391118-18.736454 8.458776-12.29868 15.863884-25.289995 22.13684-38.836594 20.700553-46.43988 33.860612-95.465856 47.071686-144.372142 16.103266-59.613672 5.548926-40.390608 47.15606-91.567087 11.13317-13.695722 22.668578-27.069654 33.662436-40.875256 1.448058-1.81694 2.026889-6.270993.829985-7.862286-2.94517-3.912503-5.93743-1.092911-8.3332 1.650158zm-162.869215-5.745139c-3.133534 14.119544-8.219395 25.3312-19.225026 35.010426 2.85491-14.190181 8.303767-25.203661 19.225026-35.010426zM315.68814 272.008569l-2.864722-1.956251 16.81356-27.363974 2.574324 1.534391-16.523162 27.785834zm52.157548-42.138872c-8.968932-3.251263-11.321535-8.066349-7.713164-15.463609 8.666763-17.776969 17.439481-35.504884 26.170995-53.252421l1.493187.659278-19.951018 68.056752zm38.605062 114.327886c-1.775734 2.525272-6.298462 3.1198-9.561497 4.601214-.2021-3.109989-1.208677-6.429926-.46699-9.29661 2.76269-10.660295 8.94735-19.31136 18.147814-27.964388.951637 13.00505-1.687439 23.50445-8.119327 32.657822v.001962zM567.33232 377.9699c-11.827767 43.932267-23.73402 87.89789-41.862212 129.73263-7.358017 16.984266-17.02547 32.997273-26.143524 49.169213-2.825479 4.587479-6.41423 8.656953-10.613204 12.033792-2.066131 1.769848-6.235674 3.117837-8.386177 2.187784-2.574325-1.665855-4.167581-4.495258-4.259802-7.560118.977145-12.369317 1.34014-25.054538 4.508993-36.937245 16.38189-61.436498 45.876745-116.26844 85.694409-165.677034 1.344064-1.667817 2.517423-3.472984 3.769267-5.215362l2.105374 1.281276c-1.591294 6.996983-2.949093 14.058717-4.813124 20.983102v.001962z" fill="#f8b0b0"/>
    <path d="M151.306115 335.030475c-4.870026-3.83598-7.823043.873152-10.984047 3.861488-5.136877 4.858253-9.851895 10.452308-15.732422 14.178408-20.261035 12.842192-40.887028 25.119289-61.526756 37.353218-5.564623 2.90985-11.272482 5.537153-17.100032 7.872097-.180517-3.518113-.162857-7.042113.049054-10.558264 3.620144-27.679878 7.206932-55.365644 11.091965-83.010204C68.448958 223.991132 79.992215 143.282515 91.26862 62.538581c1.291087-9.220086 1.85422-18.524544 1.687439-27.832926-.674976-3.312089-3.005995-6.05712-6.167-7.25991-4.64438-.800552-5.578357 3.465135-5.515569 7.524799.221722 3.916427.156971 7.844627-.198176 11.751243C73.611343 102.538723 66.41226 158.396863 58.37338 214.13139c-8.38814 58.157766-17.655316 116.187993-26.422148 174.292782-1.191018 7.899567-1.546165 16.16213 5.970785 21.426545 7.193198 5.03877 14.351076 1.332292 20.65935-2.372225 25.535262-14.990733 51.023432-30.081535 76.16038-45.72566 5.874641-3.655463 10.587696-9.377057 15.3086-14.621852 3.072708-3.416082 6.39657-8.050651 1.255768-12.100504zM184.181735 150.077399c-3.323861 2.323171-6.435812 5.189854-10.10501 6.637912-1.0831.425784-3.747683-3.151193-5.686275-4.893572 2.943206-2.399694 5.627411-5.338977 8.955197-6.945968 1.397042-.676937 4.155808 1.465717 6.294538 2.327096l.54155 2.874532z" fill="#f8b0b0"/>
    <path d="M646.016009 235.136075c-.967334 1.108608-1.891501 2.254496-2.825479 3.390574-14.63951 17.794628-29.284907 35.587294-43.93619 53.374074-2.0367 2.466407-4.330439 4.718942-7.642528 8.299843-.09222-1.88169-.084372-3.767304.023546-5.648995 2.364376-15.744194 5.015224-31.449145 7.097053-47.228658 1.538316-11.649212 2.584135-23.380835 3.296391-35.110495.151085-2.47818-2.099487-5.10352-3.243414-7.660186-2.287852 1.408815-5.364485 2.291777-6.71836 4.324552-4.88376 7.322698-9.176918 15.037825-13.713381 22.594017-8.31554 13.850732-16.377965 27.868244-25.133024 41.436428-2.703826 4.191126-7.312888 7.15003-11.05076 10.67403l-2.338869-1.249882c-.233494-4.26765-.204062-8.547073.088297-12.81276 1.179244-9.475164 3.23164-18.858107 4.055739-28.352892.251153-2.896116-2.346717-6.03946-3.639766-9.069002-2.058283 2.262345-4.87395 4.204862-5.996294 6.861596-1.685476 3.989027-2.183859 8.478398-3.374877 13.552487-5.052505-5.733367-8.060462-1.506922-11.409831 1.940554-10.92126 11.24305-21.789541 22.543002-32.961954 33.530974-3.353294 3.219868-7.16769 5.923694-11.31565 8.023181-4.554121 2.352604-9.80284 4.567857-13.674138-1.334253-3.3219-5.070164-1.862069-11.272482 3.268922-15.697103 15.112386-13.024671 25.629445-28.749244 29.284907-48.737542.916319-5.017187 1.314633-10.450347-3.647614-12.0593-3.881109-1.259692-9.100395.508194-13.366083 1.973911-2.223102.763272-4.002761 3.573053-5.417463 5.815777-6.239598 9.88525-12.273172 19.89804-18.58537 30.199263-8.831582-3.335634-12.186838 5.78242-17.886848 9.877402-6.196431 4.452091-11.635478 9.963736-18.26358 15.765778-3.849714-20.231603-14.319681-34.965297-28.564802-47.338538-.724029-.66124-1.38527-1.387231-1.979797-2.168162-5.06624-6.337705-5.54304-10.776061.46895-16.01497 7.518913-6.174847 15.410631-11.882706 23.630027-17.088258 2.831365-1.90916 7.326623-3.004033 4.715017-7.173576-1.016387-1.620726-6.420115-2.342793-8.472511-1.149813-10.163874 5.915846-19.874494 12.606736-29.088694 18.597143.12754-.655354.29432-1.30286.498383-1.93663 13.668252-44.193231 27.336505-88.386462 41.008681-132.57773 1.563824-4.373606 2.792123-8.859053 3.675085-13.4171.135387-2.28589-.873152-4.495257-2.690091-5.890337-2.219178-.355147-4.471713.453254-5.959013 2.13873-3.339559 4.81901-6.253333 9.918607-8.707968 15.241887-20.54947 44.976124-40.900764 90.040544-61.491438 134.999009-1.455906 3.178663-3.739835 7.061734-6.63595 8.31554-13.038406 5.647033-21.875875 15.389047-29.116164 27.089275-1.047782 1.518695-2.391846 2.809781-3.951746 3.796737-2.980487 2.044547-6.85571 3.223792-9.080774 5.84717-10.46408 12.334-20.308126 25.19385-30.758473 37.539622-4.773881 5.641146-10.434649 10.532756-15.693178 15.763816l-2.323172-1.240072c2.668508-13.636858 5.382145-27.263905 7.985902-40.912536 2.201518-11.529522 4.673812-23.035498 6.125794-34.663127.025508-3.516151-1.663893-6.832164-4.522728-8.876712-2.519385-1.314632-6.998946-.141274-10.063805 1.208677-3.08448 1.538316-5.770647 3.769267-7.850513 6.520184-9.953926 12.394825-19.656697 24.993712-29.430106 37.533735-1.50496 1.932706-2.90985 3.941935-4.361833 5.915846l-2.382035-1.120381c2.393808-7.809309 4.840594-15.600958 7.161803-23.43185 1.20279-4.049853 1.381345-7.98394-3.582863-9.698848-4.797428-1.658006-6.38676 1.322481-7.730824 5.305621-1.008538 3.45925-2.674394 6.69089-4.907306 9.520293-14.578685 16.56633-29.388901 32.93056-44.236398 49.25947-2.584136 2.305513-5.335053 4.412849-8.23313 6.306312.427745-5.733367.125576-9.18673 1.006576-12.304567 7.848551-27.770137 15.824642-55.502993 23.926309-83.200531 1.334254-4.591403 4.803313-9.981395-1.830675-12.349696-1.58737-.567058-6.977362 4.69932-7.980014 8.068311-8.931652 30.01286-17.455179 60.145412-25.568619 90.395691-1.104683 4.116565-.068675 9.26914 1.334254 13.487736 2.256459 6.775262 8.005522 8.796264 14.107771 4.930852 5.16631-3.253224 9.88525-7.163765 14.041059-11.635477 9.79303-10.640674 19.11907-21.713018 28.503976-32.722573 1.169434-1.75219 2.123033-3.639766 2.841176-5.619563l2.227026 2.075942c-.158933.949674-.300207 1.901311-.482686 2.8451-1.903273 9.859742-4.096943 19.676318-5.4881 29.604736-.290396 2.072017 2.374188 4.560008 3.677047 6.85571 2.158352-1.153738 4.23037-2.462484 6.196432-3.91839 1.036008-.87119 1.338178-2.576287 2.08379-3.839904 12.689145-21.526614 24.889719-43.398565 42.282109-61.691576 2.136768-1.997457 4.399113-3.859525 6.771337-5.574434l2.01904 1.240071c-1.004614 5.65292-1.997456 11.3078-3.015806 16.958758-3.21202 17.81425-6.798807 35.57356-9.355473 53.48003-.547436 3.839903 1.809091 10.972274 4.265688 11.69434 3.73591 1.096836 9.614475-.975182 12.993277-3.684894 6.059081-4.858253 11.064495-11.076268 16.279857-16.93325 7.61702-8.552959 15.031939-17.288396 23.416154-26.963698-.537626 2.586097-.939864 5.199665-1.208677 7.82893-.18248 5.017186-1.722757 10.715235 4.495257 13.462228 6.565314 2.902002 9.667454-2.438938 12.310453-6.469169 10.32477-15.744194 20.137421-31.823914 30.252242-47.705458 1.61484-2.535082 4.17543-6.82824 5.668616-6.577086 3.259111.77112 6.049271 2.880419 7.675883 5.80989a18.762912 18.762912 0 011.67959 11.588387c-10.001016 41.901454-20.54947 83.675369-30.601502 125.567012-3.769266 15.706913-6.785072 31.606116-9.694923 47.499433-.382617 2.085753 1.918971 4.66204 2.978526 7.01268 2.183859-1.40489 4.257839-2.9746 6.202317-4.695395.806439-1.232223 1.287163-2.648886 1.400967-4.118528 7.860324-35.118343 15.326259-70.328907 23.65161-105.33737 6.643798-27.925146 14.32753-55.603063 21.603137-83.598846 6.659496 7.165728 13.075687 12.95992 18.10857 19.776388 6.015915 7.954507 11.237164 16.481958 15.5833 25.458738 4.503106 9.6184 2.896115 18.304784-5.754951 26.371133-9.79303 9.069001-16.629118 20.883033-19.611568 33.89397-1.86403 8.111477 1.658007 16.636966 7.69158 19.929434 5.972748 3.25911 13.593692 1.585407 19.721448-5.236946 3.274808-3.296392 5.698048-7.340358 7.05781-11.7846 2.564514-11.374513 3.902692-23.019802 5.935467-34.521854.698521-3.95567.82606-8.92969 3.261073-11.492241 8.290033-8.725627 17.490497-16.582027 26.343663-24.77199l1.87188 1.663892c-2.199557 2.637114-4.232332 5.407652-6.086552 8.297881-1.09291 1.922895-2.32121 4.858254-1.601105 6.522147 2.270194 5.242832 5.85502 9.91272 8.156607 15.145742 3.961557 9.006212 9.973547 12.934412 19.177936 9.944114 6.308273-1.895425 12.171141-5.040732 17.23738-9.249518 14.356964-12.76763 27.987935-26.353473 41.985827-39.699935-.233495 3.70844-.720105 7.781839-.680862 11.851313.021583 4.16758.347298 8.327313.977145 12.447802 1.832636 11.60016 9.58308 14.82199 18.754113 7.416882 4.520766-3.759457 8.521565-8.101668 11.896442-12.914792 9.127865-12.704842 17.810325-25.731476 26.67134-38.628608l1.801242.43167c-.419897 4.297082-.506231 8.658915-1.318556 12.881436-3.33171 17.30998-7.391373 34.496345-10.16976 51.890697-1.693326 10.60928-6.347517 19.128882-12.56357 27.630826-18.349913 25.10163-37.315937 49.887355-53.71941 76.24279-24.456086 39.29181-42.961008 81.460115-51.092107 127.431043-1.728644 9.620362-1.962138 19.446749-.692635 29.137747 1.917009 13.797754 13.909595 18.552014 25.050614 10.195269 7.126485-5.182006 13.340575-11.513825 18.391118-18.736455 8.458777-12.29868 15.863885-25.289994 22.13684-38.836594 20.700554-46.439879 33.860613-95.465855 47.071687-144.372142 16.101303-59.613672 5.548926-40.390607 47.154097-91.567087 11.135132-13.695722 22.67054-27.069654 33.664399-40.875256 1.446095-1.81694 2.026888-6.270992.829984-7.862286-2.945169-3.912503-5.937429-1.09291-8.3332 1.650158zm-162.869215-5.74514c-3.133534 14.119544-8.219396 25.3312-19.225027 35.010426 2.85491-14.190181 8.303768-25.20366 19.225027-35.010426zm-173.34507 38.693359l-2.86472-1.956252 16.813559-27.363974 2.574325 1.534392-16.523163 27.785834zm52.15755-42.138873c-8.968933-3.251262-11.321536-8.066349-7.713164-15.463608 8.666762-17.77697 17.43948-35.504885 26.170994-53.252422l1.493187.659279-19.951018 68.056751zm38.605062 114.327887c-1.775735 2.525271-6.298463 3.119799-9.561498 4.601213-.2021-3.109989-1.208677-6.429926-.466989-9.29661 2.76269-10.660294 8.947349-19.31136 18.147813-27.964388.951637 13.00505-1.687438 23.50445-8.119326 32.657823v.001962zm160.881569 33.772316c-11.827767 43.932267-23.73402 87.89789-41.862211 129.732631-7.358017 16.984265-17.02547 32.997273-26.143525 49.169213-2.825478 4.587478-6.414229 8.656952-10.613204 12.033791-2.06613 1.769849-6.235674 3.117837-8.386177 2.187784-2.574325-1.665855-4.16758-4.495258-4.259801-7.560117.977145-12.369317 1.34014-25.054539 4.508993-36.937245 16.381889-61.436499 45.876745-116.268441 85.694408-165.677035 1.344065-1.667817 2.517423-3.472984 3.769267-5.215362l2.105374 1.281276c-1.591294 6.996984-2.949093 14.058718-4.813124 20.983102v.001962z" fill="#fff"/>
    <path d="M145.419702 331.1062c-4.870026-3.83598-7.823044.87315-10.984048 3.861487-5.136877 4.858253-9.851894 10.452308-15.732421 14.178408-20.261036 12.842192-40.887029 25.119289-61.526757 37.353218-5.564623 2.90985-11.272482 5.537153-17.100031 7.872097-.180517-3.518113-.162858-7.042112.049053-10.558263 3.620144-27.67988 7.206932-55.365644 11.091965-83.010204C62.562544 220.066856 74.105801 139.35824 85.382208 58.614305c1.291086-9.220086 1.85422-18.524544 1.687438-27.832926-.674975-3.312088-3.005995-6.05712-6.167-7.25991-4.64438-.802514-5.576395 3.465136-5.515569 7.522837.221722 3.91839.156971 7.84659-.198176 11.753206-7.463972 55.816935-14.663056 111.673114-22.701934 167.409601-8.38814 58.155804-17.655317 116.187994-26.422149 174.29082-1.191018 7.901529-1.546164 16.16213 5.970786 21.426545 7.193197 5.03877 14.351076 1.332292 20.65935-2.370262 25.535261-14.990734 51.023432-30.081536 76.16038-45.727623 5.87464-3.655463 10.587696-9.377057 15.3086-14.621851 3.072707-3.41412 6.396569-8.04869 1.255768-12.098542zM178.295322 146.153123c-3.323862 2.323171-6.435813 5.189855-10.10501 6.637912-1.0831.425784-3.747684-3.151193-5.686276-4.893571 2.943207-2.399695 5.627411-5.338977 8.955197-6.945968 1.397042-.676938 4.155808 1.465717 6.294539 2.327095l.54155 2.874532z" fill="#fff"/>
  </g>
</svg>
