<svg viewBox="0 0 391 317" xmlns="http://www.w3.org/2000/svg" fill-rule="evenodd" clip-rule="evenodd" stroke-linejoin="round" stroke-miterlimit="2">
  <g fill="#f8b0b0">
    <path d="M28.30002 3.59655c.64257-1.4441 1.52864-2.34821 2.43952-2.8803 1.1104-.64709 2.48123-.92553 4.14628-.55577.03044.00676.05975.01352.09019.02142 2.23322.55802 3.95013 2.23885 3.95013 5.77638 0 1.43508-.1443 2.48123-.32805 3.1486-1.35053 5.55093-2.5951 11.45583-3.73369 17.71471-1.13972 6.27129-1.8612 10.13348-2.16445 11.58773-.43628 2.68527-1.0518 6.0864-1.84543 10.19886l-5.19469 27.05568c-2.73938 14.273-4.75841 24.94196-6.05709 32.01589-.7801 4.18123-1.45198 8.78746-2.01903 13.81981-.57606 5.11015-1.11604 10.11432-1.61657 14.97758l-.32805 3.4992c-1.22202 11.70947-2.19151 23.56324-2.90849 35.53764-.21306 3.98169-.31903 8.21252-.31903 12.69136 0 3.98846.10597 8.22493.32016 12.71166.00225.05637.0045.1116.0045.16685 0 .34383.01804 1.06419.05186 2.16332.02255.70796.12514 1.34152.3461 1.8939l.00901.01804c.16459-.00338.31565-.08117.47347-.17924.61552-.38104 1.17467-.7756 1.67295-1.18707.66962-.55126 1.16226-.94357 1.46551-1.17016 0 0 11.57983-8.76604 11.53023-8.72771 2.02918-1.59516 5.2364-4.05948 9.62168-7.39297 4.33905-3.29966 8.12121-6.23971 11.33971-8.81451 2.65033-2.13515 5.81472-4.49124 9.43567-7.02546l4.43713-3.24668a3.2268 3.2268 0 01.23336-.15557c1.00782-.62116 1.87698-1.09463 2.60185-1.42832 1.72593-1.00331 3.16213-1.36405 4.21054-1.36405 1.9311 0 3.57248.87029 4.64569 3.01783.35397.70796.5862 1.58389.5862 2.64695 0 1.68196-.83083 3.66266-3.21624 5.4878-7.96565 6.08188-13.93931 10.572-17.95483 13.49176-2.2118 1.56923-6.34906 4.74602-12.40728 9.52134-5.1947 4.11247-7.79204 6.1687-7.80218 6.17659-1.04165.81843-1.8736 1.43508-2.48349 1.8691l-.01804.01803.01804-.01803-.40696.28634.03495.0417c-4.58369 3.49244-8.25875 6.22056-11.02407 8.18548-.07327.05185-.1488.10146-.22659.14768-1.71465 1.02924-3.47553 1.79807-5.27586 2.31213-.0913.02593-.18262.04847-.27506.06651-1.04728.20968-1.78342.28521-2.20166.28521-2.23998 0-4.25901-.69443-6.05145-2.09456-1.66054-1.29754-2.90623-3.10238-3.64688-5.472-.87706-2.48237-1.45424-4.98389-1.73495-7.5057-.25928-2.33581-.46558-5.61631-.61439-9.8415-.00112-.0406-.00225-.0823-.00225-.12289 0-1.60192-.02931-2.80364-.09582-3.60517a3.44461 3.44461 0 01-.00677-.48249s.4329-7.90026.43064-7.86531c.5817-13.01604 1.31107-23.34116 2.18587-30.9934.5693-4.77195.96273-8.54735 1.1758-11.32507a2.65724 2.65724 0 01.01352-.13302c.21532-1.87473.5941-5.1913 1.13522-9.95085.5445-4.78773 1.06982-9.0693 1.58163-12.86723 1.95928-13.78487 4.60623-28.40509 7.93971-43.83922.93568-4.45968 2.04947-10.03315 3.338-16.6866.94356-5.15185 1.7417-9.32406 2.38879-12.48957 3.15198-16.0429 5.55768-28.03758 7.2171-35.98518.13077-1.4024.48587-2.43502.88833-3.14748zM13.67304 214.28702c-.72148.1443-1.22652.21644-1.51512.21644-1.44297 0-2.74164-.45092-3.89602-1.35278-1.15437-.90186-1.98408-2.1825-2.48912-3.8419-.79363-2.2366-1.3167-4.49125-1.56923-6.76393-.25252-2.27267-.45093-5.46524-.59522-9.5777 0-1.73157-.03608-3.03024-.10823-3.89602l.4329-7.90026c.57718-12.91458 1.29867-23.15967 2.16445-30.73526.57719-4.83394.974-8.65781 1.19045-11.4716.21644-1.87586.59522-5.1947 1.13634-9.9565.54111-4.7618 1.06419-9.01855 1.56923-12.77028 1.948-13.7082 4.58143-28.24612 7.90026-43.61375.93793-4.4732 2.05623-10.06471 3.3549-16.77452.93793-5.12254 1.73156-9.27108 2.3809-12.44562 3.17453-16.16126 5.5915-28.21005 7.25092-36.14638.07215-1.01008.25252-1.6955.54112-2.05624.28859-.72148.64933-1.20848 1.08222-1.461.4329-.25252.974-.30663 1.62334-.16234.86579.21645 1.29868 1.01008 1.29868 2.3809 0 1.08223-.07215 1.83979-.21645 2.27268-1.37082 5.62758-2.63342 11.6159-3.7878 17.96497-1.15437 6.34907-1.87585 10.20901-2.16445 11.57983-.43289 2.6695-1.04615 6.06048-1.83978 10.17294l-5.1947 27.05568c-2.74164 14.2854-4.7618 24.96337-6.06047 32.03392-.79363 4.25676-1.47904 8.94642-2.05623 14.06896-.57719 5.12254-1.1183 10.13686-1.62334 15.04296l-.32467 3.46312c-1.22652 11.7602-2.20053 23.6647-2.92201 35.7135-.21645 4.04031-.32467 8.33315-.32467 12.8785 0 4.04032.10822 8.33315.32467 12.8785 0 .36075.01804 1.1183.05411 2.27268.03607 1.15438.23448 2.1825.59522 3.08435.36075.90186.93794 1.53316 1.73157 1.8939.50504.21645 1.01008.32467 1.51512.32467.79363 0 1.56923-.23448 2.32678-.70345.75756-.46896 1.44297-.95597 2.05624-1.461.61326-.50505 1.06419-.86579 1.35278-1.08223l11.57983-8.76604c2.02016-1.58727 5.21273-4.04032 9.57771-7.35915 4.36499-3.31883 8.17082-6.27692 11.4175-8.87426 2.59734-2.0923 5.69973-4.40106 9.30715-6.92626l4.43713-3.24668c.93793-.57719 1.73157-1.01008 2.3809-1.29867 1.08223-.64934 1.94801-.974 2.59735-.974s1.15438.36074 1.51512 1.08222c.1443.2886.21644.64934.21644 1.08223 0 .86578-.61326 1.76764-1.83978 2.70557-7.93634 6.06047-13.88859 10.53368-17.85675 13.41961-2.2366 1.58727-6.42122 4.79788-12.55384 9.63183l-7.79203 6.1687c-2.02016 1.58726-2.9581 2.30874-2.8138 2.16445-4.54535 3.46312-8.18885 6.1687-10.93049 8.1167-1.44297.86578-2.92201 1.51512-4.43713 1.948zm18.76311-9.21697c-.06764.27169-.16797.53548-.30099.788-.1319.25139-.29761.48925-.49602.70795.5614-.611.73276-1.1724.79701-1.49595z"/>
    <path d="M98.37986 132.8652c1.30995-1.57486 2.90285-2.27154 4.68515-2.27154 1.22427 0 2.3561.38328 3.33912 1.17015 1.65378 1.28628 2.32566 2.84085 2.32566 4.49463 0 .97738-.32805 2.29184-1.30544 3.82725l.04848-.07891c-.5366.89509-.99204 1.56134-1.34264 1.99986-5.91505 7.4482-11.01053 13.45344-15.28195 18.01796-4.93428 5.27022-9.12002 7.97804-12.24044 8.56876-.0248.0045-.0496.00902-.07553.0124-1.17016.19615-1.9063.26492-2.19828.26492-2.18249 0-3.89376-.72261-5.2037-1.9886-1.55232-1.50158-2.62553-4.03467-2.62553-7.78865 0-2.84197.8004-7.57333 2.49476-14.1986 1.59966-6.10556 3.28952-12.08374 5.07068-17.93453 1.8736-6.15855 3.30756-10.06696 4.23083-11.7602 1.02474-1.86233 2.36061-2.83972 3.71903-3.24894 1.09125-.32917 2.2738-.32805 3.54317.1195l.09131.03382c2.37752.91426 3.6514 2.68753 3.6514 5.43143 0 1.09688-.23562 2.61313-.78462 4.53295a4.02031 4.02031 0 01-.0327.10935c-.64708 2.01114-1.97506 6.3547-3.98507 13.03295-.00113.00113-.00113.00225-.00113.00338 0 0-4.54535 15.04296-4.56339 15.10158-.24463.75868-.47573 1.49933-.69105 2.22195 4.31087-4.47885 8.98249-9.81445 14.0216-16.00682 1.32574-1.62109 2.36287-2.84197 3.11028-3.66605zm-20.42252 32.2887c-.86579.1443-1.4069.21645-1.62335.21645-2.88593 0-4.3289-2.0923-4.3289-6.27692 0-2.6695.79363-7.10662 2.3809-13.3114 1.58726-6.06046 3.26471-11.99468 5.03235-17.80263s3.08435-9.50556 3.95013-11.09283c.79363-1.44297 1.80371-1.948 3.03024-1.51512.93793.36075 1.4069 1.08223 1.4069 2.16446 0 .86578-.21645 2.05623-.64934 3.57135-.64934 2.02015-1.98409 6.38514-4.00424 13.09495l-4.54536 15.04295c-.64933 2.02016-1.20849 3.91406-1.67745 5.6817-.46897 1.76764-.70345 3.04827-.70345 3.8419 0 .93793.2886 1.4069.86578 1.4069.93793 0 2.41698-.974 4.43714-2.92201 4.97824-4.97825 10.46153-11.14694 16.44985-18.50609 1.29867-1.58727 2.30875-2.77772 3.03024-3.57135.57718-.72148 1.2626-1.08223 2.05623-1.08223.43289 0 .8297.1443 1.19045.4329.64933.50503.974 1.08222.974 1.73156 0 .50504-.25252 1.15437-.75756 1.948-.43289.7215-.79363 1.2626-1.08223 1.62335-5.84402 7.35914-10.87638 13.29336-15.09706 17.80264-4.2207 4.50928-7.66578 7.01644-10.33527 7.52147zm16.81172-64.91672c.0293.00902.05862.01578.08793.02368 1.28289.32128 3.43382.05185 5.75835-2.2738 1.82739-1.8274 2.55902-3.51725 2.68528-4.7776.01127-.1161.01803-.23222.01803-.34833 0-1.47905-.47798-2.62891-1.23441-3.51611-.92666-1.08787-2.4384-1.93223-4.75504-1.93223-2.80251 0-4.6254.94582-5.69747 2.1825-.90975 1.04953-1.44184 2.41358-1.37082 4.16318l-.00339-.13978c0 3.81597 1.76426 5.8553 4.51154 6.6185zm.9368-3.37181c-1.29867-.36074-1.948-1.44297-1.948-3.24668-.07216-1.80372 1.1183-2.70557 3.57134-2.70557 1.65942 0 2.48913.64933 2.48913 1.948-.07215.7215-.6313 1.60531-1.67746 2.65146-1.04615 1.04616-1.85782 1.49709-2.435 1.35279z"/>
    <path d="M107.85837 129.50015l.95822-5.4303c.01466-.08004.03157-.16008.05186-.24011.48813-1.95252 1.32347-3.33236 2.29973-4.24775 1.57149-1.4734 3.42142-1.89953 5.5746-1.13972 2.82506.90975 4.10795 2.80365 4.10795 5.47878 0 .10033-.09244.91313-.39343 2.4181l-1.61996 8.0423c.3799-.33481.71134-.63355.9943-.89847.01803-.01691.03607-.0327.05524-.0496 1.55344-1.39 3.94562-2.89496 7.15284-4.41797 1.4069-.70345 2.76532-1.0191 4.05497-1.0191 2.97387 0 5.45285 1.5309 7.00404 5.15185.01127.02593.02255.05186.0327.07891.6313 1.57713 1.27612 3.85995 1.88938 6.7752l.10146.4374.2232-.11048c3.37746-1.55345 6.18561-3.11591 8.41545-4.70318 1.99987-1.4238 3.66267-3.2309 4.95908-5.35139 1.31671-2.2569 3.06293-3.03587 4.75504-3.03587 1.27162 0 2.20053.34496 2.85325.76432 1.26147.77673 2.0427 1.77666 2.46995 2.88594.42951 1.1183.52083 2.40683.09019 3.86784a3.09833 3.09833 0 01-.10822.31227c-1.0811 2.70444-2.46996 4.799-4.12148 6.35808-3.97268 3.66717-8.8551 6.96346-14.66193 9.8663-1.97506.98754-3.90842 1.452-5.7854 1.452-2.32454 0-4.3988-.71924-6.22507-2.1577-1.61995-1.27612-2.96936-3.10802-3.95125-5.5622-.0248-.06312-.04848-.1285-.07102-.19277-.16346-.49376-.4498-1.4486-.85564-2.86564-2.8431 2.06976-5.66704 4.6299-8.48083 7.67254-.42612.49602-1.18256 1.2795-2.2817 2.34031-.74966.72374-1.34489 1.4644-1.762 2.23886-1.2423 2.54323-3.22075 3.72128-5.80907 3.72128-1.07096 0-1.91983-.20742-2.56917-.50053-2.37864-.97964-3.74495-2.8803-3.74495-5.9218 0-.09696.0045-.1939.0124-.29086l.10822-1.29867c.00564-.06764.01353-.1364.02255-.20404.44529-3.11704 1.05742-6.40205 1.8364-9.8539.7429-3.28727 1.23329-5.37394 1.47003-6.25889l.94807-4.11134zm.726 24.72326c-1.08223-.4329-1.62335-1.33475-1.62335-2.70557l.10823-1.29867c.43289-3.03024 1.02811-6.2228 1.78567-9.57771.75756-3.3549 1.24456-5.42917 1.461-6.2228l.97401-4.2207.974-5.51935c.2886-1.15438.7215-2.00212 1.29868-2.54324.57719-.54111 1.2626-.66737 2.05623-.37878 1.15438.36075 1.73157 1.08223 1.73157 2.16446 0 .07215-.10823.64933-.32467 1.73156l-3.03024 15.04296c-.07215.2886-.09018.6313-.05411 1.02812.03607.39681.01804.88381-.05411 1.461l3.03023-2.59734c2.45305-2.02016 4.2207-3.53528 5.30292-4.54536 1.37082-1.22652 3.4992-2.5252 6.38514-3.89602.86578-.43289 1.69549-.64933 2.48912-.64933 1.65942 0 2.92201 1.01008 3.7878 3.03023.57718 1.44297 1.15437 3.53528 1.73156 6.27692.2886 1.22653.6313 2.11035 1.02812 2.65146.39681.54111.91989.81167 1.56923.81167.72148 0 1.58726-.25252 2.59734-.75756 3.60742-1.65941 6.60159-3.33687 8.98249-5.03236 2.3809-1.69549 4.36498-3.8419 5.95225-6.43925.50504-.86578 1.08222-1.29867 1.73156-1.29867.43289 0 .75756.07215.974.21644 1.08223.64934 1.44297 1.58727 1.08223 2.8138-.86578 2.16445-1.948 3.85994-3.24668 5.08646-3.75172 3.46313-8.36922 6.56552-13.8525 9.30716-1.44298.72148-2.84987 1.08222-4.2207 1.08222-1.51511 0-2.8679-.46896-4.05835-1.4069-1.19045-.93792-2.14641-2.30874-2.8679-4.11245-.21644-.64934-.64934-2.12838-1.29867-4.43714-.07215-1.01007-.2886-1.98408-.64934-2.922-4.4732 2.52519-8.91034 6.16869-13.3114 10.93049-.36073.43289-1.06418 1.15437-2.11034 2.16445-1.04615 1.01008-1.85782 2.05623-2.435 3.13846-.5772 1.22652-1.47905 1.83979-2.70557 1.83979-.50504 0-.90186-.07215-1.19045-.21645z"/>
    <path d="M185.21845 109.48346c.22885-.32918.45544-.77221.7057-1.31445l.0992-.19841c3.8126-7.05139 7.23064-13.49064 10.2496-19.31212 2.29748-4.45066 3.66154-7.10663 4.1136-8.01074 4.41796-8.54621 8.18434-15.64382 11.30476-21.3041 1.39111-2.5049 2.98627-5.98606 4.79449-10.4401.03495-.08342.07215-.16572.11273-.24688.33143-.66287.75756-1.65716 1.2874-2.98177.0124-.03043.0248-.062.03833-.0913 1.14874-2.65147 2.22758-4.42812 3.11028-5.39987l-.08117.09357c1.63687-1.93449 3.41578-2.64695 5.05265-2.64695 1.31445 0 2.43726.39569 3.38647 1.12506 1.87473 1.3742 2.60298 3.04151 2.60298 4.75617 0 .90862-.19841 1.82175-.63017 2.73037-.19841.46558-.45657 1.13408-.77898 2.00212-.41035 1.10815-.82295 2.07201-1.24344 2.91186-2.30762 4.54761-4.2669 9.12904-5.87559 13.74542-1.64701 4.72572-3.68746 11.13566-6.12135 19.22531-.21531.71472-.41147 1.37646-.59071 1.98409-.177.60424-.33707 1.15437-.49715 1.71127-1.28965 4.2297-2.47334 8.26325-3.5488 12.0984-1.089 3.887-2.14304 7.50118-3.13733 10.76477-1.37533 4.92414-2.60637 9.23163-3.69198 12.92135-2.0754 7.08407-4.32778 16.06656-6.7594 26.93843a2684.43224 2684.43224 0 00-7.13369 33.07445l-3.57586 16.5795.01804-.09358c-.32016 1.70902-.74629 2.85889-1.11943 3.4992-.80603 1.38097-2.26366 2.45305-4.75165 2.27606-2.64357-.04734-4.10908-1.30543-4.83395-2.96147-.37202-.85112-.66625-2.063-.77222-3.65815-.00225-.03156-.00338-.062-.0045-.09357-.0823-2.04045.04058-4.0606.3675-6.06047.29987-1.84204.78462-4.03806 1.45763-6.58693l.84098-3.78329s1.4069-6.81803 1.40238-6.79774c.43515-2.17121 1.33926-6.49561 2.71459-12.9732 1.37871-6.49787 2.72248-12.39713 4.03242-17.70794 2.11824-8.4718 4.12261-16.22551 6.01764-23.26337-.20968.17699-.4374.34721-.6809.50955-.66963.44754-1.21075.93229-1.59065 1.49144-.51068.7508-.94695 1.50046-1.3077 2.25126-.38441.8004-.6437 1.35955-.7722 1.6797l-.08794.20292c-4.22858 8.89569-7.54853 15.49276-9.95423 19.79349-1.4114 2.5252-3.0821 5.2364-5.0132 8.13361-.05073.07553-.10371.14994-.16008.22096-.98753 1.25696-1.94011 2.23322-2.83859 2.95132a3.36405 3.36405 0 01-.38554.2683c-1.71691 1.03037-3.3425 1.47341-4.83057 1.47341-2.187 0-3.96365-.90186-5.29164-2.77546-.96611-1.36406-1.56359-3.20835-1.56359-5.5949 0-3.64913.8376-7.9397 2.58269-12.86046 3.26697-9.19104 7.72665-16.92896 13.3114-23.19235 1.52977-1.77102 3.0043-3.21512 4.41232-4.34131 1.64476-1.31558 3.49582-2.21857 5.55431-2.70444l.05411-.01804zm-2.50152 92.89906c-.93793 0-1.53316-.2886-1.78568-.86578-.25252-.57719-.41485-1.4069-.487-2.48912-.07215-1.80372.03608-3.5894.32467-5.35703.2886-1.76764.75756-3.87798 1.4069-6.33103l.86578-3.89602 1.4069-6.81803c.43288-2.16445 1.33474-6.47532 2.70556-12.93261 1.37082-6.4573 2.70557-12.31936 4.00424-17.5862 5.33899-21.35594 9.9565-38.13047 13.8525-50.32356.5772-1.73156 1.29868-4.25676 2.16446-7.57559-.72148.36074-1.28063.79363-1.67745 1.29867-.39682.50504-.72148 1.01008-.974 1.51512-.25252.50504-.45093.86578-.59523 1.08223l-2.27268 4.3289c-2.59734 5.26685-5.23076 10.28117-7.90025 15.04297-.4329.79363-.72149 2.05623-.86579 3.78779-.1443 1.22652-.30663 2.14642-.487 2.75968-.18037.61326-.59522 1.13634-1.24456 1.56923-1.08223.72148-1.92997 1.53315-2.54323 2.43501-.61327.90186-1.13634 1.80371-1.56923 2.70557-.4329.90185-.72149 1.53315-.86578 1.8939-4.18462 8.80211-7.46737 15.33155-9.84827 19.5883-1.37082 2.45306-2.99416 5.08648-4.87002 7.90027-.79364 1.01008-1.5512 1.8037-2.27268 2.3809-1.08223.64933-2.0923.974-3.03024.974-1.01008 0-1.82175-.43289-2.435-1.29867-.61327-.86578-.9199-2.05623-.9199-3.57135 0-3.31883.79363-7.21485 2.3809-11.68805 3.10238-8.72997 7.32307-16.08912 12.66206-22.07744 1.37082-1.58727 2.68753-2.88594 3.95013-3.89602 1.2626-1.01008 2.68753-1.69549 4.2748-2.05623.79363-.21644 1.38885-.57719 1.78567-1.08223.39681-.50504.81167-1.22652 1.24456-2.16445 3.82387-7.07055 7.25092-13.52784 10.28116-19.37187 2.30875-4.4732 3.67957-7.1427 4.11246-8.00848 4.40106-8.51352 8.15278-15.58407 11.25516-21.21165 1.44297-2.59735 3.10239-6.20477 4.97825-10.82227.36074-.72149.8297-1.80372 1.4069-3.24669.93792-2.16445 1.76763-3.6435 2.48912-4.43713.79363-.93793 1.58726-1.4069 2.3809-1.4069.50504 0 .93793.1443 1.29867.4329.79363.57719 1.19045 1.22652 1.19045 1.948 0 .4329-.10822.86579-.32467 1.29868-.21644.50504-.50504 1.24456-.86578 2.21857-.36074.974-.72149 1.82174-1.08223 2.54323-2.3809 4.68965-4.40106 9.41538-6.06047 14.17718-1.65942 4.7618-3.71565 11.21908-6.1687 19.37186-.21644.72149-.41485 1.38886-.59522 2.00212-.18037.61327-.3427 1.17242-.487 1.67746-1.29868 4.25676-2.48913 8.3151-3.57135 12.17505-1.08223 3.85994-2.12838 7.44933-3.13846 10.76816-1.37082 4.9061-2.59735 9.19893-3.67957 12.8785-2.09231 7.1427-4.36499 16.19734-6.81803 27.1639-2.45305 11.03873-4.83395 22.07744-7.1427 33.11616l-3.57135 16.55808c-.21645 1.15437-.45093 1.948-.70345 2.3809-.25252.43289-.7756.61326-1.56923.54111zm-14.39362-52.92091c2.3809-3.82387 4.73474-8.04456 7.06153-12.66206s4.62652-9.63182 6.8992-15.04296c-7.1427 6.78196-11.79628 16.01697-13.96073 27.70502z"/>
    <path d="M222.7785 109.90733c1.23892-.47573 2.3234-.60537 3.23428-.52082 1.92208.04171 3.34589.64596 4.3616 1.52076 1.18707 1.0236 1.9683 2.49476 2.0506 4.54084a2.8919 2.8919 0 01.00338.13979c0 1.8815-.67865 3.34701-1.87699 4.45855-1.21187 1.12506-2.74164 1.68985-4.60848 1.51963-1.0811-.0868-2.02918.0248-2.82958.43627-1.16565.5986-2.6988 1.57825-4.63892 2.94456l2.30312 4.50252c1.93222 3.71564 3.64688 7.21372 5.14396 10.49534l10.8899-10.24057c.11387-.1071.23562-.20743.363-.29761 1.1758-.83986 2.37414-1.19383 3.54994-1.19383 1.24907 0 2.54436.42161 3.7923 1.49257 1.42944 1.22427 1.9807 2.63454 1.9807 4.06399 0 1.43733-.48475 2.71684-1.5061 3.81372-.76094.9368-2.63793 2.81717-5.65013 5.54641-2.46093 2.32905-3.84303 3.64012-4.10908 3.97268-.01465.01916-.0293.0372-.04396.05524-.30776.36863-.61552.76883-.92328 1.2006-.43627.611-.95258 1.22426-1.55344 1.83527-1.66956 1.9514-2.55564 4.03806-2.55564 6.30285 0 .39456.062 1.03037.17135 1.9063.1567.75755.26154 1.85218.26154 3.28839 0 4.75503-1.74509 9.4988-5.35364 14.11292-.99204 1.32122-2.23097 2.33919-3.71677 3.05503-1.48807.71698-2.95358 1.05067-4.3864 1.05067-2.67175 0-4.66147-1.00896-6.06386-2.81267-1.1758-1.51173-1.8736-3.52287-1.8736-6.0988 0-.9616.05974-1.73043.15782-2.31777.73727-4.3413 2.44854-8.39966 5.13269-12.1401 1.40351-1.99875 2.17685-3.94337 2.17685-5.888 0-1.47453-.38441-2.91863-1.12168-4.3413-.01466-.02707-.02819-.05525-.04171-.0823 0 0-7.1427-14.7183-7.14608-14.72506-1.27613-2.64244-1.86346-5.07068-1.86346-7.25768 0-4.32215 2.23773-7.94536 7.12015-10.53594 2.37413-1.30205 5.42692-2.57592 9.16962-3.80245zm-5.64675 66.50174c-1.44297 0-2.54323-.487-3.30079-1.461-.75756-.97401-1.13634-2.29072-1.13634-3.95014 0-.72148.03608-1.29867.10822-1.73156.64934-3.82387 2.16446-7.39522 4.54536-10.71405 1.87586-2.6695 2.81379-5.30291 2.81379-7.90026 0-2.02016-.50504-4.00424-1.51512-5.95225l-7.1427-14.71829c-1.01008-2.0923-1.51512-4.00424-1.51512-5.7358 0-3.10239 1.76764-5.59151 5.30292-7.46737 2.2366-1.22653 5.12254-2.41698 8.65781-3.57135.72149-.2886 1.33475-.39682 1.8398-.32467 2.02015 0 3.0663.90186 3.13845 2.70557 0 .79363-.25252 1.42493-.75756 1.8939-.50504.46896-1.15437.66737-1.948.59522-1.80372-.1443-3.37295.12626-4.7077.81167-1.33474.68541-3.12042 1.82175-5.35702 3.40902-.93793.64933-1.4069 1.4069-1.4069 2.27267 0 .50504.18037 1.1183.54112 1.8398l2.3809 4.65357c2.81379 5.41113 5.15861 10.3533 7.03447 14.82651l14.50185-13.63606c.50504-.36074 1.01008-.54112 1.51512-.54112.50504 0 1.01008.21645 1.51511.64934.50504.4329.75756.90186.75756 1.4069 0 .57718-.21644 1.08222-.64933 1.51511-.50504.72149-2.30875 2.48913-5.41114 5.30292-2.6695 2.5252-4.14854 3.96816-4.43713 4.3289-.36074.4329-.72148.90186-1.08223 1.4069-.36074.50504-.79363 1.01008-1.29867 1.51512-2.30875 2.6695-3.46313 5.55543-3.46313 8.65782 0 .50504.07215 1.33474.21645 2.48912.1443.57719.21644 1.47904.21644 2.70557 0 4.04031-1.55119 8.04455-4.65357 12.01272-.64934.86578-1.46101 1.53315-2.43501 2.00212-.974.46896-1.92998.70345-2.8679.70345zm1.94801-6.81803c2.16446-1.22653 3.24668-3.7878 3.24668-7.68382 0-.86578-.03607-1.6053-.10822-2.21856-.07215-.61327-.1443-.99204-.21644-1.13634-1.15438 1.58727-2.16446 3.40901-3.03024 5.46525-.86578 2.05623-1.29867 3.62546-1.29867 4.70768 0 1.08223.46896 1.37083 1.4069.86579z"/>
    <path d="M276.71062 137.77581l.4498-.63017c.0417-.05637.08342-.11273.12851-.16684 2.17122-2.68303 4.32553-3.57135 5.85868-3.57135 1.37759 0 2.70106.49376 3.88137 1.6752 1.41365 1.41253 1.99986 2.96034 1.99986 4.5307 0 1.17353-.4622 2.82844-1.75298 4.8238-.03608.05636-.07553.11273-.11612.16797-2.51505 3.43043-6.14163 7.1596-10.90569 11.1616-4.82267 4.05158-9.1031 6.86086-12.80748 8.48082l-.00677.00338c-2.13401.92779-4.2252 1.37308-6.26564 1.37308-3.96591 0-7.36478-1.5185-10.16955-4.613-2.59284-2.86113-4.02566-7.05364-3.9366-12.68686.00338-.19728.02367-.39343.05974-.58733 1.2998-6.9567 3.24894-12.85596 5.81021-17.71132 2.736-5.18568 7.1303-9.36916 13.19077-12.43885 1.58163-.84437 3.31996-1.27838 5.21837-1.27838 2.15318 0 3.9986.65722 5.5543 1.91419 1.4362 1.16 2.53083 2.7608 3.1937 4.861.03833.12062.0699.2435.0947.3675.20968 1.04616.2852 1.78343.2852 2.20166 0 1.0191-.28295 2.46432-.99655 4.29847l-.03494.0868c-1.6797 3.99974-3.86671 7.45385-6.54635 10.37248-2.63455 2.87015-5.87108 5.45397-9.70622 7.72327-.93343.56028-2.00212 1.03488-3.13734 1.3866.04171.60988.12514 1.15325.26492 1.62898.17474.59973.487.98077 1.07209.98077.7474 0 1.56697-.17023 2.46432-.46897l.08455-.02705c2.25576-.68992 4.91962-2.48687 8.084-5.2443 3.45186-3.00769 6.3502-5.87672 8.68714-8.61385zm-14.66644 23.26563c-1.65941.72149-3.28275 1.08223-4.87002 1.08223-2.95809 0-5.48328-1.15438-7.57559-3.46313-2.0923-2.30875-3.10239-5.7358-3.03024-10.28116 1.22653-6.5655 3.04828-12.13898 5.46525-16.7204 2.41697-4.58144 6.33103-8.24297 11.74217-10.98461 1.08222-.5772 2.27267-.86579 3.57135-.86579 1.29867 0 2.41697.37878 3.3549 1.13634.93793.75756 1.62334 1.82175 2.05623 3.19257.1443.72149.21645 1.22653.21645 1.51512 0 .72149-.25252 1.73157-.75756 3.03024-1.51512 3.60742-3.48117 6.72784-5.89814 9.36126-2.41697 2.63342-5.3931 4.99629-8.92837 7.0886-.72149.43288-1.5512.79362-2.48913 1.08222-.86578.2886-1.47904.55915-1.83978.81167-.36075.25252-.54112.73952-.54112 1.461 0 4.7618 1.62334 7.1427 4.87003 7.1427 1.08222 0 2.27267-.21644 3.57135-.64933 2.59734-.79363 5.71776-2.77772 9.36126-5.95225 3.6435-3.17453 6.69177-6.20477 9.14482-9.0907l.54111-.75757c1.22653-1.51512 2.27268-2.27268 3.13846-2.27268.50504 0 .974.21645 1.4069.64934.64933.64934.974 1.33475.974 2.05623 0 .72149-.39681 1.6955-1.19045 2.92202-2.3809 3.24668-5.82599 6.76392-10.33527 10.55171-4.50928 3.7878-8.49548 6.43925-11.9586 7.95437zm-7.46737-20.12942c5.12255-2.8138 9.16286-6.81804 12.12095-12.01273.07215-.21644.27056-.55915.59522-1.02811.32467-.46897.487-.9199.487-1.35279 0-.2886-.18036-.61326-.5411-.974-.2886-.2886-.68542-.4329-1.19046-.4329-.57718 0-1.19045.2345-1.83978.70346-.64934.46896-1.44297 1.1724-2.3809 2.11034-1.94801 2.2366-3.53528 4.34694-4.7618 6.33103-1.22653 1.98408-2.05623 4.20265-2.48913 6.6557z"/>
    <path d="M295.06113 164.2622c4.61863-3.45073 8.7559-7.24416 12.41067-11.38143 3.78328-4.28381 8.60145-10.24621 14.46238-17.8962 8.75026-11.33182 15.45782-20.40337 20.1238-27.22365.92327-1.34264 1.66843-2.29974 2.21405-2.8882.73389-.79025 1.6549-1.48242 2.78448-2.04721.10935-.05524.22208-.10371.33707-.14655 1.01233-.37991 1.96605-.54788 2.85212-.54788 1.65829 0 3.05955.56028 4.22069 1.63912.9785.9075 1.69661 2.14755 2.00775 3.79118.1116.44078.1939 1.02135.1939 1.7496 0 .61439-.07666 1.53767-.25365 2.77546-.65948 4.54761-1.52075 9.29588-2.58494 14.24707-1.05968 4.93428-1.70113 7.84051-1.91983 8.71757l.02142-.09019s-.86578 3.89602-.86465 3.88926c0 0-1.19045 5.41113-1.1803 5.36491-.6561 3.1858-1.27275 6.05258-1.85107 8.59695 5.09775-4.8486 12.00145-11.69031 20.71338-20.52625l9.46724-9.5732.1815-.24237c.0992-.1319.20855-.25703.32466-.37427.19052-.19052.67752-.60763 1.48581-1.2254 1.33024-1.01797 2.65935-1.4238 3.9118-1.4238 1.31784 0 2.8307.5163 4.31425 1.99986a3.7581 3.7581 0 01.18263.19615c1.07095 1.24907 1.49257 2.54437 1.49257 3.79344 0 1.23554-.38441 2.4474-1.2671 3.59502-.45544.59184-1.07998 1.25809-1.88827 1.98183l-13.9021 13.57857s-18.61432 18.39786-18.59966 18.3832c-2.57367 2.5748-6.29045 6.5069-11.14018 11.78388-.4171.45995-.73726.9571-.94582 1.50046-.32016.82971-.63468 1.88601-.95371 3.16326 0 0-1.62334 6.49337-1.62447 6.499-5.06505 20.1159-8.97347 34.8759-11.723 44.28226-.00902.02818-.0169.05637-.02593.08455l-.85112 2.66047c-2.81943 9.75696-5.29503 17.9616-7.42904 24.6139-2.15318 6.71545-4.5431 13.35762-7.17427 19.93328-2.72135 6.76843-5.37168 12.57864-7.94648 17.434-2.65822 5.01094-5.8846 9.64197-9.68255 13.89648-1.33136 1.48693-2.52745 2.69768-3.58488 3.63673-1.2671 1.12732-2.69767 2.02016-4.29283 2.67739-.02931.01127-.0575.02254-.0868.03382-2.00889.76545-3.69423 1.09575-5.03349 1.09575-2.57029 0-4.737-.8173-6.52605-2.3809-1.61996-1.41817-2.87129-3.49582-3.57924-6.33103-.57043-2.28056-.8624-4.76292-.8624-7.45045 0-2.75066.33368-6.19012 1.01684-10.28793 2.86452-18.06868 8.44363-35.88146 16.73732-53.42482 10.87751-23.2149 24.27458-44.45699 40.20474-63.74882 1.82175-2.1746 3.0122-4.32552 3.48116-6.49561 2.53084-11.78275 4.73475-21.7212 6.60723-29.78605l1.25809-5.65915-1.84655 2.54887c-5.57911 7.53613-10.07148 13.47711-13.47712 17.82518-3.46989 4.42924-7.2712 8.748-11.35774 12.9067-2.57142 2.72247-5.40663 5.29501-8.50789 7.71424-3.0167 2.35497-6.43812 4.82042-10.27665 7.40424-1.24343.8297-2.34595 1.46664-3.29966 1.9232-1.30206.62229-2.68866.93794-4.16094.93794-1.61996 0-3.0449-.40133-4.27367-1.1386-2.93554-1.73945-4.6378-4.72234-4.6378-9.17976 0-.06426.00226-.12964.00564-.1939l.10822-1.94801c.00226-.03833.00451-.07553.0079-.11386.23222-2.63342 1.24117-6.65232 3.10012-12.03527 1.74397-5.04926 4.10458-11.38818 7.08183-19.0145 0 0 2.48912-6.38514 2.47898-6.35922 1.2547-3.2929 3.40788-4.52731 5.7606-4.52731.85451 0 1.78793.18037 2.7856.60762.12289.05299.24126.11273.35737.17812 2.19038 1.25245 3.27937 3.13282 3.27937 5.6366 0 1.14648-.3134 2.43952-1.07771 3.84078-.03044.0575-.06426.11386-.09808.1691-1.22653 1.97506-2.72135 5.30404-4.5262 9.96889-1.87585 4.85085-3.52174 9.68255-4.93878 14.49733-.51293 1.7451-.93455 3.30305-1.25583 4.675l.63242-.46784.93004-.70796c.5862-.56591 1.24343-1.098 1.97281-1.59065zm90.89807-40.34115c.43289.50504.64933 1.01008.64933 1.51512 0 .50504-.18037.99204-.54111 1.461-.36074.46897-.86578.99204-1.51512 1.56923l-13.96073 13.63607-18.6143 18.39786c-2.59735 2.59734-6.34907 6.5655-11.25517 11.9045-.72148.79363-1.2626 1.65941-1.62334 2.59734-.36074.93793-.72149 2.12838-1.08223 3.57135l-1.62334 6.49336c-5.0504 20.05728-8.94641 34.77557-11.68805 44.15487l-.86578 2.70557c-2.8138 9.74005-5.28488 17.9289-7.41326 24.56656s-4.49124 13.20317-7.08859 19.69654c-2.6695 6.63766-5.26684 12.33739-7.79203 17.09918-2.5252 4.7618-5.59151 9.16286-9.19894 13.20318-1.22652 1.37082-2.32678 2.48912-3.30079 3.3549-.974.86578-2.07427 1.5512-3.3008 2.05623-1.51511.5772-2.7777.86578-3.78779.86578-1.65941 0-3.0663-.50503-4.22068-1.51511-1.15438-1.01008-1.98409-2.5252-2.48913-4.54536-.50504-2.02016-.75755-4.22068-.75755-6.60158 0-2.59735.32466-5.84403.974-9.74005 2.81379-17.74852 8.29707-35.24453 16.44985-52.48802 10.75013-22.94321 23.98937-43.93842 39.71774-62.98562 2.2366-2.6695 3.6435-5.33899 4.22069-8.00848 2.5252-11.7602 4.72572-21.68062 6.60158-29.76125l4.54536-20.4541c.07215-.07214 0-.32466-.21645-.75755-2.16445 2.81379-4.22068 5.62758-6.1687 8.44137-.14429.21644-1.04615 1.44297-2.70556 3.67957l-2.27268 3.13846c-5.55543 7.50344-10.02864 13.41962-13.41962 17.74853-3.39097 4.3289-7.10662 8.5496-11.14694 12.66205-2.45304 2.59735-5.15861 5.0504-8.1167 7.35915-2.95809 2.30875-6.313 4.72573-10.06471 7.25092-1.08223.72149-2.0382 1.28064-2.8679 1.67745-.82971.39682-1.71353.59523-2.65146.59523-.93793 0-1.76764-.21645-2.48912-.64934-1.94801-1.15437-2.92202-3.2106-2.92202-6.1687l.10823-1.948c.21644-2.45305 1.19045-6.18673 2.922-11.20105 1.73157-5.01432 4.0764-11.30928 7.03449-18.88487l2.48912-6.38514c.57719-1.51512 1.4069-2.27268 2.48912-2.27268.4329 0 .90186.10823 1.4069.32467 1.01008.5772 1.51511 1.44297 1.51511 2.59735 0 .64933-.21644 1.37082-.64933 2.16445-1.29867 2.0923-2.90398 5.60955-4.81591 10.55172-1.91194 4.94217-3.58939 9.8663-5.03236 14.7724-1.44297 4.9061-2.16445 8.47745-2.16445 10.71405 0 .1443.03607.2886.10822.43289.07215.1443.1443.32467.21644.54111 1.37083-.36074 2.61539-.90185 3.73369-1.62334 1.1183-.72148 2.47108-1.69549 4.05835-2.92201.50504-.50504 1.08223-.974 1.73156-1.4069 4.83395-3.60742 9.16286-7.57559 12.98673-11.9045 3.82387-4.3289 8.6939-10.3533 14.61007-18.07319 8.80211-11.39946 15.548-20.52624 20.23765-27.38035.79363-1.15437 1.42493-1.98408 1.8939-2.48912.46896-.50504 1.06418-.93793 1.78567-1.29867.57719-.21645 1.1183-.32467 1.62334-.32467.72148 0 1.33475.23448 1.83979.70345.50503.46896.8297 1.13633.974 2.00212.07215.21644.10822.54111.10822.974 0 .50504-.07215 1.2626-.21644 2.27268-.64934 4.4732-1.49708 9.14482-2.54324 14.01484-1.04615 4.87002-1.67745 7.73792-1.8939 8.6037l-.86578 3.89602-1.19045 5.41114c-1.51511 7.35915-2.81379 12.98673-3.89601 16.88274-.07215.07215-.10823.21645-.10823.4329l.10823 1.29867c1.22652-.64934 2.36286-1.49708 3.40901-2.54324 1.04615-1.04615 1.7496-1.71352 2.11034-2.00212 5.26684-4.9061 12.98673-12.51776 23.15967-22.83499l9.63182-9.74004.32467-.4329c.1443-.1443.52307-.45092 1.13634-.91989.61326-.46896 1.20848-.70345 1.78567-.70345.57719 0 1.19045.32467 1.83979.974zm-61.9034 87.6604c.79363-2.6695 1.62334-5.66365 2.48912-8.98248.86579-3.31883 1.47905-5.59151 1.83979-6.81804l2.92201-11.03871c-.64933.21644-1.1183.50504-1.4069.86578-.28859.36074-.46896.57719-.5411.64933-7.50345 9.5236-14.03289 19.15543-19.58832 28.89547-14.06895 24.60263-23.5204 48.3034-28.35435 71.10233-1.08223 5.41113-1.62334 9.74004-1.62334 12.98672 0 .86579.07215 2.2366.21644 4.11247.21645 2.3809.93793 3.57135 2.16446 3.57135.79363 0 1.80371-.46897 3.03023-1.4069 1.65942-1.22652 3.17454-2.65145 4.54536-4.2748 1.37082-1.62334 2.74164-3.51723 4.11246-5.68169 3.75172-6.06047 7.17878-13.20317 10.28116-21.4281 2.5252-6.78195 4.58143-12.4456 6.1687-16.99096a304.81254 304.81254 0 004.43713-13.74429c1.08222-3.39098 2.30875-7.64774 3.67957-12.77028 2.95809-10.17294 4.83395-16.522 5.62758-19.0472zm-.39005-11.79853c-3.96366 5.6614-7.58236 11.36451-10.85722 17.10708-13.87055 24.25542-23.20363 47.61462-27.96092 70.05167-1.02473 5.12592-1.55457 9.22486-1.55457 12.30018 0 .7136.05524 1.79583.15895 3.21174 1.31558-1.00782 2.52294-2.16446 3.6232-3.46764 1.27726-1.51286 2.55226-3.27937 3.81035-5.2657 3.64462-5.888 6.96796-12.83004 9.97678-20.80695 2.51505-6.75603 4.5634-12.39714 6.14502-16.92446 1.5681-4.49237 3.03024-9.02194 4.4067-13.6541 1.0687-3.34814 2.27944-7.55192 3.65364-12.68348 2.95245-10.15602 4.8317-16.51523 5.6366-19.07763.78236-2.63342 1.59967-5.58587 2.45417-8.85848l.5073-1.93223z"/>
  </g>
</svg>
