<svg xmlns="http://www.w3.org/2000/svg" width="323.8683" height="285.5943" viewBox="0 0 323.8683 285.5943"><defs><style>.f218a2ba-8c36-4046-a534-8c9d296dc57b{fill:#f8b0b0;}.f0e382f3-d4ab-4f23-903c-06d73d563c05{fill:#fff;}</style></defs><title>lindseymiami</title><g id="19a3754e-17dc-4d38-9b38-ee63dbd44d18" data-name="Layer 2"><g id="d81a9988-ba32-4916-abb8-663c2e63aa47" data-name="Layer 1"><path class="f218a2ba-8c36-4046-a534-8c9d296dc57b" d="M319.2921,109.8991c-.493.5646-.9641,1.1486-1.44,1.7276Q306.66,125.2312,295.46,138.8289c-1.038,1.2569-2.2075,2.4052-3.8951,4.23a27.1917,27.1917,0,0,1,.0118-2.8788c1.2057-8.0237,2.5563-16.0278,3.6177-24.07.7836-5.9375,1.3167-11.9165,1.68-17.8942.0768-1.2632-1.07-2.601-1.6537-3.9044-1.1653.7186-2.7332,1.1689-3.4236,2.2042-2.4891,3.732-4.6771,7.6645-6.989,11.5151-4.2385,7.0594-8.347,14.2029-12.809,21.1182-1.3779,2.1356-3.7273,3.6445-5.6318,5.44l-1.1924-.6368a53.2441,53.2441,0,0,1,.0451-6.53c.601-4.8294,1.6471-9.611,2.0669-14.4507.1281-1.4759-1.1959-3.0776-1.8548-4.6218-1.049,1.1531-2.4841,2.1431-3.0565,3.4977-.8589,2.0325-1.1129,4.3207-1.7193,6.9061-2.5753-2.9219-4.1087-.7674-5.8152.9893-5.5661,5.73-11.1049,11.4887-16.7988,17.0894a23.9488,23.9488,0,0,1-5.7668,4.0892c-2.3212,1.1983-4.9966,2.3279-6.969-.6807-1.6936-2.5834-.949-5.7451,1.666-7.9993,7.7011-6.6386,13.0615-14.6523,14.9243-24.8391.4676-2.5569.67-5.3266-1.8583-6.1463-1.9788-.6417-4.6381.259-6.8124,1.0059-1.1335.3893-2.04,1.8213-2.761,2.9639-3.18,5.0378-6.2555,10.1417-9.4725,15.3909-4.501-1.7-6.2105,2.947-9.1151,5.0339-3.1587,2.2695-5.93,5.0779-9.3085,8.0349-1.9619-10.3107-7.2984-17.82-14.5579-24.125a8.3353,8.3353,0,0,1-1.0091-1.106c-2.5824-3.2291-2.8253-5.4919.2389-8.1613a120.9989,120.9989,0,0,1,12.0433-8.7095c1.4431-.973,3.7339-1.5309,2.4025-3.6562-.5173-.8257-3.2717-1.1937-4.3174-.5853-5.18,3.0143-10.1295,6.4247-14.8248,9.4774a8.3672,8.3672,0,0,1,.2537-.9867q10.4481-33.7844,20.9-67.5677a46.7665,46.7665,0,0,0,1.8727-6.8386A3.52,3.52,0,0,0,204.2,18.4251a3.3439,3.3439,0,0,0-3.037,1.09,51.4779,51.4779,0,0,0-4.4377,7.7681C186.2524,50.2047,175.88,73.1722,165.3863,96.0847c-.7422,1.6207-1.9062,3.5992-3.3821,4.2382-6.6457,2.8776-11.1494,7.8434-14.8392,13.8061a6.9873,6.9873,0,0,1-2.0143,1.9351c-1.5185,1.0415-3.4941,1.6431-4.6282,2.98-5.3325,6.2863-10.35,12.8394-15.6757,19.1317-2.4332,2.8749-5.3176,5.3681-7.9974,8.0344l-1.1841-.6318c1.3593-6.95,2.7424-13.8954,4.07-20.8513,1.1217-5.8765,2.3813-11.74,3.1215-17.6664a5.513,5.513,0,0,0-2.3052-4.5238c-1.2839-.67-3.5669-.072-5.1281.616a11.3872,11.3872,0,0,0-4.0016,3.3227c-5.0725,6.3178-10.0179,12.7379-14.9987,19.1291-.7674.9848-1.4837,2.0095-2.2236,3.0157l-1.2133-.5718c1.22-3.9793,2.4667-7.9509,3.65-11.9412.6124-2.0649.7035-4.0694-1.826-4.9435-2.4449-.845-3.2556.6741-3.94,2.7042a14.27,14.27,0,0,1-2.5013,4.8514c-7.43,8.4437-14.9783,16.7838-22.5452,25.1057a35.3115,35.3115,0,0,1-4.1959,3.2138c.2182-2.9218.0638-4.6819.5131-6.2714q6-21.2286,12.1942-42.4023c.6793-2.34,2.4482-5.0875-.9329-6.2946-.809-.2888-3.5561,2.3951-4.067,4.1119q-6.828,22.944-13.0314,46.0707c-.5627,2.0973-.0352,4.7232.6806,6.8737,1.1493,3.4529,4.08,4.4827,7.19,2.5134a35.888,35.888,0,0,0,7.1555-5.93c4.991-5.423,9.7445-11.0662,14.5272-16.6774a13.4145,13.4145,0,0,0,1.4478-2.8638l1.1353,1.0582c-.0815.4833-.153.9687-.2458,1.45-.97,5.0242-2.088,10.0275-2.7975,15.088-.1481,1.056,1.21,2.3232,1.8737,3.4931a25.3572,25.3572,0,0,0,3.1584-1.9968c.5281-.444.6823-1.3127,1.0618-1.9565,6.4674-10.9713,12.6851-22.118,21.5488-31.4409a35.3877,35.3877,0,0,1,3.4514-2.8409l1.0285.6315c-.512,2.8812-1.0178,5.7635-1.5369,8.6434-1.6362,9.0785-3.4644,18.1293-4.7674,27.2552-.2795,1.9574.9217,5.5928,2.1735,5.96,1.9044.5593,4.9-.497,6.6219-1.8775,3.0884-2.4758,5.6394-5.6453,8.2973-8.63,3.8824-4.3592,7.6608-8.811,11.9335-13.7425a39.0267,39.0267,0,0,0-.615,3.99c-.0933,2.5574-.8782,5.4613,2.2906,6.8618,3.3461,1.4789,4.9266-1.243,6.2741-3.2976,5.2621-8.0236,10.2623-16.2187,15.4182-24.3129.8229-1.2918,2.128-3.48,2.8883-3.3514a6.07,6.07,0,0,1,3.9122,2.9608,9.5635,9.5635,0,0,1,.8565,5.9054c-5.0974,21.3558-10.4736,42.645-15.5965,63.9949-1.9209,8.0056-3.4581,16.108-4.9412,24.2081-.1946,1.063.9786,2.3764,1.5183,3.5739a26.0117,26.0117,0,0,0,3.161-2.3926,4.4546,4.4546,0,0,0,.7137-2.0988c4.006-17.8979,7.8113-35.8435,12.0547-53.6849,3.3851-14.2322,7.3015-28.3381,11.01-42.606,3.3931,3.6516,6.6636,6.6046,9.2281,10.0788a77.4354,77.4354,0,0,1,7.9422,12.9747c2.2952,4.9022,1.4759,9.329-2.9326,13.4407a33.8408,33.8408,0,0,0-9.9947,17.2736c-.95,4.1341.8445,8.4791,3.9191,10.157,3.044,1.6612,6.9282.8083,10.0511-2.6688a14.5682,14.5682,0,0,0,3.5971-6.0062c1.3074-5.7968,1.9889-11.7322,3.0251-17.5939.3564-2.0158.4213-4.5507,1.6626-5.8574,4.2243-4.4467,8.914-8.4512,13.426-12.6246l.9539.8483a41.8434,41.8434,0,0,0-3.1021,4.2283c-.5577.98-1.1835,2.4761-.8162,3.3241,1.1573,2.6719,2.9839,5.0524,4.157,7.7193,2.0192,4.59,5.0825,6.5919,9.7741,5.0679a25.0226,25.0226,0,0,0,8.785-4.7137c7.3173-6.5074,14.2639-13.4316,21.3976-20.2338-.1186,1.89-.3664,3.966-.3464,6.04a43.4512,43.4512,0,0,0,.4979,6.3444c.9342,5.9123,4.884,7.5538,9.558,3.78a33.8208,33.8208,0,0,0,6.0629-6.582c4.652-6.4753,9.0772-13.1137,13.5924-19.6874l.9189.22c-.2144,2.19-.2587,4.4137-.6729,6.5657-1.698,8.8218-3.7667,17.5807-5.1823,26.4453-.8636,5.4078-3.235,9.7493-6.4029,14.0826-9.3519,12.7926-19.0181,25.4251-27.3784,38.8566-12.4644,20.0251-21.8951,41.5166-26.0389,64.9457a48.3975,48.3975,0,0,0-.3526,14.8494c.9763,7.0325,7.0886,9.4553,12.7662,5.1962a40.5013,40.5013,0,0,0,9.373-9.5488,135.0285,135.0285,0,0,0,11.2822-19.7932c10.55-23.6685,17.2574-48.6536,23.99-73.579,8.2067-30.3824,2.8286-20.5847,24.0327-46.6672,5.6747-6.98,11.5531-13.7962,17.1565-20.8321.7375-.926,1.0333-3.1957.4227-4.0068C322.0378,107.064,320.5133,108.5007,319.2921,109.8991Zm-83.0063-2.9279c-1.5964,7.1958-4.1892,12.91-9.7974,17.843C227.9433,117.582,230.72,111.9691,236.2858,106.9711Zm-88.3448,19.72-1.46-.9969,8.5687-13.9463,1.3127.7824Zm26.5823-21.4761c-4.5715-1.657-5.77-4.1109-3.9316-7.8807,4.4174-9.0607,8.8885-18.0952,13.3381-27.14l.7614.3356Zm19.6746,58.2665c-.9046,1.2876-3.21,1.5908-4.8727,2.3458-.1036-1.5858-.6165-3.2776-.2379-4.7384,1.408-5.4329,4.5594-9.8421,9.2492-14.2518C198.8208,153.4653,197.4755,158.8162,194.198,163.4812Zm81.993,17.2119c-6.0274,22.39-12.0963,44.7973-21.3352,66.1189-3.75,8.6553-8.6768,16.8162-13.3232,25.0582a24.0594,24.0594,0,0,1-5.41,6.133c-1.0524.9022-3.1771,1.5891-4.2736,1.1153a4.7579,4.7579,0,0,1-2.1707-3.8527c.4982-6.3039.6826-12.7691,2.2975-18.8254,8.3495-31.3112,23.3817-59.2555,43.6748-84.4363.6849-.85,1.2822-1.77,1.92-2.6581l1.0731.6531C277.8327,173.5655,277.141,177.164,276.191,180.6931Z"/><path class="f218a2ba-8c36-4046-a534-8c9d296dc57b" d="M64.1639,158.81c-2.4821-1.9546-3.9864.4448-5.5975,1.9682-2.618,2.4755-5.0212,5.327-8.018,7.2262C40.2215,174.549,29.71,180.806,19.1908,187.0405a95.0947,95.0947,0,0,1-8.7153,4.0128,48.5212,48.5212,0,0,1,.0256-5.3817c1.845-14.1069,3.6725-28.2168,5.6525-42.3052,5.7827-41.147,11.6655-82.28,17.4126-123.4319a90.6644,90.6644,0,0,0,.86-14.1842,5.0351,5.0351,0,0,0-3.1434-3.7c-2.3666-.4085-2.8424,1.7662-2.8109,3.8345a40.7629,40.7629,0,0,1-.1008,5.9893c-3.8042,28.4471-7.473,56.9144-11.57,85.32-4.2752,29.64-8.9985,59.2152-13.4661,88.8278-.6075,4.0265-.7878,8.2368,3.0426,10.92,3.6661,2.5681,7.3147.6788,10.5294-1.2085,13.0143-7.64,26.0037-15.3311,38.8148-23.3042,2.9943-1.8635,5.3961-4.7791,7.8018-7.4524C65.09,163.2357,66.7843,160.8736,64.1639,158.81Z"/><path class="f218a2ba-8c36-4046-a534-8c9d296dc57b" d="M80.9194,64.549c-1.6943,1.1843-3.28,2.6448-5.15,3.3826-.5522.2178-1.91-1.6055-2.898-2.4934,1.5-1.2236,2.8678-2.7214,4.5634-3.5407.712-.3441,2.1178.7476,3.2081,1.1865Z"/><path class="f0e382f3-d4ab-4f23-903c-06d73d563c05" d="M316.2921,107.8991c-.493.5646-.9641,1.1486-1.44,1.7276Q303.66,123.2312,292.46,136.8289c-1.038,1.2569-2.2075,2.4052-3.8951,4.23a27.1917,27.1917,0,0,1,.0118-2.8788c1.2057-8.0237,2.5563-16.0278,3.6177-24.07.7836-5.9375,1.3167-11.9165,1.68-17.8942.0768-1.2632-1.07-2.601-1.6537-3.9044-1.1653.7186-2.7332,1.1689-3.4236,2.2042-2.4891,3.732-4.6771,7.6645-6.989,11.5151-4.2385,7.0594-8.347,14.2029-12.809,21.1182-1.3779,2.1356-3.7273,3.6445-5.6318,5.44l-1.1924-.6368a53.2441,53.2441,0,0,1,.0451-6.53c.601-4.8294,1.6471-9.611,2.0669-14.4507.1281-1.4759-1.1959-3.0776-1.8548-4.6218-1.049,1.1531-2.4841,2.1431-3.0565,3.4977-.8589,2.0325-1.1129,4.3207-1.7193,6.9061-2.5753-2.9219-4.1087-.7674-5.8152.9893-5.5661,5.73-11.1049,11.4887-16.7988,17.0894a23.9488,23.9488,0,0,1-5.7668,4.0892c-2.3212,1.1983-4.9966,2.3279-6.969-.6807-1.6936-2.5834-.949-5.7451,1.666-7.9993,7.7011-6.6386,13.0615-14.6523,14.9243-24.8391.4676-2.5569.67-5.3266-1.8583-6.1463-1.9788-.6417-4.6381.259-6.8124,1.0059-1.1335.3893-2.04,1.8213-2.761,2.9639-3.18,5.0378-6.2555,10.1417-9.4725,15.3909-4.501-1.7-6.2105,2.947-9.1151,5.0339-3.1587,2.2695-5.93,5.0779-9.3085,8.0349-1.9619-10.3107-7.2984-17.82-14.5579-24.125a8.3353,8.3353,0,0,1-1.0091-1.106c-2.5824-3.2291-2.8253-5.4919.2389-8.1613a120.9989,120.9989,0,0,1,12.0433-8.7095c1.4431-.973,3.7339-1.5309,2.4025-3.6562-.5173-.8257-3.2717-1.1937-4.3174-.5853-5.18,3.0143-10.1295,6.4247-14.8248,9.4774a8.3672,8.3672,0,0,1,.2537-.9867q10.4481-33.7844,20.9-67.5677a46.7665,46.7665,0,0,0,1.8727-6.8386A3.52,3.52,0,0,0,201.2,16.4251a3.3439,3.3439,0,0,0-3.037,1.09,51.4779,51.4779,0,0,0-4.4377,7.7681C183.2524,48.2047,172.88,71.1722,162.3863,94.0847c-.7422,1.6207-1.9062,3.5992-3.3821,4.2382-6.6457,2.8776-11.1494,7.8434-14.8392,13.8061a6.9873,6.9873,0,0,1-2.0143,1.9351c-1.5185,1.0415-3.4941,1.6431-4.6282,2.98-5.3325,6.2863-10.35,12.8394-15.6757,19.1317-2.4332,2.8749-5.3176,5.3681-7.9974,8.0344l-1.1841-.6318c1.3593-6.95,2.7424-13.8954,4.07-20.8513,1.1217-5.8765,2.3813-11.74,3.1215-17.6664a5.513,5.513,0,0,0-2.3052-4.5238c-1.2839-.67-3.5669-.072-5.1281.616a11.3872,11.3872,0,0,0-4.0016,3.3227c-5.0725,6.3178-10.0179,12.7379-14.9987,19.1291-.7674.9848-1.4837,2.0095-2.2236,3.0157l-1.2133-.5718c1.22-3.9793,2.4667-7.9509,3.65-11.9412.6124-2.0649.7035-4.0694-1.826-4.9435-2.4449-.845-3.2556.6741-3.94,2.7042a14.27,14.27,0,0,1-2.5013,4.8514c-7.43,8.4437-14.9783,16.7838-22.5452,25.1057a35.3115,35.3115,0,0,1-4.1959,3.2138c.2182-2.9218.0638-4.6819.5131-6.2714q6-21.2286,12.1942-42.4023c.6793-2.34,2.4482-5.0875-.9329-6.2946-.809-.2888-3.5561,2.3951-4.067,4.1119q-6.828,22.944-13.0314,46.0707c-.5627,2.0973-.0352,4.7232.6806,6.8737,1.1493,3.4529,4.08,4.4827,7.19,2.5134a35.888,35.888,0,0,0,7.1555-5.93c4.991-5.423,9.7445-11.0662,14.5272-16.6774a13.4145,13.4145,0,0,0,1.4478-2.8638l1.1353,1.0582c-.0815.4833-.153.9687-.2458,1.45-.97,5.0242-2.088,10.0275-2.7975,15.088-.1481,1.056,1.21,2.3232,1.8737,3.4931a25.3572,25.3572,0,0,0,3.1584-1.9968c.5281-.444.6823-1.3127,1.0618-1.9565,6.4674-10.9713,12.6851-22.118,21.5488-31.4409a35.3877,35.3877,0,0,1,3.4514-2.8409l1.0285.6315c-.512,2.8812-1.0178,5.7635-1.5369,8.6434-1.6362,9.0785-3.4644,18.1293-4.7674,27.2552-.2795,1.9574.9217,5.5928,2.1735,5.96,1.9044.5593,4.9-.497,6.6219-1.8775,3.0884-2.4758,5.6394-5.6453,8.2973-8.63,3.8824-4.3592,7.6608-8.811,11.9335-13.7425a39.0267,39.0267,0,0,0-.615,3.99c-.0933,2.5574-.8782,5.4613,2.2906,6.8618,3.3461,1.4789,4.9266-1.243,6.2741-3.2976,5.2621-8.0236,10.2623-16.2187,15.4182-24.3129.8229-1.2918,2.128-3.48,2.8883-3.3514a6.07,6.07,0,0,1,3.9122,2.9608,9.5635,9.5635,0,0,1,.8565,5.9054c-5.0974,21.3558-10.4736,42.645-15.5965,63.9949-1.9209,8.0056-3.4581,16.108-4.9412,24.2081-.1946,1.063.9786,2.3764,1.5183,3.5739a26.0117,26.0117,0,0,0,3.161-2.3926,4.4546,4.4546,0,0,0,.7137-2.0988c4.006-17.8979,7.8113-35.8435,12.0547-53.6849,3.3851-14.2322,7.3015-28.3381,11.01-42.606,3.3931,3.6516,6.6636,6.6046,9.2281,10.0788a77.4354,77.4354,0,0,1,7.9422,12.9747c2.2952,4.9022,1.4759,9.329-2.9326,13.4407a33.8408,33.8408,0,0,0-9.9947,17.2736c-.95,4.1341.8445,8.4791,3.9191,10.157,3.044,1.6612,6.9282.8083,10.0511-2.6688a14.5682,14.5682,0,0,0,3.5971-6.0062c1.3074-5.7968,1.9889-11.7322,3.0251-17.5939.3564-2.0158.4213-4.5507,1.6626-5.8574,4.2243-4.4467,8.914-8.4512,13.426-12.6246l.9539.8483a41.8434,41.8434,0,0,0-3.1021,4.2283c-.5577.98-1.1835,2.4761-.8162,3.3241,1.1573,2.6719,2.9839,5.0524,4.157,7.7193,2.0192,4.59,5.0825,6.5919,9.7741,5.0679a25.0226,25.0226,0,0,0,8.785-4.7137c7.3173-6.5074,14.2639-13.4316,21.3976-20.2338-.1186,1.89-.3664,3.966-.3464,6.04a43.4512,43.4512,0,0,0,.4979,6.3444c.9342,5.9123,4.884,7.5538,9.558,3.78a33.8208,33.8208,0,0,0,6.0629-6.582c4.652-6.4753,9.0772-13.1137,13.5924-19.6874l.9189.22c-.2144,2.19-.2587,4.4137-.6729,6.5657-1.698,8.8218-3.7667,17.5807-5.1823,26.4453-.8636,5.4078-3.235,9.7493-6.4029,14.0826-9.3519,12.7926-19.0181,25.4251-27.3784,38.8566-12.4644,20.0251-21.8951,41.5166-26.0389,64.9457a48.3975,48.3975,0,0,0-.3526,14.8494c.9763,7.0325,7.0886,9.4553,12.7662,5.1962a40.5013,40.5013,0,0,0,9.373-9.5488,135.0285,135.0285,0,0,0,11.2822-19.7932c10.55-23.6685,17.2574-48.6536,23.99-73.579,8.2067-30.3824,2.8286-20.5847,24.0327-46.6672,5.6747-6.98,11.5531-13.7962,17.1565-20.8321.7375-.926,1.0333-3.1957.4227-4.0068C319.0378,105.064,317.5133,106.5007,316.2921,107.8991Zm-83.0063-2.9279c-1.5964,7.1958-4.1892,12.91-9.7974,17.843C224.9433,115.582,227.72,109.9691,233.2858,104.9711Zm-88.3448,19.72-1.46-.9969,8.5687-13.9463,1.3127.7824Zm26.5823-21.4761c-4.5715-1.657-5.77-4.1109-3.9316-7.8807,4.4174-9.0607,8.8885-18.0952,13.3381-27.14l.7614.3356Zm19.6746,58.2665c-.9046,1.2876-3.21,1.5908-4.8727,2.3458-.1036-1.5858-.6165-3.2776-.2379-4.7384,1.408-5.4329,4.5594-9.8421,9.2492-14.2518C195.8208,151.4653,194.4755,156.8162,191.198,161.4812Zm81.993,17.2119c-6.0274,22.39-12.0963,44.7973-21.3352,66.1189-3.75,8.6553-8.6768,16.8162-13.3232,25.0582a24.0594,24.0594,0,0,1-5.41,6.133c-1.0524.9022-3.1771,1.5891-4.2736,1.1153a4.7579,4.7579,0,0,1-2.1707-3.8527c.4982-6.3039.6826-12.7691,2.2975-18.8254,8.3495-31.3112,23.3817-59.2555,43.6748-84.4363.6849-.85,1.2822-1.77,1.92-2.6581l1.0731.6531C274.8327,171.5655,274.141,175.164,273.191,178.6931Z"/><path class="f0e382f3-d4ab-4f23-903c-06d73d563c05" d="M61.1639,156.81c-2.4821-1.9546-3.9864.4448-5.5975,1.9682-2.618,2.4755-5.0212,5.327-8.018,7.2262C37.2215,172.549,26.71,178.806,16.1908,185.0405a95.0947,95.0947,0,0,1-8.7153,4.0128,48.5212,48.5212,0,0,1,.0256-5.3817c1.845-14.1069,3.6725-28.2168,5.6525-42.3052,5.7827-41.147,11.6655-82.28,17.4126-123.4319a90.6644,90.6644,0,0,0,.86-14.1842A5.0351,5.0351,0,0,0,28.283.05c-2.3666-.4085-2.8424,1.7662-2.8109,3.8345a40.7629,40.7629,0,0,1-.1008,5.9893c-3.8042,28.4471-7.473,56.9144-11.57,85.32C9.526,124.8334,4.8027,154.4086.3351,184.0211c-.6075,4.0265-.7878,8.2368,3.0426,10.92,3.6661,2.5681,7.3147.6788,10.5294-1.2085,13.0143-7.64,26.0037-15.3311,38.8148-23.3042,2.9943-1.8635,5.3961-4.7791,7.8018-7.4524C62.09,161.2357,63.7843,158.8736,61.1639,156.81Z"/><path class="f0e382f3-d4ab-4f23-903c-06d73d563c05" d="M77.9194,62.549c-1.6943,1.1843-3.28,2.6448-5.15,3.3826-.5522.2178-1.91-1.6055-2.898-2.4934,1.5-1.2236,2.8678-2.7214,4.5634-3.5407.712-.3441,2.1178.7476,3.2081,1.1865Z"/></g></g></svg>