<?xml version="1.0" encoding="UTF-8" standalone="no"?>
<!DOCTYPE svg PUBLIC "-//W3C//DTD SVG 1.1//EN" "http://www.w3.org/Graphics/SVG/1.1/DTD/svg11.dtd">
<svg width="100%" height="100%" viewBox="0 0 1240 595" version="1.1" xmlns="http://www.w3.org/2000/svg" xmlns:xlink="http://www.w3.org/1999/xlink" xml:space="preserve" xmlns:serif="http://www.serif.com/" style="fill-rule:evenodd;clip-rule:evenodd;stroke-linejoin:round;stroke-miterlimit:2;">
    <g transform="matrix(1,0,0,1,-116.884,6.2603)">
        <g id="Artboard1" transform="matrix(1,0,0,1,139.55,55.5336)">
            <path d="M2.4,457.6C0.622,457.956 -0.622,458.133 -1.333,458.133C-4.889,458.133 -8.089,457.022 -10.933,454.8C-13.778,452.578 -15.822,449.422 -17.067,445.333C-19.022,439.822 -20.311,434.267 -20.933,428.667C-21.556,423.067 -22.044,415.2 -22.4,405.067C-22.4,400.8 -22.489,397.6 -22.667,395.467L-21.6,376C-20.178,344.178 -18.4,318.933 -16.267,300.267C-14.844,288.356 -13.867,278.933 -13.333,272C-12.8,267.378 -11.867,259.2 -10.533,247.467C-9.2,235.733 -7.911,225.244 -6.667,216C-1.867,182.222 4.622,146.4 12.8,108.533C15.111,97.511 17.867,83.733 21.067,67.2C23.378,54.578 25.333,44.356 26.933,36.533C34.756,-3.289 40.711,-32.978 44.8,-52.533C44.978,-55.022 45.422,-56.711 46.133,-57.6C46.844,-59.378 47.733,-60.578 48.8,-61.2C49.867,-61.822 51.2,-61.956 52.8,-61.6C54.933,-61.067 56,-59.111 56,-55.733C56,-53.067 55.822,-51.2 55.467,-50.133C52.089,-36.267 48.978,-21.511 46.133,-5.867C43.289,9.778 41.511,19.289 40.8,22.667C39.733,29.244 38.222,37.6 36.267,47.733L23.467,114.4C16.711,149.6 11.733,175.911 8.533,193.333C6.578,203.822 4.889,215.378 3.467,228C2.044,240.622 0.711,252.978 -0.533,265.067L-1.333,273.6C-4.356,302.578 -6.756,331.911 -8.533,361.6C-9.067,371.556 -9.333,382.133 -9.333,393.333C-9.333,403.289 -9.067,413.867 -8.533,425.067C-8.533,425.956 -8.489,427.822 -8.4,430.667C-8.311,433.511 -7.822,436.044 -6.933,438.267C-6.044,440.489 -4.622,442.044 -2.667,442.933C-1.422,443.467 -0.178,443.733 1.067,443.733C3.022,443.733 4.933,443.156 6.8,442C8.667,440.844 10.356,439.644 11.867,438.4C13.378,437.156 14.489,436.267 15.2,435.733L43.733,414.133C48.711,410.222 56.578,404.178 67.333,396C78.089,387.822 87.467,380.533 95.467,374.133C101.867,368.978 109.511,363.289 118.4,357.067L129.333,349.067C131.644,347.644 133.6,346.578 135.2,345.867C137.867,344.267 140,343.467 141.6,343.467C143.2,343.467 144.444,344.356 145.333,346.133C145.689,346.844 145.867,347.733 145.867,348.8C145.867,350.933 144.356,353.156 141.333,355.467C121.778,370.4 107.111,381.422 97.333,388.533C91.822,392.444 81.511,400.356 66.4,412.267C53.6,422.4 47.2,427.467 47.2,427.467C42.222,431.378 39.911,433.156 40.267,432.8C29.067,441.333 20.089,448 13.333,452.8C9.778,454.933 6.133,456.533 2.4,457.6Z" style="fill:white;fill-rule:nonzero;"/>
            <path d="M204.533,168.267C201.333,167.378 199.733,164.711 199.733,160.267C199.556,155.822 202.489,153.6 208.533,153.6C212.622,153.6 214.667,155.2 214.667,158.4C214.489,160.178 213.111,162.356 210.533,164.933C207.956,167.511 205.956,168.622 204.533,168.267ZM160.8,336.533C158.667,336.889 157.333,337.067 156.8,337.067C149.689,337.067 146.133,331.911 146.133,321.6C146.133,315.022 148.089,304.089 152,288.8C155.911,273.867 160.044,259.244 164.4,244.933C168.756,230.622 172,221.511 174.133,217.6C176.089,214.044 178.578,212.8 181.6,213.867C183.911,214.756 185.067,216.533 185.067,219.2C185.067,221.333 184.533,224.267 183.467,228C181.867,232.978 178.578,243.733 173.6,260.267L162.4,297.333C160.8,302.311 159.422,306.978 158.267,311.333C157.111,315.689 156.533,318.844 156.533,320.8C156.533,323.111 157.244,324.267 158.667,324.267C160.978,324.267 164.622,321.867 169.6,317.067C181.867,304.8 195.378,289.6 210.133,271.467C213.333,267.556 215.822,264.622 217.6,262.667C219.022,260.889 220.711,260 222.667,260C223.733,260 224.711,260.356 225.6,261.067C227.2,262.311 228,263.733 228,265.333C228,266.578 227.378,268.178 226.133,270.133C225.067,271.911 224.178,273.244 223.467,274.133C209.067,292.267 196.667,306.889 186.267,318C175.867,329.111 167.378,335.289 160.8,336.533Z" style="fill:white;fill-rule:nonzero;"/>
            <path d="M231.467,339.733C228.978,339.733 227.156,339.022 226,337.6C224.844,336.178 224,334.311 223.467,332C222.756,329.511 222.578,326.489 222.933,322.933C223.289,311.556 223.467,303.022 223.467,297.333C223.467,275.644 222.311,252.089 220,226.667C219.467,220.622 221.333,217.422 225.6,217.067C228.089,217.067 230,217.822 231.333,219.333C232.667,220.844 233.422,222.756 233.6,225.067C235.022,236.267 235.822,247.378 236,258.4C236.178,269.067 236.267,285.156 236.267,306.667C239.822,302.044 242.889,297.067 245.467,291.733C248.044,286.4 250.756,280.089 253.6,272.8C255.378,268.178 256.8,264.711 257.867,262.4L268.8,235.733C270.222,232.889 271.111,231.2 271.467,230.667C271.822,230.133 272.489,229.156 273.467,227.733C274.444,226.311 275.511,225.2 276.667,224.4C277.822,223.6 279.111,223.2 280.533,223.2C283.378,223.2 285.2,223.956 286,225.467C286.8,226.978 287.644,229.422 288.533,232.8C290.133,239.556 291.733,244.311 293.333,247.067C294.933,249.822 297.244,251.2 300.267,251.2C303.289,251.2 308.178,249.511 314.933,246.133C316.356,245.244 317.6,244.8 318.667,244.8C320.089,244.8 321.156,245.511 321.867,246.933C322.578,247.822 322.933,248.8 322.933,249.867C322.933,251.467 321.867,253.067 319.733,254.667C314.933,258.756 309.422,260.8 303.2,260.8C298.756,260.8 294.667,259.644 290.933,257.333C287.2,255.022 284.178,251.733 281.867,247.467C281.689,246.933 280.711,245.689 278.933,243.733C273.067,257.6 269.156,267.2 267.2,272.533C264,281.244 260.178,290.489 255.733,300.267C251.289,310.044 248.444,316.356 247.2,319.2L244.267,325.333C243.2,327.644 241.244,330.933 238.4,335.2C236.267,338.222 233.956,339.733 231.467,339.733Z" style="fill:white;fill-rule:nonzero;"/>
            <path d="M335.733,326.4C331.644,328.178 327.644,329.067 323.733,329.067C316.444,329.067 310.222,326.222 305.067,320.533C299.911,314.844 297.422,306.4 297.6,295.2C300.622,279.022 305.111,265.289 311.067,254C317.022,242.711 326.667,233.689 340,226.933C342.667,225.511 345.6,224.8 348.8,224.8C352,224.8 354.756,225.733 357.067,227.6C359.378,229.467 361.067,232.089 362.133,235.467C362.489,237.244 362.667,238.489 362.667,239.2C362.667,240.978 362.044,243.467 360.8,246.667C357.067,255.556 352.222,263.244 346.267,269.733C340.311,276.222 332.978,282.044 324.267,287.2C322.489,288.267 320.444,289.156 318.133,289.867C316,290.578 314.489,291.244 313.6,291.867C312.711,292.489 312.267,293.689 312.267,295.467C312.267,307.2 316.267,313.067 324.267,313.067C326.933,313.067 329.867,312.533 333.067,311.467C339.467,309.511 347.156,304.622 356.133,296.8C365.111,288.978 372.622,281.511 378.667,274.4L380,272.533C383.022,268.8 385.6,266.933 387.733,266.933C388.978,266.933 390.133,267.467 391.2,268.533C392.8,270.133 393.6,271.822 393.6,273.6C393.6,275.378 392.622,277.778 390.667,280.8C384.8,288.8 376.311,297.467 365.2,306.8C354.089,316.133 344.267,322.667 335.733,326.4ZM317.333,276.8C329.956,269.867 339.911,260 347.2,247.2C347.378,246.667 347.867,245.822 348.667,244.667C349.467,243.511 349.867,242.4 349.867,241.333C349.867,240.622 349.422,239.822 348.533,238.933C347.822,238.222 346.844,237.867 345.6,237.867C344.178,237.867 342.667,238.444 341.067,239.6C339.467,240.756 337.511,242.489 335.2,244.8C330.4,250.311 326.489,255.511 323.467,260.4C320.444,265.289 318.4,270.756 317.333,276.8Z" style="fill:white;fill-rule:nonzero;"/>
            <path d="M481.6,524.8C475.022,522.489 469.867,518.222 466.133,512C462.4,505.778 460.533,499.022 460.533,491.733C460.533,485.333 461.644,479.289 463.867,473.6C466.089,467.911 469.333,461.156 473.6,453.333C483.022,436.622 493.333,421.689 504.533,408.533C516.444,394.667 527.911,382.311 538.933,371.467L545.867,364.8C559.022,352 570.489,341.244 580.267,332.533C599.289,315.644 614.578,303.2 626.133,295.2L638.4,286.667C649.778,278.489 658.4,272.622 664.267,269.067C672.089,264.089 677.956,260.267 681.867,257.6C692.178,250.489 700.178,245.422 705.867,242.4C707.822,241.333 708.8,239.911 708.8,238.133C708.8,236.889 708.622,235.822 708.267,234.933C706.667,230.844 704.267,227.822 701.067,225.867C697.867,223.911 693.956,222.578 689.333,221.867C686.489,221.333 683.467,221.067 680.267,221.067C677.6,221.067 675.556,221.244 674.133,221.6C666.667,221.422 659.289,221.778 652,222.667C644.711,223.556 635.644,224.889 624.8,226.667C605.422,229.867 590.578,231.822 580.267,232.533L574.667,232.8C569.689,233.156 566.044,233.333 563.733,233.333C556.444,233.333 550.222,232.444 545.067,230.667C538.133,228.356 533.244,224.489 530.4,219.067C527.556,213.644 526.133,207.022 526.133,199.2C526.133,192.622 527.2,186.267 529.333,180.133C531.467,174 534.4,167.378 538.133,160.267C545.244,147.111 555.289,134.311 568.267,121.867C578.044,112.444 587.111,104.578 595.467,98.267C603.822,91.956 612.889,87.022 622.667,83.467C630.489,80.622 636.578,78.533 640.933,77.2C645.289,75.867 649.956,75.2 654.933,75.2C658.133,75.2 660.533,75.378 662.133,75.733C669.067,76.978 674.889,78.489 679.6,80.267C684.311,82.044 688.444,84.978 692,89.067C694.311,91.733 696.133,94.267 697.467,96.667C698.8,99.067 699.556,101.689 699.733,104.533C699.733,108.444 698.133,110.756 694.933,111.467L693.867,111.467C692.622,111.467 691.556,111.022 690.667,110.133C689.778,109.244 689.156,108.089 688.8,106.667C687.911,100.089 684.711,95.378 679.2,92.533C670.489,87.911 662.667,85.956 655.733,86.667C640.444,88.267 625.956,93.422 612.267,102.133C605.333,106.578 599.911,110.178 596,112.933C592.089,115.689 588.356,118.844 584.8,122.4C572.356,134.844 562.533,145.911 555.333,155.6C548.133,165.289 543.111,176.356 540.267,188.8C539.2,193.244 538.667,197.956 538.667,202.933C538.667,207.911 540.089,211.867 542.933,214.8C545.778,217.733 549.778,219.644 554.933,220.533C558.667,221.067 562.489,221.333 566.4,221.333C572.978,221.333 581.067,220.533 590.667,218.933L602.667,217.333C613.333,215.911 621.333,214.756 626.667,213.867C637.511,212.089 647.022,210.711 655.2,209.733C663.378,208.756 671.467,208.267 679.467,208.267C686.4,208.267 692.622,208.978 698.133,210.4C706.844,212.711 713.511,217.867 718.133,225.867C718.844,227.111 719.511,228.356 720.133,229.6C720.756,230.844 721.333,231.467 721.867,231.467C722.4,231.467 723.333,231.067 724.667,230.267C726,229.467 727.022,228.8 727.733,228.267C729.511,227.2 731.067,226.222 732.4,225.333C733.733,224.444 734.933,223.733 736,223.2L740.8,220C742.578,218.933 744,218.4 745.067,218.4C746.667,218.4 748,219.2 749.067,220.8C749.6,221.867 749.867,222.844 749.867,223.733C749.867,225.511 748.8,227.2 746.667,228.8C737.778,234.844 731.111,239.289 726.667,242.133C724.533,243.378 723.556,245.244 723.733,247.733C723.911,249.156 724,251.378 724,254.4C724,263.644 722.978,272.889 720.933,282.133C718.889,291.378 716,301.6 712.267,312.8C709.6,320.267 706.622,327.556 703.333,334.667C700.044,341.778 695.733,350.578 690.4,361.067L687.733,366.4C675.644,390.044 661.6,412.267 645.6,433.067C631.733,451.2 617.778,466.044 603.733,477.6C589.689,489.156 577.733,498.356 567.867,505.2C558,512.044 547.289,517.6 535.733,521.867C524.356,526.133 513.511,528.267 503.2,528.267C495.733,528.267 488.533,527.111 481.6,524.8ZM491.467,515.2C496.089,515.556 499.467,515.733 501.6,515.733C515.644,515.733 528.444,512.533 540,506.133C562.578,493.511 582.222,479.733 598.933,464.8C614.044,451.289 628.889,434.667 643.467,414.933C650.222,405.689 659.111,391.556 670.133,372.533L672.8,368C673.511,366.933 675.778,363.111 679.6,356.533C683.422,349.956 686.578,343.467 689.067,337.067C694.222,324.444 698.089,314.578 700.667,307.467C703.244,300.356 705.511,292.978 707.467,285.333C710.489,273.244 711.733,261.956 711.2,251.467C707.822,253.956 701.333,258.222 691.733,264.267L680,271.467C663.467,282.133 647.822,292.978 633.067,304C607.467,322.844 583.556,343.378 561.333,365.6L550.667,376C535.378,390.933 523.822,403.2 516,412.8C508,422.578 501.244,431.333 495.733,439.067C490.222,446.8 485.422,454.844 481.333,463.2C478.489,468.889 476.356,473.867 474.933,478.133C473.511,482.4 472.8,486.844 472.8,491.467C472.8,497.867 474.489,503.244 477.867,507.6C481.244,511.956 485.778,514.489 491.467,515.2Z" style="fill:white;fill-rule:nonzero;"/>
            <path d="M727.2,400.6C725.867,401.133 724.933,401.4 724.4,401.4C723.067,401.4 721.933,400.8 721,399.6C720.067,398.667 719.6,397.6 719.6,396.4C719.6,395.467 719.867,394.733 720.4,394.2C723.2,391 725.233,387.467 726.5,383.6C727.767,379.733 728.933,374.933 730,369.2C731.067,364.133 731.933,360.4 732.6,358C734.333,352.267 739.1,334.6 746.9,305C754.7,275.4 761.667,248.867 767.8,225.4L772.4,208C776,194.667 780.333,180.667 785.4,166C785.667,165.067 786.267,163.433 787.2,161.1C788.133,158.767 788.6,156.6 788.6,154.6C787.533,154.2 786.6,154 785.8,154C785,154 784.1,154.133 783.1,154.4C782.1,154.667 781.333,154.867 780.8,155C742.267,163.8 709.4,172.133 682.2,180L669.4,183.6C652.067,188.267 638.2,192.533 627.8,196.4C623.533,198 619.867,199.6 616.8,201.2C615.467,202 614.2,202.4 613,202.4C611.4,202.4 610.133,201.533 609.2,199.8C608.8,199 608.6,198.267 608.6,197.6C608.6,195.733 609.867,194.067 612.4,192.6C616.533,190.467 621.533,188.333 627.4,186.2C646.733,179.533 667.933,173.2 691,167.2L713,161.4C737.933,154.733 755.867,150.133 766.8,147.6C775.733,145.6 782.867,144.133 788.2,143.2C790.333,142.8 792.033,142 793.3,140.8C794.567,139.6 795.667,137.867 796.6,135.6C801.933,122.267 806.867,110.433 811.4,100.1C815.933,89.767 820.8,79.867 826,70.4C827.733,67.2 829.333,65.067 830.8,64C832,62.8 833.267,62.2 834.6,62.2C835.267,62.2 836,62.4 836.8,62.8C839.2,64 840.067,65.933 839.4,68.6C838.2,73.4 836.6,78.733 834.6,84.6C834.467,85 834.2,85.433 833.8,85.9C833.4,86.367 833,86.6 832.6,86.6C830.333,87 828.667,87.933 827.6,89.4C826.533,90.867 825.633,92.5 824.9,94.3C824.167,96.1 823.6,97.4 823.2,98.2L821,102.8C817.4,110.8 814.567,117.267 812.5,122.2C810.433,127.133 808.6,132.333 807,137.8C808.067,138.333 809.067,138.6 810,138.6C810.667,138.6 811.533,138.467 812.6,138.2C828.467,134.6 853.667,129.533 888.2,123L904,120L921.4,117L926.2,116.2C927.8,115.933 929.167,115.767 930.3,115.7C931.433,115.633 932.4,115.6 933.2,115.6C937.733,115.6 939.867,117.4 939.6,121C939.6,122.467 939.067,123.633 938,124.5C936.933,125.367 935.467,125.8 933.6,125.8C927.867,126.2 922.367,126.833 917.1,127.7C911.833,128.567 904.267,130 894.4,132C890.133,132.933 883.733,134.2 875.2,135.8C863.867,137.8 847,141.067 824.6,145.6L810,148.6C806.933,149.267 804.533,150.3 802.8,151.7C801.067,153.1 799.733,155.2 798.8,158C793.067,174 787.067,193.1 780.8,215.3C774.533,237.5 766.267,267.867 756,306.4L754.8,311.2L735.8,383.8C734.467,388.867 733.133,392.6 731.8,395C730.467,397.533 728.933,399.4 727.2,400.6Z" style="fill:white;fill-rule:nonzero;"/>
            <path d="M771,330.4C768.511,329.333 767.178,327.733 767,325.6L767,323.467C767,322.044 767.178,320.622 767.533,319.2C772.333,306.222 777.578,288.8 783.267,266.933C787.533,251.111 791.178,238.489 794.2,229.067C794.556,227.644 794.911,226.667 795.267,226.133C796.689,222.933 798.556,221.333 800.867,221.333C801.4,221.333 802.2,221.511 803.267,221.867C805.933,222.578 807.267,224.267 807.267,226.933C807.267,227.467 807.089,228.444 806.733,229.867C804.067,237.689 802.022,244.711 800.6,250.933L800.6,255.467C802.2,255.644 803.489,255.422 804.467,254.8C805.444,254.178 806.289,253.467 807,252.667C807.711,251.867 808.244,251.289 808.6,250.933C812.156,248.622 815.444,247.467 818.467,247.467C821.311,247.467 823.889,248.622 826.2,250.933C828.511,252.889 830.733,253.867 832.867,253.867C835.178,253.867 837.489,253.067 839.8,251.467C847.089,247.022 853.933,241.867 860.333,236C862.467,233.867 864.689,231.911 867,230.133C868.067,229.6 869.044,229.333 869.933,229.333C871.356,229.333 872.422,229.867 873.133,230.933C874.378,232.178 875,233.422 875,234.667C875,235.2 874.822,236 874.467,237.067C874.111,237.6 873.622,238.489 873,239.733C872.378,240.978 871.711,241.867 871,242.4C867.089,245.6 864.244,248.089 862.467,249.867C858.2,253.6 854.556,256.578 851.533,258.8C848.511,261.022 845.311,262.844 841.933,264.267C837.844,266.044 834.467,266.933 831.8,266.933C829.311,266.933 826.467,266.044 823.267,264.267C820.778,262.667 818.733,261.867 817.133,261.867C814.644,261.867 812.333,263.289 810.2,266.133C796.689,283.733 787.089,301.6 781.4,319.733C780.867,321.333 780.289,322.933 779.667,324.533C779.044,326.133 778.289,327.467 777.4,328.533C775.267,330.489 773.133,331.111 771,330.4Z" style="fill:white;fill-rule:nonzero;"/>
            <path d="M883.533,326.4C879.444,328.178 875.444,329.067 871.533,329.067C864.244,329.067 858.022,326.222 852.867,320.533C847.711,314.844 845.222,306.4 845.4,295.2C848.422,279.022 852.911,265.289 858.867,254C864.822,242.711 874.467,233.689 887.8,226.933C890.467,225.511 893.4,224.8 896.6,224.8C899.8,224.8 902.556,225.733 904.867,227.6C907.178,229.467 908.867,232.089 909.933,235.467C910.289,237.244 910.467,238.489 910.467,239.2C910.467,240.978 909.844,243.467 908.6,246.667C904.867,255.556 900.022,263.244 894.067,269.733C888.111,276.222 880.778,282.044 872.067,287.2C870.289,288.267 868.244,289.156 865.933,289.867C863.8,290.578 862.289,291.244 861.4,291.867C860.511,292.489 860.067,293.689 860.067,295.467C860.067,307.2 864.067,313.067 872.067,313.067C874.733,313.067 877.667,312.533 880.867,311.467C887.267,309.511 894.956,304.622 903.933,296.8C912.911,288.978 920.422,281.511 926.467,274.4L927.8,272.533C930.822,268.8 933.4,266.933 935.533,266.933C936.778,266.933 937.933,267.467 939,268.533C940.6,270.133 941.4,271.822 941.4,273.6C941.4,275.378 940.422,277.778 938.467,280.8C932.6,288.8 924.111,297.467 913,306.8C901.889,316.133 892.067,322.667 883.533,326.4ZM865.133,276.8C877.756,269.867 887.711,260 895,247.2C895.178,246.667 895.667,245.822 896.467,244.667C897.267,243.511 897.667,242.4 897.667,241.333C897.667,240.622 897.222,239.822 896.333,238.933C895.622,238.222 894.644,237.867 893.4,237.867C891.978,237.867 890.467,238.444 888.867,239.6C887.267,240.756 885.311,242.489 883,244.8C878.2,250.311 874.289,255.511 871.267,260.4C868.244,265.289 866.2,270.756 865.133,276.8Z" style="fill:white;fill-rule:nonzero;"/>
            <path d="M921.933,324.267C918.911,322.133 917.4,319.111 917.4,315.2L917.667,312C918.556,303.467 920.644,295.2 923.933,287.2C927.222,279.2 931.622,270.933 937.133,262.4C942.289,254.4 946.778,247.911 950.6,242.933C954.422,237.956 958.911,233.6 964.067,229.867L969.667,225.867C973.222,223.556 976.689,222.4 980.067,222.4C983.267,222.4 985.844,223.6 987.8,226C989.756,228.4 990.911,231.822 991.267,236.267C991.444,238.044 991.533,240.711 991.533,244.267L991.533,252.267C991.178,255.467 990.378,257.6 989.133,258.667C985.578,262.222 983.133,266.044 981.8,270.133C980.467,274.222 979.267,279.822 978.2,286.933C977.667,292.444 976.778,297.156 975.533,301.067C980.867,298.756 987.4,294.178 995.133,287.333C1002.87,280.489 1008.07,274.667 1010.73,269.867C1011.09,269.156 1011.62,268.044 1012.33,266.533C1013.04,265.022 1013.89,263.822 1014.87,262.933C1015.84,262.044 1016.96,261.6 1018.2,261.6C1022.29,261.6 1024.33,263.378 1024.33,266.933C1024.33,269.244 1023.44,272.089 1021.67,275.467C1018.64,280.978 1013.09,287.467 1005,294.933C996.911,302.4 989.044,308.978 981.4,314.667C978.556,316.978 975.711,318.133 972.867,318.133C970.911,318.133 969.133,317.689 967.533,316.8C964.333,315.022 962.733,312.089 962.733,308C962.733,304.8 963.267,299.644 964.333,292.533C964.689,291.467 965.044,289.333 965.4,286.133C963.978,286.133 962.911,286.444 962.2,287.067C961.489,287.689 960.911,288.4 960.467,289.2C960.022,290 959.711,290.578 959.533,290.933C958.822,292 956.6,295.289 952.867,300.8C949.133,306.311 945.222,311.289 941.133,315.733C938.822,318.4 936.6,320.533 934.467,322.133C931.444,324.444 928.778,325.6 926.467,325.6C924.689,325.6 923.178,325.156 921.933,324.267ZM929.133,309.333C933.044,305.6 938.778,298.311 946.333,287.467C953.889,276.622 960.822,265.822 967.133,255.067C973.444,244.311 977.044,236.978 977.933,233.067C965.667,242.667 955.756,253.644 948.2,266C940.644,278.356 934.289,292.8 929.133,309.333Z" style="fill:white;fill-rule:nonzero;"/>
            <path d="M1003,325.867C1000.33,324.444 999,322.311 999,319.467C999,318.044 999.267,316.533 999.8,314.933L1003,301.867C1003.53,299.556 1005.18,292.844 1007.93,281.733C1010.69,270.622 1013.67,260.267 1016.87,250.667L1017.4,248.267C1019.18,242.756 1021.93,240 1025.67,240C1026.56,240 1027.27,240.089 1027.8,240.267C1030.47,240.978 1031.8,242.844 1031.8,245.867C1031.8,247.467 1031.36,249.867 1030.47,253.067L1024.07,273.6L1025.67,275.2L1038.47,260.533C1041.67,256.622 1044.96,254.667 1048.33,254.667C1054.02,254.667 1058.11,258.489 1060.6,266.133C1060.96,267.2 1061.22,269.111 1061.4,271.867C1061.58,274.622 1062.29,276.8 1063.53,278.4L1064.33,278.4C1065.76,278.4 1066.91,277.822 1067.8,276.667C1068.69,275.511 1069.31,274.667 1069.67,274.133C1074.29,269.156 1081.58,262.222 1091.53,253.333L1100.6,245.067C1103.27,242.756 1105.4,241.156 1107,240.267C1109.13,238.844 1111.44,238.133 1113.93,238.133C1118.56,238.133 1121.93,240.978 1124.07,246.667C1125.13,249.333 1125.71,252.356 1125.8,255.733C1125.89,259.111 1125.93,261.333 1125.93,262.4L1125.93,269.333C1125.93,272.356 1126.29,274.933 1127,277.067C1127.53,277.6 1128.07,277.867 1128.6,277.867C1129.13,277.867 1129.84,277.422 1130.73,276.533C1132.51,274.4 1134.2,273.333 1135.8,273.333C1136.87,273.333 1137.84,273.689 1138.73,274.4C1140.51,275.644 1141.4,277.333 1141.4,279.467C1141.4,280.178 1141.04,281.6 1140.33,283.733C1139.44,286.222 1137.89,288.178 1135.67,289.6C1133.44,291.022 1131.09,291.733 1128.6,291.733C1125.22,291.733 1122.11,290.489 1119.27,288C1115.36,284.267 1113.49,279.822 1113.67,274.667C1113.67,270.044 1113.58,266.578 1113.4,264.267C1113.4,263.022 1113.22,259.733 1112.87,254.4C1110.02,254.756 1107.58,255.689 1105.53,257.2C1103.49,258.711 1100.96,260.978 1097.93,264C1090.64,271.289 1082.73,279.644 1074.2,289.067C1070.82,292.8 1067.53,295.378 1064.33,296.8C1062.2,297.689 1060.51,298.133 1059.27,298.133C1055.71,298.133 1053.04,296.089 1051.27,292C1050.2,289.511 1049.49,285.689 1049.13,280.533C1049.13,277.867 1048.87,275.378 1048.33,273.067C1047.27,272.711 1046.64,272.533 1046.47,272.533C1045.22,272.533 1044.33,273.067 1043.8,274.133C1043.27,275.2 1042.91,275.822 1042.73,276C1035.62,285.244 1029.84,293.067 1025.4,299.467C1020.96,305.867 1017.04,312.711 1013.67,320C1011.53,324.267 1008.96,326.4 1005.93,326.4C1004.69,326.4 1003.71,326.222 1003,325.867Z" style="fill:white;fill-rule:nonzero;"/>
            <path d="M1149.4,364.267C1145.84,364.267 1143.13,363.067 1141.27,360.667C1139.4,358.267 1138.47,355.022 1138.47,350.933C1138.47,349.156 1138.56,347.733 1138.73,346.667C1140.33,337.244 1144.07,328.444 1149.93,320.267C1154.56,313.689 1156.87,307.2 1156.87,300.8C1156.87,295.822 1155.62,290.933 1153.13,286.133L1135.53,249.867C1133.04,244.711 1131.8,240 1131.8,235.733C1131.8,228.089 1136.16,221.956 1144.87,217.333C1150.38,214.311 1157.49,211.378 1166.2,208.533C1167.98,207.822 1169.49,207.556 1170.73,207.733C1175.71,207.733 1178.29,209.956 1178.47,214.4C1178.47,216.356 1177.84,217.911 1176.6,219.067C1175.36,220.222 1173.76,220.711 1171.8,220.533C1167.36,220.178 1163.49,220.844 1160.2,222.533C1156.91,224.222 1152.51,227.022 1147,230.933C1144.69,232.533 1143.53,234.4 1143.53,236.533C1143.53,237.778 1143.98,239.289 1144.87,241.067L1150.73,252.533C1157.67,265.867 1163.44,278.044 1168.07,289.067L1203.8,255.467C1205.04,254.578 1206.29,254.133 1207.53,254.133C1208.78,254.133 1210.02,254.667 1211.27,255.733C1212.51,256.8 1213.13,257.956 1213.13,259.2C1213.13,260.622 1212.6,261.867 1211.53,262.933C1210.29,264.711 1205.84,269.067 1198.2,276C1191.62,282.222 1187.98,285.778 1187.27,286.667C1186.38,287.733 1185.49,288.889 1184.6,290.133C1183.71,291.378 1182.64,292.622 1181.4,293.867C1175.71,300.444 1172.87,307.556 1172.87,315.2C1172.87,316.444 1173.04,318.489 1173.4,321.333C1173.76,322.756 1173.93,324.978 1173.93,328C1173.93,337.956 1170.11,347.822 1162.47,357.6C1160.87,359.733 1158.87,361.378 1156.47,362.533C1154.07,363.689 1151.71,364.267 1149.4,364.267ZM1154.2,347.467C1159.53,344.444 1162.2,338.133 1162.2,328.533C1162.2,326.4 1162.11,324.578 1161.93,323.067C1161.76,321.556 1161.58,320.622 1161.4,320.267C1158.56,324.178 1156.07,328.667 1153.93,333.733C1151.8,338.8 1150.73,342.667 1150.73,345.333C1150.73,348 1151.89,348.711 1154.2,347.467Z" style="fill:white;fill-rule:nonzero;"/>
        </g>
        <g id="Artboard11" serif:id="Artboard1" transform="matrix(1,0,0,1,143.071,60.358)">
            <path d="M2.4,457.6C0.622,457.956 -0.622,458.133 -1.333,458.133C-4.889,458.133 -8.089,457.022 -10.933,454.8C-13.778,452.578 -15.822,449.422 -17.067,445.333C-19.022,439.822 -20.311,434.267 -20.933,428.667C-21.556,423.067 -22.044,415.2 -22.4,405.067C-22.4,400.8 -22.489,397.6 -22.667,395.467L-21.6,376C-20.178,344.178 -18.4,318.933 -16.267,300.267C-14.844,288.356 -13.867,278.933 -13.333,272C-12.8,267.378 -11.867,259.2 -10.533,247.467C-9.2,235.733 -7.911,225.244 -6.667,216C-1.867,182.222 4.622,146.4 12.8,108.533C15.111,97.511 17.867,83.733 21.067,67.2C23.378,54.578 25.333,44.356 26.933,36.533C34.756,-3.289 40.711,-32.978 44.8,-52.533C44.978,-55.022 45.422,-56.711 46.133,-57.6C46.844,-59.378 47.733,-60.578 48.8,-61.2C49.867,-61.822 51.2,-61.956 52.8,-61.6C54.933,-61.067 56,-59.111 56,-55.733C56,-53.067 55.822,-51.2 55.467,-50.133C52.089,-36.267 48.978,-21.511 46.133,-5.867C43.289,9.778 41.511,19.289 40.8,22.667C39.733,29.244 38.222,37.6 36.267,47.733L23.467,114.4C16.711,149.6 11.733,175.911 8.533,193.333C6.578,203.822 4.889,215.378 3.467,228C2.044,240.622 0.711,252.978 -0.533,265.067L-1.333,273.6C-4.356,302.578 -6.756,331.911 -8.533,361.6C-9.067,371.556 -9.333,382.133 -9.333,393.333C-9.333,403.289 -9.067,413.867 -8.533,425.067C-8.533,425.956 -8.489,427.822 -8.4,430.667C-8.311,433.511 -7.822,436.044 -6.933,438.267C-6.044,440.489 -4.622,442.044 -2.667,442.933C-1.422,443.467 -0.178,443.733 1.067,443.733C3.022,443.733 4.933,443.156 6.8,442C8.667,440.844 10.356,439.644 11.867,438.4C13.378,437.156 14.489,436.267 15.2,435.733L43.733,414.133C48.711,410.222 56.578,404.178 67.333,396C78.089,387.822 87.467,380.533 95.467,374.133C101.867,368.978 109.511,363.289 118.4,357.067L129.333,349.067C131.644,347.644 133.6,346.578 135.2,345.867C137.867,344.267 140,343.467 141.6,343.467C143.2,343.467 144.444,344.356 145.333,346.133C145.689,346.844 145.867,347.733 145.867,348.8C145.867,350.933 144.356,353.156 141.333,355.467C121.778,370.4 107.111,381.422 97.333,388.533C91.822,392.444 81.511,400.356 66.4,412.267C53.6,422.4 47.2,427.467 47.2,427.467C42.222,431.378 39.911,433.156 40.267,432.8C29.067,441.333 20.089,448 13.333,452.8C9.778,454.933 6.133,456.533 2.4,457.6Z" style="fill:rgb(248,176,176);fill-rule:nonzero;"/>
            <path d="M204.533,168.267C201.333,167.378 199.733,164.711 199.733,160.267C199.556,155.822 202.489,153.6 208.533,153.6C212.622,153.6 214.667,155.2 214.667,158.4C214.489,160.178 213.111,162.356 210.533,164.933C207.956,167.511 205.956,168.622 204.533,168.267ZM160.8,336.533C158.667,336.889 157.333,337.067 156.8,337.067C149.689,337.067 146.133,331.911 146.133,321.6C146.133,315.022 148.089,304.089 152,288.8C155.911,273.867 160.044,259.244 164.4,244.933C168.756,230.622 172,221.511 174.133,217.6C176.089,214.044 178.578,212.8 181.6,213.867C183.911,214.756 185.067,216.533 185.067,219.2C185.067,221.333 184.533,224.267 183.467,228C181.867,232.978 178.578,243.733 173.6,260.267L162.4,297.333C160.8,302.311 159.422,306.978 158.267,311.333C157.111,315.689 156.533,318.844 156.533,320.8C156.533,323.111 157.244,324.267 158.667,324.267C160.978,324.267 164.622,321.867 169.6,317.067C181.867,304.8 195.378,289.6 210.133,271.467C213.333,267.556 215.822,264.622 217.6,262.667C219.022,260.889 220.711,260 222.667,260C223.733,260 224.711,260.356 225.6,261.067C227.2,262.311 228,263.733 228,265.333C228,266.578 227.378,268.178 226.133,270.133C225.067,271.911 224.178,273.244 223.467,274.133C209.067,292.267 196.667,306.889 186.267,318C175.867,329.111 167.378,335.289 160.8,336.533Z" style="fill:rgb(248,176,176);fill-rule:nonzero;"/>
            <path d="M231.467,339.733C228.978,339.733 227.156,339.022 226,337.6C224.844,336.178 224,334.311 223.467,332C222.756,329.511 222.578,326.489 222.933,322.933C223.289,311.556 223.467,303.022 223.467,297.333C223.467,275.644 222.311,252.089 220,226.667C219.467,220.622 221.333,217.422 225.6,217.067C228.089,217.067 230,217.822 231.333,219.333C232.667,220.844 233.422,222.756 233.6,225.067C235.022,236.267 235.822,247.378 236,258.4C236.178,269.067 236.267,285.156 236.267,306.667C239.822,302.044 242.889,297.067 245.467,291.733C248.044,286.4 250.756,280.089 253.6,272.8C255.378,268.178 256.8,264.711 257.867,262.4L268.8,235.733C270.222,232.889 271.111,231.2 271.467,230.667C271.822,230.133 272.489,229.156 273.467,227.733C274.444,226.311 275.511,225.2 276.667,224.4C277.822,223.6 279.111,223.2 280.533,223.2C283.378,223.2 285.2,223.956 286,225.467C286.8,226.978 287.644,229.422 288.533,232.8C290.133,239.556 291.733,244.311 293.333,247.067C294.933,249.822 297.244,251.2 300.267,251.2C303.289,251.2 308.178,249.511 314.933,246.133C316.356,245.244 317.6,244.8 318.667,244.8C320.089,244.8 321.156,245.511 321.867,246.933C322.578,247.822 322.933,248.8 322.933,249.867C322.933,251.467 321.867,253.067 319.733,254.667C314.933,258.756 309.422,260.8 303.2,260.8C298.756,260.8 294.667,259.644 290.933,257.333C287.2,255.022 284.178,251.733 281.867,247.467C281.689,246.933 280.711,245.689 278.933,243.733C273.067,257.6 269.156,267.2 267.2,272.533C264,281.244 260.178,290.489 255.733,300.267C251.289,310.044 248.444,316.356 247.2,319.2L244.267,325.333C243.2,327.644 241.244,330.933 238.4,335.2C236.267,338.222 233.956,339.733 231.467,339.733Z" style="fill:rgb(248,176,176);fill-rule:nonzero;"/>
            <path d="M335.733,326.4C331.644,328.178 327.644,329.067 323.733,329.067C316.444,329.067 310.222,326.222 305.067,320.533C299.911,314.844 297.422,306.4 297.6,295.2C300.622,279.022 305.111,265.289 311.067,254C317.022,242.711 326.667,233.689 340,226.933C342.667,225.511 345.6,224.8 348.8,224.8C352,224.8 354.756,225.733 357.067,227.6C359.378,229.467 361.067,232.089 362.133,235.467C362.489,237.244 362.667,238.489 362.667,239.2C362.667,240.978 362.044,243.467 360.8,246.667C357.067,255.556 352.222,263.244 346.267,269.733C340.311,276.222 332.978,282.044 324.267,287.2C322.489,288.267 320.444,289.156 318.133,289.867C316,290.578 314.489,291.244 313.6,291.867C312.711,292.489 312.267,293.689 312.267,295.467C312.267,307.2 316.267,313.067 324.267,313.067C326.933,313.067 329.867,312.533 333.067,311.467C339.467,309.511 347.156,304.622 356.133,296.8C365.111,288.978 372.622,281.511 378.667,274.4L380,272.533C383.022,268.8 385.6,266.933 387.733,266.933C388.978,266.933 390.133,267.467 391.2,268.533C392.8,270.133 393.6,271.822 393.6,273.6C393.6,275.378 392.622,277.778 390.667,280.8C384.8,288.8 376.311,297.467 365.2,306.8C354.089,316.133 344.267,322.667 335.733,326.4ZM317.333,276.8C329.956,269.867 339.911,260 347.2,247.2C347.378,246.667 347.867,245.822 348.667,244.667C349.467,243.511 349.867,242.4 349.867,241.333C349.867,240.622 349.422,239.822 348.533,238.933C347.822,238.222 346.844,237.867 345.6,237.867C344.178,237.867 342.667,238.444 341.067,239.6C339.467,240.756 337.511,242.489 335.2,244.8C330.4,250.311 326.489,255.511 323.467,260.4C320.444,265.289 318.4,270.756 317.333,276.8Z" style="fill:rgb(248,176,176);fill-rule:nonzero;"/>
            <path d="M481.6,524.8C475.022,522.489 469.867,518.222 466.133,512C462.4,505.778 460.533,499.022 460.533,491.733C460.533,485.333 461.644,479.289 463.867,473.6C466.089,467.911 469.333,461.156 473.6,453.333C483.022,436.622 493.333,421.689 504.533,408.533C516.444,394.667 527.911,382.311 538.933,371.467L545.867,364.8C559.022,352 570.489,341.244 580.267,332.533C599.289,315.644 614.578,303.2 626.133,295.2L638.4,286.667C649.778,278.489 658.4,272.622 664.267,269.067C672.089,264.089 677.956,260.267 681.867,257.6C692.178,250.489 700.178,245.422 705.867,242.4C707.822,241.333 708.8,239.911 708.8,238.133C708.8,236.889 708.622,235.822 708.267,234.933C706.667,230.844 704.267,227.822 701.067,225.867C697.867,223.911 693.956,222.578 689.333,221.867C686.489,221.333 683.467,221.067 680.267,221.067C677.6,221.067 675.556,221.244 674.133,221.6C666.667,221.422 659.289,221.778 652,222.667C644.711,223.556 635.644,224.889 624.8,226.667C605.422,229.867 590.578,231.822 580.267,232.533L574.667,232.8C569.689,233.156 566.044,233.333 563.733,233.333C556.444,233.333 550.222,232.444 545.067,230.667C538.133,228.356 533.244,224.489 530.4,219.067C527.556,213.644 526.133,207.022 526.133,199.2C526.133,192.622 527.2,186.267 529.333,180.133C531.467,174 534.4,167.378 538.133,160.267C545.244,147.111 555.289,134.311 568.267,121.867C578.044,112.444 587.111,104.578 595.467,98.267C603.822,91.956 612.889,87.022 622.667,83.467C630.489,80.622 636.578,78.533 640.933,77.2C645.289,75.867 649.956,75.2 654.933,75.2C658.133,75.2 660.533,75.378 662.133,75.733C669.067,76.978 674.889,78.489 679.6,80.267C684.311,82.044 688.444,84.978 692,89.067C694.311,91.733 696.133,94.267 697.467,96.667C698.8,99.067 699.556,101.689 699.733,104.533C699.733,108.444 698.133,110.756 694.933,111.467L693.867,111.467C692.622,111.467 691.556,111.022 690.667,110.133C689.778,109.244 689.156,108.089 688.8,106.667C687.911,100.089 684.711,95.378 679.2,92.533C670.489,87.911 662.667,85.956 655.733,86.667C640.444,88.267 625.956,93.422 612.267,102.133C605.333,106.578 599.911,110.178 596,112.933C592.089,115.689 588.356,118.844 584.8,122.4C572.356,134.844 562.533,145.911 555.333,155.6C548.133,165.289 543.111,176.356 540.267,188.8C539.2,193.244 538.667,197.956 538.667,202.933C538.667,207.911 540.089,211.867 542.933,214.8C545.778,217.733 549.778,219.644 554.933,220.533C558.667,221.067 562.489,221.333 566.4,221.333C572.978,221.333 581.067,220.533 590.667,218.933L602.667,217.333C613.333,215.911 621.333,214.756 626.667,213.867C637.511,212.089 647.022,210.711 655.2,209.733C663.378,208.756 671.467,208.267 679.467,208.267C686.4,208.267 692.622,208.978 698.133,210.4C706.844,212.711 713.511,217.867 718.133,225.867C718.844,227.111 719.511,228.356 720.133,229.6C720.756,230.844 721.333,231.467 721.867,231.467C722.4,231.467 723.333,231.067 724.667,230.267C726,229.467 727.022,228.8 727.733,228.267C729.511,227.2 731.067,226.222 732.4,225.333C733.733,224.444 734.933,223.733 736,223.2L740.8,220C742.578,218.933 744,218.4 745.067,218.4C746.667,218.4 748,219.2 749.067,220.8C749.6,221.867 749.867,222.844 749.867,223.733C749.867,225.511 748.8,227.2 746.667,228.8C737.778,234.844 731.111,239.289 726.667,242.133C724.533,243.378 723.556,245.244 723.733,247.733C723.911,249.156 724,251.378 724,254.4C724,263.644 722.978,272.889 720.933,282.133C718.889,291.378 716,301.6 712.267,312.8C709.6,320.267 706.622,327.556 703.333,334.667C700.044,341.778 695.733,350.578 690.4,361.067L687.733,366.4C675.644,390.044 661.6,412.267 645.6,433.067C631.733,451.2 617.778,466.044 603.733,477.6C589.689,489.156 577.733,498.356 567.867,505.2C558,512.044 547.289,517.6 535.733,521.867C524.356,526.133 513.511,528.267 503.2,528.267C495.733,528.267 488.533,527.111 481.6,524.8ZM491.467,515.2C496.089,515.556 499.467,515.733 501.6,515.733C515.644,515.733 528.444,512.533 540,506.133C562.578,493.511 582.222,479.733 598.933,464.8C614.044,451.289 628.889,434.667 643.467,414.933C650.222,405.689 659.111,391.556 670.133,372.533L672.8,368C673.511,366.933 675.778,363.111 679.6,356.533C683.422,349.956 686.578,343.467 689.067,337.067C694.222,324.444 698.089,314.578 700.667,307.467C703.244,300.356 705.511,292.978 707.467,285.333C710.489,273.244 711.733,261.956 711.2,251.467C707.822,253.956 701.333,258.222 691.733,264.267L680,271.467C663.467,282.133 647.822,292.978 633.067,304C607.467,322.844 583.556,343.378 561.333,365.6L550.667,376C535.378,390.933 523.822,403.2 516,412.8C508,422.578 501.244,431.333 495.733,439.067C490.222,446.8 485.422,454.844 481.333,463.2C478.489,468.889 476.356,473.867 474.933,478.133C473.511,482.4 472.8,486.844 472.8,491.467C472.8,497.867 474.489,503.244 477.867,507.6C481.244,511.956 485.778,514.489 491.467,515.2Z" style="fill:rgb(248,176,176);fill-rule:nonzero;"/>
            <path d="M727.2,400.6C725.867,401.133 724.933,401.4 724.4,401.4C723.067,401.4 721.933,400.8 721,399.6C720.067,398.667 719.6,397.6 719.6,396.4C719.6,395.467 719.867,394.733 720.4,394.2C723.2,391 725.233,387.467 726.5,383.6C727.767,379.733 728.933,374.933 730,369.2C731.067,364.133 731.933,360.4 732.6,358C734.333,352.267 739.1,334.6 746.9,305C754.7,275.4 761.667,248.867 767.8,225.4L772.4,208C776,194.667 780.333,180.667 785.4,166C785.667,165.067 786.267,163.433 787.2,161.1C788.133,158.767 788.6,156.6 788.6,154.6C787.533,154.2 786.6,154 785.8,154C785,154 784.1,154.133 783.1,154.4C782.1,154.667 781.333,154.867 780.8,155C742.267,163.8 709.4,172.133 682.2,180L669.4,183.6C652.067,188.267 638.2,192.533 627.8,196.4C623.533,198 619.867,199.6 616.8,201.2C615.467,202 614.2,202.4 613,202.4C611.4,202.4 610.133,201.533 609.2,199.8C608.8,199 608.6,198.267 608.6,197.6C608.6,195.733 609.867,194.067 612.4,192.6C616.533,190.467 621.533,188.333 627.4,186.2C646.733,179.533 667.933,173.2 691,167.2L713,161.4C737.933,154.733 755.867,150.133 766.8,147.6C775.733,145.6 782.867,144.133 788.2,143.2C790.333,142.8 792.033,142 793.3,140.8C794.567,139.6 795.667,137.867 796.6,135.6C801.933,122.267 806.867,110.433 811.4,100.1C815.933,89.767 820.8,79.867 826,70.4C827.733,67.2 829.333,65.067 830.8,64C832,62.8 833.267,62.2 834.6,62.2C835.267,62.2 836,62.4 836.8,62.8C839.2,64 840.067,65.933 839.4,68.6C838.2,73.4 836.6,78.733 834.6,84.6C834.467,85 834.2,85.433 833.8,85.9C833.4,86.367 833,86.6 832.6,86.6C830.333,87 828.667,87.933 827.6,89.4C826.533,90.867 825.633,92.5 824.9,94.3C824.167,96.1 823.6,97.4 823.2,98.2L821,102.8C817.4,110.8 814.567,117.267 812.5,122.2C810.433,127.133 808.6,132.333 807,137.8C808.067,138.333 809.067,138.6 810,138.6C810.667,138.6 811.533,138.467 812.6,138.2C828.467,134.6 853.667,129.533 888.2,123L904,120L921.4,117L926.2,116.2C927.8,115.933 929.167,115.767 930.3,115.7C931.433,115.633 932.4,115.6 933.2,115.6C937.733,115.6 939.867,117.4 939.6,121C939.6,122.467 939.067,123.633 938,124.5C936.933,125.367 935.467,125.8 933.6,125.8C927.867,126.2 922.367,126.833 917.1,127.7C911.833,128.567 904.267,130 894.4,132C890.133,132.933 883.733,134.2 875.2,135.8C863.867,137.8 847,141.067 824.6,145.6L810,148.6C806.933,149.267 804.533,150.3 802.8,151.7C801.067,153.1 799.733,155.2 798.8,158C793.067,174 787.067,193.1 780.8,215.3C774.533,237.5 766.267,267.867 756,306.4L754.8,311.2L735.8,383.8C734.467,388.867 733.133,392.6 731.8,395C730.467,397.533 728.933,399.4 727.2,400.6Z" style="fill:rgb(248,176,176);fill-rule:nonzero;stroke:rgb(248,176,176);stroke-width:2.29px;"/>
            <path d="M771,330.4C768.511,329.333 767.178,327.733 767,325.6L767,323.467C767,322.044 767.178,320.622 767.533,319.2C772.333,306.222 777.578,288.8 783.267,266.933C787.533,251.111 791.178,238.489 794.2,229.067C794.556,227.644 794.911,226.667 795.267,226.133C796.689,222.933 798.556,221.333 800.867,221.333C801.4,221.333 802.2,221.511 803.267,221.867C805.933,222.578 807.267,224.267 807.267,226.933C807.267,227.467 807.089,228.444 806.733,229.867C804.067,237.689 802.022,244.711 800.6,250.933L800.6,255.467C802.2,255.644 803.489,255.422 804.467,254.8C805.444,254.178 806.289,253.467 807,252.667C807.711,251.867 808.244,251.289 808.6,250.933C812.156,248.622 815.444,247.467 818.467,247.467C821.311,247.467 823.889,248.622 826.2,250.933C828.511,252.889 830.733,253.867 832.867,253.867C835.178,253.867 837.489,253.067 839.8,251.467C847.089,247.022 853.933,241.867 860.333,236C862.467,233.867 864.689,231.911 867,230.133C868.067,229.6 869.044,229.333 869.933,229.333C871.356,229.333 872.422,229.867 873.133,230.933C874.378,232.178 875,233.422 875,234.667C875,235.2 874.822,236 874.467,237.067C874.111,237.6 873.622,238.489 873,239.733C872.378,240.978 871.711,241.867 871,242.4C867.089,245.6 864.244,248.089 862.467,249.867C858.2,253.6 854.556,256.578 851.533,258.8C848.511,261.022 845.311,262.844 841.933,264.267C837.844,266.044 834.467,266.933 831.8,266.933C829.311,266.933 826.467,266.044 823.267,264.267C820.778,262.667 818.733,261.867 817.133,261.867C814.644,261.867 812.333,263.289 810.2,266.133C796.689,283.733 787.089,301.6 781.4,319.733C780.867,321.333 780.289,322.933 779.667,324.533C779.044,326.133 778.289,327.467 777.4,328.533C775.267,330.489 773.133,331.111 771,330.4Z" style="fill:rgb(248,176,176);fill-rule:nonzero;"/>
            <path d="M883.533,326.4C879.444,328.178 875.444,329.067 871.533,329.067C864.244,329.067 858.022,326.222 852.867,320.533C847.711,314.844 845.222,306.4 845.4,295.2C848.422,279.022 852.911,265.289 858.867,254C864.822,242.711 874.467,233.689 887.8,226.933C890.467,225.511 893.4,224.8 896.6,224.8C899.8,224.8 902.556,225.733 904.867,227.6C907.178,229.467 908.867,232.089 909.933,235.467C910.289,237.244 910.467,238.489 910.467,239.2C910.467,240.978 909.844,243.467 908.6,246.667C904.867,255.556 900.022,263.244 894.067,269.733C888.111,276.222 880.778,282.044 872.067,287.2C870.289,288.267 868.244,289.156 865.933,289.867C863.8,290.578 862.289,291.244 861.4,291.867C860.511,292.489 860.067,293.689 860.067,295.467C860.067,307.2 864.067,313.067 872.067,313.067C874.733,313.067 877.667,312.533 880.867,311.467C887.267,309.511 894.956,304.622 903.933,296.8C912.911,288.978 920.422,281.511 926.467,274.4L927.8,272.533C930.822,268.8 933.4,266.933 935.533,266.933C936.778,266.933 937.933,267.467 939,268.533C940.6,270.133 941.4,271.822 941.4,273.6C941.4,275.378 940.422,277.778 938.467,280.8C932.6,288.8 924.111,297.467 913,306.8C901.889,316.133 892.067,322.667 883.533,326.4ZM865.133,276.8C877.756,269.867 887.711,260 895,247.2C895.178,246.667 895.667,245.822 896.467,244.667C897.267,243.511 897.667,242.4 897.667,241.333C897.667,240.622 897.222,239.822 896.333,238.933C895.622,238.222 894.644,237.867 893.4,237.867C891.978,237.867 890.467,238.444 888.867,239.6C887.267,240.756 885.311,242.489 883,244.8C878.2,250.311 874.289,255.511 871.267,260.4C868.244,265.289 866.2,270.756 865.133,276.8Z" style="fill:rgb(248,176,176);fill-rule:nonzero;"/>
            <path d="M921.933,324.267C918.911,322.133 917.4,319.111 917.4,315.2L917.667,312C918.556,303.467 920.644,295.2 923.933,287.2C927.222,279.2 931.622,270.933 937.133,262.4C942.289,254.4 946.778,247.911 950.6,242.933C954.422,237.956 958.911,233.6 964.067,229.867L969.667,225.867C973.222,223.556 976.689,222.4 980.067,222.4C983.267,222.4 985.844,223.6 987.8,226C989.756,228.4 990.911,231.822 991.267,236.267C991.444,238.044 991.533,240.711 991.533,244.267L991.533,252.267C991.178,255.467 990.378,257.6 989.133,258.667C985.578,262.222 983.133,266.044 981.8,270.133C980.467,274.222 979.267,279.822 978.2,286.933C977.667,292.444 976.778,297.156 975.533,301.067C980.867,298.756 987.4,294.178 995.133,287.333C1002.87,280.489 1008.07,274.667 1010.73,269.867C1011.09,269.156 1011.62,268.044 1012.33,266.533C1013.04,265.022 1013.89,263.822 1014.87,262.933C1015.84,262.044 1016.96,261.6 1018.2,261.6C1022.29,261.6 1024.33,263.378 1024.33,266.933C1024.33,269.244 1023.44,272.089 1021.67,275.467C1018.64,280.978 1013.09,287.467 1005,294.933C996.911,302.4 989.044,308.978 981.4,314.667C978.556,316.978 975.711,318.133 972.867,318.133C970.911,318.133 969.133,317.689 967.533,316.8C964.333,315.022 962.733,312.089 962.733,308C962.733,304.8 963.267,299.644 964.333,292.533C964.689,291.467 965.044,289.333 965.4,286.133C963.978,286.133 962.911,286.444 962.2,287.067C961.489,287.689 960.911,288.4 960.467,289.2C960.022,290 959.711,290.578 959.533,290.933C958.822,292 956.6,295.289 952.867,300.8C949.133,306.311 945.222,311.289 941.133,315.733C938.822,318.4 936.6,320.533 934.467,322.133C931.444,324.444 928.778,325.6 926.467,325.6C924.689,325.6 923.178,325.156 921.933,324.267ZM929.133,309.333C933.044,305.6 938.778,298.311 946.333,287.467C953.889,276.622 960.822,265.822 967.133,255.067C973.444,244.311 977.044,236.978 977.933,233.067C965.667,242.667 955.756,253.644 948.2,266C940.644,278.356 934.289,292.8 929.133,309.333Z" style="fill:rgb(248,176,176);fill-rule:nonzero;"/>
            <path d="M1003,325.867C1000.33,324.444 999,322.311 999,319.467C999,318.044 999.267,316.533 999.8,314.933L1003,301.867C1003.53,299.556 1005.18,292.844 1007.93,281.733C1010.69,270.622 1013.67,260.267 1016.87,250.667L1017.4,248.267C1019.18,242.756 1021.93,240 1025.67,240C1026.56,240 1027.27,240.089 1027.8,240.267C1030.47,240.978 1031.8,242.844 1031.8,245.867C1031.8,247.467 1031.36,249.867 1030.47,253.067L1024.07,273.6L1025.67,275.2L1038.47,260.533C1041.67,256.622 1044.96,254.667 1048.33,254.667C1054.02,254.667 1058.11,258.489 1060.6,266.133C1060.96,267.2 1061.22,269.111 1061.4,271.867C1061.58,274.622 1062.29,276.8 1063.53,278.4L1064.33,278.4C1065.76,278.4 1066.91,277.822 1067.8,276.667C1068.69,275.511 1069.31,274.667 1069.67,274.133C1074.29,269.156 1081.58,262.222 1091.53,253.333L1100.6,245.067C1103.27,242.756 1105.4,241.156 1107,240.267C1109.13,238.844 1111.44,238.133 1113.93,238.133C1118.56,238.133 1121.93,240.978 1124.07,246.667C1125.13,249.333 1125.71,252.356 1125.8,255.733C1125.89,259.111 1125.93,261.333 1125.93,262.4L1125.93,269.333C1125.93,272.356 1126.29,274.933 1127,277.067C1127.53,277.6 1128.07,277.867 1128.6,277.867C1129.13,277.867 1129.84,277.422 1130.73,276.533C1132.51,274.4 1134.2,273.333 1135.8,273.333C1136.87,273.333 1137.84,273.689 1138.73,274.4C1140.51,275.644 1141.4,277.333 1141.4,279.467C1141.4,280.178 1141.04,281.6 1140.33,283.733C1139.44,286.222 1137.89,288.178 1135.67,289.6C1133.44,291.022 1131.09,291.733 1128.6,291.733C1125.22,291.733 1122.11,290.489 1119.27,288C1115.36,284.267 1113.49,279.822 1113.67,274.667C1113.67,270.044 1113.58,266.578 1113.4,264.267C1113.4,263.022 1113.22,259.733 1112.87,254.4C1110.02,254.756 1107.58,255.689 1105.53,257.2C1103.49,258.711 1100.96,260.978 1097.93,264C1090.64,271.289 1082.73,279.644 1074.2,289.067C1070.82,292.8 1067.53,295.378 1064.33,296.8C1062.2,297.689 1060.51,298.133 1059.27,298.133C1055.71,298.133 1053.04,296.089 1051.27,292C1050.2,289.511 1049.49,285.689 1049.13,280.533C1049.13,277.867 1048.87,275.378 1048.33,273.067C1047.27,272.711 1046.64,272.533 1046.47,272.533C1045.22,272.533 1044.33,273.067 1043.8,274.133C1043.27,275.2 1042.91,275.822 1042.73,276C1035.62,285.244 1029.84,293.067 1025.4,299.467C1020.96,305.867 1017.04,312.711 1013.67,320C1011.53,324.267 1008.96,326.4 1005.93,326.4C1004.69,326.4 1003.71,326.222 1003,325.867Z" style="fill:rgb(248,176,176);fill-rule:nonzero;"/>
            <path d="M1149.4,364.267C1145.84,364.267 1143.13,363.067 1141.27,360.667C1139.4,358.267 1138.47,355.022 1138.47,350.933C1138.47,349.156 1138.56,347.733 1138.73,346.667C1140.33,337.244 1144.07,328.444 1149.93,320.267C1154.56,313.689 1156.87,307.2 1156.87,300.8C1156.87,295.822 1155.62,290.933 1153.13,286.133L1135.53,249.867C1133.04,244.711 1131.8,240 1131.8,235.733C1131.8,228.089 1136.16,221.956 1144.87,217.333C1150.38,214.311 1157.49,211.378 1166.2,208.533C1167.98,207.822 1169.49,207.556 1170.73,207.733C1175.71,207.733 1178.29,209.956 1178.47,214.4C1178.47,216.356 1177.84,217.911 1176.6,219.067C1175.36,220.222 1173.76,220.711 1171.8,220.533C1167.36,220.178 1163.49,220.844 1160.2,222.533C1156.91,224.222 1152.51,227.022 1147,230.933C1144.69,232.533 1143.53,234.4 1143.53,236.533C1143.53,237.778 1143.98,239.289 1144.87,241.067L1150.73,252.533C1157.67,265.867 1163.44,278.044 1168.07,289.067L1203.8,255.467C1205.04,254.578 1206.29,254.133 1207.53,254.133C1208.78,254.133 1210.02,254.667 1211.27,255.733C1212.51,256.8 1213.13,257.956 1213.13,259.2C1213.13,260.622 1212.6,261.867 1211.53,262.933C1210.29,264.711 1205.84,269.067 1198.2,276C1191.62,282.222 1187.98,285.778 1187.27,286.667C1186.38,287.733 1185.49,288.889 1184.6,290.133C1183.71,291.378 1182.64,292.622 1181.4,293.867C1175.71,300.444 1172.87,307.556 1172.87,315.2C1172.87,316.444 1173.04,318.489 1173.4,321.333C1173.76,322.756 1173.93,324.978 1173.93,328C1173.93,337.956 1170.11,347.822 1162.47,357.6C1160.87,359.733 1158.87,361.378 1156.47,362.533C1154.07,363.689 1151.71,364.267 1149.4,364.267ZM1154.2,347.467C1159.53,344.444 1162.2,338.133 1162.2,328.533C1162.2,326.4 1162.11,324.578 1161.93,323.067C1161.76,321.556 1161.58,320.622 1161.4,320.267C1158.56,324.178 1156.07,328.667 1153.93,333.733C1151.8,338.8 1150.73,342.667 1150.73,345.333C1150.73,348 1151.89,348.711 1154.2,347.467Z" style="fill:rgb(248,176,176);fill-rule:nonzero;"/>
        </g>
    </g>
</svg>
