<svg xmlns="http://www.w3.org/2000/svg" width="541.6743" height="93.3174" viewBox="0 0 541.6743 93.3174"><defs><style>.cc08804c-e86a-4d36-b758-f2902e9fc6ee{fill:none;stroke:#769f74;stroke-miterlimit:10;stroke-width:3px;}</style></defs><title>livewith</title><g id="5f97e624-74f9-48c2-8b16-a13d2d835537" data-name="Layer 2"><g id="897bcc43-eb30-4df3-a06d-b6e7a4503ca2" data-name="Layer 1"><path class="cc08804c-e86a-4d36-b758-f2902e9fc6ee" d="M11.6841,23.3418H23.3423V103.877H61.9355v9.7822H11.6841Z" transform="translate(-10.1841 -21.8418)"/><path class="cc08804c-e86a-4d36-b758-f2902e9fc6ee" d="M86.5879,23.3418v90.3174H74.93V23.3418Z" transform="translate(-10.1841 -21.8418)"/><path class="cc08804c-e86a-4d36-b758-f2902e9fc6ee" d="M126.7891,113.6592l-29.48-90.3174h12.5957l14.07,44.4883c3.8857,12.1943,7.2363,23.1826,9.6484,33.7686h.2676c2.5459-10.4521,6.2988-21.8418,10.3184-33.6348l15.2764-44.6221h12.4619l-32.2949,90.3174Z" transform="translate(-10.1841 -21.8418)"/><path class="cc08804c-e86a-4d36-b758-f2902e9fc6ee" d="M228.4941,71.3145H193.3857V103.877h39.1289v9.7822H181.7275V23.3418h48.7773V33.124H193.3857V61.666h35.1084Z" transform="translate(-10.1841 -21.8418)"/><path class="cc08804c-e86a-4d36-b758-f2902e9fc6ee" d="M285.9785,113.6592l-22.915-90.3174h12.3281l10.7207,45.6943c2.68,11.2568,5.0918,22.5127,6.7,31.2227h.2676c1.4746-8.9785,4.2881-19.6982,7.37-31.3564l12.0605-45.5605h12.1943L335.6934,69.17c2.5459,10.7207,4.958,21.44,6.2979,30.9551h.2686c1.876-9.916,4.4219-19.9668,7.2354-31.2227l11.9268-45.5605h11.9258l-25.5937,90.3174H335.56L324.1689,66.624a271.8761,271.8761,0,0,1-5.8965-29.48h-.2676a282.34,282.34,0,0,1-6.9678,29.48l-12.8643,47.0352Z" transform="translate(-10.1841 -21.8418)"/><path class="cc08804c-e86a-4d36-b758-f2902e9fc6ee" d="M396.2588,23.3418v90.3174H384.6006V23.3418Z" transform="translate(-10.1841 -21.8418)"/><path class="cc08804c-e86a-4d36-b758-f2902e9fc6ee" d="M433.7793,33.2578H406.3086v-9.916h66.8672v9.916H445.5713v80.4014h-11.792Z" transform="translate(-10.1841 -21.8418)"/><path class="cc08804c-e86a-4d36-b758-f2902e9fc6ee" d="M494.8818,23.3418V61.13h43.6846V23.3418h11.792v90.3174h-11.792V71.3145H494.8818v42.3447H483.2236V23.3418Z" transform="translate(-10.1841 -21.8418)"/></g></g></svg>