<?xml version="1.0" encoding="UTF-8" standalone="no"?>
<!DOCTYPE svg PUBLIC "-//W3C//DTD SVG 1.1//EN" "http://www.w3.org/Graphics/SVG/1.1/DTD/svg11.dtd">
<svg width="100%" height="100%" viewBox="0 0 3692 3828" version="1.1" xmlns="http://www.w3.org/2000/svg" xmlns:xlink="http://www.w3.org/1999/xlink" xml:space="preserve" xmlns:serif="http://www.serif.com/" style="fill-rule:evenodd;clip-rule:evenodd;stroke-linejoin:round;stroke-miterlimit:2;">
    <g transform="matrix(1,0,0,1,-1983.31,-1469.86)">
        <g transform="matrix(4.16667,0,0,4.16667,0,0)">
            <g transform="matrix(1,0,0,1,-45.4479,-300.984)">
                <g transform="matrix(2.52193,0,0,2.52193,961.985,1212.2)">
                    <g transform="matrix(1,0,0,1,-161.934,-142.797)">
                        <g id="_19a3754e-17dc-4d38-9b38-ee63dbd44d18" serif:id="19a3754e-17dc-4d38-9b38-ee63dbd44d18">
                            <g id="d81a9988-ba32-4916-abb8-663c2e63aa47">
                                <path d="M319.292,109.899C318.799,110.464 318.328,111.048 317.852,111.627C310.391,120.696 302.927,129.764 295.46,138.829C294.422,140.086 293.253,141.234 291.565,143.059C291.518,142.1 291.522,141.139 291.577,140.18C292.782,132.156 294.133,124.152 295.194,116.11C295.978,110.173 296.511,104.194 296.874,98.216C296.951,96.953 295.804,95.615 295.221,94.312C294.055,95.03 292.487,95.48 291.797,96.516C289.308,100.248 287.12,104.18 284.808,108.031C280.57,115.09 276.461,122.234 271.999,129.149C270.621,131.285 268.272,132.794 266.367,134.589L265.175,133.952C265.056,131.777 265.071,129.596 265.22,127.422C265.821,122.593 266.867,117.811 267.287,112.972C267.415,111.496 266.091,109.894 265.432,108.35C264.383,109.503 262.948,110.493 262.376,111.847C261.517,113.88 261.263,116.168 260.656,118.754C258.081,115.832 256.548,117.986 254.841,119.743C249.275,125.473 243.736,131.232 238.042,136.832C236.333,138.473 234.389,139.851 232.275,140.921C229.954,142.12 227.279,143.249 225.306,140.241C223.613,137.657 224.357,134.496 226.972,132.241C234.674,125.603 240.034,117.589 241.897,107.402C242.364,104.845 242.567,102.076 240.038,101.256C238.06,100.614 235.4,101.515 233.226,102.262C232.093,102.651 231.186,104.083 230.465,105.226C227.285,110.264 224.21,115.367 220.993,120.617C216.492,118.917 214.782,123.564 211.877,125.651C208.719,127.92 205.947,130.729 202.569,133.686C200.607,123.375 195.271,115.866 188.011,109.56C187.642,109.223 187.305,108.853 187.002,108.455C184.42,105.225 184.177,102.963 187.241,100.293C191.073,97.146 195.095,94.237 199.284,91.584C200.727,90.611 203.018,90.053 201.687,87.928C201.169,87.102 198.415,86.734 197.369,87.342C192.189,90.357 187.24,93.767 182.544,96.82C182.609,96.486 182.694,96.156 182.798,95.833C189.764,73.31 196.73,50.787 203.698,28.265C204.495,26.036 205.121,23.75 205.571,21.427C205.64,20.262 205.126,19.136 204.2,18.425C203.069,18.244 201.921,18.656 201.163,19.515C199.461,21.971 197.976,24.57 196.725,27.283C186.252,50.205 175.88,73.172 165.386,96.085C164.644,97.705 163.48,99.684 162.004,100.323C155.359,103.201 150.855,108.166 147.165,114.129C146.631,114.903 145.946,115.561 145.151,116.064C143.632,117.106 141.657,117.707 140.523,119.044C135.19,125.33 130.173,131.884 124.847,138.176C122.414,141.051 119.529,143.544 116.849,146.21L115.665,145.578C117.025,138.628 118.408,131.683 119.735,124.727C120.857,118.851 122.117,112.987 122.857,107.061C122.87,105.269 122.009,103.579 120.552,102.537C119.268,101.867 116.985,102.465 115.423,103.153C113.851,103.937 112.482,105.074 111.422,106.476C106.349,112.793 101.404,119.214 96.423,125.605C95.656,126.59 94.94,127.614 94.2,128.62L92.986,128.049C94.206,124.069 95.453,120.098 96.636,116.107C97.249,114.043 97.34,112.038 94.81,111.164C92.365,110.319 91.555,111.838 90.87,113.868C90.356,115.631 89.507,117.278 88.369,118.72C80.939,127.163 73.391,135.503 65.824,143.825C64.507,145 63.105,146.074 61.628,147.039C61.846,144.117 61.692,142.357 62.141,140.768C66.141,126.615 70.206,112.481 74.335,98.365C75.015,96.025 76.783,93.278 73.402,92.071C72.593,91.782 69.846,94.466 69.335,96.183C64.783,111.479 60.439,126.836 56.304,142.253C55.741,144.351 56.269,146.977 56.984,149.127C58.134,152.58 61.064,153.61 64.174,151.64C66.807,149.982 69.212,147.989 71.33,145.71C76.321,140.287 81.075,134.644 85.857,129.033C86.453,128.14 86.939,127.178 87.305,126.169L88.44,127.227C88.359,127.711 88.287,128.196 88.195,128.677C87.225,133.702 86.107,138.705 85.397,143.765C85.249,144.821 86.607,146.089 87.271,147.259C88.371,146.671 89.427,146.004 90.429,145.262C90.957,144.818 91.111,143.949 91.491,143.305C97.958,132.334 104.176,121.187 113.04,111.864C114.129,110.846 115.282,109.897 116.491,109.023L117.52,109.655C117.008,112.536 116.502,115.418 115.983,118.298C114.347,127.377 112.518,136.428 111.215,145.554C110.936,147.511 112.137,151.146 113.389,151.514C115.293,152.073 118.289,151.017 120.011,149.636C123.099,147.16 125.65,143.991 128.308,141.006C132.19,136.647 135.969,132.195 140.242,127.264C139.968,128.582 139.763,129.914 139.627,131.254C139.533,133.811 138.748,136.715 141.917,138.115C145.263,139.594 146.844,136.872 148.191,134.818C153.453,126.794 158.454,118.599 163.609,110.505C164.432,109.213 165.737,107.025 166.498,107.153C168.159,107.546 169.581,108.621 170.41,110.114C171.318,111.941 171.618,114.01 171.266,116.02C166.169,137.375 160.793,158.665 155.67,180.015C153.749,188.02 152.212,196.123 150.729,204.223C150.534,205.286 151.707,206.599 152.247,207.797C153.36,207.081 154.417,206.281 155.408,205.404C155.819,204.776 156.064,204.054 156.122,203.305C160.128,185.407 163.933,167.462 168.176,149.62C171.562,135.388 175.478,121.282 179.186,107.014C182.58,110.666 185.85,113.619 188.415,117.093C191.481,121.147 194.142,125.493 196.357,130.068C198.652,134.97 197.833,139.397 193.424,143.508C188.433,148.13 184.949,154.151 183.429,160.782C182.479,164.916 184.274,169.261 187.349,170.939C190.393,172.6 194.277,171.747 197.4,168.27C199.069,166.59 200.304,164.529 200.997,162.264C202.304,156.467 202.986,150.532 204.022,144.67C204.378,142.654 204.443,140.119 205.684,138.813C209.909,134.366 214.598,130.362 219.11,126.188L220.064,127.036C218.943,128.38 217.907,129.792 216.962,131.265C216.405,132.245 215.779,133.741 216.146,134.589C217.303,137.261 219.13,139.641 220.303,142.308C222.322,146.898 225.386,148.9 230.077,147.376C233.292,146.41 236.28,144.807 238.862,142.662C246.179,136.155 253.126,129.231 260.26,122.429C260.141,124.319 259.893,126.395 259.913,128.469C259.924,130.593 260.09,132.713 260.411,134.813C261.345,140.725 265.295,142.367 269.969,138.593C272.273,136.677 274.312,134.464 276.032,132.011C280.684,125.536 285.109,118.897 289.625,112.324L290.543,112.544C290.329,114.734 290.285,116.957 289.871,119.109C288.173,127.931 286.104,136.69 284.688,145.555C283.825,150.962 281.453,155.304 278.285,159.637C268.933,172.43 259.267,185.062 250.907,198.494C238.443,218.519 229.012,240.01 224.868,263.439C223.987,268.342 223.868,273.35 224.515,278.289C225.492,285.321 231.604,287.744 237.282,283.485C240.914,280.844 244.081,277.617 246.655,273.936C250.966,267.668 254.74,261.047 257.937,254.143C268.487,230.475 275.194,205.489 281.927,180.564C290.134,150.182 284.755,159.979 305.96,133.897C311.634,126.917 317.513,120.101 323.116,113.065C323.854,112.139 324.149,109.869 323.539,109.058C322.038,107.064 320.513,108.501 319.292,109.899ZM236.286,106.971C234.689,114.167 232.097,119.881 226.488,124.814C227.943,117.582 230.72,111.969 236.286,106.971L236.286,106.971ZM147.941,126.691L146.481,125.694L155.05,111.748L156.362,112.53L147.941,126.691ZM174.523,105.215C169.952,103.558 168.753,101.104 170.592,97.334C175.009,88.274 179.48,79.239 183.93,70.194L184.691,70.53L174.523,105.215ZM194.198,163.482C193.293,164.769 190.988,165.072 189.325,165.827C189.222,164.242 188.709,162.55 189.087,161.089C190.495,155.656 193.647,151.247 198.336,146.837C198.821,153.465 197.476,158.816 194.198,163.481L194.198,163.482ZM276.191,180.694C270.163,203.084 264.095,225.491 254.856,246.812C251.106,255.468 246.179,263.629 241.532,271.871C240.092,274.209 238.263,276.283 236.123,278.004C235.07,278.906 232.945,279.593 231.849,279.119C230.537,278.27 229.725,276.828 229.678,275.266C230.176,268.962 230.361,262.497 231.976,256.441C240.325,225.13 255.357,197.185 275.65,172.004C276.335,171.154 276.933,170.234 277.571,169.346L278.644,169.999C277.833,173.565 277.141,177.164 276.191,180.693L276.191,180.694Z" style="fill:rgb(248,176,176);fill-rule:nonzero;"/>
                                <path d="M64.164,158.81C61.682,156.855 60.177,159.255 58.566,160.778C55.948,163.254 53.545,166.105 50.548,168.004C40.222,174.549 29.71,180.806 19.191,187.041C16.355,188.524 13.446,189.863 10.476,191.053C10.384,189.26 10.393,187.464 10.501,185.672C12.346,171.565 14.174,157.455 16.154,143.366C21.936,102.219 27.819,61.086 33.566,19.935C34.224,15.236 34.511,10.494 34.426,5.75C34.082,4.062 32.894,2.663 31.283,2.05C28.916,1.642 28.44,3.816 28.472,5.885C28.585,7.881 28.552,9.883 28.371,11.874C24.567,40.321 20.898,68.789 16.801,97.194C12.526,126.834 7.803,156.409 3.335,186.022C2.728,190.048 2.547,194.259 6.378,196.942C10.044,199.51 13.692,197.621 16.907,195.733C29.921,188.093 42.911,180.402 55.722,172.429C58.716,170.566 61.118,167.65 63.524,164.977C65.09,163.236 66.784,160.874 64.164,158.81Z" style="fill:rgb(248,176,176);fill-rule:nonzero;"/>
                                <path d="M80.919,64.549C79.225,65.733 77.639,67.194 75.769,67.932C75.217,68.149 73.859,66.326 72.871,65.438C74.371,64.215 75.739,62.717 77.435,61.898C78.147,61.553 79.553,62.645 80.643,63.084L80.919,64.549Z" style="fill:rgb(248,176,176);fill-rule:nonzero;"/>
                                <path d="M316.292,107.899C315.799,108.464 315.328,109.048 314.852,109.627C307.391,118.696 299.927,127.764 292.46,136.829C291.422,138.086 290.253,139.234 288.565,141.059C288.518,140.1 288.522,139.139 288.577,138.18C289.782,130.156 291.133,122.152 292.194,114.11C292.978,108.173 293.511,102.194 293.874,96.216C293.951,94.953 292.804,93.615 292.221,92.312C291.055,93.03 289.487,93.48 288.797,94.516C286.308,98.248 284.12,102.18 281.808,106.031C277.57,113.09 273.461,120.234 268.999,127.149C267.621,129.285 265.272,130.793 263.367,132.589L262.175,131.952C262.056,129.777 262.071,127.596 262.22,125.422C262.821,120.593 263.867,115.811 264.287,110.972C264.415,109.496 263.091,107.894 262.432,106.35C261.383,107.503 259.948,108.493 259.376,109.847C258.517,111.88 258.263,114.168 257.656,116.754C255.081,113.832 253.548,115.986 251.841,117.743C246.275,123.473 240.736,129.232 235.042,134.832C233.333,136.473 231.389,137.851 229.275,138.921C226.954,140.12 224.279,141.249 222.306,138.241C220.613,135.657 221.357,132.496 223.972,130.241C231.674,123.603 237.034,115.589 238.897,105.402C239.364,102.845 239.567,100.076 237.038,99.256C235.06,98.614 232.4,99.515 230.226,100.262C229.093,100.651 228.186,102.083 227.465,103.226C224.285,108.264 221.21,113.367 217.993,118.617C213.492,116.917 211.782,121.564 208.877,123.651C205.719,125.92 202.947,128.729 199.569,131.686C197.607,121.375 192.271,113.866 185.011,107.56C184.642,107.223 184.305,106.853 184.002,106.455C181.42,103.225 181.177,100.963 184.241,98.293C188.073,95.146 192.095,92.237 196.284,89.584C197.727,88.611 200.018,88.053 198.687,85.928C198.169,85.102 195.415,84.734 194.369,85.342C189.189,88.357 184.24,91.767 179.544,94.82C179.609,94.486 179.694,94.156 179.798,93.833C186.764,71.31 193.73,48.787 200.698,26.265C201.495,24.036 202.121,21.75 202.571,19.427C202.64,18.262 202.126,17.136 201.2,16.425C200.069,16.244 198.921,16.656 198.163,17.515C196.461,19.971 194.976,22.57 193.725,25.283C183.252,48.205 172.88,71.172 162.386,94.085C161.644,95.705 160.48,97.684 159.004,98.323C152.359,101.201 147.855,106.166 144.165,112.129C143.631,112.903 142.946,113.561 142.151,114.064C140.632,115.106 138.657,115.707 137.523,117.044C132.19,123.33 127.173,129.884 121.847,136.176C119.414,139.051 116.529,141.544 113.849,144.21L112.665,143.578C114.025,136.628 115.408,129.683 116.735,122.727C117.857,116.851 119.117,110.987 119.857,105.061C119.87,103.269 119.009,101.579 117.552,100.537C116.268,99.867 113.985,100.465 112.423,101.153C110.851,101.937 109.482,103.074 108.422,104.476C103.349,110.793 98.404,117.214 93.423,123.605C92.656,124.59 91.94,125.614 91.2,126.62L89.986,126.049C91.206,122.069 92.453,118.098 93.636,114.107C94.249,112.043 94.34,110.038 91.81,109.164C89.365,108.319 88.555,109.838 87.87,111.868C87.356,113.631 86.507,115.278 85.369,116.72C77.939,125.163 70.391,133.503 62.824,141.825C61.507,143 60.105,144.074 58.628,145.039C58.846,142.117 58.692,140.357 59.141,138.768C63.141,124.615 67.206,110.481 71.335,96.365C72.015,94.025 73.783,91.278 70.402,90.071C69.593,89.782 66.846,92.466 66.335,94.183C61.783,109.479 57.439,124.836 53.304,140.253C52.741,142.351 53.269,144.977 53.984,147.127C55.134,150.58 58.064,151.61 61.174,149.64C63.807,147.982 66.212,145.989 68.33,143.71C73.321,138.287 78.074,132.644 82.857,127.033C83.453,126.14 83.939,125.178 84.305,124.169L85.44,125.227C85.359,125.711 85.287,126.196 85.194,126.677C84.224,131.702 83.106,136.705 82.397,141.765C82.249,142.821 83.607,144.089 84.271,145.259C85.371,144.671 86.427,144.004 87.429,143.262C87.957,142.818 88.111,141.949 88.491,141.305C94.958,130.334 101.176,119.187 110.04,109.864C111.129,108.846 112.282,107.897 113.491,107.023L114.52,107.655C114.008,110.536 113.502,113.418 112.983,116.298C111.346,125.377 109.518,134.428 108.215,143.554C107.936,145.511 109.137,149.146 110.389,149.514C112.293,150.073 115.289,149.017 117.011,147.636C120.099,145.16 122.65,141.991 125.308,139.006C129.19,134.647 132.969,130.195 137.242,125.264C136.968,126.582 136.763,127.914 136.626,129.254C136.533,131.811 135.748,134.715 138.917,136.115C142.263,137.594 143.844,134.872 145.191,132.818C150.453,124.794 155.454,116.599 160.609,108.505C161.432,107.213 162.737,105.025 163.498,105.153C165.159,105.546 166.581,106.621 167.41,108.114C168.318,109.941 168.618,112.01 168.266,114.02C163.169,135.375 157.793,156.665 152.67,178.015C150.749,186.02 149.212,194.123 147.729,202.223C147.534,203.286 148.707,204.599 149.247,205.797C150.36,205.081 151.417,204.281 152.408,203.404C152.819,202.776 153.064,202.054 153.122,201.305C157.128,183.407 160.933,165.462 165.176,147.62C168.562,133.388 172.478,119.282 176.186,105.014C179.58,108.666 182.85,111.619 185.415,115.093C188.481,119.147 191.142,123.493 193.357,128.068C195.652,132.97 194.833,137.397 190.424,141.508C185.433,146.13 181.949,152.151 180.429,158.782C179.479,162.916 181.274,167.261 184.349,168.939C187.393,170.6 191.277,169.747 194.4,166.27C196.069,164.59 197.304,162.529 197.997,160.264C199.304,154.467 199.986,148.532 201.022,142.67C201.378,140.654 201.443,138.119 202.684,136.813C206.909,132.366 211.598,128.362 216.11,124.188L217.064,125.036C215.943,126.38 214.907,127.792 213.962,129.265C213.405,130.245 212.779,131.741 213.146,132.589C214.303,135.261 216.13,137.641 217.303,140.308C219.322,144.898 222.386,146.9 227.077,145.376C230.292,144.41 233.28,142.807 235.862,140.662C243.179,134.155 250.126,127.231 257.26,120.429C257.141,122.319 256.893,124.395 256.913,126.469C256.924,128.593 257.09,130.713 257.411,132.813C258.345,138.725 262.295,140.367 266.969,136.593C269.273,134.677 271.312,132.464 273.032,130.011C277.684,123.536 282.109,116.897 286.625,110.324L287.543,110.544C287.329,112.734 287.285,114.957 286.871,117.109C285.173,125.931 283.104,134.69 281.688,143.555C280.825,148.962 278.453,153.304 275.285,157.637C265.933,170.43 256.267,183.062 247.907,196.494C235.443,216.519 226.012,238.01 221.868,261.439C220.987,266.342 220.868,271.35 221.515,276.289C222.492,283.321 228.604,285.744 234.282,281.485C237.914,278.844 241.081,275.617 243.655,271.936C247.966,265.668 251.74,259.047 254.937,252.143C265.487,228.475 272.194,203.489 278.927,178.564C287.133,148.182 281.755,157.979 302.959,131.897C308.634,124.917 314.513,118.101 320.116,111.065C320.853,110.139 321.149,107.869 320.539,107.058C319.038,105.064 317.513,106.501 316.292,107.899ZM233.286,104.971C231.689,112.167 229.097,117.881 223.488,122.814C224.943,115.582 227.72,109.969 233.286,104.971L233.286,104.971ZM144.941,124.691L143.481,123.694L152.05,109.748L153.362,110.53L144.941,124.691ZM171.523,103.215C166.952,101.558 165.753,99.104 167.592,95.334C172.009,86.274 176.48,77.239 180.93,68.194L181.691,68.53L171.523,103.215ZM191.198,161.482C190.293,162.769 187.988,163.072 186.325,163.827C186.222,162.242 185.709,160.55 186.087,159.089C187.495,153.656 190.647,149.247 195.336,144.837C195.821,151.465 194.476,156.816 191.198,161.481L191.198,161.482ZM273.191,178.694C267.163,201.084 261.095,223.491 251.856,244.812C248.106,253.468 243.179,261.629 238.532,269.871C237.092,272.209 235.263,274.283 233.123,276.004C232.07,276.906 229.945,277.593 228.849,277.119C227.537,276.27 226.725,274.828 226.678,273.266C227.176,266.962 227.361,260.497 228.976,254.441C237.325,223.13 252.357,195.185 272.65,170.004C273.335,169.154 273.933,168.234 274.571,167.346L275.644,167.999C274.833,171.565 274.141,175.164 273.191,178.693L273.191,178.694Z" style="fill:white;fill-rule:nonzero;"/>
                                <path d="M61.164,156.81C58.682,154.855 57.177,157.255 55.566,158.778C52.948,161.254 50.545,164.105 47.548,166.004C37.222,172.549 26.71,178.806 16.191,185.041C13.355,186.524 10.446,187.863 7.476,189.053C7.384,187.26 7.393,185.464 7.501,183.672C9.346,169.565 11.174,155.455 13.154,141.366C18.936,100.219 24.819,59.086 30.566,17.935C31.224,13.236 31.511,8.494 31.426,3.75C31.082,2.062 29.894,0.663 28.283,0.05C25.916,-0.359 25.441,1.816 25.472,3.884C25.585,5.881 25.552,7.883 25.371,9.874C21.567,38.321 17.898,66.788 13.801,95.194C9.526,124.833 4.803,154.409 0.335,184.021C-0.272,188.048 -0.453,192.258 3.378,194.941C7.044,197.509 10.692,195.62 13.907,193.733C26.921,186.093 39.911,178.402 52.722,170.428C55.716,168.565 58.118,165.649 60.524,162.976C62.09,161.236 63.784,158.874 61.164,156.81Z" style="fill:white;fill-rule:nonzero;"/>
                                <path d="M77.919,62.549C76.225,63.733 74.639,65.194 72.769,65.932C72.217,66.149 70.859,64.326 69.871,63.438C71.371,62.215 72.739,60.717 74.435,59.898C75.147,59.553 76.553,60.645 77.643,61.084L77.919,62.549Z" style="fill:white;fill-rule:nonzero;"/>
                            </g>
                        </g>
                    </g>
                </g>
                <g transform="matrix(4.36164,0,0,4.36164,-2943.37,-15059.9)">
                    <path d="M794.668,3638.87L794.668,3603.37L800.576,3603.37L800.576,3632.84L815.323,3632.84L815.323,3638.87L794.668,3638.87Z" style="fill:none;fill-rule:nonzero;stroke:rgb(0,90,0);stroke-width:0.57px;"/>
                    <rect x="819.375" y="3603.08" width="5.908" height="35.791" style="fill:none;fill-rule:nonzero;stroke:rgb(0,90,0);stroke-width:0.57px;"/>
                    <path d="M838.443,3638.87L827.969,3603.08L834.39,3603.08L841.812,3629.57L848.99,3603.08L855.288,3603.08L844.79,3638.87L838.443,3638.87Z" style="fill:none;fill-rule:nonzero;stroke:rgb(0,90,0);stroke-width:0.57px;"/>
                    <path d="M858.316,3638.87L858.316,3603.08L880.093,3603.08L880.093,3609.14L864.224,3609.14L864.224,3617.07L878.97,3617.07L878.97,3623.1L864.224,3623.1L864.224,3632.84L880.63,3632.84L880.63,3638.87L858.316,3638.87Z" style="fill:none;fill-rule:nonzero;stroke:rgb(0,90,0);stroke-width:0.57px;"/>
                    <g transform="matrix(1,0,0,1,117.68,-50.0994)">
                        <path d="M785.049,3688.87L778.042,3653.08L784.121,3653.08L788.516,3677.66L793.887,3653.08L800.943,3653.08L806.094,3678.08L810.611,3653.08L816.568,3653.08L809.439,3688.87L803.14,3688.87L797.281,3662.11L791.47,3688.87L785.049,3688.87Z" style="fill:none;fill-rule:nonzero;stroke:rgb(0,90,0);stroke-width:0.57px;"/>
                    </g>
                    <g transform="matrix(1,0,0,1,117.68,-50.0994)">
                        <rect x="819.424" y="3653.08" width="5.908" height="35.791" style="fill:none;fill-rule:nonzero;stroke:rgb(0,90,0);stroke-width:0.57px;"/>
                    </g>
                    <g transform="matrix(1,0,0,1,117.68,-50.0994)">
                        <path d="M837.613,3688.87L837.613,3659.14L828.897,3659.14L828.897,3653.08L852.212,3653.08L852.212,3659.14L843.521,3659.14L843.521,3688.87L837.613,3688.87Z" style="fill:none;fill-rule:nonzero;stroke:rgb(0,90,0);stroke-width:0.57px;"/>
                    </g>
                    <g transform="matrix(1,0,0,1,117.68,-50.0994)">
                        <path d="M856.07,3688.87L856.07,3653.08L861.978,3653.08L861.978,3667.17L873.599,3667.17L873.599,3653.08L879.532,3653.08L879.532,3688.87L873.599,3688.87L873.599,3673.22L861.978,3673.22L861.978,3688.87L856.07,3688.87Z" style="fill:none;fill-rule:nonzero;stroke:rgb(0,90,0);stroke-width:0.57px;"/>
                    </g>
                </g>
            </g>
        </g>
    </g>
</svg>
