<?xml version="1.0" encoding="UTF-8" standalone="no"?>
<!DOCTYPE svg PUBLIC "-//W3C//DTD SVG 1.1//EN" "http://www.w3.org/Graphics/SVG/1.1/DTD/svg11.dtd">
<svg width="100%" height="100%" viewBox="0 0 2177 652" version="1.1" xmlns="http://www.w3.org/2000/svg" xmlns:xlink="http://www.w3.org/1999/xlink" xml:space="preserve" xmlns:serif="http://www.serif.com/" style="fill-rule:evenodd;clip-rule:evenodd;stroke-linejoin:round;stroke-miterlimit:2;">
    <g transform="matrix(1,0,0,1,-5281.71,-2333.88)">
        <g transform="matrix(1,0,0,1,-1092.7,-1117.87)">
            <g transform="matrix(1,0,0,1,5905.99,2306.93)">
                <g transform="matrix(384,0,0,384,492.225,1639.79)">
                    <path d="M1.513,-0.305C1.514,-0.303 1.515,-0.3 1.515,-0.296C1.515,-0.287 1.508,-0.279 1.495,-0.271C1.422,-0.226 1.342,-0.173 1.253,-0.114C1.164,-0.055 1.081,0.003 1.006,0.058C1.005,0.059 1.002,0.062 0.999,0.065C0.995,0.068 0.992,0.07 0.989,0.071C0.98,0.076 0.971,0.079 0.964,0.079C0.956,0.079 0.95,0.076 0.945,0.07C0.94,0.063 0.937,0.054 0.936,0.043C0.935,0.028 0.936,0.012 0.938,-0.003C0.939,-0.018 0.942,-0.037 0.946,-0.06C0.956,-0.116 0.97,-0.172 0.988,-0.229C1.005,-0.286 1.027,-0.349 1.053,-0.418C1.063,-0.445 1.073,-0.473 1.082,-0.504C1.091,-0.535 1.096,-0.554 1.098,-0.561L1.11,-0.604C1.111,-0.606 1.112,-0.609 1.113,-0.614C1.114,-0.618 1.115,-0.621 1.115,-0.624C1.115,-0.629 1.113,-0.633 1.11,-0.636C1.107,-0.639 1.104,-0.64 1.099,-0.64C1.094,-0.64 1.086,-0.636 1.075,-0.628C1.011,-0.587 0.953,-0.538 0.9,-0.483C0.844,-0.423 0.804,-0.378 0.779,-0.348C0.734,-0.294 0.684,-0.219 0.627,-0.123C0.606,-0.086 0.59,-0.058 0.58,-0.039C0.543,0.029 0.512,0.082 0.486,0.119C0.479,0.13 0.472,0.137 0.468,0.142C0.463,0.147 0.456,0.149 0.448,0.149C0.447,0.149 0.443,0.148 0.438,0.147C0.433,0.146 0.428,0.142 0.426,0.137C0.423,0.132 0.421,0.125 0.421,0.117C0.421,0.109 0.422,0.101 0.425,0.093L0.449,0.014C0.466,-0.042 0.48,-0.084 0.49,-0.112C0.537,-0.246 0.581,-0.357 0.621,-0.445C0.657,-0.524 0.684,-0.582 0.703,-0.621L0.743,-0.707C0.775,-0.776 0.813,-0.861 0.858,-0.962C0.861,-0.97 0.865,-0.98 0.868,-0.991C0.869,-0.998 0.871,-1.005 0.874,-1.013C0.857,-1.002 0.843,-0.991 0.83,-0.98C0.817,-0.969 0.806,-0.957 0.796,-0.946C0.785,-0.935 0.778,-0.927 0.773,-0.922C0.688,-0.833 0.605,-0.727 0.524,-0.602C0.474,-0.525 0.415,-0.429 0.346,-0.316C0.336,-0.3 0.312,-0.261 0.274,-0.2C0.236,-0.138 0.2,-0.081 0.167,-0.03C0.134,0.022 0.102,0.069 0.072,0.112C0.057,0.134 0.044,0.152 0.033,0.166C0.022,0.18 0.009,0.193 -0.004,0.205C-0.014,0.215 -0.023,0.22 -0.032,0.22C-0.037,0.22 -0.04,0.219 -0.043,0.218C-0.05,0.215 -0.055,0.21 -0.058,0.204C-0.06,0.198 -0.061,0.19 -0.062,0.179C-0.062,0.171 -0.061,0.163 -0.059,0.154C-0.056,0.145 -0.054,0.136 -0.051,0.128C0,-0.033 0.062,-0.187 0.135,-0.335C0.168,-0.4 0.213,-0.485 0.27,-0.59L0.333,-0.708C0.341,-0.725 0.347,-0.738 0.352,-0.747C0.359,-0.761 0.368,-0.768 0.377,-0.768C0.381,-0.768 0.385,-0.767 0.39,-0.764C0.398,-0.759 0.402,-0.753 0.402,-0.745C0.402,-0.74 0.4,-0.732 0.396,-0.723C0.386,-0.702 0.375,-0.681 0.364,-0.662C0.308,-0.566 0.255,-0.467 0.206,-0.365L0.195,-0.342C0.141,-0.231 0.102,-0.145 0.078,-0.082C0.068,-0.055 0.058,-0.028 0.048,0.001C0.038,0.029 0.03,0.055 0.024,0.08C0.039,0.064 0.053,0.047 0.066,0.029C0.079,0.01 0.094,-0.013 0.111,-0.042C0.206,-0.2 0.309,-0.363 0.419,-0.531C0.465,-0.602 0.504,-0.66 0.536,-0.707C0.568,-0.753 0.602,-0.798 0.637,-0.841C0.664,-0.874 0.694,-0.907 0.725,-0.939C0.756,-0.971 0.793,-1.006 0.835,-1.045C0.85,-1.059 0.864,-1.067 0.876,-1.069C0.879,-1.07 0.883,-1.07 0.888,-1.07C0.898,-1.07 0.906,-1.067 0.912,-1.061C0.918,-1.054 0.921,-1.045 0.921,-1.033C0.922,-1.015 0.917,-0.991 0.907,-0.962C0.891,-0.916 0.873,-0.871 0.854,-0.827C0.834,-0.782 0.808,-0.727 0.777,-0.661L0.768,-0.642C0.683,-0.465 0.619,-0.319 0.576,-0.204C0.562,-0.167 0.552,-0.128 0.546,-0.087L0.569,-0.123C0.585,-0.146 0.599,-0.169 0.611,-0.19C0.696,-0.339 0.808,-0.473 0.947,-0.592C0.97,-0.611 0.989,-0.627 1.006,-0.64C1.024,-0.652 1.042,-0.662 1.061,-0.67C1.075,-0.678 1.087,-0.683 1.096,-0.685C1.1,-0.686 1.106,-0.687 1.114,-0.687C1.128,-0.687 1.14,-0.682 1.149,-0.673C1.158,-0.664 1.162,-0.651 1.162,-0.635C1.162,-0.614 1.16,-0.595 1.155,-0.576C1.15,-0.557 1.142,-0.532 1.131,-0.499L1.106,-0.426C1.082,-0.359 1.062,-0.302 1.047,-0.255C1.017,-0.165 0.998,-0.082 0.99,-0.007C0.99,-0.006 0.992,-0.003 0.995,0.002C1.042,-0.029 1.117,-0.078 1.22,-0.145C1.323,-0.212 1.399,-0.26 1.446,-0.29C1.459,-0.298 1.467,-0.303 1.472,-0.305C1.473,-0.306 1.477,-0.308 1.483,-0.311C1.488,-0.314 1.493,-0.315 1.498,-0.315C1.505,-0.315 1.51,-0.312 1.513,-0.305Z" style="fill:rgb(248,176,176);fill-rule:nonzero;"/>
                </g>
                <g transform="matrix(384,0,0,384,1060.55,1639.79)">
                    <path d="M0.007,0.065C-0.004,0.062 -0.011,0.056 -0.014,0.047C-0.017,0.038 -0.018,0.027 -0.018,0.014C-0.018,-0.018 -0.01,-0.057 0.006,-0.104C0.012,-0.122 0.015,-0.136 0.015,-0.147C0.015,-0.162 0.01,-0.175 0,-0.188C-0.007,-0.195 -0.01,-0.206 -0.01,-0.221C-0.01,-0.226 -0.009,-0.233 -0.008,-0.242C0.002,-0.302 0.028,-0.353 0.069,-0.394C0.075,-0.4 0.082,-0.405 0.09,-0.409C0.105,-0.416 0.117,-0.42 0.128,-0.42C0.141,-0.42 0.153,-0.416 0.162,-0.407C0.171,-0.398 0.178,-0.385 0.182,-0.368C0.187,-0.349 0.189,-0.329 0.189,-0.308C0.189,-0.281 0.185,-0.249 0.177,-0.214C0.176,-0.21 0.175,-0.205 0.173,-0.199C0.17,-0.193 0.169,-0.187 0.169,-0.182C0.169,-0.178 0.17,-0.173 0.172,-0.167C0.187,-0.172 0.211,-0.177 0.243,-0.184C0.268,-0.189 0.29,-0.194 0.309,-0.2C0.328,-0.205 0.346,-0.213 0.363,-0.222C0.367,-0.224 0.371,-0.225 0.374,-0.225C0.379,-0.225 0.383,-0.223 0.387,-0.219C0.39,-0.216 0.391,-0.212 0.391,-0.207C0.391,-0.203 0.39,-0.199 0.388,-0.195C0.379,-0.18 0.364,-0.17 0.343,-0.165C0.308,-0.157 0.255,-0.144 0.184,-0.127C0.171,-0.124 0.16,-0.119 0.153,-0.114C0.146,-0.108 0.14,-0.099 0.136,-0.086C0.119,-0.037 0.093,0.006 0.059,0.043C0.052,0.051 0.045,0.057 0.039,0.061C0.033,0.065 0.026,0.067 0.019,0.067C0.016,0.067 0.012,0.066 0.007,0.065ZM0.084,-0.169C0.093,-0.166 0.1,-0.164 0.105,-0.164C0.11,-0.164 0.115,-0.166 0.118,-0.17C0.121,-0.173 0.123,-0.18 0.126,-0.189C0.138,-0.233 0.145,-0.273 0.147,-0.309C0.146,-0.314 0.146,-0.319 0.146,-0.326C0.146,-0.333 0.146,-0.338 0.145,-0.342C0.141,-0.363 0.133,-0.373 0.122,-0.373C0.116,-0.373 0.108,-0.369 0.099,-0.361C0.062,-0.328 0.042,-0.288 0.037,-0.241C0.035,-0.222 0.038,-0.207 0.046,-0.196C0.053,-0.184 0.066,-0.175 0.084,-0.169ZM0.031,0.003C0.044,-0.008 0.055,-0.021 0.064,-0.036C0.072,-0.05 0.082,-0.069 0.093,-0.094C0.095,-0.099 0.099,-0.107 0.104,-0.118C0.099,-0.119 0.093,-0.12 0.085,-0.123C0.077,-0.126 0.071,-0.127 0.068,-0.127C0.061,-0.127 0.056,-0.123 0.053,-0.116C0.038,-0.082 0.03,-0.049 0.03,-0.017C0.03,-0.008 0.03,-0.002 0.031,0.003Z" style="fill:rgb(248,176,176);fill-rule:nonzero;"/>
                </g>
                <g transform="matrix(384,0,0,384,1185.73,1639.79)">
                    <path d="M0.055,0.166C0.042,0.166 0.032,0.162 0.025,0.153C0.018,0.143 0.014,0.131 0.014,0.116C0.014,0.109 0.014,0.104 0.015,0.1C0.021,0.065 0.035,0.032 0.057,0.001C0.074,-0.024 0.083,-0.048 0.083,-0.072C0.083,-0.091 0.078,-0.109 0.069,-0.127L0.003,-0.263C-0.006,-0.282 -0.011,-0.3 -0.011,-0.316C-0.011,-0.345 0.005,-0.368 0.038,-0.385C0.059,-0.396 0.085,-0.407 0.118,-0.418C0.125,-0.421 0.13,-0.422 0.135,-0.421C0.154,-0.421 0.163,-0.413 0.164,-0.396C0.164,-0.389 0.162,-0.383 0.157,-0.379C0.152,-0.374 0.146,-0.372 0.139,-0.373C0.122,-0.374 0.108,-0.372 0.096,-0.366C0.083,-0.359 0.067,-0.349 0.046,-0.334C0.037,-0.328 0.033,-0.321 0.033,-0.313C0.033,-0.308 0.035,-0.303 0.038,-0.296L0.06,-0.253C0.086,-0.203 0.108,-0.157 0.125,-0.116L0.259,-0.242C0.264,-0.245 0.268,-0.247 0.273,-0.247C0.278,-0.247 0.282,-0.245 0.287,-0.241C0.292,-0.237 0.294,-0.233 0.294,-0.228C0.294,-0.223 0.292,-0.218 0.288,-0.214C0.283,-0.207 0.267,-0.191 0.238,-0.165C0.213,-0.142 0.2,-0.128 0.197,-0.125C0.194,-0.121 0.19,-0.117 0.187,-0.112C0.184,-0.107 0.18,-0.103 0.175,-0.098C0.154,-0.073 0.143,-0.047 0.143,-0.018C0.143,-0.013 0.144,-0.006 0.145,0.005C0.146,0.01 0.147,0.019 0.147,0.03C0.147,0.067 0.133,0.104 0.104,0.141C0.098,0.149 0.091,0.155 0.082,0.16C0.073,0.164 0.064,0.166 0.055,0.166ZM0.073,0.103C0.093,0.092 0.103,0.068 0.103,0.032C0.103,0.024 0.103,0.017 0.102,0.012C0.101,0.006 0.101,0.002 0.1,0.001C0.089,0.016 0.08,0.033 0.072,0.052C0.064,0.071 0.06,0.085 0.06,0.095C0.06,0.105 0.064,0.108 0.073,0.103Z" style="fill:rgb(248,176,176);fill-rule:nonzero;"/>
                </g>
                <g transform="matrix(384,0,0,384,1284.42,1639.79)">
                    <path d="M-0.14,0.403C-0.147,0.406 -0.151,0.407 -0.154,0.407C-0.161,0.407 -0.166,0.404 -0.171,0.398C-0.176,0.393 -0.178,0.388 -0.178,0.382C-0.178,0.377 -0.177,0.374 -0.174,0.371C-0.16,0.355 -0.15,0.337 -0.144,0.318C-0.137,0.299 -0.131,0.275 -0.126,0.246C-0.121,0.221 -0.116,0.202 -0.113,0.19C-0.104,0.161 -0.081,0.073 -0.042,-0.075C-0.003,-0.223 0.032,-0.356 0.063,-0.473L0.086,-0.56C0.104,-0.627 0.126,-0.697 0.151,-0.77C0.152,-0.775 0.155,-0.783 0.16,-0.795C0.165,-0.806 0.167,-0.817 0.167,-0.827C0.162,-0.829 0.157,-0.83 0.153,-0.83C0.149,-0.83 0.145,-0.829 0.14,-0.828C0.135,-0.827 0.131,-0.826 0.128,-0.825C-0.065,-0.781 -0.229,-0.739 -0.365,-0.7L-0.429,-0.682C-0.516,-0.659 -0.585,-0.637 -0.637,-0.618C-0.658,-0.61 -0.677,-0.602 -0.692,-0.594C-0.699,-0.59 -0.705,-0.588 -0.711,-0.588C-0.719,-0.588 -0.725,-0.592 -0.73,-0.601C-0.732,-0.605 -0.733,-0.609 -0.733,-0.612C-0.733,-0.621 -0.727,-0.63 -0.714,-0.637C-0.693,-0.648 -0.668,-0.658 -0.639,-0.669C-0.542,-0.702 -0.436,-0.734 -0.321,-0.764L-0.211,-0.793C-0.086,-0.826 0.003,-0.849 0.058,-0.862C0.103,-0.872 0.138,-0.879 0.165,-0.884C0.176,-0.886 0.184,-0.89 0.191,-0.896C0.197,-0.902 0.202,-0.911 0.207,-0.922C0.234,-0.989 0.258,-1.048 0.281,-1.1C0.304,-1.151 0.328,-1.201 0.354,-1.248C0.363,-1.264 0.371,-1.275 0.378,-1.28C0.384,-1.286 0.39,-1.289 0.397,-1.289C0.4,-1.289 0.404,-1.288 0.408,-1.286C0.42,-1.28 0.424,-1.27 0.421,-1.257C0.415,-1.233 0.407,-1.206 0.397,-1.177C0.396,-1.175 0.395,-1.173 0.393,-1.171C0.391,-1.168 0.389,-1.167 0.387,-1.167C0.376,-1.165 0.367,-1.16 0.362,-1.153C0.357,-1.146 0.352,-1.138 0.349,-1.129C0.345,-1.12 0.342,-1.113 0.34,-1.109L0.329,-1.086C0.311,-1.046 0.297,-1.014 0.287,-0.989C0.276,-0.964 0.267,-0.938 0.259,-0.911C0.264,-0.908 0.269,-0.907 0.274,-0.907C0.277,-0.907 0.282,-0.908 0.287,-0.909C0.366,-0.927 0.492,-0.952 0.665,-0.985L0.744,-1L0.831,-1.015L0.855,-1.019C0.863,-1.02 0.87,-1.021 0.876,-1.022C0.881,-1.022 0.886,-1.022 0.89,-1.022C0.913,-1.022 0.923,-1.013 0.922,-0.995C0.922,-0.988 0.919,-0.982 0.914,-0.978C0.909,-0.973 0.901,-0.971 0.892,-0.971C0.863,-0.969 0.836,-0.966 0.81,-0.962C0.783,-0.957 0.745,-0.95 0.696,-0.94C0.675,-0.935 0.643,-0.929 0.6,-0.921C0.543,-0.911 0.459,-0.895 0.347,-0.872L0.274,-0.857C0.259,-0.854 0.247,-0.849 0.238,-0.842C0.229,-0.835 0.223,-0.824 0.218,-0.81C0.189,-0.73 0.159,-0.635 0.128,-0.524C0.097,-0.412 0.055,-0.261 0.004,-0.068L-0.002,-0.044L-0.097,0.319C-0.104,0.344 -0.11,0.363 -0.117,0.375C-0.124,0.388 -0.131,0.397 -0.14,0.403Z" style="fill:rgb(248,176,176);fill-rule:nonzero;"/>
                </g>
                <g transform="matrix(384,0,0,384,1572.8,1639.79)">
                    <path d="M0.899,0.326C0.893,0.332 0.887,0.335 0.881,0.335C0.876,0.335 0.869,0.332 0.861,0.325C0.83,0.294 0.766,0.246 0.671,0.182C0.575,0.117 0.479,0.058 0.383,0.005C0.287,-0.049 0.219,-0.08 0.179,-0.088C0.166,-0.091 0.153,-0.096 0.141,-0.103C0.128,-0.11 0.12,-0.119 0.116,-0.128C0.089,-0.078 0.061,-0.024 0.033,0.035C0.006,0.091 -0.021,0.158 -0.048,0.235C-0.049,0.24 -0.051,0.246 -0.053,0.254C-0.054,0.262 -0.056,0.269 -0.059,0.274C-0.066,0.288 -0.075,0.295 -0.084,0.295C-0.086,0.295 -0.089,0.294 -0.093,0.293C-0.103,0.29 -0.108,0.282 -0.108,0.271C-0.108,0.268 -0.107,0.264 -0.106,0.257C-0.091,0.213 -0.078,0.175 -0.067,0.142C-0.014,-0.015 0.019,-0.108 0.031,-0.137L0.115,-0.36L0.146,-0.446C0.222,-0.654 0.268,-0.776 0.283,-0.811C0.284,-0.813 0.287,-0.82 0.294,-0.831C0.299,-0.839 0.303,-0.845 0.305,-0.85C0.307,-0.855 0.31,-0.858 0.315,-0.86C0.319,-0.862 0.323,-0.862 0.328,-0.861C0.339,-0.859 0.345,-0.852 0.346,-0.84C0.346,-0.83 0.345,-0.823 0.342,-0.819C0.333,-0.804 0.313,-0.755 0.28,-0.672C0.247,-0.589 0.222,-0.521 0.204,-0.469L0.184,-0.413C0.15,-0.325 0.133,-0.273 0.132,-0.258C0.157,-0.297 0.176,-0.329 0.189,-0.352C0.206,-0.381 0.231,-0.421 0.264,-0.471C0.313,-0.546 0.378,-0.634 0.459,-0.735C0.54,-0.836 0.619,-0.927 0.699,-1.008C0.778,-1.089 0.84,-1.138 0.885,-1.157C0.896,-1.162 0.908,-1.164 0.919,-1.164C0.935,-1.164 0.948,-1.159 0.957,-1.149C0.966,-1.138 0.97,-1.123 0.97,-1.104C0.97,-1.047 0.952,-0.976 0.916,-0.892C0.879,-0.807 0.837,-0.731 0.789,-0.662C0.741,-0.593 0.696,-0.535 0.655,-0.488C0.592,-0.417 0.523,-0.353 0.448,-0.295C0.373,-0.236 0.296,-0.187 0.215,-0.148C0.214,-0.147 0.211,-0.146 0.207,-0.145C0.203,-0.143 0.2,-0.14 0.198,-0.136C0.268,-0.117 0.373,-0.065 0.513,0.022C0.652,0.108 0.779,0.196 0.892,0.286C0.901,0.293 0.905,0.301 0.905,0.311C0.905,0.317 0.903,0.322 0.899,0.326ZM0.184,-0.186C0.256,-0.219 0.33,-0.264 0.406,-0.322C0.481,-0.38 0.548,-0.441 0.605,-0.504C0.688,-0.596 0.76,-0.696 0.822,-0.805C0.883,-0.913 0.918,-1.009 0.925,-1.094L0.925,-1.102C0.925,-1.113 0.922,-1.118 0.915,-1.118C0.912,-1.118 0.907,-1.117 0.901,-1.115C0.874,-1.106 0.845,-1.087 0.815,-1.057C0.747,-0.989 0.692,-0.933 0.651,-0.888C0.61,-0.843 0.563,-0.789 0.511,-0.725C0.434,-0.631 0.373,-0.551 0.327,-0.484C0.281,-0.417 0.229,-0.333 0.172,-0.232L0.157,-0.206C0.145,-0.186 0.136,-0.17 0.13,-0.159L0.184,-0.186Z" style="fill:rgb(248,176,176);fill-rule:nonzero;"/>
                </g>
                <g transform="matrix(384,0,0,384,1803.2,1639.79)">
                    <path d="M0.123,0.024C0.108,0.031 0.093,0.034 0.078,0.034C0.051,0.034 0.027,0.023 0.008,0.002C-0.011,-0.019 -0.021,-0.051 -0.02,-0.093C-0.009,-0.154 0.008,-0.205 0.031,-0.248C0.053,-0.29 0.089,-0.324 0.139,-0.349C0.149,-0.354 0.16,-0.357 0.172,-0.357C0.184,-0.357 0.194,-0.354 0.203,-0.347C0.212,-0.339 0.218,-0.33 0.222,-0.317C0.223,-0.31 0.224,-0.306 0.224,-0.303C0.224,-0.296 0.222,-0.287 0.217,-0.275C0.203,-0.242 0.185,-0.213 0.163,-0.189C0.14,-0.164 0.113,-0.142 0.08,-0.123C0.073,-0.119 0.066,-0.116 0.057,-0.113C0.049,-0.11 0.043,-0.108 0.04,-0.106C0.037,-0.103 0.035,-0.099 0.035,-0.092C0.035,-0.048 0.05,-0.026 0.08,-0.026C0.09,-0.026 0.101,-0.028 0.113,-0.032C0.137,-0.039 0.166,-0.058 0.2,-0.087C0.233,-0.116 0.261,-0.144 0.284,-0.171L0.289,-0.178C0.3,-0.192 0.31,-0.199 0.318,-0.199C0.323,-0.199 0.327,-0.197 0.331,-0.193C0.337,-0.187 0.34,-0.181 0.34,-0.174C0.34,-0.167 0.336,-0.158 0.329,-0.147C0.307,-0.117 0.275,-0.085 0.234,-0.05C0.192,-0.015 0.155,0.01 0.123,0.024ZM0.054,-0.162C0.101,-0.188 0.139,-0.225 0.166,-0.273C0.167,-0.275 0.169,-0.278 0.172,-0.283C0.174,-0.287 0.176,-0.291 0.176,-0.295C0.176,-0.298 0.174,-0.301 0.171,-0.304C0.168,-0.307 0.165,-0.308 0.16,-0.308C0.155,-0.308 0.149,-0.306 0.143,-0.302C0.137,-0.297 0.13,-0.291 0.121,-0.282C0.103,-0.261 0.088,-0.242 0.077,-0.224C0.066,-0.205 0.058,-0.185 0.054,-0.162Z" style="fill:rgb(248,176,176);fill-rule:nonzero;"/>
                </g>
                <g transform="matrix(384,0,0,384,1922.24,1639.79)">
                    <path d="M0.055,-0.033C0.044,-0.028 0.033,-0.025 0.022,-0.025C0.007,-0.025 -0.006,-0.031 -0.015,-0.043C-0.024,-0.055 -0.028,-0.072 -0.028,-0.093C-0.028,-0.13 -0.022,-0.166 -0.009,-0.201C0.004,-0.236 0.022,-0.272 0.045,-0.309C0.052,-0.319 0.063,-0.328 0.076,-0.335C0.084,-0.338 0.091,-0.34 0.097,-0.34C0.11,-0.34 0.122,-0.335 0.132,-0.326C0.141,-0.317 0.146,-0.305 0.146,-0.291C0.146,-0.283 0.144,-0.277 0.14,-0.273C0.135,-0.268 0.13,-0.266 0.124,-0.266C0.119,-0.266 0.114,-0.267 0.109,-0.27C0.106,-0.271 0.103,-0.274 0.101,-0.278C0.097,-0.281 0.095,-0.284 0.092,-0.287C0.049,-0.23 0.024,-0.167 0.018,-0.1L0.018,-0.094C0.018,-0.083 0.021,-0.078 0.027,-0.078C0.032,-0.078 0.037,-0.08 0.044,-0.085C0.059,-0.094 0.072,-0.103 0.085,-0.115C0.098,-0.126 0.113,-0.14 0.131,-0.157L0.158,-0.183L0.265,-0.283C0.266,-0.284 0.27,-0.288 0.275,-0.293C0.28,-0.298 0.286,-0.3 0.291,-0.3C0.296,-0.3 0.3,-0.297 0.305,-0.292C0.31,-0.285 0.313,-0.279 0.313,-0.274C0.313,-0.265 0.308,-0.256 0.298,-0.247L0.227,-0.181C0.212,-0.166 0.188,-0.143 0.156,-0.114C0.141,-0.101 0.119,-0.081 0.088,-0.056C0.081,-0.049 0.07,-0.041 0.055,-0.033Z" style="fill:rgb(248,176,176);fill-rule:nonzero;"/>
                </g>
                <g transform="matrix(384,0,0,384,2006.72,1639.79)">
                    <path d="M0.123,0.024C0.108,0.031 0.093,0.034 0.078,0.034C0.051,0.034 0.027,0.023 0.008,0.002C-0.011,-0.019 -0.021,-0.051 -0.02,-0.093C-0.009,-0.154 0.008,-0.205 0.031,-0.248C0.053,-0.29 0.089,-0.324 0.139,-0.349C0.149,-0.354 0.16,-0.357 0.172,-0.357C0.184,-0.357 0.194,-0.354 0.203,-0.347C0.212,-0.339 0.218,-0.33 0.222,-0.317C0.223,-0.31 0.224,-0.306 0.224,-0.303C0.224,-0.296 0.222,-0.287 0.217,-0.275C0.203,-0.242 0.185,-0.213 0.163,-0.189C0.14,-0.164 0.113,-0.142 0.08,-0.123C0.073,-0.119 0.066,-0.116 0.057,-0.113C0.049,-0.11 0.043,-0.108 0.04,-0.106C0.037,-0.103 0.035,-0.099 0.035,-0.092C0.035,-0.048 0.05,-0.026 0.08,-0.026C0.09,-0.026 0.101,-0.028 0.113,-0.032C0.137,-0.039 0.166,-0.058 0.2,-0.087C0.233,-0.116 0.261,-0.144 0.284,-0.171L0.289,-0.178C0.3,-0.192 0.31,-0.199 0.318,-0.199C0.323,-0.199 0.327,-0.197 0.331,-0.193C0.337,-0.187 0.34,-0.181 0.34,-0.174C0.34,-0.167 0.336,-0.158 0.329,-0.147C0.307,-0.117 0.275,-0.085 0.234,-0.05C0.192,-0.015 0.155,0.01 0.123,0.024ZM0.054,-0.162C0.101,-0.188 0.139,-0.225 0.166,-0.273C0.167,-0.275 0.169,-0.278 0.172,-0.283C0.174,-0.287 0.176,-0.291 0.176,-0.295C0.176,-0.298 0.174,-0.301 0.171,-0.304C0.168,-0.307 0.165,-0.308 0.16,-0.308C0.155,-0.308 0.149,-0.306 0.143,-0.302C0.137,-0.297 0.13,-0.291 0.121,-0.282C0.103,-0.261 0.088,-0.242 0.077,-0.224C0.066,-0.205 0.058,-0.185 0.054,-0.162Z" style="fill:rgb(248,176,176);fill-rule:nonzero;"/>
                </g>
                <g transform="matrix(384,0,0,384,2125.76,1639.79)">
                    <path d="M-0.01,-0.039C-0.02,-0.043 -0.025,-0.051 -0.025,-0.064L-0.024,-0.076C-0.02,-0.104 -0.015,-0.134 -0.008,-0.165C0,-0.196 0.004,-0.215 0.006,-0.222L0.015,-0.261L0.024,-0.312C0.027,-0.323 0.031,-0.331 0.036,-0.336C0.041,-0.341 0.048,-0.342 0.055,-0.339C0.066,-0.336 0.071,-0.329 0.071,-0.319C0.071,-0.318 0.07,-0.313 0.068,-0.303L0.04,-0.164C0.039,-0.161 0.039,-0.158 0.04,-0.155C0.04,-0.151 0.04,-0.146 0.039,-0.141L0.067,-0.165C0.09,-0.184 0.106,-0.198 0.116,-0.207C0.129,-0.218 0.148,-0.23 0.175,-0.243C0.183,-0.247 0.191,-0.249 0.198,-0.249C0.213,-0.249 0.225,-0.24 0.233,-0.221C0.238,-0.208 0.244,-0.188 0.249,-0.163C0.252,-0.152 0.255,-0.143 0.259,-0.139C0.262,-0.134 0.267,-0.131 0.273,-0.131C0.28,-0.131 0.288,-0.133 0.297,-0.138C0.33,-0.153 0.358,-0.169 0.38,-0.185C0.402,-0.2 0.42,-0.22 0.435,-0.244C0.44,-0.252 0.445,-0.256 0.451,-0.256C0.455,-0.256 0.458,-0.255 0.46,-0.254C0.47,-0.248 0.473,-0.239 0.47,-0.228C0.462,-0.208 0.452,-0.192 0.44,-0.181C0.405,-0.149 0.363,-0.12 0.312,-0.095C0.299,-0.088 0.286,-0.085 0.273,-0.085C0.259,-0.085 0.247,-0.089 0.236,-0.098C0.225,-0.107 0.216,-0.119 0.209,-0.136C0.207,-0.142 0.203,-0.156 0.197,-0.177C0.196,-0.186 0.194,-0.195 0.191,-0.204C0.15,-0.181 0.109,-0.147 0.068,-0.103C0.065,-0.099 0.058,-0.092 0.049,-0.083C0.039,-0.074 0.031,-0.064 0.026,-0.054C0.021,-0.043 0.012,-0.037 0.001,-0.037C-0.004,-0.037 -0.007,-0.038 -0.01,-0.039Z" style="fill:rgb(248,176,176);fill-rule:nonzero;"/>
                </g>
                <g transform="matrix(384,0,0,384,2291.27,1639.79)">
                    <path d="M-0.14,0.403C-0.147,0.406 -0.151,0.407 -0.154,0.407C-0.161,0.407 -0.166,0.404 -0.171,0.398C-0.176,0.393 -0.178,0.388 -0.178,0.382C-0.178,0.377 -0.177,0.374 -0.174,0.371C-0.16,0.355 -0.15,0.337 -0.144,0.318C-0.137,0.299 -0.131,0.275 -0.126,0.246C-0.121,0.221 -0.116,0.202 -0.113,0.19C-0.104,0.161 -0.081,0.073 -0.042,-0.075C-0.003,-0.223 0.032,-0.356 0.063,-0.473L0.086,-0.56C0.104,-0.627 0.126,-0.697 0.151,-0.77C0.152,-0.775 0.155,-0.783 0.16,-0.795C0.165,-0.806 0.167,-0.817 0.167,-0.827C0.162,-0.829 0.157,-0.83 0.153,-0.83C0.149,-0.83 0.145,-0.829 0.14,-0.828C0.135,-0.827 0.131,-0.826 0.128,-0.825C-0.065,-0.781 -0.229,-0.739 -0.365,-0.7L-0.429,-0.682C-0.516,-0.659 -0.585,-0.637 -0.637,-0.618C-0.658,-0.61 -0.677,-0.602 -0.692,-0.594C-0.699,-0.59 -0.705,-0.588 -0.711,-0.588C-0.719,-0.588 -0.725,-0.592 -0.73,-0.601C-0.732,-0.605 -0.733,-0.609 -0.733,-0.612C-0.733,-0.621 -0.727,-0.63 -0.714,-0.637C-0.693,-0.648 -0.668,-0.658 -0.639,-0.669C-0.542,-0.702 -0.436,-0.734 -0.321,-0.764L-0.211,-0.793C-0.086,-0.826 0.003,-0.849 0.058,-0.862C0.103,-0.872 0.138,-0.879 0.165,-0.884C0.176,-0.886 0.184,-0.89 0.191,-0.896C0.197,-0.902 0.202,-0.911 0.207,-0.922C0.234,-0.989 0.258,-1.048 0.281,-1.1C0.304,-1.151 0.328,-1.201 0.354,-1.248C0.363,-1.264 0.371,-1.275 0.378,-1.28C0.384,-1.286 0.39,-1.289 0.397,-1.289C0.4,-1.289 0.404,-1.288 0.408,-1.286C0.42,-1.28 0.424,-1.27 0.421,-1.257C0.415,-1.233 0.407,-1.206 0.397,-1.177C0.396,-1.175 0.395,-1.173 0.393,-1.171C0.391,-1.168 0.389,-1.167 0.387,-1.167C0.376,-1.165 0.367,-1.16 0.362,-1.153C0.357,-1.146 0.352,-1.138 0.349,-1.129C0.345,-1.12 0.342,-1.113 0.34,-1.109L0.329,-1.086C0.311,-1.046 0.297,-1.014 0.287,-0.989C0.276,-0.964 0.267,-0.938 0.259,-0.911C0.264,-0.908 0.269,-0.907 0.274,-0.907C0.277,-0.907 0.282,-0.908 0.287,-0.909C0.366,-0.927 0.492,-0.952 0.665,-0.985L0.744,-1L0.831,-1.015L0.855,-1.019C0.863,-1.02 0.87,-1.021 0.876,-1.022C0.881,-1.022 0.886,-1.022 0.89,-1.022C0.913,-1.022 0.923,-1.013 0.922,-0.995C0.922,-0.988 0.919,-0.982 0.914,-0.978C0.909,-0.973 0.901,-0.971 0.892,-0.971C0.863,-0.969 0.836,-0.966 0.81,-0.962C0.783,-0.957 0.745,-0.95 0.696,-0.94C0.675,-0.935 0.643,-0.929 0.6,-0.921C0.543,-0.911 0.459,-0.895 0.347,-0.872L0.274,-0.857C0.259,-0.854 0.247,-0.849 0.238,-0.842C0.229,-0.835 0.223,-0.824 0.218,-0.81C0.189,-0.73 0.159,-0.635 0.128,-0.524C0.097,-0.412 0.055,-0.261 0.004,-0.068L-0.002,-0.044L-0.097,0.319C-0.104,0.344 -0.11,0.363 -0.117,0.375C-0.124,0.388 -0.131,0.397 -0.14,0.403Z" style="fill:rgb(248,176,176);fill-rule:nonzero;"/>
                </g>
            </g>
        </g>
    </g>
</svg>
