<?xml version="1.0" encoding="UTF-8" standalone="no"?>
<!DOCTYPE svg PUBLIC "-//W3C//DTD SVG 1.1//EN" "http://www.w3.org/Graphics/SVG/1.1/DTD/svg11.dtd">
<svg width="100%" height="100%" viewBox="0 0 273 82" version="1.1" xmlns="http://www.w3.org/2000/svg" xmlns:xlink="http://www.w3.org/1999/xlink" xml:space="preserve" xmlns:serif="http://www.serif.com/" style="fill-rule:evenodd;clip-rule:evenodd;stroke-linejoin:round;stroke-miterlimit:2;">
    <g transform="matrix(1,0,0,1,-100.033,-450.123)">
        <g>
            <path d="M175.633,497.355C175.697,497.451 175.729,497.595 175.729,497.787C175.729,498.203 175.409,498.603 174.769,498.987C171.281,501.163 167.401,503.675 163.129,506.523C158.857,509.371 154.913,512.123 151.297,514.779C151.233,514.843 151.113,514.947 150.937,515.091C150.761,515.235 150.609,515.339 150.481,515.403C150.033,515.659 149.633,515.787 149.281,515.787C148.897,515.787 148.585,515.635 148.345,515.331C148.105,515.027 147.969,514.603 147.937,514.059C147.905,513.323 147.929,512.587 148.009,511.851C148.089,511.115 148.225,510.203 148.417,509.115C148.897,506.427 149.561,503.723 150.409,501.003C151.257,498.283 152.305,495.259 153.553,491.931C154.033,490.651 154.489,489.275 154.921,487.803C155.353,486.331 155.617,485.419 155.713,485.067L156.289,483.003C156.321,482.907 156.369,482.755 156.433,482.547C156.497,482.339 156.529,482.171 156.529,482.043C156.529,481.787 156.449,481.595 156.289,481.467C156.161,481.339 155.985,481.275 155.761,481.275C155.537,481.275 155.153,481.467 154.609,481.851C151.537,483.835 148.737,486.155 146.209,488.811C143.521,491.691 141.585,493.851 140.401,495.291C138.257,497.883 135.825,501.483 133.105,506.091C132.081,507.883 131.329,509.227 130.849,510.123C129.089,513.387 127.585,515.915 126.337,517.707C125.985,518.219 125.689,518.587 125.449,518.811C125.209,519.035 124.897,519.147 124.513,519.147C124.449,519.147 124.289,519.115 124.033,519.051C123.777,518.987 123.577,518.827 123.433,518.571C123.289,518.315 123.217,517.995 123.217,517.611C123.217,517.227 123.281,516.843 123.409,516.459L124.561,512.667C125.393,509.979 126.049,507.963 126.529,506.619C128.801,500.187 130.897,494.859 132.817,490.635C134.545,486.859 135.857,484.043 136.753,482.187L138.673,478.059C140.209,474.731 142.049,470.651 144.193,465.819C144.353,465.435 144.513,464.971 144.673,464.427C144.705,464.107 144.801,463.755 144.961,463.371C144.161,463.883 143.457,464.411 142.849,464.955C142.241,465.499 141.689,466.043 141.193,466.587C140.697,467.131 140.337,467.515 140.113,467.739C136.017,471.995 132.033,477.115 128.161,483.099C125.761,486.811 122.913,491.387 119.617,496.827C119.137,497.595 117.985,499.459 116.161,502.419C114.337,505.379 112.625,508.099 111.025,510.579C109.425,513.059 107.905,515.323 106.465,517.371C105.729,518.427 105.097,519.291 104.569,519.963C104.041,520.635 103.457,521.259 102.817,521.835C102.337,522.315 101.889,522.555 101.473,522.555C101.249,522.555 101.073,522.523 100.945,522.459C100.593,522.299 100.361,522.075 100.249,521.787C100.137,521.499 100.065,521.099 100.033,520.587C100.033,520.203 100.089,519.795 100.201,519.363C100.313,518.931 100.433,518.523 100.561,518.139C102.993,510.427 105.969,503.019 109.489,495.915C111.057,492.811 113.217,488.731 115.969,483.675L118.993,478.011C119.377,477.179 119.681,476.555 119.905,476.139C120.257,475.467 120.657,475.131 121.105,475.131C121.297,475.131 121.505,475.195 121.729,475.323C122.113,475.547 122.305,475.851 122.305,476.235C122.305,476.491 122.209,476.843 122.017,477.291C121.537,478.315 121.025,479.291 120.481,480.219C117.793,484.827 115.265,489.579 112.897,494.475L112.369,495.579C109.777,500.891 107.905,505.051 106.753,508.059C106.273,509.339 105.793,510.659 105.313,512.019C104.833,513.379 104.449,514.651 104.161,515.835C104.897,515.067 105.569,514.243 106.177,513.363C106.785,512.483 107.505,511.355 108.337,509.979C112.913,502.395 117.841,494.571 123.121,486.507C125.329,483.115 127.201,480.307 128.737,478.083C130.273,475.859 131.889,473.707 133.585,471.627C134.897,470.027 136.305,468.459 137.809,466.923C139.313,465.387 141.073,463.691 143.089,461.835C143.825,461.163 144.481,460.779 145.057,460.683C145.185,460.651 145.377,460.635 145.633,460.635C146.113,460.635 146.497,460.787 146.785,461.091C147.073,461.395 147.217,461.835 147.217,462.411C147.249,463.275 147.025,464.411 146.545,465.819C145.777,468.027 144.921,470.195 143.977,472.323C143.033,474.451 141.809,477.099 140.305,480.267L139.873,481.179C135.809,489.659 132.737,496.667 130.657,502.203C129.985,503.995 129.505,505.867 129.217,507.819L130.321,506.091C131.089,504.971 131.761,503.899 132.337,502.875C136.401,495.739 141.777,489.307 148.465,483.579C149.553,482.651 150.505,481.891 151.321,481.299C152.137,480.707 153.009,480.219 153.937,479.835C154.609,479.451 155.169,479.211 155.617,479.115C155.809,479.051 156.097,479.019 156.481,479.019C157.153,479.019 157.705,479.243 158.137,479.691C158.569,480.139 158.785,480.747 158.785,481.515C158.785,482.507 158.665,483.451 158.425,484.347C158.185,485.243 157.809,486.475 157.297,488.043C157.137,488.523 156.953,489.059 156.745,489.651C156.537,490.243 156.321,490.875 156.097,491.547C154.945,494.779 154.001,497.515 153.265,499.755C151.825,504.075 150.913,508.043 150.529,511.659C150.529,511.691 150.609,511.835 150.769,512.091C153.009,510.619 156.609,508.275 161.569,505.059C166.529,501.843 170.145,499.515 172.417,498.075C173.025,497.691 173.441,497.451 173.665,497.355C173.729,497.323 173.897,497.235 174.169,497.091C174.441,496.947 174.689,496.875 174.913,496.875C175.233,496.875 175.473,497.035 175.633,497.355Z" style="fill:rgb(248,176,176);fill-rule:nonzero;"/>
            <path d="M174.385,515.115C173.873,514.955 173.545,514.667 173.401,514.251C173.257,513.835 173.185,513.307 173.185,512.667C173.185,511.131 173.569,509.243 174.337,507.003C174.625,506.139 174.769,505.451 174.769,504.939C174.769,504.235 174.529,503.579 174.049,502.971C173.729,502.619 173.569,502.091 173.569,501.387C173.569,501.163 173.601,500.827 173.665,500.379C174.145,497.499 175.377,495.067 177.361,493.083C177.649,492.795 177.985,492.555 178.369,492.363C179.073,492.011 179.681,491.835 180.193,491.835C180.833,491.835 181.377,492.051 181.825,492.483C182.273,492.915 182.593,493.531 182.785,494.331C183.009,495.227 183.121,496.187 183.121,497.211C183.121,498.523 182.929,500.027 182.545,501.723C182.513,501.915 182.441,502.155 182.329,502.443C182.217,502.731 182.161,503.003 182.161,503.259C182.161,503.451 182.209,503.691 182.305,503.979C183.041,503.755 184.177,503.483 185.713,503.163C186.929,502.939 187.985,502.691 188.881,502.419C189.777,502.147 190.641,501.787 191.473,501.339C191.665,501.243 191.841,501.195 192.001,501.195C192.225,501.195 192.433,501.291 192.625,501.483C192.753,501.611 192.817,501.803 192.817,502.059C192.817,502.251 192.769,502.443 192.673,502.635C192.257,503.371 191.537,503.851 190.513,504.075C188.817,504.459 186.273,505.067 182.881,505.899C182.241,506.059 181.745,506.275 181.393,506.547C181.041,506.819 180.769,507.259 180.577,507.867C179.745,510.235 178.513,512.299 176.881,514.059C176.529,514.443 176.209,514.731 175.921,514.923C175.633,515.115 175.313,515.211 174.961,515.211C174.833,515.211 174.641,515.179 174.385,515.115ZM178.081,503.883C178.497,504.043 178.833,504.123 179.089,504.123C179.345,504.123 179.545,504.035 179.689,503.859C179.833,503.683 179.969,503.371 180.097,502.923C180.673,500.811 181.009,498.891 181.105,497.163C181.073,496.939 181.057,496.667 181.057,496.347C181.057,496.027 181.041,495.771 181.009,495.579C180.817,494.587 180.449,494.091 179.905,494.091C179.617,494.091 179.249,494.283 178.801,494.667C177.041,496.267 176.049,498.187 175.825,500.427C175.729,501.323 175.865,502.051 176.233,502.611C176.601,503.171 177.217,503.595 178.081,503.883ZM175.537,512.139C176.177,511.595 176.697,510.979 177.097,510.291C177.497,509.603 177.969,508.667 178.513,507.483C178.609,507.227 178.785,506.843 179.041,506.331C178.817,506.299 178.513,506.219 178.129,506.091C177.745,505.963 177.473,505.899 177.313,505.899C176.993,505.899 176.753,506.075 176.593,506.427C175.857,508.059 175.489,509.643 175.489,511.179C175.489,511.595 175.505,511.915 175.537,512.139Z" style="fill:rgb(248,176,176);fill-rule:nonzero;"/>
            <path d="M192.337,519.963C191.697,519.963 191.209,519.747 190.873,519.315C190.537,518.883 190.369,518.299 190.369,517.563C190.369,517.243 190.385,516.987 190.417,516.795C190.705,515.099 191.377,513.515 192.433,512.043C193.265,510.859 193.681,509.691 193.681,508.539C193.681,507.643 193.457,506.763 193.009,505.899L189.841,499.371C189.393,498.443 189.169,497.595 189.169,496.827C189.169,495.451 189.953,494.347 191.521,493.515C192.513,492.971 193.793,492.443 195.361,491.931C195.681,491.803 195.953,491.755 196.177,491.787C197.073,491.787 197.537,492.187 197.569,492.987C197.569,493.339 197.457,493.619 197.233,493.827C197.009,494.035 196.721,494.123 196.369,494.091C195.569,494.027 194.873,494.147 194.281,494.451C193.689,494.755 192.897,495.259 191.905,495.963C191.489,496.251 191.281,496.587 191.281,496.971C191.281,497.195 191.361,497.467 191.521,497.787L192.577,499.851C193.825,502.251 194.865,504.443 195.697,506.427L202.129,500.379C202.353,500.219 202.577,500.139 202.801,500.139C203.025,500.139 203.249,500.235 203.473,500.427C203.697,500.619 203.809,500.827 203.809,501.051C203.809,501.307 203.713,501.531 203.521,501.723C203.297,502.043 202.497,502.827 201.121,504.075C199.937,505.195 199.281,505.835 199.153,505.995C198.993,506.187 198.833,506.395 198.673,506.619C198.513,506.843 198.321,507.067 198.097,507.291C197.073,508.475 196.561,509.755 196.561,511.131C196.561,511.355 196.593,511.723 196.657,512.235C196.721,512.491 196.753,512.891 196.753,513.435C196.753,515.227 196.065,517.003 194.689,518.763C194.401,519.147 194.041,519.443 193.609,519.651C193.177,519.859 192.753,519.963 192.337,519.963ZM193.201,516.939C194.161,516.395 194.641,515.259 194.641,513.531C194.641,513.147 194.625,512.819 194.593,512.547C194.561,512.275 194.529,512.107 194.497,512.043C193.985,512.747 193.537,513.555 193.153,514.467C192.769,515.379 192.577,516.075 192.577,516.555C192.577,517.035 192.785,517.163 193.201,516.939Z" style="fill:rgb(248,176,176);fill-rule:nonzero;"/>
            <path d="M195.313,531.339C194.993,531.467 194.769,531.531 194.641,531.531C194.321,531.531 194.049,531.387 193.825,531.099C193.601,530.875 193.489,530.619 193.489,530.331C193.489,530.107 193.553,529.931 193.681,529.803C194.353,529.035 194.841,528.187 195.145,527.259C195.449,526.331 195.729,525.179 195.985,523.803C196.241,522.587 196.449,521.691 196.609,521.115C197.025,519.739 198.169,515.499 200.041,508.395C201.913,501.291 203.585,494.923 205.057,489.291L206.161,485.115C207.025,481.915 208.065,478.555 209.281,475.035C209.345,474.811 209.489,474.419 209.713,473.859C209.937,473.299 210.049,472.779 210.049,472.299C209.793,472.203 209.569,472.155 209.377,472.155C209.185,472.155 208.969,472.187 208.729,472.251C208.489,472.315 208.305,472.363 208.177,472.395C198.929,474.507 191.041,476.507 184.513,478.395L181.441,479.259C177.281,480.379 173.953,481.403 171.457,482.331C170.433,482.715 169.553,483.099 168.817,483.483C168.497,483.675 168.193,483.771 167.905,483.771C167.521,483.771 167.217,483.563 166.993,483.147C166.897,482.955 166.849,482.779 166.849,482.619C166.849,482.171 167.153,481.771 167.761,481.419C168.753,480.907 169.953,480.395 171.361,479.883C176.001,478.283 181.089,476.763 186.625,475.323L191.905,473.931C197.889,472.331 202.193,471.227 204.817,470.619C206.961,470.139 208.673,469.787 209.953,469.563C210.465,469.467 210.873,469.275 211.177,468.987C211.481,468.699 211.745,468.283 211.969,467.739C213.249,464.539 214.433,461.699 215.521,459.219C216.609,456.739 217.777,454.363 219.025,452.091C219.441,451.323 219.825,450.811 220.177,450.555C220.465,450.267 220.769,450.123 221.089,450.123C221.249,450.123 221.425,450.171 221.617,450.267C222.193,450.555 222.401,451.019 222.241,451.659C221.953,452.811 221.569,454.091 221.089,455.499C221.057,455.595 220.993,455.699 220.897,455.811C220.801,455.923 220.705,455.979 220.609,455.979C220.065,456.075 219.665,456.299 219.409,456.651C219.153,457.003 218.937,457.395 218.761,457.827C218.585,458.259 218.449,458.571 218.353,458.763L217.825,459.867C216.961,461.787 216.281,463.339 215.785,464.523C215.289,465.707 214.849,466.955 214.465,468.267C214.721,468.395 214.961,468.459 215.185,468.459C215.345,468.459 215.553,468.427 215.809,468.363C219.617,467.499 225.665,466.283 233.953,464.715L237.745,463.995L241.921,463.275L243.073,463.083C243.457,463.019 243.785,462.979 244.057,462.963C244.329,462.947 244.561,462.939 244.753,462.939C245.841,462.939 246.353,463.371 246.289,464.235C246.289,464.587 246.161,464.867 245.905,465.075C245.649,465.283 245.297,465.387 244.849,465.387C243.473,465.483 242.153,465.635 240.889,465.843C239.625,466.051 237.809,466.395 235.441,466.875C234.417,467.099 232.881,467.403 230.833,467.787C228.113,468.267 224.065,469.051 218.689,470.139L215.185,470.859C214.449,471.019 213.873,471.267 213.457,471.603C213.041,471.939 212.721,472.443 212.497,473.115C211.121,476.955 209.681,481.539 208.177,486.867C206.673,492.195 204.689,499.483 202.225,508.731L201.937,509.883L197.377,527.307C197.057,528.523 196.737,529.419 196.417,529.995C196.097,530.603 195.729,531.051 195.313,531.339Z" style="fill:rgb(248,176,176);fill-rule:nonzero;"/>
            <path d="M281.233,527.643C280.945,527.931 280.657,528.075 280.369,528.075C280.113,528.075 279.793,527.915 279.409,527.595C277.905,526.091 274.857,523.795 270.265,520.707C265.673,517.619 261.073,514.787 256.465,512.211C251.857,509.635 248.593,508.155 246.673,507.771C246.033,507.643 245.417,507.403 244.825,507.051C244.233,506.699 243.841,506.299 243.649,505.851C242.337,508.251 241.009,510.859 239.665,513.675C238.385,516.363 237.089,519.563 235.777,523.275C235.713,523.499 235.641,523.803 235.561,524.187C235.481,524.571 235.377,524.891 235.249,525.147C234.897,525.819 234.497,526.155 234.049,526.155C233.953,526.155 233.809,526.123 233.617,526.059C233.137,525.899 232.897,525.547 232.897,525.003C232.897,524.875 232.929,524.651 232.993,524.331C233.729,522.219 234.353,520.379 234.865,518.811C237.425,511.291 238.993,506.827 239.569,505.419L243.601,494.715L245.089,490.587C248.737,480.603 250.929,474.763 251.665,473.067C251.697,472.971 251.873,472.651 252.193,472.107C252.449,471.723 252.625,471.419 252.721,471.195C252.817,470.971 252.969,470.811 253.177,470.715C253.385,470.619 253.601,470.603 253.825,470.667C254.337,470.763 254.625,471.099 254.689,471.675C254.689,472.155 254.625,472.491 254.497,472.683C254.081,473.419 253.089,475.779 251.521,479.763C249.953,483.747 248.737,486.987 247.873,489.483L246.913,492.171C245.281,496.395 244.449,498.875 244.417,499.611C245.601,497.723 246.513,496.219 247.153,495.099C247.985,493.691 249.185,491.787 250.753,489.387C253.121,485.803 256.241,481.579 260.113,476.715C263.985,471.851 267.817,467.483 271.609,463.611C275.401,459.739 278.385,457.355 280.561,456.459C281.105,456.235 281.649,456.123 282.193,456.123C282.961,456.123 283.561,456.371 283.993,456.867C284.425,457.363 284.641,458.075 284.641,459.003C284.641,461.755 283.769,465.155 282.025,469.203C280.281,473.251 278.257,476.923 275.953,480.219C273.649,483.547 271.505,486.331 269.521,488.571C266.481,491.963 263.169,495.059 259.585,497.859C256.001,500.659 252.273,503.003 248.401,504.891C248.337,504.923 248.209,504.979 248.017,505.059C247.825,505.139 247.681,505.275 247.585,505.467C250.945,506.363 255.977,508.883 262.681,513.027C269.385,517.171 275.457,521.403 280.897,525.723C281.313,526.043 281.521,526.443 281.521,526.923C281.521,527.211 281.425,527.451 281.233,527.643ZM246.913,503.067C250.369,501.499 253.913,499.323 257.545,496.539C261.177,493.755 264.369,490.843 267.121,487.803C271.089,483.387 274.553,478.579 277.513,473.379C280.473,468.179 282.129,463.547 282.481,459.483L282.481,459.099C282.481,458.587 282.321,458.331 282.001,458.331C281.841,458.331 281.617,458.379 281.329,458.475C280.017,458.891 278.641,459.819 277.201,461.259C273.937,464.523 271.313,467.227 269.329,469.371C267.345,471.515 265.105,474.123 262.609,477.195C258.929,481.707 255.985,485.571 253.777,488.787C251.569,492.003 249.089,496.027 246.337,500.859L245.617,502.107C245.041,503.067 244.609,503.819 244.321,504.363L246.913,503.067Z" style="fill:rgb(248,176,176);fill-rule:nonzero;"/>
            <path d="M272.785,513.147C272.049,513.467 271.329,513.627 270.625,513.627C269.313,513.627 268.193,513.115 267.265,512.091C266.337,511.067 265.889,509.547 265.921,507.531C266.465,504.619 267.273,502.147 268.345,500.115C269.417,498.083 271.153,496.459 273.553,495.243C274.033,494.987 274.561,494.859 275.137,494.859C275.713,494.859 276.209,495.027 276.625,495.363C277.041,495.699 277.345,496.171 277.537,496.779C277.601,497.099 277.633,497.323 277.633,497.451C277.633,497.771 277.521,498.219 277.297,498.795C276.625,500.395 275.753,501.779 274.681,502.947C273.609,504.115 272.289,505.163 270.721,506.091C270.401,506.283 270.033,506.443 269.617,506.571C269.233,506.699 268.961,506.819 268.801,506.931C268.641,507.043 268.561,507.259 268.561,507.579C268.561,509.691 269.281,510.747 270.721,510.747C271.201,510.747 271.729,510.651 272.305,510.459C273.457,510.107 274.841,509.227 276.457,507.819C278.073,506.411 279.425,505.067 280.513,503.787L280.753,503.451C281.297,502.779 281.761,502.443 282.145,502.443C282.369,502.443 282.577,502.539 282.769,502.731C283.057,503.019 283.201,503.323 283.201,503.643C283.201,503.963 283.025,504.395 282.673,504.939C281.617,506.379 280.089,507.939 278.089,509.619C276.089,511.299 274.321,512.475 272.785,513.147ZM269.473,504.219C271.745,502.971 273.537,501.195 274.849,498.891C274.881,498.795 274.969,498.643 275.113,498.435C275.257,498.227 275.329,498.027 275.329,497.835C275.329,497.707 275.249,497.563 275.089,497.403C274.961,497.275 274.785,497.211 274.561,497.211C274.305,497.211 274.033,497.315 273.745,497.523C273.457,497.731 273.105,498.043 272.689,498.459C271.825,499.451 271.121,500.387 270.577,501.267C270.033,502.147 269.665,503.131 269.473,504.219Z" style="fill:rgb(248,176,176);fill-rule:nonzero;"/>
            <path d="M284.401,510.411C283.889,510.667 283.361,510.795 282.817,510.795C282.081,510.795 281.497,510.507 281.065,509.931C280.633,509.355 280.417,508.555 280.417,507.531C280.417,505.771 280.721,504.051 281.329,502.371C281.937,500.691 282.801,498.955 283.921,497.163C284.273,496.683 284.769,496.267 285.409,495.915C285.793,495.755 286.129,495.675 286.417,495.675C287.057,495.675 287.609,495.899 288.073,496.347C288.537,496.795 288.769,497.355 288.769,498.027C288.769,498.411 288.665,498.707 288.457,498.915C288.249,499.123 288.001,499.227 287.713,499.227C287.457,499.227 287.217,499.163 286.993,499.035C286.865,498.971 286.729,498.851 286.585,498.675C286.441,498.499 286.305,498.347 286.177,498.219C284.097,500.971 282.913,503.963 282.625,507.195L282.625,507.483C282.625,507.995 282.769,508.251 283.057,508.251C283.281,508.251 283.553,508.139 283.873,507.915C284.577,507.499 285.233,507.027 285.841,506.499C286.449,505.971 287.185,505.291 288.049,504.459L289.345,503.211L294.481,498.411C294.545,498.347 294.705,498.195 294.961,497.955C295.217,497.715 295.473,497.595 295.729,497.595C295.953,497.595 296.177,497.723 296.401,497.979C296.657,498.299 296.785,498.587 296.785,498.843C296.785,499.259 296.545,499.691 296.065,500.139L292.657,503.307C291.921,504.043 290.785,505.115 289.249,506.523C288.545,507.163 287.457,508.091 285.985,509.307C285.633,509.659 285.105,510.027 284.401,510.411Z" style="fill:rgb(248,176,176);fill-rule:nonzero;"/>
            <path d="M298.225,513.147C297.489,513.467 296.769,513.627 296.065,513.627C294.753,513.627 293.633,513.115 292.705,512.091C291.777,511.067 291.329,509.547 291.361,507.531C291.905,504.619 292.713,502.147 293.785,500.115C294.857,498.083 296.593,496.459 298.993,495.243C299.473,494.987 300.001,494.859 300.577,494.859C301.153,494.859 301.649,495.027 302.065,495.363C302.481,495.699 302.785,496.171 302.977,496.779C303.041,497.099 303.073,497.323 303.073,497.451C303.073,497.771 302.961,498.219 302.737,498.795C302.065,500.395 301.193,501.779 300.121,502.947C299.049,504.115 297.729,505.163 296.161,506.091C295.841,506.283 295.473,506.443 295.057,506.571C294.673,506.699 294.401,506.819 294.241,506.931C294.081,507.043 294.001,507.259 294.001,507.579C294.001,509.691 294.721,510.747 296.161,510.747C296.641,510.747 297.169,510.651 297.745,510.459C298.897,510.107 300.281,509.227 301.897,507.819C303.513,506.411 304.865,505.067 305.953,503.787L306.193,503.451C306.737,502.779 307.201,502.443 307.585,502.443C307.809,502.443 308.017,502.539 308.209,502.731C308.497,503.019 308.641,503.323 308.641,503.643C308.641,503.963 308.465,504.395 308.113,504.939C307.057,506.379 305.529,507.939 303.529,509.619C301.529,511.299 299.761,512.475 298.225,513.147ZM294.913,504.219C297.185,502.971 298.977,501.195 300.289,498.891C300.321,498.795 300.409,498.643 300.553,498.435C300.697,498.227 300.769,498.027 300.769,497.835C300.769,497.707 300.689,497.563 300.529,497.403C300.401,497.275 300.225,497.211 300.001,497.211C299.745,497.211 299.473,497.315 299.185,497.523C298.897,497.731 298.545,498.043 298.129,498.459C297.265,499.451 296.561,500.387 296.017,501.267C295.473,502.147 295.105,503.131 294.913,504.219Z" style="fill:rgb(248,176,176);fill-rule:nonzero;"/>
            <path d="M306.721,510.123C306.241,509.931 306.001,509.531 306.001,508.923L306.049,508.347C306.241,507.003 306.505,505.587 306.841,504.099C307.177,502.611 307.393,501.691 307.489,501.339L307.921,499.467L308.353,497.019C308.481,496.507 308.673,496.131 308.929,495.891C309.185,495.651 309.489,495.595 309.841,495.723C310.353,495.883 310.609,496.203 310.609,496.683C310.609,496.715 310.561,496.971 310.465,497.451L309.121,504.123C309.089,504.251 309.081,504.403 309.097,504.579C309.113,504.755 309.105,504.971 309.073,505.227L310.417,504.075C311.505,503.179 312.289,502.507 312.769,502.059C313.377,501.515 314.321,500.939 315.601,500.331C315.985,500.139 316.353,500.043 316.705,500.043C317.441,500.043 318.001,500.491 318.385,501.387C318.641,502.027 318.897,502.955 319.153,504.171C319.281,504.715 319.433,505.107 319.609,505.347C319.785,505.587 320.017,505.707 320.305,505.707C320.625,505.707 321.009,505.595 321.457,505.371C323.057,504.635 324.385,503.891 325.441,503.139C326.497,502.387 327.377,501.435 328.081,500.283C328.305,499.899 328.561,499.707 328.849,499.707C329.041,499.707 329.185,499.739 329.281,499.803C329.761,500.091 329.921,500.507 329.761,501.051C329.377,502.011 328.897,502.763 328.321,503.307C326.657,504.843 324.609,506.219 322.177,507.435C321.537,507.755 320.913,507.915 320.305,507.915C319.633,507.915 319.033,507.707 318.505,507.291C317.977,506.875 317.553,506.267 317.233,505.467C317.137,505.179 316.945,504.523 316.657,503.499C316.625,503.051 316.529,502.619 316.369,502.203C314.385,503.323 312.417,504.939 310.465,507.051C310.305,507.243 309.993,507.563 309.529,508.011C309.065,508.459 308.705,508.923 308.449,509.403C308.193,509.947 307.793,510.219 307.249,510.219C307.025,510.219 306.849,510.187 306.721,510.123Z" style="fill:rgb(248,176,176);fill-rule:nonzero;"/>
            <path d="M321.169,531.339C320.849,531.467 320.625,531.531 320.497,531.531C320.177,531.531 319.905,531.387 319.681,531.099C319.457,530.875 319.345,530.619 319.345,530.331C319.345,530.107 319.409,529.931 319.537,529.803C320.209,529.035 320.697,528.187 321.001,527.259C321.305,526.331 321.585,525.179 321.841,523.803C322.097,522.587 322.305,521.691 322.465,521.115C322.881,519.739 324.025,515.499 325.897,508.395C327.769,501.291 329.441,494.923 330.913,489.291L332.017,485.115C332.881,481.915 333.921,478.555 335.137,475.035C335.201,474.811 335.345,474.419 335.569,473.859C335.793,473.299 335.905,472.779 335.905,472.299C335.649,472.203 335.425,472.155 335.233,472.155C335.041,472.155 334.825,472.187 334.585,472.251C334.345,472.315 334.161,472.363 334.033,472.395C324.785,474.507 316.897,476.507 310.369,478.395L307.297,479.259C303.137,480.379 299.809,481.403 297.313,482.331C296.289,482.715 295.409,483.099 294.673,483.483C294.353,483.675 294.049,483.771 293.761,483.771C293.377,483.771 293.073,483.563 292.849,483.147C292.753,482.955 292.705,482.779 292.705,482.619C292.705,482.171 293.009,481.771 293.617,481.419C294.609,480.907 295.809,480.395 297.217,479.883C301.857,478.283 306.945,476.763 312.481,475.323L317.761,473.931C323.745,472.331 328.049,471.227 330.673,470.619C332.817,470.139 334.529,469.787 335.809,469.563C336.321,469.467 336.729,469.275 337.033,468.987C337.337,468.699 337.601,468.283 337.825,467.739C339.105,464.539 340.289,461.699 341.377,459.219C342.465,456.739 343.633,454.363 344.881,452.091C345.297,451.323 345.681,450.811 346.033,450.555C346.321,450.267 346.625,450.123 346.945,450.123C347.105,450.123 347.281,450.171 347.473,450.267C348.049,450.555 348.257,451.019 348.097,451.659C347.809,452.811 347.425,454.091 346.945,455.499C346.913,455.595 346.849,455.699 346.753,455.811C346.657,455.923 346.561,455.979 346.465,455.979C345.921,456.075 345.521,456.299 345.265,456.651C345.009,457.003 344.793,457.395 344.617,457.827C344.441,458.259 344.305,458.571 344.209,458.763L343.681,459.867C342.817,461.787 342.137,463.339 341.641,464.523C341.145,465.707 340.705,466.955 340.321,468.267C340.577,468.395 340.817,468.459 341.041,468.459C341.201,468.459 341.409,468.427 341.665,468.363C345.473,467.499 351.521,466.283 359.809,464.715L363.601,463.995L367.777,463.275L368.929,463.083C369.313,463.019 369.641,462.979 369.913,462.963C370.185,462.947 370.417,462.939 370.609,462.939C371.697,462.939 372.209,463.371 372.145,464.235C372.145,464.587 372.017,464.867 371.761,465.075C371.505,465.283 371.153,465.387 370.705,465.387C369.329,465.483 368.009,465.635 366.745,465.843C365.481,466.051 363.665,466.395 361.297,466.875C360.273,467.099 358.737,467.403 356.689,467.787C353.969,468.267 349.921,469.051 344.545,470.139L341.041,470.859C340.305,471.019 339.729,471.267 339.313,471.603C338.897,471.939 338.577,472.443 338.353,473.115C336.977,476.955 335.537,481.539 334.033,486.867C332.529,492.195 330.545,499.483 328.081,508.731L327.793,509.883L323.233,527.307C322.913,528.523 322.593,529.419 322.273,529.995C321.953,530.603 321.585,531.051 321.169,531.339Z" style="fill:rgb(248,176,176);fill-rule:nonzero;"/>
        </g>
    </g>
</svg>
