<?xml version="1.0" encoding="UTF-8" standalone="no"?>
<!DOCTYPE svg PUBLIC "-//W3C//DTD SVG 1.1//EN" "http://www.w3.org/Graphics/SVG/1.1/DTD/svg11.dtd">
<svg width="100%" height="100%" viewBox="0 0 190 68" version="1.1" xmlns="http://www.w3.org/2000/svg" xmlns:xlink="http://www.w3.org/1999/xlink" xml:space="preserve" xmlns:serif="http://www.serif.com/" style="fill-rule:evenodd;clip-rule:evenodd;stroke-linejoin:round;stroke-miterlimit:2;">
    <g transform="matrix(1,0,0,1,-225.898,-87.674)">
        <g transform="matrix(4.00762,0,0,4.00762,-785.789,-355.341)">
            <g transform="matrix(12,0,0,12,260.686,126.889)">
                <path d="M0.268,-0.848C0.321,-0.848 0.368,-0.843 0.41,-0.834C0.451,-0.826 0.487,-0.813 0.518,-0.798C0.549,-0.782 0.576,-0.764 0.597,-0.742C0.619,-0.72 0.636,-0.697 0.649,-0.671C0.663,-0.646 0.672,-0.618 0.678,-0.59C0.684,-0.561 0.688,-0.532 0.688,-0.502C0.688,-0.461 0.683,-0.417 0.674,-0.369C0.665,-0.321 0.652,-0.277 0.634,-0.238C0.617,-0.198 0.596,-0.161 0.571,-0.127C0.545,-0.092 0.516,-0.062 0.484,-0.037C0.451,-0.011 0.416,0.009 0.376,0.024C0.337,0.039 0.295,0.046 0.25,0.046C0.235,0.046 0.219,0.045 0.203,0.043C0.187,0.041 0.172,0.038 0.157,0.034C0.142,0.03 0.128,0.025 0.114,0.021C0.101,0.016 0.089,0.011 0.079,0.005C0.075,0.004 0.072,0.003 0.069,0.001C0.067,-0.001 0.065,-0.003 0.063,-0.006C0.062,-0.008 0.061,-0.011 0.061,-0.015C0.061,-0.018 0.061,-0.023 0.061,-0.028C0.061,-0.082 0.062,-0.138 0.065,-0.194C0.067,-0.251 0.073,-0.309 0.082,-0.369C0.09,-0.429 0.102,-0.481 0.118,-0.527C0.134,-0.573 0.155,-0.615 0.182,-0.654C0.188,-0.663 0.209,-0.668 0.245,-0.668C0.272,-0.668 0.292,-0.658 0.304,-0.638C0.289,-0.618 0.277,-0.595 0.267,-0.57C0.257,-0.546 0.248,-0.521 0.241,-0.497C0.234,-0.473 0.229,-0.447 0.224,-0.419C0.215,-0.364 0.211,-0.337 0.211,-0.336C0.212,-0.335 0.209,-0.304 0.2,-0.242C0.197,-0.221 0.194,-0.202 0.193,-0.186C0.191,-0.17 0.19,-0.156 0.189,-0.144C0.188,-0.132 0.188,-0.12 0.188,-0.109C0.188,-0.097 0.188,-0.087 0.189,-0.079C0.19,-0.07 0.191,-0.064 0.195,-0.059C0.198,-0.054 0.202,-0.051 0.209,-0.049C0.215,-0.046 0.224,-0.045 0.234,-0.045C0.267,-0.045 0.298,-0.052 0.327,-0.065C0.356,-0.078 0.383,-0.095 0.408,-0.116C0.433,-0.138 0.455,-0.163 0.475,-0.192C0.495,-0.221 0.511,-0.254 0.525,-0.291C0.539,-0.329 0.55,-0.364 0.557,-0.397C0.565,-0.43 0.568,-0.462 0.568,-0.493C0.568,-0.53 0.562,-0.564 0.55,-0.594C0.537,-0.624 0.52,-0.649 0.498,-0.67C0.476,-0.69 0.449,-0.706 0.417,-0.717C0.386,-0.728 0.352,-0.733 0.314,-0.733C0.287,-0.733 0.26,-0.732 0.233,-0.729C0.206,-0.725 0.181,-0.72 0.158,-0.713C0.135,-0.707 0.115,-0.698 0.098,-0.687C0.08,-0.677 0.067,-0.664 0.059,-0.649C0.035,-0.613 0.015,-0.584 0,-0.564C-0.015,-0.544 -0.028,-0.534 -0.039,-0.534C-0.053,-0.534 -0.06,-0.551 -0.06,-0.583C-0.06,-0.615 -0.056,-0.644 -0.048,-0.669C-0.039,-0.695 -0.028,-0.717 -0.013,-0.737C0.002,-0.757 0.019,-0.774 0.04,-0.787C0.06,-0.801 0.082,-0.813 0.107,-0.822C0.131,-0.83 0.157,-0.837 0.184,-0.841C0.211,-0.846 0.239,-0.848 0.268,-0.848Z" style="fill:white;fill-rule:nonzero;"/>
            </g>
            <g transform="matrix(12,0,0,12,268.895,126.889)">
                <path d="M0.228,0C0.197,0 0.17,-0.006 0.147,-0.017C0.124,-0.028 0.105,-0.043 0.09,-0.061C0.075,-0.08 0.063,-0.102 0.055,-0.126C0.048,-0.151 0.044,-0.177 0.044,-0.204C0.044,-0.222 0.047,-0.244 0.054,-0.269C0.061,-0.294 0.068,-0.316 0.075,-0.336C0.083,-0.355 0.092,-0.374 0.103,-0.392C0.114,-0.41 0.127,-0.425 0.142,-0.439C0.157,-0.452 0.173,-0.463 0.192,-0.471C0.21,-0.479 0.23,-0.483 0.253,-0.483C0.271,-0.483 0.288,-0.48 0.304,-0.474C0.319,-0.468 0.333,-0.46 0.344,-0.449C0.356,-0.439 0.365,-0.426 0.372,-0.411C0.378,-0.396 0.381,-0.379 0.381,-0.361C0.381,-0.341 0.375,-0.318 0.362,-0.293C0.348,-0.268 0.333,-0.246 0.315,-0.229C0.298,-0.211 0.277,-0.195 0.253,-0.181C0.228,-0.167 0.202,-0.156 0.174,-0.148C0.179,-0.139 0.184,-0.132 0.188,-0.126C0.193,-0.12 0.198,-0.116 0.203,-0.112C0.208,-0.109 0.213,-0.107 0.218,-0.105C0.223,-0.104 0.229,-0.104 0.235,-0.104C0.255,-0.104 0.275,-0.107 0.297,-0.115C0.319,-0.123 0.34,-0.133 0.36,-0.145C0.381,-0.156 0.4,-0.169 0.418,-0.183C0.437,-0.197 0.452,-0.21 0.465,-0.222L0.528,-0.157C0.499,-0.127 0.469,-0.101 0.437,-0.078C0.423,-0.068 0.407,-0.059 0.391,-0.049C0.375,-0.04 0.358,-0.031 0.341,-0.024C0.323,-0.017 0.304,-0.011 0.285,-0.007C0.266,-0.002 0.247,0 0.228,0ZM0.163,-0.229C0.174,-0.229 0.187,-0.233 0.201,-0.239C0.215,-0.245 0.228,-0.252 0.24,-0.262C0.251,-0.271 0.263,-0.284 0.274,-0.3C0.286,-0.316 0.292,-0.329 0.292,-0.339C0.292,-0.354 0.289,-0.366 0.283,-0.375C0.278,-0.385 0.271,-0.39 0.264,-0.39C0.25,-0.39 0.238,-0.387 0.228,-0.382C0.218,-0.377 0.21,-0.37 0.203,-0.362C0.196,-0.353 0.191,-0.344 0.187,-0.333C0.183,-0.323 0.178,-0.31 0.173,-0.294C0.167,-0.278 0.164,-0.265 0.164,-0.255C0.163,-0.245 0.163,-0.237 0.163,-0.229Z" style="fill:white;fill-rule:nonzero;"/>
            </g>
            <g transform="matrix(12,0,0,12,273.313,126.889)">
                <path d="M0.266,-0.091C0.266,-0.096 0.266,-0.102 0.267,-0.109C0.267,-0.117 0.268,-0.126 0.27,-0.136C0.271,-0.146 0.272,-0.157 0.274,-0.168C0.276,-0.179 0.277,-0.191 0.279,-0.202C0.282,-0.228 0.287,-0.256 0.292,-0.286L0.285,-0.286C0.281,-0.281 0.276,-0.273 0.271,-0.264C0.266,-0.254 0.259,-0.24 0.25,-0.221C0.241,-0.202 0.229,-0.177 0.215,-0.147C0.201,-0.117 0.183,-0.079 0.16,-0.034C0.154,-0.021 0.146,-0.012 0.137,-0.007C0.129,-0.002 0.119,0 0.109,0C0.096,0 0.085,-0.003 0.077,-0.009C0.069,-0.014 0.062,-0.022 0.058,-0.031C0.053,-0.041 0.051,-0.052 0.049,-0.064C0.048,-0.076 0.047,-0.089 0.047,-0.102C0.047,-0.115 0.048,-0.131 0.049,-0.149C0.051,-0.168 0.053,-0.187 0.056,-0.207C0.058,-0.227 0.062,-0.25 0.067,-0.276C0.072,-0.302 0.077,-0.325 0.08,-0.344C0.084,-0.363 0.088,-0.381 0.092,-0.396C0.096,-0.412 0.099,-0.425 0.103,-0.436C0.106,-0.446 0.109,-0.454 0.112,-0.46C0.115,-0.467 0.118,-0.471 0.122,-0.475C0.126,-0.478 0.13,-0.481 0.135,-0.482C0.14,-0.483 0.147,-0.483 0.155,-0.483C0.168,-0.483 0.177,-0.483 0.184,-0.482C0.191,-0.481 0.197,-0.479 0.2,-0.476C0.203,-0.473 0.205,-0.469 0.206,-0.463C0.207,-0.457 0.207,-0.449 0.207,-0.439C0.207,-0.433 0.207,-0.427 0.206,-0.42C0.206,-0.413 0.205,-0.405 0.204,-0.397C0.203,-0.389 0.202,-0.381 0.201,-0.372C0.199,-0.356 0.198,-0.347 0.197,-0.347C0.193,-0.325 0.188,-0.3 0.183,-0.272L0.188,-0.267C0.189,-0.268 0.193,-0.276 0.201,-0.292C0.209,-0.309 0.218,-0.325 0.227,-0.341C0.237,-0.357 0.247,-0.373 0.257,-0.391C0.268,-0.408 0.278,-0.424 0.288,-0.437C0.298,-0.45 0.308,-0.461 0.318,-0.47C0.329,-0.479 0.341,-0.483 0.356,-0.483C0.37,-0.483 0.381,-0.479 0.391,-0.471C0.401,-0.463 0.406,-0.452 0.406,-0.438C0.406,-0.425 0.405,-0.413 0.403,-0.401C0.401,-0.387 0.399,-0.376 0.397,-0.368C0.395,-0.36 0.393,-0.349 0.39,-0.337C0.387,-0.326 0.383,-0.311 0.377,-0.291C0.376,-0.287 0.375,-0.283 0.375,-0.276C0.374,-0.274 0.374,-0.273 0.374,-0.272L0.379,-0.267C0.38,-0.268 0.385,-0.276 0.393,-0.292C0.402,-0.308 0.411,-0.324 0.421,-0.34C0.431,-0.356 0.441,-0.373 0.452,-0.391C0.464,-0.408 0.474,-0.424 0.484,-0.437C0.493,-0.45 0.503,-0.461 0.512,-0.47C0.522,-0.479 0.533,-0.483 0.547,-0.483C0.562,-0.483 0.575,-0.479 0.586,-0.471C0.596,-0.463 0.602,-0.452 0.602,-0.438C0.602,-0.415 0.6,-0.394 0.598,-0.374C0.596,-0.353 0.592,-0.331 0.588,-0.307C0.583,-0.282 0.58,-0.26 0.578,-0.24C0.575,-0.22 0.574,-0.199 0.574,-0.176C0.574,-0.159 0.576,-0.144 0.581,-0.133C0.586,-0.122 0.591,-0.117 0.598,-0.117C0.604,-0.117 0.612,-0.118 0.619,-0.121C0.627,-0.124 0.634,-0.128 0.642,-0.132C0.65,-0.137 0.658,-0.142 0.665,-0.148C0.673,-0.154 0.68,-0.16 0.687,-0.167C0.702,-0.182 0.718,-0.199 0.734,-0.218L0.742,-0.103C0.728,-0.091 0.714,-0.079 0.699,-0.067C0.685,-0.055 0.67,-0.044 0.655,-0.034C0.639,-0.024 0.621,-0.016 0.603,-0.01C0.584,-0.003 0.562,0 0.539,0C0.527,0 0.517,-0.004 0.509,-0.011C0.501,-0.019 0.495,-0.03 0.49,-0.043C0.485,-0.057 0.481,-0.073 0.479,-0.092C0.477,-0.11 0.476,-0.131 0.476,-0.152C0.476,-0.173 0.477,-0.195 0.478,-0.218C0.48,-0.24 0.482,-0.264 0.484,-0.287L0.477,-0.287L0.378,-0.035C0.369,-0.021 0.36,-0.012 0.35,-0.007C0.339,-0.002 0.327,0 0.313,0C0.303,0 0.295,-0.003 0.289,-0.009C0.282,-0.014 0.278,-0.022 0.274,-0.031C0.271,-0.039 0.268,-0.049 0.267,-0.06C0.266,-0.071 0.266,-0.081 0.266,-0.091Z" style="fill:white;fill-rule:nonzero;"/>
            </g>
            <g transform="matrix(12,0,0,12,280.889,126.889)">
                <path d="M0.573,-0.12C0.566,-0.109 0.556,-0.097 0.543,-0.083C0.531,-0.069 0.517,-0.056 0.501,-0.043C0.485,-0.03 0.469,-0.02 0.451,-0.011C0.433,-0.002 0.415,0.002 0.397,0.002C0.375,0.002 0.358,-0.004 0.343,-0.018C0.329,-0.032 0.317,-0.052 0.306,-0.079C0.298,-0.069 0.289,-0.06 0.277,-0.051C0.266,-0.041 0.253,-0.033 0.24,-0.025C0.226,-0.017 0.212,-0.011 0.198,-0.006C0.183,-0.001 0.168,0.001 0.154,0.001C0.138,0.001 0.123,-0.002 0.108,-0.009C0.093,-0.015 0.08,-0.024 0.069,-0.036C0.057,-0.048 0.048,-0.062 0.042,-0.079C0.035,-0.096 0.031,-0.116 0.031,-0.137C0.031,-0.162 0.035,-0.187 0.042,-0.212C0.048,-0.238 0.059,-0.266 0.073,-0.296C0.088,-0.326 0.103,-0.352 0.119,-0.374C0.136,-0.395 0.154,-0.414 0.173,-0.431C0.193,-0.447 0.213,-0.46 0.235,-0.469C0.257,-0.479 0.279,-0.484 0.301,-0.484C0.309,-0.484 0.315,-0.482 0.319,-0.479C0.323,-0.477 0.327,-0.473 0.329,-0.469C0.332,-0.466 0.335,-0.462 0.337,-0.458C0.34,-0.455 0.343,-0.452 0.347,-0.451C0.351,-0.449 0.355,-0.448 0.359,-0.448C0.363,-0.447 0.367,-0.447 0.372,-0.447L0.394,-0.447C0.398,-0.447 0.403,-0.447 0.407,-0.446C0.411,-0.445 0.415,-0.443 0.418,-0.439C0.422,-0.436 0.424,-0.432 0.426,-0.426C0.428,-0.42 0.429,-0.412 0.429,-0.402C0.429,-0.386 0.427,-0.369 0.424,-0.35C0.421,-0.331 0.417,-0.311 0.413,-0.291C0.409,-0.271 0.404,-0.249 0.399,-0.223C0.393,-0.198 0.391,-0.176 0.391,-0.158C0.391,-0.143 0.392,-0.131 0.395,-0.122C0.398,-0.114 0.403,-0.109 0.413,-0.109C0.419,-0.109 0.427,-0.111 0.434,-0.115C0.442,-0.118 0.449,-0.122 0.457,-0.128C0.464,-0.133 0.472,-0.14 0.48,-0.147C0.487,-0.154 0.495,-0.161 0.501,-0.168C0.517,-0.186 0.534,-0.206 0.55,-0.228L0.573,-0.12ZM0.156,-0.158C0.156,-0.15 0.157,-0.142 0.158,-0.135C0.159,-0.127 0.161,-0.12 0.164,-0.114C0.167,-0.108 0.171,-0.103 0.176,-0.099C0.181,-0.096 0.187,-0.094 0.194,-0.094C0.206,-0.094 0.217,-0.099 0.227,-0.109C0.237,-0.12 0.245,-0.132 0.252,-0.147C0.26,-0.162 0.265,-0.177 0.27,-0.192C0.274,-0.208 0.277,-0.221 0.278,-0.231L0.315,-0.391C0.302,-0.391 0.289,-0.388 0.276,-0.381C0.263,-0.374 0.251,-0.365 0.24,-0.354C0.229,-0.343 0.218,-0.33 0.209,-0.315C0.2,-0.3 0.19,-0.282 0.181,-0.261C0.172,-0.239 0.166,-0.22 0.162,-0.204C0.158,-0.188 0.156,-0.173 0.156,-0.158Z" style="fill:white;fill-rule:nonzero;"/>
            </g>
            <g transform="matrix(12,0,0,12,286.573,126.889)">
                <path d="M0.063,-0.102C0.063,-0.124 0.064,-0.148 0.066,-0.177C0.069,-0.205 0.072,-0.236 0.076,-0.269C0.08,-0.303 0.084,-0.333 0.089,-0.36C0.094,-0.387 0.099,-0.41 0.104,-0.43C0.107,-0.445 0.114,-0.457 0.124,-0.467C0.135,-0.477 0.148,-0.482 0.166,-0.482C0.184,-0.482 0.196,-0.477 0.203,-0.466C0.209,-0.456 0.213,-0.441 0.213,-0.423C0.213,-0.418 0.212,-0.412 0.211,-0.404C0.21,-0.395 0.209,-0.386 0.208,-0.376C0.206,-0.366 0.205,-0.356 0.203,-0.345C0.201,-0.335 0.2,-0.323 0.198,-0.309C0.197,-0.296 0.196,-0.286 0.195,-0.279C0.194,-0.272 0.193,-0.268 0.193,-0.266L0.203,-0.266C0.205,-0.269 0.208,-0.275 0.212,-0.283C0.217,-0.291 0.222,-0.302 0.227,-0.317C0.233,-0.332 0.239,-0.346 0.245,-0.357C0.251,-0.369 0.257,-0.38 0.263,-0.39C0.268,-0.401 0.273,-0.41 0.278,-0.418C0.282,-0.427 0.286,-0.433 0.288,-0.437C0.299,-0.454 0.31,-0.466 0.324,-0.473C0.337,-0.479 0.352,-0.482 0.368,-0.482C0.384,-0.482 0.397,-0.476 0.407,-0.462C0.417,-0.448 0.421,-0.429 0.421,-0.405C0.421,-0.402 0.421,-0.396 0.419,-0.387C0.418,-0.379 0.416,-0.369 0.414,-0.357C0.411,-0.345 0.409,-0.33 0.406,-0.312C0.403,-0.293 0.401,-0.276 0.398,-0.262C0.396,-0.247 0.394,-0.233 0.393,-0.218C0.391,-0.204 0.391,-0.191 0.391,-0.179C0.391,-0.159 0.393,-0.142 0.398,-0.129C0.403,-0.116 0.411,-0.109 0.422,-0.109C0.426,-0.109 0.431,-0.111 0.438,-0.114C0.449,-0.118 0.456,-0.121 0.459,-0.124C0.473,-0.135 0.481,-0.14 0.481,-0.14C0.482,-0.14 0.493,-0.146 0.514,-0.16C0.54,-0.176 0.571,-0.197 0.607,-0.221L0.607,-0.111L0.583,-0.093C0.581,-0.091 0.565,-0.083 0.537,-0.067C0.495,-0.045 0.469,-0.032 0.459,-0.027C0.434,-0.016 0.418,-0.009 0.412,-0.008C0.395,-0.003 0.378,0 0.36,0C0.342,0 0.327,-0.013 0.315,-0.039C0.303,-0.065 0.297,-0.103 0.297,-0.152C0.297,-0.172 0.298,-0.193 0.301,-0.216C0.303,-0.238 0.307,-0.263 0.311,-0.289L0.303,-0.289L0.175,-0.035C0.168,-0.021 0.161,-0.012 0.153,-0.007C0.145,-0.002 0.135,0 0.125,0C0.111,0 0.1,-0.003 0.092,-0.009C0.084,-0.014 0.078,-0.022 0.073,-0.031C0.069,-0.041 0.066,-0.052 0.065,-0.064C0.063,-0.076 0.063,-0.089 0.063,-0.102Z" style="fill:white;fill-rule:nonzero;"/>
            </g>
            <g transform="matrix(12,0,0,12,292.256,126.889)">
                <path d="M0.277,-0.394C0.256,-0.383 0.237,-0.369 0.22,-0.352C0.203,-0.335 0.189,-0.313 0.178,-0.285C0.167,-0.257 0.158,-0.233 0.152,-0.212C0.146,-0.192 0.144,-0.174 0.144,-0.158C0.144,-0.151 0.144,-0.145 0.146,-0.138C0.147,-0.132 0.15,-0.126 0.154,-0.121C0.158,-0.115 0.163,-0.111 0.17,-0.108C0.178,-0.105 0.187,-0.103 0.198,-0.103C0.204,-0.103 0.21,-0.104 0.216,-0.107C0.221,-0.11 0.227,-0.114 0.232,-0.119C0.237,-0.124 0.242,-0.129 0.247,-0.135C0.252,-0.141 0.256,-0.147 0.26,-0.154C0.269,-0.169 0.277,-0.186 0.285,-0.205C0.284,-0.209 0.283,-0.216 0.282,-0.226C0.282,-0.236 0.281,-0.251 0.281,-0.272L0.279,-0.357C0.279,-0.368 0.279,-0.377 0.278,-0.384C0.278,-0.391 0.278,-0.394 0.277,-0.394ZM0.613,-0.096C0.59,-0.078 0.567,-0.062 0.545,-0.048C0.535,-0.042 0.526,-0.036 0.515,-0.031C0.505,-0.025 0.494,-0.02 0.484,-0.015C0.474,-0.011 0.464,-0.007 0.455,-0.005C0.445,-0.002 0.436,0 0.428,0C0.424,0 0.417,-0.001 0.408,-0.003C0.399,-0.005 0.389,-0.009 0.379,-0.015C0.368,-0.021 0.358,-0.03 0.347,-0.042C0.336,-0.053 0.327,-0.068 0.319,-0.087C0.307,-0.075 0.295,-0.064 0.281,-0.053C0.267,-0.043 0.253,-0.034 0.239,-0.026C0.225,-0.018 0.21,-0.012 0.195,-0.007C0.18,-0.002 0.165,0 0.15,0C0.129,0 0.111,-0.005 0.095,-0.014C0.08,-0.023 0.067,-0.035 0.057,-0.05C0.047,-0.065 0.039,-0.082 0.034,-0.102C0.029,-0.121 0.026,-0.141 0.026,-0.161C0.026,-0.182 0.029,-0.203 0.034,-0.224C0.04,-0.246 0.048,-0.266 0.058,-0.286C0.068,-0.306 0.08,-0.327 0.092,-0.349C0.105,-0.371 0.121,-0.391 0.142,-0.409C0.163,-0.427 0.184,-0.44 0.206,-0.449C0.227,-0.458 0.251,-0.464 0.275,-0.466C0.276,-0.508 0.28,-0.545 0.287,-0.578C0.293,-0.61 0.302,-0.645 0.313,-0.682C0.323,-0.718 0.336,-0.752 0.35,-0.784C0.365,-0.815 0.381,-0.842 0.398,-0.865C0.415,-0.888 0.434,-0.905 0.453,-0.918C0.473,-0.931 0.493,-0.938 0.514,-0.938C0.529,-0.938 0.542,-0.934 0.553,-0.926C0.563,-0.918 0.572,-0.907 0.579,-0.894C0.586,-0.881 0.59,-0.865 0.593,-0.848C0.596,-0.83 0.598,-0.813 0.598,-0.794C0.598,-0.783 0.597,-0.771 0.596,-0.759C0.592,-0.713 0.584,-0.67 0.573,-0.629C0.561,-0.588 0.548,-0.548 0.533,-0.509C0.517,-0.471 0.501,-0.432 0.483,-0.394C0.456,-0.336 0.438,-0.296 0.431,-0.275C0.429,-0.271 0.427,-0.265 0.426,-0.259C0.424,-0.252 0.423,-0.245 0.421,-0.238C0.42,-0.23 0.418,-0.222 0.417,-0.214C0.417,-0.206 0.416,-0.198 0.416,-0.191C0.416,-0.181 0.417,-0.173 0.418,-0.164C0.419,-0.156 0.421,-0.148 0.423,-0.141C0.426,-0.135 0.429,-0.129 0.434,-0.125C0.438,-0.122 0.444,-0.12 0.45,-0.12C0.456,-0.12 0.463,-0.121 0.47,-0.123C0.478,-0.126 0.486,-0.129 0.494,-0.133C0.502,-0.138 0.51,-0.142 0.518,-0.148C0.527,-0.153 0.535,-0.159 0.542,-0.164C0.56,-0.177 0.579,-0.192 0.599,-0.208L0.613,-0.096ZM0.507,-0.723C0.509,-0.746 0.51,-0.764 0.51,-0.777C0.51,-0.795 0.508,-0.807 0.505,-0.814C0.502,-0.821 0.498,-0.824 0.492,-0.824C0.481,-0.824 0.472,-0.818 0.463,-0.804C0.455,-0.791 0.447,-0.774 0.441,-0.754C0.434,-0.733 0.429,-0.711 0.424,-0.686C0.419,-0.661 0.415,-0.637 0.412,-0.614C0.408,-0.591 0.406,-0.57 0.404,-0.552C0.402,-0.533 0.401,-0.52 0.4,-0.512C0.399,-0.496 0.398,-0.481 0.397,-0.466C0.396,-0.451 0.395,-0.438 0.395,-0.426C0.395,-0.413 0.395,-0.403 0.395,-0.394L0.395,-0.368C0.413,-0.41 0.43,-0.452 0.446,-0.494C0.452,-0.512 0.459,-0.531 0.466,-0.551C0.472,-0.57 0.478,-0.59 0.484,-0.61C0.489,-0.63 0.494,-0.649 0.498,-0.668C0.502,-0.688 0.505,-0.706 0.507,-0.723Z" style="fill:white;fill-rule:nonzero;"/>
            </g>
        </g>
        <g transform="matrix(0.605863,0,0,0.605863,57.4526,77.7957)">
            <g transform="matrix(48.0914,0,0,48.0914,275.771,58.7132)">
                <path d="M0.362,0.094C0.314,0.094 0.27,0.084 0.231,0.064C0.192,0.044 0.159,0.016 0.132,-0.019C0.104,-0.055 0.083,-0.097 0.069,-0.147C0.054,-0.196 0.047,-0.25 0.047,-0.309C0.047,-0.34 0.049,-0.372 0.054,-0.405C0.058,-0.438 0.065,-0.471 0.074,-0.504C0.084,-0.536 0.095,-0.568 0.109,-0.6C0.123,-0.631 0.139,-0.661 0.157,-0.689C0.176,-0.717 0.196,-0.743 0.219,-0.766C0.242,-0.79 0.267,-0.81 0.295,-0.827C0.322,-0.844 0.352,-0.858 0.384,-0.867C0.415,-0.877 0.449,-0.882 0.486,-0.882C0.535,-0.882 0.578,-0.873 0.617,-0.855C0.656,-0.838 0.688,-0.813 0.715,-0.782C0.741,-0.75 0.761,-0.712 0.776,-0.669C0.79,-0.625 0.797,-0.577 0.797,-0.524C0.797,-0.48 0.793,-0.435 0.784,-0.387C0.775,-0.34 0.763,-0.294 0.746,-0.248C0.729,-0.202 0.709,-0.159 0.684,-0.117C0.659,-0.076 0.631,-0.04 0.599,-0.008C0.566,0.023 0.531,0.048 0.491,0.066C0.451,0.085 0.409,0.094 0.362,0.094ZM0.374,-0.025C0.4,-0.025 0.424,-0.03 0.447,-0.041C0.469,-0.051 0.49,-0.064 0.509,-0.082C0.527,-0.1 0.544,-0.12 0.56,-0.144C0.575,-0.167 0.589,-0.193 0.601,-0.22C0.613,-0.247 0.624,-0.275 0.633,-0.304C0.642,-0.333 0.649,-0.361 0.655,-0.39C0.661,-0.418 0.665,-0.445 0.668,-0.471C0.67,-0.498 0.672,-0.521 0.672,-0.543C0.672,-0.574 0.668,-0.604 0.662,-0.631C0.655,-0.659 0.644,-0.683 0.631,-0.703C0.617,-0.723 0.599,-0.739 0.578,-0.751C0.557,-0.763 0.533,-0.769 0.505,-0.769C0.475,-0.769 0.446,-0.761 0.418,-0.747C0.39,-0.732 0.364,-0.713 0.339,-0.688C0.314,-0.664 0.292,-0.635 0.271,-0.603C0.25,-0.57 0.233,-0.536 0.218,-0.5C0.204,-0.465 0.192,-0.428 0.184,-0.391C0.176,-0.354 0.172,-0.319 0.172,-0.285C0.172,-0.248 0.177,-0.214 0.186,-0.182C0.195,-0.15 0.208,-0.123 0.226,-0.1C0.243,-0.076 0.264,-0.058 0.289,-0.045C0.314,-0.032 0.342,-0.025 0.374,-0.025Z" style="fill:white;fill-rule:nonzero;"/>
            </g>
            <g transform="matrix(48.0914,0,0,48.0914,313.718,58.7132)">
                <path d="M0.063,-0.102C0.063,-0.124 0.064,-0.148 0.066,-0.177C0.069,-0.205 0.072,-0.236 0.076,-0.269C0.08,-0.303 0.084,-0.333 0.089,-0.36C0.094,-0.387 0.099,-0.41 0.104,-0.43C0.107,-0.445 0.114,-0.457 0.124,-0.467C0.135,-0.477 0.148,-0.482 0.166,-0.482C0.184,-0.482 0.196,-0.477 0.203,-0.466C0.209,-0.456 0.213,-0.441 0.213,-0.423C0.213,-0.418 0.212,-0.412 0.211,-0.404C0.21,-0.395 0.209,-0.386 0.208,-0.376C0.206,-0.366 0.205,-0.356 0.203,-0.345C0.201,-0.335 0.2,-0.323 0.198,-0.309C0.197,-0.296 0.196,-0.286 0.195,-0.279C0.194,-0.272 0.193,-0.268 0.193,-0.266L0.203,-0.266C0.205,-0.269 0.208,-0.275 0.212,-0.283C0.217,-0.291 0.222,-0.302 0.227,-0.317C0.233,-0.332 0.239,-0.346 0.245,-0.357C0.251,-0.369 0.257,-0.38 0.263,-0.39C0.268,-0.401 0.273,-0.41 0.278,-0.418C0.282,-0.427 0.286,-0.433 0.288,-0.437C0.299,-0.454 0.31,-0.466 0.324,-0.473C0.337,-0.479 0.352,-0.482 0.368,-0.482C0.384,-0.482 0.397,-0.476 0.407,-0.462C0.417,-0.448 0.421,-0.429 0.421,-0.405C0.421,-0.402 0.421,-0.396 0.419,-0.387C0.418,-0.379 0.416,-0.369 0.414,-0.357C0.411,-0.345 0.409,-0.33 0.406,-0.312C0.403,-0.293 0.401,-0.276 0.398,-0.262C0.396,-0.247 0.394,-0.233 0.393,-0.218C0.391,-0.204 0.391,-0.191 0.391,-0.179C0.391,-0.159 0.393,-0.142 0.398,-0.129C0.403,-0.116 0.411,-0.109 0.422,-0.109C0.426,-0.109 0.431,-0.111 0.438,-0.114C0.449,-0.118 0.456,-0.121 0.459,-0.124C0.473,-0.135 0.481,-0.14 0.481,-0.14C0.482,-0.14 0.493,-0.146 0.514,-0.16C0.54,-0.176 0.571,-0.197 0.607,-0.221L0.607,-0.111L0.583,-0.093C0.581,-0.091 0.565,-0.083 0.537,-0.067C0.495,-0.045 0.469,-0.032 0.459,-0.027C0.434,-0.016 0.418,-0.009 0.412,-0.008C0.395,-0.003 0.378,0 0.36,0C0.342,0 0.327,-0.013 0.315,-0.039C0.303,-0.065 0.297,-0.103 0.297,-0.152C0.297,-0.172 0.298,-0.193 0.301,-0.216C0.303,-0.238 0.307,-0.263 0.311,-0.289L0.303,-0.289L0.175,-0.035C0.168,-0.021 0.161,-0.012 0.153,-0.007C0.145,-0.002 0.135,0 0.125,0C0.111,0 0.1,-0.003 0.092,-0.009C0.084,-0.014 0.078,-0.022 0.073,-0.031C0.069,-0.041 0.066,-0.052 0.065,-0.064C0.063,-0.076 0.063,-0.089 0.063,-0.102Z" style="fill:white;fill-rule:nonzero;"/>
            </g>
        </g>
    </g>
</svg>
