<?xml version="1.0" encoding="UTF-8" standalone="no"?>
<!DOCTYPE svg PUBLIC "-//W3C//DTD SVG 1.1//EN" "http://www.w3.org/Graphics/SVG/1.1/DTD/svg11.dtd">
<svg width="100%" height="100%" viewBox="0 0 374 241" version="1.1" xmlns="http://www.w3.org/2000/svg" xmlns:xlink="http://www.w3.org/1999/xlink" xml:space="preserve" xmlns:serif="http://www.serif.com/" style="fill-rule:evenodd;clip-rule:evenodd;stroke-linejoin:round;stroke-miterlimit:2;">
    <g transform="matrix(1,0,0,1,-77.2631,-78.9692)">
        <g transform="matrix(0.864762,0,0,0.864762,-51.0618,100.137)">
            <g transform="matrix(170.535,0,0,170.535,143.107,252.036)">
                <path d="M0.197,0.008C0.245,0.008 0.284,-0.006 0.313,-0.033C0.346,-0.065 0.363,-0.109 0.363,-0.164L0.363,-0.536C0.363,-0.591 0.346,-0.635 0.313,-0.667C0.284,-0.694 0.245,-0.708 0.197,-0.708C0.149,-0.708 0.11,-0.694 0.081,-0.667C0.048,-0.635 0.031,-0.591 0.031,-0.536L0.031,-0.164C0.031,-0.109 0.048,-0.065 0.081,-0.033C0.11,-0.006 0.149,0.008 0.197,0.008ZM0.197,-0.598C0.216,-0.598 0.23,-0.594 0.238,-0.586C0.248,-0.577 0.253,-0.561 0.253,-0.536L0.253,-0.164C0.253,-0.139 0.248,-0.123 0.238,-0.114C0.23,-0.106 0.216,-0.102 0.197,-0.102C0.178,-0.102 0.165,-0.106 0.156,-0.114C0.146,-0.123 0.141,-0.14 0.141,-0.164L0.141,-0.536C0.141,-0.56 0.146,-0.577 0.156,-0.586C0.165,-0.594 0.178,-0.598 0.197,-0.598Z" style="fill-rule:nonzero;"/>
            </g>
            <g transform="matrix(170.535,0,0,170.535,220.53,252.036)">
                <path d="M0.369,0L0.257,0L0.2,-0.281L0.15,-0.281L0.15,0L0.04,0L0.04,-0.7L0.206,-0.7C0.253,-0.7 0.292,-0.686 0.322,-0.658C0.355,-0.627 0.372,-0.584 0.372,-0.528L0.372,-0.453C0.372,-0.396 0.355,-0.353 0.322,-0.322C0.317,-0.317 0.312,-0.313 0.306,-0.309L0.369,0ZM0.262,-0.528C0.262,-0.551 0.257,-0.568 0.247,-0.578C0.238,-0.586 0.225,-0.59 0.206,-0.59L0.15,-0.59L0.15,-0.391L0.206,-0.391C0.225,-0.391 0.238,-0.395 0.247,-0.403C0.257,-0.412 0.262,-0.429 0.262,-0.453L0.262,-0.528Z" style="fill-rule:nonzero;"/>
            </g>
            <g transform="matrix(170.535,0,0,170.535,298.464,252.036)">
                <path d="M0.206,0C0.254,0 0.292,-0.013 0.321,-0.039C0.338,-0.054 0.351,-0.072 0.36,-0.095C0.368,-0.116 0.372,-0.141 0.372,-0.168L0.372,-0.528C0.372,-0.584 0.355,-0.627 0.322,-0.658C0.292,-0.686 0.253,-0.7 0.206,-0.7L0.04,-0.7L0.04,0L0.206,0ZM0.15,-0.59L0.206,-0.59C0.225,-0.59 0.238,-0.586 0.247,-0.578C0.257,-0.568 0.262,-0.551 0.262,-0.528L0.262,-0.168C0.262,-0.145 0.257,-0.129 0.248,-0.121C0.24,-0.114 0.226,-0.11 0.206,-0.11L0.15,-0.11L0.15,-0.59Z" style="fill-rule:nonzero;"/>
            </g>
            <g transform="matrix(170.535,0,0,170.535,377.422,252.036)">
                <path d="M0.33,-0.59L0.15,-0.59L0.15,-0.414L0.274,-0.414L0.274,-0.304L0.15,-0.304L0.15,-0.11L0.33,-0.11L0.33,0L0.04,0L0.04,-0.7L0.33,-0.7L0.33,-0.59Z" style="fill-rule:nonzero;"/>
            </g>
            <g transform="matrix(170.535,0,0,170.535,448.705,252.036)">
                <path d="M0.369,0L0.257,0L0.2,-0.281L0.15,-0.281L0.15,0L0.04,0L0.04,-0.7L0.206,-0.7C0.253,-0.7 0.292,-0.686 0.322,-0.658C0.355,-0.627 0.372,-0.584 0.372,-0.528L0.372,-0.453C0.372,-0.396 0.355,-0.353 0.322,-0.322C0.317,-0.317 0.312,-0.313 0.306,-0.309L0.369,0ZM0.262,-0.528C0.262,-0.551 0.257,-0.568 0.247,-0.578C0.238,-0.586 0.225,-0.59 0.206,-0.59L0.15,-0.59L0.15,-0.391L0.206,-0.391C0.225,-0.391 0.238,-0.395 0.247,-0.403C0.257,-0.412 0.262,-0.429 0.262,-0.453L0.262,-0.528Z" style="fill-rule:nonzero;"/>
            </g>
        </g>
        <g transform="matrix(0.214566,0,0,0.214566,182.298,73.8951)">
            <g transform="matrix(28.0465,0,0,28.0465,112.063,23.6482)">
                <path d="M14,14L18,14L18,2L2,2L2,14L6,14C6,15.1 6.9,16 8,16L12,16C13.097,16 14,15.097 14,14ZM0,2C0,0.9 0.9,0 2,0L18,0C19.097,0 20,0.903 20,2L20,18C20,19.097 19.097,20 18,20L2,20C0.903,20 0,19.097 0,18L0,2ZM4,4L16,4L16,6L4,6L4,4ZM4,7L16,7L16,9L4,9L4,7ZM4,10L16,10L16,12L4,12L4,10Z" style="fill:white;fill-rule:nonzero;"/>
            </g>
        </g>
        <g transform="matrix(0.830547,0,0,0.830547,60.3743,102.691)">
            <text x="409.423px" y="259.597px" style="font-family:'Bison-Bold', 'Bison';font-weight:700;font-size:170.535px;">s</text>
        </g>
    </g>
</svg>
