<?xml version="1.0" encoding="UTF-8" standalone="no"?>
<!DOCTYPE svg PUBLIC "-//W3C//DTD SVG 1.1//EN" "http://www.w3.org/Graphics/SVG/1.1/DTD/svg11.dtd">
<svg width="100%" height="100%" viewBox="0 0 1537 1323" version="1.1" xmlns="http://www.w3.org/2000/svg" xmlns:xlink="http://www.w3.org/1999/xlink" xml:space="preserve" xmlns:serif="http://www.serif.com/" style="fill-rule:evenodd;clip-rule:evenodd;stroke-linejoin:round;stroke-miterlimit:2;">
    <g transform="matrix(1,0,0,1,0.000914403,-2.73198)">
        <g transform="matrix(4.16667,0,0,4.16667,0,0)">
            <path d="M326.649,13.696L360.595,1.131C361.993,0.526 363.627,0.474 365.139,1.117C368.065,2.363 369.428,5.747 368.182,8.674L368.169,8.668L238.108,314.11C237.837,314.902 237.388,315.647 236.761,316.284C234.527,318.549 230.881,318.575 228.615,316.342L228.627,316.33L140.603,229.546L104.971,293.089C104.19,294.665 102.701,295.865 100.837,296.204C97.708,296.773 94.709,294.697 94.14,291.567L94.16,291.55L73.636,178.654L3.567,143.935C2.133,143.344 0.94,142.179 0.359,140.61C-0.744,137.627 0.778,134.313 3.762,133.209L3.781,133.21L326.649,13.696ZM352.367,16.442L330.609,24.496L20.253,139.379L81.306,169.63L81.321,169.621C83.181,170.543 84.323,172.335 84.5,174.26L102.597,273.802L134.251,217.352L134.245,217.347C135.801,214.573 139.312,213.585 142.086,215.14C142.684,215.476 143.199,215.902 143.624,216.392L230.679,302.222L352.367,16.442Z" style="fill:rgb(248,176,176);fill-rule:nonzero;"/>
        </g>
        <g transform="matrix(4.16667,0,0,4.16667,0,0)">
            <path d="M75.838,169.832C73.104,171.447 72.197,174.973 73.813,177.707C75.428,180.44 78.954,181.347 81.688,179.732L365.807,11.366C368.54,9.751 369.447,6.225 367.832,3.491C366.216,0.758 362.69,-0.149 359.956,1.467L75.838,169.832Z" style="fill:rgb(248,176,176);fill-rule:nonzero;"/>
        </g>
        <g transform="matrix(4.16667,0,0,4.16667,0,0)">
            <path d="M366.839,10.58C369.137,8.393 369.228,4.757 367.041,2.458C364.854,0.159 361.217,0.069 358.919,2.256L135.309,216.003C133.01,218.189 132.919,221.826 135.106,224.125C137.293,226.424 140.93,226.514 143.229,224.327L366.839,10.58Z" style="fill:rgb(248,176,176);fill-rule:nonzero;"/>
        </g>
    </g>
</svg>
