<?xml version="1.0" encoding="UTF-8" standalone="no"?>
<!DOCTYPE svg PUBLIC "-//W3C//DTD SVG 1.1//EN" "http://www.w3.org/Graphics/SVG/1.1/DTD/svg11.dtd">
<svg width="100%" height="100%" viewBox="0 0 416 362" version="1.1" xmlns="http://www.w3.org/2000/svg" xmlns:xlink="http://www.w3.org/1999/xlink" xml:space="preserve" xmlns:serif="http://www.serif.com/" style="fill-rule:evenodd;clip-rule:evenodd;stroke-linejoin:round;stroke-miterlimit:2;">
    <g transform="matrix(1,0,0,1,359.95,593.053)">
        <g transform="matrix(0.675104,0,0,0.675104,-73.1477,-161.184)">
            <g transform="matrix(935.009,0,0,935.009,-448.202,-98.3368)">
                <path d="M0.28,-0.009C0.271,-0.013 0.268,-0.02 0.27,-0.03C0.277,-0.062 0.283,-0.095 0.286,-0.13C0.289,-0.165 0.29,-0.185 0.291,-0.19C0.295,-0.241 0.299,-0.279 0.303,-0.304C0.304,-0.307 0.304,-0.312 0.304,-0.319C0.304,-0.328 0.302,-0.337 0.298,-0.345L0.155,-0.303L0.064,-0.277C0.057,-0.276 0.053,-0.275 0.051,-0.275L0.047,-0.275C0.036,-0.275 0.03,-0.279 0.027,-0.288C0.026,-0.292 0.025,-0.295 0.025,-0.296C0.025,-0.305 0.031,-0.311 0.042,-0.314C0.082,-0.327 0.112,-0.337 0.133,-0.343L0.173,-0.355C0.23,-0.372 0.268,-0.382 0.286,-0.387C0.297,-0.39 0.305,-0.396 0.31,-0.403C0.315,-0.41 0.318,-0.419 0.319,-0.431C0.322,-0.465 0.326,-0.499 0.331,-0.533L0.334,-0.555C0.336,-0.563 0.338,-0.569 0.341,-0.573C0.344,-0.577 0.348,-0.579 0.354,-0.579C0.367,-0.579 0.374,-0.572 0.374,-0.557C0.374,-0.548 0.373,-0.537 0.372,-0.524C0.371,-0.51 0.37,-0.502 0.369,-0.497L0.361,-0.413L0.533,-0.47C0.538,-0.471 0.552,-0.476 0.577,-0.485C0.601,-0.493 0.624,-0.503 0.645,-0.514C0.653,-0.518 0.659,-0.52 0.663,-0.52C0.67,-0.52 0.675,-0.517 0.679,-0.51C0.682,-0.507 0.683,-0.503 0.683,-0.499C0.683,-0.49 0.676,-0.483 0.663,-0.476C0.652,-0.47 0.639,-0.464 0.625,-0.46C0.611,-0.455 0.602,-0.451 0.598,-0.45C0.589,-0.447 0.576,-0.443 0.559,-0.436C0.531,-0.425 0.491,-0.411 0.439,-0.394L0.384,-0.376C0.373,-0.372 0.364,-0.367 0.359,-0.361C0.353,-0.355 0.35,-0.346 0.349,-0.334C0.346,-0.292 0.339,-0.233 0.33,-0.156L0.318,-0.051C0.318,-0.05 0.317,-0.045 0.316,-0.037C0.315,-0.028 0.311,-0.021 0.306,-0.015C0.301,-0.009 0.296,-0.006 0.29,-0.006C0.287,-0.006 0.284,-0.007 0.28,-0.009Z" style="fill:rgb(248,176,176);fill-rule:nonzero;"/>
            </g>
        </g>
    </g>
</svg>
