<?xml version="1.0" encoding="UTF-8" standalone="no"?>
<!DOCTYPE svg PUBLIC "-//W3C//DTD SVG 1.1//EN" "http://www.w3.org/Graphics/SVG/1.1/DTD/svg11.dtd">
<svg width="100%" height="100%" viewBox="0 0 124 143" version="1.1" xmlns="http://www.w3.org/2000/svg" xmlns:xlink="http://www.w3.org/1999/xlink" xml:space="preserve" xmlns:serif="http://www.serif.com/" style="fill-rule:evenodd;clip-rule:evenodd;stroke-linejoin:round;stroke-miterlimit:2;">
    <g transform="matrix(1,0,0,1,-255.973,-110.552)">
        <g transform="matrix(0.267219,0,0,0.267219,221.195,79.0312)">
            <g transform="matrix(210.283,0,0,210.283,118.442,241.786)">
                <path d="M0.25,-0.116L0.25,-0.312L0.056,-0.312L0.056,-0.394L0.25,-0.394L0.25,-0.589L0.333,-0.589L0.333,-0.394L0.528,-0.394L0.528,-0.312L0.333,-0.312L0.333,-0.116L0.25,-0.116Z" style="fill:rgb(59,84,59);fill-rule:nonzero;"/>
            </g>
            <g transform="matrix(210.283,0,0,210.283,299.667,241.786)">
                <path d="M0.25,-0.116L0.25,-0.312L0.056,-0.312L0.056,-0.394L0.25,-0.394L0.25,-0.589L0.333,-0.589L0.333,-0.394L0.528,-0.394L0.528,-0.312L0.333,-0.312L0.333,-0.116L0.25,-0.116Z" style="fill:rgb(59,84,59);fill-rule:nonzero;"/>
            </g>
            <g transform="matrix(210.283,0,0,210.283,480.893,241.786)">
                <path d="M0.25,-0.116L0.25,-0.312L0.056,-0.312L0.056,-0.394L0.25,-0.394L0.25,-0.589L0.333,-0.589L0.333,-0.394L0.528,-0.394L0.528,-0.312L0.333,-0.312L0.333,-0.116L0.25,-0.116Z" style="fill:rgb(59,84,59);fill-rule:nonzero;"/>
            </g>
            <g transform="matrix(210.283,0,0,210.283,118.442,458.948)">
                <path d="M0.25,-0.116L0.25,-0.312L0.056,-0.312L0.056,-0.394L0.25,-0.394L0.25,-0.589L0.333,-0.589L0.333,-0.394L0.528,-0.394L0.528,-0.312L0.333,-0.312L0.333,-0.116L0.25,-0.116Z" style="fill:rgb(59,84,59);fill-rule:nonzero;"/>
            </g>
            <g transform="matrix(210.283,0,0,210.283,299.667,458.948)">
                <path d="M0.25,-0.116L0.25,-0.312L0.056,-0.312L0.056,-0.394L0.25,-0.394L0.25,-0.589L0.333,-0.589L0.333,-0.394L0.528,-0.394L0.528,-0.312L0.333,-0.312L0.333,-0.116L0.25,-0.116Z" style="fill:rgb(59,84,59);fill-rule:nonzero;"/>
            </g>
            <g transform="matrix(210.283,0,0,210.283,480.893,458.948)">
                <path d="M0.25,-0.116L0.25,-0.312L0.056,-0.312L0.056,-0.394L0.25,-0.394L0.25,-0.589L0.333,-0.589L0.333,-0.394L0.528,-0.394L0.528,-0.312L0.333,-0.312L0.333,-0.116L0.25,-0.116Z" style="fill:rgb(59,84,59);fill-rule:nonzero;"/>
            </g>
            <g transform="matrix(210.283,0,0,210.283,118.442,676.11)">
                <path d="M0.25,-0.116L0.25,-0.312L0.056,-0.312L0.056,-0.394L0.25,-0.394L0.25,-0.589L0.333,-0.589L0.333,-0.394L0.528,-0.394L0.528,-0.312L0.333,-0.312L0.333,-0.116L0.25,-0.116Z" style="fill:rgb(59,84,59);fill-rule:nonzero;"/>
            </g>
            <g transform="matrix(210.283,0,0,210.283,299.667,676.11)">
                <path d="M0.25,-0.116L0.25,-0.312L0.056,-0.312L0.056,-0.394L0.25,-0.394L0.25,-0.589L0.333,-0.589L0.333,-0.394L0.528,-0.394L0.528,-0.312L0.333,-0.312L0.333,-0.116L0.25,-0.116Z" style="fill:rgb(59,84,59);fill-rule:nonzero;"/>
            </g>
            <g transform="matrix(210.283,0,0,210.283,480.893,676.11)">
                <path d="M0.25,-0.116L0.25,-0.312L0.056,-0.312L0.056,-0.394L0.25,-0.394L0.25,-0.589L0.333,-0.589L0.333,-0.394L0.528,-0.394L0.528,-0.312L0.333,-0.312L0.333,-0.116L0.25,-0.116Z" style="fill:rgb(59,84,59);fill-rule:nonzero;"/>
            </g>
        </g>
    </g>
</svg>
