<?xml version="1.0" encoding="UTF-8" standalone="no"?>
<!DOCTYPE svg PUBLIC "-//W3C//DTD SVG 1.1//EN" "http://www.w3.org/Graphics/SVG/1.1/DTD/svg11.dtd">
<svg width="100%" height="100%" viewBox="0 0 1063 123" version="1.1" xmlns="http://www.w3.org/2000/svg" xmlns:xlink="http://www.w3.org/1999/xlink" xml:space="preserve" xmlns:serif="http://www.serif.com/" style="fill-rule:evenodd;clip-rule:evenodd;stroke-linejoin:round;stroke-miterlimit:2;">
    <g transform="matrix(1,0,0,1,181.548,-153.513)">
        <g transform="matrix(1,0,0,1,-268.549,22.2157)">
            <g transform="matrix(170.535,0,0,170.535,80.1792,252.036)">
                <path d="M0.15,-0.28L0.206,-0.28C0.254,-0.28 0.293,-0.294 0.322,-0.321C0.355,-0.352 0.372,-0.395 0.372,-0.452L0.372,-0.528C0.372,-0.584 0.355,-0.627 0.322,-0.658C0.292,-0.686 0.253,-0.7 0.206,-0.7L0.04,-0.7L0.04,0L0.15,0L0.15,-0.28ZM0.15,-0.59L0.206,-0.59C0.225,-0.59 0.238,-0.586 0.247,-0.578C0.257,-0.568 0.262,-0.551 0.262,-0.528L0.262,-0.452C0.262,-0.428 0.257,-0.411 0.247,-0.402C0.238,-0.394 0.225,-0.39 0.206,-0.39L0.15,-0.39L0.15,-0.59Z" style="fill-rule:nonzero;"/>
            </g>
            <g transform="matrix(170.535,0,0,170.535,157.261,252.036)">
                <path d="M0.369,0L0.257,0L0.2,-0.281L0.15,-0.281L0.15,0L0.04,0L0.04,-0.7L0.206,-0.7C0.253,-0.7 0.292,-0.686 0.322,-0.658C0.355,-0.627 0.372,-0.584 0.372,-0.528L0.372,-0.453C0.372,-0.396 0.355,-0.353 0.322,-0.322C0.317,-0.317 0.312,-0.313 0.306,-0.309L0.369,0ZM0.262,-0.528C0.262,-0.551 0.257,-0.568 0.247,-0.578C0.238,-0.586 0.225,-0.59 0.206,-0.59L0.15,-0.59L0.15,-0.391L0.206,-0.391C0.225,-0.391 0.238,-0.395 0.247,-0.403C0.257,-0.412 0.262,-0.429 0.262,-0.453L0.262,-0.528Z" style="fill-rule:nonzero;"/>
            </g>
            <g transform="matrix(170.535,0,0,170.535,235.196,252.036)">
                <path d="M0.197,0.008C0.245,0.008 0.284,-0.006 0.313,-0.033C0.346,-0.065 0.363,-0.109 0.363,-0.164L0.363,-0.536C0.363,-0.591 0.346,-0.635 0.313,-0.667C0.284,-0.694 0.245,-0.708 0.197,-0.708C0.149,-0.708 0.11,-0.694 0.081,-0.667C0.048,-0.635 0.031,-0.591 0.031,-0.536L0.031,-0.164C0.031,-0.109 0.048,-0.065 0.081,-0.033C0.11,-0.006 0.149,0.008 0.197,0.008ZM0.197,-0.598C0.216,-0.598 0.23,-0.594 0.238,-0.586C0.248,-0.577 0.253,-0.561 0.253,-0.536L0.253,-0.164C0.253,-0.139 0.248,-0.123 0.238,-0.114C0.23,-0.106 0.216,-0.102 0.197,-0.102C0.178,-0.102 0.165,-0.106 0.156,-0.114C0.146,-0.123 0.141,-0.14 0.141,-0.164L0.141,-0.536C0.141,-0.56 0.146,-0.577 0.156,-0.586C0.165,-0.594 0.178,-0.598 0.197,-0.598Z" style="fill-rule:nonzero;"/>
            </g>
            <g transform="matrix(170.535,0,0,170.535,312.618,252.036)">
                <path d="M0.33,-0.59L0.15,-0.59L0.15,-0.414L0.275,-0.414L0.275,-0.304L0.15,-0.304L0.15,0L0.04,0L0.04,-0.7L0.33,-0.7L0.33,-0.59Z" style="fill-rule:nonzero;"/>
            </g>
            <g transform="matrix(170.535,0,0,170.535,381.515,252.036)">
                <rect x="0.04" y="-0.7" width="0.11" height="0.7" style="fill-rule:nonzero;"/>
            </g>
            <g transform="matrix(170.535,0,0,170.535,424.148,252.036)">
                <path d="M0.33,0L0.33,-0.11L0.15,-0.11L0.15,-0.7L0.04,-0.7L0.04,0L0.33,0Z" style="fill-rule:nonzero;"/>
            </g>
            <g transform="matrix(170.535,0,0,170.535,492.874,252.036)">
                <path d="M0.33,-0.59L0.15,-0.59L0.15,-0.414L0.274,-0.414L0.274,-0.304L0.15,-0.304L0.15,-0.11L0.33,-0.11L0.33,0L0.04,0L0.04,-0.7L0.33,-0.7L0.33,-0.59Z" style="fill-rule:nonzero;"/>
            </g>
            <g transform="matrix(170.535,0,0,170.535,600.823,252.036)">
                <path d="M0.19,0.008C0.238,0.008 0.277,-0.006 0.306,-0.033C0.339,-0.065 0.356,-0.109 0.356,-0.164L0.356,-0.208C0.356,-0.272 0.331,-0.326 0.282,-0.37C0.269,-0.382 0.245,-0.397 0.21,-0.416C0.191,-0.427 0.178,-0.435 0.171,-0.44C0.146,-0.462 0.134,-0.488 0.134,-0.519L0.134,-0.536C0.134,-0.56 0.139,-0.577 0.149,-0.586C0.158,-0.594 0.171,-0.598 0.19,-0.598C0.209,-0.598 0.223,-0.594 0.231,-0.586C0.241,-0.577 0.246,-0.561 0.246,-0.536L0.246,-0.475L0.356,-0.475L0.356,-0.536C0.356,-0.591 0.339,-0.635 0.306,-0.667C0.277,-0.694 0.238,-0.708 0.19,-0.708C0.142,-0.708 0.103,-0.694 0.074,-0.667C0.041,-0.635 0.024,-0.591 0.024,-0.536L0.024,-0.519C0.024,-0.488 0.03,-0.458 0.043,-0.431C0.056,-0.404 0.074,-0.379 0.098,-0.358C0.113,-0.345 0.136,-0.331 0.167,-0.314C0.19,-0.301 0.204,-0.293 0.209,-0.288C0.234,-0.265 0.246,-0.239 0.246,-0.208L0.246,-0.164C0.246,-0.139 0.241,-0.123 0.231,-0.114C0.223,-0.106 0.209,-0.102 0.19,-0.102C0.171,-0.102 0.158,-0.106 0.149,-0.114C0.139,-0.123 0.134,-0.14 0.134,-0.164L0.134,-0.255L0.024,-0.255L0.024,-0.164C0.024,-0.109 0.041,-0.065 0.074,-0.033C0.103,-0.006 0.142,0.008 0.19,0.008Z" style="fill-rule:nonzero;"/>
            </g>
            <g transform="matrix(170.535,0,0,170.535,675.858,252.036)">
                <path d="M0.33,-0.59L0.15,-0.59L0.15,-0.414L0.274,-0.414L0.274,-0.304L0.15,-0.304L0.15,-0.11L0.33,-0.11L0.33,0L0.04,0L0.04,-0.7L0.33,-0.7L0.33,-0.59Z" style="fill-rule:nonzero;"/>
            </g>
            <g transform="matrix(170.535,0,0,170.535,747.142,252.036)">
                <path d="M0.344,-0.7L0.344,-0.59L0.232,-0.59L0.232,0L0.122,0L0.122,-0.59L0.01,-0.59L0.01,-0.7L0.344,-0.7Z" style="fill-rule:nonzero;"/>
            </g>
            <g transform="matrix(170.535,0,0,170.535,817.573,252.036)">
                <path d="M0.344,-0.7L0.344,-0.59L0.232,-0.59L0.232,0L0.122,0L0.122,-0.59L0.01,-0.59L0.01,-0.7L0.344,-0.7Z" style="fill-rule:nonzero;"/>
            </g>
            <g transform="matrix(170.535,0,0,170.535,888.004,252.036)">
                <rect x="0.04" y="-0.7" width="0.11" height="0.7" style="fill-rule:nonzero;"/>
            </g>
            <g transform="matrix(170.535,0,0,170.535,930.638,252.036)">
                <path d="M0.378,-0.7L0.378,0L0.314,0L0.146,-0.355L0.146,0L0.036,0L0.036,-0.7L0.1,-0.7L0.268,-0.346L0.268,-0.7L0.378,-0.7Z" style="fill-rule:nonzero;"/>
            </g>
            <g transform="matrix(170.535,0,0,170.535,1011.47,252.036)">
                <path d="M0.197,0.008C0.245,0.008 0.284,-0.006 0.313,-0.033C0.346,-0.065 0.363,-0.109 0.363,-0.164L0.363,-0.405L0.198,-0.405L0.198,-0.295L0.253,-0.295L0.253,-0.164C0.253,-0.139 0.248,-0.123 0.239,-0.114C0.23,-0.106 0.216,-0.102 0.197,-0.102C0.178,-0.102 0.165,-0.106 0.156,-0.114C0.146,-0.123 0.141,-0.14 0.141,-0.164L0.141,-0.536C0.141,-0.56 0.146,-0.577 0.156,-0.586C0.165,-0.594 0.178,-0.598 0.197,-0.598C0.216,-0.598 0.23,-0.594 0.239,-0.586C0.248,-0.577 0.253,-0.561 0.253,-0.536L0.253,-0.474L0.363,-0.474L0.363,-0.536C0.363,-0.591 0.346,-0.635 0.313,-0.667C0.284,-0.694 0.245,-0.708 0.197,-0.708C0.15,-0.708 0.112,-0.694 0.081,-0.667C0.048,-0.634 0.031,-0.59 0.031,-0.536L0.031,-0.164C0.031,-0.11 0.048,-0.066 0.081,-0.033C0.112,-0.006 0.15,0.008 0.197,0.008Z" style="fill-rule:nonzero;"/>
            </g>
            <g transform="matrix(170.535,0,0,170.535,1089.06,252.036)">
                <path d="M0.19,0.008C0.238,0.008 0.277,-0.006 0.306,-0.033C0.339,-0.065 0.356,-0.109 0.356,-0.164L0.356,-0.208C0.356,-0.272 0.331,-0.326 0.282,-0.37C0.269,-0.382 0.245,-0.397 0.21,-0.416C0.191,-0.427 0.178,-0.435 0.171,-0.44C0.146,-0.462 0.134,-0.488 0.134,-0.519L0.134,-0.536C0.134,-0.56 0.139,-0.577 0.149,-0.586C0.158,-0.594 0.171,-0.598 0.19,-0.598C0.209,-0.598 0.223,-0.594 0.231,-0.586C0.241,-0.577 0.246,-0.561 0.246,-0.536L0.246,-0.475L0.356,-0.475L0.356,-0.536C0.356,-0.591 0.339,-0.635 0.306,-0.667C0.277,-0.694 0.238,-0.708 0.19,-0.708C0.142,-0.708 0.103,-0.694 0.074,-0.667C0.041,-0.635 0.024,-0.591 0.024,-0.536L0.024,-0.519C0.024,-0.488 0.03,-0.458 0.043,-0.431C0.056,-0.404 0.074,-0.379 0.098,-0.358C0.113,-0.345 0.136,-0.331 0.167,-0.314C0.19,-0.301 0.204,-0.293 0.209,-0.288C0.234,-0.265 0.246,-0.239 0.246,-0.208L0.246,-0.164C0.246,-0.139 0.241,-0.123 0.231,-0.114C0.223,-0.106 0.209,-0.102 0.19,-0.102C0.171,-0.102 0.158,-0.106 0.149,-0.114C0.139,-0.123 0.134,-0.14 0.134,-0.164L0.134,-0.255L0.024,-0.255L0.024,-0.164C0.024,-0.109 0.041,-0.065 0.074,-0.033C0.103,-0.006 0.142,0.008 0.19,0.008Z" style="fill-rule:nonzero;"/>
            </g>
        </g>
    </g>
</svg>
