<?xml version="1.0" encoding="UTF-8" standalone="no"?>
<!DOCTYPE svg PUBLIC "-//W3C//DTD SVG 1.1//EN" "http://www.w3.org/Graphics/SVG/1.1/DTD/svg11.dtd">
<svg width="100%" height="100%" viewBox="0 0 401 268" version="1.1" xmlns="http://www.w3.org/2000/svg" xmlns:xlink="http://www.w3.org/1999/xlink" xml:space="preserve" xmlns:serif="http://www.serif.com/" style="fill-rule:evenodd;clip-rule:evenodd;stroke-linejoin:round;stroke-miterlimit:2;">
    <g transform="matrix(1,0,0,1,-62.4643,-73.6298)">
        <g transform="matrix(0.214566,0,0,0.214566,182.298,73.8951)">
            <g transform="matrix(1.66043,0,0,1.66043,-164.953,-258.002)">
                <path d="M242.037,300.142C239.473,298.485 280.48,358.867 329.156,358.245C372.106,357.697 415.053,299.667 413.752,304.094C450.685,260.337 479.219,368.258 479.219,420.695C479.219,479.979 449.709,517.055 395.4,517.055L252.033,517.055C197.723,517.055 171.625,476.376 171.625,417.092C171.625,364.655 210.376,266.451 242.037,300.142Z" style="fill:white;"/>
                <circle cx="330.718" cy="236.53" r="81.892" style="fill:white;"/>
            </g>
        </g>
        <g transform="matrix(1,0,0,1,-55.1563,-128.757)">
            <g transform="matrix(170.535,0,0,170.535,110.799,468.52)">
                <path d="M0.15,-0.28L0.206,-0.28C0.254,-0.28 0.293,-0.294 0.322,-0.321C0.355,-0.352 0.372,-0.395 0.372,-0.452L0.372,-0.528C0.372,-0.584 0.355,-0.627 0.322,-0.658C0.292,-0.686 0.253,-0.7 0.206,-0.7L0.04,-0.7L0.04,0L0.15,0L0.15,-0.28ZM0.15,-0.59L0.206,-0.59C0.225,-0.59 0.238,-0.586 0.247,-0.578C0.257,-0.568 0.262,-0.551 0.262,-0.528L0.262,-0.452C0.262,-0.428 0.257,-0.411 0.247,-0.402C0.238,-0.394 0.225,-0.39 0.206,-0.39L0.15,-0.39L0.15,-0.59Z" style="fill-rule:nonzero;"/>
            </g>
            <g transform="matrix(170.535,0,0,170.535,177.649,468.52)">
                <path d="M0.369,0L0.257,0L0.2,-0.281L0.15,-0.281L0.15,0L0.04,0L0.04,-0.7L0.206,-0.7C0.253,-0.7 0.292,-0.686 0.322,-0.658C0.355,-0.627 0.372,-0.584 0.372,-0.528L0.372,-0.453C0.372,-0.396 0.355,-0.353 0.322,-0.322C0.317,-0.317 0.312,-0.313 0.306,-0.309L0.369,0ZM0.262,-0.528C0.262,-0.551 0.257,-0.568 0.247,-0.578C0.238,-0.586 0.225,-0.59 0.206,-0.59L0.15,-0.59L0.15,-0.391L0.206,-0.391C0.225,-0.391 0.238,-0.395 0.247,-0.403C0.257,-0.412 0.262,-0.429 0.262,-0.453L0.262,-0.528Z" style="fill-rule:nonzero;"/>
            </g>
            <g transform="matrix(170.535,0,0,170.535,245.351,468.52)">
                <path d="M0.197,0.008C0.245,0.008 0.284,-0.006 0.313,-0.033C0.346,-0.065 0.363,-0.109 0.363,-0.164L0.363,-0.536C0.363,-0.591 0.346,-0.635 0.313,-0.667C0.284,-0.694 0.245,-0.708 0.197,-0.708C0.149,-0.708 0.11,-0.694 0.081,-0.667C0.048,-0.635 0.031,-0.591 0.031,-0.536L0.031,-0.164C0.031,-0.109 0.048,-0.065 0.081,-0.033C0.11,-0.006 0.149,0.008 0.197,0.008ZM0.197,-0.598C0.216,-0.598 0.23,-0.594 0.238,-0.586C0.248,-0.577 0.253,-0.561 0.253,-0.536L0.253,-0.164C0.253,-0.139 0.248,-0.123 0.238,-0.114C0.23,-0.106 0.216,-0.102 0.197,-0.102C0.178,-0.102 0.165,-0.106 0.156,-0.114C0.146,-0.123 0.141,-0.14 0.141,-0.164L0.141,-0.536C0.141,-0.56 0.146,-0.577 0.156,-0.586C0.165,-0.594 0.178,-0.598 0.197,-0.598Z" style="fill-rule:nonzero;"/>
            </g>
            <g transform="matrix(170.535,0,0,170.535,312.542,468.52)">
                <path d="M0.33,-0.59L0.15,-0.59L0.15,-0.414L0.275,-0.414L0.275,-0.304L0.15,-0.304L0.15,0L0.04,0L0.04,-0.7L0.33,-0.7L0.33,-0.59Z" style="fill-rule:nonzero;"/>
            </g>
            <g transform="matrix(170.535,0,0,170.535,371.206,468.52)">
                <rect x="0.04" y="-0.7" width="0.11" height="0.7" style="fill-rule:nonzero;"/>
            </g>
            <g transform="matrix(170.535,0,0,170.535,403.608,468.52)">
                <path d="M0.33,0L0.33,-0.11L0.15,-0.11L0.15,-0.7L0.04,-0.7L0.04,0L0.33,0Z" style="fill-rule:nonzero;"/>
            </g>
            <g transform="matrix(170.535,0,0,170.535,462.102,468.52)">
                <path d="M0.33,-0.59L0.15,-0.59L0.15,-0.414L0.274,-0.414L0.274,-0.304L0.15,-0.304L0.15,-0.11L0.33,-0.11L0.33,0L0.04,0L0.04,-0.7L0.33,-0.7L0.33,-0.59Z" style="fill-rule:nonzero;"/>
            </g>
        </g>
    </g>
</svg>
