<?xml version="1.0" encoding="UTF-8" standalone="no"?>
<!DOCTYPE svg PUBLIC "-//W3C//DTD SVG 1.1//EN" "http://www.w3.org/Graphics/SVG/1.1/DTD/svg11.dtd">
<svg width="100%" height="100%" viewBox="0 0 142 101" version="1.1" xmlns="http://www.w3.org/2000/svg" xmlns:xlink="http://www.w3.org/1999/xlink" xml:space="preserve" xmlns:serif="http://www.serif.com/" style="fill-rule:evenodd;clip-rule:evenodd;stroke-linejoin:round;stroke-miterlimit:2;">
    <g transform="matrix(1,0,0,1,-88.4466,-537.924)">
        <g>
            <g transform="matrix(1.27516,0,0,1.55194,-24.1025,-297.028)">
                <path d="M126.169,584.091C125.943,584.277 125.717,584.37 125.491,584.37C125.291,584.37 125.04,584.267 124.739,584.06C123.559,583.091 121.169,581.612 117.568,579.622C113.967,577.632 110.359,575.808 106.746,574.148C103.132,572.488 100.572,571.534 99.066,571.287C98.565,571.204 98.081,571.05 97.617,570.823C97.153,570.596 96.846,570.338 96.695,570.05C95.666,571.596 94.625,573.276 93.571,575.091C92.567,576.823 91.551,578.885 90.522,581.277C90.471,581.421 90.415,581.617 90.352,581.864C90.289,582.112 90.208,582.318 90.108,582.483C89.831,582.916 89.518,583.133 89.166,583.133C89.091,583.133 88.978,583.112 88.828,583.071C88.451,582.968 88.263,582.741 88.263,582.39C88.263,582.308 88.288,582.163 88.338,581.957C88.916,580.596 89.405,579.411 89.806,578.4C91.814,573.555 93.044,570.678 93.495,569.771L96.657,562.874L97.824,560.214C100.685,553.781 102.404,550.018 102.981,548.925C103.006,548.863 103.144,548.657 103.395,548.306C103.596,548.059 103.734,547.863 103.809,547.719C103.885,547.574 104.004,547.471 104.167,547.409C104.33,547.348 104.5,547.337 104.675,547.379C105.077,547.44 105.303,547.657 105.353,548.028C105.353,548.337 105.303,548.554 105.202,548.678C104.876,549.152 104.098,550.672 102.868,553.24C101.639,555.807 100.685,557.894 100.008,559.503L99.255,561.235C97.975,563.957 97.322,565.555 97.297,566.029C98.226,564.812 98.941,563.843 99.443,563.121C100.095,562.214 101.036,560.987 102.266,559.441C104.123,557.132 106.57,554.41 109.606,551.276C112.643,548.141 115.648,545.327 118.622,542.832C121.595,540.337 123.936,538.801 125.642,538.224C126.069,538.079 126.495,538.007 126.922,538.007C127.524,538.007 127.995,538.167 128.333,538.486C128.672,538.806 128.842,539.265 128.842,539.863C128.842,541.636 128.158,543.827 126.79,546.435C125.422,549.044 123.835,551.41 122.028,553.533C120.222,555.678 118.54,557.472 116.984,558.915C114.6,561.101 112.003,563.096 109.192,564.9C106.382,566.704 103.458,568.214 100.422,569.431C100.371,569.452 100.271,569.488 100.12,569.539C99.97,569.591 99.857,569.678 99.782,569.802C102.417,570.379 106.363,572.003 111.62,574.673C116.878,577.344 121.639,580.071 125.906,582.854C126.232,583.06 126.395,583.318 126.395,583.627C126.395,583.813 126.32,583.968 126.169,584.091ZM99.255,568.256C101.965,567.245 104.744,565.843 107.592,564.049C110.441,562.255 112.944,560.379 115.102,558.42C118.214,555.575 120.93,552.477 123.252,549.126C125.573,545.775 126.872,542.791 127.148,540.172L127.148,539.925C127.148,539.595 127.022,539.43 126.771,539.43C126.646,539.43 126.47,539.461 126.244,539.523C125.215,539.791 124.136,540.389 123.007,541.316C120.447,543.42 118.39,545.162 116.834,546.543C115.278,547.925 113.521,549.605 111.564,551.585C108.678,554.492 106.369,556.982 104.638,559.054C102.906,561.127 100.961,563.719 98.803,566.833L98.238,567.637C97.787,568.256 97.448,568.74 97.222,569.091L99.255,568.256Z" style="fill:rgb(248,176,176);fill-rule:nonzero;"/>
                <path d="M113.672,574.503C113.245,574.256 113.032,573.905 113.032,573.452L113.069,573.081C113.195,572.091 113.49,571.132 113.954,570.204C114.418,569.276 115.039,568.318 115.817,567.328C116.545,566.4 117.179,565.647 117.718,565.07C118.258,564.493 118.891,563.987 119.619,563.554L120.41,563.091C120.912,562.822 121.401,562.688 121.878,562.688C122.329,562.688 122.693,562.828 122.969,563.106C123.245,563.384 123.409,563.781 123.459,564.297C123.484,564.503 123.496,564.812 123.496,565.225L123.496,566.152C123.446,566.524 123.333,566.771 123.158,566.895C122.656,567.307 122.311,567.75 122.122,568.225C121.934,568.699 121.765,569.349 121.614,570.173C121.539,570.812 121.414,571.359 121.238,571.813C121.991,571.544 122.913,571.014 124.005,570.22C125.096,569.426 125.83,568.751 126.207,568.194C126.257,568.111 126.332,567.982 126.433,567.807C126.533,567.632 126.652,567.493 126.79,567.39C126.928,567.287 127.085,567.235 127.261,567.235C127.838,567.235 128.126,567.441 128.126,567.854C128.126,568.122 128.001,568.452 127.75,568.843C127.323,569.483 126.539,570.235 125.397,571.101C124.256,571.967 123.145,572.73 122.066,573.39C121.664,573.658 121.263,573.792 120.861,573.792C120.585,573.792 120.334,573.74 120.109,573.637C119.657,573.431 119.431,573.091 119.431,572.617C119.431,572.246 119.506,571.648 119.657,570.823C119.707,570.699 119.757,570.452 119.807,570.08C119.607,570.08 119.456,570.117 119.356,570.189C119.255,570.261 119.174,570.343 119.111,570.436C119.048,570.529 119.004,570.596 118.979,570.637C118.879,570.761 118.565,571.142 118.038,571.782C117.511,572.421 116.959,572.998 116.382,573.514C116.056,573.823 115.742,574.07 115.441,574.256C115.014,574.524 114.638,574.658 114.312,574.658C114.061,574.658 113.847,574.606 113.672,574.503ZM114.688,572.771C115.24,572.338 116.049,571.493 117.116,570.235C118.183,568.977 119.161,567.725 120.052,566.477C120.943,565.23 121.451,564.379 121.577,563.926C119.845,565.039 118.446,566.312 117.38,567.745C116.313,569.178 115.416,570.854 114.688,572.771Z" style="fill:rgb(248,176,176);fill-rule:nonzero;"/>
                <path d="M126.433,572.802C126.056,572.679 125.868,572.421 125.868,572.029L125.906,571.658C126.056,570.792 126.263,569.879 126.527,568.921C126.79,567.962 126.96,567.369 127.035,567.142L127.374,565.936L127.712,564.359C127.813,564.029 127.963,563.786 128.164,563.632C128.365,563.477 128.603,563.441 128.879,563.524C129.281,563.627 129.482,563.833 129.482,564.142C129.482,564.163 129.444,564.328 129.369,564.637L128.315,568.936C128.29,569.019 128.283,569.117 128.296,569.23C128.308,569.343 128.302,569.483 128.277,569.647L129.331,568.905C130.184,568.328 130.799,567.895 131.175,567.606C131.652,567.256 132.393,566.884 133.396,566.493C133.698,566.369 133.986,566.307 134.262,566.307C134.839,566.307 135.279,566.596 135.58,567.173C135.78,567.586 135.981,568.184 136.182,568.967C136.282,569.318 136.402,569.57 136.54,569.725C136.678,569.879 136.859,569.957 137.085,569.957C137.336,569.957 137.637,569.885 137.989,569.74C139.244,569.266 140.285,568.787 141.113,568.302C141.941,567.818 142.631,567.204 143.183,566.462C143.359,566.214 143.56,566.091 143.786,566.091C143.936,566.091 144.049,566.111 144.124,566.152C144.501,566.338 144.626,566.606 144.501,566.957C144.2,567.575 143.823,568.06 143.372,568.41C142.067,569.4 140.461,570.287 138.553,571.07C138.052,571.276 137.562,571.38 137.085,571.38C136.558,571.38 136.088,571.245 135.674,570.977C135.26,570.709 134.927,570.318 134.676,569.802C134.601,569.617 134.45,569.194 134.225,568.534C134.199,568.245 134.124,567.967 133.999,567.699C132.443,568.421 130.899,569.462 129.369,570.823C129.243,570.947 128.998,571.153 128.635,571.441C128.271,571.73 127.988,572.029 127.788,572.338C127.587,572.689 127.273,572.864 126.847,572.864C126.671,572.864 126.533,572.843 126.433,572.802Z" style="fill:rgb(248,176,176);fill-rule:nonzero;"/>
                <path d="M141.452,575.524C140.925,575.524 140.661,575.308 140.661,574.875C140.661,574.565 140.762,574.235 140.963,573.885C141.314,573.246 141.596,572.627 141.809,572.029C142.023,571.431 142.318,570.555 142.694,569.4C142.87,568.761 143.033,568.214 143.183,567.761C144.112,564.977 144.959,562.544 145.724,560.462C146.49,558.379 147.324,556.348 148.228,554.369C149.282,552.08 150.235,550.085 151.088,548.384C151.942,546.683 152.87,545.038 153.874,543.451L155.116,541.564L155.907,540.419C156.132,540.11 156.383,539.956 156.659,539.956C156.76,539.956 156.873,539.986 156.998,540.048C157.274,540.151 157.412,540.316 157.412,540.543C157.412,540.646 157.337,540.822 157.186,541.069C155.982,542.76 154.878,544.523 153.874,546.358C152.87,548.193 151.791,550.306 150.637,552.698C148.98,556.162 147.399,560.132 145.894,564.606C145.643,565.369 145.455,565.993 145.329,566.477C145.204,566.962 145.128,567.472 145.103,568.008L147.061,566.122C148.265,564.926 149.118,564.091 149.62,563.616L150.26,563.029C150.561,562.781 150.825,562.658 151.051,562.658C151.201,562.658 151.364,562.709 151.54,562.812C151.766,562.956 151.879,563.121 151.879,563.307C151.879,563.451 151.791,563.637 151.615,563.864C151.364,564.173 151.088,564.493 150.787,564.823C150.486,565.152 150.185,565.431 149.884,565.658C149.081,566.256 148.34,566.988 147.663,567.854C148.165,568.019 148.692,568.137 149.244,568.209C149.796,568.281 150.135,568.328 150.26,568.348L151.051,568.441C152.18,568.586 153.786,568.761 155.869,568.967C156.296,569.008 156.616,569.07 156.829,569.153C157.042,569.235 157.174,569.41 157.224,569.678C157.249,569.843 157.149,569.983 156.923,570.096C156.697,570.209 156.408,570.266 156.057,570.266C155.881,570.266 155.743,570.256 155.643,570.235C154.991,570.153 154.42,570.091 153.93,570.05C153.441,570.008 153.046,569.977 152.745,569.957C150.386,569.751 148.616,569.544 147.437,569.338C147.186,569.297 147.023,569.276 146.948,569.276C146.471,569.276 146.082,569.462 145.781,569.833C144.978,570.782 144.325,571.601 143.823,572.292C143.321,572.983 142.907,573.71 142.581,574.472C142.431,574.823 142.286,575.086 142.148,575.261C142.01,575.436 141.778,575.524 141.452,575.524Z" style="fill:rgb(248,176,176);fill-rule:nonzero;"/>
                <path d="M163.397,556.41C162.946,556.307 162.72,555.997 162.72,555.482C162.695,554.966 163.109,554.709 163.962,554.709C164.539,554.709 164.828,554.894 164.828,555.265C164.803,555.472 164.608,555.724 164.244,556.023C163.881,556.322 163.598,556.451 163.397,556.41ZM157.224,575.926C156.923,575.967 156.735,575.988 156.659,575.988C155.656,575.988 155.154,575.39 155.154,574.194C155.154,573.431 155.43,572.163 155.982,570.39C156.534,568.658 157.117,566.962 157.732,565.302C158.347,563.642 158.805,562.585 159.106,562.132C159.382,561.719 159.734,561.575 160.16,561.699C160.486,561.802 160.65,562.008 160.65,562.317C160.65,562.565 160.574,562.905 160.424,563.338C160.198,563.915 159.734,565.163 159.031,567.08L157.45,571.38C157.224,571.957 157.03,572.498 156.866,573.003C156.703,573.508 156.622,573.874 156.622,574.101C156.622,574.369 156.722,574.503 156.923,574.503C157.249,574.503 157.764,574.225 158.466,573.668C160.198,572.246 162.105,570.483 164.188,568.379C164.64,567.926 164.991,567.586 165.242,567.359C165.443,567.153 165.681,567.049 165.957,567.049C166.108,567.049 166.246,567.091 166.371,567.173C166.597,567.317 166.71,567.482 166.71,567.668C166.71,567.812 166.622,567.998 166.446,568.225C166.296,568.431 166.17,568.586 166.07,568.689C164.037,570.792 162.287,572.488 160.819,573.777C159.351,575.065 158.153,575.782 157.224,575.926Z" style="fill:rgb(248,176,176);fill-rule:nonzero;"/>
                <path d="M165.242,572.802C164.865,572.679 164.677,572.421 164.677,572.029L164.715,571.658C164.865,570.792 165.073,569.879 165.336,568.921C165.6,567.962 165.769,567.369 165.844,567.142L166.183,565.936L166.522,564.359C166.622,564.029 166.773,563.786 166.973,563.632C167.174,563.477 167.413,563.441 167.689,563.524C168.09,563.627 168.291,563.833 168.291,564.142C168.291,564.163 168.253,564.328 168.178,564.637L167.124,568.936C167.099,569.019 167.093,569.117 167.105,569.23C167.118,569.343 167.111,569.483 167.086,569.647L168.14,568.905C168.994,568.328 169.608,567.895 169.985,567.606C170.462,567.256 171.202,566.884 172.206,566.493C172.507,566.369 172.796,566.307 173.072,566.307C173.649,566.307 174.088,566.596 174.389,567.173C174.59,567.586 174.791,568.184 174.991,568.967C175.092,569.318 175.211,569.57 175.349,569.725C175.487,569.879 175.669,569.957 175.895,569.957C176.146,569.957 176.447,569.885 176.798,569.74C178.053,569.266 179.094,568.787 179.922,568.302C180.751,567.818 181.441,567.204 181.993,566.462C182.168,566.214 182.369,566.091 182.595,566.091C182.746,566.091 182.859,566.111 182.934,566.152C183.31,566.338 183.436,566.606 183.31,566.957C183.009,567.575 182.633,568.06 182.181,568.41C180.876,569.4 179.27,570.287 177.363,571.07C176.861,571.276 176.372,571.38 175.895,571.38C175.368,571.38 174.897,571.245 174.483,570.977C174.069,570.709 173.737,570.318 173.486,569.802C173.41,569.617 173.26,569.194 173.034,568.534C173.009,568.245 172.934,567.967 172.808,567.699C171.252,568.421 169.709,569.462 168.178,570.823C168.053,570.947 167.808,571.153 167.444,571.441C167.08,571.73 166.798,572.029 166.597,572.338C166.396,572.689 166.083,572.864 165.656,572.864C165.48,572.864 165.342,572.843 165.242,572.802Z" style="fill:rgb(248,176,176);fill-rule:nonzero;"/>
                <path d="M179.32,602.247C178.894,602.597 178.454,602.773 178.003,602.773C177.702,602.773 177.419,602.68 177.156,602.494C176.892,602.309 176.698,602.041 176.572,601.69C176.271,600.865 176.133,600.03 176.158,599.185C176.234,597.515 176.478,595.829 176.892,594.128C177.306,592.427 177.865,590.586 178.567,588.607C179.295,586.566 180.161,584.519 181.165,582.468C182.168,580.416 183.373,578.122 184.778,575.586C185.356,574.534 185.719,573.472 185.87,572.4C185.97,571.678 186.184,570.472 186.51,568.781L186.736,567.637L186.435,567.513L185.945,568.132C185.443,568.751 185.092,569.214 184.891,569.524C184.615,569.957 184.264,570.41 183.837,570.885C183.411,571.359 182.984,571.813 182.557,572.246C182.181,572.637 181.792,572.833 181.391,572.833C181.24,572.833 181.077,572.802 180.901,572.74C180.299,572.514 180.048,572.06 180.148,571.38C180.249,570.782 180.475,570.05 180.826,569.184C181.253,568.173 181.648,567.307 182.012,566.586C182.376,565.864 182.808,565.183 183.31,564.544L183.95,563.771C184.352,563.379 184.76,563.075 185.174,562.859C185.588,562.642 186.046,562.534 186.548,562.534C187.125,562.534 187.602,562.637 187.978,562.843C188.354,563.049 188.643,563.286 188.844,563.554C189.045,563.823 189.295,564.214 189.597,564.73C189.697,564.895 189.747,565.049 189.747,565.194C189.747,565.4 189.659,565.534 189.484,565.596C189.107,565.74 188.863,565.926 188.75,566.152C188.637,566.379 188.568,566.658 188.543,566.988C188.518,567.317 188.48,567.544 188.43,567.668C188.354,567.915 188.304,568.194 188.279,568.503C188.254,568.812 188.241,569.019 188.241,569.122C188.342,569.142 188.712,568.89 189.352,568.364C189.992,567.838 190.676,567.23 191.403,566.539C192.131,565.848 192.683,565.266 193.06,564.792C193.235,564.585 193.392,564.441 193.53,564.359C193.668,564.276 193.85,564.266 194.076,564.328C194.478,564.451 194.678,564.678 194.678,565.008C194.678,565.049 194.653,565.152 194.603,565.317C194.578,565.359 194.515,565.508 194.415,565.766C194.314,566.024 194.176,566.235 194.001,566.4L192.947,567.359C191.667,568.534 190.738,569.431 190.161,570.05C189.584,570.668 188.969,571.493 188.317,572.524C187.765,573.369 187.369,574.246 187.131,575.153C186.893,576.06 186.673,577.194 186.472,578.555L186.246,580.009C185.694,583.741 185.192,586.782 184.741,589.133C184.289,591.483 183.649,593.824 182.821,596.154C182.118,598.154 181.215,599.906 180.111,601.412C179.885,601.721 179.621,601.999 179.32,602.247ZM182.332,569.988C182.733,569.596 183.141,569.137 183.555,568.611C183.969,568.086 184.352,567.575 184.703,567.08C185.707,565.678 186.535,564.658 187.187,564.018C186.987,563.936 186.773,563.895 186.548,563.895C186.272,563.895 186.039,563.957 185.851,564.08C185.663,564.204 185.456,564.39 185.23,564.637C184.527,565.359 183.956,566.158 183.517,567.034C183.078,567.91 182.683,568.895 182.332,569.988ZM178.116,601.01C178.341,600.927 178.505,600.834 178.605,600.731C178.705,600.628 178.806,600.494 178.906,600.329C179.835,598.803 180.475,597.587 180.826,596.68C181.378,595.216 181.836,593.726 182.2,592.21C182.564,590.695 182.934,588.885 183.31,586.782L183.724,584.679C183.8,584.37 183.988,583.267 184.289,581.37L184.553,579.823C184.226,580.029 184.063,580.153 184.063,580.194L183.047,582.328C182.143,584.164 181.422,585.7 180.882,586.937C180.343,588.174 179.885,589.442 179.508,590.741L179.17,591.886C178.743,593.349 178.429,594.499 178.229,595.334C178.028,596.169 177.877,597.03 177.777,597.917C177.752,598.061 177.739,598.288 177.739,598.597C177.739,599.319 177.865,600.123 178.116,601.01Z" style="fill:rgb(248,176,176);fill-rule:nonzero;"/>
            </g>
            <g transform="matrix(1,0,0,1,99.9176,-147.903)">
                <path d="M127.357,727.798C126.461,727.67 125.971,727.158 125.885,726.262C125.843,725.707 126.045,725.227 126.493,724.822C126.941,724.416 127.464,724.256 128.061,724.342C129,724.342 129.491,724.832 129.533,725.814C129.491,726.326 129.245,726.795 128.797,727.222C128.349,727.648 127.869,727.84 127.357,727.798ZM126.525,740.47C125.971,740.512 125.533,740.384 125.213,740.086C124.893,739.787 124.712,739.403 124.669,738.934C124.669,738.379 124.84,737.931 125.181,737.59C125.523,737.248 125.971,737.035 126.525,736.95C127.037,736.864 127.443,736.96 127.741,737.238C128.04,737.515 128.232,737.931 128.317,738.486C128.232,739.68 127.635,740.342 126.525,740.47Z" style="fill:rgb(248,176,176);fill-rule:nonzero;"/>
            </g>
        </g>
    </g>
</svg>
