<?xml version="1.0" encoding="UTF-8" standalone="no"?>
<!DOCTYPE svg PUBLIC "-//W3C//DTD SVG 1.1//EN" "http://www.w3.org/Graphics/SVG/1.1/DTD/svg11.dtd">
<svg width="100%" height="100%" viewBox="0 0 491 406" version="1.1" xmlns="http://www.w3.org/2000/svg" xmlns:xlink="http://www.w3.org/1999/xlink" xml:space="preserve" xmlns:serif="http://www.serif.com/" style="fill-rule:evenodd;clip-rule:evenodd;stroke-linejoin:round;stroke-miterlimit:2;">
    <g transform="matrix(1,0,0,1,-174.758,-332.632)">
        <g transform="matrix(12.3234,0,0,12.3234,-2502.98,-4449.28)">
            <path d="M225.064,414.698C224.832,414.698 224.724,414.562 224.74,414.29C224.74,414.162 224.748,414.016 224.764,413.852C224.78,413.688 224.792,413.578 224.8,413.522L224.884,412.61C224.908,412.33 224.974,411.644 225.082,410.552C225.19,409.46 225.304,408.442 225.424,407.498C225.472,407.082 225.512,406.77 225.544,406.562C225.64,405.73 225.726,405.044 225.802,404.504C225.878,403.964 225.968,403.426 226.072,402.89C226.08,402.858 226.092,402.804 226.108,402.728C226.124,402.652 226.132,402.582 226.132,402.518C226.132,402.446 226.12,402.382 226.096,402.326C226.048,402.31 226.012,402.302 225.988,402.302C225.924,402.302 225.856,402.326 225.784,402.374C225.712,402.422 225.656,402.454 225.616,402.47C224.856,402.79 223.848,403.246 222.592,403.838L221.896,404.162C221.76,404.226 221.66,404.338 221.596,404.498C221.228,405.442 220.8,406.642 220.312,408.098C219.944,409.186 219.664,410.002 219.472,410.546C219.408,410.714 219.32,410.798 219.208,410.798C219.176,410.798 219.136,410.786 219.088,410.762C218.984,410.722 218.932,410.65 218.932,410.546C218.932,410.49 218.948,410.414 218.98,410.318L220.228,406.538L220.516,405.686C220.708,405.142 220.82,404.826 220.852,404.738C220.636,404.818 220.43,404.916 220.234,405.032C220.038,405.148 219.924,405.214 219.892,405.23C219.724,405.342 219.556,405.438 219.388,405.518C219.108,405.662 218.832,405.818 218.56,405.986C218.152,406.218 217.92,406.35 217.864,406.382L217.636,406.502C217.612,406.51 217.576,406.514 217.528,406.514C217.432,406.514 217.364,406.47 217.324,406.382C217.3,406.334 217.288,406.286 217.288,406.238C217.288,406.15 217.332,406.078 217.42,406.022C217.444,406.006 217.472,405.992 217.504,405.98C217.536,405.968 217.568,405.954 217.6,405.938C218.808,405.21 219.872,404.606 220.792,404.126C221.04,403.998 221.224,403.782 221.344,403.478C222.416,400.782 223.42,398.458 224.356,396.506C225.316,394.498 226.224,392.774 227.08,391.334L227.272,391.01C227.584,390.482 227.862,390.028 228.106,389.648C228.35,389.268 228.616,388.91 228.904,388.574C229.064,388.382 229.208,388.238 229.336,388.142C229.424,388.07 229.528,388.034 229.648,388.034C229.76,388.034 229.86,388.068 229.948,388.136C230.036,388.204 230.088,388.298 230.104,388.418C230.12,388.578 230.128,388.694 230.128,388.766C230.128,388.894 230.116,389.018 230.092,389.138C229.908,390.01 229.6,391.21 229.168,392.738L229.096,392.99L228.832,393.926C228.688,394.39 228.556,394.858 228.436,395.33C228.092,396.642 227.808,397.742 227.584,398.63C227.528,398.862 227.408,399.418 227.224,400.298C227.184,400.57 227.124,400.882 227.044,401.234C227.148,401.194 227.268,401.146 227.404,401.09C227.54,401.034 227.692,400.974 227.86,400.91L229.276,400.334C229.308,400.318 229.384,400.29 229.504,400.25C230.128,399.994 230.56,399.806 230.8,399.686C230.896,399.63 230.984,399.602 231.064,399.602C231.144,399.602 231.212,399.642 231.268,399.722C231.3,399.762 231.316,399.81 231.316,399.866C231.316,399.922 231.284,400.014 231.22,400.142C231.148,400.27 231.084,400.362 231.028,400.418C230.972,400.474 230.896,400.502 230.8,400.502C230.768,400.502 230.72,400.494 230.656,400.478C230.632,400.47 230.6,400.466 230.56,400.466C230.472,400.466 230.37,400.496 230.254,400.556C230.138,400.616 230.048,400.658 229.984,400.682C229.816,400.746 229.4,400.91 228.736,401.174L227.488,401.678C227.28,401.758 227.126,401.85 227.026,401.954C226.926,402.058 226.86,402.214 226.828,402.422C226.804,402.63 226.778,402.812 226.75,402.968C226.722,403.124 226.7,403.254 226.684,403.358L226.54,404.306C226.476,404.786 226.424,405.146 226.384,405.386C226.328,405.746 226.264,406.222 226.192,406.814L226.024,408.35C225.992,408.67 225.936,409.206 225.856,409.958C225.776,410.67 225.676,411.638 225.556,412.862L225.424,414.182C225.424,414.222 225.416,414.29 225.4,414.386C225.368,414.482 225.326,414.558 225.274,414.614C225.222,414.67 225.152,414.698 225.064,414.698ZM222.052,403.37C222.076,403.386 222.108,403.394 222.148,403.394C222.172,403.394 222.196,403.388 222.22,403.376C222.244,403.364 222.26,403.358 222.268,403.358C222.54,403.23 223.3,402.878 224.548,402.302L225.268,401.978L226.072,401.63C226.24,401.566 226.336,401.438 226.36,401.246C226.416,400.806 226.492,400.368 226.588,399.932C226.684,399.496 226.816,398.954 226.984,398.306C227.024,398.154 227.112,397.81 227.248,397.274C227.72,395.49 227.996,394.454 228.076,394.166L228.148,393.902C228.692,391.934 229.116,390.462 229.42,389.486C229.452,389.374 229.468,389.286 229.468,389.222C229.468,389.126 229.448,389.05 229.408,388.994C229.352,389.01 229.306,389.036 229.27,389.072C229.234,389.108 229.204,389.146 229.18,389.186C229.156,389.226 229.136,389.258 229.12,389.282L228.784,389.786C228.528,390.138 228.304,390.474 228.112,390.794L227.776,391.37C227.072,392.554 226.568,393.454 226.264,394.07C226.16,394.278 225.996,394.59 225.772,395.006C225.524,395.438 225.312,395.846 225.136,396.23C224.984,396.574 224.748,397.09 224.428,397.778C223.724,399.274 223.208,400.442 222.88,401.282L222.592,401.978C222.352,402.554 222.172,403.018 222.052,403.37Z" style="fill:white;fill-rule:nonzero;"/>
            <path d="M229.816,404.054C229.696,403.99 229.636,403.894 229.636,403.766C229.636,403.702 229.648,403.634 229.672,403.562L229.816,402.974C229.84,402.87 229.914,402.568 230.038,402.068C230.162,401.568 230.296,401.102 230.44,400.67L230.464,400.562C230.544,400.314 230.668,400.19 230.836,400.19C230.876,400.19 230.908,400.194 230.932,400.202C231.052,400.234 231.112,400.318 231.112,400.454C231.112,400.526 231.092,400.634 231.052,400.778L230.764,401.702L230.836,401.774L231.412,401.114C231.556,400.938 231.704,400.85 231.856,400.85C232.112,400.85 232.296,401.022 232.408,401.366C232.424,401.414 232.436,401.5 232.444,401.624C232.452,401.748 232.484,401.846 232.54,401.918L232.576,401.918C232.64,401.918 232.692,401.892 232.732,401.84C232.772,401.788 232.8,401.75 232.816,401.726C233.024,401.502 233.352,401.19 233.8,400.79L234.208,400.418C234.328,400.314 234.424,400.242 234.496,400.202C234.592,400.138 234.696,400.106 234.808,400.106C235.016,400.106 235.168,400.234 235.264,400.49C235.312,400.61 235.338,400.746 235.342,400.898C235.346,401.05 235.348,401.15 235.348,401.198L235.348,401.51C235.348,401.646 235.364,401.762 235.396,401.858C235.42,401.882 235.444,401.894 235.468,401.894C235.492,401.894 235.524,401.874 235.564,401.834C235.644,401.738 235.72,401.69 235.792,401.69C235.84,401.69 235.884,401.706 235.924,401.738C236.004,401.794 236.044,401.87 236.044,401.966C236.044,401.998 236.028,402.062 235.996,402.158C235.956,402.27 235.886,402.358 235.786,402.422C235.686,402.486 235.58,402.518 235.468,402.518C235.316,402.518 235.176,402.462 235.048,402.35C234.872,402.182 234.788,401.982 234.796,401.75C234.796,401.542 234.792,401.386 234.784,401.282C234.784,401.226 234.776,401.078 234.76,400.838C234.632,400.854 234.522,400.896 234.43,400.964C234.338,401.032 234.224,401.134 234.088,401.27C233.76,401.598 233.404,401.974 233.02,402.398C232.868,402.566 232.72,402.682 232.576,402.746C232.48,402.786 232.404,402.806 232.348,402.806C232.188,402.806 232.068,402.714 231.988,402.53C231.94,402.418 231.908,402.246 231.892,402.014C231.892,401.894 231.88,401.782 231.856,401.678C231.808,401.662 231.78,401.654 231.772,401.654C231.716,401.654 231.676,401.678 231.652,401.726C231.628,401.774 231.612,401.802 231.604,401.81C231.284,402.226 231.024,402.578 230.824,402.866C230.624,403.154 230.448,403.462 230.296,403.79C230.2,403.982 230.084,404.078 229.948,404.078C229.892,404.078 229.848,404.07 229.816,404.054Z" style="fill:white;fill-rule:nonzero;"/>
            <path d="M246.04,399.962C246.088,400.018 246.112,400.074 246.112,400.13C246.112,400.186 246.092,400.24 246.052,400.292C246.012,400.344 245.956,400.402 245.884,400.466L244.336,401.978L242.272,404.018C241.984,404.306 241.568,404.746 241.024,405.338C240.944,405.426 240.884,405.522 240.844,405.626C240.804,405.73 240.764,405.862 240.724,406.022L240.544,406.742C239.984,408.966 239.552,410.598 239.248,411.638L239.152,411.938C238.84,413.018 238.566,413.926 238.33,414.662C238.094,415.398 237.832,416.126 237.544,416.846C237.248,417.582 236.96,418.214 236.68,418.742C236.4,419.27 236.06,419.758 235.66,420.206C235.524,420.358 235.402,420.482 235.294,420.578C235.186,420.674 235.064,420.75 234.928,420.806C234.76,420.87 234.62,420.902 234.508,420.902C234.324,420.902 234.168,420.846 234.04,420.734C233.912,420.622 233.82,420.454 233.764,420.23C233.708,420.006 233.68,419.762 233.68,419.498C233.68,419.21 233.716,418.85 233.788,418.418C234.1,416.45 234.708,414.51 235.612,412.598C236.804,410.054 238.272,407.726 240.016,405.614C240.264,405.318 240.42,405.022 240.484,404.726C240.764,403.422 241.008,402.322 241.216,401.426L241.72,399.158C241.728,399.15 241.72,399.122 241.696,399.074C241.456,399.386 241.228,399.698 241.012,400.01C240.996,400.034 240.896,400.17 240.712,400.418L240.46,400.766C239.844,401.598 239.348,402.254 238.972,402.734C238.596,403.214 238.184,403.682 237.736,404.138C237.464,404.426 237.164,404.698 236.836,404.954C236.508,405.21 236.136,405.478 235.72,405.758C235.6,405.838 235.494,405.9 235.402,405.944C235.31,405.988 235.212,406.01 235.108,406.01C235.004,406.01 234.912,405.986 234.832,405.938C234.616,405.81 234.508,405.582 234.508,405.254L234.52,405.038C234.544,404.766 234.652,404.352 234.844,403.796C235.036,403.24 235.296,402.542 235.624,401.702L235.9,400.994C235.964,400.826 236.056,400.742 236.176,400.742C236.224,400.742 236.276,400.754 236.332,400.778C236.444,400.842 236.5,400.938 236.5,401.066C236.5,401.138 236.476,401.218 236.428,401.306C236.284,401.538 236.106,401.928 235.894,402.476C235.682,403.024 235.496,403.57 235.336,404.114C235.176,404.658 235.096,405.054 235.096,405.302C235.096,405.318 235.1,405.334 235.108,405.35C235.116,405.366 235.124,405.386 235.132,405.41C235.284,405.37 235.422,405.31 235.546,405.23C235.67,405.15 235.82,405.042 235.996,404.906C236.052,404.85 236.116,404.798 236.188,404.75C236.724,404.35 237.204,403.91 237.628,403.43C238.052,402.95 238.592,402.282 239.248,401.426C240.224,400.162 240.972,399.15 241.492,398.39C241.58,398.262 241.65,398.17 241.702,398.114C241.754,398.058 241.82,398.01 241.9,397.97C241.964,397.946 242.024,397.934 242.08,397.934C242.16,397.934 242.228,397.96 242.284,398.012C242.34,398.064 242.376,398.138 242.392,398.234C242.4,398.258 242.404,398.294 242.404,398.342C242.404,398.398 242.396,398.482 242.38,398.594C242.308,399.09 242.214,399.608 242.098,400.148C241.982,400.688 241.912,401.006 241.888,401.102L241.792,401.534L241.66,402.134C241.492,402.95 241.348,403.574 241.228,404.006C241.22,404.014 241.216,404.03 241.216,404.054L241.228,404.198C241.364,404.126 241.49,404.032 241.606,403.916C241.722,403.8 241.8,403.726 241.84,403.694C242.424,403.15 243.28,402.306 244.408,401.162L245.476,400.082L245.512,400.034C245.528,400.018 245.57,399.984 245.638,399.932C245.706,399.88 245.772,399.854 245.836,399.854C245.9,399.854 245.968,399.89 246.04,399.962ZM239.176,409.682C239.264,409.386 239.356,409.054 239.452,408.686C239.548,408.318 239.616,408.066 239.656,407.93C239.872,407.114 239.98,406.706 239.98,406.706C239.908,406.73 239.856,406.762 239.824,406.802C239.792,406.842 239.772,406.866 239.764,406.874C238.932,407.93 238.208,408.998 237.592,410.078C236.032,412.806 234.984,415.434 234.448,417.962C234.328,418.562 234.268,419.042 234.268,419.402C234.268,419.498 234.276,419.65 234.292,419.858C234.316,420.122 234.396,420.254 234.532,420.254C234.62,420.254 234.732,420.202 234.868,420.098C235.052,419.962 235.22,419.804 235.372,419.624C235.524,419.444 235.676,419.234 235.828,418.994C236.244,418.322 236.624,417.53 236.968,416.618C237.248,415.866 237.476,415.238 237.652,414.734C237.828,414.23 237.992,413.722 238.144,413.21C238.264,412.834 238.4,412.362 238.552,411.794C238.88,410.666 239.088,409.962 239.176,409.682Z" style="fill:white;fill-rule:nonzero;"/>
            <path d="M252.472,403.982C252.336,403.886 252.268,403.75 252.268,403.574L252.28,403.43C252.32,403.046 252.414,402.674 252.562,402.314C252.71,401.954 252.908,401.582 253.156,401.198C253.388,400.838 253.59,400.546 253.762,400.322C253.934,400.098 254.136,399.902 254.368,399.734L254.62,399.554C254.78,399.45 254.936,399.398 255.088,399.398C255.232,399.398 255.348,399.452 255.436,399.56C255.524,399.668 255.576,399.822 255.592,400.022C255.6,400.102 255.604,400.222 255.604,400.382L255.604,400.742C255.588,400.886 255.552,400.982 255.496,401.03C255.336,401.19 255.226,401.362 255.166,401.546C255.106,401.73 255.052,401.982 255.004,402.302C254.98,402.55 254.94,402.762 254.884,402.938C255.124,402.834 255.418,402.628 255.766,402.32C256.114,402.012 256.348,401.75 256.468,401.534C256.484,401.502 256.508,401.452 256.54,401.384C256.572,401.316 256.61,401.262 256.654,401.222C256.698,401.182 256.748,401.162 256.804,401.162C256.988,401.162 257.08,401.242 257.08,401.402C257.08,401.506 257.04,401.634 256.96,401.786C256.824,402.034 256.574,402.326 256.21,402.662C255.846,402.998 255.492,403.294 255.148,403.55C255.02,403.654 254.892,403.706 254.764,403.706C254.676,403.706 254.596,403.686 254.524,403.646C254.38,403.566 254.308,403.434 254.308,403.25C254.308,403.106 254.332,402.874 254.38,402.554C254.396,402.506 254.412,402.41 254.428,402.266C254.364,402.266 254.316,402.28 254.284,402.308C254.252,402.336 254.226,402.368 254.206,402.404C254.186,402.44 254.172,402.466 254.164,402.482C254.132,402.53 254.032,402.678 253.864,402.926C253.696,403.174 253.52,403.398 253.336,403.598C253.232,403.718 253.132,403.814 253.036,403.886C252.9,403.99 252.78,404.042 252.676,404.042C252.596,404.042 252.528,404.022 252.472,403.982ZM252.796,403.31C252.972,403.142 253.23,402.814 253.57,402.326C253.91,401.838 254.222,401.352 254.506,400.868C254.79,400.384 254.952,400.054 254.992,399.878C254.44,400.31 253.994,400.804 253.654,401.36C253.314,401.916 253.028,402.566 252.796,403.31Z" style="fill:white;fill-rule:nonzero;"/>
            <path d="M225.896,415.415C225.505,415.747 225.129,415.982 224.768,416.118C224.407,416.255 224.019,416.323 223.605,416.323C222.921,416.323 222.396,416.157 222.029,415.823C221.662,415.489 221.478,415.062 221.478,414.542C221.478,414.238 221.547,413.959 221.686,413.707C221.825,413.455 222.006,413.253 222.231,413.101C222.456,412.948 222.709,412.833 222.99,412.755C223.197,412.7 223.509,412.648 223.927,412.597C224.779,412.495 225.406,412.374 225.808,412.234C225.812,412.089 225.814,411.997 225.814,411.958C225.814,411.529 225.714,411.226 225.515,411.05C225.246,410.812 224.845,410.693 224.314,410.693C223.818,410.693 223.452,410.78 223.215,410.953C222.979,411.127 222.804,411.435 222.691,411.876L221.66,411.736C221.753,411.294 221.908,410.938 222.123,410.666C222.337,410.395 222.648,410.186 223.054,410.039C223.46,409.893 223.931,409.82 224.466,409.82C224.998,409.82 225.429,409.882 225.761,410.007C226.093,410.132 226.337,410.289 226.494,410.479C226.65,410.668 226.759,410.907 226.822,411.197C226.857,411.376 226.875,411.7 226.875,412.169L226.875,413.575C226.875,414.556 226.897,415.176 226.942,415.436C226.987,415.696 227.076,415.945 227.209,416.183L226.107,416.183C225.998,415.964 225.927,415.708 225.896,415.415ZM225.808,413.06C225.425,413.216 224.851,413.349 224.085,413.458C223.652,413.521 223.345,413.591 223.166,413.669C222.986,413.747 222.847,413.862 222.75,414.012C222.652,414.162 222.603,414.329 222.603,414.513C222.603,414.794 222.71,415.029 222.922,415.216C223.135,415.404 223.447,415.497 223.857,415.497C224.263,415.497 224.625,415.408 224.941,415.231C225.257,415.053 225.49,414.81 225.638,414.501C225.752,414.263 225.808,413.911 225.808,413.447L225.808,413.06Z" style="fill-rule:nonzero;"/>
        </g>
    </g>
</svg>
