<?xml version="1.0" encoding="UTF-8" standalone="no"?>
<!DOCTYPE svg PUBLIC "-//W3C//DTD SVG 1.1//EN" "http://www.w3.org/Graphics/SVG/1.1/DTD/svg11.dtd">
<svg width="100%" height="100%" viewBox="0 0 487 329" version="1.1" xmlns="http://www.w3.org/2000/svg" xmlns:xlink="http://www.w3.org/1999/xlink" xml:space="preserve" xmlns:serif="http://www.serif.com/" style="fill-rule:evenodd;clip-rule:evenodd;stroke-linejoin:round;stroke-miterlimit:2;">
    <g transform="matrix(1,0,0,1,14.5382,-41.1253)">
        <g>
            <path d="M81.289,369.717C78.43,369.717 77.099,368.041 77.296,364.689C77.296,363.112 77.395,361.312 77.592,359.291C77.789,357.27 77.937,355.915 78.035,355.225L79.071,343.986C79.366,340.535 80.18,332.081 81.511,318.624C82.842,305.167 84.246,292.622 85.725,280.988C86.317,275.862 86.81,272.017 87.204,269.454C88.387,259.201 89.447,250.747 90.383,244.092C91.32,237.437 92.429,230.807 93.711,224.202C93.809,223.808 93.957,223.142 94.154,222.206C94.352,221.269 94.45,220.406 94.45,219.618C94.45,218.73 94.302,217.942 94.007,217.252C93.415,217.054 92.971,216.956 92.676,216.956C91.887,216.956 91.049,217.252 90.162,217.843C89.274,218.435 88.584,218.829 88.091,219.026C78.726,222.97 66.303,228.589 50.825,235.885L42.248,239.877C40.572,240.666 39.34,242.046 38.551,244.018C34.016,255.651 28.742,270.44 22.728,288.382C18.193,301.79 14.742,311.846 12.376,318.55C11.587,320.621 10.503,321.656 9.123,321.656C8.728,321.656 8.236,321.508 7.644,321.212C6.362,320.719 5.722,319.832 5.722,318.55C5.722,317.86 5.919,316.924 6.313,315.74L21.693,269.158L25.242,258.658C27.608,251.954 28.988,248.06 29.383,246.976C26.721,247.962 24.182,249.169 21.767,250.599C19.351,252.028 17.946,252.842 17.552,253.039C15.482,254.419 13.411,255.602 11.341,256.588C7.89,258.363 4.489,260.285 1.137,262.355C-3.891,265.214 -6.75,266.841 -7.44,267.235L-10.25,268.714C-10.545,268.813 -10.989,268.862 -11.581,268.862C-12.764,268.862 -13.602,268.32 -14.095,267.235C-14.39,266.644 -14.538,266.052 -14.538,265.461C-14.538,264.376 -13.996,263.489 -12.911,262.799C-12.616,262.602 -12.271,262.429 -11.876,262.281C-11.482,262.134 -11.088,261.961 -10.693,261.764C4.193,252.792 17.306,245.349 28.643,239.434C31.699,237.856 33.967,235.195 35.446,231.448C48.656,198.224 61.029,169.585 72.564,145.529C84.394,120.784 95.584,99.538 106.133,81.793L108.499,77.8C112.344,71.293 115.77,65.698 118.777,61.015C121.784,56.332 125.062,51.921 128.611,47.78C130.582,45.414 132.357,43.639 133.934,42.456C135.019,41.569 136.301,41.125 137.779,41.125C139.16,41.125 140.392,41.544 141.476,42.382C142.561,43.22 143.202,44.379 143.399,45.857C143.596,47.829 143.695,49.259 143.695,50.146C143.695,51.723 143.547,53.252 143.251,54.73C140.983,65.476 137.188,80.264 131.864,99.095L130.977,102.2L127.723,113.735C125.949,119.453 124.322,125.22 122.843,131.037C118.604,147.205 115.104,160.761 112.344,171.704C111.654,174.563 110.175,181.415 107.907,192.26C107.414,195.612 106.675,199.457 105.689,203.794C106.971,203.302 108.45,202.71 110.126,202.02C111.802,201.33 113.675,200.59 115.745,199.802L133.195,192.703C133.589,192.506 134.526,192.161 136.005,191.668C143.695,188.513 149.018,186.197 151.976,184.718C153.159,184.028 154.243,183.683 155.229,183.683C156.215,183.683 157.053,184.176 157.743,185.161C158.138,185.654 158.335,186.246 158.335,186.936C158.335,187.626 157.94,188.76 157.152,190.337C156.264,191.915 155.476,193.048 154.786,193.739C154.096,194.429 153.159,194.774 151.976,194.774C151.582,194.774 150.99,194.675 150.201,194.478C149.906,194.379 149.511,194.33 149.018,194.33C147.934,194.33 146.677,194.7 145.247,195.439C143.818,196.179 142.709,196.696 141.92,196.992C139.85,197.781 134.723,199.802 126.54,203.055L111.161,209.266C108.597,210.252 106.7,211.386 105.467,212.667C104.235,213.949 103.422,215.871 103.027,218.435C102.732,220.998 102.411,223.241 102.066,225.163C101.721,227.086 101.45,228.688 101.253,229.969L99.478,241.652C98.689,247.567 98.049,252.004 97.556,254.961C96.866,259.398 96.077,265.264 95.19,272.559L93.119,291.488C92.725,295.431 92.035,302.037 91.049,311.304C90.063,320.078 88.831,332.007 87.352,347.091L85.725,363.358C85.725,363.851 85.627,364.689 85.429,365.872C85.035,367.055 84.518,367.992 83.877,368.682C83.236,369.372 82.373,369.717 81.289,369.717ZM44.171,230.117C44.466,230.314 44.861,230.413 45.354,230.413C45.649,230.413 45.945,230.339 46.241,230.191C46.537,230.043 46.734,229.969 46.832,229.969C50.184,228.392 59.55,224.054 74.93,216.956L83.803,212.963L93.711,208.675C95.781,207.886 96.964,206.308 97.26,203.942C97.95,198.52 98.887,193.122 100.07,187.749C101.253,182.376 102.879,175.697 104.95,167.711C105.443,165.838 106.527,161.599 108.203,154.994C114.02,133.009 117.421,120.242 118.407,116.693L119.294,113.439C125.998,89.187 131.223,71.047 134.97,59.019C135.364,57.639 135.561,56.554 135.561,55.765C135.561,54.582 135.315,53.646 134.822,52.956C134.132,53.153 133.565,53.473 133.121,53.917C132.677,54.361 132.308,54.829 132.012,55.322C131.716,55.815 131.47,56.209 131.273,56.505L127.132,62.716C123.977,67.054 121.217,71.194 118.851,75.138L114.71,82.236C106.034,96.827 99.823,107.918 96.077,115.509C94.795,118.073 92.774,121.918 90.014,127.044C86.958,132.368 84.345,137.396 82.176,142.128C80.303,146.367 77.395,152.726 73.451,161.205C64.775,179.641 58.417,194.034 54.374,204.386L50.825,212.963C47.868,220.061 45.649,225.779 44.171,230.117Z" style="fill:white;fill-rule:nonzero;"/>
            <path d="M142.068,229.526C140.589,228.934 139.85,227.702 139.85,225.829L139.998,224.054C140.589,219.914 141.402,215.551 142.438,210.967C143.473,206.382 144.138,203.548 144.434,202.464L145.765,196.696L147.096,189.154C147.49,187.577 148.082,186.418 148.87,185.679C149.659,184.94 150.596,184.767 151.68,185.161C153.258,185.654 154.046,186.64 154.046,188.119C154.046,188.218 153.898,189.006 153.603,190.485L149.462,211.041C149.363,211.435 149.339,211.903 149.388,212.446C149.437,212.988 149.413,213.653 149.314,214.442L153.455,210.893C156.807,208.132 159.222,206.062 160.701,204.682C162.574,203.006 165.482,201.231 169.426,199.358C170.609,198.767 171.743,198.471 172.827,198.471C175.095,198.471 176.82,199.851 178.003,202.611C178.792,204.583 179.58,207.442 180.369,211.189C180.763,212.865 181.232,214.072 181.774,214.812C182.316,215.551 183.031,215.921 183.918,215.921C184.904,215.921 186.087,215.576 187.467,214.886C192.397,212.618 196.488,210.326 199.742,208.009C202.995,205.692 205.706,202.759 207.875,199.21C208.565,198.027 209.354,197.436 210.241,197.436C210.833,197.436 211.276,197.534 211.572,197.731C213.051,198.619 213.544,199.9 213.051,201.576C211.868,204.534 210.389,206.851 208.614,208.527C203.488,213.259 197.178,217.498 189.686,221.244C187.714,222.23 185.791,222.723 183.918,222.723C181.848,222.723 179.999,222.082 178.373,220.801C176.746,219.519 175.44,217.646 174.454,215.181C174.158,214.294 173.567,212.273 172.679,209.118C172.581,207.738 172.285,206.407 171.792,205.125C165.68,208.576 159.616,213.555 153.603,220.061C153.11,220.653 152.148,221.639 150.719,223.019C149.289,224.399 148.18,225.829 147.392,227.308C146.603,228.984 145.371,229.822 143.695,229.822C143.004,229.822 142.462,229.723 142.068,229.526Z" style="fill:white;fill-rule:nonzero;"/>
            <path d="M205.805,229.526C204.326,228.934 203.586,227.702 203.586,225.829L203.734,224.054C204.326,219.914 205.139,215.551 206.174,210.967C207.21,206.382 207.875,203.548 208.171,202.464L209.502,196.696L210.833,189.154C211.227,187.577 211.818,186.418 212.607,185.679C213.396,184.94 214.332,184.767 215.417,185.161C216.994,185.654 217.783,186.64 217.783,188.119C217.783,188.218 217.635,189.006 217.339,190.485L213.199,211.041C213.1,211.435 213.075,211.903 213.125,212.446C213.174,212.988 213.149,213.653 213.051,214.442L217.192,210.893C220.543,208.132 222.959,206.062 224.438,204.682C226.311,203.006 229.219,201.231 233.163,199.358C234.346,198.767 235.479,198.471 236.564,198.471C238.831,198.471 240.557,199.851 241.74,202.611C242.528,204.583 243.317,207.442 244.106,211.189C244.5,212.865 244.969,214.072 245.511,214.812C246.053,215.551 246.768,215.921 247.655,215.921C248.641,215.921 249.824,215.576 251.204,214.886C256.134,212.618 260.225,210.326 263.478,208.009C266.732,205.692 269.443,202.759 271.612,199.21C272.302,198.027 273.091,197.436 273.978,197.436C274.569,197.436 275.013,197.534 275.309,197.731C276.788,198.619 277.281,199.9 276.788,201.576C275.605,204.534 274.126,206.851 272.351,208.527C267.225,213.259 260.915,217.498 253.422,221.244C251.451,222.23 249.528,222.723 247.655,222.723C245.585,222.723 243.736,222.082 242.109,220.801C240.483,219.519 239.176,217.646 238.191,215.181C237.895,214.294 237.303,212.273 236.416,209.118C236.317,207.738 236.022,206.407 235.529,205.125C229.416,208.576 223.353,213.555 217.339,220.061C216.846,220.653 215.885,221.639 214.456,223.019C213.026,224.399 211.917,225.829 211.128,227.308C210.34,228.984 209.107,229.822 207.431,229.822C206.741,229.822 206.199,229.723 205.805,229.526Z" style="fill:white;fill-rule:nonzero;"/>
            <path d="M260.225,237.659C258.549,236.476 257.711,234.8 257.711,232.631L257.859,230.857C258.352,226.125 259.51,221.54 261.334,217.104C263.158,212.667 265.598,208.083 268.654,203.351C271.513,198.914 274.002,195.316 276.122,192.556C278.242,189.795 280.731,187.38 283.59,185.309L286.696,183.091C288.667,181.809 290.59,181.169 292.463,181.169C294.238,181.169 295.667,181.834 296.752,183.165C297.836,184.496 298.477,186.394 298.674,188.858C298.773,189.844 298.822,191.323 298.822,193.295L298.822,197.731C298.625,199.506 298.181,200.689 297.491,201.281C295.519,203.252 294.164,205.372 293.424,207.639C292.685,209.907 292.019,213.012 291.428,216.956C291.132,220.012 290.639,222.625 289.949,224.794C292.907,223.512 296.53,220.973 300.818,217.178C305.107,213.382 307.991,210.153 309.469,207.492C309.666,207.097 309.962,206.481 310.357,205.643C310.751,204.805 311.219,204.14 311.761,203.647C312.304,203.154 312.92,202.907 313.61,202.907C315.877,202.907 317.011,203.893 317.011,205.865C317.011,207.146 316.518,208.724 315.532,210.597C313.856,213.653 310.776,217.252 306.29,221.392C301.804,225.533 297.442,229.181 293.202,232.336C291.625,233.617 290.048,234.258 288.47,234.258C287.386,234.258 286.4,234.012 285.513,233.519C283.738,232.533 282.851,230.906 282.851,228.639C282.851,226.864 283.146,224.005 283.738,220.061C283.935,219.47 284.132,218.287 284.33,216.512C283.541,216.512 282.949,216.685 282.555,217.03C282.161,217.375 281.84,217.769 281.594,218.213C281.347,218.657 281.175,218.977 281.076,219.174C280.682,219.766 279.449,221.59 277.379,224.646C275.309,227.702 273.14,230.462 270.872,232.927C269.591,234.406 268.358,235.589 267.175,236.476C265.499,237.758 264.021,238.399 262.739,238.399C261.753,238.399 260.915,238.152 260.225,237.659ZM264.218,229.378C266.387,227.308 269.566,223.265 273.756,217.252C277.946,211.238 281.791,205.249 285.291,199.284C288.791,193.32 290.787,189.253 291.28,187.084C284.477,192.408 278.981,198.495 274.791,205.347C270.601,212.199 267.077,220.209 264.218,229.378Z" style="fill:white;fill-rule:nonzero;"/>
            <path d="M471.103,176.732C471.793,177.422 472.139,178.063 472.139,178.655C472.139,179.542 471.695,180.355 470.808,181.095C469.92,181.834 469.329,182.352 469.033,182.647C463.808,189.154 459.79,195.242 456.981,200.911C454.171,206.58 451.386,214.195 448.625,223.758C446.259,232.04 444.066,238.793 442.045,244.018C440.024,249.243 438.027,252.891 436.056,254.961C434.38,256.637 432.802,257.475 431.323,257.475C430.239,257.475 429.253,257.106 428.366,256.366C427.478,255.627 426.788,254.518 426.295,253.039C425.605,250.771 425.26,247.863 425.26,244.314L425.26,238.99C425.26,236.92 425.408,232.631 425.704,226.125C426,223.758 426.148,221.294 426.148,218.73C423.683,225.139 422.204,229.082 421.711,230.561C420.134,235.293 418.359,239.877 416.387,244.314C414.416,248.75 411.754,254.518 408.402,261.616C407.712,263.292 406.75,265.017 405.518,266.792C404.286,268.566 403.472,269.7 403.078,270.193C401.895,271.869 400.12,273.101 397.754,273.89C396.966,274.087 396.423,274.186 396.128,274.186C392.578,274.186 390.804,269.306 390.804,259.546C390.804,255.109 391.198,249.835 391.987,243.722C394.945,223.906 398.149,207.048 401.599,193.147L401.895,191.077C402.979,188.316 404.458,187.232 406.331,187.823C408.007,188.218 408.845,189.253 408.845,190.929C408.845,191.323 408.747,192.013 408.55,192.999C406.972,198.126 405.198,206.111 403.226,216.956C401.353,227.308 399.973,235.614 399.085,241.874C398.198,248.134 397.754,254.567 397.754,261.172L397.902,263.834C398.592,263.834 399.085,263.686 399.381,263.391C399.677,263.095 399.899,262.75 400.046,262.355C400.194,261.961 400.318,261.715 400.416,261.616C403.078,256.785 405.493,251.88 407.662,246.902C409.831,241.923 412.395,235.638 415.352,228.047C415.549,227.455 416.092,226.026 416.979,223.758C420.725,214.097 423.486,206.851 425.26,202.02L433.542,180.281C434.527,177.62 436.056,176.535 438.126,177.028C439.802,177.521 440.64,178.704 440.64,180.577C440.64,181.267 440.591,181.76 440.492,182.056C440.098,184.619 439.408,188.464 438.422,193.591L436.203,205.125C433.147,223.068 431.619,235.293 431.619,241.8C431.619,245.25 431.964,247.518 432.654,248.602C433.936,246.828 435.291,243.944 436.721,239.951C438.151,235.959 440.048,230.265 442.414,222.871C444.682,215.576 446.752,209.414 448.625,204.386C450.794,198.964 452.741,194.872 454.467,192.112C456.192,189.351 458.681,185.852 461.935,181.612L464.597,178.211C465.188,177.62 465.878,177.053 466.667,176.51C467.456,175.968 468.195,175.697 468.885,175.697C469.674,175.697 470.413,176.042 471.103,176.732Z" style="fill:white;fill-rule:nonzero;"/>
        </g>
    </g>
</svg>
