<?xml version="1.0" encoding="UTF-8" standalone="no"?>
<!DOCTYPE svg PUBLIC "-//W3C//DTD SVG 1.1//EN" "http://www.w3.org/Graphics/SVG/1.1/DTD/svg11.dtd">
<svg width="100%" height="100%" viewBox="0 0 203 112" version="1.1" xmlns="http://www.w3.org/2000/svg" xmlns:xlink="http://www.w3.org/1999/xlink" xml:space="preserve" xmlns:serif="http://www.serif.com/" style="fill-rule:evenodd;clip-rule:evenodd;stroke-linejoin:round;stroke-miterlimit:2;">
    <g transform="matrix(1,0,0,1,-184.397,-143.688)">
        <g transform="matrix(6.06143,0,0,6.06143,-1047.98,-816.252)">
            <path d="M205.263,174.008C205.162,174.008 205.091,173.973 205.049,173.901C205.006,173.83 204.985,173.742 204.985,173.636C204.985,173.52 205.012,173.417 205.065,173.327C205.154,173.179 205.222,173.021 205.266,172.852C205.311,172.683 205.352,172.477 205.389,172.234C205.426,172.034 205.453,171.897 205.468,171.823C205.732,170.624 205.978,169.442 206.205,168.275L206.252,168.045C206.273,167.95 206.284,167.895 206.284,167.879C206.284,167.832 206.264,167.797 206.225,167.776C206.185,167.755 206.119,167.733 206.027,167.709C205.934,167.685 205.867,167.668 205.825,167.657C205.619,167.599 205.418,167.56 205.223,167.539C205.028,167.517 204.756,167.496 204.407,167.475C204.349,167.47 204.29,167.478 204.229,167.499C204.168,167.52 204.127,167.533 204.106,167.539C203.932,167.591 203.758,167.639 203.584,167.681C203.457,167.697 203.373,167.652 203.33,167.547C203.32,167.515 203.314,167.488 203.314,167.467C203.314,167.393 203.351,167.33 203.425,167.277C203.52,167.214 203.602,167.18 203.671,167.174C203.856,167.158 204.031,167.118 204.197,167.052C204.364,166.986 204.574,166.892 204.827,166.77C205.344,166.517 205.909,166.2 206.522,165.82C206.701,165.709 206.807,165.543 206.838,165.321C206.896,164.946 207.01,164.368 207.179,163.587L207.274,163.183C207.343,162.877 207.412,162.534 207.484,162.154C207.555,161.774 207.607,161.507 207.638,161.354L207.717,160.91C207.781,160.583 207.855,160.166 207.939,159.659L208.05,159.034C208.061,158.939 208.066,158.87 208.066,158.828L208.082,158.622C208.092,158.543 208.117,158.481 208.157,158.436C208.196,158.391 208.245,158.368 208.303,158.368C208.377,158.368 208.437,158.398 208.482,158.456C208.526,158.514 208.546,158.585 208.541,158.669C208.52,158.944 208.496,159.147 208.47,159.279C208.412,159.58 208.306,160.137 208.153,160.95L207.828,162.629C207.638,163.595 207.482,164.397 207.361,165.036L207.361,165.068L207.369,165.163C207.475,165.115 207.568,165.059 207.65,164.993C207.732,164.927 207.81,164.859 207.884,164.791C207.958,164.722 208.01,164.672 208.042,164.64C208.892,163.854 209.652,162.977 210.323,162.011C210.956,161.098 211.46,160.224 211.835,159.39L211.93,159.208C211.994,159.097 212.038,159.005 212.065,158.931C212.091,158.82 212.155,158.764 212.255,158.764C212.313,158.764 212.359,158.78 212.393,158.812C212.428,158.844 212.445,158.886 212.445,158.939C212.445,158.976 212.432,159.026 212.405,159.089C212.115,159.691 211.83,160.247 211.55,160.756C211.27,161.265 210.969,161.747 210.647,162.201C209.945,163.199 209.272,164.012 208.628,164.64C208.153,165.094 207.736,165.448 207.377,165.701C207.292,165.759 207.229,165.823 207.187,165.891C207.145,165.96 207.121,166.045 207.116,166.145C207.089,166.467 207.018,166.826 206.902,167.222C206.881,167.29 206.87,167.349 206.87,167.396C206.87,167.438 206.886,167.47 206.918,167.491C206.949,167.512 207.015,167.541 207.116,167.578C207.385,167.668 207.657,167.748 207.931,167.82C208.206,167.891 208.464,167.954 208.707,168.01C208.95,168.065 209.106,168.101 209.174,168.117L209.919,168.283C210.114,168.33 210.531,168.428 211.17,168.576C211.36,168.618 211.598,168.672 211.883,168.738C212.168,168.804 212.5,168.885 212.881,168.98L213.174,169.059C213.321,169.096 213.379,169.178 213.348,169.304C213.337,169.368 213.308,169.414 213.261,169.443C213.213,169.472 213.155,169.481 213.086,169.471C213.055,169.466 213.001,169.459 212.924,169.451C212.848,169.443 212.78,169.431 212.722,169.415C211.909,169.199 210.679,168.906 209.032,168.536C208.546,168.426 207.857,168.235 206.965,167.966C206.918,167.95 206.878,167.942 206.846,167.942C206.809,167.942 206.78,167.954 206.759,167.978C206.738,168.002 206.722,168.045 206.712,168.109C206.643,168.494 206.53,169.072 206.371,169.843C206.313,170.118 206.276,170.305 206.26,170.405C205.986,171.746 205.769,172.749 205.611,173.414C205.579,173.557 205.54,173.689 205.492,173.81C205.455,173.942 205.379,174.008 205.263,174.008ZM206.244,167.301C206.276,167.312 206.3,167.317 206.316,167.317C206.379,167.317 206.413,167.283 206.419,167.214C206.424,167.14 206.448,167.019 206.49,166.85C206.511,166.76 206.53,166.666 206.545,166.569C206.561,166.471 206.566,166.377 206.561,166.287L206.102,166.541L205.207,167.032C205.313,167.069 205.429,167.102 205.556,167.131C205.682,167.16 205.764,167.18 205.801,167.19C206.002,167.232 206.149,167.269 206.244,167.301Z" style="fill-rule:nonzero;"/>
            <path d="M214.092,170.049C213.971,170.102 213.852,170.128 213.736,170.128C213.519,170.128 213.335,170.044 213.181,169.875C213.028,169.706 212.954,169.455 212.96,169.122C213.049,168.642 213.183,168.234 213.36,167.899C213.536,167.564 213.823,167.296 214.219,167.095C214.298,167.053 214.385,167.032 214.48,167.032C214.575,167.032 214.657,167.059 214.726,167.115C214.794,167.17 214.844,167.248 214.876,167.349C214.887,167.401 214.892,167.438 214.892,167.459C214.892,167.512 214.873,167.586 214.836,167.681C214.726,167.945 214.582,168.173 214.405,168.366C214.228,168.559 214.01,168.732 213.752,168.885C213.699,168.916 213.638,168.943 213.569,168.964C213.506,168.985 213.461,169.005 213.435,169.023C213.408,169.042 213.395,169.077 213.395,169.13C213.395,169.479 213.514,169.653 213.752,169.653C213.831,169.653 213.918,169.637 214.013,169.605C214.203,169.547 214.431,169.402 214.698,169.17C214.964,168.938 215.188,168.716 215.367,168.505L215.407,168.449C215.496,168.338 215.573,168.283 215.636,168.283C215.673,168.283 215.708,168.299 215.739,168.33C215.787,168.378 215.811,168.428 215.811,168.481C215.811,168.534 215.781,168.605 215.723,168.695C215.549,168.932 215.297,169.19 214.967,169.467C214.637,169.744 214.346,169.938 214.092,170.049ZM213.546,168.576C213.921,168.37 214.216,168.077 214.433,167.697C214.438,167.681 214.452,167.656 214.476,167.622C214.5,167.587 214.512,167.554 214.512,167.523C214.512,167.502 214.499,167.478 214.472,167.451C214.451,167.43 214.422,167.42 214.385,167.42C214.343,167.42 214.298,167.437 214.25,167.471C214.203,167.506 214.145,167.557 214.076,167.626C213.934,167.789 213.818,167.944 213.728,168.089C213.638,168.234 213.577,168.396 213.546,168.576Z" style="fill-rule:nonzero;"/>
            <path d="M215.375,170.033C215.296,169.991 215.256,169.927 215.256,169.843C215.256,169.801 215.264,169.756 215.28,169.708L215.375,169.32C215.391,169.252 215.44,169.052 215.521,168.722C215.603,168.393 215.692,168.085 215.787,167.8L215.803,167.729C215.855,167.565 215.937,167.483 216.048,167.483C216.074,167.483 216.096,167.486 216.111,167.491C216.191,167.512 216.23,167.568 216.23,167.657C216.23,167.705 216.217,167.776 216.191,167.871L216.001,168.481L216.048,168.528L216.428,168.093C216.523,167.977 216.621,167.919 216.721,167.919C216.89,167.919 217.012,168.032 217.085,168.259C217.096,168.291 217.104,168.348 217.109,168.429C217.114,168.511 217.136,168.576 217.173,168.623L217.196,168.623C217.239,168.623 217.273,168.606 217.299,168.572C217.326,168.538 217.344,168.513 217.355,168.497C217.492,168.349 217.708,168.143 218.004,167.879L218.273,167.634C218.352,167.565 218.416,167.517 218.463,167.491C218.527,167.449 218.595,167.428 218.669,167.428C218.806,167.428 218.907,167.512 218.97,167.681C219.002,167.76 219.019,167.85 219.022,167.95C219.024,168.051 219.026,168.117 219.026,168.148L219.026,168.354C219.026,168.444 219.036,168.521 219.057,168.584C219.073,168.6 219.089,168.608 219.105,168.608C219.121,168.608 219.142,168.594 219.168,168.568C219.221,168.505 219.271,168.473 219.319,168.473C219.35,168.473 219.379,168.484 219.406,168.505C219.458,168.542 219.485,168.592 219.485,168.655C219.485,168.676 219.474,168.719 219.453,168.782C219.427,168.856 219.381,168.914 219.315,168.956C219.249,168.998 219.179,169.019 219.105,169.019C219.004,169.019 218.912,168.982 218.828,168.909C218.711,168.798 218.656,168.666 218.661,168.513C218.661,168.375 218.659,168.272 218.653,168.204C218.653,168.167 218.648,168.069 218.638,167.911C218.553,167.921 218.48,167.949 218.42,167.994C218.359,168.039 218.284,168.106 218.194,168.196C217.978,168.412 217.743,168.66 217.489,168.94C217.389,169.051 217.291,169.128 217.196,169.17C217.133,169.196 217.083,169.209 217.046,169.209C216.94,169.209 216.861,169.149 216.808,169.027C216.777,168.953 216.755,168.84 216.745,168.687C216.745,168.608 216.737,168.534 216.721,168.465C216.69,168.455 216.671,168.449 216.666,168.449C216.629,168.449 216.602,168.465 216.587,168.497C216.571,168.528 216.56,168.547 216.555,168.552C216.344,168.827 216.172,169.059 216.04,169.249C215.908,169.439 215.792,169.642 215.692,169.859C215.628,169.986 215.552,170.049 215.462,170.049C215.425,170.049 215.396,170.044 215.375,170.033Z" style="fill-rule:nonzero;"/>
            <path d="M217.949,176.725C217.917,176.677 217.896,176.626 217.885,176.57C217.875,176.515 217.867,176.445 217.862,176.36C217.856,176.286 217.854,176.178 217.854,176.036C217.854,175.782 217.88,175.402 217.933,174.895C218.012,174.22 218.099,173.604 218.194,173.05C218.289,172.496 218.411,171.96 218.558,171.443C218.638,171.163 218.714,170.817 218.788,170.405C218.841,170.125 218.896,169.861 218.954,169.613C219.102,169.011 219.234,168.507 219.35,168.101C219.466,167.694 219.596,167.293 219.738,166.897C219.759,166.839 219.802,166.757 219.865,166.652C219.891,166.599 219.934,166.572 219.992,166.572C220.05,166.572 220.092,166.591 220.118,166.628C220.145,166.665 220.155,166.71 220.15,166.763C220.145,166.805 220.126,166.858 220.095,166.921C219.947,167.264 219.821,167.619 219.718,167.986C219.616,168.353 219.506,168.792 219.39,169.304L219.651,168.901C219.688,168.848 219.775,168.716 219.913,168.505C220.05,168.294 220.195,168.103 220.348,167.935C220.475,167.792 220.612,167.671 220.76,167.57C220.865,167.502 220.953,167.467 221.021,167.467C221.158,167.467 221.256,167.573 221.314,167.784C221.335,167.842 221.346,167.903 221.346,167.966C221.346,168.03 221.33,168.114 221.298,168.22C221.293,168.241 221.279,168.282 221.255,168.342C221.231,168.403 221.219,168.462 221.219,168.521C221.219,168.552 221.222,168.576 221.227,168.592C221.275,168.581 221.341,168.56 221.425,168.528C221.605,168.47 221.75,168.433 221.861,168.418L221.932,168.41C222.016,168.41 222.069,168.444 222.09,168.513L222.098,168.552C222.098,168.61 222.043,168.66 221.932,168.703L221.544,168.821C221.348,168.88 221.185,168.949 221.053,169.031C220.921,169.113 220.81,169.228 220.72,169.376C220.483,169.772 220.192,170.073 219.849,170.279C219.733,170.352 219.641,170.389 219.572,170.389C219.535,170.389 219.501,170.381 219.469,170.366C219.437,170.35 219.408,170.342 219.382,170.342C219.345,170.342 219.316,170.355 219.295,170.381C219.274,170.408 219.25,170.45 219.224,170.508C219.039,170.957 218.907,171.403 218.828,171.846C218.648,172.897 218.498,174.048 218.376,175.299C218.334,175.753 218.305,176.094 218.289,176.321C218.279,176.5 218.255,176.632 218.218,176.717C218.186,176.78 218.141,176.812 218.083,176.812C218.025,176.812 217.98,176.783 217.949,176.725ZM219.794,169.352C220.074,169.183 220.279,169.062 220.411,168.988C220.591,168.893 220.732,168.755 220.835,168.576C220.938,168.396 220.989,168.201 220.989,167.99C220.989,167.921 220.987,167.871 220.982,167.84C220.802,167.919 220.601,168.098 220.38,168.378C220.158,168.658 219.963,168.982 219.794,169.352ZM219.627,170.033C219.717,170.044 219.825,169.993 219.952,169.883C220.079,169.772 220.192,169.654 220.293,169.53C220.393,169.406 220.456,169.326 220.483,169.289C220.435,169.315 220.334,169.37 220.178,169.455C220.022,169.539 219.873,169.63 219.73,169.728C219.588,169.826 219.517,169.904 219.517,169.962C219.517,170.004 219.554,170.028 219.627,170.033Z" style="fill-rule:nonzero;"/>
            <path d="M223.151,165.353C223.056,165.327 223.009,165.247 223.009,165.115C223.004,164.983 223.091,164.917 223.27,164.917C223.392,164.917 223.452,164.965 223.452,165.06C223.447,165.113 223.406,165.177 223.33,165.254C223.253,165.331 223.194,165.364 223.151,165.353ZM221.853,170.35C221.789,170.36 221.75,170.366 221.734,170.366C221.523,170.366 221.417,170.213 221.417,169.906C221.417,169.711 221.475,169.386 221.591,168.932C221.707,168.489 221.83,168.055 221.96,167.63C222.089,167.205 222.185,166.934 222.249,166.818C222.307,166.712 222.381,166.675 222.47,166.707C222.539,166.733 222.573,166.786 222.573,166.865C222.573,166.929 222.557,167.016 222.526,167.127C222.478,167.275 222.381,167.594 222.233,168.085L221.9,169.186C221.853,169.334 221.812,169.472 221.777,169.601C221.743,169.731 221.726,169.825 221.726,169.883C221.726,169.951 221.747,169.986 221.789,169.986C221.858,169.986 221.966,169.914 222.114,169.772C222.478,169.407 222.879,168.956 223.318,168.418C223.413,168.301 223.487,168.214 223.539,168.156C223.582,168.103 223.632,168.077 223.69,168.077C223.722,168.077 223.751,168.088 223.777,168.109C223.824,168.146 223.848,168.188 223.848,168.235C223.848,168.272 223.83,168.32 223.793,168.378C223.761,168.431 223.735,168.47 223.714,168.497C223.286,169.035 222.918,169.469 222.609,169.799C222.3,170.129 222.048,170.313 221.853,170.35Z" style="fill-rule:nonzero;"/>
            <path d="M224.355,170.049C224.234,170.102 224.115,170.128 223.999,170.128C223.782,170.128 223.597,170.044 223.444,169.875C223.291,169.706 223.217,169.455 223.223,169.122C223.312,168.642 223.446,168.234 223.623,167.899C223.799,167.564 224.086,167.296 224.482,167.095C224.561,167.053 224.648,167.032 224.743,167.032C224.838,167.032 224.92,167.059 224.989,167.115C225.057,167.17 225.107,167.248 225.139,167.349C225.15,167.401 225.155,167.438 225.155,167.459C225.155,167.512 225.136,167.586 225.099,167.681C224.989,167.945 224.845,168.173 224.668,168.366C224.491,168.559 224.273,168.732 224.015,168.885C223.962,168.916 223.901,168.943 223.832,168.964C223.769,168.985 223.724,169.005 223.698,169.023C223.671,169.042 223.658,169.077 223.658,169.13C223.658,169.479 223.777,169.653 224.015,169.653C224.094,169.653 224.181,169.637 224.276,169.605C224.466,169.547 224.694,169.402 224.961,169.17C225.227,168.938 225.45,168.716 225.63,168.505L225.67,168.449C225.759,168.338 225.836,168.283 225.899,168.283C225.936,168.283 225.97,168.299 226.002,168.33C226.05,168.378 226.073,168.428 226.073,168.481C226.073,168.534 226.044,168.605 225.986,168.695C225.812,168.932 225.56,169.19 225.23,169.467C224.9,169.744 224.608,169.938 224.355,170.049ZM223.809,168.576C224.183,168.37 224.479,168.077 224.696,167.697C224.701,167.681 224.715,167.656 224.739,167.622C224.763,167.587 224.775,167.554 224.775,167.523C224.775,167.502 224.762,167.478 224.735,167.451C224.714,167.43 224.685,167.42 224.648,167.42C224.606,167.42 224.561,167.437 224.513,167.471C224.466,167.506 224.408,167.557 224.339,167.626C224.197,167.789 224.08,167.944 223.991,168.089C223.901,168.234 223.84,168.396 223.809,168.576Z" style="fill-rule:nonzero;"/>
            <path d="M230.128,173.169C229.948,173.169 229.812,173.129 229.72,173.05C229.628,172.971 229.582,172.855 229.582,172.702C229.582,172.591 229.599,172.485 229.633,172.385C229.667,172.285 229.716,172.163 229.779,172.021C229.79,172 229.81,171.967 229.839,171.922C229.868,171.877 229.875,171.836 229.859,171.799C229.806,171.656 229.779,171.511 229.779,171.363C229.779,171.21 229.809,171.007 229.867,170.754L229.922,170.469C230.197,168.821 230.41,167.589 230.563,166.77C230.632,166.411 230.74,165.873 230.888,165.155C231.015,164.543 231.115,164.033 231.189,163.627C231.305,163.014 231.395,162.555 231.458,162.249C231.474,162.159 231.493,162.082 231.514,162.019C231.54,161.919 231.598,161.869 231.688,161.869C231.815,161.869 231.878,161.924 231.878,162.035C231.878,162.051 231.873,162.08 231.862,162.122C231.815,162.296 231.759,162.563 231.696,162.922C231.643,163.233 231.567,163.635 231.466,164.126C231.361,164.664 231.284,165.068 231.237,165.337C231.221,165.427 231.197,165.527 231.165,165.638C231.16,165.67 231.14,165.759 231.106,165.907C231.072,166.055 231.057,166.206 231.062,166.359C231.131,166.258 231.188,166.159 231.233,166.062C231.277,165.964 231.332,165.828 231.395,165.654C231.416,165.585 231.453,165.488 231.506,165.361C232.15,163.835 232.979,162.536 233.992,161.465C234.082,161.37 234.222,161.238 234.412,161.069C234.475,161.021 234.53,160.986 234.574,160.962C234.619,160.938 234.668,160.926 234.721,160.926C234.768,160.926 234.813,160.937 234.856,160.958C234.977,161.016 235.038,161.124 235.038,161.283C235.038,161.335 235.035,161.375 235.03,161.401C234.987,161.692 234.885,162.016 234.721,162.375C234.299,163.299 233.852,164.115 233.383,164.822C232.992,165.414 232.691,165.899 232.48,166.279L232.939,165.907C233.082,165.775 233.232,165.66 233.391,165.563C233.549,165.465 233.752,165.35 234,165.218L234.238,165.092C234.301,165.055 234.375,165.027 234.46,165.008C234.544,164.99 234.621,164.981 234.689,164.981C234.837,164.981 234.956,165.031 235.046,165.131C235.135,165.232 235.18,165.366 235.18,165.535C235.18,165.715 235.16,165.893 235.121,166.07C235.081,166.246 235.022,166.456 234.943,166.699C234.937,166.72 234.927,166.749 234.911,166.786C234.895,166.823 234.887,166.858 234.887,166.889C234.887,166.921 234.895,166.958 234.911,167L235.228,166.818L235.687,166.549L236.202,166.24C236.281,166.192 236.384,166.145 236.511,166.097C236.542,166.082 236.574,166.074 236.606,166.074C236.664,166.074 236.711,166.105 236.748,166.169C236.764,166.2 236.772,166.229 236.772,166.256C236.772,166.309 236.74,166.356 236.677,166.398C236.603,166.451 236.548,166.488 236.511,166.509L235.592,167.04L234.958,167.412C234.721,167.549 234.552,167.739 234.452,167.982C233.887,169.312 233.277,170.442 232.622,171.371C232.105,172.105 231.495,172.654 230.793,173.018C230.598,173.119 230.376,173.169 230.128,173.169ZM230.263,171.165C230.347,171.097 230.413,171.028 230.461,170.96C230.508,170.891 230.54,170.849 230.556,170.833C230.909,170.352 231.271,169.927 231.64,169.558C232.39,168.808 233.229,168.111 234.159,167.467C234.259,167.399 234.328,167.312 234.365,167.206C234.428,167.048 234.49,166.873 234.551,166.683C234.611,166.493 234.65,166.369 234.665,166.311L234.737,166.066C234.784,165.897 234.805,165.728 234.8,165.559C234.8,165.49 234.779,165.44 234.737,165.408C234.694,165.377 234.642,165.369 234.578,165.385C234.425,165.427 234.288,165.482 234.167,165.551C233.866,165.704 233.586,165.885 233.327,166.093C233.068,166.302 232.754,166.575 232.385,166.913L232.226,167.056L231.625,167.602C231.567,167.66 231.506,167.689 231.442,167.689C231.4,167.689 231.355,167.673 231.308,167.642C231.25,167.599 231.221,167.544 231.221,167.475C231.221,167.428 231.234,167.372 231.26,167.309C231.303,167.219 231.35,167.14 231.403,167.071C231.577,166.839 231.722,166.636 231.838,166.462L232.353,165.693C232.39,165.635 232.512,165.455 232.717,165.151C232.923,164.847 233.111,164.553 233.28,164.268L233.47,163.943C233.713,163.537 233.912,163.186 234.068,162.89C234.223,162.595 234.357,162.288 234.467,161.972C234.478,161.94 234.502,161.882 234.539,161.797C234.576,161.713 234.594,161.634 234.594,161.56C234.594,161.539 234.589,161.502 234.578,161.449C234.568,161.454 234.552,161.461 234.531,161.469C234.51,161.477 234.494,161.486 234.483,161.496C233.998,162.014 233.562,162.542 233.177,163.08C232.781,163.629 232.436,164.223 232.143,164.862C231.85,165.501 231.567,166.213 231.292,167C231.123,167.486 230.936,168.085 230.73,168.798C230.513,169.532 230.358,170.321 230.263,171.165ZM230.144,172.789C230.387,172.789 230.629,172.712 230.872,172.559C231.342,172.258 231.749,171.881 232.092,171.427C232.477,170.92 232.894,170.255 233.343,169.431C233.491,169.167 233.652,168.84 233.826,168.449L233.953,168.18L233.897,168.133C233.306,168.56 232.741,169.03 232.203,169.542C231.427,170.281 230.793,171.055 230.302,171.862C230.186,172.047 230.08,172.264 229.985,172.512C229.964,172.559 229.954,172.607 229.954,172.654C229.954,172.744 230.017,172.789 230.144,172.789Z" style="fill-rule:nonzero;"/>
        </g>
    </g>
</svg>
