<?xml version="1.0" encoding="UTF-8" standalone="no"?>
<!DOCTYPE svg PUBLIC "-//W3C//DTD SVG 1.1//EN" "http://www.w3.org/Graphics/SVG/1.1/DTD/svg11.dtd">
<svg width="100%" height="100%" viewBox="0 0 118 76" version="1.1" xmlns="http://www.w3.org/2000/svg" xmlns:xlink="http://www.w3.org/1999/xlink" xml:space="preserve" xmlns:serif="http://www.serif.com/" style="fill-rule:evenodd;clip-rule:evenodd;stroke-miterlimit:1.5;">
    <g transform="matrix(1,0,0,1,-132.823,-42.2575)">
        <g transform="matrix(1,0,0,1,2.61111,0.796188)">
            <g transform="matrix(0.526106,0.0341305,-0.0341305,0.526106,123.078,28.1881)">
                <path d="M25.623,157.765C31.849,149.315 34.925,143.023 45.475,135.021C52.315,129.831 60.621,124.567 68.382,120.895C94.333,108.617 124.264,101.985 153.002,101.683C161.83,101.59 170.939,101.527 179.376,104.128C198.541,110.038 215.423,118.523 207.515,140.467C206.108,144.369 201.125,149.564 196.53,152.343C193.234,154.336 189.425,155.065 185.587,155.381C171.864,156.51 162.528,153.631 148.624,150.483C142.893,149.184 129.596,144.711 124.242,142.737C115.41,139.48 109.053,135.657 100.583,131.553C92.566,127.669 90.843,125.643 83.318,120.877C68.348,111.395 51.259,101.726 39.598,87.895C31.072,77.782 18.879,55.248 31.137,42.755C42.247,31.432 82.004,24.161 82.675,24.061C120.219,18.44 142.747,16.866 180.621,18.237C195.821,18.787 228.766,25.549 236.338,29.931" style="fill:none;stroke:rgb(51,85,56);stroke-width:2.02px;stroke-dasharray:6.07,2.02,2.02,0;stroke-dashoffset:4.05;"/>
            </g>
        </g>
    </g>
</svg>
