<?xml version="1.0" encoding="UTF-8" standalone="no"?>
<!DOCTYPE svg PUBLIC "-//W3C//DTD SVG 1.1//EN" "http://www.w3.org/Graphics/SVG/1.1/DTD/svg11.dtd">
<svg width="100%" height="100%" viewBox="0 0 247 235" version="1.1" xmlns="http://www.w3.org/2000/svg" xmlns:xlink="http://www.w3.org/1999/xlink" xml:space="preserve" xmlns:serif="http://www.serif.com/" style="fill-rule:evenodd;clip-rule:evenodd;stroke-linejoin:round;stroke-miterlimit:2;">
    <g transform="matrix(1,0,0,1,-338.499,-169.077)">
        <path d="M458.638,179.241C459.103,177.81 460.436,176.841 461.94,176.841C463.445,176.841 464.778,177.81 465.243,179.241C472.873,202.726 491.081,258.762 491.081,258.762C491.081,258.762 551.88,258.762 575.84,258.762C577.183,258.762 578.374,259.627 578.789,260.904C579.204,262.182 578.749,263.581 577.662,264.37C558.278,278.454 509.091,314.191 509.091,314.191C509.091,314.191 528.141,372.822 535.436,395.272C535.829,396.483 535.398,397.81 534.368,398.559C533.338,399.307 531.943,399.307 530.912,398.559C511.815,384.683 461.94,348.447 461.94,348.447C461.94,348.447 412.45,384.404 393.191,398.397C392.129,399.168 390.692,399.168 389.63,398.397C388.569,397.626 388.124,396.258 388.53,395.01C395.886,372.369 414.79,314.191 414.79,314.191C414.79,314.191 364.428,277.601 345.541,263.878C344.55,263.158 344.135,261.882 344.514,260.716C344.892,259.551 345.978,258.762 347.203,258.762C370.55,258.762 432.8,258.762 432.8,258.762C432.8,258.762 451.007,202.726 458.638,179.241Z" style="fill:rgb(235,235,235);"/>
    </g>
</svg>
