<?xml version="1.0" encoding="UTF-8" standalone="no"?>
<!DOCTYPE svg PUBLIC "-//W3C//DTD SVG 1.1//EN" "http://www.w3.org/Graphics/SVG/1.1/DTD/svg11.dtd">
<svg width="100%" height="100%" viewBox="0 0 414 274" version="1.1" xmlns="http://www.w3.org/2000/svg" xmlns:xlink="http://www.w3.org/1999/xlink" xml:space="preserve" xmlns:serif="http://www.serif.com/" style="fill-rule:evenodd;clip-rule:evenodd;stroke-linejoin:round;stroke-miterlimit:2;">
    <g transform="matrix(1,0,0,1,-189.062,-73.4848)">
        <g>
            <g transform="matrix(8.93163,0,0,8.93163,-1590.35,-2084.42)">
                <path d="M201.105,272.003L201.105,263.699L199.881,263.699L199.881,272.003L201.105,272.003ZM201.201,272.099L199.785,272.099L199.785,263.603L201.201,263.603L201.201,272.099Z" style="fill:rgb(248,176,176);fill-rule:nonzero;stroke:rgb(248,176,176);stroke-width:0.11px;"/>
                <path d="M203.913,272.099C204.473,272.099 204.925,271.939 205.269,271.619C205.661,271.251 205.857,270.739 205.857,270.083L205.857,269.555C205.857,268.803 205.565,268.167 204.981,267.647C204.805,267.487 204.509,267.299 204.093,267.083C203.837,266.931 203.689,266.839 203.649,266.807C203.345,266.535 203.193,266.207 203.193,265.823L203.193,265.619C203.193,265.323 203.257,265.111 203.385,264.983C203.497,264.879 203.673,264.827 203.913,264.827C204.161,264.827 204.337,264.879 204.441,264.983C204.569,265.087 204.633,265.299 204.633,265.619L204.633,266.303L205.857,266.303L205.857,265.619C205.857,264.963 205.661,264.451 205.269,264.083C204.925,263.763 204.473,263.603 203.913,263.603C203.353,263.603 202.901,263.763 202.557,264.083C202.165,264.451 201.969,264.963 201.969,265.619L201.969,265.823C201.969,266.191 202.045,266.537 202.197,266.861C202.349,267.185 202.565,267.471 202.845,267.719C203.005,267.863 203.285,268.043 203.685,268.259C203.933,268.395 204.097,268.495 204.177,268.559C204.481,268.839 204.633,269.171 204.633,269.555L204.633,270.083C204.633,270.403 204.569,270.615 204.441,270.719C204.337,270.823 204.161,270.875 203.913,270.875C203.673,270.875 203.497,270.823 203.385,270.719C203.257,270.591 203.193,270.379 203.193,270.083L203.193,269.039L201.969,269.039L201.969,270.083C201.969,270.739 202.165,271.251 202.557,271.619C202.901,271.939 203.353,272.099 203.913,272.099ZM203.913,272.195C203.337,272.195 202.861,272.027 202.485,271.691C202.077,271.299 201.873,270.763 201.873,270.083L201.873,268.943L203.289,268.943L203.289,270.083C203.289,270.355 203.345,270.543 203.457,270.647C203.553,270.735 203.705,270.779 203.913,270.779C204.129,270.779 204.281,270.735 204.369,270.647C204.481,270.551 204.537,270.363 204.537,270.083L204.537,269.555C204.537,269.203 204.393,268.895 204.105,268.631C204.041,268.567 203.865,268.459 203.577,268.307C203.529,268.275 203.415,268.207 203.235,268.103C203.055,267.999 202.901,267.895 202.773,267.791C202.477,267.535 202.253,267.239 202.101,266.903C201.949,266.567 201.873,266.207 201.873,265.823L201.873,265.619C201.873,264.939 202.077,264.403 202.485,264.011C202.861,263.675 203.337,263.507 203.913,263.507C204.489,263.507 204.965,263.675 205.341,264.011C205.749,264.403 205.953,264.939 205.953,265.619L205.953,266.399L204.537,266.399L204.537,265.619C204.537,265.339 204.481,265.151 204.369,265.055C204.281,264.967 204.129,264.923 203.913,264.923C203.705,264.923 203.553,264.967 203.457,265.055C203.345,265.159 203.289,265.347 203.289,265.619L203.289,265.823C203.289,266.175 203.433,266.479 203.721,266.735C203.761,266.767 203.921,266.867 204.201,267.035C204.601,267.251 204.885,267.431 205.053,267.575C205.349,267.847 205.573,268.151 205.725,268.487C205.877,268.823 205.953,269.179 205.953,269.555L205.953,270.083C205.953,270.763 205.749,271.299 205.341,271.691C204.965,272.027 204.489,272.195 203.913,272.195Z" style="fill:rgb(248,176,176);fill-rule:nonzero;stroke:rgb(248,176,176);stroke-width:0.11px;"/>
                <path d="M210.333,272.099C210.893,272.099 211.345,271.939 211.689,271.619C212.081,271.251 212.277,270.739 212.277,270.083L212.277,269.555C212.277,268.803 211.985,268.167 211.401,267.647C211.225,267.487 210.929,267.299 210.513,267.083C210.257,266.931 210.109,266.839 210.069,266.807C209.765,266.535 209.613,266.207 209.613,265.823L209.613,265.619C209.613,265.323 209.677,265.111 209.805,264.983C209.917,264.879 210.093,264.827 210.333,264.827C210.581,264.827 210.757,264.879 210.861,264.983C210.989,265.087 211.053,265.299 211.053,265.619L211.053,266.303L212.277,266.303L212.277,265.619C212.277,264.963 212.081,264.451 211.689,264.083C211.345,263.763 210.893,263.603 210.333,263.603C209.773,263.603 209.321,263.763 208.977,264.083C208.585,264.451 208.389,264.963 208.389,265.619L208.389,265.823C208.389,266.191 208.465,266.537 208.617,266.861C208.769,267.185 208.985,267.471 209.265,267.719C209.425,267.863 209.705,268.043 210.105,268.259C210.353,268.395 210.517,268.495 210.597,268.559C210.901,268.839 211.053,269.171 211.053,269.555L211.053,270.083C211.053,270.403 210.989,270.615 210.861,270.719C210.757,270.823 210.581,270.875 210.333,270.875C210.093,270.875 209.917,270.823 209.805,270.719C209.677,270.591 209.613,270.379 209.613,270.083L209.613,269.039L208.389,269.039L208.389,270.083C208.389,270.739 208.585,271.251 208.977,271.619C209.321,271.939 209.773,272.099 210.333,272.099ZM210.333,272.195C209.757,272.195 209.281,272.027 208.905,271.691C208.497,271.299 208.293,270.763 208.293,270.083L208.293,268.943L209.709,268.943L209.709,270.083C209.709,270.355 209.765,270.543 209.877,270.647C209.973,270.735 210.125,270.779 210.333,270.779C210.549,270.779 210.701,270.735 210.789,270.647C210.901,270.551 210.957,270.363 210.957,270.083L210.957,269.555C210.957,269.203 210.813,268.895 210.525,268.631C210.461,268.567 210.285,268.459 209.997,268.307C209.949,268.275 209.835,268.207 209.655,268.103C209.475,267.999 209.321,267.895 209.193,267.791C208.897,267.535 208.673,267.239 208.521,266.903C208.369,266.567 208.293,266.207 208.293,265.823L208.293,265.619C208.293,264.939 208.497,264.403 208.905,264.011C209.281,263.675 209.757,263.507 210.333,263.507C210.909,263.507 211.385,263.675 211.761,264.011C212.169,264.403 212.373,264.939 212.373,265.619L212.373,266.399L210.957,266.399L210.957,265.619C210.957,265.339 210.901,265.151 210.789,265.055C210.701,264.967 210.549,264.923 210.333,264.923C210.125,264.923 209.973,264.967 209.877,265.055C209.765,265.159 209.709,265.347 209.709,265.619L209.709,265.823C209.709,266.175 209.853,266.479 210.141,266.735C210.181,266.767 210.341,266.867 210.621,267.035C211.021,267.251 211.305,267.431 211.473,267.575C211.769,267.847 211.993,268.151 212.145,268.487C212.297,268.823 212.373,269.179 212.373,269.555L212.373,270.083C212.373,270.763 212.169,271.299 211.761,271.691C211.385,272.027 210.909,272.195 210.333,272.195Z" style="fill:rgb(248,176,176);fill-rule:nonzero;stroke:rgb(248,176,176);stroke-width:0.11px;"/>
                <path d="M216.621,265.019L214.461,265.019L214.461,267.035L215.949,267.035L215.949,268.451L214.461,268.451L214.461,270.683L216.621,270.683L216.621,272.099L213.045,272.099L213.045,263.603L216.621,263.603L216.621,265.019ZM216.525,264.923L216.525,263.699L213.141,263.699L213.141,272.003L216.525,272.003L216.525,270.779L214.365,270.779L214.365,268.355L215.853,268.355L215.853,267.131L214.365,267.131L214.365,264.923L216.525,264.923Z" style="fill:rgb(248,176,176);fill-rule:nonzero;stroke:rgb(248,176,176);stroke-width:0.11px;"/>
                <path d="M220.821,272.003L220.821,270.779L218.661,270.779L218.661,263.699L217.437,263.699L217.437,272.003L220.821,272.003ZM220.917,272.099L217.341,272.099L217.341,263.603L218.757,263.603L218.757,270.683L220.917,270.683L220.917,272.099Z" style="fill:rgb(248,176,176);fill-rule:nonzero;stroke:rgb(248,176,176);stroke-width:0.11px;"/>
                <path d="M225.033,265.019L222.873,265.019L222.873,267.035L224.373,267.035L224.373,268.451L222.873,268.451L222.873,272.099L221.457,272.099L221.457,263.603L225.033,263.603L225.033,265.019ZM224.937,264.923L224.937,263.699L221.553,263.699L221.553,272.003L222.777,272.003L222.777,268.355L224.277,268.355L224.277,267.131L222.777,267.131L222.777,264.923L224.937,264.923Z" style="fill:rgb(248,176,176);fill-rule:nonzero;stroke:rgb(248,176,176);stroke-width:0.11px;"/>
                <path d="M229.377,272.099C229.937,272.099 230.389,271.939 230.733,271.619C231.125,271.251 231.321,270.739 231.321,270.083L231.321,269.051L230.097,269.051L230.097,270.083C230.097,270.395 230.037,270.607 229.917,270.719C229.805,270.823 229.625,270.875 229.377,270.875C229.137,270.875 228.961,270.823 228.849,270.719C228.721,270.591 228.657,270.379 228.657,270.083L228.657,265.619C228.657,265.323 228.721,265.111 228.849,264.983C228.961,264.879 229.137,264.827 229.377,264.827C229.625,264.827 229.805,264.879 229.917,264.983C230.037,265.087 230.097,265.299 230.097,265.619L230.097,266.315L231.321,266.315L231.321,265.619C231.321,264.963 231.125,264.451 230.733,264.083C230.389,263.763 229.937,263.603 229.377,263.603C228.833,263.603 228.381,263.763 228.021,264.083C227.629,264.475 227.433,264.987 227.433,265.619L227.433,270.083C227.433,270.715 227.629,271.227 228.021,271.619C228.381,271.939 228.833,272.099 229.377,272.099ZM229.377,272.195C228.809,272.195 228.333,272.027 227.949,271.691C227.541,271.283 227.337,270.747 227.337,270.083L227.337,265.619C227.337,264.955 227.541,264.419 227.949,264.011C228.333,263.675 228.809,263.507 229.377,263.507C229.953,263.507 230.429,263.675 230.805,264.011C231.213,264.403 231.417,264.939 231.417,265.619L231.417,266.411L230.001,266.411L230.001,265.619C230.001,265.339 229.949,265.151 229.845,265.055C229.749,264.967 229.593,264.923 229.377,264.923C229.161,264.923 229.009,264.967 228.921,265.055C228.809,265.159 228.753,265.347 228.753,265.619L228.753,270.083C228.753,270.355 228.809,270.543 228.921,270.647C229.009,270.735 229.161,270.779 229.377,270.779C229.593,270.779 229.749,270.735 229.845,270.647C229.949,270.551 230.001,270.363 230.001,270.083L230.001,268.955L231.417,268.955L231.417,270.083C231.417,270.763 231.213,271.299 230.805,271.691C230.429,272.027 229.953,272.195 229.377,272.195Z" style="fill:rgb(248,176,176);fill-rule:nonzero;stroke:rgb(248,176,176);stroke-width:0.11px;"/>
                <path d="M235.149,272.099L234.909,270.767L233.469,270.767L233.229,272.099L231.789,272.099L233.493,263.603L234.885,263.603L236.589,272.099L235.149,272.099ZM235.221,272.003L236.469,272.003L234.813,263.699L233.565,263.699L231.909,272.003L233.157,272.003L233.397,270.671L234.981,270.671L235.221,272.003ZM233.721,269.351L234.657,269.351L234.189,266.663L233.721,269.351ZM233.601,269.447L234.189,266.111L234.777,269.447L233.601,269.447Z" style="fill:rgb(248,176,176);fill-rule:nonzero;stroke:rgb(248,176,176);stroke-width:0.11px;"/>
                <path d="M241.185,272.099L239.745,272.099L239.061,268.727L238.545,268.727L238.545,272.099L237.129,272.099L237.129,263.603L239.169,263.603C239.753,263.603 240.229,263.775 240.597,264.119C240.765,264.271 240.909,264.481 241.029,264.749C241.149,265.017 241.209,265.339 241.209,265.715L241.209,266.615C241.209,266.999 241.149,267.325 241.029,267.593C240.909,267.861 240.765,268.071 240.597,268.223C240.597,268.223 240.537,268.271 240.417,268.367L241.185,272.099ZM240.321,268.319C240.409,268.263 240.477,268.207 240.525,268.151C240.717,267.975 240.863,267.757 240.963,267.497C241.063,267.237 241.113,266.943 241.113,266.615L241.113,265.715C241.113,265.051 240.917,264.543 240.525,264.191C240.173,263.863 239.721,263.699 239.169,263.699L237.225,263.699L237.225,272.003L238.449,272.003L238.449,268.631L239.133,268.631L239.817,272.003L241.065,272.003L240.321,268.319ZM239.793,265.715C239.793,265.451 239.737,265.263 239.625,265.151C239.529,265.063 239.377,265.019 239.169,265.019L238.545,265.019L238.545,267.311L239.169,267.311C239.377,267.311 239.529,267.267 239.625,267.179C239.737,267.075 239.793,266.887 239.793,266.615L239.793,265.715ZM239.889,266.615C239.889,266.911 239.825,267.123 239.697,267.251C239.585,267.355 239.409,267.407 239.169,267.407L238.449,267.407L238.449,264.923L239.169,264.923C239.409,264.923 239.585,264.975 239.697,265.079C239.825,265.223 239.889,265.435 239.889,265.715L239.889,266.615Z" style="fill:rgb(248,176,176);fill-rule:nonzero;stroke:rgb(248,176,176);stroke-width:0.11px;"/>
                <path d="M245.469,265.019L243.309,265.019L243.309,267.035L244.797,267.035L244.797,268.451L243.309,268.451L243.309,270.683L245.469,270.683L245.469,272.099L241.893,272.099L241.893,263.603L245.469,263.603L245.469,265.019ZM245.373,264.923L245.373,263.699L241.989,263.699L241.989,272.003L245.373,272.003L245.373,270.779L243.213,270.779L243.213,268.355L244.701,268.355L244.701,267.131L243.213,267.131L243.213,264.923L245.373,264.923Z" style="fill:rgb(248,176,176);fill-rule:nonzero;stroke:rgb(248,176,176);stroke-width:0.11px;"/>
            </g>
            <g transform="matrix(2.44371,0,0,2.44371,-377.295,-197.511)">
                <g transform="matrix(48,0,0,48,232.289,172.767)">
                    <path d="M0.055,0.166C0.042,0.166 0.032,0.162 0.025,0.153C0.018,0.143 0.014,0.131 0.014,0.116C0.014,0.109 0.014,0.104 0.015,0.1C0.021,0.065 0.035,0.032 0.057,0.001C0.074,-0.024 0.083,-0.048 0.083,-0.072C0.083,-0.091 0.078,-0.109 0.069,-0.127L0.003,-0.263C-0.006,-0.282 -0.011,-0.3 -0.011,-0.316C-0.011,-0.345 0.005,-0.368 0.038,-0.385C0.059,-0.396 0.085,-0.407 0.118,-0.418C0.125,-0.421 0.13,-0.422 0.135,-0.421C0.154,-0.421 0.163,-0.413 0.164,-0.396C0.164,-0.389 0.162,-0.383 0.157,-0.379C0.152,-0.374 0.146,-0.372 0.139,-0.373C0.122,-0.374 0.108,-0.372 0.096,-0.366C0.083,-0.359 0.067,-0.349 0.046,-0.334C0.037,-0.328 0.033,-0.321 0.033,-0.313C0.033,-0.308 0.035,-0.303 0.038,-0.296L0.06,-0.253C0.086,-0.203 0.108,-0.157 0.125,-0.116L0.259,-0.242C0.264,-0.245 0.268,-0.247 0.273,-0.247C0.278,-0.247 0.282,-0.245 0.287,-0.241C0.292,-0.237 0.294,-0.233 0.294,-0.228C0.294,-0.223 0.292,-0.218 0.288,-0.214C0.283,-0.207 0.267,-0.191 0.238,-0.165C0.213,-0.142 0.2,-0.128 0.197,-0.125C0.194,-0.121 0.19,-0.117 0.187,-0.112C0.184,-0.107 0.18,-0.103 0.175,-0.098C0.154,-0.073 0.143,-0.047 0.143,-0.018C0.143,-0.013 0.144,-0.006 0.145,0.005C0.146,0.01 0.147,0.019 0.147,0.03C0.147,0.067 0.133,0.104 0.104,0.141C0.098,0.149 0.091,0.155 0.082,0.16C0.073,0.164 0.064,0.166 0.055,0.166ZM0.073,0.103C0.093,0.092 0.103,0.068 0.103,0.032C0.103,0.024 0.103,0.017 0.102,0.012C0.101,0.006 0.101,0.002 0.1,0.001C0.089,0.016 0.08,0.033 0.072,0.052C0.064,0.071 0.06,0.085 0.06,0.095C0.06,0.105 0.064,0.108 0.073,0.103Z" style="fill:rgb(107,153,107);fill-rule:nonzero;"/>
                </g>
                <g transform="matrix(48,0,0,48,244.625,172.767)">
                    <path d="M0.477,-0.396C0.482,-0.391 0.484,-0.387 0.484,-0.383C0.484,-0.377 0.481,-0.372 0.475,-0.367C0.469,-0.362 0.465,-0.358 0.463,-0.356C0.428,-0.312 0.401,-0.271 0.382,-0.233C0.363,-0.194 0.344,-0.143 0.325,-0.078C0.309,-0.022 0.294,0.024 0.281,0.059C0.267,0.094 0.253,0.119 0.24,0.133C0.229,0.144 0.218,0.15 0.208,0.15C0.201,0.15 0.194,0.148 0.188,0.143C0.182,0.138 0.177,0.13 0.174,0.12C0.169,0.105 0.167,0.085 0.167,0.061L0.167,0.025C0.167,0.011 0.168,-0.018 0.17,-0.062C0.172,-0.078 0.173,-0.095 0.173,-0.112C0.156,-0.069 0.146,-0.042 0.143,-0.032C0.132,0 0.12,0.031 0.107,0.061C0.094,0.091 0.076,0.13 0.053,0.178C0.048,0.189 0.042,0.201 0.034,0.213C0.025,0.225 0.02,0.233 0.017,0.236C0.009,0.247 -0.003,0.256 -0.019,0.261C-0.024,0.262 -0.028,0.263 -0.03,0.263C-0.054,0.263 -0.066,0.23 -0.066,0.164C-0.066,0.134 -0.063,0.098 -0.058,0.057C-0.038,-0.077 -0.016,-0.191 0.007,-0.285L0.009,-0.299C0.016,-0.318 0.026,-0.325 0.039,-0.321C0.05,-0.318 0.056,-0.311 0.056,-0.3C0.056,-0.297 0.055,-0.293 0.054,-0.286C0.043,-0.251 0.031,-0.197 0.018,-0.124C0.005,-0.054 -0.004,0.002 -0.01,0.045C-0.016,0.087 -0.019,0.13 -0.019,0.175L-0.018,0.193C-0.013,0.193 -0.01,0.192 -0.008,0.19C-0.006,0.188 -0.005,0.186 -0.004,0.183C-0.003,0.18 -0.002,0.179 -0.001,0.178C0.017,0.145 0.033,0.112 0.048,0.079C0.063,0.045 0.08,0.002 0.1,-0.049C0.101,-0.053 0.105,-0.063 0.111,-0.078C0.136,-0.143 0.155,-0.192 0.167,-0.225L0.223,-0.372C0.23,-0.39 0.24,-0.397 0.254,-0.394C0.265,-0.391 0.271,-0.383 0.271,-0.37C0.271,-0.365 0.271,-0.362 0.27,-0.36C0.267,-0.343 0.263,-0.317 0.256,-0.282L0.241,-0.204C0.22,-0.083 0.21,0 0.21,0.044C0.21,0.067 0.212,0.083 0.217,0.09C0.226,0.078 0.235,0.059 0.245,0.032C0.254,0.005 0.267,-0.034 0.283,-0.084C0.298,-0.133 0.312,-0.175 0.325,-0.209C0.34,-0.246 0.353,-0.273 0.365,-0.292C0.376,-0.311 0.393,-0.334 0.415,-0.363L0.433,-0.386C0.437,-0.39 0.442,-0.394 0.447,-0.398C0.452,-0.401 0.457,-0.403 0.462,-0.403C0.467,-0.403 0.472,-0.401 0.477,-0.396Z" style="fill:rgb(107,153,107);fill-rule:nonzero;"/>
                </g>
                <g transform="matrix(48,0,0,48,266.129,172.767)">
                    <path d="M0.123,0.024C0.108,0.031 0.093,0.034 0.078,0.034C0.051,0.034 0.027,0.023 0.008,0.002C-0.011,-0.019 -0.021,-0.051 -0.02,-0.093C-0.009,-0.154 0.008,-0.205 0.031,-0.248C0.053,-0.29 0.089,-0.324 0.139,-0.349C0.149,-0.354 0.16,-0.357 0.172,-0.357C0.184,-0.357 0.194,-0.354 0.203,-0.347C0.212,-0.339 0.218,-0.33 0.222,-0.317C0.223,-0.31 0.224,-0.306 0.224,-0.303C0.224,-0.296 0.222,-0.287 0.217,-0.275C0.203,-0.242 0.185,-0.213 0.163,-0.189C0.14,-0.164 0.113,-0.142 0.08,-0.123C0.073,-0.119 0.066,-0.116 0.057,-0.113C0.049,-0.11 0.043,-0.108 0.04,-0.106C0.037,-0.103 0.035,-0.099 0.035,-0.092C0.035,-0.048 0.05,-0.026 0.08,-0.026C0.09,-0.026 0.101,-0.028 0.113,-0.032C0.137,-0.039 0.166,-0.058 0.2,-0.087C0.233,-0.116 0.261,-0.144 0.284,-0.171L0.289,-0.178C0.3,-0.192 0.31,-0.199 0.318,-0.199C0.323,-0.199 0.327,-0.197 0.331,-0.193C0.337,-0.187 0.34,-0.181 0.34,-0.174C0.34,-0.167 0.336,-0.158 0.329,-0.147C0.307,-0.117 0.275,-0.085 0.234,-0.05C0.192,-0.015 0.155,0.01 0.123,0.024ZM0.054,-0.162C0.101,-0.188 0.139,-0.225 0.166,-0.273C0.167,-0.275 0.169,-0.278 0.172,-0.283C0.174,-0.287 0.176,-0.291 0.176,-0.295C0.176,-0.298 0.174,-0.301 0.171,-0.304C0.168,-0.307 0.165,-0.308 0.16,-0.308C0.155,-0.308 0.149,-0.306 0.143,-0.302C0.137,-0.297 0.13,-0.291 0.121,-0.282C0.103,-0.261 0.088,-0.242 0.077,-0.224C0.066,-0.205 0.058,-0.185 0.054,-0.162Z" style="fill:rgb(107,153,107);fill-rule:nonzero;"/>
                </g>
                <g transform="matrix(48,0,0,48,280.529,172.767)">
                    <path d="M-0.033,0.016C-0.044,0.008 -0.05,-0.003 -0.05,-0.018L-0.049,-0.03C-0.046,-0.062 -0.038,-0.093 -0.026,-0.123C-0.013,-0.153 0.003,-0.184 0.024,-0.216C0.043,-0.246 0.06,-0.27 0.075,-0.289C0.089,-0.308 0.106,-0.324 0.125,-0.338L0.146,-0.353C0.159,-0.362 0.172,-0.366 0.185,-0.366C0.197,-0.366 0.207,-0.362 0.214,-0.353C0.221,-0.343 0.226,-0.331 0.227,-0.314C0.228,-0.307 0.228,-0.297 0.228,-0.284L0.228,-0.254C0.227,-0.242 0.224,-0.234 0.219,-0.23C0.206,-0.217 0.197,-0.202 0.192,-0.187C0.187,-0.172 0.182,-0.151 0.178,-0.124C0.176,-0.103 0.173,-0.086 0.168,-0.071C0.188,-0.08 0.213,-0.097 0.242,-0.123C0.271,-0.148 0.29,-0.17 0.3,-0.188C0.301,-0.191 0.303,-0.195 0.306,-0.201C0.309,-0.206 0.312,-0.211 0.316,-0.214C0.319,-0.217 0.323,-0.219 0.328,-0.219C0.343,-0.219 0.351,-0.212 0.351,-0.199C0.351,-0.19 0.348,-0.18 0.341,-0.167C0.33,-0.146 0.309,-0.122 0.279,-0.094C0.248,-0.066 0.219,-0.041 0.19,-0.02C0.179,-0.011 0.169,-0.007 0.158,-0.007C0.151,-0.007 0.144,-0.009 0.138,-0.012C0.126,-0.019 0.12,-0.03 0.12,-0.045C0.12,-0.057 0.122,-0.076 0.126,-0.103C0.127,-0.107 0.129,-0.115 0.13,-0.127C0.125,-0.127 0.121,-0.126 0.118,-0.124C0.115,-0.121 0.113,-0.118 0.112,-0.116C0.11,-0.113 0.109,-0.11 0.108,-0.109C0.105,-0.105 0.097,-0.093 0.083,-0.072C0.069,-0.051 0.054,-0.033 0.039,-0.016C0.03,-0.006 0.022,0.002 0.014,0.008C0.003,0.017 -0.007,0.021 -0.016,0.021C-0.023,0.021 -0.028,0.019 -0.033,0.016ZM-0.006,-0.04C0.009,-0.054 0.03,-0.081 0.059,-0.122C0.087,-0.163 0.113,-0.203 0.137,-0.244C0.16,-0.284 0.174,-0.311 0.177,-0.326C0.131,-0.29 0.094,-0.249 0.066,-0.203C0.037,-0.156 0.013,-0.102 -0.006,-0.04Z" style="fill:rgb(107,153,107);fill-rule:nonzero;"/>
                </g>
                <g transform="matrix(48,0,0,48,296.177,172.767)">
                    <path d="M-0.14,0.403C-0.147,0.406 -0.151,0.407 -0.154,0.407C-0.161,0.407 -0.166,0.404 -0.171,0.398C-0.176,0.393 -0.178,0.388 -0.178,0.382C-0.178,0.377 -0.177,0.374 -0.174,0.371C-0.16,0.355 -0.15,0.337 -0.144,0.318C-0.137,0.299 -0.131,0.275 -0.126,0.246C-0.121,0.221 -0.116,0.202 -0.113,0.19C-0.104,0.161 -0.081,0.073 -0.042,-0.075C-0.003,-0.223 0.032,-0.356 0.063,-0.473L0.086,-0.56C0.104,-0.627 0.126,-0.697 0.151,-0.77C0.152,-0.775 0.155,-0.783 0.16,-0.795C0.165,-0.806 0.167,-0.817 0.167,-0.827C0.162,-0.829 0.157,-0.83 0.153,-0.83C0.149,-0.83 0.145,-0.829 0.14,-0.828C0.135,-0.827 0.131,-0.826 0.128,-0.825C-0.065,-0.781 -0.229,-0.739 -0.365,-0.7L-0.429,-0.682C-0.516,-0.659 -0.585,-0.637 -0.637,-0.618C-0.658,-0.61 -0.677,-0.602 -0.692,-0.594C-0.699,-0.59 -0.705,-0.588 -0.711,-0.588C-0.719,-0.588 -0.725,-0.592 -0.73,-0.601C-0.732,-0.605 -0.733,-0.609 -0.733,-0.612C-0.733,-0.621 -0.727,-0.63 -0.714,-0.637C-0.693,-0.648 -0.668,-0.658 -0.639,-0.669C-0.542,-0.702 -0.436,-0.734 -0.321,-0.764L-0.211,-0.793C-0.086,-0.826 0.003,-0.849 0.058,-0.862C0.103,-0.872 0.138,-0.879 0.165,-0.884C0.176,-0.886 0.184,-0.89 0.191,-0.896C0.197,-0.902 0.202,-0.911 0.207,-0.922C0.234,-0.989 0.258,-1.048 0.281,-1.1C0.304,-1.151 0.328,-1.201 0.354,-1.248C0.363,-1.264 0.371,-1.275 0.378,-1.28C0.384,-1.286 0.39,-1.289 0.397,-1.289C0.4,-1.289 0.404,-1.288 0.408,-1.286C0.42,-1.28 0.424,-1.27 0.421,-1.257C0.415,-1.233 0.407,-1.206 0.397,-1.177C0.396,-1.175 0.395,-1.173 0.393,-1.171C0.391,-1.168 0.389,-1.167 0.387,-1.167C0.376,-1.165 0.367,-1.16 0.362,-1.153C0.357,-1.146 0.352,-1.138 0.349,-1.129C0.345,-1.12 0.342,-1.113 0.34,-1.109L0.329,-1.086C0.311,-1.046 0.297,-1.014 0.287,-0.989C0.276,-0.964 0.267,-0.938 0.259,-0.911C0.264,-0.908 0.269,-0.907 0.274,-0.907C0.277,-0.907 0.282,-0.908 0.287,-0.909C0.366,-0.927 0.492,-0.952 0.665,-0.985L0.744,-1L0.831,-1.015L0.855,-1.019C0.863,-1.02 0.87,-1.021 0.876,-1.022C0.881,-1.022 0.886,-1.022 0.89,-1.022C0.913,-1.022 0.923,-1.013 0.922,-0.995C0.922,-0.988 0.919,-0.982 0.914,-0.978C0.909,-0.973 0.901,-0.971 0.892,-0.971C0.863,-0.969 0.836,-0.966 0.81,-0.962C0.783,-0.957 0.745,-0.95 0.696,-0.94C0.675,-0.935 0.643,-0.929 0.6,-0.921C0.543,-0.911 0.459,-0.895 0.347,-0.872L0.274,-0.857C0.259,-0.854 0.247,-0.849 0.238,-0.842C0.229,-0.835 0.223,-0.824 0.218,-0.81C0.189,-0.73 0.159,-0.635 0.128,-0.524C0.097,-0.412 0.055,-0.261 0.004,-0.068L-0.002,-0.044L-0.097,0.319C-0.104,0.344 -0.11,0.363 -0.117,0.375C-0.124,0.388 -0.131,0.397 -0.14,0.403Z" style="fill:rgb(107,153,107);fill-rule:nonzero;"/>
                </g>
                <g transform="matrix(48,0,0,48,303.425,172.767)">
                    <path d="M0.169,-0.569C0.157,-0.572 0.151,-0.582 0.151,-0.599C0.15,-0.616 0.161,-0.624 0.184,-0.624C0.199,-0.624 0.207,-0.618 0.207,-0.606C0.206,-0.599 0.201,-0.591 0.192,-0.582C0.182,-0.572 0.174,-0.568 0.169,-0.569ZM0.005,0.062C-0.003,0.063 -0.008,0.064 -0.01,0.064C-0.037,0.064 -0.05,0.045 -0.05,0.006C-0.05,-0.019 -0.043,-0.06 -0.028,-0.117C-0.013,-0.173 0.002,-0.228 0.019,-0.282C0.035,-0.335 0.047,-0.369 0.055,-0.384C0.062,-0.397 0.072,-0.402 0.083,-0.398C0.092,-0.395 0.096,-0.388 0.096,-0.378C0.096,-0.37 0.094,-0.359 0.09,-0.345C0.084,-0.326 0.072,-0.286 0.053,-0.224L0.011,-0.085C0.005,-0.066 0,-0.049 -0.005,-0.033C-0.009,-0.016 -0.011,-0.004 -0.011,0.003C-0.011,0.012 -0.008,0.016 -0.003,0.016C0.006,0.016 0.019,0.007 0.038,-0.011C0.084,-0.057 0.135,-0.114 0.19,-0.182C0.202,-0.197 0.211,-0.208 0.218,-0.215C0.223,-0.222 0.23,-0.225 0.237,-0.225C0.241,-0.225 0.245,-0.224 0.248,-0.221C0.254,-0.216 0.257,-0.211 0.257,-0.205C0.257,-0.2 0.255,-0.194 0.25,-0.187C0.246,-0.18 0.243,-0.175 0.24,-0.172C0.186,-0.104 0.139,-0.049 0.101,-0.008C0.062,0.034 0.03,0.057 0.005,0.062Z" style="fill:rgb(107,153,107);fill-rule:nonzero;"/>
                </g>
                <g transform="matrix(48,0,0,48,314.369,172.767)">
                    <path d="M-0.01,-0.039C-0.02,-0.043 -0.025,-0.051 -0.025,-0.064L-0.024,-0.076C-0.02,-0.104 -0.015,-0.134 -0.008,-0.165C0,-0.196 0.004,-0.215 0.006,-0.222L0.015,-0.261L0.024,-0.312C0.027,-0.323 0.031,-0.331 0.036,-0.336C0.041,-0.341 0.048,-0.342 0.055,-0.339C0.066,-0.336 0.071,-0.329 0.071,-0.319C0.071,-0.318 0.07,-0.313 0.068,-0.303L0.04,-0.164C0.039,-0.161 0.039,-0.158 0.04,-0.155C0.04,-0.151 0.04,-0.146 0.039,-0.141L0.067,-0.165C0.09,-0.184 0.106,-0.198 0.116,-0.207C0.129,-0.218 0.148,-0.23 0.175,-0.243C0.183,-0.247 0.191,-0.249 0.198,-0.249C0.213,-0.249 0.225,-0.24 0.233,-0.221C0.238,-0.208 0.244,-0.188 0.249,-0.163C0.252,-0.152 0.255,-0.143 0.259,-0.139C0.262,-0.134 0.267,-0.131 0.273,-0.131C0.28,-0.131 0.288,-0.133 0.297,-0.138C0.33,-0.153 0.358,-0.169 0.38,-0.185C0.402,-0.2 0.42,-0.22 0.435,-0.244C0.44,-0.252 0.445,-0.256 0.451,-0.256C0.455,-0.256 0.458,-0.255 0.46,-0.254C0.47,-0.248 0.473,-0.239 0.47,-0.228C0.462,-0.208 0.452,-0.192 0.44,-0.181C0.405,-0.149 0.363,-0.12 0.312,-0.095C0.299,-0.088 0.286,-0.085 0.273,-0.085C0.259,-0.085 0.247,-0.089 0.236,-0.098C0.225,-0.107 0.216,-0.119 0.209,-0.136C0.207,-0.142 0.203,-0.156 0.197,-0.177C0.196,-0.186 0.194,-0.195 0.191,-0.204C0.15,-0.181 0.109,-0.147 0.068,-0.103C0.065,-0.099 0.058,-0.092 0.049,-0.083C0.039,-0.074 0.031,-0.064 0.026,-0.054C0.021,-0.043 0.012,-0.037 0.001,-0.037C-0.004,-0.037 -0.007,-0.038 -0.01,-0.039Z" style="fill:rgb(107,153,107);fill-rule:nonzero;"/>
                </g>
                <g transform="matrix(48,0,0,48,335.057,172.767)">
                    <path d="M-0.067,0.913C-0.078,0.924 -0.09,0.93 -0.102,0.93C-0.11,0.93 -0.118,0.927 -0.125,0.921C-0.132,0.915 -0.137,0.906 -0.14,0.895C-0.148,0.868 -0.152,0.841 -0.151,0.814C-0.149,0.76 -0.142,0.705 -0.132,0.651C-0.121,0.596 -0.106,0.536 -0.087,0.472C-0.068,0.406 -0.045,0.34 -0.018,0.274C0.009,0.207 0.041,0.133 0.078,0.051C0.093,0.017 0.103,-0.017 0.107,-0.052C0.11,-0.075 0.115,-0.114 0.124,-0.169L0.13,-0.206L0.122,-0.21L0.109,-0.19C0.096,-0.17 0.086,-0.155 0.081,-0.145C0.074,-0.131 0.064,-0.116 0.053,-0.101C0.042,-0.086 0.03,-0.071 0.019,-0.057C0.009,-0.044 -0.001,-0.038 -0.012,-0.038C-0.016,-0.038 -0.02,-0.039 -0.025,-0.041C-0.041,-0.048 -0.048,-0.063 -0.045,-0.085C-0.042,-0.104 -0.036,-0.128 -0.027,-0.156C-0.016,-0.189 -0.005,-0.217 0.005,-0.24C0.014,-0.263 0.026,-0.285 0.039,-0.306L0.056,-0.331C0.067,-0.344 0.078,-0.354 0.089,-0.361C0.099,-0.368 0.112,-0.371 0.125,-0.371C0.14,-0.371 0.153,-0.368 0.163,-0.361C0.173,-0.354 0.181,-0.347 0.186,-0.338C0.191,-0.329 0.198,-0.317 0.206,-0.3C0.209,-0.295 0.21,-0.29 0.21,-0.285C0.21,-0.278 0.208,-0.274 0.203,-0.272C0.193,-0.267 0.187,-0.261 0.184,-0.254C0.181,-0.247 0.179,-0.238 0.178,-0.227C0.177,-0.216 0.176,-0.209 0.175,-0.205C0.173,-0.197 0.172,-0.188 0.171,-0.178C0.17,-0.168 0.17,-0.161 0.17,-0.158C0.173,-0.157 0.183,-0.166 0.2,-0.183C0.217,-0.2 0.235,-0.219 0.254,-0.242C0.273,-0.264 0.288,-0.283 0.298,-0.298C0.303,-0.305 0.307,-0.309 0.311,-0.312C0.314,-0.315 0.319,-0.315 0.325,-0.313C0.336,-0.309 0.341,-0.302 0.341,-0.291C0.341,-0.29 0.34,-0.286 0.339,-0.281C0.338,-0.28 0.337,-0.275 0.334,-0.267C0.331,-0.258 0.328,-0.251 0.323,-0.246L0.295,-0.215C0.261,-0.177 0.236,-0.148 0.221,-0.128C0.206,-0.108 0.189,-0.081 0.172,-0.048C0.157,-0.021 0.147,0.008 0.141,0.037C0.134,0.066 0.128,0.103 0.123,0.147L0.117,0.194C0.102,0.315 0.089,0.413 0.077,0.489C0.065,0.565 0.048,0.641 0.026,0.716C0.007,0.781 -0.017,0.837 -0.046,0.886C-0.052,0.896 -0.059,0.905 -0.067,0.913ZM0.013,-0.13C0.024,-0.143 0.035,-0.158 0.046,-0.175C0.056,-0.192 0.067,-0.208 0.076,-0.224C0.103,-0.269 0.125,-0.302 0.142,-0.323C0.137,-0.326 0.131,-0.327 0.125,-0.327C0.118,-0.327 0.112,-0.325 0.107,-0.321C0.101,-0.317 0.096,-0.311 0.09,-0.303C0.071,-0.28 0.056,-0.254 0.045,-0.226C0.033,-0.197 0.022,-0.165 0.013,-0.13ZM-0.099,0.873C-0.093,0.87 -0.089,0.867 -0.086,0.864C-0.083,0.861 -0.081,0.856 -0.078,0.851C-0.053,0.802 -0.036,0.762 -0.027,0.733C-0.012,0.686 0,0.638 0.01,0.589C0.019,0.54 0.029,0.481 0.039,0.413L0.05,0.345C0.052,0.335 0.057,0.299 0.065,0.238L0.072,0.188C0.063,0.195 0.059,0.199 0.059,0.2L0.032,0.269C0.008,0.328 -0.011,0.378 -0.026,0.418C-0.04,0.458 -0.052,0.499 -0.062,0.541L-0.071,0.578C-0.082,0.625 -0.091,0.663 -0.096,0.69C-0.101,0.716 -0.105,0.744 -0.108,0.773C-0.109,0.778 -0.109,0.785 -0.109,0.795C-0.109,0.818 -0.106,0.844 -0.099,0.873Z" style="fill:rgb(107,153,107);fill-rule:nonzero;"/>
                </g>
            </g>
        </g>
    </g>
</svg>
