<?xml version="1.0" encoding="UTF-8" standalone="no"?>
<!DOCTYPE svg PUBLIC "-//W3C//DTD SVG 1.1//EN" "http://www.w3.org/Graphics/SVG/1.1/DTD/svg11.dtd">
<svg width="100%" height="100%" viewBox="0 0 122 268" version="1.1" xmlns="http://www.w3.org/2000/svg" xmlns:xlink="http://www.w3.org/1999/xlink" xml:space="preserve" xmlns:serif="http://www.serif.com/" style="fill-rule:evenodd;clip-rule:evenodd;stroke-linejoin:round;stroke-miterlimit:2;">
    <g transform="matrix(1,0,0,1,-255.922,-162.9)">
        <g transform="matrix(1,0,0,1,119.364,-63.6005)">
            <path d="M151.403,484.256C151.403,484.256 147.169,488.276 144.059,484.544L160.043,448.112C161.963,443.888 163.355,440.672 164.219,438.464C171.899,421.088 178.043,406.832 182.651,395.696C183.611,393.488 184.451,391.424 185.171,389.504C185.891,387.584 186.587,385.808 187.259,384.176C191.675,372.848 195.227,364.448 197.915,358.976C198.683,357.248 199.067,355.568 199.067,353.936C199.067,352.592 198.827,351.056 198.347,349.328C195.083,337.616 189.803,320.144 182.507,296.912L177.611,281.072C175.307,273.392 173.627,267.632 172.571,263.792L169.547,253.136C169.163,251.792 168.971,250.784 168.971,250.112C168.971,248.48 169.595,247.472 170.843,247.088C171.419,246.896 171.851,246.8 172.139,246.8C173.003,246.8 173.867,247.232 174.731,248.096C175.403,248.864 176.027,250.4 176.603,252.704C179.099,261.824 183.227,275.312 188.987,293.168C194.555,310.256 198.395,322.64 200.507,330.32C200.699,331.184 200.987,332.36 201.371,333.848C201.755,335.336 202.187,336.728 202.667,338.024C203.147,339.32 203.819,340.592 204.683,341.84L211.019,325.856C214.667,316.928 216.923,311.36 217.787,309.152C224.507,291.872 229.307,278.864 232.187,270.128C233.723,265.328 235.619,259.832 237.875,253.64C240.131,247.448 241.787,242.912 242.843,240.032C242.843,240.032 243.659,237.696 244.907,235.584C245.483,234.528 246.347,234 247.499,234C248.075,234 248.651,234.144 249.227,234.432C250.091,234.816 250.523,235.584 250.523,236.736C250.523,237.408 250.475,237.888 250.379,238.176L249.803,239.904C245.963,249.504 246.683,248 239.963,267.392L233.915,284.672C230.075,295.424 225.803,306.896 221.099,319.088C216.395,331.28 213.467,338.864 212.315,341.84L209.003,350.192C208.235,352.208 207.851,353.984 207.851,355.52C207.851,356.576 208.091,357.968 208.571,359.696C211.739,370.64 215.099,382.76 218.651,396.056C222.203,409.352 224.555,418.208 225.707,422.624L229.307,436.448L230.603,441.056C231.467,443.84 231.995,445.664 232.187,446.528C232.379,447.104 232.715,448.304 233.195,450.128L237.863,469.329C237.863,472.209 236.711,473.649 234.407,473.649C233.255,473.649 232.463,473.313 232.031,472.641C231.599,471.969 226.667,453.392 226.283,451.856C225.419,448.784 224.507,445.088 223.547,440.768C223.067,439.04 222.443,436.664 221.675,433.64C220.907,430.616 220.235,428.048 219.659,425.936C215.723,412.016 210.587,393.248 204.251,369.632C204.251,369.536 204.155,369.152 203.963,368.48C203.771,367.808 203.291,367.28 202.523,366.896C201.851,368.048 201.467,368.72 201.371,368.912C198.587,376.016 195.275,383.96 191.435,392.744C187.595,401.528 184.955,407.648 183.515,411.104L177.035,425.936C168.779,445.136 161.387,462.032 154.859,476.624L151.403,484.256Z" style="fill:white;fill-rule:nonzero;stroke:white;stroke-width:15px;"/>
        </g>
    </g>
</svg>
