<svg xmlns="http://www.w3.org/2000/svg" xmlns:xlink="http://www.w3.org/1999/xlink" viewBox="0 0 1595.96 1589.04"><defs><style>.cls-1{fill:#231f20;}</style><symbol id="Calendar" data-name="Calendar" viewBox="0 0 349.5 347.98"><path d="M322,32.32H305.46a.2.2,0,0,1-.2-.2V27.51A27.59,27.59,0,0,0,277.75,0h0a27.59,27.59,0,0,0-27.51,27.51v4.61a.2.2,0,0,1-.2.2H99.44a.2.2,0,0,1-.2-.2V27.51A27.59,27.59,0,0,0,71.73,0h0A27.59,27.59,0,0,0,44.22,27.51v4.61a.2.2,0,0,1-.2.2H27.51A27.59,27.59,0,0,0,0,59.82V320.48A27.59,27.59,0,0,0,27.51,348H322a27.59,27.59,0,0,0,27.51-27.51V59.82A27.59,27.59,0,0,0,322,32.32Zm-60.83-5a16.4,16.4,0,0,1,16.38-16.38h.2a16.63,16.63,0,0,1,16.59,16.59V75.67a16.63,16.63,0,0,1-16.59,16.59h-.2a16.4,16.4,0,0,1-16.38-16.38Zm-206,0A16.4,16.4,0,0,1,71.53,10.92h.2A16.63,16.63,0,0,1,88.31,27.51V75.67A16.63,16.63,0,0,1,71.73,92.26h-.2A16.4,16.4,0,0,1,55.14,75.88ZM322.19,326.14H27.3a5.54,5.54,0,0,1-5.46-5.46V128.94a.2.2,0,0,1,.2-.2H327.45a.2.2,0,0,1,.2.2V320.68A5.54,5.54,0,0,1,322.19,326.14Z"/></symbol></defs><title>testo</title><g id="Layer_2" data-name="Layer 2"><g id="Paint_Patterns" data-name="Paint Patterns"><use id="Calendar-3" data-name="Calendar" width="349.5" height="347.98" transform="scale(4.57)" xlink:href="#Calendar"/><path class="cls-1" d="M595.68,1079.31c77.54-79.58,134.67-160.17,134.67-237.71,0-113.24-102-186.7-243.83-186.7-101,0-198,39-287,105.12H89v7.08H199.44l65.69,125.5c65.29-56.11,136.71-90.8,194.86-90.8,51,0,80.6,24.49,80.6,65.29,0,32.65-28.57,80.6-68.35,122.42L217.19,1259.88v117.32H751.77V1233.36h-301Z"/><polygon class="cls-1" points="1417.95 1214.41 1417.95 1082.37 1321.03 1082.37 1321.03 929.34 1152.7 929.34 1152.7 1082.37 1001.71 1082.37 1213.91 663.07 1039.46 663.07 813.99 1098.69 813.99 1220.1 1152.7 1220.1 1152.7 1377.21 1321.03 1377.21 1321.03 1220.1 1417.95 1220.1 1417.95 1220.5 1570.17 1220.5 1570.17 1214.41 1417.95 1214.41"/></g></g></svg>