<?xml version="1.0" encoding="UTF-8" standalone="no"?><!DOCTYPE svg PUBLIC "-//W3C//DTD SVG 1.1//EN" "http://www.w3.org/Graphics/SVG/1.1/DTD/svg11.dtd"><svg width="100%" height="100%" viewBox="0 0 2035 2035" version="1.1" xmlns="http://www.w3.org/2000/svg" xmlns:xlink="http://www.w3.org/1999/xlink" xml:space="preserve" xmlns:serif="http://www.serif.com/" style="fill-rule:evenodd;clip-rule:evenodd;stroke-linejoin:round;stroke-miterlimit:2;"><path d="M1017.26,0c561.441,0 1017.26,455.819 1017.26,1017.26c0,561.441 -455.819,1017.26 -1017.26,1017.26c-561.441,0 -1017.26,-455.819 -1017.26,-1017.26c0,-561.441 455.819,-1017.26 1017.26,-1017.26Zm-94.361,1190.92c-25.862,-25.911 -56.363,-57.145 -64.029,-65.999c-1.433,-2.36 -3.125,-4.525 -5.079,-6.478c-13.004,-12.972 -34.049,-12.972 -47.054,0l-363.802,363.867c-32.552,32.552 -32.552,85.319 0,117.871c32.552,32.552 85.319,32.552 117.871,0l362.093,-362.142c13.005,-13.004 13.005,-34.114 0,-47.119Zm66.439,363.998c-22.347,-0.066 -43.701,-9.148 -59.245,-25.212c-31.77,-32.682 -31.477,-84.814 0.635,-117.155l129.232,-129.232l-176.66,-176.676c-32.536,-32.536 -32.536,-85.287 0,-117.822c32.959,-31.495 84.863,-31.495 117.838,0l223.861,223.893c39.063,39.046 39.063,102.376 0,141.439l-176.367,176.367c-15.576,15.674 -36.768,24.463 -58.871,24.398l-0.423,0Zm543.327,-411.638c46.029,0 83.333,-37.305 83.333,-83.333c0,-46.029 -37.304,-83.333 -83.333,-83.333l-183.333,0l0,-100c0,-12.289 -6.771,-23.601 -17.611,-29.395c-10.84,-5.794 -23.991,-5.16 -34.228,1.66l-100,66.667c-9.262,6.185 -14.828,16.585 -14.828,27.734l0,100c0,55.225 44.775,100 100,100l250,0Zm-506.234,-609.472c-39.567,-37.761 -101.823,-37.761 -141.406,0l-223.893,223.942c-32.292,32.584 -32.178,85.156 0.277,117.594c32.438,32.438 85.009,32.536 117.594,0.244l176.66,-176.676l131.673,131.608c32.032,32.08 83.936,32.34 116.293,0.586c16.178,-15.332 25.472,-36.573 25.765,-58.854c0.309,-22.299 -8.431,-43.767 -24.203,-59.538l-178.76,-178.906Zm370.101,-123.291c-91.732,-7.667 -172.314,60.498 -179.964,152.229c-7.666,91.732 60.498,172.315 152.23,179.965c4.704,0.406 9.326,0.569 13.965,0.569c86.572,-0.163 158.659,-66.504 165.967,-152.767c7.568,-91.699 -60.515,-172.217 -152.198,-179.996Z" style="fill: #f8b0b0;"/></svg>