<svg xmlns="http://www.w3.org/2000/svg" width="149.9998" height="149.9998" viewBox="0 0 149.9998 149.9998"><defs><style>.\31 546bd0b-fd08-4fab-8995-8881b5e62587{fill:#b7b7b7;}.\33 dc2c51a-c552-4ddc-ad22-1dd8d7f93fb1{fill:#fff;}</style></defs><title>unconfirmed</title><g id="e263a409-243d-4bf9-beb9-8131495da360" data-name="Layer 2"><g id="a1e7a31e-be8d-4947-8531-dc4e1927952f" data-name="Android-Compatible Icon Set A"><circle class="1546bd0b-fd08-4fab-8995-8881b5e62587" cx="74.9999" cy="74.9999" r="74.9999"/><path class="3dc2c51a-c552-4ddc-ad22-1dd8d7f93fb1" d="M41.8624,52.4561c.6123-19.439,12.7041-30.4595,31.6836-30.4595,18.3672,0,30.6123,8.8774,30.6123,25.561,0,24.1841-24.1836,25.2554-24.1836,45.9185H66.505C66.505,68.8335,87.78,68.68,87.78,50.16c0-8.8774-6.2754-13.1631-15.7656-13.1631-9.9482,0-15.918,5.2041-16.377,15.6123ZM82.73,119.4966c0,5.9692-4.1328,10.2549-9.6436,10.2549s-9.6426-4.2856-9.6426-10.2549c0-5.8164,4.1328-9.9492,9.6426-9.9492S82.73,113.68,82.73,119.4966Z"/></g></g></svg>