<?xml version="1.0" encoding="UTF-8" standalone="no"?>
<!DOCTYPE svg PUBLIC "-//W3C//DTD SVG 1.1//EN" "http://www.w3.org/Graphics/SVG/1.1/DTD/svg11.dtd">
<svg width="100%" height="100%" viewBox="0 0 532 296" version="1.1" xmlns="http://www.w3.org/2000/svg" xmlns:xlink="http://www.w3.org/1999/xlink" xml:space="preserve" xmlns:serif="http://www.serif.com/" style="fill-rule:evenodd;clip-rule:evenodd;stroke-linejoin:round;stroke-miterlimit:2;">
    <g transform="matrix(1,0,0,1,0.0018592,0.0031776)">
        <g transform="matrix(1,0,0,1,-144.04,-118.392)">
            <g>
                <g transform="matrix(11.0072,0,0,11.0072,-1803.84,-3133.05)">
                    <g transform="matrix(12,0,0,12,177.756,310.86)">
                        <path d="M0.477,-0.396C0.482,-0.391 0.484,-0.387 0.484,-0.383C0.484,-0.377 0.481,-0.372 0.475,-0.367C0.469,-0.362 0.465,-0.358 0.463,-0.356C0.428,-0.312 0.401,-0.271 0.382,-0.233C0.363,-0.194 0.344,-0.143 0.325,-0.078C0.309,-0.022 0.294,0.024 0.281,0.059C0.267,0.094 0.253,0.119 0.24,0.133C0.229,0.144 0.218,0.15 0.208,0.15C0.201,0.15 0.194,0.148 0.188,0.143C0.182,0.138 0.177,0.13 0.174,0.12C0.169,0.105 0.167,0.085 0.167,0.061L0.167,0.025C0.167,0.011 0.168,-0.018 0.17,-0.062C0.172,-0.078 0.173,-0.095 0.173,-0.112C0.156,-0.069 0.146,-0.042 0.143,-0.032C0.132,0 0.12,0.031 0.107,0.061C0.094,0.091 0.076,0.13 0.053,0.178C0.048,0.189 0.042,0.201 0.034,0.213C0.025,0.225 0.02,0.233 0.017,0.236C0.009,0.247 -0.003,0.256 -0.019,0.261C-0.024,0.262 -0.028,0.263 -0.03,0.263C-0.054,0.263 -0.066,0.23 -0.066,0.164C-0.066,0.134 -0.063,0.098 -0.058,0.057C-0.038,-0.077 -0.016,-0.191 0.007,-0.285L0.009,-0.299C0.016,-0.318 0.026,-0.325 0.039,-0.321C0.05,-0.318 0.056,-0.311 0.056,-0.3C0.056,-0.297 0.055,-0.293 0.054,-0.286C0.043,-0.251 0.031,-0.197 0.018,-0.124C0.005,-0.054 -0.004,0.002 -0.01,0.045C-0.016,0.087 -0.019,0.13 -0.019,0.175L-0.018,0.193C-0.013,0.193 -0.01,0.192 -0.008,0.19C-0.006,0.188 -0.005,0.186 -0.004,0.183C-0.003,0.18 -0.002,0.179 -0.001,0.178C0.017,0.145 0.033,0.112 0.048,0.079C0.063,0.045 0.08,0.002 0.1,-0.049C0.101,-0.053 0.105,-0.063 0.111,-0.078C0.136,-0.143 0.155,-0.192 0.167,-0.225L0.223,-0.372C0.23,-0.39 0.24,-0.397 0.254,-0.394C0.265,-0.391 0.271,-0.383 0.271,-0.37C0.271,-0.365 0.271,-0.362 0.27,-0.36C0.267,-0.343 0.263,-0.317 0.256,-0.282L0.241,-0.204C0.22,-0.083 0.21,0 0.21,0.044C0.21,0.067 0.212,0.083 0.217,0.09C0.226,0.078 0.235,0.059 0.245,0.032C0.254,0.005 0.267,-0.034 0.283,-0.084C0.298,-0.133 0.312,-0.175 0.325,-0.209C0.34,-0.246 0.353,-0.273 0.365,-0.292C0.376,-0.311 0.393,-0.334 0.415,-0.363L0.433,-0.386C0.437,-0.39 0.442,-0.394 0.447,-0.398C0.452,-0.401 0.457,-0.403 0.462,-0.403C0.467,-0.403 0.472,-0.401 0.477,-0.396Z" style="fill:rgb(255,207,212);fill-rule:nonzero;"/>
                    </g>
                    <g transform="matrix(12,0,0,12,183.132,310.86)">
                        <path d="M0.007,0.065C-0.004,0.062 -0.011,0.056 -0.014,0.047C-0.017,0.038 -0.018,0.027 -0.018,0.014C-0.018,-0.018 -0.01,-0.057 0.006,-0.104C0.012,-0.122 0.015,-0.136 0.015,-0.147C0.015,-0.162 0.01,-0.175 0,-0.188C-0.007,-0.195 -0.01,-0.206 -0.01,-0.221C-0.01,-0.226 -0.009,-0.233 -0.008,-0.242C0.002,-0.302 0.028,-0.353 0.069,-0.394C0.075,-0.4 0.082,-0.405 0.09,-0.409C0.105,-0.416 0.117,-0.42 0.128,-0.42C0.141,-0.42 0.153,-0.416 0.162,-0.407C0.171,-0.398 0.178,-0.385 0.182,-0.368C0.187,-0.349 0.189,-0.329 0.189,-0.308C0.189,-0.281 0.185,-0.249 0.177,-0.214C0.176,-0.21 0.175,-0.205 0.173,-0.199C0.17,-0.193 0.169,-0.187 0.169,-0.182C0.169,-0.178 0.17,-0.173 0.172,-0.167C0.187,-0.172 0.211,-0.177 0.243,-0.184C0.268,-0.189 0.29,-0.194 0.309,-0.2C0.328,-0.205 0.346,-0.213 0.363,-0.222C0.367,-0.224 0.371,-0.225 0.374,-0.225C0.379,-0.225 0.383,-0.223 0.387,-0.219C0.39,-0.216 0.391,-0.212 0.391,-0.207C0.391,-0.203 0.39,-0.199 0.388,-0.195C0.379,-0.18 0.364,-0.17 0.343,-0.165C0.308,-0.157 0.255,-0.144 0.184,-0.127C0.171,-0.124 0.16,-0.119 0.153,-0.114C0.146,-0.108 0.14,-0.099 0.136,-0.086C0.119,-0.037 0.093,0.006 0.059,0.043C0.052,0.051 0.045,0.057 0.039,0.061C0.033,0.065 0.026,0.067 0.019,0.067C0.016,0.067 0.012,0.066 0.007,0.065ZM0.084,-0.169C0.093,-0.166 0.1,-0.164 0.105,-0.164C0.11,-0.164 0.115,-0.166 0.118,-0.17C0.121,-0.173 0.123,-0.18 0.126,-0.189C0.138,-0.233 0.145,-0.273 0.147,-0.309C0.146,-0.314 0.146,-0.319 0.146,-0.326C0.146,-0.333 0.146,-0.338 0.145,-0.342C0.141,-0.363 0.133,-0.373 0.122,-0.373C0.116,-0.373 0.108,-0.369 0.099,-0.361C0.062,-0.328 0.042,-0.288 0.037,-0.241C0.035,-0.222 0.038,-0.207 0.046,-0.196C0.053,-0.184 0.066,-0.175 0.084,-0.169ZM0.031,0.003C0.044,-0.008 0.055,-0.021 0.064,-0.036C0.072,-0.05 0.082,-0.069 0.093,-0.094C0.095,-0.099 0.099,-0.107 0.104,-0.118C0.099,-0.119 0.093,-0.12 0.085,-0.123C0.077,-0.126 0.071,-0.127 0.068,-0.127C0.061,-0.127 0.056,-0.123 0.053,-0.116C0.038,-0.082 0.03,-0.049 0.03,-0.017C0.03,-0.008 0.03,-0.002 0.031,0.003Z" style="fill:rgb(255,207,212);fill-rule:nonzero;"/>
                    </g>
                    <g transform="matrix(12,0,0,12,187.524,310.86)">
                        <path d="M-0.054,0.039C-0.063,0.035 -0.068,0.029 -0.069,0.021L-0.069,0.013C-0.069,0.008 -0.068,0.002 -0.067,-0.003C-0.049,-0.052 -0.029,-0.117 -0.008,-0.199C0.008,-0.258 0.022,-0.306 0.033,-0.341C0.034,-0.346 0.036,-0.35 0.037,-0.352C0.042,-0.364 0.049,-0.37 0.058,-0.37C0.06,-0.37 0.063,-0.369 0.067,-0.368C0.077,-0.365 0.082,-0.359 0.082,-0.349C0.082,-0.347 0.081,-0.343 0.08,-0.338C0.07,-0.309 0.062,-0.282 0.057,-0.259L0.057,-0.242C0.063,-0.241 0.068,-0.242 0.072,-0.245C0.075,-0.247 0.078,-0.249 0.081,-0.253C0.084,-0.256 0.086,-0.258 0.087,-0.259C0.1,-0.268 0.113,-0.272 0.124,-0.272C0.135,-0.272 0.144,-0.268 0.153,-0.259C0.162,-0.252 0.17,-0.248 0.178,-0.248C0.187,-0.248 0.195,-0.251 0.204,-0.257C0.231,-0.274 0.257,-0.293 0.281,-0.315C0.289,-0.323 0.297,-0.33 0.306,-0.337C0.31,-0.339 0.314,-0.34 0.317,-0.34C0.322,-0.34 0.326,-0.338 0.329,-0.334C0.334,-0.329 0.336,-0.325 0.336,-0.32C0.336,-0.318 0.335,-0.315 0.334,-0.311C0.333,-0.309 0.331,-0.306 0.329,-0.301C0.326,-0.296 0.324,-0.293 0.321,-0.291C0.306,-0.279 0.296,-0.27 0.289,-0.263C0.273,-0.249 0.259,-0.238 0.248,-0.23C0.237,-0.221 0.225,-0.214 0.212,-0.209C0.197,-0.202 0.184,-0.199 0.174,-0.199C0.165,-0.199 0.154,-0.202 0.142,-0.209C0.133,-0.215 0.125,-0.218 0.119,-0.218C0.11,-0.218 0.101,-0.213 0.093,-0.202C0.042,-0.136 0.006,-0.069 -0.015,-0.001C-0.017,0.005 -0.019,0.011 -0.022,0.017C-0.024,0.023 -0.027,0.028 -0.03,0.032C-0.038,0.039 -0.046,0.042 -0.054,0.039Z" style="fill:rgb(255,207,212);fill-rule:nonzero;"/>
                    </g>
                    <g transform="matrix(12,0,0,12,191.184,310.86)">
                        <path d="M-0.072,0.049C-0.086,0.049 -0.093,0.042 -0.093,0.028C-0.093,0.018 -0.09,0.007 -0.085,-0.004C-0.076,-0.025 -0.068,-0.045 -0.063,-0.064C-0.057,-0.083 -0.049,-0.112 -0.039,-0.149C-0.034,-0.17 -0.03,-0.187 -0.026,-0.202C-0.001,-0.292 0.021,-0.371 0.042,-0.438C0.062,-0.505 0.084,-0.571 0.108,-0.635C0.136,-0.709 0.161,-0.774 0.184,-0.829C0.207,-0.884 0.231,-0.937 0.258,-0.988L0.291,-1.049L0.312,-1.086C0.318,-1.096 0.325,-1.101 0.332,-1.101C0.335,-1.101 0.338,-1.1 0.341,-1.098C0.348,-1.095 0.352,-1.089 0.352,-1.082C0.352,-1.079 0.35,-1.073 0.346,-1.065C0.314,-1.01 0.285,-0.953 0.258,-0.894C0.231,-0.835 0.203,-0.766 0.172,-0.689C0.128,-0.577 0.086,-0.449 0.046,-0.304C0.039,-0.279 0.034,-0.259 0.031,-0.244C0.028,-0.228 0.026,-0.211 0.025,-0.194L0.077,-0.255C0.109,-0.294 0.132,-0.321 0.145,-0.336L0.162,-0.355C0.17,-0.363 0.177,-0.367 0.183,-0.367C0.187,-0.367 0.191,-0.365 0.196,-0.362C0.202,-0.357 0.205,-0.352 0.205,-0.346C0.205,-0.341 0.203,-0.335 0.198,-0.328C0.191,-0.318 0.184,-0.308 0.176,-0.297C0.168,-0.286 0.16,-0.277 0.152,-0.27C0.131,-0.251 0.111,-0.227 0.093,-0.199C0.106,-0.194 0.12,-0.19 0.135,-0.188C0.15,-0.185 0.159,-0.184 0.162,-0.183L0.183,-0.18C0.213,-0.175 0.256,-0.17 0.311,-0.163C0.322,-0.162 0.331,-0.16 0.337,-0.157C0.342,-0.154 0.346,-0.149 0.347,-0.14C0.348,-0.135 0.345,-0.13 0.339,-0.127C0.333,-0.123 0.325,-0.121 0.316,-0.121C0.311,-0.121 0.308,-0.121 0.305,-0.122C0.288,-0.125 0.273,-0.127 0.26,-0.128C0.247,-0.129 0.236,-0.13 0.228,-0.131C0.165,-0.138 0.118,-0.144 0.087,-0.151C0.08,-0.152 0.076,-0.153 0.074,-0.153C0.061,-0.153 0.051,-0.147 0.043,-0.135C0.022,-0.104 0.004,-0.078 -0.009,-0.056C-0.022,-0.033 -0.033,-0.01 -0.042,0.015C-0.046,0.026 -0.05,0.035 -0.054,0.041C-0.057,0.046 -0.063,0.049 -0.072,0.049Z" style="fill:rgb(255,207,212);fill-rule:nonzero;"/>
                    </g>
                    <g transform="matrix(12,0,0,12,194.928,310.86)">
                        <path d="M0.007,0.065C-0.004,0.062 -0.011,0.056 -0.014,0.047C-0.017,0.038 -0.018,0.027 -0.018,0.014C-0.018,-0.018 -0.01,-0.057 0.006,-0.104C0.012,-0.122 0.015,-0.136 0.015,-0.147C0.015,-0.162 0.01,-0.175 0,-0.188C-0.007,-0.195 -0.01,-0.206 -0.01,-0.221C-0.01,-0.226 -0.009,-0.233 -0.008,-0.242C0.002,-0.302 0.028,-0.353 0.069,-0.394C0.075,-0.4 0.082,-0.405 0.09,-0.409C0.105,-0.416 0.117,-0.42 0.128,-0.42C0.141,-0.42 0.153,-0.416 0.162,-0.407C0.171,-0.398 0.178,-0.385 0.182,-0.368C0.187,-0.349 0.189,-0.329 0.189,-0.308C0.189,-0.281 0.185,-0.249 0.177,-0.214C0.176,-0.21 0.175,-0.205 0.173,-0.199C0.17,-0.193 0.169,-0.187 0.169,-0.182C0.169,-0.178 0.17,-0.173 0.172,-0.167C0.187,-0.172 0.211,-0.177 0.243,-0.184C0.268,-0.189 0.29,-0.194 0.309,-0.2C0.328,-0.205 0.346,-0.213 0.363,-0.222C0.367,-0.224 0.371,-0.225 0.374,-0.225C0.379,-0.225 0.383,-0.223 0.387,-0.219C0.39,-0.216 0.391,-0.212 0.391,-0.207C0.391,-0.203 0.39,-0.199 0.388,-0.195C0.379,-0.18 0.364,-0.17 0.343,-0.165C0.308,-0.157 0.255,-0.144 0.184,-0.127C0.171,-0.124 0.16,-0.119 0.153,-0.114C0.146,-0.108 0.14,-0.099 0.136,-0.086C0.119,-0.037 0.093,0.006 0.059,0.043C0.052,0.051 0.045,0.057 0.039,0.061C0.033,0.065 0.026,0.067 0.019,0.067C0.016,0.067 0.012,0.066 0.007,0.065ZM0.084,-0.169C0.093,-0.166 0.1,-0.164 0.105,-0.164C0.11,-0.164 0.115,-0.166 0.118,-0.17C0.121,-0.173 0.123,-0.18 0.126,-0.189C0.138,-0.233 0.145,-0.273 0.147,-0.309C0.146,-0.314 0.146,-0.319 0.146,-0.326C0.146,-0.333 0.146,-0.338 0.145,-0.342C0.141,-0.363 0.133,-0.373 0.122,-0.373C0.116,-0.373 0.108,-0.369 0.099,-0.361C0.062,-0.328 0.042,-0.288 0.037,-0.241C0.035,-0.222 0.038,-0.207 0.046,-0.196C0.053,-0.184 0.066,-0.175 0.084,-0.169ZM0.031,0.003C0.044,-0.008 0.055,-0.021 0.064,-0.036C0.072,-0.05 0.082,-0.069 0.093,-0.094C0.095,-0.099 0.099,-0.107 0.104,-0.118C0.099,-0.119 0.093,-0.12 0.085,-0.123C0.077,-0.126 0.071,-0.127 0.068,-0.127C0.061,-0.127 0.056,-0.123 0.053,-0.116C0.038,-0.082 0.03,-0.049 0.03,-0.017C0.03,-0.008 0.03,-0.002 0.031,0.003Z" style="fill:rgb(255,207,212);fill-rule:nonzero;"/>
                    </g>
                    <g transform="matrix(12,0,0,12,199.32,310.86)">
                        <path d="M0.026,-0.039C0.017,-0.036 0.01,-0.034 0.004,-0.034C-0.014,-0.034 -0.026,-0.046 -0.032,-0.07C-0.034,-0.075 -0.035,-0.081 -0.035,-0.087C-0.033,-0.144 -0.021,-0.193 0.001,-0.236C0.005,-0.243 0.009,-0.249 0.012,-0.252C0.014,-0.255 0.018,-0.256 0.023,-0.256L0.031,-0.254C0.041,-0.251 0.046,-0.244 0.046,-0.234C0.046,-0.231 0.045,-0.226 0.042,-0.218C0.034,-0.197 0.028,-0.18 0.024,-0.166C0.019,-0.152 0.016,-0.138 0.014,-0.123C0.012,-0.111 0.011,-0.104 0.011,-0.103C0.011,-0.096 0.013,-0.089 0.018,-0.084C0.037,-0.096 0.054,-0.111 0.068,-0.128L0.167,-0.248L0.175,-0.258C0.186,-0.266 0.194,-0.27 0.2,-0.27C0.203,-0.27 0.206,-0.269 0.21,-0.268C0.22,-0.263 0.225,-0.255 0.225,-0.244C0.225,-0.24 0.225,-0.237 0.224,-0.235C0.223,-0.226 0.221,-0.217 0.219,-0.209C0.216,-0.2 0.214,-0.193 0.213,-0.186C0.209,-0.17 0.206,-0.155 0.203,-0.141C0.2,-0.126 0.199,-0.117 0.201,-0.114C0.209,-0.113 0.223,-0.12 0.243,-0.133C0.262,-0.146 0.274,-0.153 0.278,-0.155C0.285,-0.159 0.29,-0.161 0.294,-0.161C0.298,-0.161 0.302,-0.159 0.305,-0.156C0.308,-0.151 0.31,-0.147 0.31,-0.144C0.31,-0.14 0.308,-0.135 0.304,-0.128C0.296,-0.119 0.28,-0.107 0.255,-0.092C0.23,-0.077 0.211,-0.067 0.197,-0.063C0.188,-0.06 0.182,-0.059 0.18,-0.059C0.167,-0.059 0.159,-0.069 0.155,-0.089C0.154,-0.091 0.154,-0.094 0.154,-0.099C0.154,-0.106 0.155,-0.114 0.157,-0.122C0.159,-0.138 0.16,-0.147 0.16,-0.148C0.16,-0.155 0.159,-0.161 0.158,-0.165L0.081,-0.079C0.064,-0.06 0.045,-0.046 0.026,-0.039Z" style="fill:rgb(255,207,212);fill-rule:nonzero;"/>
                    </g>
                    <g transform="matrix(12,0,0,12,203.04,310.86)">
                        <path d="M-0.14,0.403C-0.147,0.406 -0.151,0.407 -0.154,0.407C-0.161,0.407 -0.166,0.404 -0.171,0.398C-0.176,0.393 -0.178,0.388 -0.178,0.382C-0.178,0.377 -0.177,0.374 -0.174,0.371C-0.16,0.355 -0.15,0.337 -0.144,0.318C-0.137,0.299 -0.131,0.275 -0.126,0.246C-0.121,0.221 -0.116,0.202 -0.113,0.19C-0.104,0.161 -0.081,0.073 -0.042,-0.075C-0.003,-0.223 0.032,-0.356 0.063,-0.473L0.086,-0.56C0.104,-0.627 0.126,-0.697 0.151,-0.77C0.152,-0.775 0.155,-0.783 0.16,-0.795C0.165,-0.806 0.167,-0.817 0.167,-0.827C0.162,-0.829 0.157,-0.83 0.153,-0.83C0.149,-0.83 0.145,-0.829 0.14,-0.828C0.135,-0.827 0.131,-0.826 0.128,-0.825C-0.065,-0.781 -0.229,-0.739 -0.365,-0.7L-0.429,-0.682C-0.516,-0.659 -0.585,-0.637 -0.637,-0.618C-0.658,-0.61 -0.677,-0.602 -0.692,-0.594C-0.699,-0.59 -0.705,-0.588 -0.711,-0.588C-0.719,-0.588 -0.725,-0.592 -0.73,-0.601C-0.732,-0.605 -0.733,-0.609 -0.733,-0.612C-0.733,-0.621 -0.727,-0.63 -0.714,-0.637C-0.693,-0.648 -0.668,-0.658 -0.639,-0.669C-0.542,-0.702 -0.436,-0.734 -0.321,-0.764L-0.211,-0.793C-0.086,-0.826 0.003,-0.849 0.058,-0.862C0.103,-0.872 0.138,-0.879 0.165,-0.884C0.176,-0.886 0.184,-0.89 0.191,-0.896C0.197,-0.902 0.202,-0.911 0.207,-0.922C0.234,-0.989 0.258,-1.048 0.281,-1.1C0.304,-1.151 0.328,-1.201 0.354,-1.248C0.363,-1.264 0.371,-1.275 0.378,-1.28C0.384,-1.286 0.39,-1.289 0.397,-1.289C0.4,-1.289 0.404,-1.288 0.408,-1.286C0.42,-1.28 0.424,-1.27 0.421,-1.257C0.415,-1.233 0.407,-1.206 0.397,-1.177C0.396,-1.175 0.395,-1.173 0.393,-1.171C0.391,-1.168 0.389,-1.167 0.387,-1.167C0.376,-1.165 0.367,-1.16 0.362,-1.153C0.357,-1.146 0.352,-1.138 0.349,-1.129C0.345,-1.12 0.342,-1.113 0.34,-1.109L0.329,-1.086C0.311,-1.046 0.297,-1.014 0.287,-0.989C0.276,-0.964 0.267,-0.938 0.259,-0.911C0.264,-0.908 0.269,-0.907 0.274,-0.907C0.277,-0.907 0.282,-0.908 0.287,-0.909C0.366,-0.927 0.492,-0.952 0.665,-0.985L0.744,-1L0.831,-1.015L0.855,-1.019C0.863,-1.02 0.87,-1.021 0.876,-1.022L0.89,-1.022C0.913,-1.022 0.923,-1.013 0.922,-0.995C0.922,-0.988 0.919,-0.982 0.914,-0.978C0.909,-0.973 0.901,-0.971 0.892,-0.971C0.863,-0.969 0.836,-0.966 0.81,-0.962C0.783,-0.957 0.745,-0.95 0.696,-0.94C0.675,-0.935 0.643,-0.929 0.6,-0.921C0.543,-0.911 0.459,-0.895 0.347,-0.872L0.274,-0.857C0.259,-0.854 0.247,-0.849 0.238,-0.842C0.229,-0.835 0.223,-0.824 0.218,-0.81C0.189,-0.73 0.159,-0.635 0.128,-0.524C0.097,-0.412 0.055,-0.261 0.004,-0.068L-0.002,-0.044L-0.097,0.319C-0.104,0.344 -0.11,0.363 -0.117,0.375C-0.124,0.388 -0.131,0.397 -0.14,0.403Z" style="fill:rgb(255,207,212);fill-rule:nonzero;"/>
                    </g>
                    <g transform="matrix(12,0,0,12,204.852,310.86)">
                        <path d="M0.055,0.166C0.042,0.166 0.032,0.162 0.025,0.153C0.018,0.143 0.014,0.131 0.014,0.116C0.014,0.109 0.014,0.104 0.015,0.1C0.021,0.065 0.035,0.032 0.057,0.001C0.074,-0.024 0.083,-0.048 0.083,-0.072C0.083,-0.091 0.078,-0.109 0.069,-0.127L0.003,-0.263C-0.006,-0.282 -0.011,-0.3 -0.011,-0.316C-0.011,-0.345 0.005,-0.368 0.038,-0.385C0.059,-0.396 0.085,-0.407 0.118,-0.418C0.125,-0.421 0.13,-0.422 0.135,-0.421C0.154,-0.421 0.163,-0.413 0.164,-0.396C0.164,-0.389 0.162,-0.383 0.157,-0.379C0.152,-0.374 0.146,-0.372 0.139,-0.373C0.122,-0.374 0.108,-0.372 0.096,-0.366C0.083,-0.359 0.067,-0.349 0.046,-0.334C0.037,-0.328 0.033,-0.321 0.033,-0.313C0.033,-0.308 0.035,-0.303 0.038,-0.296L0.06,-0.253C0.086,-0.203 0.108,-0.157 0.125,-0.116L0.259,-0.242C0.264,-0.245 0.268,-0.247 0.273,-0.247C0.278,-0.247 0.282,-0.245 0.287,-0.241C0.292,-0.237 0.294,-0.233 0.294,-0.228C0.294,-0.223 0.292,-0.218 0.288,-0.214C0.283,-0.207 0.267,-0.191 0.238,-0.165C0.213,-0.142 0.2,-0.128 0.197,-0.125C0.194,-0.121 0.19,-0.117 0.187,-0.112C0.184,-0.107 0.18,-0.103 0.175,-0.098C0.154,-0.073 0.143,-0.047 0.143,-0.018C0.143,-0.013 0.144,-0.006 0.145,0.005C0.146,0.01 0.147,0.019 0.147,0.03C0.147,0.067 0.133,0.104 0.104,0.141C0.098,0.149 0.091,0.155 0.082,0.16C0.073,0.164 0.064,0.166 0.055,0.166ZM0.073,0.103C0.093,0.092 0.103,0.068 0.103,0.032C0.103,0.024 0.103,0.017 0.102,0.012C0.101,0.006 0.101,0.002 0.1,0.001C0.089,0.016 0.08,0.033 0.072,0.052C0.064,0.071 0.06,0.085 0.06,0.095C0.06,0.105 0.064,0.108 0.073,0.103Z" style="fill:rgb(255,207,212);fill-rule:nonzero;"/>
                    </g>
                </g>
                <g transform="matrix(11.6901,0,0,11.6901,-3008.68,-2268.82)">
                    <path d="M275.756,229.257C276.316,229.257 276.768,229.097 277.112,228.777C277.504,228.409 277.7,227.897 277.7,227.241L277.7,222.777C277.7,222.121 277.504,221.609 277.112,221.241C276.768,220.921 276.316,220.761 275.756,220.761C275.196,220.761 274.744,220.921 274.4,221.241C274.008,221.609 273.812,222.121 273.812,222.777L273.812,227.241C273.812,227.897 274.008,228.409 274.4,228.777C274.744,229.097 275.196,229.257 275.756,229.257ZM275.756,229.353C275.18,229.353 274.704,229.185 274.328,228.849C273.92,228.457 273.716,227.921 273.716,227.241L273.716,222.777C273.716,222.097 273.92,221.561 274.328,221.169C274.704,220.833 275.18,220.665 275.756,220.665C276.332,220.665 276.808,220.833 277.184,221.169C277.592,221.561 277.796,222.097 277.796,222.777L277.796,227.241C277.796,227.921 277.592,228.457 277.184,228.849C276.808,229.185 276.332,229.353 275.756,229.353ZM275.756,221.985C276.004,221.985 276.18,222.037 276.284,222.141C276.412,222.245 276.476,222.457 276.476,222.777L276.476,227.241C276.476,227.561 276.412,227.773 276.284,227.877C276.18,227.981 276.004,228.033 275.756,228.033C275.516,228.033 275.34,227.981 275.228,227.877C275.1,227.749 275.036,227.537 275.036,227.241L275.036,222.777C275.036,222.481 275.1,222.269 275.228,222.141C275.34,222.037 275.516,221.985 275.756,221.985ZM275.756,222.081C275.548,222.081 275.396,222.125 275.3,222.213C275.188,222.317 275.132,222.505 275.132,222.777L275.132,227.241C275.132,227.513 275.188,227.701 275.3,227.805C275.396,227.893 275.548,227.937 275.756,227.937C275.972,227.937 276.124,227.893 276.212,227.805C276.324,227.709 276.38,227.521 276.38,227.241L276.38,222.777C276.38,222.497 276.324,222.309 276.212,222.213C276.124,222.125 275.972,222.081 275.756,222.081Z" style="fill:rgb(61,61,61);fill-rule:nonzero;stroke:rgb(130,130,130);stroke-width:0.26px;"/>
                    <path d="M282.704,220.761L282.704,229.257L281.852,229.257L279.92,225.165L279.92,229.257L278.504,229.257L278.504,220.761L279.356,220.761L281.288,224.841L281.288,220.761L282.704,220.761ZM282.608,220.857L281.384,220.857L281.384,225.273L279.284,220.857L278.6,220.857L278.6,229.161L279.824,229.161L279.824,224.733L281.924,229.161L282.608,229.161L282.608,220.857Z" style="fill:rgb(61,61,61);fill-rule:nonzero;stroke:rgb(130,130,130);stroke-width:0.26px;"/>
                    <path d="M287.42,229.161C287.972,229.161 288.42,229.009 288.764,228.705C288.964,228.529 289.116,228.313 289.22,228.057C289.316,227.817 289.364,227.529 289.364,227.193L289.364,222.873C289.364,222.209 289.168,221.701 288.776,221.349C288.424,221.021 287.972,220.857 287.42,220.857L285.476,220.857L285.476,229.161L287.42,229.161ZM285.38,229.257L285.38,220.761L287.42,220.761C288.004,220.761 288.48,220.933 288.848,221.277C289.016,221.429 289.16,221.639 289.28,221.907C289.4,222.175 289.46,222.497 289.46,222.873L289.46,227.193C289.46,227.529 289.412,227.829 289.316,228.093C289.204,228.365 289.044,228.593 288.836,228.777C288.468,229.097 287.996,229.257 287.42,229.257L285.38,229.257ZM286.7,222.081L287.42,222.081C287.66,222.081 287.836,222.133 287.948,222.237C288.076,222.381 288.14,222.593 288.14,222.873L288.14,227.193C288.14,227.481 288.08,227.681 287.96,227.793C287.848,227.889 287.668,227.937 287.42,227.937L286.7,227.937L286.7,222.081ZM287.42,227.841C287.644,227.841 287.8,227.801 287.888,227.721C287.992,227.633 288.044,227.457 288.044,227.193L288.044,222.873C288.044,222.609 287.988,222.421 287.876,222.309C287.78,222.221 287.628,222.177 287.42,222.177L286.796,222.177L286.796,227.841L287.42,227.841Z" style="fill:rgb(61,61,61);fill-rule:nonzero;stroke:rgb(130,130,130);stroke-width:0.26px;"/>
                    <path d="M293.792,222.177L291.632,222.177L291.632,224.193L293.12,224.193L293.12,225.609L291.632,225.609L291.632,227.841L293.792,227.841L293.792,229.257L290.216,229.257L290.216,220.761L293.792,220.761L293.792,222.177ZM293.696,222.081L293.696,220.857L290.312,220.857L290.312,229.161L293.696,229.161L293.696,227.937L291.536,227.937L291.536,225.513L293.024,225.513L293.024,224.289L291.536,224.289L291.536,222.081L293.696,222.081Z" style="fill:rgb(61,61,61);fill-rule:nonzero;stroke:rgb(130,130,130);stroke-width:0.26px;"/>
                    <path d="M299.312,220.761L300.152,220.761L300.152,229.257L298.736,229.257L298.736,225.285L297.752,227.937L296.912,227.937L295.928,225.285L295.928,229.257L294.512,229.257L294.512,220.761L295.352,220.761L297.332,225.345L299.312,220.761ZM299.384,220.857L297.332,225.585L295.28,220.857L294.608,220.857L294.608,229.161L295.832,229.161L295.832,224.757L296.984,227.841L297.68,227.841L298.832,224.757L298.832,229.161L300.056,229.161L300.056,220.857L299.384,220.857Z" style="fill:rgb(61,61,61);fill-rule:nonzero;stroke:rgb(130,130,130);stroke-width:0.26px;"/>
                    <path d="M304.04,229.257L303.8,227.925L302.36,227.925L302.12,229.257L300.68,229.257L302.384,220.761L303.776,220.761L305.48,229.257L304.04,229.257ZM304.112,229.161L305.36,229.161L303.704,220.857L302.456,220.857L300.8,229.161L302.048,229.161L302.288,227.829L303.872,227.829L304.112,229.161ZM302.612,226.509L303.548,226.509L303.08,223.821L302.612,226.509ZM302.492,226.605L303.08,223.269L303.668,226.605L302.492,226.605Z" style="fill:rgb(61,61,61);fill-rule:nonzero;stroke:rgb(130,130,130);stroke-width:0.26px;"/>
                    <path d="M310.172,220.761L310.172,229.257L309.32,229.257L307.388,225.165L307.388,229.257L305.972,229.257L305.972,220.761L306.824,220.761L308.756,224.841L308.756,220.761L310.172,220.761ZM310.076,220.857L308.852,220.857L308.852,225.273L306.752,220.857L306.068,220.857L306.068,229.161L307.292,229.161L307.292,224.733L309.392,229.161L310.076,229.161L310.076,220.857Z" style="fill:rgb(61,61,61);fill-rule:nonzero;stroke:rgb(130,130,130);stroke-width:0.26px;"/>
                    <path d="M313.028,229.161C313.58,229.161 314.028,229.009 314.372,228.705C314.572,228.529 314.724,228.313 314.828,228.057C314.924,227.817 314.972,227.529 314.972,227.193L314.972,222.873C314.972,222.209 314.776,221.701 314.384,221.349C314.032,221.021 313.58,220.857 313.028,220.857L311.084,220.857L311.084,229.161L313.028,229.161ZM310.988,229.257L310.988,220.761L313.028,220.761C313.612,220.761 314.088,220.933 314.456,221.277C314.624,221.429 314.768,221.639 314.888,221.907C315.008,222.175 315.068,222.497 315.068,222.873L315.068,227.193C315.068,227.529 315.02,227.829 314.924,228.093C314.812,228.365 314.652,228.593 314.444,228.777C314.076,229.097 313.604,229.257 313.028,229.257L310.988,229.257ZM312.308,222.081L313.028,222.081C313.268,222.081 313.444,222.133 313.556,222.237C313.684,222.381 313.748,222.593 313.748,222.873L313.748,227.193C313.748,227.481 313.688,227.681 313.568,227.793C313.456,227.889 313.276,227.937 313.028,227.937L312.308,227.937L312.308,222.081ZM313.028,227.841C313.252,227.841 313.408,227.801 313.496,227.721C313.6,227.633 313.652,227.457 313.652,227.193L313.652,222.873C313.652,222.609 313.596,222.421 313.484,222.309C313.388,222.221 313.236,222.177 313.028,222.177L312.404,222.177L312.404,227.841L313.028,227.841Z" style="fill:rgb(61,61,61);fill-rule:nonzero;stroke:rgb(130,130,130);stroke-width:0.26px;"/>
                </g>
            </g>
        </g>
    </g>
</svg>
